M48
INCH,TZ
T1C0.0118
T2C0.0300
T3C0.0315
T4C0.0394
%
G90
G05
T1
X30500Y-23800
X30600Y-22950
X30650Y-22100
X30700Y-25350
X31000Y-22250
X31100Y-21050
X31250Y-26900
X31600Y-27550
X31750Y-20100
X31771Y-27060
X31906Y-25694
X32016Y-22896
X32400Y-19600
X32700Y-23750
X33150Y-19100
X33150Y-20100
X33168Y-27570
X33289Y-27279
X33594Y-27199
X33726Y-26884
X34050Y-18800
X34070Y-25140
X34500Y-26150
X34550Y-28300
X34750Y-25900
X34801Y-28059
X34839Y-27239
X35050Y-26750
X35070Y-23947
X35250Y-26550
X35300Y-25400
X35350Y-21800
X35390Y-23640
X35450Y-28850
X35480Y-27450
X35550Y-25100
X35550Y-29450
X35599Y-18657
X35800Y-27100
X35800Y-29700
X35850Y-25800
X35900Y-24950
X35950Y-22010
X35950Y-29250
X36050Y-28150
X36150Y-18700
X36150Y-23600
X36200Y-25400
X36300Y-22850
X36300Y-32300
X36350Y-25050
X36400Y-26450
X36550Y-27700
X36550Y-29850
X36600Y-28700
X36800Y-18950
X37000Y-19400
X37000Y-25750
X37050Y-28200
X37195Y-31334
X37250Y-24450
X37250Y-25950
X37304Y-31652
X37334Y-23776
X37400Y-29050
X37600Y-19350
X37600Y-19900
X37650Y-27550
X37700Y-26450
X37700Y-33500
X37950Y-27100
X38000Y-26700
X38030Y-30170
X38050Y-25250
X38150Y-19750
X38150Y-33850
X38250Y-28100
X38300Y-28500
X38300Y-32650
X38490Y-25810
X38550Y-32400
X38585Y-30196
X38650Y-20200
X38700Y-34350
X38740Y-28610
X38750Y-27400
X38770Y-29650
X38978Y-29916
X39000Y-25450
X39050Y-27800
X39150Y-20800
X39150Y-28350
X39250Y-34850
X39300Y-24350
X39350Y-28150
X39450Y-23700
X39600Y-23100
X39600Y-24900
X39700Y-21350
X39700Y-28500
X39700Y-28900
X39700Y-35250
X39850Y-23700
X39850Y-24000
X40050Y-28900
X40150Y-20950
X40150Y-22650
X40150Y-23100
X40350Y-23700
X40350Y-24000
X40550Y-20450
X40800Y-22650
X40800Y-23100
X40800Y-23700
X40800Y-24000
X40950Y-19950
X41150Y-23700
X41200Y-22800
X41547Y-27487
X41600Y-19450
X41600Y-25100
X41667Y-28583
X41850Y-29550
X41900Y-24800
X42150Y-27346
X42250Y-29500
X42300Y-24450
X42350Y-19050
X42350Y-23150
X42450Y-32800
X42541Y-26691
X42550Y-26000
X42575Y-27050
X42600Y-23450
X42650Y-29900
X42700Y-22900
X42700Y-24100
X42950Y-23850
X43000Y-23200
X43050Y-32200
X43150Y-30350
X43300Y-18750
X43300Y-24250
X43350Y-23600
X43500Y-30700
X43750Y-23950
X43900Y-31050
X44100Y-31300
X44330Y-23610
X44350Y-18700
X44470Y-24760
X44700Y-26500
X44800Y-30650
X45450Y-18850
X45450Y-30000
X46100Y-29450
X46400Y-19200
X46700Y-28800
X47150Y-28200
X47200Y-19750
X47600Y-27650
X47800Y-20450
X47900Y-27200
X48200Y-21100
X48200Y-26500
X48500Y-25800
X48550Y-21950
X48650Y-25000
X48750Y-22900
X48800Y-23600
T2
X44186Y-30264
X44893Y-29557
X45600Y-28850
X46307Y-28143
X47014Y-27436
T3
X34043Y-24057
X34750Y-23350
X35457Y-22643
T4
X31296Y-24450
X32003Y-23743
X32003Y-25157
X32710Y-24450
X32750Y-25900
X33457Y-25193
X34226Y-22022
X34922Y-21326
X36780Y-22140
X36787Y-23563
X37494Y-22856
X37500Y-21440
X38201Y-22149
X38908Y-21442
X41783Y-20095
X42490Y-20802
X43748Y-22248
X44455Y-22955
X44628Y-21426
X45324Y-22122
X46232Y-23532
X46928Y-25620
X48320Y-24228
T0
M30
