G04 #@! TF.GenerationSoftware,KiCad,Pcbnew,(7.0.0)*
G04 #@! TF.CreationDate,2023-04-27T15:14:50-06:00*
G04 #@! TF.ProjectId,Fonocardiograma_V3C,466f6e6f-6361-4726-9469-6f6772616d61,rev?*
G04 #@! TF.SameCoordinates,Original*
G04 #@! TF.FileFunction,Soldermask,Top*
G04 #@! TF.FilePolarity,Negative*
%FSLAX46Y46*%
G04 Gerber Fmt 4.6, Leading zero omitted, Abs format (unit mm)*
G04 Created by KiCad (PCBNEW (7.0.0)) date 2023-04-27 15:14:50*
%MOMM*%
%LPD*%
G01*
G04 APERTURE LIST*
G04 Aperture macros list*
%AMRoundRect*
0 Rectangle with rounded corners*
0 $1 Rounding radius*
0 $2 $3 $4 $5 $6 $7 $8 $9 X,Y pos of 4 corners*
0 Add a 4 corners polygon primitive as box body*
4,1,4,$2,$3,$4,$5,$6,$7,$8,$9,$2,$3,0*
0 Add four circle primitives for the rounded corners*
1,1,$1+$1,$2,$3*
1,1,$1+$1,$4,$5*
1,1,$1+$1,$6,$7*
1,1,$1+$1,$8,$9*
0 Add four rect primitives between the rounded corners*
20,1,$1+$1,$2,$3,$4,$5,0*
20,1,$1+$1,$4,$5,$6,$7,0*
20,1,$1+$1,$6,$7,$8,$9,0*
20,1,$1+$1,$8,$9,$2,$3,0*%
%AMHorizOval*
0 Thick line with rounded ends*
0 $1 width*
0 $2 $3 position (X,Y) of the first rounded end (center of the circle)*
0 $4 $5 position (X,Y) of the second rounded end (center of the circle)*
0 Add line between two ends*
20,1,$1,$2,$3,$4,$5,0*
0 Add two circle primitives to create the rounded ends*
1,1,$1,$2,$3*
1,1,$1,$4,$5*%
%AMRotRect*
0 Rectangle, with rotation*
0 The origin of the aperture is its center*
0 $1 length*
0 $2 width*
0 $3 Rotation angle, in degrees counterclockwise*
0 Add horizontal line*
21,1,$1,$2,0,0,$3*%
G04 Aperture macros list end*
%ADD10RotRect,1.300000X1.000000X225.000000*%
%ADD11RotRect,1.300000X1.000000X315.000000*%
%ADD12RotRect,1.300000X1.000000X45.000000*%
%ADD13RotRect,1.700000X1.700000X45.000000*%
%ADD14HorizOval,1.700000X0.000000X0.000000X0.000000X0.000000X0*%
%ADD15RotRect,1.700000X1.700000X315.000000*%
%ADD16HorizOval,1.700000X0.000000X0.000000X0.000000X0.000000X0*%
%ADD17RoundRect,0.250000X0.574524X0.097227X0.097227X0.574524X-0.574524X-0.097227X-0.097227X-0.574524X0*%
%ADD18RoundRect,0.250000X-0.954594X-0.106066X-0.106066X-0.954594X0.954594X0.106066X0.106066X0.954594X0*%
%ADD19HorizOval,1.700000X-0.106066X-0.106066X0.106066X0.106066X0*%
%ADD20RoundRect,0.375000X-0.707107X-0.176777X-0.176777X-0.707107X0.707107X0.176777X0.176777X0.707107X0*%
%ADD21RoundRect,0.250000X0.088388X-0.548008X0.548008X-0.088388X-0.088388X0.548008X-0.548008X0.088388X0*%
%ADD22RotRect,1.700000X1.700000X225.000000*%
%ADD23HorizOval,1.700000X0.000000X0.000000X0.000000X0.000000X0*%
%ADD24RotRect,1.500000X2.500000X45.000000*%
%ADD25HorizOval,1.500000X-0.353553X0.353553X0.353553X-0.353553X0*%
%ADD26RotRect,1.700000X1.700000X135.000000*%
%ADD27RoundRect,0.250000X0.106066X-0.954594X0.954594X-0.106066X-0.106066X0.954594X-0.954594X0.106066X0*%
%ADD28HorizOval,1.700000X-0.106066X0.106066X0.106066X-0.106066X0*%
%ADD29HorizOval,1.700000X0.000000X0.000000X0.000000X0.000000X0*%
%ADD30C,1.524000*%
%ADD31C,1.560000*%
%ADD32RotRect,1.560000X1.560000X225.000000*%
G04 APERTURE END LIST*
D10*
X105155919Y-74675999D03*
X104095259Y-73615339D03*
X103034599Y-72554679D03*
X101973939Y-71494019D03*
X100913279Y-70433359D03*
X99852619Y-69372698D03*
X98791958Y-68312038D03*
X97731298Y-67251378D03*
X96670638Y-66190718D03*
X95609978Y-65130058D03*
X94549318Y-64069398D03*
X93488658Y-63008737D03*
X92427997Y-61948077D03*
D11*
X90589520Y-61665235D03*
X89528860Y-62725895D03*
X88468199Y-63786555D03*
X87407539Y-64847215D03*
X86346879Y-65907875D03*
X85286219Y-66968535D03*
X84225559Y-68029196D03*
X83164899Y-69089856D03*
D12*
X83447741Y-70928333D03*
X84508401Y-71988994D03*
X85569062Y-73049654D03*
X86629722Y-74110314D03*
X87690382Y-75170974D03*
X88751042Y-76231634D03*
X89811702Y-77292294D03*
X90872362Y-78352955D03*
X91933023Y-79413615D03*
X92993683Y-80474275D03*
X94054343Y-81534935D03*
X95115003Y-82595595D03*
X96175663Y-83656255D03*
D13*
X83184999Y-65785999D03*
D14*
X84981050Y-63989948D03*
D15*
X106128548Y-51041438D03*
D16*
X107924599Y-52837489D03*
D17*
X81454823Y-67484823D03*
X79987577Y-66017577D03*
D18*
X113355639Y-54421594D03*
D19*
X115123405Y-56189360D03*
D20*
X80066344Y-54920344D03*
X84017656Y-58871656D03*
D21*
X78396216Y-59525784D03*
X79845784Y-58076216D03*
D15*
X98826005Y-54462993D03*
D16*
X97029954Y-56259044D03*
X95233903Y-58055095D03*
X93437851Y-59851147D03*
D22*
X83083122Y-62102999D03*
D23*
X81287071Y-63899050D03*
X81287071Y-60306948D03*
X79491020Y-62102999D03*
D24*
X86468948Y-61105050D03*
D25*
X88264999Y-59308999D03*
X90061050Y-57512948D03*
D26*
X95249999Y-54457599D03*
D27*
X86933594Y-55935361D03*
D28*
X88701360Y-54167593D03*
D26*
X112915561Y-58305561D03*
D29*
X111119510Y-56509510D03*
D21*
X91223216Y-51143784D03*
X92672784Y-49694216D03*
D30*
X112231898Y-76871103D03*
X114027949Y-75075052D03*
X115824000Y-73279000D03*
X117620052Y-71482949D03*
X119416103Y-69686898D03*
D26*
X93421199Y-56235599D03*
D21*
X92874216Y-52794784D03*
X94323784Y-51345216D03*
D31*
X119196153Y-65073687D03*
X117428386Y-59770386D03*
D32*
X122731686Y-61538152D03*
M02*
