G04 #@! TF.GenerationSoftware,KiCad,Pcbnew,(7.0.0)*
G04 #@! TF.CreationDate,2023-04-27T15:14:50-06:00*
G04 #@! TF.ProjectId,Fonocardiograma_V3C,466f6e6f-6361-4726-9469-6f6772616d61,rev?*
G04 #@! TF.SameCoordinates,Original*
G04 #@! TF.FileFunction,Paste,Bot*
G04 #@! TF.FilePolarity,Positive*
%FSLAX46Y46*%
G04 Gerber Fmt 4.6, Leading zero omitted, Abs format (unit mm)*
G04 Created by KiCad (PCBNEW (7.0.0)) date 2023-04-27 15:14:50*
%MOMM*%
%LPD*%
G01*
G04 APERTURE LIST*
G04 Aperture macros list*
%AMRoundRect*
0 Rectangle with rounded corners*
0 $1 Rounding radius*
0 $2 $3 $4 $5 $6 $7 $8 $9 X,Y pos of 4 corners*
0 Add a 4 corners polygon primitive as box body*
4,1,4,$2,$3,$4,$5,$6,$7,$8,$9,$2,$3,0*
0 Add four circle primitives for the rounded corners*
1,1,$1+$1,$2,$3*
1,1,$1+$1,$4,$5*
1,1,$1+$1,$6,$7*
1,1,$1+$1,$8,$9*
0 Add four rect primitives between the rounded corners*
20,1,$1+$1,$2,$3,$4,$5,0*
20,1,$1+$1,$4,$5,$6,$7,0*
20,1,$1+$1,$6,$7,$8,$9,0*
20,1,$1+$1,$8,$9,$2,$3,0*%
%AMRotRect*
0 Rectangle, with rotation*
0 The origin of the aperture is its center*
0 $1 length*
0 $2 width*
0 $3 Rotation angle, in degrees counterclockwise*
0 Add horizontal line*
21,1,$1,$2,0,0,$3*%
G04 Aperture macros list end*
%ADD10RotRect,1.560000X0.650000X45.000000*%
%ADD11RoundRect,0.250000X-0.070711X0.565685X-0.565685X0.070711X0.070711X-0.565685X0.565685X-0.070711X0*%
%ADD12RoundRect,0.150000X0.689429X-0.477297X-0.477297X0.689429X-0.689429X0.477297X0.477297X-0.689429X0*%
%ADD13RoundRect,0.250000X0.565685X0.070711X0.070711X0.565685X-0.565685X-0.070711X-0.070711X-0.565685X0*%
%ADD14RoundRect,0.250000X0.574524X0.097227X0.097227X0.574524X-0.574524X-0.097227X-0.097227X-0.574524X0*%
%ADD15RoundRect,0.250000X-0.574524X-0.097227X-0.097227X-0.574524X0.574524X0.097227X0.097227X0.574524X0*%
%ADD16RoundRect,0.150000X0.565685X-0.353553X-0.353553X0.565685X-0.565685X0.353553X0.353553X-0.565685X0*%
%ADD17RoundRect,0.250000X0.097227X-0.574524X0.574524X-0.097227X-0.097227X0.574524X-0.574524X0.097227X0*%
%ADD18RoundRect,0.250000X0.070711X-0.565685X0.565685X-0.070711X-0.070711X0.565685X-0.565685X0.070711X0*%
%ADD19RoundRect,0.250000X-0.097227X0.574524X-0.574524X0.097227X0.097227X-0.574524X0.574524X-0.097227X0*%
%ADD20RoundRect,0.250000X-0.565685X-0.070711X-0.070711X-0.565685X0.565685X0.070711X0.070711X0.565685X0*%
%ADD21RoundRect,0.250000X-0.353553X0.000000X0.000000X-0.353553X0.353553X0.000000X0.000000X0.353553X0*%
G04 APERTURE END LIST*
D10*
X85188156Y-53950345D03*
X84516405Y-53278593D03*
X83844653Y-52606842D03*
X85753842Y-50697653D03*
X87097345Y-52041156D03*
D11*
X118817107Y-67364893D03*
X117402893Y-68779107D03*
D12*
X112041077Y-66901923D03*
X111143052Y-67799949D03*
X110245026Y-68697975D03*
X109347000Y-69596000D03*
X108448975Y-70494026D03*
X107550949Y-71392052D03*
X106652923Y-72290077D03*
X103152745Y-68789899D03*
X104050770Y-67891873D03*
X104948796Y-66993847D03*
X105846822Y-66095822D03*
X106744847Y-65197796D03*
X107642873Y-64299770D03*
X108540899Y-63401745D03*
D13*
X111578107Y-73986107D03*
X110163893Y-72571893D03*
D14*
X106143623Y-57985223D03*
X104676377Y-56517977D03*
D15*
X84864377Y-71021377D03*
X86331623Y-72488623D03*
D12*
X100811766Y-77186412D03*
X99913741Y-78084438D03*
X99015715Y-78982464D03*
X98117689Y-79880489D03*
X97219664Y-80778515D03*
X96321638Y-81676541D03*
X95423612Y-82574566D03*
X91923434Y-79074388D03*
X92821459Y-78176362D03*
X93719485Y-77278336D03*
X94617511Y-76380311D03*
X95515536Y-75482285D03*
X96413562Y-74584259D03*
X97311588Y-73686234D03*
D16*
X106254623Y-60888546D03*
X105356597Y-61786572D03*
X104458572Y-62684597D03*
X103560546Y-63582623D03*
X98469377Y-58491454D03*
X99367403Y-57593428D03*
X100265428Y-56695403D03*
X101163454Y-55797377D03*
D10*
X87732249Y-70608652D03*
X87060498Y-69936900D03*
X86388746Y-69265149D03*
X88297935Y-67355960D03*
X89641438Y-68699463D03*
D13*
X81352107Y-56841107D03*
X79937893Y-55426893D03*
D17*
X91091936Y-67388990D03*
X92559182Y-65921744D03*
D18*
X92383893Y-54301107D03*
X93798107Y-52886893D03*
X90051186Y-71492814D03*
X91465400Y-70078600D03*
D13*
X84146107Y-59508107D03*
X82731893Y-58093893D03*
D19*
X94333739Y-72849061D03*
X92866493Y-74316307D03*
D14*
X112493623Y-64487623D03*
X111026377Y-63020377D03*
X113001623Y-72615623D03*
X111534377Y-71148377D03*
D11*
X90170000Y-74168000D03*
X88755786Y-75582214D03*
D15*
X98580377Y-67084377D03*
X100047623Y-68551623D03*
D11*
X95605600Y-68732400D03*
X94191386Y-70146614D03*
X92862400Y-71475600D03*
X91448186Y-72889814D03*
D13*
X110181107Y-75383107D03*
X108766893Y-73968893D03*
D17*
X88744623Y-48034377D03*
X87277377Y-49501623D03*
D14*
X114398157Y-71218157D03*
X112930911Y-69750911D03*
D19*
X115795623Y-64290377D03*
X114328377Y-65757623D03*
D17*
X88801377Y-50898623D03*
X90268623Y-49431377D03*
X89666093Y-65934307D03*
X91133339Y-64467061D03*
D14*
X101063623Y-74774623D03*
X99596377Y-73307377D03*
D19*
X91596493Y-75586307D03*
X90129247Y-77053553D03*
X97071730Y-70085670D03*
X95604484Y-71552916D03*
D18*
X87337479Y-74155721D03*
X88751693Y-72741507D03*
D20*
X101418107Y-67128107D03*
X100003893Y-65713893D03*
D18*
X92815693Y-68728307D03*
X94229907Y-67314093D03*
D15*
X101374377Y-64290377D03*
X102841623Y-65757623D03*
D18*
X81461893Y-70125307D03*
X82876107Y-68711093D03*
X103704107Y-74857893D03*
X102289893Y-76272107D03*
X90936093Y-52827907D03*
X92350307Y-51413693D03*
D13*
X81326707Y-67458307D03*
X79912493Y-66044093D03*
D18*
X115878893Y-67255107D03*
X117293107Y-65840893D03*
D13*
X102688107Y-71192107D03*
X101273893Y-69777893D03*
D21*
X83977517Y-56012117D03*
X85745283Y-57779883D03*
D14*
X81359177Y-53342977D03*
X82826423Y-54810223D03*
M02*
