G04 #@! TF.GenerationSoftware,KiCad,Pcbnew,(7.0.0)*
G04 #@! TF.CreationDate,2023-04-27T15:14:50-06:00*
G04 #@! TF.ProjectId,Fonocardiograma_V3C,466f6e6f-6361-4726-9469-6f6772616d61,rev?*
G04 #@! TF.SameCoordinates,Original*
G04 #@! TF.FileFunction,Legend,Top*
G04 #@! TF.FilePolarity,Positive*
%FSLAX46Y46*%
G04 Gerber Fmt 4.6, Leading zero omitted, Abs format (unit mm)*
G04 Created by KiCad (PCBNEW (7.0.0)) date 2023-04-27 15:14:50*
%MOMM*%
%LPD*%
G01*
G04 APERTURE LIST*
%ADD10C,0.000000*%
%ADD11C,0.150000*%
%ADD12C,0.125000*%
%ADD13C,0.127000*%
%ADD14C,0.200000*%
%ADD15C,0.120000*%
%ADD16C,0.203200*%
G04 APERTURE END LIST*
D10*
G36*
X111413479Y-48289024D02*
G01*
X111422196Y-48289321D01*
X111431183Y-48289796D01*
X111449747Y-48291248D01*
X111468701Y-48293310D01*
X111487604Y-48295957D01*
X111505992Y-48299093D01*
X111514869Y-48300847D01*
X111523438Y-48302695D01*
X111531659Y-48304637D01*
X111539468Y-48306685D01*
X111566052Y-48314813D01*
X111592101Y-48324434D01*
X111617584Y-48335484D01*
X111642422Y-48347921D01*
X111666576Y-48361688D01*
X111689964Y-48376755D01*
X111712566Y-48393079D01*
X111734304Y-48410581D01*
X111755128Y-48429239D01*
X111774973Y-48449007D01*
X111793805Y-48469837D01*
X111811539Y-48491676D01*
X111828147Y-48514466D01*
X111843551Y-48538171D01*
X111857703Y-48562748D01*
X111870573Y-48588146D01*
X111880637Y-48610954D01*
X111889553Y-48634326D01*
X111897343Y-48658235D01*
X111903991Y-48682613D01*
X111909498Y-48707454D01*
X111913836Y-48732680D01*
X111917043Y-48758259D01*
X111919091Y-48784149D01*
X111919992Y-48810328D01*
X111919738Y-48836730D01*
X111918323Y-48863306D01*
X111915735Y-48890023D01*
X111911988Y-48916847D01*
X111907085Y-48943713D01*
X111901004Y-48970588D01*
X111893748Y-48997449D01*
X111892071Y-49003266D01*
X111890519Y-49008766D01*
X111889133Y-49013787D01*
X111887940Y-49018246D01*
X111887000Y-49022000D01*
X111886305Y-49024908D01*
X111886069Y-49026009D01*
X111885914Y-49026876D01*
X111885829Y-49027448D01*
X111885830Y-49027647D01*
X111885835Y-49027760D01*
X111885905Y-49027823D01*
X111885983Y-49027891D01*
X111886282Y-49027994D01*
X111886739Y-49028083D01*
X111887347Y-49028146D01*
X111888082Y-49028161D01*
X111888958Y-49028166D01*
X111891040Y-49028093D01*
X111893559Y-49027931D01*
X111896383Y-49027677D01*
X111899496Y-49027322D01*
X111902815Y-49026881D01*
X111906660Y-49026372D01*
X111911302Y-49025842D01*
X111922252Y-49024714D01*
X111934256Y-49023634D01*
X111945900Y-49022759D01*
X111985780Y-49021231D01*
X112024955Y-49022105D01*
X112063327Y-49025333D01*
X112100839Y-49030865D01*
X112137412Y-49038684D01*
X112172948Y-49048752D01*
X112207393Y-49061009D01*
X112240670Y-49075441D01*
X112272691Y-49091994D01*
X112303373Y-49110655D01*
X112332647Y-49131365D01*
X112360454Y-49154116D01*
X112386669Y-49178838D01*
X112411263Y-49205500D01*
X112434127Y-49234080D01*
X112455209Y-49264548D01*
X112466264Y-49282472D01*
X112476545Y-49300648D01*
X112486022Y-49319052D01*
X112494711Y-49337673D01*
X112502621Y-49356480D01*
X112509737Y-49375487D01*
X112516053Y-49394669D01*
X112521554Y-49414005D01*
X112526264Y-49433505D01*
X112530160Y-49453151D01*
X112533258Y-49472904D01*
X112535531Y-49492776D01*
X112536985Y-49512757D01*
X112537628Y-49532832D01*
X112537448Y-49552975D01*
X112536420Y-49573187D01*
X112535532Y-49584568D01*
X112534420Y-49595712D01*
X112533105Y-49606658D01*
X112531608Y-49617437D01*
X112529891Y-49628050D01*
X112527958Y-49638515D01*
X112525809Y-49648853D01*
X112523440Y-49659064D01*
X112520841Y-49669207D01*
X112518007Y-49679275D01*
X112514953Y-49689308D01*
X112511641Y-49699291D01*
X112508072Y-49709270D01*
X112504277Y-49719244D01*
X112500207Y-49729253D01*
X112495891Y-49739289D01*
X112488141Y-49756102D01*
X112479926Y-49772433D01*
X112471215Y-49788323D01*
X112461994Y-49803819D01*
X112452184Y-49818955D01*
X112441802Y-49833785D01*
X112430767Y-49848344D01*
X112419073Y-49862665D01*
X112406672Y-49876810D01*
X112393544Y-49890792D01*
X112379630Y-49904682D01*
X112364911Y-49918511D01*
X112349349Y-49932297D01*
X112332910Y-49946108D01*
X112315568Y-49959966D01*
X112297287Y-49973943D01*
X112259303Y-50001289D01*
X112221920Y-50026080D01*
X112184869Y-50048364D01*
X112147922Y-50068223D01*
X112110864Y-50085695D01*
X112073457Y-50100823D01*
X112035461Y-50113662D01*
X111996651Y-50124321D01*
X111956798Y-50132790D01*
X111915682Y-50139165D01*
X111873064Y-50143480D01*
X111828712Y-50145804D01*
X111782370Y-50146184D01*
X111733877Y-50144691D01*
X111682915Y-50141369D01*
X111629316Y-50136281D01*
X111567033Y-50129042D01*
X111497856Y-50119596D01*
X111403260Y-50105252D01*
X111264751Y-50083343D01*
X111113685Y-50059652D01*
X110987970Y-50040947D01*
X110877090Y-50025726D01*
X110770592Y-50012496D01*
X110770591Y-50012503D01*
X110760783Y-50011303D01*
X110751581Y-50010163D01*
X110743210Y-50009057D01*
X110735864Y-50008047D01*
X110729736Y-50007155D01*
X110725054Y-50006408D01*
X110721984Y-50005836D01*
X110721138Y-50005612D01*
X110720893Y-50005522D01*
X110720787Y-50005463D01*
X110720684Y-50005083D01*
X110720625Y-50004195D01*
X110720595Y-50001106D01*
X110720856Y-49990161D01*
X110721509Y-49974302D01*
X110722505Y-49955164D01*
X110728140Y-49843852D01*
X110732557Y-49724518D01*
X110736195Y-49581988D01*
X110739508Y-49401036D01*
X110741863Y-49275409D01*
X110743129Y-49226583D01*
X110744559Y-49184568D01*
X110746205Y-49147523D01*
X110748163Y-49113541D01*
X110750487Y-49080778D01*
X110753261Y-49047328D01*
X110755781Y-49020274D01*
X110758484Y-48993909D01*
X110761058Y-48971230D01*
X110762202Y-48962246D01*
X110763172Y-48955303D01*
X110769756Y-48916282D01*
X110777302Y-48878962D01*
X110785883Y-48843221D01*
X110795602Y-48808906D01*
X110806495Y-48775880D01*
X110818635Y-48744015D01*
X110832147Y-48713159D01*
X110847029Y-48683190D01*
X110863404Y-48653958D01*
X110881339Y-48625327D01*
X110900882Y-48597154D01*
X110922129Y-48569313D01*
X110945164Y-48541661D01*
X110970030Y-48514054D01*
X110996820Y-48486352D01*
X111025607Y-48458409D01*
X111046730Y-48439031D01*
X111067446Y-48421124D01*
X111087838Y-48404583D01*
X111107999Y-48389417D01*
X111128019Y-48375501D01*
X111137993Y-48368997D01*
X111147967Y-48362804D01*
X111157939Y-48356875D01*
X111167941Y-48351247D01*
X111177952Y-48345871D01*
X111188017Y-48340786D01*
X111200034Y-48335070D01*
X111212343Y-48329660D01*
X111224930Y-48324539D01*
X111237719Y-48319732D01*
X111250709Y-48315231D01*
X111263857Y-48311066D01*
X111277146Y-48307245D01*
X111290516Y-48303739D01*
X111303959Y-48300591D01*
X111317428Y-48297804D01*
X111330890Y-48295373D01*
X111344318Y-48293313D01*
X111357690Y-48291637D01*
X111370958Y-48290357D01*
X111384077Y-48289463D01*
X111397053Y-48288985D01*
X111405070Y-48288903D01*
X111413479Y-48289024D01*
G37*
D11*
X107441914Y-48910459D02*
X106876229Y-49476144D01*
X107414977Y-49476144D02*
X107388039Y-49556957D01*
X107388039Y-49556957D02*
X107414977Y-49637769D01*
X107145603Y-49206770D02*
X107118665Y-49287583D01*
X107118665Y-49287583D02*
X107145603Y-49368395D01*
X107145603Y-49368395D02*
X107253352Y-49476144D01*
X107253352Y-49476144D02*
X107334164Y-49503082D01*
X107334164Y-49503082D02*
X107414977Y-49476144D01*
X107414977Y-49476144D02*
X107711288Y-49179833D01*
X107926787Y-50095704D02*
X107845975Y-50068767D01*
X107845975Y-50068767D02*
X107738225Y-49961017D01*
X107738225Y-49961017D02*
X107711288Y-49880205D01*
X107711288Y-49880205D02*
X107711288Y-49826330D01*
X107711288Y-49826330D02*
X107738225Y-49745518D01*
X107738225Y-49745518D02*
X107899850Y-49583894D01*
X107899850Y-49583894D02*
X107980662Y-49556956D01*
X107980662Y-49556956D02*
X108034537Y-49556956D01*
X108034537Y-49556956D02*
X108115349Y-49583894D01*
X108115349Y-49583894D02*
X108223099Y-49691643D01*
X108223099Y-49691643D02*
X108250036Y-49772456D01*
X108357785Y-50149579D02*
X108788784Y-50580577D01*
X109516093Y-50607515D02*
X109623843Y-50715264D01*
X109623843Y-50715264D02*
X109650780Y-50796077D01*
X109650780Y-50796077D02*
X109650780Y-50903826D01*
X109650780Y-50903826D02*
X109569968Y-51038513D01*
X109569968Y-51038513D02*
X109381406Y-51227075D01*
X109381406Y-51227075D02*
X109246719Y-51307887D01*
X109246719Y-51307887D02*
X109138970Y-51307887D01*
X109138970Y-51307887D02*
X109058158Y-51280950D01*
X109058158Y-51280950D02*
X108950408Y-51173200D01*
X108950408Y-51173200D02*
X108923471Y-51092388D01*
X108923471Y-51092388D02*
X108923471Y-50984638D01*
X108923471Y-50984638D02*
X109004283Y-50849951D01*
X109004283Y-50849951D02*
X109192845Y-50661390D01*
X109192845Y-50661390D02*
X109327532Y-50580577D01*
X109327532Y-50580577D02*
X109435281Y-50580577D01*
X109435281Y-50580577D02*
X109516093Y-50607515D01*
X109435281Y-51658073D02*
X110000966Y-51092388D01*
X110000966Y-51092388D02*
X109758530Y-51981322D01*
X109758530Y-51981322D02*
X110324215Y-51415637D01*
D12*
X80502607Y-59266736D02*
X80112015Y-59253267D01*
X80179359Y-59589985D02*
X79755094Y-59165720D01*
X79755094Y-59165720D02*
X79970594Y-58950221D01*
X79970594Y-58950221D02*
X80044672Y-58916550D01*
X80044672Y-58916550D02*
X80091812Y-58909815D01*
X80091812Y-58909815D02*
X80159156Y-58923284D01*
X80159156Y-58923284D02*
X80219765Y-58983893D01*
X80219765Y-58983893D02*
X80233233Y-59051237D01*
X80233233Y-59051237D02*
X80226499Y-59098377D01*
X80226499Y-59098377D02*
X80192827Y-59172455D01*
X80192827Y-59172455D02*
X79977328Y-59387954D01*
X80266905Y-58653910D02*
X81068293Y-58701050D01*
X80644029Y-58276786D02*
X80691169Y-59078174D01*
X83453575Y-60400234D02*
X83776824Y-60076985D01*
X84039464Y-60662873D02*
X83615200Y-60238609D01*
X83911511Y-59942298D02*
X84712899Y-59989438D01*
X84288635Y-59565174D02*
X84335775Y-60366562D01*
X78978607Y-65743736D02*
X78588015Y-65730267D01*
X78655359Y-66066985D02*
X78231094Y-65642720D01*
X78231094Y-65642720D02*
X78446594Y-65427221D01*
X78446594Y-65427221D02*
X78520672Y-65393550D01*
X78520672Y-65393550D02*
X78567812Y-65386815D01*
X78567812Y-65386815D02*
X78635156Y-65400284D01*
X78635156Y-65400284D02*
X78695765Y-65460893D01*
X78695765Y-65460893D02*
X78709233Y-65528237D01*
X78709233Y-65528237D02*
X78702499Y-65575377D01*
X78702499Y-65575377D02*
X78668827Y-65649455D01*
X78668827Y-65649455D02*
X78453328Y-65864954D01*
X78742905Y-65130910D02*
X79544293Y-65178050D01*
X79120029Y-64753786D02*
X79167169Y-65555174D01*
X79759792Y-64962551D02*
X79335528Y-64538287D01*
X79335528Y-64538287D02*
X79470215Y-64403600D01*
X79470215Y-64403600D02*
X79571230Y-64342991D01*
X79571230Y-64342991D02*
X79665511Y-64329522D01*
X79665511Y-64329522D02*
X79732855Y-64342991D01*
X79732855Y-64342991D02*
X79840604Y-64396866D01*
X79840604Y-64396866D02*
X79901214Y-64457475D01*
X79901214Y-64457475D02*
X79955088Y-64565224D01*
X79955088Y-64565224D02*
X79968557Y-64632568D01*
X79968557Y-64632568D02*
X79955088Y-64726849D01*
X79955088Y-64726849D02*
X79894479Y-64827864D01*
X79894479Y-64827864D02*
X79759792Y-64962551D01*
X77261282Y-61532533D02*
X77584531Y-61209284D01*
X77847171Y-61795172D02*
X77422907Y-61370908D01*
X77719218Y-61074597D02*
X78520606Y-61121737D01*
X78096342Y-60697473D02*
X78143482Y-61498861D01*
X78736105Y-60906238D02*
X78311841Y-60481974D01*
X78311841Y-60481974D02*
X78446528Y-60347287D01*
X78446528Y-60347287D02*
X78547544Y-60286678D01*
X78547544Y-60286678D02*
X78641824Y-60273209D01*
X78641824Y-60273209D02*
X78709168Y-60286678D01*
X78709168Y-60286678D02*
X78816918Y-60340552D01*
X78816918Y-60340552D02*
X78877527Y-60401162D01*
X78877527Y-60401162D02*
X78931401Y-60508911D01*
X78931401Y-60508911D02*
X78944870Y-60576255D01*
X78944870Y-60576255D02*
X78931401Y-60670536D01*
X78931401Y-60670536D02*
X78870792Y-60771551D01*
X78870792Y-60771551D02*
X78736105Y-60906238D01*
D11*
X80421833Y-70123335D02*
X80529583Y-70069461D01*
X80529583Y-70069461D02*
X80583457Y-70069461D01*
X80583457Y-70069461D02*
X80664270Y-70096398D01*
X80664270Y-70096398D02*
X80745082Y-70177210D01*
X80745082Y-70177210D02*
X80772019Y-70258022D01*
X80772019Y-70258022D02*
X80772019Y-70311897D01*
X80772019Y-70311897D02*
X80745082Y-70392709D01*
X80745082Y-70392709D02*
X80529583Y-70608209D01*
X80529583Y-70608209D02*
X79963897Y-70042523D01*
X79963897Y-70042523D02*
X80152459Y-69853961D01*
X80152459Y-69853961D02*
X80233271Y-69827024D01*
X80233271Y-69827024D02*
X80287146Y-69827024D01*
X80287146Y-69827024D02*
X80367958Y-69853961D01*
X80367958Y-69853961D02*
X80421833Y-69907836D01*
X80421833Y-69907836D02*
X80448770Y-69988648D01*
X80448770Y-69988648D02*
X80448770Y-70042523D01*
X80448770Y-70042523D02*
X80421833Y-70123335D01*
X80421833Y-70123335D02*
X80233271Y-70311897D01*
X80637332Y-69746212D02*
X80852831Y-69530713D01*
X80529583Y-69476838D02*
X81014456Y-69961711D01*
X81014456Y-69961711D02*
X81095268Y-69988648D01*
X81095268Y-69988648D02*
X81176080Y-69961711D01*
X81176080Y-69961711D02*
X81229955Y-69907836D01*
X81203018Y-69503775D02*
X81634016Y-69072777D01*
X81660953Y-68345467D02*
X81768703Y-68237717D01*
X81768703Y-68237717D02*
X81849515Y-68210780D01*
X81849515Y-68210780D02*
X81957265Y-68210780D01*
X81957265Y-68210780D02*
X82091952Y-68291592D01*
X82091952Y-68291592D02*
X82280514Y-68480154D01*
X82280514Y-68480154D02*
X82361326Y-68614841D01*
X82361326Y-68614841D02*
X82361326Y-68722591D01*
X82361326Y-68722591D02*
X82334388Y-68803403D01*
X82334388Y-68803403D02*
X82226639Y-68911152D01*
X82226639Y-68911152D02*
X82145827Y-68938090D01*
X82145827Y-68938090D02*
X82038077Y-68938090D01*
X82038077Y-68938090D02*
X81903390Y-68857278D01*
X81903390Y-68857278D02*
X81714828Y-68668716D01*
X81714828Y-68668716D02*
X81634016Y-68534029D01*
X81634016Y-68534029D02*
X81634016Y-68426279D01*
X81634016Y-68426279D02*
X81660953Y-68345467D01*
X82711512Y-68426279D02*
X82145826Y-67860594D01*
X82145826Y-67860594D02*
X83034761Y-68103030D01*
X83034761Y-68103030D02*
X82469075Y-67537345D01*
X85661500Y-57975500D02*
X86106000Y-57531000D01*
X85629750Y-57499250D02*
X86137750Y-58007250D01*
X90408594Y-53377198D02*
X90678001Y-53107790D01*
X90678000Y-53467000D02*
X90767802Y-53377197D01*
X90139184Y-53287394D02*
X90588198Y-52838383D01*
X109563802Y-55229593D02*
X109833210Y-55498999D01*
X109474000Y-55499000D02*
X109563802Y-55588803D01*
X109653606Y-54960185D02*
X110102617Y-55409196D01*
X114090901Y-59629691D02*
X114360309Y-59899097D01*
X114001099Y-59899098D02*
X114090901Y-59988901D01*
X114180705Y-59360283D02*
X114629716Y-59809294D01*
X115935594Y-57896590D02*
X116205000Y-58166000D01*
X115845793Y-58165997D02*
X115935600Y-58255797D01*
X116025391Y-57627176D02*
X116474407Y-58076198D01*
D12*
X92059607Y-59139736D02*
X91669015Y-59126267D01*
X91736359Y-59462985D02*
X91312094Y-59038720D01*
X91312094Y-59038720D02*
X91527594Y-58823221D01*
X91527594Y-58823221D02*
X91601672Y-58789550D01*
X91601672Y-58789550D02*
X91648812Y-58782815D01*
X91648812Y-58782815D02*
X91716156Y-58796284D01*
X91716156Y-58796284D02*
X91776765Y-58856893D01*
X91776765Y-58856893D02*
X91790233Y-58924237D01*
X91790233Y-58924237D02*
X91783499Y-58971377D01*
X91783499Y-58971377D02*
X91749827Y-59045455D01*
X91749827Y-59045455D02*
X91534328Y-59260954D01*
X92254904Y-58904033D02*
X92355919Y-58843424D01*
X92355919Y-58843424D02*
X92490606Y-58708737D01*
X92490606Y-58708737D02*
X92524278Y-58634659D01*
X92524278Y-58634659D02*
X92531012Y-58587519D01*
X92531012Y-58587519D02*
X92517543Y-58520176D01*
X92517543Y-58520176D02*
X92477137Y-58479769D01*
X92477137Y-58479769D02*
X92409794Y-58466301D01*
X92409794Y-58466301D02*
X92362653Y-58473035D01*
X92362653Y-58473035D02*
X92288575Y-58506707D01*
X92288575Y-58506707D02*
X92160623Y-58594253D01*
X92160623Y-58594253D02*
X92086545Y-58627925D01*
X92086545Y-58627925D02*
X92039404Y-58634659D01*
X92039404Y-58634659D02*
X91972061Y-58621191D01*
X91972061Y-58621191D02*
X91931655Y-58580785D01*
X91931655Y-58580785D02*
X91918186Y-58513441D01*
X91918186Y-58513441D02*
X91924920Y-58466301D01*
X91924920Y-58466301D02*
X91958592Y-58392223D01*
X91958592Y-58392223D02*
X92093279Y-58257536D01*
X92093279Y-58257536D02*
X92194294Y-58196927D01*
X92335716Y-58015099D02*
X92658965Y-57691850D01*
X92921604Y-58277739D02*
X92497340Y-57853475D01*
X97451359Y-53620985D02*
X97027094Y-53196720D01*
X97027094Y-53196720D02*
X97518702Y-53311204D01*
X97518702Y-53311204D02*
X97404218Y-52819597D01*
X97404218Y-52819597D02*
X97828482Y-53243861D01*
X98097856Y-52974487D02*
X97673592Y-52550223D01*
X91990359Y-55906985D02*
X91566094Y-55482720D01*
X91566094Y-55482720D02*
X92057702Y-55597204D01*
X92057702Y-55597204D02*
X91943218Y-55105597D01*
X91943218Y-55105597D02*
X92367482Y-55529861D01*
X92320342Y-54728473D02*
X92428092Y-54620723D01*
X92428092Y-54620723D02*
X92502169Y-54587052D01*
X92502169Y-54587052D02*
X92596450Y-54573583D01*
X92596450Y-54573583D02*
X92704200Y-54627458D01*
X92704200Y-54627458D02*
X92845621Y-54768879D01*
X92845621Y-54768879D02*
X92899496Y-54876629D01*
X92899496Y-54876629D02*
X92886027Y-54970910D01*
X92886027Y-54970910D02*
X92852356Y-55044988D01*
X92852356Y-55044988D02*
X92744606Y-55152737D01*
X92744606Y-55152737D02*
X92670528Y-55186409D01*
X92670528Y-55186409D02*
X92576247Y-55199878D01*
X92576247Y-55199878D02*
X92468498Y-55146003D01*
X92468498Y-55146003D02*
X92327076Y-55004581D01*
X92327076Y-55004581D02*
X92273201Y-54896832D01*
X92273201Y-54896832D02*
X92286670Y-54802551D01*
X92286670Y-54802551D02*
X92320342Y-54728473D01*
X93594218Y-54262719D02*
X93695233Y-54202110D01*
X93695233Y-54202110D02*
X93829920Y-54067423D01*
X93829920Y-54067423D02*
X93863592Y-53993345D01*
X93863592Y-53993345D02*
X93870326Y-53946204D01*
X93870326Y-53946204D02*
X93856858Y-53878861D01*
X93856858Y-53878861D02*
X93816452Y-53838455D01*
X93816452Y-53838455D02*
X93749108Y-53824986D01*
X93749108Y-53824986D02*
X93701968Y-53831720D01*
X93701968Y-53831720D02*
X93627890Y-53865392D01*
X93627890Y-53865392D02*
X93499937Y-53952939D01*
X93499937Y-53952939D02*
X93425859Y-53986611D01*
X93425859Y-53986611D02*
X93378719Y-53993345D01*
X93378719Y-53993345D02*
X93311375Y-53979876D01*
X93311375Y-53979876D02*
X93270969Y-53939470D01*
X93270969Y-53939470D02*
X93257501Y-53872127D01*
X93257501Y-53872127D02*
X93264235Y-53824986D01*
X93264235Y-53824986D02*
X93297907Y-53750908D01*
X93297907Y-53750908D02*
X93432594Y-53616221D01*
X93432594Y-53616221D02*
X93533609Y-53555612D01*
X94462949Y-53353581D02*
X94456215Y-53400722D01*
X94456215Y-53400722D02*
X94395606Y-53501737D01*
X94395606Y-53501737D02*
X94341731Y-53555612D01*
X94341731Y-53555612D02*
X94240716Y-53616221D01*
X94240716Y-53616221D02*
X94146435Y-53629690D01*
X94146435Y-53629690D02*
X94079092Y-53616221D01*
X94079092Y-53616221D02*
X93971342Y-53562346D01*
X93971342Y-53562346D02*
X93910733Y-53501737D01*
X93910733Y-53501737D02*
X93856858Y-53393988D01*
X93856858Y-53393988D02*
X93843389Y-53326644D01*
X93843389Y-53326644D02*
X93856858Y-53232363D01*
X93856858Y-53232363D02*
X93917467Y-53131348D01*
X93917467Y-53131348D02*
X93971342Y-53077473D01*
X93971342Y-53077473D02*
X94072357Y-53016864D01*
X94072357Y-53016864D02*
X94119498Y-53010130D01*
X94745792Y-53151551D02*
X94321528Y-52727287D01*
X95069041Y-52828302D02*
X94584168Y-52828302D01*
X94644777Y-52404038D02*
X94563965Y-52969723D01*
D11*
X93472000Y-50038000D02*
X93980000Y-50546000D01*
X93503750Y-50514250D02*
X93948250Y-50069750D01*
X91440000Y-48387000D02*
X91948000Y-48895000D01*
X91471750Y-48863250D02*
X91916250Y-48418750D01*
X79025750Y-57118250D02*
X79470250Y-56673750D01*
X78994000Y-56642000D02*
X79502000Y-57150000D01*
X108452832Y-80328052D02*
X108853894Y-80729113D01*
X108853894Y-80729113D02*
X108924670Y-80752705D01*
X108924670Y-80752705D02*
X108971854Y-80752705D01*
X108971854Y-80752705D02*
X109042629Y-80729113D01*
X109042629Y-80729113D02*
X109136997Y-80634746D01*
X109136997Y-80634746D02*
X109160589Y-80563970D01*
X109160589Y-80563970D02*
X109160589Y-80516787D01*
X109160589Y-80516787D02*
X109136997Y-80446011D01*
X109136997Y-80446011D02*
X108735935Y-80044949D01*
X108924670Y-79856214D02*
X109254956Y-79525928D01*
X109254956Y-79525928D02*
X109538059Y-80233684D01*
X119718626Y-49481968D02*
X119213550Y-49987044D01*
X119213550Y-49987044D02*
X119078863Y-50054388D01*
X119078863Y-50054388D02*
X118944176Y-50054388D01*
X118944176Y-50054388D02*
X118809489Y-49987044D01*
X118809489Y-49987044D02*
X118742146Y-49919701D01*
X119381909Y-50559464D02*
X119516596Y-50694151D01*
X119516596Y-50694151D02*
X119617611Y-50727823D01*
X119617611Y-50727823D02*
X119684955Y-50727823D01*
X119684955Y-50727823D02*
X119853314Y-50694151D01*
X119853314Y-50694151D02*
X120021672Y-50593136D01*
X120021672Y-50593136D02*
X120291046Y-50323762D01*
X120291046Y-50323762D02*
X120324718Y-50222747D01*
X120324718Y-50222747D02*
X120324718Y-50155403D01*
X120324718Y-50155403D02*
X120291046Y-50054388D01*
X120291046Y-50054388D02*
X120156359Y-49919701D01*
X120156359Y-49919701D02*
X120055344Y-49886029D01*
X120055344Y-49886029D02*
X119988001Y-49886029D01*
X119988001Y-49886029D02*
X119886985Y-49919701D01*
X119886985Y-49919701D02*
X119718627Y-50088060D01*
X119718627Y-50088060D02*
X119684955Y-50189075D01*
X119684955Y-50189075D02*
X119684955Y-50256418D01*
X119684955Y-50256418D02*
X119718627Y-50357434D01*
X119718627Y-50357434D02*
X119853314Y-50492121D01*
X119853314Y-50492121D02*
X119954329Y-50525792D01*
X119954329Y-50525792D02*
X120021672Y-50525792D01*
X120021672Y-50525792D02*
X120122688Y-50492121D01*
X78658297Y-55270914D02*
X78792984Y-55203570D01*
X78792984Y-55203570D02*
X78961342Y-55035212D01*
X78961342Y-55035212D02*
X78995014Y-54934196D01*
X78995014Y-54934196D02*
X78995014Y-54866853D01*
X78995014Y-54866853D02*
X78961342Y-54765838D01*
X78961342Y-54765838D02*
X78893999Y-54698494D01*
X78893999Y-54698494D02*
X78792984Y-54664822D01*
X78792984Y-54664822D02*
X78725640Y-54664822D01*
X78725640Y-54664822D02*
X78624625Y-54698494D01*
X78624625Y-54698494D02*
X78456266Y-54799509D01*
X78456266Y-54799509D02*
X78355251Y-54833181D01*
X78355251Y-54833181D02*
X78287907Y-54833181D01*
X78287907Y-54833181D02*
X78186892Y-54799509D01*
X78186892Y-54799509D02*
X78119549Y-54732166D01*
X78119549Y-54732166D02*
X78085877Y-54631151D01*
X78085877Y-54631151D02*
X78085877Y-54563807D01*
X78085877Y-54563807D02*
X78119549Y-54462792D01*
X78119549Y-54462792D02*
X78287907Y-54294433D01*
X78287907Y-54294433D02*
X78422594Y-54227090D01*
X78624625Y-53957716D02*
X79500090Y-54496464D01*
X79500090Y-54496464D02*
X79129701Y-53856700D01*
X79129701Y-53856700D02*
X79769464Y-54227090D01*
X79769464Y-54227090D02*
X79230716Y-53351624D01*
X79533762Y-53183265D02*
X79533762Y-53115922D01*
X79533762Y-53115922D02*
X79567434Y-53014907D01*
X79567434Y-53014907D02*
X79735793Y-52846548D01*
X79735793Y-52846548D02*
X79836808Y-52812876D01*
X79836808Y-52812876D02*
X79904151Y-52812876D01*
X79904151Y-52812876D02*
X80005167Y-52846548D01*
X80005167Y-52846548D02*
X80072510Y-52913891D01*
X80072510Y-52913891D02*
X80139854Y-53048578D01*
X80139854Y-53048578D02*
X80139854Y-53856700D01*
X80139854Y-53856700D02*
X80577586Y-53418968D01*
X77969865Y-58439689D02*
X77262758Y-57732582D01*
X77262758Y-57732582D02*
X77431117Y-57564223D01*
X77431117Y-57564223D02*
X77565804Y-57496880D01*
X77565804Y-57496880D02*
X77700491Y-57496880D01*
X77700491Y-57496880D02*
X77801506Y-57530552D01*
X77801506Y-57530552D02*
X77969865Y-57631567D01*
X77969865Y-57631567D02*
X78070881Y-57732582D01*
X78070881Y-57732582D02*
X78171896Y-57900941D01*
X78171896Y-57900941D02*
X78205568Y-58001956D01*
X78205568Y-58001956D02*
X78205568Y-58136643D01*
X78205568Y-58136643D02*
X78138224Y-58271330D01*
X78138224Y-58271330D02*
X77969865Y-58439689D01*
X78508613Y-56958132D02*
X78980018Y-57429536D01*
X78070881Y-56857117D02*
X78407598Y-57530552D01*
X78407598Y-57530552D02*
X78845331Y-57092819D01*
X81612968Y-49953373D02*
X82118044Y-50458449D01*
X82118044Y-50458449D02*
X82185388Y-50593136D01*
X82185388Y-50593136D02*
X82185388Y-50727823D01*
X82185388Y-50727823D02*
X82118044Y-50862510D01*
X82118044Y-50862510D02*
X82050701Y-50929853D01*
X83027182Y-49953372D02*
X82623121Y-50357433D01*
X82825151Y-50155403D02*
X82118044Y-49448296D01*
X82118044Y-49448296D02*
X82151716Y-49616655D01*
X82151716Y-49616655D02*
X82151716Y-49751342D01*
X82151716Y-49751342D02*
X82118044Y-49852357D01*
X94479865Y-50184689D02*
X93772758Y-49477582D01*
X93772758Y-49477582D02*
X93941117Y-49309223D01*
X93941117Y-49309223D02*
X94075804Y-49241880D01*
X94075804Y-49241880D02*
X94210491Y-49241880D01*
X94210491Y-49241880D02*
X94311506Y-49275552D01*
X94311506Y-49275552D02*
X94479865Y-49376567D01*
X94479865Y-49376567D02*
X94580881Y-49477582D01*
X94580881Y-49477582D02*
X94681896Y-49645941D01*
X94681896Y-49645941D02*
X94715568Y-49746956D01*
X94715568Y-49746956D02*
X94715568Y-49881643D01*
X94715568Y-49881643D02*
X94648224Y-50016330D01*
X94648224Y-50016330D02*
X94479865Y-50184689D01*
X94513537Y-48871491D02*
X94513537Y-48804147D01*
X94513537Y-48804147D02*
X94547209Y-48703132D01*
X94547209Y-48703132D02*
X94715568Y-48534773D01*
X94715568Y-48534773D02*
X94816583Y-48501101D01*
X94816583Y-48501101D02*
X94883926Y-48501101D01*
X94883926Y-48501101D02*
X94984942Y-48534773D01*
X94984942Y-48534773D02*
X95052285Y-48602117D01*
X95052285Y-48602117D02*
X95119629Y-48736804D01*
X95119629Y-48736804D02*
X95119629Y-49544926D01*
X95119629Y-49544926D02*
X95557361Y-49107193D01*
X111113777Y-75503598D02*
X110777060Y-75166880D01*
X111383151Y-75368911D02*
X110440342Y-75840315D01*
X110440342Y-75840315D02*
X110911747Y-74897506D01*
X110271983Y-74257743D02*
X110170968Y-74830163D01*
X110676044Y-74661804D02*
X109968937Y-75368911D01*
X109968937Y-75368911D02*
X109699563Y-75099537D01*
X109699563Y-75099537D02*
X109665892Y-74998522D01*
X109665892Y-74998522D02*
X109665892Y-74931178D01*
X109665892Y-74931178D02*
X109699563Y-74830163D01*
X109699563Y-74830163D02*
X109800579Y-74729148D01*
X109800579Y-74729148D02*
X109901594Y-74695476D01*
X109901594Y-74695476D02*
X109968937Y-74695476D01*
X109968937Y-74695476D02*
X110069953Y-74729148D01*
X110069953Y-74729148D02*
X110339327Y-74998522D01*
X114048312Y-72268941D02*
X114081983Y-72369957D01*
X114081983Y-72369957D02*
X114182999Y-72470972D01*
X114182999Y-72470972D02*
X114317686Y-72538315D01*
X114317686Y-72538315D02*
X114452373Y-72538315D01*
X114452373Y-72538315D02*
X114553388Y-72504644D01*
X114553388Y-72504644D02*
X114721747Y-72403628D01*
X114721747Y-72403628D02*
X114822762Y-72302613D01*
X114822762Y-72302613D02*
X114923777Y-72134254D01*
X114923777Y-72134254D02*
X114957449Y-72033239D01*
X114957449Y-72033239D02*
X114957449Y-71898552D01*
X114957449Y-71898552D02*
X114890105Y-71763865D01*
X114890105Y-71763865D02*
X114822762Y-71696522D01*
X114822762Y-71696522D02*
X114688075Y-71629178D01*
X114688075Y-71629178D02*
X114620731Y-71629178D01*
X114620731Y-71629178D02*
X114385029Y-71864880D01*
X114385029Y-71864880D02*
X114519716Y-71999567D01*
X114081983Y-70955743D02*
X113711594Y-71326132D01*
X113711594Y-71326132D02*
X113677922Y-71427148D01*
X113677922Y-71427148D02*
X113711594Y-71528163D01*
X113711594Y-71528163D02*
X113846281Y-71662850D01*
X113846281Y-71662850D02*
X113947296Y-71696522D01*
X114048312Y-70989415D02*
X114149327Y-71023087D01*
X114149327Y-71023087D02*
X114317686Y-71191445D01*
X114317686Y-71191445D02*
X114351357Y-71292461D01*
X114351357Y-71292461D02*
X114317686Y-71393476D01*
X114317686Y-71393476D02*
X114250342Y-71460819D01*
X114250342Y-71460819D02*
X114149327Y-71494491D01*
X114149327Y-71494491D02*
X114048312Y-71460819D01*
X114048312Y-71460819D02*
X113879953Y-71292461D01*
X113879953Y-71292461D02*
X113778938Y-71258789D01*
X113745266Y-70619026D02*
X113273861Y-71090430D01*
X113038159Y-71326132D02*
X113105502Y-71326132D01*
X113105502Y-71326132D02*
X113105502Y-71258789D01*
X113105502Y-71258789D02*
X113038159Y-71258789D01*
X113038159Y-71258789D02*
X113038159Y-71326132D01*
X113038159Y-71326132D02*
X113105502Y-71258789D01*
X112937144Y-70753713D02*
X113408549Y-70282308D01*
X113004488Y-70686369D02*
X112937144Y-70686369D01*
X112937144Y-70686369D02*
X112836129Y-70652698D01*
X112836129Y-70652698D02*
X112735114Y-70551682D01*
X112735114Y-70551682D02*
X112701442Y-70450667D01*
X112701442Y-70450667D02*
X112735114Y-70349652D01*
X112735114Y-70349652D02*
X113105503Y-69979263D01*
X112599342Y-74189315D02*
X112464655Y-74054628D01*
X112464655Y-74054628D02*
X112430983Y-73953613D01*
X112430983Y-73953613D02*
X112430983Y-73818926D01*
X112430983Y-73818926D02*
X112531999Y-73650567D01*
X112531999Y-73650567D02*
X112767701Y-73414865D01*
X112767701Y-73414865D02*
X112936060Y-73313850D01*
X112936060Y-73313850D02*
X113070747Y-73313850D01*
X113070747Y-73313850D02*
X113171762Y-73347522D01*
X113171762Y-73347522D02*
X113306449Y-73482209D01*
X113306449Y-73482209D02*
X113340121Y-73583224D01*
X113340121Y-73583224D02*
X113340121Y-73717911D01*
X113340121Y-73717911D02*
X113239105Y-73886270D01*
X113239105Y-73886270D02*
X113003403Y-74121972D01*
X113003403Y-74121972D02*
X112835044Y-74222987D01*
X112835044Y-74222987D02*
X112700357Y-74222987D01*
X112700357Y-74222987D02*
X112599342Y-74189315D01*
X111925907Y-73044476D02*
X112397312Y-72573071D01*
X112228953Y-73347522D02*
X112599342Y-72977132D01*
X112599342Y-72977132D02*
X112633014Y-72876117D01*
X112633014Y-72876117D02*
X112599342Y-72775102D01*
X112599342Y-72775102D02*
X112498327Y-72674087D01*
X112498327Y-72674087D02*
X112397312Y-72640415D01*
X112397312Y-72640415D02*
X112329968Y-72640415D01*
X111690205Y-72808774D02*
X111420831Y-72539400D01*
X111353487Y-72943461D02*
X111959579Y-72337369D01*
X111959579Y-72337369D02*
X111993250Y-72236354D01*
X111993250Y-72236354D02*
X111959579Y-72135339D01*
X111959579Y-72135339D02*
X111892235Y-72067995D01*
X116264044Y-70996018D02*
X116735449Y-70053209D01*
X116735449Y-70053209D02*
X115792640Y-70524613D01*
X115960998Y-69278758D02*
X115253892Y-69985865D01*
X115927327Y-69312430D02*
X116028342Y-69346102D01*
X116028342Y-69346102D02*
X116163029Y-69480789D01*
X116163029Y-69480789D02*
X116196701Y-69581804D01*
X116196701Y-69581804D02*
X116196701Y-69649148D01*
X116196701Y-69649148D02*
X116163029Y-69750163D01*
X116163029Y-69750163D02*
X115960998Y-69952193D01*
X115960998Y-69952193D02*
X115859983Y-69985865D01*
X115859983Y-69985865D02*
X115792640Y-69985865D01*
X115792640Y-69985865D02*
X115691624Y-69952193D01*
X115691624Y-69952193D02*
X115556937Y-69817506D01*
X115556937Y-69817506D02*
X115523266Y-69716491D01*
X115321235Y-68638995D02*
X114614128Y-69346102D01*
X115287563Y-68672667D02*
X115388579Y-68706338D01*
X115388579Y-68706338D02*
X115523266Y-68841025D01*
X115523266Y-68841025D02*
X115556937Y-68942041D01*
X115556937Y-68942041D02*
X115556937Y-69009384D01*
X115556937Y-69009384D02*
X115523266Y-69110399D01*
X115523266Y-69110399D02*
X115321235Y-69312430D01*
X115321235Y-69312430D02*
X115220220Y-69346102D01*
X115220220Y-69346102D02*
X115152876Y-69346102D01*
X115152876Y-69346102D02*
X115051861Y-69312430D01*
X115051861Y-69312430D02*
X114917174Y-69177743D01*
X114917174Y-69177743D02*
X114883502Y-69076728D01*
X117731312Y-68712941D02*
X117764983Y-68813957D01*
X117764983Y-68813957D02*
X117865999Y-68914972D01*
X117865999Y-68914972D02*
X118000686Y-68982315D01*
X118000686Y-68982315D02*
X118135373Y-68982315D01*
X118135373Y-68982315D02*
X118236388Y-68948644D01*
X118236388Y-68948644D02*
X118404747Y-68847628D01*
X118404747Y-68847628D02*
X118505762Y-68746613D01*
X118505762Y-68746613D02*
X118606777Y-68578254D01*
X118606777Y-68578254D02*
X118640449Y-68477239D01*
X118640449Y-68477239D02*
X118640449Y-68342552D01*
X118640449Y-68342552D02*
X118573105Y-68207865D01*
X118573105Y-68207865D02*
X118505762Y-68140522D01*
X118505762Y-68140522D02*
X118371075Y-68073178D01*
X118371075Y-68073178D02*
X118303731Y-68073178D01*
X118303731Y-68073178D02*
X118068029Y-68308880D01*
X118068029Y-68308880D02*
X118202716Y-68443567D01*
X118068029Y-67702789D02*
X117360922Y-68409896D01*
X117360922Y-68409896D02*
X117663968Y-67298728D01*
X117663968Y-67298728D02*
X116956861Y-68005835D01*
X117327251Y-66962010D02*
X116620144Y-67669117D01*
X116620144Y-67669117D02*
X116451785Y-67500758D01*
X116451785Y-67500758D02*
X116384442Y-67366071D01*
X116384442Y-67366071D02*
X116384442Y-67231384D01*
X116384442Y-67231384D02*
X116418113Y-67130369D01*
X116418113Y-67130369D02*
X116519129Y-66962010D01*
X116519129Y-66962010D02*
X116620144Y-66860995D01*
X116620144Y-66860995D02*
X116788503Y-66759980D01*
X116788503Y-66759980D02*
X116889518Y-66726308D01*
X116889518Y-66726308D02*
X117024205Y-66726308D01*
X117024205Y-66726308D02*
X117158892Y-66793652D01*
X117158892Y-66793652D02*
X117327251Y-66962010D01*
X95622865Y-51327689D02*
X94915758Y-50620582D01*
X94915758Y-50620582D02*
X95084117Y-50452223D01*
X95084117Y-50452223D02*
X95218804Y-50384880D01*
X95218804Y-50384880D02*
X95353491Y-50384880D01*
X95353491Y-50384880D02*
X95454506Y-50418552D01*
X95454506Y-50418552D02*
X95622865Y-50519567D01*
X95622865Y-50519567D02*
X95723881Y-50620582D01*
X95723881Y-50620582D02*
X95824896Y-50788941D01*
X95824896Y-50788941D02*
X95858568Y-50889956D01*
X95858568Y-50889956D02*
X95858568Y-51024643D01*
X95858568Y-51024643D02*
X95791224Y-51159330D01*
X95791224Y-51159330D02*
X95622865Y-51327689D01*
X95555522Y-49980819D02*
X95993255Y-49543086D01*
X95993255Y-49543086D02*
X96026926Y-50048162D01*
X96026926Y-50048162D02*
X96127942Y-49947147D01*
X96127942Y-49947147D02*
X96228957Y-49913475D01*
X96228957Y-49913475D02*
X96296300Y-49913475D01*
X96296300Y-49913475D02*
X96397316Y-49947147D01*
X96397316Y-49947147D02*
X96565674Y-50115506D01*
X96565674Y-50115506D02*
X96599346Y-50216521D01*
X96599346Y-50216521D02*
X96599346Y-50283865D01*
X96599346Y-50283865D02*
X96565674Y-50384880D01*
X96565674Y-50384880D02*
X96363644Y-50586910D01*
X96363644Y-50586910D02*
X96262629Y-50620582D01*
X96262629Y-50620582D02*
X96195285Y-50620582D01*
X122139880Y-65450674D02*
X121567460Y-65349659D01*
X121735819Y-65854735D02*
X121028712Y-65147628D01*
X121028712Y-65147628D02*
X121298086Y-64878254D01*
X121298086Y-64878254D02*
X121399102Y-64844582D01*
X121399102Y-64844582D02*
X121466445Y-64844582D01*
X121466445Y-64844582D02*
X121567460Y-64878254D01*
X121567460Y-64878254D02*
X121668476Y-64979270D01*
X121668476Y-64979270D02*
X121702147Y-65080285D01*
X121702147Y-65080285D02*
X121702147Y-65147628D01*
X121702147Y-65147628D02*
X121668476Y-65248644D01*
X121668476Y-65248644D02*
X121399102Y-65518018D01*
X121634804Y-64541537D02*
X122577613Y-65012941D01*
X122577613Y-65012941D02*
X122106208Y-64070132D01*
X123419407Y-64171147D02*
X123015346Y-64575208D01*
X123217376Y-64373178D02*
X122510269Y-63666071D01*
X122510269Y-63666071D02*
X122543941Y-63834430D01*
X122543941Y-63834430D02*
X122543941Y-63969117D01*
X122543941Y-63969117D02*
X122510269Y-64070132D01*
D13*
X110459221Y-79979301D02*
X101478965Y-88959557D01*
X105735748Y-75255828D02*
X110459221Y-79979301D01*
X91848171Y-61368251D02*
X91367338Y-60887418D01*
X91367338Y-60887418D02*
X91275414Y-60979342D01*
X82479006Y-69775750D02*
X82387082Y-69867674D01*
X101478965Y-88959557D02*
X96755492Y-84236084D01*
X82387082Y-69867674D02*
X82867915Y-70348507D01*
D14*
X106242333Y-74943994D02*
G75*
G03*
X106242333Y-74943994I-99999J0D01*
G01*
D15*
X81304096Y-65786000D02*
X82244548Y-64845548D01*
X82244548Y-66726452D02*
X81304096Y-65786000D01*
X83142574Y-67624478D02*
X83185000Y-67666904D01*
X83142574Y-67624478D02*
X84981051Y-65786000D01*
X83185000Y-67666904D02*
X86861955Y-63989949D01*
X83142574Y-63947522D02*
X84981051Y-62109045D01*
X84981051Y-65786000D02*
X83142574Y-63947522D01*
X84981051Y-62109045D02*
X86861955Y-63989949D01*
X106128549Y-49160535D02*
X107069001Y-50100987D01*
X105188097Y-50100987D02*
X106128549Y-49160535D01*
X104290071Y-50999013D02*
X104247645Y-51041439D01*
X104290071Y-50999013D02*
X106128549Y-52837490D01*
X104247645Y-51041439D02*
X107924600Y-54718394D01*
X107967027Y-50999013D02*
X109805504Y-52837490D01*
X106128549Y-52837490D02*
X107967027Y-50999013D01*
X109805504Y-52837490D02*
X107924600Y-54718394D01*
X80386210Y-67455657D02*
X80016743Y-67086190D01*
X81425657Y-66416210D02*
X81056190Y-66046743D01*
X116325487Y-47760648D02*
X121784352Y-53219512D01*
X115462817Y-48623318D02*
X116325487Y-49485989D01*
X110371648Y-53714487D02*
X116325487Y-47760648D01*
X116325487Y-49485989D02*
X112789954Y-53021523D01*
X113497060Y-52314416D02*
X117230584Y-56047940D01*
X112789954Y-53021523D02*
X111927283Y-52158852D01*
X112789954Y-53021523D02*
X111234319Y-54577157D01*
X111234319Y-54577157D02*
X110371648Y-53714487D01*
X116671970Y-50652715D02*
X116954813Y-50822420D01*
X114253665Y-53071020D02*
X116671970Y-50652715D01*
X111658583Y-55694386D02*
X112082847Y-56118650D01*
X116954813Y-50822420D02*
X117124518Y-51105263D01*
X114479939Y-53297294D02*
X114253665Y-53071020D01*
X112294979Y-55482254D02*
X111658583Y-55694386D01*
X112082847Y-56118650D02*
X112294979Y-55482254D01*
X117124518Y-51105263D02*
X114706213Y-53523568D01*
X114706213Y-53523568D02*
X114479939Y-53297294D01*
X114600147Y-54831716D02*
X114713284Y-54944853D01*
X118439737Y-52420482D02*
X118722579Y-52590187D01*
X116021432Y-54838787D02*
X118439737Y-52420482D01*
X118722579Y-52590187D02*
X118892285Y-52873030D01*
X116247706Y-55065061D02*
X116021432Y-54838787D01*
X118892285Y-52873030D02*
X116473980Y-55291335D01*
X116473980Y-55291335D02*
X116247706Y-55065061D01*
X120059011Y-53219512D02*
X116523477Y-56755046D01*
X116523477Y-56755046D02*
X117386148Y-57617717D01*
X114967842Y-58310681D02*
X116523477Y-56755046D01*
X121784352Y-53219512D02*
X115830513Y-59173352D01*
X120921682Y-54082183D02*
X120059011Y-53219512D01*
X115830513Y-59173352D02*
X114967842Y-58310681D01*
X81688447Y-54421126D02*
X79567126Y-56542447D01*
X79567126Y-56542447D02*
X82395553Y-59370874D01*
X84516874Y-57249553D02*
X81688447Y-54421126D01*
X82395553Y-59370874D02*
X84516874Y-57249553D01*
X82957810Y-56896000D02*
G75*
G03*
X82957810Y-56896000I-915810J0D01*
G01*
X77126959Y-59437396D02*
X78484604Y-60795041D01*
X78484604Y-60795041D02*
X80506929Y-58772716D01*
X79149284Y-57415071D02*
X77126959Y-59437396D01*
X98826006Y-52582090D02*
X99766458Y-53522542D01*
X97885554Y-53522542D02*
X98826006Y-52582090D01*
X96987528Y-54420568D02*
X91556948Y-59851148D01*
X96987528Y-54420568D02*
X98868432Y-56301472D01*
X91556948Y-59851148D02*
X93437852Y-61732052D01*
X98868432Y-56301472D02*
X93437852Y-61732052D01*
X84964027Y-62103000D02*
X84023575Y-63043452D01*
X84023575Y-61162548D02*
X84964027Y-62103000D01*
X83125549Y-60264522D02*
X81287072Y-58426045D01*
X83125549Y-60264522D02*
X81287072Y-62103000D01*
X81287072Y-58426045D02*
X77610117Y-62103000D01*
X83125549Y-63941478D02*
X81287072Y-65779955D01*
X81287072Y-62103000D02*
X83125549Y-63941478D01*
X81287072Y-65779955D02*
X77610117Y-62103000D01*
X86603299Y-63657707D02*
X83916293Y-60970701D01*
X86603299Y-63657707D02*
X92613707Y-57647299D01*
X89926701Y-54960293D02*
X83916293Y-60970701D01*
X89926701Y-54960293D02*
X92613707Y-57647299D01*
X95250000Y-56338504D02*
X94309548Y-55398052D01*
X96190452Y-55398052D02*
X95250000Y-56338504D01*
X97088478Y-54500026D02*
X97130904Y-54457600D01*
X97088478Y-54500026D02*
X95207574Y-52619122D01*
X97130904Y-54457600D02*
X95250000Y-52576696D01*
X95207574Y-52619122D02*
X95250000Y-52576696D01*
X80272648Y-52965513D02*
X85731512Y-47506648D01*
X81135318Y-53828183D02*
X81997989Y-52965513D01*
X86226487Y-58919352D02*
X80272648Y-52965513D01*
X81997989Y-52965513D02*
X85533523Y-56501046D01*
X84826416Y-55793940D02*
X88559940Y-52060416D01*
X85533523Y-56501046D02*
X84670852Y-57363717D01*
X85533523Y-56501046D02*
X87089157Y-58056681D01*
X87089157Y-58056681D02*
X86226487Y-58919352D01*
X83164715Y-52619030D02*
X83334420Y-52336187D01*
X85583020Y-55037335D02*
X83164715Y-52619030D01*
X88206386Y-57632417D02*
X88630650Y-57208153D01*
X83334420Y-52336187D02*
X83617263Y-52166482D01*
X85809294Y-54811061D02*
X85583020Y-55037335D01*
X87994254Y-56996021D02*
X88206386Y-57632417D01*
X88630650Y-57208153D02*
X87994254Y-56996021D01*
X83617263Y-52166482D02*
X86035568Y-54584787D01*
X86035568Y-54584787D02*
X85809294Y-54811061D01*
X87343716Y-54690853D02*
X87456853Y-54577716D01*
X84932482Y-50851263D02*
X85102187Y-50568421D01*
X87350787Y-53269568D02*
X84932482Y-50851263D01*
X85102187Y-50568421D02*
X85385030Y-50398715D01*
X87577061Y-53043294D02*
X87350787Y-53269568D01*
X85385030Y-50398715D02*
X87803335Y-52817020D01*
X87803335Y-52817020D02*
X87577061Y-53043294D01*
X85731512Y-49231989D02*
X89267046Y-52767523D01*
X89267046Y-52767523D02*
X90129717Y-51904852D01*
X90822681Y-54323158D02*
X89267046Y-52767523D01*
X85731512Y-47506648D02*
X91685352Y-53460487D01*
X86594183Y-48369318D02*
X85731512Y-49231989D01*
X91685352Y-53460487D02*
X90822681Y-54323158D01*
X112915562Y-60186466D02*
X111975110Y-59246014D01*
X113856014Y-59246014D02*
X112915562Y-60186466D01*
X114754040Y-58347988D02*
X114796466Y-58305562D01*
X114754040Y-58347988D02*
X112915562Y-56509511D01*
X114796466Y-58305562D02*
X111119511Y-54628607D01*
X111077084Y-58347988D02*
X109238607Y-56509511D01*
X112915562Y-56509511D02*
X111077084Y-58347988D01*
X109238607Y-56509511D02*
X111119511Y-54628607D01*
X89953959Y-51055396D02*
X91311604Y-52413041D01*
X91311604Y-52413041D02*
X93333929Y-50390716D01*
X91976284Y-49033071D02*
X89953959Y-51055396D01*
D16*
X111872688Y-79385575D02*
X93912175Y-61425062D01*
X121930575Y-69327688D02*
X111872688Y-79385575D01*
X93912175Y-61425062D02*
X103970062Y-51367175D01*
X103970062Y-51367175D02*
X121930575Y-69327688D01*
X109046871Y-61739371D02*
G75*
G03*
X109046871Y-61739371I-4762500J0D01*
G01*
D15*
X93378774Y-54397122D02*
X93421200Y-54354696D01*
X95302104Y-56235600D02*
X93421200Y-54354696D01*
X95259678Y-56278026D02*
X93378774Y-54397122D01*
X95259678Y-56278026D02*
X95302104Y-56235600D01*
X94361652Y-57176052D02*
X93421200Y-58116504D01*
X93421200Y-58116504D02*
X92480748Y-57176052D01*
X91604959Y-52706396D02*
X92962604Y-54064041D01*
X92962604Y-54064041D02*
X94984929Y-52041716D01*
X93627284Y-50684071D02*
X91604959Y-52706396D01*
X115441416Y-60611843D02*
G75*
G03*
X115441416Y-62464463I926310J-926310D01*
G01*
X120122463Y-57783416D02*
G75*
G03*
X118269843Y-57783416I-926310J-926310D01*
G01*
X118255701Y-65278748D02*
X115441416Y-62464463D01*
X119478996Y-66502043D02*
X118991092Y-66014139D01*
X119549706Y-66431332D02*
X119478996Y-66502043D01*
X119691128Y-66572753D02*
X119549706Y-66431332D01*
X115441416Y-60611843D02*
X116495005Y-59558254D01*
X120553798Y-65427240D02*
X120695219Y-65568662D01*
X120695219Y-65568662D02*
X119691128Y-66572753D01*
X117216254Y-58837005D02*
X118269843Y-57783416D01*
X123085240Y-62895798D02*
X120553798Y-65427240D01*
X123085240Y-62895798D02*
X123226662Y-63037219D01*
X124089332Y-61891706D02*
X124160043Y-61820996D01*
X124230753Y-62033128D02*
X123226662Y-63037219D01*
X124230753Y-62033128D02*
X124089332Y-61891706D01*
X120122463Y-57783416D02*
X122625621Y-60286574D01*
X124160043Y-61820996D02*
X123983266Y-61644219D01*
M02*
