G04 #@! TF.GenerationSoftware,KiCad,Pcbnew,(7.0.0)*
G04 #@! TF.CreationDate,2023-04-27T15:14:50-06:00*
G04 #@! TF.ProjectId,Fonocardiograma_V3C,466f6e6f-6361-4726-9469-6f6772616d61,rev?*
G04 #@! TF.SameCoordinates,Original*
G04 #@! TF.FileFunction,Copper,L1,Top*
G04 #@! TF.FilePolarity,Positive*
%FSLAX46Y46*%
G04 Gerber Fmt 4.6, Leading zero omitted, Abs format (unit mm)*
G04 Created by KiCad (PCBNEW (7.0.0)) date 2023-04-27 15:14:50*
%MOMM*%
%LPD*%
G01*
G04 APERTURE LIST*
G04 Aperture macros list*
%AMRoundRect*
0 Rectangle with rounded corners*
0 $1 Rounding radius*
0 $2 $3 $4 $5 $6 $7 $8 $9 X,Y pos of 4 corners*
0 Add a 4 corners polygon primitive as box body*
4,1,4,$2,$3,$4,$5,$6,$7,$8,$9,$2,$3,0*
0 Add four circle primitives for the rounded corners*
1,1,$1+$1,$2,$3*
1,1,$1+$1,$4,$5*
1,1,$1+$1,$6,$7*
1,1,$1+$1,$8,$9*
0 Add four rect primitives between the rounded corners*
20,1,$1+$1,$2,$3,$4,$5,0*
20,1,$1+$1,$4,$5,$6,$7,0*
20,1,$1+$1,$6,$7,$8,$9,0*
20,1,$1+$1,$8,$9,$2,$3,0*%
%AMHorizOval*
0 Thick line with rounded ends*
0 $1 width*
0 $2 $3 position (X,Y) of the first rounded end (center of the circle)*
0 $4 $5 position (X,Y) of the second rounded end (center of the circle)*
0 Add line between two ends*
20,1,$1,$2,$3,$4,$5,0*
0 Add two circle primitives to create the rounded ends*
1,1,$1,$2,$3*
1,1,$1,$4,$5*%
%AMRotRect*
0 Rectangle, with rotation*
0 The origin of the aperture is its center*
0 $1 length*
0 $2 width*
0 $3 Rotation angle, in degrees counterclockwise*
0 Add horizontal line*
21,1,$1,$2,0,0,$3*%
G04 Aperture macros list end*
G04 #@! TA.AperFunction,SMDPad,CuDef*
%ADD10RotRect,1.300000X1.000000X225.000000*%
G04 #@! TD*
G04 #@! TA.AperFunction,SMDPad,CuDef*
%ADD11RotRect,1.300000X1.000000X315.000000*%
G04 #@! TD*
G04 #@! TA.AperFunction,SMDPad,CuDef*
%ADD12RotRect,1.300000X1.000000X45.000000*%
G04 #@! TD*
G04 #@! TA.AperFunction,ComponentPad*
%ADD13RotRect,1.700000X1.700000X45.000000*%
G04 #@! TD*
G04 #@! TA.AperFunction,ComponentPad*
%ADD14HorizOval,1.700000X0.000000X0.000000X0.000000X0.000000X0*%
G04 #@! TD*
G04 #@! TA.AperFunction,ComponentPad*
%ADD15RotRect,1.700000X1.700000X315.000000*%
G04 #@! TD*
G04 #@! TA.AperFunction,ComponentPad*
%ADD16HorizOval,1.700000X0.000000X0.000000X0.000000X0.000000X0*%
G04 #@! TD*
G04 #@! TA.AperFunction,SMDPad,CuDef*
%ADD17RoundRect,0.250000X0.574524X0.097227X0.097227X0.574524X-0.574524X-0.097227X-0.097227X-0.574524X0*%
G04 #@! TD*
G04 #@! TA.AperFunction,ComponentPad*
%ADD18RoundRect,0.250000X-0.954594X-0.106066X-0.106066X-0.954594X0.954594X0.106066X0.106066X0.954594X0*%
G04 #@! TD*
G04 #@! TA.AperFunction,ComponentPad*
%ADD19HorizOval,1.700000X-0.106066X-0.106066X0.106066X0.106066X0*%
G04 #@! TD*
G04 #@! TA.AperFunction,SMDPad,CuDef*
%ADD20RoundRect,0.375000X-0.707107X-0.176777X-0.176777X-0.707107X0.707107X0.176777X0.176777X0.707107X0*%
G04 #@! TD*
G04 #@! TA.AperFunction,SMDPad,CuDef*
%ADD21RoundRect,0.250000X0.088388X-0.548008X0.548008X-0.088388X-0.088388X0.548008X-0.548008X0.088388X0*%
G04 #@! TD*
G04 #@! TA.AperFunction,ComponentPad*
%ADD22RotRect,1.700000X1.700000X225.000000*%
G04 #@! TD*
G04 #@! TA.AperFunction,ComponentPad*
%ADD23HorizOval,1.700000X0.000000X0.000000X0.000000X0.000000X0*%
G04 #@! TD*
G04 #@! TA.AperFunction,ComponentPad*
%ADD24RotRect,1.500000X2.500000X45.000000*%
G04 #@! TD*
G04 #@! TA.AperFunction,ComponentPad*
%ADD25HorizOval,1.500000X-0.353553X0.353553X0.353553X-0.353553X0*%
G04 #@! TD*
G04 #@! TA.AperFunction,ComponentPad*
%ADD26RotRect,1.700000X1.700000X135.000000*%
G04 #@! TD*
G04 #@! TA.AperFunction,ComponentPad*
%ADD27RoundRect,0.250000X0.106066X-0.954594X0.954594X-0.106066X-0.106066X0.954594X-0.954594X0.106066X0*%
G04 #@! TD*
G04 #@! TA.AperFunction,ComponentPad*
%ADD28HorizOval,1.700000X-0.106066X0.106066X0.106066X-0.106066X0*%
G04 #@! TD*
G04 #@! TA.AperFunction,ComponentPad*
%ADD29HorizOval,1.700000X0.000000X0.000000X0.000000X0.000000X0*%
G04 #@! TD*
G04 #@! TA.AperFunction,ComponentPad*
%ADD30C,1.524000*%
G04 #@! TD*
G04 #@! TA.AperFunction,ComponentPad*
%ADD31C,1.560000*%
G04 #@! TD*
G04 #@! TA.AperFunction,ComponentPad*
%ADD32RotRect,1.560000X1.560000X225.000000*%
G04 #@! TD*
G04 #@! TA.AperFunction,ViaPad*
%ADD33C,0.600000*%
G04 #@! TD*
G04 #@! TA.AperFunction,Conductor*
%ADD34C,0.400000*%
G04 #@! TD*
G04 #@! TA.AperFunction,Conductor*
%ADD35C,0.200000*%
G04 #@! TD*
G04 APERTURE END LIST*
D10*
X105155919Y-74675999D03*
X104095259Y-73615339D03*
X103034599Y-72554679D03*
X101973939Y-71494019D03*
X100913279Y-70433359D03*
X99852619Y-69372698D03*
X98791958Y-68312038D03*
X97731298Y-67251378D03*
X96670638Y-66190718D03*
X95609978Y-65130058D03*
X94549318Y-64069398D03*
X93488658Y-63008737D03*
X92427997Y-61948077D03*
D11*
X90589520Y-61665235D03*
X89528860Y-62725895D03*
X88468199Y-63786555D03*
X87407539Y-64847215D03*
X86346879Y-65907875D03*
X85286219Y-66968535D03*
X84225559Y-68029196D03*
X83164899Y-69089856D03*
D12*
X83447741Y-70928333D03*
X84508401Y-71988994D03*
X85569062Y-73049654D03*
X86629722Y-74110314D03*
X87690382Y-75170974D03*
X88751042Y-76231634D03*
X89811702Y-77292294D03*
X90872362Y-78352955D03*
X91933023Y-79413615D03*
X92993683Y-80474275D03*
X94054343Y-81534935D03*
X95115003Y-82595595D03*
X96175663Y-83656255D03*
D13*
X83184999Y-65785999D03*
D14*
X84981050Y-63989948D03*
D15*
X106128548Y-51041438D03*
D16*
X107924599Y-52837489D03*
D17*
X81454823Y-67484823D03*
X79987577Y-66017577D03*
D18*
X113355639Y-54421594D03*
D19*
X115123405Y-56189360D03*
D20*
X80066344Y-54920344D03*
X84017656Y-58871656D03*
D21*
X78396216Y-59525784D03*
X79845784Y-58076216D03*
D15*
X98826005Y-54462993D03*
D16*
X97029954Y-56259044D03*
X95233903Y-58055095D03*
X93437851Y-59851147D03*
D22*
X83083122Y-62102999D03*
D23*
X81287071Y-63899050D03*
X81287071Y-60306948D03*
X79491020Y-62102999D03*
D24*
X86468948Y-61105050D03*
D25*
X88264999Y-59308999D03*
X90061050Y-57512948D03*
D26*
X95249999Y-54457599D03*
D27*
X86933594Y-55935361D03*
D28*
X88701360Y-54167593D03*
D26*
X112915561Y-58305561D03*
D29*
X111119510Y-56509510D03*
D21*
X91223216Y-51143784D03*
X92672784Y-49694216D03*
D30*
X112231898Y-76871103D03*
X114027949Y-75075052D03*
X115824000Y-73279000D03*
X117620052Y-71482949D03*
X119416103Y-69686898D03*
D26*
X93421199Y-56235599D03*
D21*
X92874216Y-52794784D03*
X94323784Y-51345216D03*
D31*
X119196153Y-65073687D03*
X117428386Y-59770386D03*
D32*
X122731686Y-61538152D03*
D33*
X108458000Y-58166000D03*
X109220000Y-58928000D03*
X111125000Y-60833000D03*
X109982000Y-61595000D03*
X108204000Y-59563000D03*
X107569000Y-58801000D03*
X105664000Y-63754000D03*
X106426000Y-62992000D03*
X107442000Y-62103000D03*
X108458000Y-61214000D03*
X109093000Y-60579000D03*
X110109000Y-59944000D03*
X84201000Y-51054000D03*
X89535000Y-67437000D03*
X99822000Y-61849000D03*
X100838000Y-54229000D03*
X99441000Y-52832000D03*
X98171000Y-51308000D03*
X96901000Y-50165000D03*
X95504000Y-49149000D03*
X93472000Y-48133000D03*
X91821000Y-47498000D03*
X90422538Y-47388859D03*
X86487000Y-47752000D03*
X84201000Y-48514000D03*
X82296000Y-49784000D03*
X80645000Y-51054000D03*
X78994000Y-53467000D03*
X77851000Y-56134000D03*
X77724000Y-58293000D03*
X77470000Y-60452000D03*
X77978000Y-64389000D03*
X79375000Y-68326000D03*
X80264000Y-69977000D03*
X92202000Y-82042000D03*
X95758000Y-85090000D03*
X96901000Y-85979000D03*
X98298000Y-87249000D03*
X99695000Y-88519000D03*
X100838000Y-89535000D03*
X107823000Y-83312000D03*
X109347000Y-81788000D03*
X112014000Y-79502000D03*
X113792000Y-77851000D03*
X115443000Y-76200000D03*
X117094000Y-74803000D03*
X118618000Y-73152000D03*
X119761000Y-71628000D03*
X120904000Y-70231000D03*
X121666000Y-69088000D03*
X122428000Y-67310000D03*
X123190000Y-65532000D03*
X123571000Y-63500000D03*
X123952000Y-59944000D03*
X123825000Y-58166000D03*
X123317000Y-55753000D03*
X122428000Y-53594000D03*
X121412000Y-51943000D03*
X119888000Y-50165000D03*
X117856000Y-48768000D03*
X115443000Y-47879000D03*
X112649000Y-47498000D03*
X109982000Y-47625000D03*
X107569000Y-48387000D03*
X105664000Y-49403000D03*
X104013000Y-50673000D03*
X102997000Y-51943000D03*
X101981000Y-53213000D03*
X104648000Y-57912000D03*
X103632000Y-58674000D03*
X103632000Y-57531000D03*
X101981000Y-57531000D03*
X101981000Y-58674000D03*
X100584000Y-58674000D03*
X104521000Y-60198000D03*
X103632000Y-60960000D03*
X103632000Y-60198000D03*
X101219000Y-60960000D03*
X102489000Y-60960000D03*
X102489000Y-60198000D03*
X101219000Y-60198000D03*
X100203000Y-60198000D03*
X100584000Y-63246000D03*
X99060000Y-64643000D03*
X94615000Y-62103000D03*
X96647000Y-64135000D03*
X83058000Y-60325000D03*
X90932000Y-68834000D03*
X97917000Y-82296000D03*
X97282000Y-82931000D03*
X111506000Y-78867000D03*
X106299000Y-75057000D03*
X107315000Y-74930000D03*
X108331000Y-75946000D03*
X109601000Y-77089000D03*
X110490000Y-77978000D03*
X87757000Y-71882000D03*
X90043000Y-73279000D03*
X90297000Y-74803000D03*
X90932000Y-75438000D03*
X91313000Y-74295000D03*
X92837000Y-75819000D03*
X94107000Y-71628000D03*
X94996000Y-73787000D03*
X92964000Y-72898000D03*
X91567000Y-71501000D03*
X92837000Y-70358000D03*
X99441000Y-72009000D03*
X100838000Y-73406000D03*
X101727000Y-73406000D03*
X100838000Y-72390000D03*
X99949000Y-71501000D03*
X99187000Y-70612000D03*
X97282000Y-72390000D03*
X96393000Y-68834000D03*
X97155000Y-71374000D03*
X95631000Y-69977000D03*
X96520000Y-67818000D03*
X95758000Y-67183000D03*
X92456000Y-67183000D03*
X93980000Y-65405000D03*
X94615000Y-65913000D03*
X87630000Y-66421000D03*
X88265000Y-65786000D03*
X90297000Y-63754000D03*
X92329000Y-63627000D03*
X91948000Y-64516000D03*
X91059000Y-65532000D03*
X89662000Y-64516000D03*
X91186000Y-63373000D03*
X89027000Y-67945000D03*
X86537800Y-63855600D03*
X89789000Y-55372000D03*
X112598200Y-59969400D03*
X105530106Y-69817213D03*
X88393998Y-71270402D03*
X90119200Y-69723000D03*
X94751901Y-80395618D03*
X108140500Y-68706500D03*
X112953800Y-62890400D03*
X99003128Y-75986310D03*
X93980000Y-49276000D03*
X113538000Y-67310000D03*
X89076658Y-60825047D03*
X94829179Y-60392279D03*
X89890600Y-60045600D03*
X91821000Y-59944000D03*
X81040329Y-65263671D03*
X84555071Y-69289106D03*
X96596200Y-76631800D03*
X98475800Y-75311000D03*
X108077000Y-66040000D03*
X108052902Y-67793902D03*
X107061000Y-69459000D03*
X105833591Y-72601409D03*
X88490361Y-69186361D03*
X85664700Y-68284450D03*
X92202000Y-58039000D03*
X85328048Y-69084877D03*
X95504000Y-50546000D03*
X81320933Y-58155249D03*
X91313000Y-55905400D03*
X97764600Y-65557400D03*
X98425000Y-69596000D03*
X98399600Y-72669400D03*
X98006551Y-76697253D03*
X94474740Y-79589428D03*
X84246775Y-70026774D03*
X78740000Y-56515000D03*
X80699502Y-68732400D03*
D34*
X91186000Y-63190076D02*
X92427998Y-61948078D01*
X91186000Y-63373000D02*
X91186000Y-63190076D01*
D35*
X92683676Y-61692400D02*
X92427998Y-61948078D01*
X94193038Y-61692400D02*
X92683676Y-61692400D01*
X94354565Y-61715565D02*
X94262219Y-61623219D01*
X94354565Y-61842565D02*
X94354565Y-61715565D01*
X94262219Y-61623219D02*
X94193038Y-61692400D01*
X94615000Y-62103000D02*
X94354565Y-61842565D01*
D34*
X91968378Y-63266378D02*
X91968378Y-62407698D01*
X91968378Y-62407698D02*
X92427998Y-61948078D01*
X92329000Y-63627000D02*
X91968378Y-63266378D01*
X86537800Y-63444606D02*
X86537800Y-63855600D01*
X86708447Y-59453745D02*
X88392000Y-61137298D01*
X88392000Y-61137298D02*
X88392000Y-61590406D01*
X89789000Y-55376596D02*
X86708447Y-58457149D01*
X89789000Y-55372000D02*
X89789000Y-55376596D01*
X86708447Y-58457149D02*
X86708447Y-59453745D01*
X88392000Y-61590406D02*
X86537800Y-63444606D01*
D35*
X81252123Y-66017577D02*
X83172411Y-64097289D01*
X79987577Y-66017577D02*
X81252123Y-66017577D01*
X83172411Y-63893589D02*
X81528041Y-62249218D01*
X84740082Y-65461259D02*
X83172411Y-63893589D01*
X83172411Y-64097289D02*
X83172411Y-63893589D01*
X81040329Y-65263671D02*
X81025346Y-65263671D01*
X81025346Y-65263671D02*
X79491021Y-63729346D01*
X79491021Y-63729346D02*
X79491021Y-62103000D01*
X84963000Y-69850000D02*
X84963000Y-69697035D01*
X85115400Y-70002400D02*
X84963000Y-69850000D01*
X92200625Y-77722625D02*
X85115400Y-70637400D01*
X84963000Y-69697035D02*
X84555071Y-69289106D01*
X95505375Y-77722625D02*
X92200625Y-77722625D01*
X96596200Y-76631800D02*
X95505375Y-77722625D01*
X85115400Y-70637400D02*
X85115400Y-70002400D01*
D34*
X87588450Y-68284450D02*
X88490361Y-69186361D01*
X85664700Y-68284450D02*
X87588450Y-68284450D01*
X93227000Y-65347097D02*
X93227000Y-63270477D01*
X89670918Y-68903179D02*
X93227000Y-65347097D01*
X89670918Y-69070000D02*
X89670918Y-68903179D01*
X88509918Y-70231000D02*
X89670918Y-69070000D01*
X93227000Y-63270477D02*
X93488739Y-63008738D01*
X85328048Y-69084877D02*
X86474171Y-70231000D01*
X86474171Y-70231000D02*
X88509918Y-70231000D01*
D35*
X102975060Y-74735620D02*
X104095340Y-73615340D01*
X98748949Y-74735620D02*
X102975060Y-74735620D01*
X98724329Y-74711000D02*
X98748949Y-74735620D01*
X98227271Y-74711000D02*
X98724329Y-74711000D01*
X97840800Y-75097471D02*
X98227271Y-74711000D01*
X97840800Y-76014475D02*
X97840800Y-75097471D01*
X84613995Y-70751004D02*
X91985616Y-78122625D01*
X91985616Y-78122625D02*
X96014787Y-78122625D01*
X84613995Y-70393994D02*
X84613995Y-70751004D01*
X97406551Y-76448724D02*
X97840800Y-76014475D01*
X84246775Y-70026774D02*
X84613995Y-70393994D01*
X96014787Y-78122625D02*
X97406551Y-76730861D01*
X97406551Y-76730861D02*
X97406551Y-76448724D01*
X84740082Y-65932218D02*
X84740082Y-65461259D01*
X82705280Y-68630237D02*
X82705280Y-67967020D01*
X82705280Y-67967020D02*
X84740082Y-65932218D01*
X81528041Y-61854959D02*
X83058000Y-60325000D01*
X83164900Y-69089857D02*
X82705280Y-68630237D01*
X81528041Y-62249218D02*
X81528041Y-61854959D01*
D34*
X83447742Y-69372699D02*
X83164900Y-69089857D01*
X83447742Y-70928334D02*
X83447742Y-69372699D01*
X78396216Y-59525784D02*
X77470000Y-60452000D01*
X78396216Y-58965216D02*
X77724000Y-58293000D01*
X78396216Y-59525784D02*
X78396216Y-58965216D01*
X82181649Y-71222041D02*
X82181649Y-69888049D01*
X92993764Y-80474276D02*
X92841251Y-80626789D01*
X92841251Y-80626789D02*
X91586397Y-80626789D01*
X81026000Y-68732400D02*
X80699502Y-68732400D01*
X82181649Y-69888049D02*
X81026000Y-68732400D01*
X91586397Y-80626789D02*
X82181649Y-71222041D01*
D35*
X96175744Y-83656256D02*
X95716124Y-84115876D01*
X80450973Y-69332400D02*
X80045000Y-68926427D01*
X92302773Y-81126789D02*
X91379291Y-81126789D01*
X95716124Y-84115876D02*
X95291860Y-84115876D01*
X81681649Y-71429147D02*
X81681649Y-70095155D01*
X91379291Y-81126789D02*
X81681649Y-71429147D01*
X95291860Y-84115876D02*
X92302773Y-81126789D01*
X81681649Y-70095155D02*
X80918894Y-69332400D01*
X79857600Y-59403714D02*
X79857600Y-59325470D01*
X80918894Y-69332400D02*
X80450973Y-69332400D01*
X80045000Y-68926427D02*
X80045000Y-67624400D01*
X80045000Y-67624400D02*
X78810053Y-66389453D01*
X78810053Y-66389453D02*
X78810053Y-63671131D01*
X78810053Y-63671131D02*
X77941021Y-62802099D01*
X77941021Y-62802099D02*
X77941021Y-61327180D01*
X77941021Y-61327180D02*
X78591409Y-60676792D01*
X78591409Y-60676792D02*
X78734374Y-60676792D01*
X78734374Y-60676792D02*
X79737072Y-59674094D01*
X79737072Y-59674094D02*
X79737072Y-59524242D01*
X79737072Y-59524242D02*
X79857600Y-59403714D01*
X79857600Y-59325470D02*
X78747776Y-58215646D01*
X78747776Y-58215646D02*
X78747776Y-56238912D01*
X78747776Y-56238912D02*
X80066344Y-54920344D01*
D34*
X94553168Y-79511000D02*
X94474740Y-79589428D01*
X98006551Y-76697253D02*
X98006551Y-76837967D01*
X95333518Y-79511000D02*
X94553168Y-79511000D01*
X98006551Y-76837967D02*
X95333518Y-79511000D01*
X94751901Y-80395618D02*
X95372382Y-80395618D01*
X95372382Y-80395618D02*
X99003128Y-76764872D01*
X99003128Y-76764872D02*
X99003128Y-75986310D01*
X105530106Y-69348894D02*
X106553000Y-68326000D01*
X117620052Y-71482949D02*
X116542422Y-71482949D01*
X107520097Y-68326000D02*
X107900597Y-68706500D01*
X90119200Y-69723000D02*
X89941400Y-69723000D01*
X108204500Y-68706500D02*
X108140500Y-68706500D01*
X108140500Y-68706500D02*
X108203500Y-68706500D01*
X105530106Y-69817213D02*
X105530106Y-69348894D01*
X107924600Y-55295800D02*
X107924600Y-52837490D01*
X112785000Y-63059200D02*
X112953800Y-62890400D01*
X107900597Y-68706500D02*
X108140500Y-68706500D01*
X111201200Y-64642534D02*
X111201666Y-64642534D01*
X116542422Y-71482949D02*
X112785000Y-67725527D01*
X89941400Y-69723000D02*
X88393998Y-71270402D01*
X111201200Y-64642534D02*
X111201200Y-65709800D01*
X111201666Y-64642534D02*
X112953800Y-62890400D01*
X106553000Y-68326000D02*
X107520097Y-68326000D01*
X112785000Y-67725527D02*
X112785000Y-63059200D01*
X112598200Y-59969400D02*
X107924600Y-55295800D01*
X111201200Y-65709800D02*
X108204500Y-68706500D01*
X93980000Y-49276000D02*
X93091000Y-49276000D01*
X93091000Y-49276000D02*
X92672784Y-49694216D01*
X116146172Y-61052600D02*
X117428386Y-59770386D01*
X113538000Y-67310000D02*
X114427000Y-67310000D01*
X122731687Y-61538153D02*
X119196153Y-61538153D01*
X112014000Y-60452000D02*
X112014000Y-60500903D01*
X112565697Y-61052600D02*
X116146172Y-61052600D01*
X119196153Y-61538153D02*
X117428386Y-59770386D01*
X97052844Y-54457600D02*
X99211844Y-56616600D01*
X119196153Y-62540847D02*
X119196153Y-61538153D01*
X112014000Y-60500903D02*
X112565697Y-61052600D01*
X99211844Y-56616600D02*
X108178600Y-56616600D01*
X114427000Y-67310000D02*
X119196153Y-62540847D01*
X108178600Y-56616600D02*
X112014000Y-60452000D01*
X95250000Y-54457600D02*
X97052844Y-54457600D01*
D35*
X90212401Y-60552063D02*
X91692463Y-60552063D01*
X94829179Y-60415621D02*
X94005400Y-61239400D01*
X93137858Y-61239400D02*
X93853237Y-61239400D01*
X89154841Y-60746864D02*
X90017600Y-60746864D01*
X91692463Y-60552063D02*
X91694000Y-60553600D01*
X89076658Y-60825047D02*
X89154841Y-60746864D01*
X92452058Y-60553600D02*
X93137858Y-61239400D01*
X94829179Y-60392279D02*
X94829179Y-60415621D01*
X89076658Y-60825047D02*
X89939417Y-60825047D01*
X89939417Y-60825047D02*
X90212401Y-60552063D01*
X91694000Y-60553600D02*
X92452058Y-60553600D01*
X91821000Y-59944000D02*
X91897200Y-59944000D01*
X91897200Y-59944000D02*
X91846400Y-59994800D01*
X91795600Y-60045600D02*
X91821000Y-60020200D01*
X89890600Y-60045600D02*
X91795600Y-60045600D01*
X91821000Y-60020200D02*
X91821000Y-59944000D01*
X104696380Y-75135620D02*
X98651180Y-75135620D01*
X105156000Y-74676000D02*
X104696380Y-75135620D01*
D34*
X105257600Y-71262400D02*
X107061000Y-69459000D01*
X105257600Y-72025418D02*
X105257600Y-71262400D01*
X108077000Y-66040000D02*
X108077000Y-67769804D01*
X108077000Y-67769804D02*
X108052902Y-67793902D01*
X105833591Y-72601409D02*
X105257600Y-72025418D01*
X84017656Y-58871656D02*
X84017656Y-61194813D01*
X92202000Y-57937400D02*
X92202000Y-58039000D01*
X90560000Y-54161800D02*
X90560000Y-56295400D01*
X84981051Y-62158208D02*
X84981051Y-63989949D01*
X84017656Y-61194813D02*
X84981051Y-62158208D01*
X88055575Y-52758528D02*
X89156728Y-52758528D01*
X84017656Y-58871656D02*
X84017656Y-56796447D01*
X89156728Y-52758528D02*
X90560000Y-54161800D01*
X90560000Y-56295400D02*
X92202000Y-57937400D01*
X84017656Y-56796447D02*
X88055575Y-52758528D01*
X81534000Y-67437000D02*
X83185000Y-65786000D01*
X95504000Y-50546000D02*
X95123000Y-50546000D01*
X95123000Y-50546000D02*
X94323784Y-51345216D01*
X81320933Y-58155249D02*
X79924817Y-58155249D01*
X79924817Y-58155249D02*
X79845784Y-58076216D01*
X93503797Y-58197797D02*
X91313000Y-56007000D01*
X97688400Y-59283600D02*
X95773167Y-59283600D01*
X98882200Y-63524316D02*
X98882200Y-61377789D01*
X91313000Y-56007000D02*
X91313000Y-55905400D01*
X95773167Y-59283600D02*
X95751671Y-59305096D01*
X98399600Y-69621400D02*
X98425000Y-69596000D01*
X93608838Y-58197797D02*
X93503797Y-58197797D01*
X98856800Y-60452000D02*
X97688400Y-59283600D01*
X98882200Y-61377789D02*
X98856800Y-61352389D01*
X98856800Y-61352389D02*
X98856800Y-60452000D01*
X95751671Y-59305096D02*
X94716137Y-59305096D01*
X97764600Y-64641916D02*
X98882200Y-63524316D01*
X94716137Y-59305096D02*
X93608838Y-58197797D01*
X97764600Y-65557400D02*
X97764600Y-64641916D01*
X98399600Y-72669400D02*
X98399600Y-69621400D01*
X80066344Y-55188656D02*
X78740000Y-56515000D01*
X80066344Y-54920344D02*
X80066344Y-55188656D01*
G04 #@! TA.AperFunction,Conductor*
G36*
X89454554Y-46859124D02*
G01*
X90830555Y-46971752D01*
X91160873Y-46998790D01*
X91178048Y-47001418D01*
X92641576Y-47331623D01*
X92769702Y-47360532D01*
X92835405Y-47375356D01*
X92851897Y-47380302D01*
X94445933Y-47981881D01*
X94461283Y-47988902D01*
X95958944Y-48801530D01*
X95977488Y-48811592D01*
X95991370Y-48820362D01*
X97415104Y-49857688D01*
X97427302Y-49867831D01*
X98743852Y-51113365D01*
X98754268Y-51124511D01*
X99950001Y-52573267D01*
X99956534Y-52581928D01*
X100540350Y-53430747D01*
X100539210Y-53431530D01*
X100539249Y-53431585D01*
X100540353Y-53430758D01*
X100540404Y-53430826D01*
X100540456Y-53430901D01*
X100539322Y-53431686D01*
X100539361Y-53431740D01*
X100540465Y-53430907D01*
X100775599Y-53742211D01*
X100785471Y-53755280D01*
X100785574Y-53755443D01*
X100785700Y-53755472D01*
X100785812Y-53755538D01*
X100785894Y-53755516D01*
X100785978Y-53755536D01*
X100786087Y-53755466D01*
X100786213Y-53755434D01*
X100786309Y-53755269D01*
X101218420Y-53146800D01*
X101222342Y-53141579D01*
X102844622Y-51097232D01*
X102859063Y-51081912D01*
X102904302Y-51041439D01*
X104668002Y-51041439D01*
X104687676Y-51140349D01*
X104729563Y-51203038D01*
X105966950Y-52440424D01*
X106029639Y-52482312D01*
X106128549Y-52501986D01*
X106227459Y-52482312D01*
X106290148Y-52440425D01*
X107527534Y-51203038D01*
X107569422Y-51140349D01*
X107589096Y-51041439D01*
X107569422Y-50942529D01*
X107527535Y-50879840D01*
X106290148Y-49642454D01*
X106227459Y-49600566D01*
X106215481Y-49598183D01*
X106215480Y-49598183D01*
X106140529Y-49583275D01*
X106128549Y-49580892D01*
X106029639Y-49600566D01*
X106019485Y-49607350D01*
X106019484Y-49607351D01*
X105972018Y-49639066D01*
X105972013Y-49639069D01*
X105966950Y-49642453D01*
X105962642Y-49646760D01*
X105962637Y-49646765D01*
X104733871Y-50875532D01*
X104733866Y-50875537D01*
X104729564Y-50879840D01*
X104726181Y-50884902D01*
X104726180Y-50884904D01*
X104694460Y-50932375D01*
X104694458Y-50932378D01*
X104687676Y-50942529D01*
X104685293Y-50954504D01*
X104685293Y-50954507D01*
X104678458Y-50988873D01*
X104668002Y-51041439D01*
X102904302Y-51041439D01*
X104731608Y-49406634D01*
X104749417Y-49393371D01*
X106823412Y-48120627D01*
X106844798Y-48110184D01*
X109067183Y-47278533D01*
X109092224Y-47272044D01*
X111742567Y-46874075D01*
X111768763Y-46872947D01*
X114416826Y-47039832D01*
X114442577Y-47044212D01*
X116978877Y-47757187D01*
X117003873Y-47767255D01*
X117408335Y-47983926D01*
X119320478Y-49008262D01*
X119340466Y-49021612D01*
X120658426Y-50100422D01*
X120669861Y-50111055D01*
X121796055Y-51299068D01*
X121837663Y-51342960D01*
X121852702Y-51362355D01*
X121874211Y-51396629D01*
X123207237Y-53520759D01*
X123218630Y-53543992D01*
X124107473Y-55968627D01*
X124113619Y-55992529D01*
X124449588Y-58185518D01*
X124451018Y-58204175D01*
X124453521Y-60758771D01*
X124452600Y-60773973D01*
X124013396Y-64358393D01*
X124009153Y-64378723D01*
X123083449Y-67485291D01*
X123074349Y-67507620D01*
X121571566Y-70363677D01*
X121560189Y-70381445D01*
X119385770Y-73213888D01*
X119376833Y-73224286D01*
X117849224Y-74814415D01*
X117845358Y-74818266D01*
X115467242Y-77085078D01*
X115463587Y-77088425D01*
X111575413Y-80508734D01*
X111575384Y-80508759D01*
X111575348Y-80508792D01*
X111575347Y-80508793D01*
X111575303Y-80508831D01*
X111575201Y-80508922D01*
X111575199Y-80508924D01*
X111575075Y-80509034D01*
X111575013Y-80509089D01*
X101678960Y-89343331D01*
X101678490Y-89342805D01*
X101678486Y-89342807D01*
X101678959Y-89343332D01*
X100866847Y-90073703D01*
X100813909Y-90101826D01*
X100753965Y-90101830D01*
X100701023Y-90073714D01*
X99888924Y-89343547D01*
X99889403Y-89343013D01*
X99889400Y-89343012D01*
X99888923Y-89343546D01*
X91348608Y-81696668D01*
X91315198Y-81647770D01*
X91308277Y-81588953D01*
X91329424Y-81533634D01*
X91373815Y-81494432D01*
X91431325Y-81480289D01*
X92104986Y-81480289D01*
X92152439Y-81489728D01*
X92192667Y-81516608D01*
X95006876Y-84330816D01*
X95021661Y-84349023D01*
X95022567Y-84350007D01*
X95028185Y-84358606D01*
X95036290Y-84364914D01*
X95051922Y-84377081D01*
X95055903Y-84380314D01*
X95058982Y-84382922D01*
X95062611Y-84386551D01*
X95066783Y-84389529D01*
X95066788Y-84389534D01*
X95078401Y-84397825D01*
X95082505Y-84400885D01*
X95121286Y-84431069D01*
X95128365Y-84433499D01*
X95134456Y-84437848D01*
X95144305Y-84440780D01*
X95144307Y-84440781D01*
X95181512Y-84451857D01*
X95186394Y-84453421D01*
X95209351Y-84461301D01*
X95232871Y-84469376D01*
X95240359Y-84469376D01*
X95247530Y-84471511D01*
X95296590Y-84469482D01*
X95301715Y-84469376D01*
X95659681Y-84469376D01*
X95707134Y-84478815D01*
X95747362Y-84505695D01*
X95907999Y-84666332D01*
X95970688Y-84708220D01*
X96069598Y-84727895D01*
X96168508Y-84708220D01*
X96231197Y-84666333D01*
X96620787Y-84276740D01*
X96676374Y-84244647D01*
X96740561Y-84244647D01*
X96796149Y-84276741D01*
X101496643Y-88977235D01*
X110476899Y-79996979D01*
X107603635Y-77123715D01*
X111253719Y-77123715D01*
X111254412Y-77134999D01*
X111290641Y-77254430D01*
X111295278Y-77265623D01*
X111383505Y-77430684D01*
X111390246Y-77440773D01*
X111508980Y-77585451D01*
X111517549Y-77594020D01*
X111662227Y-77712754D01*
X111672316Y-77719495D01*
X111837377Y-77807722D01*
X111848570Y-77812359D01*
X111968001Y-77848588D01*
X111979285Y-77849281D01*
X111981898Y-77838280D01*
X112481898Y-77838280D01*
X112484510Y-77849281D01*
X112495794Y-77848588D01*
X112615225Y-77812359D01*
X112626418Y-77807722D01*
X112791479Y-77719495D01*
X112801568Y-77712754D01*
X112946246Y-77594020D01*
X112954815Y-77585451D01*
X113073549Y-77440773D01*
X113080290Y-77430684D01*
X113168517Y-77265623D01*
X113173154Y-77254430D01*
X113209383Y-77134999D01*
X113210076Y-77123715D01*
X113199075Y-77121103D01*
X112498224Y-77121103D01*
X112485348Y-77124553D01*
X112481898Y-77137429D01*
X112481898Y-77838280D01*
X111981898Y-77838280D01*
X111981898Y-77137429D01*
X111978447Y-77124553D01*
X111965572Y-77121103D01*
X111264721Y-77121103D01*
X111253719Y-77123715D01*
X107603635Y-77123715D01*
X107098410Y-76618490D01*
X111253719Y-76618490D01*
X111264721Y-76621103D01*
X111965572Y-76621103D01*
X111978447Y-76617652D01*
X111981898Y-76604777D01*
X112481898Y-76604777D01*
X112485348Y-76617652D01*
X112498224Y-76621103D01*
X113199075Y-76621103D01*
X113210076Y-76618490D01*
X113209383Y-76607206D01*
X113173154Y-76487775D01*
X113168517Y-76476582D01*
X113080290Y-76311521D01*
X113073549Y-76301432D01*
X112954815Y-76156754D01*
X112946246Y-76148185D01*
X112801568Y-76029451D01*
X112791479Y-76022710D01*
X112626418Y-75934483D01*
X112615225Y-75929846D01*
X112495794Y-75893617D01*
X112484510Y-75892924D01*
X112481898Y-75903926D01*
X112481898Y-76604777D01*
X111981898Y-76604777D01*
X111981898Y-75903926D01*
X111979285Y-75892924D01*
X111968001Y-75893617D01*
X111848570Y-75929846D01*
X111837377Y-75934483D01*
X111672316Y-76022710D01*
X111662227Y-76029451D01*
X111517549Y-76148185D01*
X111508980Y-76156754D01*
X111390246Y-76301432D01*
X111383505Y-76311521D01*
X111295278Y-76476582D01*
X111290641Y-76487775D01*
X111254412Y-76607206D01*
X111253719Y-76618490D01*
X107098410Y-76618490D01*
X105776405Y-75296485D01*
X105744311Y-75240898D01*
X105744311Y-75176710D01*
X105776405Y-75121123D01*
X105822476Y-75075052D01*
X113007535Y-75075052D01*
X113008132Y-75081113D01*
X113026544Y-75268060D01*
X113026545Y-75268066D01*
X113027142Y-75274125D01*
X113028909Y-75279950D01*
X113028910Y-75279955D01*
X113074149Y-75429089D01*
X113085209Y-75465548D01*
X113088079Y-75470917D01*
X113088081Y-75470922D01*
X113152558Y-75591549D01*
X113179506Y-75641964D01*
X113183367Y-75646669D01*
X113183368Y-75646670D01*
X113239181Y-75714679D01*
X113306407Y-75796594D01*
X113461037Y-75923495D01*
X113637453Y-76017792D01*
X113828876Y-76075859D01*
X114027949Y-76095466D01*
X114227022Y-76075859D01*
X114418445Y-76017792D01*
X114594861Y-75923495D01*
X114749491Y-75796594D01*
X114876392Y-75641964D01*
X114970689Y-75465548D01*
X115028756Y-75274125D01*
X115048363Y-75075052D01*
X115028756Y-74875979D01*
X114970689Y-74684556D01*
X114876392Y-74508140D01*
X114749491Y-74353510D01*
X114594861Y-74226609D01*
X114589492Y-74223739D01*
X114423819Y-74135184D01*
X114423814Y-74135182D01*
X114418445Y-74132312D01*
X114381986Y-74121252D01*
X114232852Y-74076013D01*
X114232847Y-74076012D01*
X114227022Y-74074245D01*
X114220963Y-74073648D01*
X114220957Y-74073647D01*
X114034010Y-74055235D01*
X114027949Y-74054638D01*
X114021888Y-74055235D01*
X113834940Y-74073647D01*
X113834932Y-74073648D01*
X113828876Y-74074245D01*
X113823052Y-74076011D01*
X113823045Y-74076013D01*
X113643284Y-74130543D01*
X113643282Y-74130543D01*
X113637453Y-74132312D01*
X113632086Y-74135180D01*
X113632078Y-74135184D01*
X113466405Y-74223739D01*
X113466399Y-74223742D01*
X113461037Y-74226609D01*
X113456336Y-74230466D01*
X113456330Y-74230471D01*
X113311113Y-74349647D01*
X113311107Y-74349652D01*
X113306407Y-74353510D01*
X113302549Y-74358210D01*
X113302544Y-74358216D01*
X113183368Y-74503433D01*
X113183363Y-74503439D01*
X113179506Y-74508140D01*
X113176639Y-74513502D01*
X113176636Y-74513508D01*
X113088081Y-74679181D01*
X113088077Y-74679189D01*
X113085209Y-74684556D01*
X113083440Y-74690385D01*
X113083440Y-74690387D01*
X113028910Y-74870148D01*
X113028908Y-74870155D01*
X113027142Y-74875979D01*
X113026545Y-74882035D01*
X113026544Y-74882043D01*
X113015714Y-74992006D01*
X113007535Y-75075052D01*
X105822476Y-75075052D01*
X105910401Y-74987127D01*
X106165996Y-74731533D01*
X106207884Y-74668844D01*
X106227559Y-74569934D01*
X106207884Y-74471024D01*
X106165997Y-74408335D01*
X105423585Y-73665924D01*
X105360896Y-73624036D01*
X105348917Y-73621653D01*
X105263935Y-73604748D01*
X105219237Y-73586233D01*
X105185026Y-73552022D01*
X105176572Y-73531612D01*
X114845821Y-73531612D01*
X114846514Y-73542896D01*
X114882743Y-73662327D01*
X114887380Y-73673520D01*
X114975607Y-73838581D01*
X114982348Y-73848670D01*
X115101082Y-73993348D01*
X115109651Y-74001917D01*
X115254329Y-74120651D01*
X115264418Y-74127392D01*
X115429479Y-74215619D01*
X115440672Y-74220256D01*
X115560103Y-74256485D01*
X115571387Y-74257178D01*
X115574000Y-74246177D01*
X116074000Y-74246177D01*
X116076612Y-74257178D01*
X116087896Y-74256485D01*
X116207327Y-74220256D01*
X116218520Y-74215619D01*
X116383581Y-74127392D01*
X116393670Y-74120651D01*
X116538348Y-74001917D01*
X116546917Y-73993348D01*
X116665651Y-73848670D01*
X116672392Y-73838581D01*
X116760619Y-73673520D01*
X116765256Y-73662327D01*
X116801485Y-73542896D01*
X116802178Y-73531612D01*
X116791177Y-73529000D01*
X116090326Y-73529000D01*
X116077450Y-73532450D01*
X116074000Y-73545326D01*
X116074000Y-74246177D01*
X115574000Y-74246177D01*
X115574000Y-73545326D01*
X115570549Y-73532450D01*
X115557674Y-73529000D01*
X114856823Y-73529000D01*
X114845821Y-73531612D01*
X105176572Y-73531612D01*
X105166511Y-73507323D01*
X105149607Y-73422345D01*
X105147224Y-73410364D01*
X105105337Y-73347675D01*
X104362925Y-72605264D01*
X104300236Y-72563376D01*
X104288257Y-72560993D01*
X104203275Y-72544088D01*
X104158577Y-72525573D01*
X104124366Y-72491362D01*
X104105851Y-72446663D01*
X104088947Y-72361685D01*
X104086564Y-72349704D01*
X104044677Y-72287015D01*
X103302265Y-71544604D01*
X103239576Y-71502716D01*
X103227597Y-71500333D01*
X103142615Y-71483428D01*
X103097917Y-71464913D01*
X103063706Y-71430702D01*
X103045191Y-71386003D01*
X103033693Y-71328201D01*
X103025904Y-71289044D01*
X102984017Y-71226355D01*
X102241605Y-70483944D01*
X102178916Y-70442056D01*
X102166937Y-70439673D01*
X102081955Y-70422768D01*
X102037257Y-70404253D01*
X102003046Y-70370042D01*
X101984531Y-70325343D01*
X101968646Y-70245488D01*
X101965244Y-70228384D01*
X101923357Y-70165695D01*
X101180945Y-69423284D01*
X101118256Y-69381396D01*
X101106277Y-69379013D01*
X101021295Y-69362108D01*
X100976596Y-69343593D01*
X100942386Y-69309382D01*
X100923871Y-69264683D01*
X100923789Y-69264269D01*
X100904584Y-69167723D01*
X100862697Y-69105034D01*
X100120285Y-68362623D01*
X100057596Y-68320735D01*
X100045617Y-68318352D01*
X99960634Y-68301447D01*
X99915936Y-68282932D01*
X99881725Y-68248721D01*
X99863210Y-68204022D01*
X99846306Y-68119044D01*
X99843923Y-68107063D01*
X99802036Y-68044374D01*
X99059624Y-67301963D01*
X98996935Y-67260075D01*
X98984956Y-67257692D01*
X98899974Y-67240787D01*
X98855276Y-67222272D01*
X98821065Y-67188061D01*
X98802550Y-67143362D01*
X98797948Y-67120227D01*
X98783263Y-67046403D01*
X98741376Y-66983714D01*
X98369359Y-66611698D01*
X98001582Y-66243921D01*
X97970600Y-66192227D01*
X97967649Y-66132033D01*
X97993425Y-66077556D01*
X98030399Y-66050147D01*
X98029191Y-66048055D01*
X98036228Y-66043991D01*
X98043738Y-66040881D01*
X98159361Y-65952161D01*
X98248081Y-65836538D01*
X98303853Y-65701892D01*
X98322876Y-65557400D01*
X98303853Y-65412908D01*
X98248081Y-65278262D01*
X98243133Y-65271814D01*
X98239070Y-65264776D01*
X98239437Y-65264564D01*
X98224681Y-65236957D01*
X98218100Y-65197098D01*
X98218100Y-64881124D01*
X98227539Y-64833671D01*
X98254419Y-64793443D01*
X98406775Y-64641087D01*
X99179942Y-63867917D01*
X99190305Y-63858657D01*
X99218394Y-63836258D01*
X99250843Y-63788662D01*
X99253456Y-63784978D01*
X99287675Y-63738616D01*
X99290532Y-63730450D01*
X99295404Y-63723305D01*
X99312377Y-63668276D01*
X99313815Y-63663905D01*
X99332826Y-63609579D01*
X99333149Y-63600939D01*
X99335700Y-63592670D01*
X99335700Y-63535087D01*
X99335787Y-63530450D01*
X99336030Y-63523955D01*
X99337938Y-63472967D01*
X99336133Y-63466233D01*
X99335700Y-63458515D01*
X99335700Y-61410211D01*
X99336480Y-61396328D01*
X99338137Y-61381622D01*
X99340501Y-61360640D01*
X99329793Y-61304047D01*
X99329031Y-61299560D01*
X99320447Y-61242608D01*
X99316694Y-61234815D01*
X99315086Y-61226316D01*
X99314843Y-61225857D01*
X99310300Y-61195720D01*
X99310300Y-60484422D01*
X99311080Y-60470539D01*
X99315101Y-60434851D01*
X99304393Y-60378258D01*
X99303631Y-60373771D01*
X99295047Y-60316819D01*
X99291294Y-60309026D01*
X99289686Y-60300527D01*
X99262779Y-60249618D01*
X99260707Y-60245512D01*
X99257167Y-60238162D01*
X99235731Y-60193649D01*
X99229847Y-60187308D01*
X99225806Y-60179661D01*
X99185103Y-60138958D01*
X99181913Y-60135647D01*
X99142746Y-60093435D01*
X99136705Y-60089947D01*
X99130934Y-60084789D01*
X98032004Y-58985858D01*
X98022737Y-58975489D01*
X98015778Y-58966763D01*
X98000342Y-58947406D01*
X97952788Y-58914984D01*
X97949009Y-58912303D01*
X97910175Y-58883642D01*
X97902700Y-58878125D01*
X97894534Y-58875267D01*
X97887389Y-58870396D01*
X97878516Y-58867659D01*
X97878514Y-58867658D01*
X97832384Y-58853429D01*
X97827982Y-58851980D01*
X97782427Y-58836040D01*
X97782423Y-58836039D01*
X97773663Y-58832974D01*
X97765023Y-58832650D01*
X97756754Y-58830100D01*
X97747464Y-58830100D01*
X97699171Y-58830100D01*
X97694534Y-58830013D01*
X97646338Y-58828209D01*
X97646334Y-58828209D01*
X97637051Y-58827862D01*
X97630317Y-58829666D01*
X97622599Y-58830100D01*
X96279507Y-58830100D01*
X96216682Y-58813007D01*
X96171178Y-58766440D01*
X96155540Y-58703238D01*
X96173880Y-58641492D01*
X96176138Y-58638503D01*
X96267296Y-58455434D01*
X96323262Y-58258732D01*
X96342132Y-58055096D01*
X96323262Y-57851460D01*
X96267296Y-57654758D01*
X96176138Y-57471689D01*
X96169694Y-57463156D01*
X96056346Y-57313059D01*
X96056345Y-57313058D01*
X96052894Y-57308488D01*
X96028544Y-57286290D01*
X95905990Y-57174566D01*
X95905988Y-57174564D01*
X95901761Y-57170711D01*
X95896897Y-57167699D01*
X95896894Y-57167697D01*
X95732755Y-57066067D01*
X95727884Y-57063051D01*
X95722546Y-57060983D01*
X95722542Y-57060981D01*
X95542532Y-56991245D01*
X95542527Y-56991243D01*
X95537185Y-56989174D01*
X95531550Y-56988120D01*
X95531548Y-56988120D01*
X95341788Y-56952648D01*
X95341783Y-56952647D01*
X95336158Y-56951596D01*
X95131650Y-56951596D01*
X95126025Y-56952647D01*
X95126019Y-56952648D01*
X94936259Y-56988120D01*
X94936254Y-56988121D01*
X94930623Y-56989174D01*
X94925282Y-56991242D01*
X94925275Y-56991245D01*
X94745265Y-57060981D01*
X94745256Y-57060985D01*
X94739924Y-57063051D01*
X94735057Y-57066064D01*
X94735052Y-57066067D01*
X94570913Y-57167697D01*
X94570904Y-57167703D01*
X94566047Y-57170711D01*
X94561824Y-57174560D01*
X94561817Y-57174566D01*
X94419146Y-57304629D01*
X94419140Y-57304634D01*
X94414914Y-57308488D01*
X94411467Y-57313051D01*
X94411461Y-57313059D01*
X94295122Y-57467116D01*
X94295115Y-57467126D01*
X94291670Y-57471689D01*
X94289120Y-57476809D01*
X94289115Y-57476818D01*
X94203066Y-57649627D01*
X94203062Y-57649635D01*
X94200512Y-57654758D01*
X94198946Y-57660260D01*
X94198942Y-57660272D01*
X94149529Y-57833944D01*
X94114404Y-57891094D01*
X94054654Y-57921588D01*
X93987765Y-57916500D01*
X93933315Y-57877321D01*
X93920780Y-57861603D01*
X93873226Y-57829181D01*
X93869447Y-57826500D01*
X93830613Y-57797839D01*
X93823138Y-57792322D01*
X93814972Y-57789464D01*
X93807827Y-57784593D01*
X93798951Y-57781855D01*
X93798949Y-57781854D01*
X93752809Y-57767622D01*
X93748410Y-57766174D01*
X93728265Y-57759125D01*
X93721450Y-57756740D01*
X93674727Y-57727381D01*
X93670046Y-57722700D01*
X93637952Y-57667113D01*
X93637952Y-57602925D01*
X93670044Y-57547340D01*
X94820185Y-56397199D01*
X94862073Y-56334510D01*
X94881747Y-56235600D01*
X94862073Y-56136690D01*
X94820186Y-56074001D01*
X93582799Y-54836615D01*
X93540905Y-54808622D01*
X93530263Y-54801511D01*
X93530262Y-54801510D01*
X93520110Y-54794727D01*
X93508132Y-54792344D01*
X93508131Y-54792344D01*
X93433180Y-54777436D01*
X93421200Y-54775053D01*
X93322290Y-54794727D01*
X93312136Y-54801511D01*
X93312135Y-54801512D01*
X93264669Y-54833227D01*
X93264664Y-54833230D01*
X93259601Y-54836614D01*
X93255293Y-54840921D01*
X93255288Y-54840926D01*
X92109461Y-55986753D01*
X92053874Y-56018847D01*
X91989686Y-56018847D01*
X91934099Y-55986753D01*
X91903849Y-55956503D01*
X91880318Y-55923666D01*
X91868591Y-55885007D01*
X91868406Y-55883605D01*
X91852253Y-55760908D01*
X91796481Y-55626262D01*
X91707761Y-55510639D01*
X91592138Y-55421919D01*
X91584367Y-55418700D01*
X91465001Y-55369257D01*
X91464998Y-55369256D01*
X91457492Y-55366147D01*
X91449438Y-55365086D01*
X91449432Y-55365085D01*
X91321059Y-55348185D01*
X91313000Y-55347124D01*
X91304941Y-55348185D01*
X91176565Y-55365086D01*
X91176563Y-55365086D01*
X91168508Y-55366147D01*
X91166299Y-55367061D01*
X91113310Y-55368798D01*
X91062014Y-55345556D01*
X91026288Y-55302024D01*
X91013500Y-55247180D01*
X91013500Y-54457600D01*
X93789453Y-54457600D01*
X93809127Y-54556510D01*
X93851014Y-54619199D01*
X95088401Y-55856585D01*
X95151090Y-55898473D01*
X95250000Y-55918147D01*
X95348910Y-55898473D01*
X95411599Y-55856586D01*
X96320765Y-54947418D01*
X96360993Y-54920539D01*
X96408446Y-54911100D01*
X96813636Y-54911100D01*
X96861089Y-54920539D01*
X96901317Y-54947419D01*
X96914476Y-54960578D01*
X96947165Y-55018477D01*
X96945246Y-55084939D01*
X96909269Y-55140855D01*
X96849580Y-55170148D01*
X96732311Y-55192069D01*
X96732308Y-55192069D01*
X96726674Y-55193123D01*
X96721333Y-55195191D01*
X96721326Y-55195194D01*
X96541316Y-55264930D01*
X96541307Y-55264934D01*
X96535975Y-55267000D01*
X96531108Y-55270013D01*
X96531103Y-55270016D01*
X96366964Y-55371646D01*
X96366955Y-55371652D01*
X96362098Y-55374660D01*
X96357875Y-55378509D01*
X96357868Y-55378515D01*
X96215197Y-55508578D01*
X96215191Y-55508583D01*
X96210965Y-55512437D01*
X96207518Y-55517000D01*
X96207512Y-55517008D01*
X96091173Y-55671065D01*
X96091166Y-55671075D01*
X96087721Y-55675638D01*
X96085171Y-55680758D01*
X96085166Y-55680767D01*
X95999117Y-55853576D01*
X95999113Y-55853584D01*
X95996563Y-55858707D01*
X95994994Y-55864219D01*
X95994994Y-55864221D01*
X95951980Y-56015401D01*
X95940597Y-56055409D01*
X95940068Y-56061114D01*
X95940068Y-56061116D01*
X95933065Y-56136690D01*
X95921727Y-56259045D01*
X95922256Y-56264754D01*
X95932802Y-56378567D01*
X95940597Y-56462681D01*
X95996563Y-56659383D01*
X95999115Y-56664508D01*
X95999117Y-56664513D01*
X96085166Y-56837322D01*
X96085168Y-56837326D01*
X96087721Y-56842452D01*
X96091170Y-56847019D01*
X96091173Y-56847024D01*
X96201491Y-56993108D01*
X96210965Y-57005653D01*
X96215197Y-57009511D01*
X96356277Y-57138124D01*
X96362098Y-57143430D01*
X96535975Y-57251090D01*
X96726674Y-57324967D01*
X96927701Y-57362545D01*
X97126480Y-57362545D01*
X97132209Y-57362545D01*
X97333236Y-57324967D01*
X97523935Y-57251090D01*
X97697812Y-57143430D01*
X97848945Y-57005653D01*
X97972189Y-56842452D01*
X98063347Y-56659383D01*
X98119313Y-56462681D01*
X98120150Y-56453645D01*
X98120747Y-56452130D01*
X98120896Y-56451335D01*
X98121049Y-56451363D01*
X98145534Y-56389224D01*
X98201507Y-56348456D01*
X98270613Y-56344059D01*
X98331302Y-56377404D01*
X98868235Y-56914336D01*
X98877501Y-56924704D01*
X98894107Y-56945528D01*
X98894109Y-56945530D01*
X98899902Y-56952794D01*
X98947481Y-56985233D01*
X98951224Y-56987888D01*
X98997544Y-57022075D01*
X99005709Y-57024932D01*
X99012855Y-57029804D01*
X99067934Y-57046793D01*
X99072187Y-57048192D01*
X99126581Y-57067226D01*
X99135220Y-57067549D01*
X99143490Y-57070100D01*
X99201073Y-57070100D01*
X99205709Y-57070186D01*
X99263193Y-57072338D01*
X99269926Y-57070533D01*
X99277645Y-57070100D01*
X107939392Y-57070100D01*
X107986845Y-57079539D01*
X108027073Y-57106419D01*
X111576958Y-60656304D01*
X111598905Y-60686040D01*
X111608023Y-60703290D01*
X111610102Y-60707410D01*
X111631035Y-60750879D01*
X111631037Y-60750882D01*
X111635069Y-60759254D01*
X111640950Y-60765592D01*
X111644993Y-60773242D01*
X111651564Y-60779813D01*
X111685708Y-60813957D01*
X111688925Y-60817297D01*
X111728054Y-60859468D01*
X111734092Y-60862954D01*
X111739857Y-60868106D01*
X112222092Y-61350341D01*
X112231358Y-61360709D01*
X112247960Y-61381528D01*
X112247962Y-61381530D01*
X112253755Y-61388794D01*
X112261431Y-61394027D01*
X112261433Y-61394029D01*
X112301301Y-61421210D01*
X112305084Y-61423894D01*
X112351397Y-61458075D01*
X112359562Y-61460932D01*
X112366708Y-61465804D01*
X112421787Y-61482793D01*
X112426040Y-61484192D01*
X112480434Y-61503226D01*
X112489073Y-61503549D01*
X112497343Y-61506100D01*
X112554926Y-61506100D01*
X112559562Y-61506186D01*
X112617046Y-61508338D01*
X112623779Y-61506533D01*
X112631498Y-61506100D01*
X116113750Y-61506100D01*
X116127632Y-61506879D01*
X116163321Y-61510901D01*
X116219868Y-61500201D01*
X116224425Y-61499427D01*
X116281353Y-61490847D01*
X116289145Y-61487094D01*
X116297645Y-61485486D01*
X116305862Y-61481143D01*
X116305865Y-61481142D01*
X116348548Y-61458583D01*
X116352680Y-61456496D01*
X116404523Y-61431531D01*
X116410861Y-61425649D01*
X116418511Y-61421607D01*
X116459251Y-61380865D01*
X116462508Y-61377727D01*
X116504737Y-61338546D01*
X116508224Y-61332504D01*
X116513367Y-61326749D01*
X117039269Y-60800847D01*
X117096819Y-60768246D01*
X117162942Y-60769868D01*
X117225785Y-60788932D01*
X117428386Y-60808887D01*
X117630987Y-60788932D01*
X117693825Y-60769869D01*
X117759951Y-60768246D01*
X117817503Y-60800849D01*
X118706334Y-61689679D01*
X118733214Y-61729907D01*
X118742653Y-61777360D01*
X118742653Y-62301639D01*
X118733214Y-62349092D01*
X118706334Y-62389320D01*
X114275473Y-66820181D01*
X114235245Y-66847061D01*
X114187792Y-66856500D01*
X113898302Y-66856500D01*
X113858443Y-66849919D01*
X113830835Y-66835162D01*
X113830624Y-66835530D01*
X113823585Y-66831466D01*
X113817138Y-66826519D01*
X113694059Y-66775538D01*
X113690001Y-66773857D01*
X113689998Y-66773856D01*
X113682492Y-66770747D01*
X113674438Y-66769686D01*
X113674432Y-66769685D01*
X113546059Y-66752785D01*
X113538000Y-66751724D01*
X113529941Y-66752785D01*
X113401565Y-66769686D01*
X113401563Y-66769686D01*
X113393508Y-66770747D01*
X113391299Y-66771661D01*
X113338310Y-66773398D01*
X113287014Y-66750156D01*
X113251288Y-66706624D01*
X113238500Y-66651780D01*
X113238500Y-63430763D01*
X113251288Y-63375919D01*
X113287014Y-63332387D01*
X113308834Y-63315644D01*
X113348561Y-63285161D01*
X113437281Y-63169538D01*
X113493053Y-63034892D01*
X113512076Y-62890400D01*
X113493053Y-62745908D01*
X113437281Y-62611262D01*
X113348561Y-62495639D01*
X113232938Y-62406919D01*
X113190450Y-62389320D01*
X113105801Y-62354257D01*
X113105798Y-62354256D01*
X113098292Y-62351147D01*
X113090238Y-62350086D01*
X113090232Y-62350085D01*
X112961859Y-62333185D01*
X112953800Y-62332124D01*
X112945741Y-62333185D01*
X112817367Y-62350085D01*
X112817359Y-62350086D01*
X112809308Y-62351147D01*
X112801803Y-62354255D01*
X112801798Y-62354257D01*
X112682169Y-62403809D01*
X112682165Y-62403810D01*
X112674662Y-62406919D01*
X112668217Y-62411863D01*
X112668214Y-62411866D01*
X112565485Y-62490692D01*
X112565481Y-62490695D01*
X112559039Y-62495639D01*
X112554095Y-62502081D01*
X112554092Y-62502085D01*
X112475266Y-62604814D01*
X112475263Y-62604817D01*
X112470319Y-62611262D01*
X112467210Y-62618765D01*
X112467209Y-62618769D01*
X112417658Y-62738395D01*
X112417656Y-62738401D01*
X112414547Y-62745908D01*
X112413485Y-62753967D01*
X112411383Y-62761816D01*
X112410973Y-62761706D01*
X112401882Y-62791667D01*
X112378354Y-62824498D01*
X110905757Y-64297095D01*
X110895392Y-64306359D01*
X110872269Y-64324799D01*
X110872266Y-64324802D01*
X110865006Y-64330592D01*
X110859773Y-64338266D01*
X110854387Y-64344072D01*
X110849444Y-64350269D01*
X110842635Y-64356588D01*
X110837992Y-64364629D01*
X110837990Y-64364632D01*
X110823001Y-64390593D01*
X110815390Y-64402216D01*
X110801709Y-64420755D01*
X110801705Y-64420762D01*
X110796191Y-64428234D01*
X110794201Y-64433919D01*
X110794033Y-64434199D01*
X110793227Y-64435870D01*
X110787996Y-64443545D01*
X110785257Y-64452421D01*
X110781816Y-64459568D01*
X110778922Y-64466940D01*
X110774281Y-64474981D01*
X110772215Y-64484032D01*
X110772212Y-64484040D01*
X110765411Y-64513836D01*
X110761564Y-64527190D01*
X110754109Y-64548497D01*
X110754107Y-64548503D01*
X110751040Y-64557271D01*
X110750820Y-64563140D01*
X110750674Y-64563730D01*
X110750435Y-64565309D01*
X110747700Y-64574180D01*
X110747700Y-64583465D01*
X110746519Y-64591302D01*
X110745926Y-64599205D01*
X110743860Y-64608261D01*
X110744554Y-64617524D01*
X110744554Y-64617527D01*
X110746855Y-64648236D01*
X110747115Y-64662134D01*
X110746275Y-64684590D01*
X110746275Y-64684594D01*
X110745928Y-64693883D01*
X110747436Y-64699513D01*
X110747700Y-64704204D01*
X110747700Y-65470592D01*
X110738261Y-65518045D01*
X110711381Y-65558273D01*
X108742181Y-67527472D01*
X108692818Y-67557722D01*
X108635102Y-67562264D01*
X108581615Y-67540109D01*
X108544015Y-67496086D01*
X108530500Y-67439791D01*
X108530500Y-66400302D01*
X108537081Y-66360443D01*
X108551837Y-66332835D01*
X108551470Y-66332624D01*
X108555532Y-66325586D01*
X108560481Y-66319138D01*
X108616253Y-66184492D01*
X108635276Y-66040000D01*
X108616253Y-65895508D01*
X108560481Y-65760862D01*
X108471761Y-65645239D01*
X108356138Y-65556519D01*
X108348200Y-65553231D01*
X108229001Y-65503857D01*
X108228998Y-65503856D01*
X108221492Y-65500747D01*
X108213438Y-65499686D01*
X108213432Y-65499685D01*
X108085059Y-65482785D01*
X108077000Y-65481724D01*
X108068941Y-65482785D01*
X107940567Y-65499685D01*
X107940559Y-65499686D01*
X107932508Y-65500747D01*
X107925003Y-65503855D01*
X107924998Y-65503857D01*
X107805369Y-65553409D01*
X107805365Y-65553410D01*
X107797862Y-65556519D01*
X107791417Y-65561463D01*
X107791414Y-65561466D01*
X107688685Y-65640292D01*
X107688681Y-65640295D01*
X107682239Y-65645239D01*
X107677295Y-65651681D01*
X107677292Y-65651685D01*
X107598466Y-65754414D01*
X107598463Y-65754417D01*
X107593519Y-65760862D01*
X107590410Y-65768365D01*
X107590409Y-65768369D01*
X107540857Y-65887998D01*
X107540855Y-65888003D01*
X107537747Y-65895508D01*
X107536686Y-65903559D01*
X107536685Y-65903567D01*
X107527640Y-65972277D01*
X107518724Y-66040000D01*
X107519785Y-66048059D01*
X107536685Y-66176432D01*
X107536686Y-66176438D01*
X107537747Y-66184492D01*
X107540856Y-66191998D01*
X107540857Y-66192001D01*
X107576360Y-66277713D01*
X107593519Y-66319138D01*
X107598466Y-66325585D01*
X107602530Y-66332624D01*
X107602162Y-66332835D01*
X107616919Y-66360443D01*
X107623500Y-66400302D01*
X107623500Y-67402194D01*
X107616920Y-67442052D01*
X107597877Y-67477679D01*
X107574367Y-67508317D01*
X107574364Y-67508321D01*
X107569421Y-67514764D01*
X107566312Y-67522267D01*
X107566311Y-67522271D01*
X107516759Y-67641900D01*
X107516757Y-67641905D01*
X107513649Y-67649410D01*
X107512588Y-67657461D01*
X107512587Y-67657469D01*
X107504884Y-67715983D01*
X107499508Y-67756826D01*
X107498473Y-67764685D01*
X107477109Y-67819623D01*
X107432791Y-67858489D01*
X107375534Y-67872500D01*
X106585431Y-67872500D01*
X106571547Y-67871720D01*
X106545082Y-67868738D01*
X106535852Y-67867698D01*
X106526730Y-67869423D01*
X106526723Y-67869424D01*
X106479281Y-67878400D01*
X106474715Y-67879176D01*
X106427002Y-67886368D01*
X106426997Y-67886369D01*
X106417819Y-67887753D01*
X106410026Y-67891505D01*
X106401527Y-67893114D01*
X106393324Y-67897449D01*
X106393319Y-67897451D01*
X106350639Y-67920007D01*
X106346506Y-67922093D01*
X106303020Y-67943036D01*
X106303011Y-67943041D01*
X106294649Y-67947069D01*
X106288310Y-67952950D01*
X106280661Y-67956993D01*
X106274097Y-67963556D01*
X106274094Y-67963559D01*
X106239941Y-67997711D01*
X106236606Y-68000924D01*
X106194435Y-68040054D01*
X106190950Y-68046088D01*
X106185793Y-68051859D01*
X105232362Y-69005290D01*
X105221997Y-69014553D01*
X105201179Y-69031155D01*
X105201173Y-69031161D01*
X105193912Y-69036952D01*
X105188681Y-69044623D01*
X105188672Y-69044634D01*
X105161485Y-69084510D01*
X105158804Y-69088289D01*
X105130148Y-69127116D01*
X105130142Y-69127125D01*
X105124631Y-69134594D01*
X105121773Y-69142759D01*
X105116902Y-69149905D01*
X105114165Y-69158775D01*
X105114165Y-69158777D01*
X105099933Y-69204916D01*
X105098484Y-69209318D01*
X105082546Y-69254865D01*
X105082544Y-69254872D01*
X105079480Y-69263631D01*
X105079156Y-69272270D01*
X105076606Y-69280540D01*
X105076606Y-69289826D01*
X105076606Y-69338123D01*
X105076519Y-69342760D01*
X105074715Y-69390955D01*
X105074715Y-69390958D01*
X105074368Y-69400243D01*
X105076172Y-69406976D01*
X105076606Y-69414695D01*
X105076606Y-69456911D01*
X105070025Y-69496770D01*
X105055268Y-69524377D01*
X105055636Y-69524589D01*
X105051571Y-69531628D01*
X105046625Y-69538075D01*
X105043516Y-69545578D01*
X105043515Y-69545582D01*
X104993963Y-69665211D01*
X104993961Y-69665216D01*
X104990853Y-69672721D01*
X104989792Y-69680772D01*
X104989791Y-69680780D01*
X104979520Y-69758801D01*
X104971830Y-69817213D01*
X104972891Y-69825272D01*
X104989791Y-69953645D01*
X104989792Y-69953651D01*
X104990853Y-69961705D01*
X104993962Y-69969211D01*
X104993963Y-69969214D01*
X105043515Y-70088843D01*
X105046625Y-70096351D01*
X105135345Y-70211974D01*
X105250968Y-70300694D01*
X105281870Y-70313494D01*
X105310732Y-70325449D01*
X105359133Y-70361345D01*
X105384897Y-70415818D01*
X105381941Y-70476005D01*
X105350961Y-70527691D01*
X104959856Y-70918796D01*
X104949491Y-70928059D01*
X104928673Y-70944661D01*
X104928667Y-70944667D01*
X104921406Y-70950458D01*
X104916175Y-70958129D01*
X104916166Y-70958140D01*
X104888979Y-70998016D01*
X104886298Y-71001795D01*
X104857642Y-71040622D01*
X104857636Y-71040631D01*
X104852125Y-71048100D01*
X104849267Y-71056265D01*
X104844396Y-71063411D01*
X104841659Y-71072281D01*
X104841659Y-71072283D01*
X104827427Y-71118422D01*
X104825978Y-71122824D01*
X104810040Y-71168371D01*
X104810038Y-71168378D01*
X104806974Y-71177137D01*
X104806650Y-71185776D01*
X104804100Y-71194046D01*
X104804100Y-71203332D01*
X104804100Y-71251629D01*
X104804013Y-71256266D01*
X104802209Y-71304461D01*
X104802209Y-71304464D01*
X104801862Y-71313749D01*
X104803666Y-71320482D01*
X104804100Y-71328201D01*
X104804100Y-71992996D01*
X104803320Y-72006878D01*
X104799299Y-72042567D01*
X104801024Y-72051688D01*
X104801025Y-72051696D01*
X104809997Y-72099119D01*
X104810773Y-72103683D01*
X104813666Y-72122875D01*
X104819353Y-72160599D01*
X104823105Y-72168391D01*
X104824714Y-72176891D01*
X104829052Y-72185100D01*
X104829055Y-72185107D01*
X104851617Y-72227796D01*
X104853703Y-72231927D01*
X104878669Y-72283769D01*
X104884550Y-72290107D01*
X104888593Y-72297757D01*
X104895164Y-72304328D01*
X104929308Y-72338472D01*
X104932525Y-72341812D01*
X104971654Y-72383983D01*
X104977692Y-72387469D01*
X104983457Y-72392621D01*
X105258145Y-72667309D01*
X105281674Y-72700142D01*
X105290764Y-72730102D01*
X105291174Y-72729993D01*
X105293276Y-72737841D01*
X105294338Y-72745901D01*
X105297447Y-72753409D01*
X105297449Y-72753413D01*
X105323902Y-72817276D01*
X105350110Y-72880547D01*
X105438830Y-72996170D01*
X105554453Y-73084890D01*
X105689099Y-73140662D01*
X105833591Y-73159685D01*
X105978083Y-73140662D01*
X106112729Y-73084890D01*
X106188972Y-73026387D01*
X114845821Y-73026387D01*
X114856823Y-73029000D01*
X115557674Y-73029000D01*
X115570549Y-73025549D01*
X115574000Y-73012674D01*
X116074000Y-73012674D01*
X116077450Y-73025549D01*
X116090326Y-73029000D01*
X116791177Y-73029000D01*
X116802178Y-73026387D01*
X116801485Y-73015103D01*
X116765256Y-72895672D01*
X116760619Y-72884479D01*
X116672392Y-72719418D01*
X116665651Y-72709329D01*
X116546917Y-72564651D01*
X116538348Y-72556082D01*
X116393670Y-72437348D01*
X116383581Y-72430607D01*
X116218520Y-72342380D01*
X116207327Y-72337743D01*
X116087896Y-72301514D01*
X116076612Y-72300821D01*
X116074000Y-72311823D01*
X116074000Y-73012674D01*
X115574000Y-73012674D01*
X115574000Y-72311823D01*
X115571387Y-72300821D01*
X115560103Y-72301514D01*
X115440672Y-72337743D01*
X115429479Y-72342380D01*
X115264418Y-72430607D01*
X115254329Y-72437348D01*
X115109651Y-72556082D01*
X115101082Y-72564651D01*
X114982348Y-72709329D01*
X114975607Y-72719418D01*
X114887380Y-72884479D01*
X114882743Y-72895672D01*
X114846514Y-73015103D01*
X114845821Y-73026387D01*
X106188972Y-73026387D01*
X106228352Y-72996170D01*
X106317072Y-72880547D01*
X106372844Y-72745901D01*
X106391867Y-72601409D01*
X106372844Y-72456917D01*
X106317072Y-72322271D01*
X106228352Y-72206648D01*
X106181336Y-72170572D01*
X106119176Y-72122875D01*
X106112729Y-72117928D01*
X106105221Y-72114818D01*
X105985595Y-72065267D01*
X105985591Y-72065265D01*
X105978083Y-72062156D01*
X105970023Y-72061094D01*
X105962175Y-72058992D01*
X105962284Y-72058582D01*
X105932324Y-72049492D01*
X105899491Y-72025963D01*
X105747419Y-71873891D01*
X105720539Y-71833663D01*
X105711100Y-71786210D01*
X105711100Y-71501608D01*
X105720539Y-71454155D01*
X105747419Y-71413927D01*
X106089063Y-71072283D01*
X107126902Y-70034442D01*
X107159738Y-70010913D01*
X107189693Y-70001826D01*
X107189584Y-70001417D01*
X107197433Y-69999313D01*
X107205492Y-69998253D01*
X107340138Y-69942481D01*
X107455761Y-69853761D01*
X107544481Y-69738138D01*
X107600253Y-69603492D01*
X107619276Y-69459000D01*
X107600253Y-69314508D01*
X107593835Y-69299015D01*
X107586245Y-69230226D01*
X107616708Y-69168080D01*
X107675734Y-69131941D01*
X107744934Y-69133067D01*
X107756656Y-69136683D01*
X107760940Y-69138092D01*
X107802479Y-69152627D01*
X107837002Y-69171289D01*
X107861362Y-69189981D01*
X107996008Y-69245753D01*
X108140500Y-69264776D01*
X108284992Y-69245753D01*
X108419638Y-69189981D01*
X108535261Y-69101261D01*
X108623981Y-68985638D01*
X108655039Y-68910654D01*
X108681917Y-68870427D01*
X111498947Y-66053397D01*
X111509310Y-66044137D01*
X111514498Y-66040000D01*
X111537394Y-66021742D01*
X111569833Y-65974159D01*
X111572459Y-65970458D01*
X111606675Y-65924100D01*
X111609532Y-65915934D01*
X111614404Y-65908789D01*
X111631384Y-65853737D01*
X111632798Y-65849440D01*
X111651827Y-65795063D01*
X111652150Y-65786419D01*
X111654700Y-65778154D01*
X111654700Y-65720581D01*
X111654787Y-65715945D01*
X111655731Y-65690703D01*
X111656938Y-65658450D01*
X111655133Y-65651716D01*
X111654700Y-65643997D01*
X111654700Y-64882208D01*
X111664139Y-64834755D01*
X111691019Y-64794527D01*
X112119819Y-64365727D01*
X112169182Y-64335477D01*
X112226898Y-64330935D01*
X112280385Y-64353090D01*
X112317985Y-64397113D01*
X112331500Y-64453408D01*
X112331500Y-67693105D01*
X112330720Y-67706988D01*
X112329707Y-67715983D01*
X112326699Y-67742676D01*
X112328424Y-67751797D01*
X112328425Y-67751805D01*
X112337397Y-67799228D01*
X112338173Y-67803792D01*
X112342717Y-67833933D01*
X112346753Y-67860708D01*
X112350505Y-67868500D01*
X112352114Y-67877000D01*
X112356452Y-67885209D01*
X112356455Y-67885216D01*
X112379017Y-67927905D01*
X112381103Y-67932036D01*
X112406069Y-67983878D01*
X112411950Y-67990216D01*
X112415993Y-67997866D01*
X112422564Y-68004437D01*
X112456708Y-68038581D01*
X112459925Y-68041921D01*
X112499054Y-68084092D01*
X112505092Y-68087578D01*
X112510857Y-68092730D01*
X114355025Y-69936898D01*
X116198813Y-71780685D01*
X116208079Y-71791053D01*
X116224685Y-71811877D01*
X116224687Y-71811879D01*
X116230480Y-71819143D01*
X116278059Y-71851582D01*
X116281802Y-71854237D01*
X116328122Y-71888424D01*
X116336287Y-71891281D01*
X116343433Y-71896153D01*
X116398512Y-71913142D01*
X116402765Y-71914541D01*
X116457159Y-71933575D01*
X116465798Y-71933898D01*
X116474068Y-71936449D01*
X116531651Y-71936449D01*
X116536287Y-71936535D01*
X116593771Y-71938687D01*
X116600504Y-71936882D01*
X116608223Y-71936449D01*
X116636667Y-71936449D01*
X116700416Y-71954091D01*
X116746022Y-72001992D01*
X116771609Y-72049861D01*
X116775475Y-72054572D01*
X116775476Y-72054573D01*
X116870673Y-72170572D01*
X116898510Y-72204491D01*
X117053140Y-72331392D01*
X117229556Y-72425689D01*
X117420979Y-72483756D01*
X117620052Y-72503363D01*
X117819125Y-72483756D01*
X118010548Y-72425689D01*
X118186964Y-72331392D01*
X118341594Y-72204491D01*
X118468495Y-72049861D01*
X118562792Y-71873445D01*
X118620859Y-71682022D01*
X118640466Y-71482949D01*
X118620859Y-71283876D01*
X118562792Y-71092453D01*
X118468495Y-70916037D01*
X118341594Y-70761407D01*
X118224214Y-70665076D01*
X118191670Y-70638368D01*
X118191669Y-70638367D01*
X118186964Y-70634506D01*
X118180319Y-70630954D01*
X118015922Y-70543081D01*
X118015917Y-70543079D01*
X118010548Y-70540209D01*
X117967973Y-70527294D01*
X117824955Y-70483910D01*
X117824950Y-70483909D01*
X117819125Y-70482142D01*
X117813066Y-70481545D01*
X117813060Y-70481544D01*
X117626113Y-70463132D01*
X117620052Y-70462535D01*
X117613991Y-70463132D01*
X117427043Y-70481544D01*
X117427035Y-70481545D01*
X117420979Y-70482142D01*
X117415155Y-70483908D01*
X117415148Y-70483910D01*
X117235387Y-70538440D01*
X117235385Y-70538440D01*
X117229556Y-70540209D01*
X117224189Y-70543077D01*
X117224181Y-70543081D01*
X117058508Y-70631636D01*
X117058502Y-70631639D01*
X117053140Y-70634506D01*
X117048439Y-70638363D01*
X117048433Y-70638368D01*
X116903216Y-70757544D01*
X116903210Y-70757549D01*
X116898510Y-70761407D01*
X116894652Y-70766107D01*
X116894647Y-70766113D01*
X116788645Y-70895277D01*
X116732650Y-70934031D01*
X116664634Y-70937373D01*
X116605111Y-70904293D01*
X115640329Y-69939510D01*
X118437924Y-69939510D01*
X118438617Y-69950794D01*
X118474846Y-70070225D01*
X118479483Y-70081418D01*
X118567710Y-70246479D01*
X118574451Y-70256568D01*
X118693185Y-70401246D01*
X118701754Y-70409815D01*
X118846432Y-70528549D01*
X118856521Y-70535290D01*
X119021582Y-70623517D01*
X119032775Y-70628154D01*
X119152206Y-70664383D01*
X119163490Y-70665076D01*
X119166103Y-70654075D01*
X119666103Y-70654075D01*
X119668715Y-70665076D01*
X119679999Y-70664383D01*
X119799430Y-70628154D01*
X119810623Y-70623517D01*
X119975684Y-70535290D01*
X119985773Y-70528549D01*
X120130451Y-70409815D01*
X120139020Y-70401246D01*
X120257754Y-70256568D01*
X120264495Y-70246479D01*
X120352722Y-70081418D01*
X120357359Y-70070225D01*
X120393588Y-69950794D01*
X120394281Y-69939510D01*
X120383280Y-69936898D01*
X119682429Y-69936898D01*
X119669553Y-69940348D01*
X119666103Y-69953224D01*
X119666103Y-70654075D01*
X119166103Y-70654075D01*
X119166103Y-69953224D01*
X119162652Y-69940348D01*
X119149777Y-69936898D01*
X118448926Y-69936898D01*
X118437924Y-69939510D01*
X115640329Y-69939510D01*
X115135104Y-69434285D01*
X118437924Y-69434285D01*
X118448926Y-69436898D01*
X119149777Y-69436898D01*
X119162652Y-69433447D01*
X119166103Y-69420572D01*
X119666103Y-69420572D01*
X119669553Y-69433447D01*
X119682429Y-69436898D01*
X120383280Y-69436898D01*
X120394281Y-69434285D01*
X120393588Y-69423001D01*
X120357359Y-69303570D01*
X120352722Y-69292377D01*
X120264495Y-69127316D01*
X120257754Y-69117227D01*
X120139020Y-68972549D01*
X120130451Y-68963980D01*
X119985773Y-68845246D01*
X119975684Y-68838505D01*
X119810623Y-68750278D01*
X119799430Y-68745641D01*
X119679999Y-68709412D01*
X119668715Y-68708719D01*
X119666103Y-68719721D01*
X119666103Y-69420572D01*
X119166103Y-69420572D01*
X119166103Y-68719721D01*
X119163490Y-68708719D01*
X119152206Y-68709412D01*
X119032775Y-68745641D01*
X119021582Y-68750278D01*
X118856521Y-68838505D01*
X118846432Y-68845246D01*
X118701754Y-68963980D01*
X118693185Y-68972549D01*
X118574451Y-69117227D01*
X118567710Y-69127316D01*
X118479483Y-69292377D01*
X118474846Y-69303570D01*
X118438617Y-69423001D01*
X118437924Y-69434285D01*
X115135104Y-69434285D01*
X113720081Y-68019262D01*
X113689101Y-67967576D01*
X113686145Y-67907389D01*
X113711909Y-67852916D01*
X113760310Y-67817020D01*
X113809628Y-67796592D01*
X113809629Y-67796591D01*
X113817138Y-67793481D01*
X113823585Y-67788533D01*
X113830624Y-67784470D01*
X113830835Y-67784837D01*
X113858443Y-67770081D01*
X113898302Y-67763500D01*
X114394578Y-67763500D01*
X114408460Y-67764279D01*
X114444149Y-67768301D01*
X114500696Y-67757601D01*
X114505253Y-67756827D01*
X114562181Y-67748247D01*
X114569973Y-67744494D01*
X114578473Y-67742886D01*
X114586690Y-67738543D01*
X114586693Y-67738542D01*
X114629376Y-67715983D01*
X114633508Y-67713896D01*
X114685351Y-67688931D01*
X114691689Y-67683049D01*
X114699339Y-67679007D01*
X114740079Y-67638265D01*
X114743336Y-67635127D01*
X114785565Y-67595946D01*
X114789052Y-67589904D01*
X114794195Y-67584149D01*
X117304657Y-65073687D01*
X118157652Y-65073687D01*
X118158249Y-65079748D01*
X118177009Y-65270222D01*
X118177010Y-65270227D01*
X118177607Y-65276288D01*
X118179374Y-65282113D01*
X118179375Y-65282118D01*
X118234935Y-65465277D01*
X118236703Y-65471104D01*
X118239572Y-65476472D01*
X118239574Y-65476476D01*
X118327136Y-65640292D01*
X118332671Y-65650647D01*
X118336537Y-65655358D01*
X118336538Y-65655359D01*
X118455087Y-65799812D01*
X118461822Y-65808018D01*
X118619193Y-65937169D01*
X118798736Y-66033137D01*
X118993552Y-66092233D01*
X119196153Y-66112188D01*
X119398754Y-66092233D01*
X119593570Y-66033137D01*
X119773113Y-65937169D01*
X119930484Y-65808018D01*
X120059635Y-65650647D01*
X120155603Y-65471104D01*
X120214699Y-65276288D01*
X120234654Y-65073687D01*
X120214699Y-64871086D01*
X120155603Y-64676270D01*
X120059635Y-64496727D01*
X119930484Y-64339356D01*
X119925757Y-64335477D01*
X119777825Y-64214072D01*
X119777824Y-64214071D01*
X119773113Y-64210205D01*
X119767737Y-64207331D01*
X119767735Y-64207330D01*
X119598942Y-64117108D01*
X119598938Y-64117106D01*
X119593570Y-64114237D01*
X119587746Y-64112470D01*
X119587743Y-64112469D01*
X119404584Y-64056909D01*
X119404579Y-64056908D01*
X119398754Y-64055141D01*
X119392693Y-64054544D01*
X119392688Y-64054543D01*
X119202214Y-64035783D01*
X119196153Y-64035186D01*
X119190092Y-64035783D01*
X118999617Y-64054543D01*
X118999610Y-64054544D01*
X118993552Y-64055141D01*
X118987728Y-64056907D01*
X118987721Y-64056909D01*
X118804562Y-64112469D01*
X118804555Y-64112471D01*
X118798736Y-64114237D01*
X118793370Y-64117104D01*
X118793363Y-64117108D01*
X118624570Y-64207330D01*
X118624563Y-64207334D01*
X118619193Y-64210205D01*
X118614485Y-64214068D01*
X118614480Y-64214072D01*
X118466528Y-64335493D01*
X118466523Y-64335497D01*
X118461822Y-64339356D01*
X118457963Y-64344057D01*
X118457959Y-64344062D01*
X118336538Y-64492014D01*
X118336534Y-64492019D01*
X118332671Y-64496727D01*
X118329800Y-64502097D01*
X118329796Y-64502104D01*
X118239574Y-64670897D01*
X118239570Y-64670904D01*
X118236703Y-64676270D01*
X118234937Y-64682089D01*
X118234935Y-64682096D01*
X118179375Y-64865255D01*
X118179373Y-64865262D01*
X118177607Y-64871086D01*
X118177010Y-64877144D01*
X118177009Y-64877151D01*
X118162232Y-65027188D01*
X118157652Y-65073687D01*
X117304657Y-65073687D01*
X119493900Y-62884444D01*
X119504263Y-62875184D01*
X119532347Y-62852789D01*
X119564786Y-62805206D01*
X119567412Y-62801505D01*
X119601628Y-62755147D01*
X119604485Y-62746981D01*
X119609357Y-62739836D01*
X119626337Y-62684784D01*
X119627751Y-62680487D01*
X119646780Y-62626110D01*
X119647103Y-62617466D01*
X119649653Y-62609201D01*
X119649653Y-62551629D01*
X119649740Y-62546993D01*
X119651420Y-62502085D01*
X119651891Y-62489498D01*
X119650086Y-62482764D01*
X119649653Y-62475045D01*
X119649653Y-62115653D01*
X119666266Y-62053653D01*
X119711653Y-62008266D01*
X119773653Y-61991653D01*
X121672235Y-61991653D01*
X121719688Y-62001092D01*
X121759916Y-62027972D01*
X122185868Y-62453923D01*
X122570088Y-62838143D01*
X122632777Y-62880031D01*
X122731687Y-62899705D01*
X122830597Y-62880031D01*
X122893286Y-62838144D01*
X124031677Y-61699752D01*
X124073565Y-61637063D01*
X124093239Y-61538153D01*
X124073565Y-61439243D01*
X124031678Y-61376554D01*
X122893286Y-60238163D01*
X122830597Y-60196275D01*
X122818619Y-60193892D01*
X122818618Y-60193892D01*
X122743667Y-60178984D01*
X122731687Y-60176601D01*
X122632777Y-60196275D01*
X122622623Y-60203059D01*
X122622622Y-60203060D01*
X122575156Y-60234775D01*
X122575151Y-60234778D01*
X122570088Y-60238162D01*
X122565780Y-60242469D01*
X122565775Y-60242474D01*
X121759917Y-61048334D01*
X121719689Y-61075214D01*
X121672236Y-61084653D01*
X119435360Y-61084653D01*
X119387907Y-61075214D01*
X119347679Y-61048334D01*
X118458849Y-60159503D01*
X118426246Y-60101951D01*
X118427870Y-60035825D01*
X118435261Y-60011461D01*
X118446932Y-59972987D01*
X118466887Y-59770386D01*
X118446932Y-59567785D01*
X118387836Y-59372969D01*
X118291868Y-59193426D01*
X118162717Y-59036055D01*
X118005346Y-58906904D01*
X117999970Y-58904030D01*
X117999968Y-58904029D01*
X117831175Y-58813807D01*
X117831171Y-58813805D01*
X117825803Y-58810936D01*
X117819979Y-58809169D01*
X117819976Y-58809168D01*
X117636817Y-58753608D01*
X117636812Y-58753607D01*
X117630987Y-58751840D01*
X117624926Y-58751243D01*
X117624921Y-58751242D01*
X117434447Y-58732482D01*
X117428386Y-58731885D01*
X117422325Y-58732482D01*
X117231850Y-58751242D01*
X117231843Y-58751243D01*
X117225785Y-58751840D01*
X117219961Y-58753606D01*
X117219954Y-58753608D01*
X117036795Y-58809168D01*
X117036788Y-58809170D01*
X117030969Y-58810936D01*
X117025603Y-58813803D01*
X117025596Y-58813807D01*
X116856803Y-58904029D01*
X116856796Y-58904033D01*
X116851426Y-58906904D01*
X116846718Y-58910767D01*
X116846713Y-58910771D01*
X116698761Y-59032192D01*
X116698756Y-59032196D01*
X116694055Y-59036055D01*
X116690196Y-59040756D01*
X116690192Y-59040761D01*
X116568771Y-59188713D01*
X116568767Y-59188718D01*
X116564904Y-59193426D01*
X116562033Y-59198796D01*
X116562029Y-59198803D01*
X116471807Y-59367596D01*
X116471803Y-59367603D01*
X116468936Y-59372969D01*
X116467170Y-59378788D01*
X116467168Y-59378795D01*
X116411608Y-59561954D01*
X116411606Y-59561961D01*
X116409840Y-59567785D01*
X116409243Y-59573843D01*
X116409242Y-59573850D01*
X116392549Y-59743343D01*
X116389885Y-59770386D01*
X116390482Y-59776447D01*
X116409242Y-59966921D01*
X116409243Y-59966926D01*
X116409840Y-59972987D01*
X116411608Y-59978818D01*
X116411610Y-59978824D01*
X116428901Y-60035829D01*
X116430524Y-60101953D01*
X116397921Y-60159503D01*
X115994645Y-60562781D01*
X115954417Y-60589661D01*
X115906964Y-60599100D01*
X113052074Y-60599100D01*
X112992906Y-60584073D01*
X112948078Y-60542635D01*
X112928456Y-60484828D01*
X112938795Y-60424663D01*
X112976587Y-60376724D01*
X112992961Y-60364161D01*
X113081681Y-60248538D01*
X113137453Y-60113892D01*
X113156476Y-59969400D01*
X113137453Y-59824908D01*
X113114797Y-59770211D01*
X113105358Y-59722762D01*
X113114797Y-59675309D01*
X113141677Y-59635080D01*
X114210819Y-58565939D01*
X114215811Y-58557792D01*
X114206521Y-58555562D01*
X112789562Y-58555562D01*
X112727562Y-58538949D01*
X112682175Y-58493562D01*
X112665562Y-58431562D01*
X112665562Y-58039236D01*
X113165562Y-58039236D01*
X113169012Y-58052111D01*
X113181888Y-58055562D01*
X114206521Y-58055562D01*
X114215811Y-58053331D01*
X114210819Y-58045184D01*
X113175939Y-57010304D01*
X113167792Y-57005312D01*
X113165562Y-57014603D01*
X113165562Y-58039236D01*
X112665562Y-58039236D01*
X112665562Y-57014603D01*
X112663331Y-57005312D01*
X112655184Y-57010304D01*
X111555498Y-58109990D01*
X111499911Y-58142084D01*
X111435723Y-58142084D01*
X111380136Y-58109990D01*
X110905830Y-57635684D01*
X110878950Y-57595456D01*
X110873523Y-57568172D01*
X111369511Y-57568172D01*
X111371912Y-57578939D01*
X111382940Y-57579321D01*
X111416193Y-57573105D01*
X111427177Y-57569980D01*
X111606582Y-57500479D01*
X111616795Y-57495393D01*
X111780379Y-57394106D01*
X111789483Y-57387230D01*
X111931663Y-57257617D01*
X111939361Y-57249173D01*
X112055304Y-57095638D01*
X112061311Y-57085935D01*
X112147066Y-56913716D01*
X112151195Y-56903060D01*
X112188101Y-56773349D01*
X112188622Y-56762090D01*
X112177654Y-56759511D01*
X111385837Y-56759511D01*
X111372961Y-56762961D01*
X111369511Y-56775837D01*
X111369511Y-57568172D01*
X110873523Y-57568172D01*
X110869511Y-57548003D01*
X110869511Y-56775837D01*
X110866060Y-56762961D01*
X110853185Y-56759511D01*
X110081019Y-56759511D01*
X110033566Y-56750072D01*
X109993338Y-56723192D01*
X109726539Y-56456393D01*
X113926042Y-56456393D01*
X113927213Y-56472773D01*
X113929164Y-56484377D01*
X113980478Y-56675883D01*
X113984586Y-56686896D01*
X114071218Y-56865238D01*
X114077333Y-56875270D01*
X114196152Y-57033991D01*
X114204060Y-57042691D01*
X114350765Y-57176055D01*
X114360178Y-57183102D01*
X114529470Y-57286290D01*
X114540044Y-57291427D01*
X114725816Y-57360717D01*
X114737164Y-57363757D01*
X114860077Y-57384426D01*
X114871040Y-57383871D01*
X114873406Y-57373152D01*
X114873406Y-57324179D01*
X115373406Y-57324179D01*
X115376212Y-57335311D01*
X115387552Y-57333508D01*
X115541480Y-57267591D01*
X115551806Y-57261953D01*
X115715986Y-57150832D01*
X115725067Y-57143334D01*
X116042251Y-56826150D01*
X116046229Y-56821774D01*
X116140820Y-56707211D01*
X116147409Y-56697476D01*
X116242429Y-56523459D01*
X116247056Y-56512656D01*
X116266028Y-56453304D01*
X116266871Y-56442000D01*
X116255848Y-56439361D01*
X115389732Y-56439361D01*
X115376856Y-56442811D01*
X115373406Y-56455687D01*
X115373406Y-57324179D01*
X114873406Y-57324179D01*
X114873406Y-56455687D01*
X114869955Y-56442811D01*
X114857080Y-56439361D01*
X113941900Y-56439361D01*
X113928780Y-56443044D01*
X113926042Y-56456393D01*
X109726539Y-56456393D01*
X109527077Y-56256931D01*
X110050399Y-56256931D01*
X110061368Y-56259511D01*
X110853185Y-56259511D01*
X110866060Y-56256060D01*
X110869511Y-56243185D01*
X111369511Y-56243185D01*
X111372961Y-56256060D01*
X111385837Y-56259511D01*
X112177654Y-56259511D01*
X112188622Y-56256931D01*
X112188101Y-56245672D01*
X112151195Y-56115961D01*
X112147066Y-56105305D01*
X112063121Y-55936721D01*
X113979940Y-55936721D01*
X113990964Y-55939361D01*
X114857080Y-55939361D01*
X114869955Y-55935910D01*
X114873406Y-55923035D01*
X115373406Y-55923035D01*
X115376856Y-55935910D01*
X115389732Y-55939361D01*
X116304912Y-55939361D01*
X116318031Y-55935677D01*
X116320769Y-55922328D01*
X116319598Y-55905948D01*
X116317647Y-55894344D01*
X116266332Y-55702837D01*
X116262225Y-55691824D01*
X116175593Y-55513484D01*
X116169478Y-55503451D01*
X116050659Y-55344730D01*
X116042751Y-55336030D01*
X115896046Y-55202666D01*
X115886633Y-55195619D01*
X115717341Y-55092431D01*
X115706767Y-55087294D01*
X115520995Y-55018004D01*
X115509647Y-55014964D01*
X115386734Y-54994295D01*
X115375771Y-54994850D01*
X115373406Y-55005570D01*
X115373406Y-55923035D01*
X114873406Y-55923035D01*
X114873406Y-55054543D01*
X114870599Y-55043410D01*
X114859259Y-55045213D01*
X114705331Y-55111130D01*
X114695005Y-55116768D01*
X114530825Y-55227889D01*
X114521744Y-55235387D01*
X114204560Y-55552571D01*
X114200582Y-55556947D01*
X114105991Y-55671510D01*
X114099402Y-55681245D01*
X114004386Y-55855254D01*
X113999754Y-55866070D01*
X113980783Y-55925418D01*
X113979940Y-55936721D01*
X112063121Y-55936721D01*
X112061311Y-55933086D01*
X112055304Y-55923383D01*
X111939361Y-55769848D01*
X111931663Y-55761404D01*
X111789483Y-55631791D01*
X111780379Y-55624915D01*
X111616795Y-55523628D01*
X111606582Y-55518542D01*
X111427177Y-55449041D01*
X111416193Y-55445916D01*
X111382940Y-55439700D01*
X111371912Y-55440082D01*
X111369511Y-55450850D01*
X111369511Y-56243185D01*
X110869511Y-56243185D01*
X110869511Y-55450850D01*
X110867109Y-55440082D01*
X110856081Y-55439700D01*
X110822828Y-55445916D01*
X110811844Y-55449041D01*
X110632439Y-55518542D01*
X110622226Y-55523628D01*
X110458642Y-55624915D01*
X110449538Y-55631791D01*
X110307358Y-55761404D01*
X110299660Y-55769848D01*
X110183717Y-55923383D01*
X110177710Y-55933086D01*
X110091955Y-56105305D01*
X110087826Y-56115961D01*
X110050920Y-56245672D01*
X110050399Y-56256931D01*
X109527077Y-56256931D01*
X108414419Y-55144273D01*
X108387539Y-55104045D01*
X108378100Y-55056592D01*
X108378100Y-54527660D01*
X111892366Y-54527660D01*
X111893628Y-54536437D01*
X111910907Y-54656613D01*
X111912972Y-54670971D01*
X111916656Y-54679038D01*
X111916657Y-54679041D01*
X111969894Y-54795613D01*
X111973118Y-54802672D01*
X112010961Y-54849633D01*
X112927600Y-55766272D01*
X112974561Y-55804115D01*
X113106262Y-55864261D01*
X113249573Y-55884867D01*
X113392884Y-55864261D01*
X113524585Y-55804115D01*
X113571546Y-55766272D01*
X114700317Y-54637501D01*
X114738160Y-54590540D01*
X114798306Y-54458839D01*
X114818912Y-54315528D01*
X114798306Y-54172217D01*
X114738160Y-54040516D01*
X114700317Y-53993555D01*
X113783678Y-53076916D01*
X113736717Y-53039073D01*
X113729659Y-53035849D01*
X113729658Y-53035849D01*
X113613086Y-52982612D01*
X113613083Y-52982611D01*
X113605016Y-52978927D01*
X113596237Y-52977664D01*
X113596235Y-52977664D01*
X113470482Y-52959583D01*
X113461705Y-52958321D01*
X113452928Y-52959583D01*
X113327174Y-52977664D01*
X113327170Y-52977665D01*
X113318394Y-52978927D01*
X113310328Y-52982610D01*
X113310323Y-52982612D01*
X113193751Y-53035849D01*
X113193746Y-53035851D01*
X113186693Y-53039073D01*
X113180653Y-53043939D01*
X113180650Y-53043942D01*
X113142322Y-53074828D01*
X113142312Y-53074836D01*
X113139732Y-53076916D01*
X113137388Y-53079259D01*
X113137379Y-53079268D01*
X112013313Y-54203334D01*
X112013304Y-54203343D01*
X112010961Y-54205687D01*
X112008881Y-54208267D01*
X112008873Y-54208277D01*
X111977987Y-54246605D01*
X111977984Y-54246608D01*
X111973118Y-54252648D01*
X111969896Y-54259701D01*
X111969894Y-54259706D01*
X111916657Y-54376278D01*
X111916655Y-54376283D01*
X111912972Y-54384349D01*
X111911710Y-54393125D01*
X111911709Y-54393129D01*
X111895836Y-54503524D01*
X111892366Y-54527660D01*
X108378100Y-54527660D01*
X108378100Y-53923667D01*
X108393771Y-53863328D01*
X108436822Y-53818240D01*
X108475013Y-53794593D01*
X108592457Y-53721875D01*
X108743590Y-53584098D01*
X108866834Y-53420897D01*
X108957992Y-53237828D01*
X109013958Y-53041126D01*
X109032828Y-52837490D01*
X109013958Y-52633854D01*
X108957992Y-52437152D01*
X108893633Y-52307902D01*
X108869388Y-52259212D01*
X108869387Y-52259211D01*
X108866834Y-52254083D01*
X108789808Y-52152085D01*
X108747042Y-52095453D01*
X108747041Y-52095452D01*
X108743590Y-52090882D01*
X108592457Y-51953105D01*
X108587593Y-51950093D01*
X108587590Y-51950091D01*
X108423451Y-51848461D01*
X108418580Y-51845445D01*
X108413242Y-51843377D01*
X108413238Y-51843375D01*
X108233228Y-51773639D01*
X108233223Y-51773637D01*
X108227881Y-51771568D01*
X108222246Y-51770514D01*
X108222244Y-51770514D01*
X108032484Y-51735042D01*
X108032479Y-51735041D01*
X108026854Y-51733990D01*
X107822346Y-51733990D01*
X107816721Y-51735041D01*
X107816715Y-51735042D01*
X107626955Y-51770514D01*
X107626950Y-51770515D01*
X107621319Y-51771568D01*
X107615978Y-51773636D01*
X107615971Y-51773639D01*
X107435961Y-51843375D01*
X107435952Y-51843379D01*
X107430620Y-51845445D01*
X107425753Y-51848458D01*
X107425748Y-51848461D01*
X107261609Y-51950091D01*
X107261600Y-51950097D01*
X107256743Y-51953105D01*
X107252520Y-51956954D01*
X107252513Y-51956960D01*
X107109842Y-52087023D01*
X107109836Y-52087028D01*
X107105610Y-52090882D01*
X107102163Y-52095445D01*
X107102157Y-52095453D01*
X106985818Y-52249510D01*
X106985811Y-52249520D01*
X106982366Y-52254083D01*
X106979816Y-52259203D01*
X106979811Y-52259212D01*
X106893762Y-52432021D01*
X106893758Y-52432029D01*
X106891208Y-52437152D01*
X106889639Y-52442664D01*
X106889639Y-52442666D01*
X106842916Y-52606883D01*
X106835242Y-52633854D01*
X106834713Y-52639559D01*
X106834713Y-52639561D01*
X106817320Y-52827256D01*
X106816372Y-52837490D01*
X106816901Y-52843199D01*
X106834109Y-53028905D01*
X106835242Y-53041126D01*
X106891208Y-53237828D01*
X106893760Y-53242953D01*
X106893762Y-53242958D01*
X106979811Y-53415767D01*
X106979813Y-53415771D01*
X106982366Y-53420897D01*
X106985815Y-53425464D01*
X106985818Y-53425469D01*
X107066101Y-53531780D01*
X107105610Y-53584098D01*
X107109842Y-53587956D01*
X107229275Y-53696835D01*
X107256743Y-53721875D01*
X107261608Y-53724887D01*
X107261609Y-53724888D01*
X107412378Y-53818240D01*
X107455429Y-53863328D01*
X107471100Y-53923667D01*
X107471100Y-55263378D01*
X107470320Y-55277261D01*
X107468745Y-55291244D01*
X107466299Y-55312949D01*
X107468024Y-55322070D01*
X107468025Y-55322078D01*
X107476997Y-55369501D01*
X107477773Y-55374065D01*
X107486353Y-55430981D01*
X107490105Y-55438773D01*
X107491714Y-55447273D01*
X107496052Y-55455482D01*
X107496055Y-55455489D01*
X107518617Y-55498178D01*
X107520703Y-55502309D01*
X107545669Y-55554151D01*
X107551550Y-55560489D01*
X107555593Y-55568139D01*
X107562164Y-55574709D01*
X107562164Y-55574710D01*
X107596308Y-55608854D01*
X107599525Y-55612194D01*
X107638654Y-55654365D01*
X107644692Y-55657851D01*
X107650457Y-55663003D01*
X107938873Y-55951419D01*
X107969123Y-56000782D01*
X107973665Y-56058498D01*
X107951510Y-56111985D01*
X107907487Y-56149585D01*
X107851192Y-56163100D01*
X99451051Y-56163100D01*
X99403598Y-56153661D01*
X99363370Y-56126781D01*
X99223342Y-55986753D01*
X99130765Y-55894176D01*
X99098673Y-55838591D01*
X99098673Y-55774403D01*
X99130765Y-55718818D01*
X100224991Y-54624593D01*
X100266879Y-54561904D01*
X100286553Y-54462994D01*
X100266879Y-54364084D01*
X100224992Y-54301395D01*
X99984849Y-54061252D01*
X102261243Y-54061252D01*
X102261625Y-54066106D01*
X102276861Y-54259706D01*
X102280070Y-54300474D01*
X102281205Y-54305203D01*
X102281206Y-54305207D01*
X102334950Y-54529068D01*
X102334952Y-54529076D01*
X102336088Y-54533805D01*
X102427917Y-54755501D01*
X102430464Y-54759658D01*
X102430465Y-54759659D01*
X102550749Y-54955944D01*
X102550752Y-54955948D01*
X102553297Y-54960101D01*
X102556459Y-54963803D01*
X102556461Y-54963806D01*
X102666685Y-55092862D01*
X102709139Y-55142570D01*
X102712839Y-55145730D01*
X102831622Y-55247180D01*
X102891608Y-55298412D01*
X102895762Y-55300957D01*
X102895764Y-55300959D01*
X102954843Y-55337163D01*
X103096208Y-55423792D01*
X103317904Y-55515621D01*
X103551235Y-55571639D01*
X103790457Y-55590466D01*
X104029679Y-55571639D01*
X104263010Y-55515621D01*
X104484706Y-55423792D01*
X104689306Y-55298412D01*
X104871775Y-55142570D01*
X105027617Y-54960101D01*
X105152997Y-54755501D01*
X105244826Y-54533805D01*
X105300844Y-54300474D01*
X105319671Y-54061252D01*
X105300844Y-53822030D01*
X105244826Y-53588699D01*
X105152997Y-53367003D01*
X105070458Y-53232313D01*
X105030164Y-53166559D01*
X105030162Y-53166557D01*
X105027617Y-53162403D01*
X105016353Y-53149215D01*
X104874935Y-52983634D01*
X104871775Y-52979934D01*
X104711678Y-52843199D01*
X104693011Y-52827256D01*
X104693008Y-52827254D01*
X104689306Y-52824092D01*
X104685153Y-52821547D01*
X104685149Y-52821544D01*
X104488864Y-52701260D01*
X104488863Y-52701259D01*
X104484706Y-52698712D01*
X104263010Y-52606883D01*
X104258281Y-52605747D01*
X104258273Y-52605745D01*
X104034412Y-52552001D01*
X104034408Y-52552000D01*
X104029679Y-52550865D01*
X104024828Y-52550483D01*
X104024827Y-52550483D01*
X103795311Y-52532420D01*
X103790457Y-52532038D01*
X103785603Y-52532420D01*
X103556086Y-52550483D01*
X103556083Y-52550483D01*
X103551235Y-52550865D01*
X103546507Y-52551999D01*
X103546501Y-52552001D01*
X103322640Y-52605745D01*
X103322628Y-52605748D01*
X103317904Y-52606883D01*
X103313407Y-52608745D01*
X103313403Y-52608747D01*
X103100712Y-52696846D01*
X103100707Y-52696848D01*
X103096208Y-52698712D01*
X103092055Y-52701256D01*
X103092049Y-52701260D01*
X102895764Y-52821544D01*
X102895753Y-52821551D01*
X102891608Y-52824092D01*
X102887911Y-52827249D01*
X102887902Y-52827256D01*
X102712839Y-52976773D01*
X102712832Y-52976779D01*
X102709139Y-52979934D01*
X102705984Y-52983627D01*
X102705978Y-52983634D01*
X102556461Y-53158697D01*
X102556454Y-53158706D01*
X102553297Y-53162403D01*
X102550756Y-53166548D01*
X102550749Y-53166559D01*
X102430465Y-53362844D01*
X102430461Y-53362850D01*
X102427917Y-53367003D01*
X102426053Y-53371502D01*
X102426051Y-53371507D01*
X102337952Y-53584198D01*
X102336088Y-53588699D01*
X102334953Y-53593423D01*
X102334950Y-53593435D01*
X102281206Y-53817296D01*
X102281204Y-53817302D01*
X102280070Y-53822030D01*
X102279688Y-53826878D01*
X102279688Y-53826881D01*
X102263245Y-54035809D01*
X102261243Y-54061252D01*
X99984849Y-54061252D01*
X98987605Y-53064009D01*
X98924916Y-53022121D01*
X98912938Y-53019738D01*
X98912937Y-53019738D01*
X98837986Y-53004830D01*
X98826006Y-53002447D01*
X98727096Y-53022121D01*
X98716942Y-53028905D01*
X98716941Y-53028906D01*
X98669475Y-53060621D01*
X98669470Y-53060624D01*
X98664407Y-53064008D01*
X98660099Y-53068315D01*
X98660094Y-53068320D01*
X97570366Y-54158048D01*
X97510276Y-54191258D01*
X97441728Y-54187408D01*
X97385736Y-54147677D01*
X97370582Y-54128673D01*
X97370578Y-54128669D01*
X97364786Y-54121406D01*
X97317232Y-54088984D01*
X97313453Y-54086303D01*
X97274619Y-54057642D01*
X97267144Y-54052125D01*
X97258978Y-54049267D01*
X97251833Y-54044396D01*
X97242960Y-54041659D01*
X97242958Y-54041658D01*
X97196828Y-54027429D01*
X97192426Y-54025980D01*
X97146871Y-54010040D01*
X97146867Y-54010039D01*
X97138107Y-54006974D01*
X97129467Y-54006650D01*
X97121198Y-54004100D01*
X97111908Y-54004100D01*
X97063615Y-54004100D01*
X97058978Y-54004013D01*
X97010782Y-54002209D01*
X97010778Y-54002209D01*
X97001495Y-54001862D01*
X96994761Y-54003666D01*
X96987043Y-54004100D01*
X96408447Y-54004100D01*
X96360994Y-53994661D01*
X96320766Y-53967781D01*
X95415906Y-53062922D01*
X95411599Y-53058615D01*
X95348910Y-53016727D01*
X95336932Y-53014344D01*
X95336931Y-53014344D01*
X95261980Y-52999436D01*
X95250000Y-52997053D01*
X95151090Y-53016727D01*
X95140936Y-53023511D01*
X95140935Y-53023512D01*
X95093469Y-53055227D01*
X95093464Y-53055230D01*
X95088401Y-53058614D01*
X95084093Y-53062921D01*
X95084088Y-53062926D01*
X93855322Y-54291693D01*
X93855317Y-54291698D01*
X93851015Y-54296001D01*
X93847632Y-54301063D01*
X93847631Y-54301065D01*
X93815911Y-54348536D01*
X93815909Y-54348539D01*
X93809127Y-54358690D01*
X93806744Y-54370665D01*
X93806744Y-54370668D01*
X93796852Y-54420400D01*
X93789453Y-54457600D01*
X91013500Y-54457600D01*
X91013500Y-54194221D01*
X91014280Y-54180337D01*
X91016791Y-54158048D01*
X91018301Y-54144651D01*
X91007593Y-54088058D01*
X91006831Y-54083571D01*
X90998247Y-54026619D01*
X90994494Y-54018826D01*
X90992886Y-54010327D01*
X90965979Y-53959417D01*
X90963893Y-53955284D01*
X90948667Y-53923667D01*
X90938931Y-53903449D01*
X90933048Y-53897109D01*
X90929006Y-53889460D01*
X90888290Y-53848744D01*
X90885100Y-53845433D01*
X90845946Y-53803235D01*
X90845686Y-53803085D01*
X93124216Y-53803085D01*
X93127061Y-53814231D01*
X93138382Y-53812189D01*
X93228647Y-53770967D01*
X93241745Y-53762877D01*
X93279746Y-53732253D01*
X93284694Y-53727808D01*
X93807240Y-53205262D01*
X93811685Y-53200314D01*
X93842309Y-53162313D01*
X93850399Y-53149215D01*
X93891621Y-53058950D01*
X93893663Y-53047629D01*
X93882517Y-53044784D01*
X93140542Y-53044784D01*
X93127666Y-53048234D01*
X93124216Y-53061110D01*
X93124216Y-53803085D01*
X90845686Y-53803085D01*
X90839906Y-53799748D01*
X90834139Y-53794593D01*
X90086560Y-53047014D01*
X91962874Y-53047014D01*
X91967866Y-53055161D01*
X92613838Y-53701133D01*
X92621985Y-53706125D01*
X92624216Y-53696835D01*
X92624216Y-53061110D01*
X92620765Y-53048234D01*
X92607890Y-53044784D01*
X91972165Y-53044784D01*
X91962874Y-53047014D01*
X90086560Y-53047014D01*
X89581484Y-52541938D01*
X91854768Y-52541938D01*
X91865915Y-52544784D01*
X92607890Y-52544784D01*
X92620765Y-52541333D01*
X92624216Y-52528458D01*
X93124216Y-52528458D01*
X93127666Y-52541333D01*
X93140542Y-52544784D01*
X93776267Y-52544784D01*
X93785557Y-52542553D01*
X93780565Y-52534406D01*
X93134593Y-51888434D01*
X93126446Y-51883442D01*
X93124216Y-51892733D01*
X93124216Y-52528458D01*
X92624216Y-52528458D01*
X92624216Y-51786483D01*
X92621370Y-51775336D01*
X92610049Y-51777378D01*
X92519784Y-51818600D01*
X92506686Y-51826690D01*
X92468685Y-51857314D01*
X92463737Y-51861759D01*
X91941191Y-52384305D01*
X91936746Y-52389253D01*
X91906122Y-52427254D01*
X91898032Y-52440352D01*
X91856810Y-52530617D01*
X91854768Y-52541938D01*
X89581484Y-52541938D01*
X89500332Y-52460786D01*
X89491065Y-52450417D01*
X89483096Y-52440424D01*
X89468670Y-52422334D01*
X89421116Y-52389912D01*
X89417337Y-52387231D01*
X89378503Y-52358570D01*
X89371028Y-52353053D01*
X89362862Y-52350195D01*
X89355717Y-52345324D01*
X89346844Y-52342587D01*
X89346842Y-52342586D01*
X89300712Y-52328357D01*
X89296310Y-52326908D01*
X89250755Y-52310968D01*
X89250751Y-52310967D01*
X89241991Y-52307902D01*
X89233351Y-52307578D01*
X89225082Y-52305028D01*
X89215792Y-52305028D01*
X89167499Y-52305028D01*
X89162862Y-52304941D01*
X89114666Y-52303137D01*
X89114662Y-52303137D01*
X89105379Y-52302790D01*
X89098645Y-52304594D01*
X89090927Y-52305028D01*
X88087997Y-52305028D01*
X88074114Y-52304248D01*
X88047656Y-52301267D01*
X88038426Y-52300227D01*
X88029303Y-52301952D01*
X88029299Y-52301953D01*
X87981878Y-52310925D01*
X87977312Y-52311701D01*
X87929577Y-52318896D01*
X87929572Y-52318897D01*
X87920394Y-52320281D01*
X87912601Y-52324033D01*
X87904102Y-52325642D01*
X87895899Y-52329977D01*
X87895894Y-52329979D01*
X87853214Y-52352535D01*
X87849081Y-52354621D01*
X87805595Y-52375564D01*
X87805586Y-52375569D01*
X87797224Y-52379597D01*
X87790885Y-52385478D01*
X87783236Y-52389521D01*
X87776672Y-52396084D01*
X87776669Y-52396087D01*
X87742516Y-52430239D01*
X87739181Y-52433452D01*
X87731745Y-52440352D01*
X87697010Y-52472582D01*
X87693525Y-52478616D01*
X87688368Y-52484387D01*
X83719912Y-56452843D01*
X83709547Y-56462106D01*
X83688729Y-56478708D01*
X83688723Y-56478714D01*
X83681462Y-56484505D01*
X83676231Y-56492176D01*
X83676222Y-56492187D01*
X83649035Y-56532063D01*
X83646354Y-56535842D01*
X83617698Y-56574669D01*
X83617692Y-56574678D01*
X83612181Y-56582147D01*
X83609323Y-56590312D01*
X83604452Y-56597458D01*
X83601715Y-56606328D01*
X83601715Y-56606330D01*
X83587483Y-56652469D01*
X83586034Y-56656871D01*
X83570096Y-56702418D01*
X83570094Y-56702425D01*
X83567030Y-56711184D01*
X83566706Y-56719823D01*
X83564156Y-56728093D01*
X83564156Y-56737379D01*
X83564156Y-56785676D01*
X83564069Y-56790313D01*
X83562265Y-56838508D01*
X83562265Y-56838511D01*
X83561918Y-56847796D01*
X83563722Y-56854529D01*
X83564156Y-56862248D01*
X83564156Y-57854631D01*
X83554717Y-57902084D01*
X83527837Y-57942312D01*
X82822973Y-58647175D01*
X82822960Y-58647188D01*
X82821253Y-58648896D01*
X82798041Y-58676073D01*
X82794989Y-58681624D01*
X82794988Y-58681626D01*
X82725299Y-58808389D01*
X82725295Y-58808396D01*
X82721541Y-58815227D01*
X82719601Y-58822779D01*
X82719600Y-58822784D01*
X82695926Y-58914987D01*
X82682049Y-58969035D01*
X82682049Y-59127830D01*
X82683988Y-59135385D01*
X82683989Y-59135386D01*
X82719289Y-59272870D01*
X82721541Y-59281638D01*
X82725297Y-59288470D01*
X82725299Y-59288475D01*
X82752407Y-59337784D01*
X82798041Y-59420792D01*
X82821253Y-59447969D01*
X83441343Y-60068059D01*
X83468520Y-60091271D01*
X83499893Y-60108518D01*
X83546888Y-60154058D01*
X83564156Y-60217180D01*
X83564156Y-60724087D01*
X83550641Y-60780382D01*
X83513041Y-60824405D01*
X83459554Y-60846560D01*
X83401838Y-60842018D01*
X83352475Y-60811768D01*
X83249029Y-60708322D01*
X83249029Y-60708321D01*
X83244722Y-60704015D01*
X83182033Y-60662127D01*
X83170055Y-60659744D01*
X83170054Y-60659744D01*
X83095103Y-60644836D01*
X83083123Y-60642453D01*
X82984213Y-60662127D01*
X82974059Y-60668911D01*
X82974058Y-60668912D01*
X82926592Y-60700627D01*
X82926587Y-60700630D01*
X82921524Y-60704014D01*
X82917216Y-60708321D01*
X82917211Y-60708326D01*
X81688445Y-61937093D01*
X81688440Y-61937098D01*
X81684138Y-61941401D01*
X81680755Y-61946463D01*
X81680754Y-61946465D01*
X81649034Y-61993936D01*
X81649032Y-61993939D01*
X81642250Y-62004090D01*
X81639867Y-62016065D01*
X81639867Y-62016068D01*
X81631899Y-62056130D01*
X81622576Y-62103000D01*
X81642250Y-62201910D01*
X81684137Y-62264599D01*
X82921524Y-63501985D01*
X82984213Y-63543873D01*
X83083123Y-63563547D01*
X83182033Y-63543873D01*
X83244722Y-63501986D01*
X84315870Y-62430836D01*
X84365233Y-62400587D01*
X84422949Y-62396045D01*
X84476436Y-62418200D01*
X84514036Y-62462223D01*
X84527551Y-62518518D01*
X84527551Y-62903772D01*
X84511880Y-62964111D01*
X84468829Y-63009199D01*
X84318060Y-63102550D01*
X84318051Y-63102556D01*
X84313194Y-63105564D01*
X84308971Y-63109413D01*
X84308964Y-63109419D01*
X84166293Y-63239482D01*
X84166287Y-63239487D01*
X84162061Y-63243341D01*
X84158614Y-63247904D01*
X84158608Y-63247912D01*
X84042269Y-63401969D01*
X84042262Y-63401979D01*
X84038817Y-63406542D01*
X84036267Y-63411662D01*
X84036262Y-63411671D01*
X83950213Y-63584480D01*
X83950209Y-63584488D01*
X83947659Y-63589611D01*
X83946090Y-63595123D01*
X83946090Y-63595125D01*
X83894098Y-63777860D01*
X83891693Y-63786313D01*
X83891164Y-63792018D01*
X83891164Y-63792020D01*
X83876574Y-63949472D01*
X83872823Y-63989949D01*
X83891693Y-64193585D01*
X83947659Y-64390287D01*
X83950211Y-64395412D01*
X83950213Y-64395417D01*
X84036262Y-64568226D01*
X84036264Y-64568230D01*
X84038817Y-64573356D01*
X84042266Y-64577923D01*
X84042269Y-64577928D01*
X84158608Y-64731985D01*
X84162061Y-64736557D01*
X84166293Y-64740415D01*
X84300096Y-64862394D01*
X84313194Y-64874334D01*
X84487071Y-64981994D01*
X84677770Y-65055871D01*
X84878797Y-65093449D01*
X85077576Y-65093449D01*
X85083305Y-65093449D01*
X85284332Y-65055871D01*
X85475031Y-64981994D01*
X85648908Y-64874334D01*
X85800041Y-64736557D01*
X85923285Y-64573356D01*
X86014443Y-64390287D01*
X86020216Y-64369995D01*
X86049962Y-64318126D01*
X86100528Y-64286207D01*
X86160152Y-64281664D01*
X86214967Y-64305553D01*
X86216018Y-64306359D01*
X86252213Y-64334133D01*
X86252215Y-64334134D01*
X86258662Y-64339081D01*
X86330261Y-64368738D01*
X86355641Y-64379251D01*
X86402081Y-64412818D01*
X86428471Y-64463681D01*
X86429176Y-64520978D01*
X86404044Y-64572474D01*
X86401768Y-64575246D01*
X86397464Y-64579551D01*
X86394083Y-64584610D01*
X86394078Y-64584617D01*
X86362361Y-64632085D01*
X86355576Y-64642240D01*
X86353193Y-64654216D01*
X86353193Y-64654218D01*
X86336288Y-64739200D01*
X86317773Y-64783898D01*
X86283562Y-64818109D01*
X86238864Y-64836624D01*
X86153884Y-64853528D01*
X86153879Y-64853529D01*
X86141904Y-64855912D01*
X86131749Y-64862696D01*
X86131747Y-64862698D01*
X86084283Y-64894412D01*
X86084278Y-64894415D01*
X86079215Y-64897799D01*
X86074907Y-64902106D01*
X86074902Y-64902111D01*
X85341111Y-65635903D01*
X85341106Y-65635908D01*
X85336804Y-65640211D01*
X85333421Y-65645273D01*
X85333420Y-65645275D01*
X85303066Y-65690703D01*
X85294916Y-65702900D01*
X85292533Y-65714876D01*
X85292533Y-65714878D01*
X85275628Y-65799860D01*
X85257113Y-65844558D01*
X85222902Y-65878769D01*
X85178204Y-65897284D01*
X85093224Y-65914188D01*
X85093219Y-65914189D01*
X85081244Y-65916572D01*
X85071089Y-65923356D01*
X85071087Y-65923358D01*
X85023623Y-65955072D01*
X85023618Y-65955075D01*
X85018555Y-65958459D01*
X85014247Y-65962766D01*
X85014242Y-65962771D01*
X84280451Y-66696563D01*
X84280446Y-66696568D01*
X84276144Y-66700871D01*
X84272761Y-66705933D01*
X84272760Y-66705935D01*
X84241456Y-66752785D01*
X84234256Y-66763560D01*
X84231873Y-66775536D01*
X84231873Y-66775538D01*
X84214968Y-66860521D01*
X84196453Y-66905219D01*
X84162242Y-66939430D01*
X84117544Y-66957945D01*
X84032564Y-66974849D01*
X84032559Y-66974850D01*
X84020584Y-66977233D01*
X84010429Y-66984017D01*
X84010427Y-66984019D01*
X83962963Y-67015733D01*
X83962958Y-67015736D01*
X83957895Y-67019120D01*
X83953587Y-67023427D01*
X83953582Y-67023432D01*
X83219791Y-67757224D01*
X83219786Y-67757229D01*
X83215484Y-67761532D01*
X83212101Y-67766594D01*
X83212100Y-67766596D01*
X83183112Y-67809980D01*
X83173596Y-67824221D01*
X83171213Y-67836199D01*
X83171213Y-67836200D01*
X83153921Y-67923131D01*
X83151185Y-67922586D01*
X83143516Y-67955478D01*
X83107791Y-67999010D01*
X83056496Y-68022251D01*
X82973266Y-68038806D01*
X82951135Y-68047973D01*
X82904533Y-68079112D01*
X82895161Y-68086803D01*
X82161846Y-68820118D01*
X82154155Y-68829490D01*
X82123016Y-68876092D01*
X82113849Y-68898223D01*
X82112540Y-68904807D01*
X82082800Y-68963889D01*
X82026918Y-68999276D01*
X81960793Y-69000899D01*
X81903242Y-68968296D01*
X81612668Y-68677722D01*
X81583228Y-68630769D01*
X81577183Y-68575680D01*
X81595740Y-68523460D01*
X81632259Y-68487433D01*
X81632608Y-68487274D01*
X81679568Y-68449431D01*
X82419431Y-67709568D01*
X82457274Y-67662608D01*
X82517420Y-67530907D01*
X82538026Y-67387596D01*
X82517420Y-67244284D01*
X82506359Y-67220065D01*
X82495188Y-67171505D01*
X82504035Y-67122468D01*
X82531470Y-67080874D01*
X82637701Y-66974643D01*
X82693286Y-66942551D01*
X82757474Y-66942551D01*
X82813059Y-66974644D01*
X83023401Y-67184985D01*
X83086090Y-67226873D01*
X83185000Y-67246547D01*
X83283910Y-67226873D01*
X83346599Y-67184986D01*
X84583985Y-65947599D01*
X84625873Y-65884910D01*
X84645547Y-65786000D01*
X84625873Y-65687090D01*
X84583986Y-65624401D01*
X83346599Y-64387015D01*
X83283910Y-64345127D01*
X83271932Y-64342744D01*
X83271931Y-64342744D01*
X83196980Y-64327836D01*
X83185000Y-64325453D01*
X83173020Y-64327836D01*
X83100856Y-64342190D01*
X83086090Y-64345127D01*
X83075936Y-64351911D01*
X83075935Y-64351912D01*
X83028469Y-64383627D01*
X83028464Y-64383630D01*
X83023401Y-64387014D01*
X83019093Y-64391321D01*
X83019088Y-64391326D01*
X81790322Y-65620093D01*
X81790317Y-65620098D01*
X81786015Y-65624401D01*
X81782632Y-65629463D01*
X81782631Y-65629465D01*
X81750911Y-65676936D01*
X81750909Y-65676939D01*
X81744127Y-65687090D01*
X81741744Y-65699065D01*
X81741744Y-65699068D01*
X81737925Y-65718270D01*
X81724453Y-65786000D01*
X81744127Y-65884910D01*
X81786014Y-65947599D01*
X81790325Y-65951910D01*
X81790326Y-65951911D01*
X81996353Y-66157938D01*
X82028447Y-66213526D01*
X82028447Y-66277713D01*
X81996354Y-66333298D01*
X81945939Y-66383714D01*
X81901820Y-66427833D01*
X81860225Y-66455269D01*
X81811188Y-66464116D01*
X81762627Y-66452945D01*
X81703432Y-66425911D01*
X81703429Y-66425910D01*
X81695362Y-66422226D01*
X81686583Y-66420963D01*
X81686581Y-66420963D01*
X81560827Y-66402882D01*
X81552050Y-66401620D01*
X81543273Y-66402882D01*
X81417519Y-66420963D01*
X81417515Y-66420964D01*
X81408739Y-66422226D01*
X81400673Y-66425909D01*
X81400668Y-66425911D01*
X81284094Y-66479149D01*
X81284090Y-66479151D01*
X81277038Y-66482372D01*
X81271001Y-66487236D01*
X81270996Y-66487240D01*
X81232671Y-66518125D01*
X81232666Y-66518129D01*
X81230078Y-66520215D01*
X81227733Y-66522559D01*
X81227724Y-66522568D01*
X80492568Y-67257724D01*
X80492559Y-67257733D01*
X80490215Y-67260078D01*
X80488129Y-67262666D01*
X80488125Y-67262671D01*
X80457238Y-67300998D01*
X80457233Y-67301005D01*
X80452372Y-67307038D01*
X80449377Y-67313595D01*
X80410668Y-67352825D01*
X80358450Y-67371377D01*
X80303365Y-67365329D01*
X80256416Y-67335891D01*
X80133940Y-67213415D01*
X80104501Y-67166464D01*
X80098455Y-67111377D01*
X80117009Y-67059158D01*
X80156458Y-67020236D01*
X80169490Y-67012185D01*
X80207504Y-66981552D01*
X80212430Y-66977127D01*
X80911603Y-66277954D01*
X80916595Y-66269807D01*
X80907305Y-66267577D01*
X79861577Y-66267577D01*
X79799577Y-66250964D01*
X79754190Y-66205577D01*
X79737577Y-66143577D01*
X79737577Y-65097849D01*
X79735346Y-65088558D01*
X79727199Y-65093550D01*
X79375234Y-65445516D01*
X79325871Y-65475766D01*
X79268155Y-65480308D01*
X79214668Y-65458153D01*
X79177068Y-65414130D01*
X79163553Y-65357835D01*
X79163553Y-64201165D01*
X79177068Y-64144870D01*
X79214668Y-64100847D01*
X79268155Y-64078692D01*
X79325871Y-64083234D01*
X79375234Y-64113484D01*
X79853187Y-64591437D01*
X80201258Y-64939507D01*
X80228138Y-64979735D01*
X80237577Y-65027188D01*
X80237577Y-65751251D01*
X80241027Y-65764126D01*
X80253903Y-65767577D01*
X80785837Y-65767577D01*
X80833289Y-65777016D01*
X80850433Y-65784117D01*
X80895837Y-65802924D01*
X81040329Y-65821947D01*
X81184821Y-65802924D01*
X81319467Y-65747152D01*
X81435090Y-65658432D01*
X81523810Y-65542809D01*
X81579582Y-65408163D01*
X81598605Y-65263671D01*
X81579582Y-65119179D01*
X81574592Y-65107134D01*
X81566341Y-65042550D01*
X81591949Y-64982687D01*
X81644356Y-64944051D01*
X81781052Y-64891096D01*
X81954929Y-64783436D01*
X82106062Y-64645659D01*
X82229306Y-64482458D01*
X82320464Y-64299389D01*
X82376430Y-64102687D01*
X82395300Y-63899051D01*
X82376430Y-63695415D01*
X82320464Y-63498713D01*
X82229306Y-63315644D01*
X82221294Y-63305035D01*
X82109514Y-63157014D01*
X82109513Y-63157013D01*
X82106062Y-63152443D01*
X82054639Y-63105564D01*
X81959158Y-63018521D01*
X81959156Y-63018519D01*
X81954929Y-63014666D01*
X81950065Y-63011654D01*
X81950062Y-63011652D01*
X81785923Y-62910022D01*
X81781052Y-62907006D01*
X81775714Y-62904938D01*
X81775710Y-62904936D01*
X81595700Y-62835200D01*
X81595695Y-62835198D01*
X81590353Y-62833129D01*
X81584718Y-62832075D01*
X81584716Y-62832075D01*
X81394956Y-62796603D01*
X81394951Y-62796602D01*
X81389326Y-62795551D01*
X81184818Y-62795551D01*
X81179193Y-62796602D01*
X81179187Y-62796603D01*
X80989427Y-62832075D01*
X80989422Y-62832076D01*
X80983791Y-62833129D01*
X80978450Y-62835197D01*
X80978443Y-62835200D01*
X80798433Y-62904936D01*
X80798424Y-62904940D01*
X80793092Y-62907006D01*
X80788225Y-62910019D01*
X80788220Y-62910022D01*
X80624081Y-63011652D01*
X80624072Y-63011658D01*
X80619215Y-63014666D01*
X80614992Y-63018515D01*
X80614985Y-63018521D01*
X80472314Y-63148584D01*
X80472308Y-63148589D01*
X80468082Y-63152443D01*
X80464635Y-63157006D01*
X80464629Y-63157014D01*
X80348290Y-63311071D01*
X80348283Y-63311081D01*
X80344838Y-63315644D01*
X80342288Y-63320764D01*
X80342283Y-63320773D01*
X80256234Y-63493582D01*
X80256230Y-63493590D01*
X80253680Y-63498713D01*
X80252114Y-63504214D01*
X80252111Y-63504224D01*
X80202142Y-63679849D01*
X80169538Y-63734602D01*
X80114046Y-63765932D01*
X80050321Y-63765564D01*
X79995195Y-63733595D01*
X79880840Y-63619240D01*
X79853960Y-63579012D01*
X79844521Y-63531559D01*
X79844521Y-63234410D01*
X79854329Y-63186077D01*
X79882200Y-63145389D01*
X79923726Y-63118784D01*
X79979653Y-63097117D01*
X79979654Y-63097116D01*
X79985001Y-63095045D01*
X80158878Y-62987385D01*
X80310011Y-62849608D01*
X80433255Y-62686407D01*
X80524413Y-62503338D01*
X80580379Y-62306636D01*
X80599249Y-62103000D01*
X80580379Y-61899364D01*
X80524413Y-61702662D01*
X80447571Y-61548343D01*
X80435809Y-61524722D01*
X80435808Y-61524721D01*
X80433255Y-61519593D01*
X80428214Y-61512918D01*
X80313463Y-61360963D01*
X80313462Y-61360962D01*
X80310011Y-61356392D01*
X80304658Y-61351512D01*
X80163107Y-61222470D01*
X80163105Y-61222468D01*
X80158878Y-61218615D01*
X80154014Y-61215603D01*
X80154011Y-61215601D01*
X79989872Y-61113971D01*
X79985001Y-61110955D01*
X79979663Y-61108887D01*
X79979659Y-61108885D01*
X79799649Y-61039149D01*
X79799644Y-61039147D01*
X79794302Y-61037078D01*
X79788667Y-61036024D01*
X79788665Y-61036024D01*
X79598905Y-61000552D01*
X79598900Y-61000551D01*
X79593275Y-60999500D01*
X79388767Y-60999500D01*
X79383144Y-61000551D01*
X79383134Y-61000552D01*
X79195497Y-61035627D01*
X79133306Y-61031310D01*
X79081076Y-60997276D01*
X79052007Y-60942128D01*
X79053447Y-60879804D01*
X79085030Y-60826059D01*
X79952017Y-59959071D01*
X79970216Y-59944293D01*
X79971195Y-59943391D01*
X79979802Y-59937769D01*
X79998276Y-59914031D01*
X80001497Y-59910065D01*
X80004112Y-59906976D01*
X80007747Y-59903343D01*
X80009394Y-59901035D01*
X80063851Y-59864061D01*
X80130290Y-59860519D01*
X80188996Y-59891829D01*
X80223068Y-59948976D01*
X80222697Y-60015505D01*
X80197714Y-60103313D01*
X80197185Y-60109018D01*
X80197185Y-60109020D01*
X80184326Y-60247787D01*
X80178844Y-60306949D01*
X80179373Y-60312658D01*
X80190431Y-60431996D01*
X80197714Y-60510585D01*
X80253680Y-60707287D01*
X80256232Y-60712412D01*
X80256234Y-60712417D01*
X80342283Y-60885226D01*
X80342285Y-60885230D01*
X80344838Y-60890356D01*
X80348287Y-60894923D01*
X80348290Y-60894928D01*
X80464629Y-61048985D01*
X80468082Y-61053557D01*
X80472314Y-61057415D01*
X80600302Y-61174093D01*
X80619215Y-61191334D01*
X80624080Y-61194346D01*
X80624081Y-61194347D01*
X80658408Y-61215601D01*
X80793092Y-61298994D01*
X80983791Y-61372871D01*
X81184818Y-61410449D01*
X81383597Y-61410449D01*
X81389326Y-61410449D01*
X81590353Y-61372871D01*
X81781052Y-61298994D01*
X81954929Y-61191334D01*
X82106062Y-61053557D01*
X82229306Y-60890356D01*
X82320464Y-60707287D01*
X82376430Y-60510585D01*
X82395300Y-60306949D01*
X82376430Y-60103313D01*
X82320464Y-59906611D01*
X82236057Y-59737100D01*
X82231860Y-59728671D01*
X82231859Y-59728670D01*
X82229306Y-59723542D01*
X82191576Y-59673580D01*
X82109514Y-59564912D01*
X82109513Y-59564911D01*
X82106062Y-59560341D01*
X82052592Y-59511596D01*
X81959158Y-59426419D01*
X81959156Y-59426417D01*
X81954929Y-59422564D01*
X81950065Y-59419552D01*
X81950062Y-59419550D01*
X81785923Y-59317920D01*
X81781052Y-59314904D01*
X81775714Y-59312836D01*
X81775710Y-59312834D01*
X81595700Y-59243098D01*
X81595695Y-59243096D01*
X81590353Y-59241027D01*
X81584718Y-59239973D01*
X81584716Y-59239973D01*
X81394956Y-59204501D01*
X81394951Y-59204500D01*
X81389326Y-59203449D01*
X81184818Y-59203449D01*
X81179193Y-59204500D01*
X81179187Y-59204501D01*
X80989427Y-59239973D01*
X80989422Y-59239974D01*
X80983791Y-59241027D01*
X80978450Y-59243095D01*
X80978443Y-59243098D01*
X80798433Y-59312834D01*
X80798424Y-59312838D01*
X80793092Y-59314904D01*
X80788225Y-59317917D01*
X80788220Y-59317920D01*
X80624081Y-59419550D01*
X80624072Y-59419556D01*
X80619215Y-59422564D01*
X80614992Y-59426413D01*
X80614985Y-59426419D01*
X80472314Y-59556482D01*
X80472308Y-59556487D01*
X80468082Y-59560341D01*
X80464633Y-59564907D01*
X80464633Y-59564908D01*
X80405847Y-59642753D01*
X80351405Y-59683760D01*
X80283515Y-59689801D01*
X80222688Y-59659050D01*
X80187302Y-59600798D01*
X80188047Y-59532647D01*
X80193594Y-59514014D01*
X80195125Y-59509234D01*
X80211100Y-59462703D01*
X80211100Y-59455215D01*
X80213235Y-59448044D01*
X80211206Y-59398983D01*
X80211100Y-59393859D01*
X80211100Y-59374993D01*
X80213518Y-59351672D01*
X80213573Y-59350336D01*
X80215682Y-59340280D01*
X80211963Y-59310444D01*
X80211434Y-59305346D01*
X80211100Y-59301315D01*
X80211100Y-59296177D01*
X80207902Y-59277012D01*
X80207163Y-59271939D01*
X80203568Y-59243098D01*
X80201089Y-59223209D01*
X80197802Y-59216485D01*
X80196570Y-59209102D01*
X80190391Y-59197686D01*
X80188626Y-59191174D01*
X80188342Y-59190344D01*
X80188396Y-59190325D01*
X80175512Y-59142786D01*
X80186714Y-59087015D01*
X80221637Y-59042116D01*
X80256145Y-59014308D01*
X80625385Y-58645067D01*
X80665613Y-58618188D01*
X80713066Y-58608749D01*
X80960631Y-58608749D01*
X81000490Y-58615330D01*
X81028097Y-58630086D01*
X81028309Y-58629719D01*
X81035347Y-58633782D01*
X81041795Y-58638730D01*
X81176441Y-58694502D01*
X81320933Y-58713525D01*
X81465425Y-58694502D01*
X81600071Y-58638730D01*
X81715694Y-58550010D01*
X81804414Y-58434387D01*
X81860186Y-58299741D01*
X81879209Y-58155249D01*
X81860186Y-58010757D01*
X81804414Y-57876111D01*
X81715694Y-57760488D01*
X81698629Y-57747394D01*
X81606518Y-57676715D01*
X81600071Y-57671768D01*
X81572317Y-57660272D01*
X81472934Y-57619106D01*
X81472931Y-57619105D01*
X81465425Y-57615996D01*
X81457371Y-57614935D01*
X81457365Y-57614934D01*
X81328992Y-57598034D01*
X81320933Y-57596973D01*
X81312874Y-57598034D01*
X81184500Y-57614934D01*
X81184492Y-57614935D01*
X81176441Y-57615996D01*
X81168936Y-57619104D01*
X81168931Y-57619106D01*
X81049302Y-57668658D01*
X81049298Y-57668659D01*
X81041795Y-57671768D01*
X81035348Y-57676714D01*
X81028309Y-57680779D01*
X81028097Y-57680411D01*
X81000490Y-57695168D01*
X80960631Y-57701749D01*
X80694355Y-57701749D01*
X80646902Y-57692310D01*
X80606674Y-57665430D01*
X80081721Y-57140477D01*
X80079368Y-57138124D01*
X80032408Y-57100281D01*
X80025350Y-57097058D01*
X80025349Y-57097057D01*
X79908771Y-57043818D01*
X79908766Y-57043816D01*
X79900707Y-57040136D01*
X79891931Y-57038874D01*
X79766173Y-57020792D01*
X79757396Y-57019530D01*
X79748619Y-57020792D01*
X79622859Y-57038874D01*
X79622857Y-57038874D01*
X79614084Y-57040136D01*
X79606025Y-57043815D01*
X79606019Y-57043818D01*
X79489441Y-57097057D01*
X79489436Y-57097059D01*
X79482383Y-57100281D01*
X79476340Y-57105150D01*
X79476338Y-57105152D01*
X79438016Y-57136034D01*
X79438011Y-57136038D01*
X79435423Y-57138124D01*
X79433078Y-57140468D01*
X79433069Y-57140477D01*
X79312957Y-57260590D01*
X79263594Y-57290840D01*
X79205878Y-57295382D01*
X79152391Y-57273227D01*
X79114791Y-57229204D01*
X79101276Y-57172909D01*
X79101276Y-56993108D01*
X79110715Y-56945655D01*
X79134633Y-56909858D01*
X79134761Y-56909761D01*
X79223481Y-56794138D01*
X79279253Y-56659492D01*
X79280314Y-56651432D01*
X79282417Y-56643584D01*
X79282826Y-56643693D01*
X79291913Y-56613738D01*
X79315442Y-56580902D01*
X79625069Y-56271275D01*
X79680029Y-56239353D01*
X79743583Y-56238854D01*
X79810170Y-56255951D01*
X79961164Y-56255951D01*
X79968965Y-56255951D01*
X80122773Y-56216459D01*
X80261927Y-56139959D01*
X80289104Y-56116747D01*
X81262747Y-55143104D01*
X81285959Y-55115927D01*
X81362459Y-54976773D01*
X81401951Y-54822965D01*
X81401951Y-54664170D01*
X81362459Y-54510362D01*
X81285959Y-54371208D01*
X81262747Y-54344031D01*
X80642657Y-53723941D01*
X80615480Y-53700729D01*
X80568333Y-53674810D01*
X80483163Y-53627987D01*
X80483158Y-53627985D01*
X80476326Y-53624229D01*
X80468770Y-53622289D01*
X80468768Y-53622288D01*
X80330074Y-53586677D01*
X80330073Y-53586676D01*
X80322518Y-53584737D01*
X80163723Y-53584737D01*
X80156168Y-53586676D01*
X80156166Y-53586677D01*
X80017472Y-53622288D01*
X80017467Y-53622289D01*
X80009915Y-53624229D01*
X80003084Y-53627983D01*
X80003077Y-53627987D01*
X79877844Y-53696835D01*
X79870761Y-53700729D01*
X79865943Y-53704843D01*
X79865943Y-53704844D01*
X79845431Y-53722363D01*
X79845424Y-53722369D01*
X79843584Y-53723941D01*
X79841876Y-53725648D01*
X79841863Y-53725661D01*
X78871660Y-54695864D01*
X78871647Y-54695877D01*
X78869941Y-54697584D01*
X78846729Y-54724761D01*
X78843677Y-54730312D01*
X78843676Y-54730314D01*
X78773987Y-54857077D01*
X78773983Y-54857084D01*
X78770229Y-54863915D01*
X78768289Y-54871467D01*
X78768288Y-54871472D01*
X78739496Y-54983610D01*
X78730737Y-55017723D01*
X78730737Y-55176518D01*
X78732676Y-55184073D01*
X78732677Y-55184074D01*
X78765065Y-55310216D01*
X78770229Y-55330326D01*
X78773985Y-55337158D01*
X78773987Y-55337163D01*
X78794792Y-55375007D01*
X78846729Y-55469480D01*
X78850842Y-55474295D01*
X78850843Y-55474297D01*
X78850851Y-55474306D01*
X78850854Y-55474313D01*
X78854447Y-55479511D01*
X78853679Y-55480041D01*
X78877851Y-55529056D01*
X78875455Y-55590056D01*
X78844242Y-55642519D01*
X78532830Y-55953931D01*
X78514628Y-55968713D01*
X78513641Y-55969620D01*
X78505046Y-55975237D01*
X78498738Y-55983340D01*
X78498738Y-55983341D01*
X78486598Y-55998938D01*
X78483373Y-56002909D01*
X78480715Y-56006046D01*
X78477100Y-56009663D01*
X78474128Y-56013824D01*
X78474122Y-56013832D01*
X78473002Y-56015401D01*
X78471317Y-56017144D01*
X78470813Y-56017740D01*
X78470773Y-56017706D01*
X78447580Y-56041710D01*
X78351685Y-56115292D01*
X78351681Y-56115295D01*
X78345239Y-56120239D01*
X78340295Y-56126681D01*
X78340292Y-56126685D01*
X78261466Y-56229414D01*
X78261463Y-56229417D01*
X78256519Y-56235862D01*
X78253410Y-56243365D01*
X78253409Y-56243369D01*
X78203857Y-56362998D01*
X78203855Y-56363003D01*
X78200747Y-56370508D01*
X78199686Y-56378559D01*
X78199685Y-56378567D01*
X78185739Y-56484505D01*
X78181724Y-56515000D01*
X78182785Y-56523059D01*
X78199685Y-56651432D01*
X78199686Y-56651438D01*
X78200747Y-56659492D01*
X78203856Y-56666998D01*
X78203857Y-56667001D01*
X78253014Y-56785676D01*
X78256519Y-56794138D01*
X78345239Y-56909761D01*
X78351685Y-56914707D01*
X78357434Y-56920456D01*
X78355658Y-56922231D01*
X78381478Y-56953673D01*
X78394276Y-57008538D01*
X78394276Y-58166123D01*
X78391857Y-58189443D01*
X78391801Y-58190785D01*
X78389694Y-58200836D01*
X78390964Y-58211025D01*
X78390964Y-58211030D01*
X78393412Y-58230664D01*
X78393940Y-58235761D01*
X78394276Y-58239818D01*
X78394276Y-58244939D01*
X78395118Y-58249986D01*
X78395119Y-58249997D01*
X78397470Y-58264088D01*
X78398207Y-58269148D01*
X78403014Y-58307709D01*
X78403016Y-58307718D01*
X78404287Y-58317907D01*
X78407095Y-58323652D01*
X78408222Y-58328520D01*
X78408473Y-58330021D01*
X78401978Y-58394797D01*
X78363564Y-58447356D01*
X78303818Y-58473211D01*
X78174292Y-58491833D01*
X78157445Y-58496780D01*
X78041782Y-58549600D01*
X78028686Y-58557690D01*
X77990685Y-58588314D01*
X77985737Y-58592759D01*
X77463191Y-59115305D01*
X77458746Y-59120253D01*
X77428122Y-59158254D01*
X77420032Y-59171352D01*
X77378810Y-59261617D01*
X77376768Y-59272938D01*
X77387915Y-59275784D01*
X78522216Y-59275784D01*
X78584216Y-59292397D01*
X78629603Y-59337784D01*
X78646216Y-59399784D01*
X78646216Y-59651784D01*
X78629603Y-59713784D01*
X78584216Y-59759171D01*
X78522216Y-59775784D01*
X77494165Y-59775784D01*
X77484874Y-59778014D01*
X77489866Y-59786161D01*
X78148308Y-60444603D01*
X78180402Y-60500190D01*
X78180402Y-60564377D01*
X78148308Y-60619965D01*
X77726074Y-61042200D01*
X77707872Y-61056982D01*
X77706887Y-61057887D01*
X77698291Y-61063505D01*
X77691983Y-61071608D01*
X77691983Y-61071609D01*
X77679843Y-61087206D01*
X77676618Y-61091177D01*
X77673959Y-61094315D01*
X77670345Y-61097931D01*
X77667375Y-61102090D01*
X77667365Y-61102102D01*
X77659053Y-61113742D01*
X77656001Y-61117834D01*
X77632133Y-61148501D01*
X77632126Y-61148513D01*
X77625828Y-61156606D01*
X77623397Y-61163684D01*
X77619048Y-61169777D01*
X77616120Y-61179611D01*
X77616119Y-61179614D01*
X77605038Y-61216836D01*
X77603475Y-61221715D01*
X77590857Y-61258471D01*
X77590856Y-61258475D01*
X77587521Y-61268191D01*
X77587521Y-61275678D01*
X77585386Y-61282850D01*
X77585810Y-61293111D01*
X77585810Y-61293115D01*
X77587415Y-61331911D01*
X77587521Y-61337035D01*
X77587521Y-62752576D01*
X77585102Y-62775896D01*
X77585046Y-62777238D01*
X77582939Y-62787289D01*
X77584209Y-62797478D01*
X77584209Y-62797483D01*
X77586657Y-62817117D01*
X77587185Y-62822214D01*
X77587521Y-62826271D01*
X77587521Y-62831392D01*
X77588363Y-62836439D01*
X77588364Y-62836450D01*
X77590715Y-62850541D01*
X77591452Y-62855601D01*
X77596259Y-62894162D01*
X77596261Y-62894171D01*
X77597532Y-62904360D01*
X77600818Y-62911083D01*
X77602051Y-62918467D01*
X77625439Y-62961686D01*
X77627768Y-62966210D01*
X77649347Y-63010350D01*
X77654642Y-63015645D01*
X77658203Y-63022225D01*
X77665765Y-63029186D01*
X77694324Y-63055477D01*
X77698022Y-63059025D01*
X78420234Y-63781237D01*
X78447114Y-63821465D01*
X78456553Y-63868918D01*
X78456553Y-66339930D01*
X78454134Y-66363250D01*
X78454078Y-66364592D01*
X78451971Y-66374643D01*
X78453241Y-66384832D01*
X78453241Y-66384837D01*
X78455689Y-66404471D01*
X78456217Y-66409568D01*
X78456553Y-66413625D01*
X78456553Y-66418746D01*
X78457395Y-66423793D01*
X78457396Y-66423804D01*
X78459747Y-66437895D01*
X78460484Y-66442955D01*
X78465291Y-66481516D01*
X78465293Y-66481525D01*
X78466564Y-66491714D01*
X78469850Y-66498437D01*
X78471083Y-66505821D01*
X78494471Y-66549040D01*
X78496800Y-66553564D01*
X78518379Y-66597704D01*
X78523674Y-66602999D01*
X78527235Y-66609579D01*
X78534797Y-66616540D01*
X78563356Y-66642831D01*
X78567054Y-66646379D01*
X79655181Y-67734506D01*
X79682061Y-67774734D01*
X79691500Y-67822187D01*
X79691500Y-68876904D01*
X79689081Y-68900224D01*
X79689025Y-68901566D01*
X79686918Y-68911617D01*
X79688188Y-68921806D01*
X79688188Y-68921811D01*
X79690636Y-68941445D01*
X79691164Y-68946542D01*
X79691500Y-68950599D01*
X79691500Y-68955720D01*
X79692342Y-68960767D01*
X79692343Y-68960778D01*
X79694694Y-68974869D01*
X79695431Y-68979929D01*
X79700238Y-69018490D01*
X79700240Y-69018499D01*
X79701511Y-69028688D01*
X79704797Y-69035411D01*
X79706030Y-69042795D01*
X79729418Y-69086014D01*
X79731750Y-69090544D01*
X79746005Y-69119704D01*
X79753326Y-69134678D01*
X79758621Y-69139973D01*
X79762182Y-69146553D01*
X79789053Y-69171290D01*
X79798303Y-69179805D01*
X79802001Y-69183353D01*
X80165991Y-69547343D01*
X80180771Y-69565543D01*
X80181678Y-69566529D01*
X80187298Y-69575130D01*
X80195404Y-69581439D01*
X80195406Y-69581441D01*
X80211020Y-69593594D01*
X80215005Y-69596830D01*
X80218097Y-69599449D01*
X80221724Y-69603076D01*
X80225895Y-69606054D01*
X80225896Y-69606055D01*
X80237549Y-69614376D01*
X80241652Y-69617436D01*
X80280399Y-69647593D01*
X80287477Y-69650023D01*
X80293570Y-69654373D01*
X80303418Y-69657304D01*
X80303419Y-69657305D01*
X80340640Y-69668385D01*
X80345517Y-69669947D01*
X80391984Y-69685900D01*
X80399471Y-69685900D01*
X80406643Y-69688035D01*
X80455714Y-69686005D01*
X80460837Y-69685900D01*
X80721107Y-69685900D01*
X80768560Y-69695339D01*
X80808788Y-69722219D01*
X81291830Y-70205260D01*
X81318710Y-70245488D01*
X81328149Y-70292941D01*
X81328149Y-71379624D01*
X81325730Y-71402944D01*
X81325674Y-71404286D01*
X81323567Y-71414337D01*
X81324837Y-71424526D01*
X81324837Y-71424531D01*
X81327285Y-71444165D01*
X81327813Y-71449262D01*
X81328149Y-71453319D01*
X81328149Y-71458440D01*
X81328991Y-71463487D01*
X81328992Y-71463498D01*
X81331343Y-71477589D01*
X81332080Y-71482649D01*
X81336887Y-71521210D01*
X81336889Y-71521219D01*
X81338160Y-71531408D01*
X81341446Y-71538131D01*
X81342679Y-71545515D01*
X81366067Y-71588734D01*
X81368396Y-71593258D01*
X81389975Y-71637398D01*
X81395270Y-71642693D01*
X81398831Y-71649273D01*
X81406393Y-71656234D01*
X81434952Y-71682525D01*
X81438650Y-71686073D01*
X89192662Y-79440085D01*
X89224446Y-79494537D01*
X89225344Y-79557580D01*
X89195124Y-79612915D01*
X89141599Y-79646236D01*
X89078607Y-79648929D01*
X89022434Y-79620297D01*
X84414654Y-75509667D01*
X84408913Y-75504206D01*
X83844492Y-74931885D01*
X82652373Y-73723081D01*
X82646614Y-73716826D01*
X81173822Y-72002781D01*
X81167105Y-71994230D01*
X79958006Y-70307417D01*
X79950986Y-70296448D01*
X79943772Y-70283755D01*
X79466445Y-69443862D01*
X78984557Y-68595944D01*
X78978211Y-68583104D01*
X78233313Y-66827283D01*
X78228487Y-66813787D01*
X78135899Y-66498437D01*
X77684362Y-64960525D01*
X77681355Y-64947851D01*
X77679387Y-64937064D01*
X77317871Y-62955102D01*
X77316394Y-62944360D01*
X77316083Y-62941026D01*
X77113923Y-60771437D01*
X77113397Y-60761357D01*
X77113371Y-60759077D01*
X77089580Y-58681068D01*
X77090222Y-58666996D01*
X77278998Y-56831347D01*
X77281974Y-56814267D01*
X77696461Y-55139677D01*
X77702078Y-55122482D01*
X78356170Y-53525816D01*
X78364669Y-53508889D01*
X79181465Y-52152085D01*
X91473216Y-52152085D01*
X91476061Y-52163231D01*
X91487382Y-52161189D01*
X91577647Y-52119967D01*
X91590745Y-52111877D01*
X91628746Y-52081253D01*
X91633694Y-52076808D01*
X92156240Y-51554262D01*
X92160685Y-51549314D01*
X92191309Y-51511313D01*
X92199399Y-51498215D01*
X92240621Y-51407950D01*
X92242663Y-51396629D01*
X92231517Y-51393784D01*
X91489542Y-51393784D01*
X91476666Y-51397234D01*
X91473216Y-51410110D01*
X91473216Y-52152085D01*
X79181465Y-52152085D01*
X79400716Y-51787881D01*
X79413943Y-51769828D01*
X79467915Y-51708617D01*
X79743549Y-51396014D01*
X90311874Y-51396014D01*
X90316866Y-51404161D01*
X90962838Y-52050133D01*
X90970985Y-52055125D01*
X90973216Y-52045835D01*
X90973216Y-51410110D01*
X90969765Y-51397234D01*
X90956890Y-51393784D01*
X90321165Y-51393784D01*
X90311874Y-51396014D01*
X79743549Y-51396014D01*
X79866275Y-51256828D01*
X93267098Y-51256828D01*
X93268360Y-51265605D01*
X93280769Y-51351911D01*
X93287704Y-51400139D01*
X93291384Y-51408198D01*
X93291386Y-51408203D01*
X93344625Y-51524781D01*
X93347849Y-51531840D01*
X93385692Y-51578800D01*
X94090200Y-52283308D01*
X94137160Y-52321151D01*
X94268861Y-52381296D01*
X94412172Y-52401902D01*
X94555484Y-52381296D01*
X94687185Y-52321151D01*
X94734145Y-52283308D01*
X95261876Y-51755577D01*
X95299719Y-51708617D01*
X95359864Y-51576916D01*
X95380470Y-51433604D01*
X95359864Y-51290293D01*
X95353275Y-51275864D01*
X95342741Y-51211464D01*
X95366362Y-51150633D01*
X95417596Y-51110219D01*
X95482254Y-51101413D01*
X95504000Y-51104276D01*
X95648492Y-51085253D01*
X95783138Y-51029481D01*
X95898761Y-50940761D01*
X95987481Y-50825138D01*
X96043253Y-50690492D01*
X96062276Y-50546000D01*
X96043253Y-50401508D01*
X95987481Y-50266862D01*
X95898761Y-50151239D01*
X95783138Y-50062519D01*
X95775630Y-50059409D01*
X95656001Y-50009857D01*
X95655998Y-50009856D01*
X95648492Y-50006747D01*
X95640438Y-50005686D01*
X95640432Y-50005685D01*
X95512059Y-49988785D01*
X95504000Y-49987724D01*
X95495941Y-49988785D01*
X95367567Y-50005685D01*
X95367559Y-50005686D01*
X95359508Y-50006747D01*
X95352003Y-50009855D01*
X95351998Y-50009857D01*
X95232369Y-50059409D01*
X95232365Y-50059410D01*
X95224862Y-50062519D01*
X95218415Y-50067465D01*
X95211376Y-50071530D01*
X95210856Y-50070630D01*
X95178402Y-50086820D01*
X95131315Y-50090568D01*
X95115081Y-50088739D01*
X95105851Y-50087699D01*
X95096728Y-50089424D01*
X95096724Y-50089425D01*
X95049303Y-50098397D01*
X95044737Y-50099173D01*
X94997002Y-50106368D01*
X94996997Y-50106369D01*
X94987819Y-50107753D01*
X94980026Y-50111505D01*
X94971527Y-50113114D01*
X94963324Y-50117449D01*
X94963319Y-50117451D01*
X94920637Y-50140008D01*
X94916505Y-50142094D01*
X94873018Y-50163038D01*
X94873015Y-50163039D01*
X94864649Y-50167069D01*
X94858308Y-50172952D01*
X94850661Y-50176994D01*
X94844096Y-50183558D01*
X94844093Y-50183561D01*
X94809968Y-50217685D01*
X94806633Y-50220898D01*
X94771244Y-50253735D01*
X94771240Y-50253738D01*
X94764435Y-50260054D01*
X94760949Y-50266089D01*
X94755788Y-50271865D01*
X94670546Y-50357107D01*
X94624116Y-50386363D01*
X94569607Y-50392715D01*
X94517694Y-50374919D01*
X94516452Y-50374152D01*
X94510408Y-50369281D01*
X94503351Y-50366058D01*
X94386771Y-50312818D01*
X94386766Y-50312816D01*
X94378707Y-50309136D01*
X94369931Y-50307874D01*
X94244173Y-50289792D01*
X94235396Y-50288530D01*
X94226619Y-50289792D01*
X94100859Y-50307874D01*
X94100857Y-50307874D01*
X94092084Y-50309136D01*
X94084025Y-50312815D01*
X94084019Y-50312818D01*
X93967441Y-50366057D01*
X93967436Y-50366059D01*
X93960383Y-50369281D01*
X93954340Y-50374150D01*
X93954338Y-50374152D01*
X93916016Y-50405034D01*
X93916011Y-50405038D01*
X93913423Y-50407124D01*
X93911078Y-50409468D01*
X93911069Y-50409477D01*
X93388045Y-50932501D01*
X93388036Y-50932510D01*
X93385692Y-50934855D01*
X93383606Y-50937443D01*
X93383602Y-50937448D01*
X93352720Y-50975770D01*
X93347849Y-50981815D01*
X93344627Y-50988868D01*
X93344625Y-50988873D01*
X93291386Y-51105451D01*
X93291383Y-51105457D01*
X93287704Y-51113516D01*
X93286442Y-51122289D01*
X93286442Y-51122291D01*
X93285568Y-51128370D01*
X93267098Y-51256828D01*
X79866275Y-51256828D01*
X80188895Y-50890938D01*
X90203768Y-50890938D01*
X90214915Y-50893784D01*
X90956890Y-50893784D01*
X90969765Y-50890333D01*
X90973216Y-50877458D01*
X91473216Y-50877458D01*
X91476666Y-50890333D01*
X91489542Y-50893784D01*
X92125267Y-50893784D01*
X92134557Y-50891553D01*
X92129565Y-50883406D01*
X91483593Y-50237434D01*
X91475446Y-50232442D01*
X91473216Y-50241733D01*
X91473216Y-50877458D01*
X90973216Y-50877458D01*
X90973216Y-50135483D01*
X90970370Y-50124336D01*
X90959049Y-50126378D01*
X90868784Y-50167600D01*
X90855686Y-50175690D01*
X90817685Y-50206314D01*
X90812737Y-50210759D01*
X90290191Y-50733305D01*
X90285746Y-50738253D01*
X90255122Y-50776254D01*
X90247032Y-50789352D01*
X90205810Y-50879617D01*
X90203768Y-50890938D01*
X80188895Y-50890938D01*
X80774518Y-50226771D01*
X80788882Y-50212911D01*
X81528958Y-49605828D01*
X91616098Y-49605828D01*
X91617360Y-49614605D01*
X91626145Y-49675707D01*
X91636704Y-49749139D01*
X91640384Y-49757198D01*
X91640386Y-49757203D01*
X91690908Y-49867831D01*
X91696849Y-49880840D01*
X91734692Y-49927800D01*
X92439200Y-50632308D01*
X92486160Y-50670151D01*
X92617861Y-50730296D01*
X92761172Y-50750902D01*
X92904484Y-50730296D01*
X93036185Y-50670151D01*
X93083145Y-50632308D01*
X93610876Y-50104577D01*
X93648719Y-50057617D01*
X93708864Y-49925916D01*
X93710125Y-49917140D01*
X93712625Y-49908629D01*
X93714906Y-49909298D01*
X93734344Y-49863630D01*
X93785123Y-49825134D01*
X93848315Y-49816939D01*
X93980000Y-49834276D01*
X94124492Y-49815253D01*
X94259138Y-49759481D01*
X94374761Y-49670761D01*
X94463481Y-49555138D01*
X94519253Y-49420492D01*
X94538276Y-49276000D01*
X94519253Y-49131508D01*
X94463481Y-48996862D01*
X94374761Y-48881239D01*
X94259138Y-48792519D01*
X94248728Y-48788207D01*
X94132001Y-48739857D01*
X94131998Y-48739856D01*
X94124492Y-48736747D01*
X94116438Y-48735686D01*
X94116432Y-48735685D01*
X93988059Y-48718785D01*
X93980000Y-48717724D01*
X93971941Y-48718785D01*
X93843567Y-48735685D01*
X93843559Y-48735686D01*
X93835508Y-48736747D01*
X93828003Y-48739855D01*
X93827998Y-48739857D01*
X93708369Y-48789409D01*
X93708365Y-48789410D01*
X93700862Y-48792519D01*
X93694415Y-48797465D01*
X93687376Y-48801530D01*
X93687164Y-48801162D01*
X93659557Y-48815919D01*
X93619698Y-48822500D01*
X93123430Y-48822500D01*
X93109546Y-48821720D01*
X93083084Y-48818738D01*
X93083081Y-48818738D01*
X93073851Y-48817698D01*
X93064724Y-48819424D01*
X93064718Y-48819425D01*
X93049180Y-48822365D01*
X92989580Y-48819016D01*
X92938451Y-48788207D01*
X92908721Y-48758477D01*
X92908720Y-48758476D01*
X92906368Y-48756124D01*
X92859408Y-48718281D01*
X92852350Y-48715058D01*
X92852349Y-48715057D01*
X92735771Y-48661818D01*
X92735766Y-48661816D01*
X92727707Y-48658136D01*
X92718931Y-48656874D01*
X92593173Y-48638792D01*
X92584396Y-48637530D01*
X92575619Y-48638792D01*
X92449859Y-48656874D01*
X92449857Y-48656874D01*
X92441084Y-48658136D01*
X92433025Y-48661815D01*
X92433019Y-48661818D01*
X92316441Y-48715057D01*
X92316436Y-48715059D01*
X92309383Y-48718281D01*
X92303340Y-48723150D01*
X92303338Y-48723152D01*
X92265016Y-48754034D01*
X92265011Y-48754038D01*
X92262423Y-48756124D01*
X92260078Y-48758468D01*
X92260069Y-48758477D01*
X91737045Y-49281501D01*
X91737036Y-49281510D01*
X91734692Y-49283855D01*
X91696849Y-49330815D01*
X91693627Y-49337868D01*
X91693625Y-49337873D01*
X91640386Y-49454451D01*
X91640383Y-49454457D01*
X91636704Y-49462516D01*
X91616098Y-49605828D01*
X81528958Y-49605828D01*
X82260850Y-49005458D01*
X82277599Y-48993882D01*
X83918706Y-48048649D01*
X83936897Y-48040055D01*
X85730537Y-47364895D01*
X85749220Y-47359495D01*
X87678993Y-46962635D01*
X87696741Y-46960306D01*
X89437234Y-46858922D01*
X89454554Y-46859124D01*
G37*
G04 #@! TD.AperFunction*
G04 #@! TA.AperFunction,Conductor*
G36*
X104687390Y-75498559D02*
G01*
X104727618Y-75525439D01*
X104871310Y-75669131D01*
X104903404Y-75724718D01*
X104903404Y-75788906D01*
X104871310Y-75844493D01*
X97344157Y-83371645D01*
X97288570Y-83403739D01*
X97224382Y-83403739D01*
X97168795Y-83371645D01*
X96447636Y-82650487D01*
X96443329Y-82646180D01*
X96380640Y-82604292D01*
X96368661Y-82601909D01*
X96283679Y-82585004D01*
X96238981Y-82566489D01*
X96204770Y-82532278D01*
X96186255Y-82487579D01*
X96169351Y-82402601D01*
X96166968Y-82390620D01*
X96125081Y-82327931D01*
X95382669Y-81585520D01*
X95319980Y-81543632D01*
X95308001Y-81541249D01*
X95223019Y-81524344D01*
X95178321Y-81505829D01*
X95144110Y-81471618D01*
X95125595Y-81426919D01*
X95118703Y-81392271D01*
X95106308Y-81329960D01*
X95064421Y-81267271D01*
X94911388Y-81114238D01*
X94880408Y-81062552D01*
X94877452Y-81002365D01*
X94903216Y-80947891D01*
X94951614Y-80911997D01*
X95031039Y-80879099D01*
X95037487Y-80874150D01*
X95044525Y-80870088D01*
X95044736Y-80870455D01*
X95072344Y-80855699D01*
X95112203Y-80849118D01*
X95339960Y-80849118D01*
X95353842Y-80849897D01*
X95389531Y-80853919D01*
X95446078Y-80843219D01*
X95450635Y-80842445D01*
X95507563Y-80833865D01*
X95515355Y-80830112D01*
X95523855Y-80828504D01*
X95532072Y-80824161D01*
X95532075Y-80824160D01*
X95574758Y-80801601D01*
X95578890Y-80799514D01*
X95630733Y-80774549D01*
X95637071Y-80768667D01*
X95644721Y-80764625D01*
X95685461Y-80723883D01*
X95688718Y-80720745D01*
X95730947Y-80681564D01*
X95734434Y-80675522D01*
X95739577Y-80669767D01*
X99300870Y-77108473D01*
X99311233Y-77099213D01*
X99339322Y-77076814D01*
X99371771Y-77029218D01*
X99374384Y-77025534D01*
X99408603Y-76979172D01*
X99411460Y-76971006D01*
X99416332Y-76963861D01*
X99433305Y-76908832D01*
X99434743Y-76904461D01*
X99453754Y-76850135D01*
X99454077Y-76841495D01*
X99456628Y-76833226D01*
X99456628Y-76775643D01*
X99456715Y-76771006D01*
X99458518Y-76722810D01*
X99458866Y-76713523D01*
X99457061Y-76706789D01*
X99456628Y-76699071D01*
X99456628Y-76346612D01*
X99463209Y-76306753D01*
X99477965Y-76279145D01*
X99477598Y-76278934D01*
X99481660Y-76271896D01*
X99486609Y-76265448D01*
X99542381Y-76130802D01*
X99561404Y-75986310D01*
X99542381Y-75841818D01*
X99486609Y-75707172D01*
X99472363Y-75688606D01*
X99447336Y-75625274D01*
X99459527Y-75558276D01*
X99505259Y-75507819D01*
X99570739Y-75489120D01*
X104639937Y-75489120D01*
X104687390Y-75498559D01*
G37*
G04 #@! TD.AperFunction*
G04 #@! TA.AperFunction,Conductor*
G36*
X93842818Y-64659753D02*
G01*
X93892181Y-64690003D01*
X94090012Y-64887833D01*
X94281654Y-65079475D01*
X94344343Y-65121363D01*
X94431776Y-65138755D01*
X94441302Y-65140650D01*
X94486001Y-65159165D01*
X94520212Y-65193376D01*
X94538727Y-65238074D01*
X94555631Y-65323054D01*
X94555632Y-65323057D01*
X94558015Y-65335035D01*
X94599902Y-65397724D01*
X95342314Y-66140135D01*
X95405003Y-66182023D01*
X95492436Y-66199415D01*
X95501962Y-66201310D01*
X95546661Y-66219825D01*
X95580872Y-66254036D01*
X95599387Y-66298734D01*
X95616291Y-66383714D01*
X95616292Y-66383717D01*
X95618675Y-66395695D01*
X95660562Y-66458384D01*
X96402974Y-67200795D01*
X96465663Y-67242683D01*
X96553096Y-67260075D01*
X96562622Y-67261970D01*
X96607321Y-67280485D01*
X96641532Y-67314696D01*
X96660047Y-67359394D01*
X96676951Y-67444374D01*
X96676952Y-67444377D01*
X96679335Y-67456355D01*
X96686121Y-67466511D01*
X96714054Y-67508317D01*
X96721222Y-67519044D01*
X97463634Y-68261455D01*
X97526323Y-68303343D01*
X97613756Y-68320735D01*
X97623282Y-68322630D01*
X97667981Y-68341145D01*
X97702192Y-68375356D01*
X97720707Y-68420054D01*
X97737611Y-68505034D01*
X97737612Y-68505037D01*
X97739995Y-68517015D01*
X97781882Y-68579704D01*
X97786193Y-68584015D01*
X97786194Y-68584016D01*
X98141412Y-68939234D01*
X98174792Y-69000077D01*
X98170253Y-69069326D01*
X98129217Y-69125291D01*
X98036685Y-69196292D01*
X98036681Y-69196295D01*
X98030239Y-69201239D01*
X98025295Y-69207681D01*
X98025292Y-69207685D01*
X97946466Y-69310414D01*
X97946463Y-69310417D01*
X97941519Y-69316862D01*
X97938410Y-69324365D01*
X97938409Y-69324369D01*
X97888857Y-69443998D01*
X97888855Y-69444003D01*
X97885747Y-69451508D01*
X97884686Y-69459559D01*
X97884685Y-69459567D01*
X97869705Y-69573359D01*
X97866724Y-69596000D01*
X97867785Y-69604059D01*
X97884685Y-69732432D01*
X97884686Y-69732438D01*
X97885747Y-69740492D01*
X97888856Y-69747998D01*
X97888857Y-69748001D01*
X97936661Y-69863410D01*
X97946100Y-69910863D01*
X97946100Y-72309098D01*
X97939519Y-72348957D01*
X97924762Y-72376564D01*
X97925130Y-72376776D01*
X97921065Y-72383815D01*
X97916119Y-72390262D01*
X97913010Y-72397765D01*
X97913009Y-72397769D01*
X97863457Y-72517398D01*
X97863455Y-72517403D01*
X97860347Y-72524908D01*
X97859286Y-72532959D01*
X97859285Y-72532967D01*
X97848091Y-72617997D01*
X97841324Y-72669400D01*
X97842385Y-72677459D01*
X97859285Y-72805832D01*
X97859286Y-72805838D01*
X97860347Y-72813892D01*
X97916119Y-72948538D01*
X98004839Y-73064161D01*
X98120462Y-73152881D01*
X98255108Y-73208653D01*
X98399600Y-73227676D01*
X98544092Y-73208653D01*
X98678738Y-73152881D01*
X98794361Y-73064161D01*
X98883081Y-72948538D01*
X98938853Y-72813892D01*
X98957876Y-72669400D01*
X98938853Y-72524908D01*
X98883081Y-72390262D01*
X98878133Y-72383814D01*
X98874070Y-72376776D01*
X98874437Y-72376564D01*
X98859681Y-72348957D01*
X98853100Y-72309098D01*
X98853100Y-69989404D01*
X98859680Y-69949546D01*
X98878723Y-69913919D01*
X98881068Y-69910863D01*
X98895709Y-69891781D01*
X98951673Y-69850747D01*
X99020923Y-69846207D01*
X99081766Y-69879587D01*
X99363562Y-70161382D01*
X99584955Y-70382775D01*
X99647644Y-70424663D01*
X99735082Y-70442056D01*
X99744603Y-70443950D01*
X99789302Y-70462465D01*
X99823513Y-70496676D01*
X99842028Y-70541374D01*
X99858932Y-70626355D01*
X99858933Y-70626358D01*
X99861316Y-70638336D01*
X99903203Y-70701025D01*
X100645615Y-71443436D01*
X100708304Y-71485324D01*
X100790167Y-71501608D01*
X100805263Y-71504611D01*
X100849962Y-71523126D01*
X100884173Y-71557337D01*
X100902688Y-71602035D01*
X100919592Y-71687015D01*
X100919593Y-71687018D01*
X100921976Y-71698996D01*
X100963863Y-71761685D01*
X101706275Y-72504096D01*
X101768964Y-72545984D01*
X101856397Y-72563376D01*
X101865923Y-72565271D01*
X101910622Y-72583786D01*
X101944833Y-72617997D01*
X101963348Y-72662695D01*
X101980252Y-72747675D01*
X101980253Y-72747678D01*
X101982636Y-72759656D01*
X102024523Y-72822345D01*
X102766935Y-73564756D01*
X102829624Y-73606644D01*
X102917057Y-73624036D01*
X102926583Y-73625931D01*
X102971282Y-73644446D01*
X103005493Y-73678657D01*
X103024008Y-73723355D01*
X103040912Y-73808335D01*
X103040913Y-73808338D01*
X103043296Y-73820316D01*
X103085183Y-73883005D01*
X103089495Y-73887317D01*
X103118785Y-73916607D01*
X103150879Y-73972194D01*
X103150879Y-74036381D01*
X103118785Y-74091969D01*
X102864954Y-74345801D01*
X102824726Y-74372681D01*
X102777273Y-74382120D01*
X98876598Y-74382120D01*
X98841207Y-74376962D01*
X98834632Y-74375004D01*
X98829762Y-74373444D01*
X98793033Y-74360835D01*
X98793031Y-74360834D01*
X98783318Y-74357500D01*
X98775831Y-74357500D01*
X98768659Y-74355365D01*
X98758396Y-74355789D01*
X98758393Y-74355789D01*
X98719598Y-74357394D01*
X98714474Y-74357500D01*
X98276801Y-74357500D01*
X98253467Y-74355080D01*
X98252134Y-74355024D01*
X98242082Y-74352917D01*
X98231891Y-74354187D01*
X98231885Y-74354187D01*
X98212234Y-74356637D01*
X98207140Y-74357165D01*
X98203098Y-74357500D01*
X98197978Y-74357500D01*
X98192926Y-74358342D01*
X98192925Y-74358343D01*
X98178834Y-74360694D01*
X98173771Y-74361431D01*
X98135206Y-74366239D01*
X98135200Y-74366240D01*
X98125010Y-74367511D01*
X98118286Y-74370797D01*
X98110903Y-74372030D01*
X98101876Y-74376914D01*
X98101873Y-74376916D01*
X98067711Y-74395404D01*
X98063158Y-74397747D01*
X98028246Y-74414815D01*
X98028241Y-74414818D01*
X98019021Y-74419326D01*
X98013727Y-74424619D01*
X98007145Y-74428182D01*
X98000195Y-74435731D01*
X98000193Y-74435733D01*
X97973881Y-74464315D01*
X97970335Y-74468010D01*
X97625854Y-74812490D01*
X97607649Y-74827275D01*
X97606667Y-74828178D01*
X97598070Y-74833796D01*
X97591762Y-74841899D01*
X97591762Y-74841900D01*
X97579622Y-74857497D01*
X97576397Y-74861468D01*
X97573738Y-74864606D01*
X97570124Y-74868222D01*
X97567154Y-74872381D01*
X97567144Y-74872393D01*
X97558832Y-74884033D01*
X97555780Y-74888125D01*
X97531912Y-74918792D01*
X97531905Y-74918804D01*
X97525607Y-74926897D01*
X97523176Y-74933975D01*
X97518827Y-74940068D01*
X97515899Y-74949902D01*
X97515898Y-74949905D01*
X97504817Y-74987127D01*
X97503254Y-74992006D01*
X97490636Y-75028762D01*
X97490635Y-75028766D01*
X97487300Y-75038482D01*
X97487300Y-75045969D01*
X97485165Y-75053141D01*
X97485589Y-75063402D01*
X97485589Y-75063406D01*
X97487194Y-75102202D01*
X97487300Y-75107326D01*
X97487300Y-75816688D01*
X97477861Y-75864141D01*
X97450983Y-75904366D01*
X97233001Y-76122348D01*
X97191605Y-76163744D01*
X97173402Y-76178526D01*
X97172417Y-76179432D01*
X97163821Y-76185049D01*
X97157515Y-76193149D01*
X97157510Y-76193155D01*
X97149485Y-76203466D01*
X97098558Y-76242077D01*
X97035167Y-76250199D01*
X96976150Y-76225674D01*
X96881785Y-76153266D01*
X96875338Y-76148319D01*
X96867830Y-76145209D01*
X96748201Y-76095657D01*
X96748198Y-76095656D01*
X96740692Y-76092547D01*
X96732638Y-76091486D01*
X96732632Y-76091485D01*
X96604259Y-76074585D01*
X96596200Y-76073524D01*
X96588141Y-76074585D01*
X96459767Y-76091485D01*
X96459759Y-76091486D01*
X96451708Y-76092547D01*
X96444203Y-76095655D01*
X96444198Y-76095657D01*
X96324569Y-76145209D01*
X96324565Y-76145210D01*
X96317062Y-76148319D01*
X96310617Y-76153263D01*
X96310614Y-76153266D01*
X96207885Y-76232092D01*
X96207881Y-76232095D01*
X96201439Y-76237039D01*
X96196495Y-76243481D01*
X96196492Y-76243485D01*
X96117666Y-76346214D01*
X96117663Y-76346217D01*
X96112719Y-76352662D01*
X96109610Y-76360165D01*
X96109609Y-76360169D01*
X96060057Y-76479798D01*
X96060055Y-76479803D01*
X96056947Y-76487308D01*
X96055886Y-76495359D01*
X96055885Y-76495367D01*
X96045135Y-76577026D01*
X96037924Y-76631800D01*
X96038816Y-76638576D01*
X96029546Y-76685181D01*
X96002666Y-76725409D01*
X95395269Y-77332806D01*
X95355041Y-77359686D01*
X95307588Y-77369125D01*
X92398412Y-77369125D01*
X92350959Y-77359686D01*
X92310731Y-77332806D01*
X85505219Y-70527294D01*
X85478339Y-70487066D01*
X85468900Y-70439613D01*
X85468900Y-70166437D01*
X85482415Y-70110142D01*
X85520015Y-70066119D01*
X85573502Y-70043964D01*
X85631218Y-70048506D01*
X85680581Y-70078756D01*
X86130566Y-70528741D01*
X86139832Y-70539109D01*
X86156434Y-70559928D01*
X86156436Y-70559930D01*
X86162229Y-70567194D01*
X86185771Y-70583244D01*
X86209782Y-70599614D01*
X86213562Y-70602297D01*
X86259871Y-70636475D01*
X86268036Y-70639332D01*
X86275182Y-70644204D01*
X86330230Y-70661183D01*
X86334531Y-70662599D01*
X86388908Y-70681627D01*
X86397551Y-70681950D01*
X86405817Y-70684500D01*
X86463390Y-70684500D01*
X86468026Y-70684587D01*
X86525521Y-70686738D01*
X86532254Y-70684933D01*
X86539974Y-70684500D01*
X87894458Y-70684500D01*
X87959938Y-70703199D01*
X88005670Y-70753656D01*
X88017861Y-70820654D01*
X87992834Y-70883986D01*
X87915464Y-70984816D01*
X87915461Y-70984819D01*
X87910517Y-70991264D01*
X87907408Y-70998767D01*
X87907407Y-70998771D01*
X87857855Y-71118400D01*
X87857853Y-71118405D01*
X87854745Y-71125910D01*
X87853684Y-71133961D01*
X87853683Y-71133969D01*
X87837889Y-71253941D01*
X87835722Y-71270402D01*
X87836783Y-71278461D01*
X87853683Y-71406834D01*
X87853684Y-71406840D01*
X87854745Y-71414894D01*
X87857854Y-71422400D01*
X87857855Y-71422403D01*
X87904737Y-71535585D01*
X87910517Y-71549540D01*
X87999237Y-71665163D01*
X88114860Y-71753883D01*
X88249506Y-71809655D01*
X88393998Y-71828678D01*
X88538490Y-71809655D01*
X88673136Y-71753883D01*
X88788759Y-71665163D01*
X88877479Y-71549540D01*
X88933251Y-71414894D01*
X88934312Y-71406834D01*
X88936415Y-71398986D01*
X88936824Y-71399095D01*
X88945911Y-71369140D01*
X88969440Y-71336304D01*
X89992252Y-70313492D01*
X90040075Y-70283755D01*
X90096119Y-70278237D01*
X90119200Y-70281276D01*
X90263692Y-70262253D01*
X90398338Y-70206481D01*
X90513961Y-70117761D01*
X90602681Y-70002138D01*
X90658453Y-69867492D01*
X90677476Y-69723000D01*
X90658453Y-69578508D01*
X90602681Y-69443862D01*
X90513961Y-69328239D01*
X90481811Y-69303570D01*
X90404785Y-69244466D01*
X90398338Y-69239519D01*
X90375903Y-69230226D01*
X90271098Y-69186814D01*
X90222698Y-69150918D01*
X90196934Y-69096444D01*
X90199890Y-69036258D01*
X90230868Y-68984574D01*
X93524747Y-65690694D01*
X93535110Y-65681434D01*
X93563194Y-65659039D01*
X93595619Y-65611477D01*
X93598269Y-65607741D01*
X93632475Y-65561397D01*
X93635332Y-65553231D01*
X93640204Y-65546086D01*
X93657177Y-65491057D01*
X93658615Y-65486686D01*
X93677626Y-65432360D01*
X93677949Y-65423720D01*
X93680500Y-65415451D01*
X93680500Y-65357868D01*
X93680587Y-65353231D01*
X93682390Y-65305035D01*
X93682738Y-65295748D01*
X93680933Y-65289014D01*
X93680500Y-65281296D01*
X93680500Y-64777684D01*
X93694015Y-64721389D01*
X93731615Y-64677366D01*
X93785102Y-64655211D01*
X93842818Y-64659753D01*
G37*
G04 #@! TD.AperFunction*
G04 #@! TA.AperFunction,Conductor*
G36*
X91457493Y-62250365D02*
G01*
X92158259Y-62951131D01*
X92167631Y-62958822D01*
X92214233Y-62989961D01*
X92236365Y-62999128D01*
X92319594Y-63015684D01*
X92370890Y-63038925D01*
X92406615Y-63082457D01*
X92414284Y-63115348D01*
X92417020Y-63114804D01*
X92434311Y-63201732D01*
X92434312Y-63201734D01*
X92436695Y-63213714D01*
X92478582Y-63276403D01*
X92482893Y-63280714D01*
X92482894Y-63280715D01*
X92737181Y-63535002D01*
X92764061Y-63575230D01*
X92773500Y-63622683D01*
X92773500Y-65107889D01*
X92764061Y-65155342D01*
X92737181Y-65195570D01*
X89373174Y-68559575D01*
X89362809Y-68568838D01*
X89341991Y-68585440D01*
X89341985Y-68585446D01*
X89334724Y-68591237D01*
X89329493Y-68598908D01*
X89329484Y-68598919D01*
X89302297Y-68638795D01*
X89299616Y-68642574D01*
X89270960Y-68681401D01*
X89270954Y-68681410D01*
X89265443Y-68688879D01*
X89262585Y-68697044D01*
X89257714Y-68704190D01*
X89254977Y-68713060D01*
X89254977Y-68713062D01*
X89240745Y-68759201D01*
X89239296Y-68763603D01*
X89223358Y-68809150D01*
X89223356Y-68809157D01*
X89220292Y-68817916D01*
X89219968Y-68826555D01*
X89217418Y-68834825D01*
X89217418Y-68844111D01*
X89216750Y-68848546D01*
X89204829Y-68885954D01*
X89181811Y-68917760D01*
X89167309Y-68932261D01*
X89119486Y-68961997D01*
X89063443Y-68967516D01*
X89010739Y-68947678D01*
X88974629Y-68909123D01*
X88973842Y-68907223D01*
X88885122Y-68791600D01*
X88842898Y-68759201D01*
X88791447Y-68719721D01*
X88769499Y-68702880D01*
X88755410Y-68697044D01*
X88642365Y-68650219D01*
X88642361Y-68650217D01*
X88634853Y-68647108D01*
X88626793Y-68646046D01*
X88618945Y-68643944D01*
X88619054Y-68643534D01*
X88589094Y-68634444D01*
X88556261Y-68610915D01*
X87932054Y-67986708D01*
X87922787Y-67976339D01*
X87915799Y-67967576D01*
X87900392Y-67948256D01*
X87852838Y-67915834D01*
X87849059Y-67913153D01*
X87817758Y-67890052D01*
X87802750Y-67878975D01*
X87794584Y-67876117D01*
X87787439Y-67871246D01*
X87778566Y-67868509D01*
X87778564Y-67868508D01*
X87732434Y-67854279D01*
X87728032Y-67852830D01*
X87682477Y-67836890D01*
X87682473Y-67836889D01*
X87673713Y-67833824D01*
X87665073Y-67833500D01*
X87656804Y-67830950D01*
X87647514Y-67830950D01*
X87599221Y-67830950D01*
X87594584Y-67830863D01*
X87546388Y-67829059D01*
X87546384Y-67829059D01*
X87537101Y-67828712D01*
X87530367Y-67830516D01*
X87522649Y-67830950D01*
X86025002Y-67830950D01*
X85985143Y-67824369D01*
X85957535Y-67809612D01*
X85957323Y-67809980D01*
X85950288Y-67805918D01*
X85943838Y-67800969D01*
X85943835Y-67800968D01*
X85944022Y-67800724D01*
X85907308Y-67766337D01*
X85887472Y-67713632D01*
X85892992Y-67657588D01*
X85922728Y-67609768D01*
X86296296Y-67236201D01*
X86338184Y-67173512D01*
X86357471Y-67076551D01*
X86375986Y-67031853D01*
X86410197Y-66997642D01*
X86454895Y-66979127D01*
X86551856Y-66959840D01*
X86614545Y-66917953D01*
X87356956Y-66175541D01*
X87398844Y-66112852D01*
X87418131Y-66015891D01*
X87436646Y-65971193D01*
X87470857Y-65936982D01*
X87515555Y-65918467D01*
X87612516Y-65899180D01*
X87675205Y-65857293D01*
X88417616Y-65114881D01*
X88459504Y-65052192D01*
X88478791Y-64955231D01*
X88497306Y-64910533D01*
X88531517Y-64876322D01*
X88576215Y-64857807D01*
X88673176Y-64838520D01*
X88735865Y-64796633D01*
X89478276Y-64054221D01*
X89520164Y-63991532D01*
X89539451Y-63894571D01*
X89557966Y-63849873D01*
X89592177Y-63815662D01*
X89636874Y-63797147D01*
X89733837Y-63777860D01*
X89796526Y-63735973D01*
X90538937Y-62993561D01*
X90580825Y-62930872D01*
X90600112Y-62833911D01*
X90618627Y-62789213D01*
X90652838Y-62755002D01*
X90697536Y-62736487D01*
X90794497Y-62717200D01*
X90857186Y-62675313D01*
X91282138Y-62250360D01*
X91337718Y-62218271D01*
X91401905Y-62218271D01*
X91457493Y-62250365D01*
G37*
G04 #@! TD.AperFunction*
G04 #@! TA.AperFunction,Conductor*
G36*
X98162208Y-60398753D02*
G01*
X98366981Y-60603526D01*
X98393861Y-60643754D01*
X98403300Y-60691207D01*
X98403300Y-61319967D01*
X98402520Y-61333849D01*
X98398499Y-61369538D01*
X98400224Y-61378659D01*
X98400225Y-61378667D01*
X98409197Y-61426090D01*
X98409973Y-61430654D01*
X98416241Y-61472233D01*
X98418553Y-61487570D01*
X98422305Y-61495362D01*
X98423914Y-61503862D01*
X98424147Y-61504304D01*
X98428700Y-61534461D01*
X98428700Y-63285109D01*
X98419261Y-63332562D01*
X98392381Y-63372790D01*
X97466857Y-64298311D01*
X97456492Y-64307574D01*
X97435673Y-64324177D01*
X97435667Y-64324183D01*
X97428406Y-64329974D01*
X97423175Y-64337645D01*
X97423166Y-64337656D01*
X97395979Y-64377532D01*
X97393298Y-64381311D01*
X97364642Y-64420138D01*
X97364636Y-64420147D01*
X97359125Y-64427616D01*
X97356267Y-64435781D01*
X97351396Y-64442927D01*
X97348659Y-64451797D01*
X97348659Y-64451799D01*
X97334427Y-64497938D01*
X97332978Y-64502340D01*
X97317040Y-64547887D01*
X97317038Y-64547894D01*
X97313974Y-64556653D01*
X97313650Y-64565292D01*
X97311100Y-64573562D01*
X97311100Y-64582848D01*
X97311100Y-64631145D01*
X97311013Y-64635782D01*
X97309209Y-64683977D01*
X97309209Y-64683980D01*
X97308862Y-64693265D01*
X97310666Y-64699998D01*
X97311100Y-64707717D01*
X97311100Y-65197098D01*
X97304519Y-65236957D01*
X97289762Y-65264564D01*
X97290130Y-65264776D01*
X97286066Y-65271814D01*
X97281119Y-65278262D01*
X97278009Y-65285769D01*
X97273945Y-65292809D01*
X97271860Y-65291605D01*
X97244398Y-65328610D01*
X97189928Y-65354358D01*
X97129753Y-65351393D01*
X97078078Y-65320417D01*
X96942611Y-65184950D01*
X96938304Y-65180643D01*
X96875615Y-65138755D01*
X96863636Y-65136372D01*
X96778654Y-65119467D01*
X96733956Y-65100952D01*
X96699745Y-65066741D01*
X96681230Y-65022042D01*
X96667796Y-64954509D01*
X96661943Y-64925083D01*
X96620056Y-64862394D01*
X95877644Y-64119983D01*
X95814955Y-64078095D01*
X95802976Y-64075712D01*
X95717994Y-64058807D01*
X95673296Y-64040292D01*
X95639085Y-64006081D01*
X95620570Y-63961382D01*
X95607280Y-63894572D01*
X95601283Y-63864423D01*
X95559396Y-63801734D01*
X94816984Y-63059323D01*
X94754295Y-63017435D01*
X94742316Y-63015052D01*
X94657334Y-62998147D01*
X94612635Y-62979632D01*
X94578425Y-62945421D01*
X94559910Y-62900722D01*
X94554830Y-62875184D01*
X94540623Y-62803762D01*
X94498736Y-62741073D01*
X93756324Y-61998662D01*
X93693635Y-61956774D01*
X93594725Y-61937099D01*
X93595269Y-61934363D01*
X93562377Y-61926694D01*
X93518845Y-61890969D01*
X93495604Y-61839674D01*
X93476666Y-61744468D01*
X93479295Y-61743944D01*
X93473483Y-61704737D01*
X93493786Y-61648004D01*
X93538434Y-61607540D01*
X93596885Y-61592900D01*
X93877398Y-61592900D01*
X93882530Y-61592900D01*
X93887590Y-61592055D01*
X93887596Y-61592055D01*
X93907513Y-61588731D01*
X93953375Y-61589679D01*
X93980531Y-61595373D01*
X93980532Y-61595373D01*
X93990590Y-61597482D01*
X94107661Y-61582889D01*
X94213651Y-61531074D01*
X94759100Y-60985623D01*
X94791934Y-60962095D01*
X94830588Y-60950369D01*
X94951269Y-60934481D01*
X95005770Y-60939489D01*
X95052808Y-60967473D01*
X95083216Y-61012982D01*
X95091070Y-61067148D01*
X95077700Y-61237048D01*
X95077038Y-61245457D01*
X95077420Y-61250311D01*
X95094379Y-61465804D01*
X95095865Y-61484679D01*
X95097000Y-61489408D01*
X95097001Y-61489412D01*
X95150745Y-61713273D01*
X95150747Y-61713281D01*
X95151883Y-61718010D01*
X95153747Y-61722510D01*
X95224717Y-61893849D01*
X95243712Y-61939706D01*
X95246259Y-61943863D01*
X95246260Y-61943864D01*
X95366544Y-62140149D01*
X95366547Y-62140153D01*
X95369092Y-62144306D01*
X95372254Y-62148008D01*
X95372256Y-62148011D01*
X95502859Y-62300928D01*
X95524934Y-62326775D01*
X95528634Y-62329935D01*
X95684779Y-62463295D01*
X95707403Y-62482617D01*
X95711557Y-62485162D01*
X95711559Y-62485164D01*
X95741216Y-62503338D01*
X95912003Y-62607997D01*
X96133699Y-62699826D01*
X96367030Y-62755844D01*
X96606252Y-62774671D01*
X96845474Y-62755844D01*
X97078805Y-62699826D01*
X97300501Y-62607997D01*
X97505101Y-62482617D01*
X97687570Y-62326775D01*
X97843412Y-62144306D01*
X97968792Y-61939706D01*
X98060621Y-61718010D01*
X98116639Y-61484679D01*
X98135466Y-61245457D01*
X98116639Y-61006235D01*
X98060621Y-60772904D01*
X97968792Y-60551208D01*
X97966247Y-60547056D01*
X97964044Y-60542731D01*
X97951077Y-60474767D01*
X97976547Y-60410435D01*
X98032522Y-60369765D01*
X98101576Y-60365420D01*
X98162208Y-60398753D01*
G37*
G04 #@! TD.AperFunction*
G04 #@! TA.AperFunction,Conductor*
G36*
X88889361Y-53934207D02*
G01*
X88934748Y-53979594D01*
X88951361Y-54041594D01*
X88951361Y-55349100D01*
X88955454Y-55363681D01*
X88967619Y-55375007D01*
X89002100Y-55430827D01*
X89003271Y-55496428D01*
X88970804Y-55553443D01*
X88579738Y-55944510D01*
X88524862Y-55976411D01*
X88461389Y-55976977D01*
X88405953Y-55946059D01*
X88376782Y-55897877D01*
X88376261Y-55898116D01*
X88316115Y-55766415D01*
X88278272Y-55719454D01*
X87149501Y-54590683D01*
X87102540Y-54552840D01*
X87103526Y-54551615D01*
X87072129Y-54520634D01*
X87053578Y-54468416D01*
X87058850Y-54420400D01*
X87555410Y-54420400D01*
X87557213Y-54431740D01*
X87623130Y-54585668D01*
X87628768Y-54595994D01*
X87739889Y-54760174D01*
X87747387Y-54769255D01*
X88064571Y-55086439D01*
X88068947Y-55090417D01*
X88183510Y-55185008D01*
X88193245Y-55191597D01*
X88367262Y-55286617D01*
X88378065Y-55291244D01*
X88437417Y-55310216D01*
X88448721Y-55311059D01*
X88451361Y-55300036D01*
X88451361Y-54433920D01*
X88447910Y-54421044D01*
X88435035Y-54417594D01*
X87566543Y-54417594D01*
X87555410Y-54420400D01*
X87058850Y-54420400D01*
X87059626Y-54413332D01*
X87089062Y-54366385D01*
X87501536Y-53953912D01*
X87541763Y-53927033D01*
X87589216Y-53917594D01*
X88827361Y-53917594D01*
X88889361Y-53934207D01*
G37*
G04 #@! TD.AperFunction*
M02*
