G04 #@! TF.GenerationSoftware,KiCad,Pcbnew,(7.0.0)*
G04 #@! TF.CreationDate,2023-04-27T15:14:50-06:00*
G04 #@! TF.ProjectId,Fonocardiograma_V3C,466f6e6f-6361-4726-9469-6f6772616d61,rev?*
G04 #@! TF.SameCoordinates,Original*
G04 #@! TF.FileFunction,Legend,Bot*
G04 #@! TF.FilePolarity,Positive*
%FSLAX46Y46*%
G04 Gerber Fmt 4.6, Leading zero omitted, Abs format (unit mm)*
G04 Created by KiCad (PCBNEW (7.0.0)) date 2023-04-27 15:14:50*
%MOMM*%
%LPD*%
G01*
G04 APERTURE LIST*
%ADD10C,0.150000*%
%ADD11C,0.225000*%
%ADD12C,0.000000*%
%ADD13C,0.004233*%
%ADD14C,0.120000*%
G04 APERTURE END LIST*
D10*
X86741000Y-57531000D02*
X87185500Y-57975500D01*
X86741000Y-58039000D02*
X87249000Y-57531000D01*
G36*
X120363140Y-59797724D02*
G01*
X121175721Y-59494280D01*
X120733594Y-59936407D01*
X120726102Y-59943796D01*
X120718865Y-59950725D01*
X120708492Y-59960252D01*
X120698695Y-59968742D01*
X120689475Y-59976193D01*
X120680832Y-59982605D01*
X120670206Y-59989541D01*
X120660604Y-59994630D01*
X120650045Y-59998396D01*
X120644478Y-59999271D01*
X120632434Y-59999069D01*
X120622787Y-59997450D01*
X120613129Y-59994536D01*
X120603460Y-59990326D01*
X120593780Y-59984821D01*
X120584090Y-59978021D01*
X120574389Y-59969925D01*
X120567106Y-59963003D01*
X120543790Y-59939688D01*
X120524447Y-59959031D01*
X120753628Y-60188212D01*
X120772971Y-60168869D01*
X120749656Y-60145553D01*
X120742256Y-60137708D01*
X120735731Y-60129844D01*
X120728391Y-60119330D01*
X120722606Y-60108784D01*
X120718374Y-60098206D01*
X120715697Y-60087596D01*
X120714575Y-60076953D01*
X120715007Y-60066277D01*
X120715805Y-60060927D01*
X120719410Y-60050045D01*
X120725150Y-60039390D01*
X120731534Y-60029828D01*
X120739509Y-60019343D01*
X120746535Y-60010873D01*
X120754458Y-60001884D01*
X120763275Y-59992377D01*
X120772988Y-59982350D01*
X120776425Y-59978892D01*
X121208880Y-59546437D01*
X121216978Y-59538512D01*
X121224821Y-59531189D01*
X121232408Y-59524467D01*
X121242128Y-59516438D01*
X121251395Y-59509479D01*
X121260208Y-59503588D01*
X121270588Y-59497727D01*
X121280258Y-59493536D01*
X121282108Y-59492898D01*
X121291581Y-59490426D01*
X121301715Y-59489507D01*
X121312511Y-59490143D01*
X121322290Y-59491924D01*
X121330811Y-59494280D01*
X121341616Y-59498629D01*
X121351298Y-59503951D01*
X121359487Y-59509320D01*
X121368069Y-59515676D01*
X121377046Y-59523020D01*
X121386417Y-59531352D01*
X121393703Y-59538249D01*
X121398684Y-59543156D01*
X121416818Y-59525021D01*
X121230296Y-59338499D01*
X120472463Y-59618628D01*
X120756218Y-58864422D01*
X120569696Y-58677900D01*
X120550353Y-58697243D01*
X120573323Y-58720213D01*
X120580784Y-58728120D01*
X120587365Y-58736039D01*
X120594770Y-58746618D01*
X120600609Y-58757217D01*
X120604884Y-58767839D01*
X120607593Y-58778482D01*
X120608737Y-58789146D01*
X120608316Y-58799833D01*
X120607519Y-58805184D01*
X120603926Y-58816054D01*
X120598215Y-58826680D01*
X120591867Y-58836208D01*
X120583937Y-58846647D01*
X120576952Y-58855075D01*
X120569077Y-58864016D01*
X120560313Y-58873470D01*
X120550660Y-58883437D01*
X120547244Y-58886874D01*
X120115480Y-59318638D01*
X120108006Y-59326006D01*
X120100784Y-59332913D01*
X120090421Y-59342408D01*
X120080622Y-59350865D01*
X120071388Y-59358284D01*
X120062718Y-59364664D01*
X120052038Y-59371556D01*
X120042361Y-59376602D01*
X120031676Y-59380315D01*
X120026018Y-59381158D01*
X120014024Y-59380905D01*
X120002005Y-59378638D01*
X119992371Y-59375373D01*
X119982721Y-59370817D01*
X119973055Y-59364972D01*
X119963373Y-59357838D01*
X119953674Y-59349413D01*
X119948819Y-59344717D01*
X119925849Y-59321747D01*
X119906506Y-59341090D01*
X120186289Y-59620873D01*
X120205632Y-59601530D01*
X120182317Y-59578215D01*
X120174859Y-59570310D01*
X120168288Y-59562400D01*
X120160904Y-59551843D01*
X120155097Y-59541276D01*
X120150866Y-59530698D01*
X120148211Y-59520109D01*
X120147131Y-59509509D01*
X120147628Y-59498898D01*
X120148467Y-59493589D01*
X120152065Y-59482713D01*
X120157791Y-59472072D01*
X120164157Y-59462527D01*
X120172110Y-59452065D01*
X120179115Y-59443616D01*
X120187014Y-59434651D01*
X120195804Y-59425171D01*
X120205488Y-59415173D01*
X120208914Y-59411726D01*
X120651041Y-58969600D01*
X120347079Y-59781662D01*
X120363140Y-59797724D01*
G37*
G36*
X120216513Y-58302610D02*
G01*
X119906851Y-59075814D01*
X119901860Y-59088278D01*
X119897204Y-59100324D01*
X119892885Y-59111954D01*
X119888901Y-59123167D01*
X119885253Y-59133964D01*
X119881941Y-59144343D01*
X119878966Y-59154305D01*
X119876326Y-59163850D01*
X119872996Y-59177387D01*
X119870422Y-59189985D01*
X119868604Y-59201645D01*
X119867542Y-59212367D01*
X119867302Y-59225204D01*
X119867663Y-59229890D01*
X119870160Y-59240564D01*
X119874050Y-59250786D01*
X119878346Y-59259831D01*
X119883695Y-59269648D01*
X119890096Y-59280237D01*
X119895587Y-59288686D01*
X119901670Y-59297568D01*
X119882327Y-59316911D01*
X119674908Y-59109491D01*
X119694251Y-59090148D01*
X119703580Y-59098108D01*
X119712464Y-59105342D01*
X119720901Y-59111850D01*
X119731456Y-59119399D01*
X119741218Y-59125658D01*
X119750187Y-59130628D01*
X119760282Y-59135025D01*
X119770759Y-59137642D01*
X119772346Y-59137819D01*
X119782870Y-59138074D01*
X119793643Y-59136261D01*
X119803077Y-59132202D01*
X119811172Y-59125898D01*
X119815873Y-59120679D01*
X119821856Y-59112592D01*
X119827956Y-59102768D01*
X119832921Y-59093658D01*
X119837962Y-59083436D01*
X119843079Y-59072102D01*
X119846965Y-59062872D01*
X119850895Y-59053017D01*
X119908233Y-58906217D01*
X119653319Y-58651303D01*
X119520336Y-58704496D01*
X119512432Y-58707716D01*
X119501214Y-58712474D01*
X119490760Y-58717147D01*
X119481072Y-58721735D01*
X119472148Y-58726238D01*
X119461441Y-58732110D01*
X119452093Y-58737831D01*
X119442321Y-58744770D01*
X119434674Y-58751472D01*
X119433710Y-58752463D01*
X119427295Y-58761037D01*
X119423191Y-58770754D01*
X119421396Y-58781616D01*
X119421721Y-58792058D01*
X119421938Y-58793618D01*
X119424658Y-58803656D01*
X119428780Y-58812912D01*
X119434589Y-58822978D01*
X119440450Y-58831613D01*
X119447391Y-58840767D01*
X119455411Y-58850438D01*
X119462134Y-58858032D01*
X119442791Y-58877375D01*
X119182869Y-58617453D01*
X119202212Y-58598110D01*
X119207543Y-58602701D01*
X119215534Y-58609077D01*
X119223520Y-58614840D01*
X119234157Y-58621571D01*
X119244784Y-58627210D01*
X119255400Y-58631760D01*
X119266005Y-58635220D01*
X119276600Y-58637589D01*
X119287183Y-58638868D01*
X119289878Y-58639011D01*
X119301658Y-58638778D01*
X119311545Y-58637756D01*
X119322334Y-58636009D01*
X119334025Y-58633536D01*
X119346617Y-58630338D01*
X119351731Y-58628851D01*
X119702713Y-58628851D01*
X119929131Y-58855268D01*
X120083357Y-58471689D01*
X119702713Y-58628851D01*
X119351731Y-58628851D01*
X119360111Y-58626414D01*
X119369608Y-58623395D01*
X119379505Y-58620054D01*
X119389803Y-58616390D01*
X119400502Y-58612404D01*
X119411602Y-58608095D01*
X119423103Y-58603463D01*
X120199588Y-58285685D01*
X120216513Y-58302610D01*
G37*
G36*
X119328683Y-57542821D02*
G01*
X119342695Y-57544270D01*
X119356548Y-57546447D01*
X119370244Y-57549354D01*
X119383782Y-57552989D01*
X119397162Y-57557352D01*
X119410384Y-57562444D01*
X119423448Y-57568265D01*
X119432180Y-57572563D01*
X119441061Y-57577297D01*
X119450093Y-57582467D01*
X119459274Y-57588072D01*
X119468605Y-57594114D01*
X119478085Y-57600591D01*
X119487715Y-57607504D01*
X119497496Y-57614852D01*
X119507426Y-57622637D01*
X119517505Y-57630857D01*
X119527735Y-57639514D01*
X119538114Y-57648606D01*
X119548643Y-57658133D01*
X119559322Y-57668097D01*
X119570150Y-57678496D01*
X119581128Y-57689332D01*
X119822398Y-57930602D01*
X119803055Y-57949945D01*
X119778358Y-57925248D01*
X119768946Y-57916505D01*
X119759447Y-57909014D01*
X119749862Y-57902775D01*
X119740190Y-57897788D01*
X119730433Y-57894053D01*
X119720588Y-57891570D01*
X119710658Y-57890340D01*
X119700641Y-57890361D01*
X119693028Y-57891821D01*
X119682017Y-57896295D01*
X119672013Y-57901993D01*
X119663811Y-57907502D01*
X119655012Y-57914071D01*
X119645614Y-57921700D01*
X119635619Y-57930388D01*
X119625025Y-57940136D01*
X119617631Y-57947223D01*
X119609970Y-57954781D01*
X119183387Y-58381364D01*
X119179897Y-58384873D01*
X119170027Y-58395026D01*
X119161058Y-58404618D01*
X119152991Y-58413648D01*
X119145826Y-58422117D01*
X119137675Y-58432534D01*
X119131127Y-58441954D01*
X119125197Y-58452324D01*
X119121386Y-58462708D01*
X119120420Y-58468351D01*
X119119686Y-58479555D01*
X119120549Y-58490651D01*
X119123010Y-58501640D01*
X119127069Y-58512520D01*
X119132725Y-58523293D01*
X119139978Y-58533957D01*
X119146467Y-58541885D01*
X119153854Y-58549752D01*
X119178551Y-58574449D01*
X119159208Y-58593792D01*
X118877007Y-58311591D01*
X118896350Y-58292248D01*
X118921738Y-58317635D01*
X118931107Y-58326330D01*
X118940563Y-58333762D01*
X118950105Y-58339931D01*
X118959733Y-58344837D01*
X118969448Y-58348480D01*
X118979249Y-58350860D01*
X118989136Y-58351977D01*
X118999110Y-58351831D01*
X119000946Y-58351674D01*
X119011116Y-58349099D01*
X119020442Y-58344889D01*
X119030826Y-58338769D01*
X119039308Y-58332925D01*
X119048385Y-58326006D01*
X119058057Y-58318013D01*
X119068324Y-58308945D01*
X119075500Y-58302302D01*
X119082940Y-58295182D01*
X119090644Y-58287585D01*
X119283902Y-58094327D01*
X119274430Y-58088120D01*
X119265185Y-58081935D01*
X119256166Y-58075772D01*
X119247374Y-58069630D01*
X119238809Y-58063510D01*
X119230471Y-58057411D01*
X119222359Y-58051334D01*
X119214474Y-58045278D01*
X119210596Y-58042236D01*
X119201153Y-58034649D01*
X119192074Y-58027088D01*
X119183356Y-58019551D01*
X119175002Y-58012040D01*
X119167010Y-58004554D01*
X119159381Y-57997093D01*
X119147617Y-57984935D01*
X119136592Y-57972723D01*
X119126304Y-57960459D01*
X119116755Y-57948142D01*
X119107944Y-57935773D01*
X119099870Y-57923351D01*
X119092535Y-57910876D01*
X119085938Y-57898349D01*
X119080079Y-57885769D01*
X119077052Y-57878303D01*
X119175519Y-57878303D01*
X119176150Y-57891969D01*
X119177709Y-57905192D01*
X119180198Y-57917972D01*
X119183615Y-57930309D01*
X119187961Y-57942202D01*
X119193237Y-57953653D01*
X119199441Y-57964660D01*
X119206574Y-57975223D01*
X119214636Y-57985344D01*
X119223627Y-57995021D01*
X119229230Y-58000453D01*
X119236502Y-58007098D01*
X119244568Y-58014073D01*
X119252113Y-58020314D01*
X119260241Y-58026799D01*
X119268887Y-58033462D01*
X119278116Y-58040367D01*
X119286252Y-58046307D01*
X119294793Y-58052416D01*
X119303739Y-58058693D01*
X119313089Y-58065140D01*
X119587173Y-57791055D01*
X119585321Y-57788077D01*
X119579822Y-57779414D01*
X119574408Y-57771158D01*
X119567322Y-57760782D01*
X119560387Y-57751129D01*
X119553603Y-57742200D01*
X119546970Y-57733993D01*
X119540488Y-57726510D01*
X119532598Y-57718174D01*
X119524872Y-57710770D01*
X119516980Y-57703842D01*
X119508920Y-57697392D01*
X119500693Y-57691418D01*
X119492300Y-57685920D01*
X119483739Y-57680900D01*
X119475012Y-57676355D01*
X119466117Y-57672288D01*
X119453998Y-57667606D01*
X119441582Y-57663771D01*
X119435284Y-57662153D01*
X119422596Y-57659697D01*
X119409783Y-57658283D01*
X119396847Y-57657911D01*
X119387063Y-57658315D01*
X119377209Y-57659305D01*
X119367285Y-57660881D01*
X119357292Y-57663043D01*
X119347228Y-57665791D01*
X119337095Y-57669125D01*
X119330362Y-57671592D01*
X119320431Y-57675640D01*
X119310704Y-57680103D01*
X119301180Y-57684982D01*
X119291859Y-57690277D01*
X119282742Y-57695988D01*
X119273828Y-57702115D01*
X119265118Y-57708657D01*
X119256611Y-57715616D01*
X119248307Y-57722991D01*
X119240207Y-57730781D01*
X119236380Y-57734681D01*
X119229075Y-57742560D01*
X119222237Y-57750548D01*
X119215865Y-57758643D01*
X119209961Y-57766847D01*
X119204524Y-57775158D01*
X119197243Y-57787828D01*
X119191012Y-57800740D01*
X119185832Y-57813896D01*
X119181702Y-57827294D01*
X119178623Y-57840935D01*
X119176594Y-57854819D01*
X119175615Y-57868946D01*
X119175519Y-57878303D01*
X119077052Y-57878303D01*
X119074957Y-57873137D01*
X119070574Y-57860451D01*
X119066929Y-57847714D01*
X119064022Y-57834923D01*
X119061853Y-57822080D01*
X119060423Y-57809185D01*
X119059730Y-57796237D01*
X119059753Y-57783331D01*
X119060426Y-57770606D01*
X119061750Y-57758062D01*
X119063723Y-57745699D01*
X119066348Y-57733516D01*
X119069622Y-57721514D01*
X119073547Y-57709693D01*
X119078123Y-57698053D01*
X119083349Y-57686594D01*
X119089225Y-57675316D01*
X119095751Y-57664218D01*
X119102928Y-57653301D01*
X119110755Y-57642565D01*
X119119232Y-57632010D01*
X119128360Y-57621635D01*
X119138138Y-57611441D01*
X119141870Y-57607778D01*
X119149445Y-57600751D01*
X119157168Y-57594124D01*
X119165039Y-57587895D01*
X119173059Y-57582067D01*
X119185368Y-57574072D01*
X119198010Y-57566976D01*
X119210986Y-57560779D01*
X119224296Y-57555481D01*
X119237940Y-57551081D01*
X119251918Y-57547579D01*
X119266230Y-57544977D01*
X119275957Y-57543741D01*
X119285702Y-57542845D01*
X119300187Y-57542108D01*
X119314514Y-57542100D01*
X119328683Y-57542821D01*
G37*
G36*
X118777183Y-57498837D02*
G01*
X118471148Y-57192803D01*
X118659570Y-57004381D01*
X118668780Y-56995283D01*
X118677498Y-56986902D01*
X118685724Y-56979238D01*
X118693459Y-56972290D01*
X118703006Y-56964140D01*
X118711679Y-56957264D01*
X118721291Y-56950461D01*
X118731022Y-56944923D01*
X118732452Y-56944279D01*
X118742560Y-56941305D01*
X118752531Y-56940520D01*
X118763430Y-56941484D01*
X118773729Y-56943761D01*
X118783652Y-56947017D01*
X118793128Y-56950956D01*
X118802157Y-56955578D01*
X118810739Y-56960883D01*
X118818874Y-56966871D01*
X118826563Y-56973543D01*
X118829513Y-56976402D01*
X118852828Y-56999718D01*
X118872171Y-56980375D01*
X118590315Y-56698519D01*
X118570972Y-56717862D01*
X118594288Y-56741177D01*
X118601241Y-56748678D01*
X118607527Y-56756609D01*
X118613148Y-56764970D01*
X118618102Y-56773762D01*
X118622390Y-56782983D01*
X118626012Y-56792635D01*
X118627274Y-56796616D01*
X118629815Y-56806733D01*
X118630637Y-56816686D01*
X118629740Y-56826473D01*
X118627123Y-56836095D01*
X118624857Y-56841519D01*
X118619681Y-56850451D01*
X118613300Y-56859368D01*
X118606841Y-56867468D01*
X118599179Y-56876426D01*
X118592642Y-56883707D01*
X118585429Y-56891471D01*
X118577538Y-56899718D01*
X118568970Y-56908448D01*
X118565964Y-56911465D01*
X118139726Y-57337703D01*
X118130547Y-57346769D01*
X118121857Y-57355122D01*
X118113656Y-57362762D01*
X118105943Y-57369688D01*
X118096420Y-57377814D01*
X118087766Y-57384671D01*
X118078170Y-57391458D01*
X118068447Y-57396988D01*
X118067017Y-57397632D01*
X118056880Y-57400716D01*
X118046998Y-57401623D01*
X118036296Y-57400802D01*
X118026258Y-57398668D01*
X118016136Y-57395312D01*
X118006495Y-57391291D01*
X117997334Y-57386603D01*
X117988654Y-57381249D01*
X117980455Y-57375229D01*
X117972736Y-57368542D01*
X117969784Y-57365681D01*
X117946468Y-57342366D01*
X117927125Y-57361709D01*
X118208981Y-57643565D01*
X118228324Y-57624222D01*
X118205009Y-57600906D01*
X118197835Y-57593311D01*
X118191469Y-57585679D01*
X118184237Y-57575446D01*
X118178440Y-57565148D01*
X118174080Y-57554786D01*
X118171154Y-57544359D01*
X118169665Y-57533867D01*
X118169611Y-57523310D01*
X118170122Y-57518008D01*
X118173397Y-57506516D01*
X118177779Y-57497600D01*
X118183921Y-57487680D01*
X118189682Y-57479582D01*
X118196433Y-57470918D01*
X118204173Y-57461690D01*
X118212903Y-57451898D01*
X118222623Y-57441540D01*
X118229653Y-57434322D01*
X118233333Y-57430619D01*
X118435226Y-57228725D01*
X118741260Y-57534760D01*
X118539367Y-57736653D01*
X118530157Y-57745751D01*
X118521440Y-57754132D01*
X118513213Y-57761796D01*
X118505479Y-57768744D01*
X118495932Y-57776894D01*
X118487259Y-57783769D01*
X118477647Y-57790573D01*
X118467916Y-57796110D01*
X118466485Y-57796755D01*
X118456294Y-57799812D01*
X118446272Y-57800648D01*
X118435343Y-57799715D01*
X118425036Y-57797446D01*
X118415063Y-57794239D01*
X118405546Y-57790342D01*
X118396484Y-57785753D01*
X118387877Y-57780472D01*
X118379726Y-57774500D01*
X118372030Y-57767836D01*
X118369079Y-57764977D01*
X118345246Y-57741143D01*
X118325903Y-57760487D01*
X118608277Y-58042860D01*
X118627620Y-58023517D01*
X118604305Y-58000202D01*
X118597037Y-57992515D01*
X118590583Y-57984804D01*
X118583243Y-57974485D01*
X118577349Y-57964123D01*
X118572902Y-57953717D01*
X118569901Y-57943269D01*
X118568347Y-57932777D01*
X118568239Y-57922242D01*
X118568727Y-57916958D01*
X118572172Y-57905648D01*
X118576641Y-57896840D01*
X118582847Y-57887018D01*
X118588643Y-57878985D01*
X118595416Y-57870381D01*
X118603166Y-57861207D01*
X118611894Y-57851462D01*
X118621600Y-57841146D01*
X118628613Y-57833952D01*
X118632283Y-57830260D01*
X119058521Y-57404022D01*
X119067760Y-57394892D01*
X119076501Y-57386479D01*
X119084744Y-57378782D01*
X119092490Y-57371801D01*
X119102043Y-57363609D01*
X119110710Y-57356690D01*
X119120300Y-57349832D01*
X119129982Y-57344230D01*
X119131403Y-57343575D01*
X119141623Y-57340574D01*
X119151556Y-57339718D01*
X119162288Y-57340568D01*
X119172334Y-57342711D01*
X119182456Y-57346067D01*
X119192097Y-57350088D01*
X119201258Y-57354776D01*
X119209938Y-57360130D01*
X119218137Y-57366151D01*
X119225856Y-57372837D01*
X119228809Y-57375698D01*
X119252124Y-57399013D01*
X119271467Y-57379670D01*
X118989093Y-57097296D01*
X118969750Y-57116639D01*
X118993583Y-57140473D01*
X119000536Y-57147974D01*
X119006823Y-57155905D01*
X119012444Y-57164266D01*
X119017398Y-57173058D01*
X119021686Y-57182279D01*
X119025308Y-57191930D01*
X119026570Y-57195911D01*
X119028925Y-57205827D01*
X119029644Y-57215627D01*
X119028463Y-57226686D01*
X119025675Y-57236238D01*
X119023980Y-57240297D01*
X119018928Y-57249340D01*
X119012640Y-57258322D01*
X119006250Y-57266456D01*
X118998651Y-57275431D01*
X118989843Y-57285248D01*
X118982444Y-57293164D01*
X118974364Y-57301553D01*
X118965605Y-57310415D01*
X118777183Y-57498837D01*
G37*
D11*
X121719312Y-57027504D02*
X122072865Y-57381058D01*
X121517281Y-57936642D02*
X122577941Y-56875981D01*
X122577941Y-56875981D02*
X122072865Y-56370905D01*
X120456621Y-56875982D02*
X120608144Y-56926489D01*
X120608144Y-56926489D02*
X120709159Y-56926489D01*
X120709159Y-56926489D02*
X120860682Y-56875982D01*
X120860682Y-56875982D02*
X121163728Y-56572936D01*
X121163728Y-56572936D02*
X121214236Y-56421413D01*
X121214236Y-56421413D02*
X121214236Y-56320398D01*
X121214236Y-56320398D02*
X121163728Y-56168875D01*
X121163728Y-56168875D02*
X121012205Y-56017352D01*
X121012205Y-56017352D02*
X120860682Y-55966844D01*
X120860682Y-55966844D02*
X120759667Y-55966844D01*
X120759667Y-55966844D02*
X120608144Y-56017352D01*
X120608144Y-56017352D02*
X120305098Y-56320398D01*
X120305098Y-56320398D02*
X120254591Y-56471921D01*
X120254591Y-56471921D02*
X120254591Y-56572936D01*
X120254591Y-56572936D02*
X120305098Y-56724459D01*
X120305098Y-56724459D02*
X120456621Y-56875982D01*
X120355606Y-55360753D02*
X119648499Y-56067859D01*
X120254591Y-55461768D02*
X120254591Y-55360753D01*
X120254591Y-55360753D02*
X120204083Y-55209230D01*
X120204083Y-55209230D02*
X120052560Y-55057707D01*
X120052560Y-55057707D02*
X119901037Y-55007199D01*
X119901037Y-55007199D02*
X119749514Y-55057707D01*
X119749514Y-55057707D02*
X119193930Y-55613291D01*
X118537331Y-54956692D02*
X118688854Y-55007199D01*
X118688854Y-55007199D02*
X118789869Y-55007199D01*
X118789869Y-55007199D02*
X118941392Y-54956692D01*
X118941392Y-54956692D02*
X119244438Y-54653646D01*
X119244438Y-54653646D02*
X119294946Y-54502123D01*
X119294946Y-54502123D02*
X119294946Y-54401108D01*
X119294946Y-54401108D02*
X119244438Y-54249585D01*
X119244438Y-54249585D02*
X119092915Y-54098062D01*
X119092915Y-54098062D02*
X118941392Y-54047554D01*
X118941392Y-54047554D02*
X118840377Y-54047554D01*
X118840377Y-54047554D02*
X118688854Y-54098062D01*
X118688854Y-54098062D02*
X118385808Y-54401108D01*
X118385808Y-54401108D02*
X118335301Y-54552630D01*
X118335301Y-54552630D02*
X118335301Y-54653646D01*
X118335301Y-54653646D02*
X118385808Y-54805169D01*
X118385808Y-54805169D02*
X118537331Y-54956692D01*
X117880732Y-54502123D02*
X117072610Y-53694001D01*
X118133270Y-52431310D02*
X116719057Y-53138417D01*
X116719057Y-53138417D02*
X117426163Y-51724203D01*
X117173625Y-51471665D02*
X116517026Y-50815066D01*
X116517026Y-50815066D02*
X116466519Y-51572681D01*
X116466519Y-51572681D02*
X116314996Y-51421158D01*
X116314996Y-51421158D02*
X116163473Y-51370650D01*
X116163473Y-51370650D02*
X116062458Y-51370650D01*
X116062458Y-51370650D02*
X115910935Y-51421158D01*
X115910935Y-51421158D02*
X115658397Y-51673696D01*
X115658397Y-51673696D02*
X115607889Y-51825219D01*
X115607889Y-51825219D02*
X115607889Y-51926234D01*
X115607889Y-51926234D02*
X115658397Y-52077757D01*
X115658397Y-52077757D02*
X115961442Y-52380803D01*
X115961442Y-52380803D02*
X116112965Y-52431310D01*
X116112965Y-52431310D02*
X116213981Y-52431310D01*
X114496722Y-50714051D02*
X114496722Y-50815067D01*
X114496722Y-50815067D02*
X114597737Y-51017097D01*
X114597737Y-51017097D02*
X114698752Y-51118112D01*
X114698752Y-51118112D02*
X114900783Y-51219128D01*
X114900783Y-51219128D02*
X115102813Y-51219128D01*
X115102813Y-51219128D02*
X115254336Y-51168620D01*
X115254336Y-51168620D02*
X115506874Y-51017097D01*
X115506874Y-51017097D02*
X115658397Y-50865574D01*
X115658397Y-50865574D02*
X115809920Y-50613036D01*
X115809920Y-50613036D02*
X115860427Y-50461513D01*
X115860427Y-50461513D02*
X115860427Y-50259483D01*
X115860427Y-50259483D02*
X115759412Y-50057452D01*
X115759412Y-50057452D02*
X115658397Y-49956437D01*
X115658397Y-49956437D02*
X115456366Y-49855422D01*
X115456366Y-49855422D02*
X115355351Y-49855422D01*
D12*
G36*
X102472140Y-79692059D02*
G01*
X102497069Y-79692915D01*
X102522760Y-79694284D01*
X102575786Y-79698424D01*
X102629942Y-79704351D01*
X102683938Y-79711871D01*
X102736488Y-79720860D01*
X102761823Y-79725844D01*
X102786319Y-79731135D01*
X102809800Y-79736701D01*
X102832115Y-79742530D01*
X102908064Y-79765761D01*
X102982516Y-79793226D01*
X103055312Y-79824789D01*
X103126279Y-79860319D01*
X103195271Y-79899681D01*
X103262126Y-79942739D01*
X103326684Y-79989343D01*
X103388789Y-80039391D01*
X103448283Y-80092714D01*
X103504997Y-80149190D01*
X103558783Y-80208685D01*
X103609470Y-80271074D01*
X103656909Y-80336193D01*
X103700936Y-80403937D01*
X103741396Y-80474150D01*
X103778121Y-80546712D01*
X103806873Y-80611860D01*
X103832379Y-80678655D01*
X103854624Y-80746950D01*
X103873614Y-80816628D01*
X103889323Y-80887579D01*
X103901766Y-80959656D01*
X103910920Y-81032755D01*
X103916772Y-81106751D01*
X103919345Y-81181523D01*
X103918596Y-81256933D01*
X103914547Y-81332873D01*
X103907178Y-81409211D01*
X103896479Y-81485822D01*
X103882451Y-81562602D01*
X103865073Y-81639406D01*
X103844367Y-81716120D01*
X103839551Y-81732766D01*
X103835129Y-81748462D01*
X103831177Y-81762847D01*
X103827791Y-81775564D01*
X103825059Y-81786272D01*
X103823083Y-81794599D01*
X103822408Y-81797765D01*
X103821955Y-81800213D01*
X103821743Y-81801876D01*
X103821721Y-81802405D01*
X103821769Y-81802722D01*
X103821900Y-81802933D01*
X103822161Y-81803118D01*
X103823027Y-81803431D01*
X103824329Y-81803666D01*
X103826057Y-81803827D01*
X103828171Y-81803907D01*
X103830655Y-81803909D01*
X103836634Y-81803717D01*
X103843780Y-81803238D01*
X103851891Y-81802496D01*
X103860783Y-81801494D01*
X103870257Y-81800239D01*
X103881244Y-81798802D01*
X103894509Y-81797244D01*
X103925798Y-81794026D01*
X103960092Y-81790950D01*
X103993364Y-81788429D01*
X104107308Y-81784097D01*
X104219219Y-81786591D01*
X104328866Y-81795803D01*
X104436036Y-81811628D01*
X104540521Y-81833961D01*
X104642078Y-81862700D01*
X104740500Y-81897738D01*
X104835554Y-81938966D01*
X104927036Y-81986292D01*
X105014704Y-82039602D01*
X105098358Y-82098792D01*
X105177759Y-82163751D01*
X105252707Y-82234378D01*
X105322962Y-82310587D01*
X105388308Y-82392242D01*
X105448533Y-82479258D01*
X105480109Y-82530515D01*
X105509454Y-82582447D01*
X105536559Y-82635014D01*
X105561411Y-82688205D01*
X105584000Y-82741960D01*
X105604311Y-82796254D01*
X105622354Y-82851048D01*
X105638100Y-82906318D01*
X105651557Y-82962020D01*
X105662692Y-83018120D01*
X105671523Y-83074579D01*
X105678023Y-83131368D01*
X105682185Y-83188449D01*
X105684000Y-83245792D01*
X105683475Y-83303353D01*
X105680573Y-83361102D01*
X105677986Y-83393608D01*
X105674833Y-83425482D01*
X105671107Y-83456776D01*
X105666806Y-83487550D01*
X105661905Y-83517860D01*
X105656390Y-83547747D01*
X105650248Y-83577279D01*
X105643473Y-83606496D01*
X105636052Y-83635467D01*
X105627960Y-83664248D01*
X105619199Y-83692866D01*
X105609738Y-83721391D01*
X105599577Y-83749902D01*
X105588712Y-83778407D01*
X105577105Y-83807000D01*
X105564768Y-83835701D01*
X105542605Y-83883718D01*
X105519142Y-83930365D01*
X105494274Y-83975779D01*
X105467888Y-84020044D01*
X105439900Y-84063309D01*
X105410196Y-84105672D01*
X105378686Y-84147267D01*
X105345270Y-84188201D01*
X105309843Y-84228591D01*
X105272317Y-84268562D01*
X105232583Y-84308236D01*
X105190544Y-84347719D01*
X105146094Y-84387124D01*
X105099136Y-84426588D01*
X105049571Y-84466206D01*
X104997305Y-84506121D01*
X104888830Y-84584255D01*
X104781987Y-84655092D01*
X104676116Y-84718782D01*
X104570567Y-84775502D01*
X104464672Y-84825395D01*
X104357784Y-84868634D01*
X104249232Y-84905368D01*
X104138364Y-84935767D01*
X104024519Y-84959980D01*
X103907038Y-84978180D01*
X103785254Y-84990518D01*
X103658517Y-84997161D01*
X103526170Y-84998262D01*
X103387543Y-84993993D01*
X103241985Y-84984498D01*
X103088829Y-84969956D01*
X102910904Y-84949250D01*
X102713240Y-84922258D01*
X102442963Y-84881296D01*
X102047200Y-84818691D01*
X101615601Y-84750988D01*
X101256389Y-84697552D01*
X100939612Y-84654084D01*
X100635352Y-84616283D01*
X100607316Y-84612903D01*
X100581037Y-84609604D01*
X100557101Y-84606480D01*
X100536095Y-84603589D01*
X100518598Y-84601036D01*
X100505197Y-84598892D01*
X100496482Y-84597252D01*
X100494052Y-84596637D01*
X100493354Y-84596395D01*
X100493024Y-84596173D01*
X100492745Y-84595082D01*
X100492570Y-84592589D01*
X100492458Y-84583713D01*
X100493200Y-84552467D01*
X100495091Y-84507160D01*
X100497957Y-84452496D01*
X100514074Y-84134434D01*
X100526659Y-83793495D01*
X100537030Y-83386242D01*
X100546498Y-82869254D01*
X100553253Y-82510321D01*
X100556876Y-82370810D01*
X100560946Y-82250794D01*
X100565661Y-82144921D01*
X100571244Y-82047847D01*
X100577890Y-81954213D01*
X100585814Y-81858662D01*
X100593014Y-81781354D01*
X100600749Y-81706011D01*
X100608111Y-81641267D01*
X100611352Y-81615571D01*
X100614134Y-81595759D01*
X100632938Y-81484250D01*
X100654511Y-81377619D01*
X100679060Y-81275484D01*
X100706783Y-81177438D01*
X100737906Y-81083090D01*
X100772632Y-80992040D01*
X100811164Y-80903896D01*
X100853721Y-80818253D01*
X100900503Y-80734740D01*
X100951723Y-80652943D01*
X101007591Y-80572459D01*
X101068312Y-80492898D01*
X101134102Y-80413880D01*
X101205163Y-80334998D01*
X101281705Y-80255852D01*
X101363947Y-80176036D01*
X101424288Y-80120678D01*
X101483475Y-80069481D01*
X101541750Y-80022279D01*
X101599355Y-79978889D01*
X101656542Y-79939146D01*
X101685044Y-79920577D01*
X101713530Y-79902852D01*
X101742043Y-79885949D01*
X101770596Y-79869855D01*
X101799222Y-79854522D01*
X101827965Y-79839946D01*
X101862312Y-79823645D01*
X101897487Y-79808169D01*
X101933409Y-79793559D01*
X101969968Y-79779823D01*
X102007090Y-79766986D01*
X102044666Y-79755073D01*
X102082612Y-79744109D01*
X102120829Y-79734124D01*
X102159224Y-79725126D01*
X102197711Y-79717150D01*
X102236186Y-79710208D01*
X102274566Y-79704334D01*
X102312754Y-79699544D01*
X102350652Y-79695866D01*
X102388175Y-79693325D01*
X102425218Y-79691934D01*
X102448141Y-79691727D01*
X102472140Y-79692059D01*
G37*
G36*
X109862898Y-48099783D02*
G01*
X109938589Y-48070713D01*
X110165652Y-48295844D01*
X110392720Y-48520976D01*
X110347960Y-48635303D01*
X110330563Y-48680129D01*
X110316285Y-48717662D01*
X110306597Y-48743968D01*
X110303934Y-48751682D01*
X110302976Y-48755124D01*
X110303061Y-48755365D01*
X110303348Y-48755532D01*
X110303818Y-48755622D01*
X110304479Y-48755639D01*
X110306339Y-48755444D01*
X110308888Y-48754969D01*
X110312090Y-48754230D01*
X110315893Y-48753224D01*
X110320266Y-48751982D01*
X110325177Y-48750499D01*
X110336418Y-48746883D01*
X110349323Y-48742474D01*
X110363580Y-48737375D01*
X110378861Y-48731671D01*
X110394402Y-48725882D01*
X110408939Y-48720717D01*
X110422559Y-48716173D01*
X110435339Y-48712232D01*
X110447374Y-48708882D01*
X110458734Y-48706113D01*
X110469508Y-48703919D01*
X110479782Y-48702289D01*
X110489633Y-48701203D01*
X110499145Y-48700663D01*
X110508405Y-48700641D01*
X110517493Y-48701142D01*
X110526486Y-48702138D01*
X110535476Y-48703638D01*
X110544545Y-48705613D01*
X110553768Y-48708060D01*
X110584869Y-48716989D01*
X111393098Y-49525213D01*
X111401889Y-49552372D01*
X111403393Y-49557360D01*
X111404725Y-49562460D01*
X111405869Y-49567679D01*
X111406831Y-49573007D01*
X111407619Y-49578465D01*
X111408215Y-49584055D01*
X111408626Y-49589779D01*
X111408856Y-49595641D01*
X111408897Y-49601639D01*
X111408754Y-49607791D01*
X111407892Y-49620556D01*
X111406270Y-49633975D01*
X111403883Y-49648072D01*
X111400723Y-49662888D01*
X111396778Y-49678468D01*
X111392049Y-49694849D01*
X111386515Y-49712071D01*
X111380181Y-49730159D01*
X111373038Y-49749156D01*
X111365076Y-49769099D01*
X111356289Y-49790033D01*
X111355557Y-49791794D01*
X111354910Y-49793499D01*
X111354338Y-49795143D01*
X111353846Y-49796719D01*
X111353433Y-49798208D01*
X111353097Y-49799620D01*
X111352848Y-49800921D01*
X111352680Y-49802126D01*
X111352595Y-49803215D01*
X111352596Y-49804179D01*
X111352684Y-49805006D01*
X111352861Y-49805699D01*
X111352973Y-49805995D01*
X111353122Y-49806244D01*
X111353282Y-49806456D01*
X111353469Y-49806631D01*
X111353677Y-49806756D01*
X111353905Y-49806850D01*
X111354160Y-49806896D01*
X111354439Y-49806896D01*
X111355604Y-49806616D01*
X111357902Y-49805902D01*
X111365660Y-49803225D01*
X111392090Y-49793577D01*
X111429781Y-49779406D01*
X111474775Y-49762181D01*
X111589536Y-49717913D01*
X111814586Y-49944836D01*
X112039635Y-50171754D01*
X111840114Y-50690656D01*
X111473426Y-51644805D01*
X111299205Y-52097336D01*
X111292164Y-52114617D01*
X110842627Y-51665087D01*
X110858368Y-51622823D01*
X111089192Y-51021107D01*
X111241170Y-50624502D01*
X111304532Y-50456587D01*
X111304391Y-50456386D01*
X111303943Y-50456306D01*
X111302164Y-50456496D01*
X111299252Y-50457151D01*
X111295265Y-50458225D01*
X111284327Y-50461597D01*
X111269833Y-50466439D01*
X111252280Y-50472593D01*
X111232136Y-50479893D01*
X111209906Y-50488163D01*
X111186058Y-50497245D01*
X111067325Y-50542966D01*
X110891206Y-51000960D01*
X110704178Y-51487344D01*
X110693286Y-51515744D01*
X110242053Y-51064509D01*
X110286793Y-50950221D01*
X110304177Y-50905409D01*
X110318444Y-50867879D01*
X110328120Y-50841571D01*
X110330777Y-50833852D01*
X110331728Y-50830411D01*
X110331642Y-50830162D01*
X110331357Y-50829994D01*
X110330879Y-50829904D01*
X110330210Y-50829891D01*
X110328352Y-50830076D01*
X110325800Y-50830545D01*
X110322597Y-50831285D01*
X110318795Y-50832283D01*
X110314414Y-50833527D01*
X110309507Y-50835007D01*
X110298256Y-50838622D01*
X110285351Y-50843022D01*
X110271098Y-50848122D01*
X110255811Y-50853823D01*
X110240272Y-50859615D01*
X110225733Y-50864775D01*
X110212113Y-50869326D01*
X110199327Y-50873266D01*
X110187301Y-50876618D01*
X110175939Y-50879384D01*
X110165160Y-50881573D01*
X110154889Y-50883211D01*
X110145033Y-50884292D01*
X110135522Y-50884839D01*
X110126265Y-50884861D01*
X110117172Y-50884360D01*
X110108177Y-50883355D01*
X110099188Y-50881861D01*
X110090122Y-50879882D01*
X110080891Y-50877436D01*
X110049795Y-50868507D01*
X109241575Y-50060282D01*
X109232780Y-50033124D01*
X109231272Y-50028135D01*
X109229947Y-50023036D01*
X109228799Y-50017822D01*
X109227830Y-50012487D01*
X109227054Y-50007031D01*
X109226457Y-50001440D01*
X109226045Y-49995721D01*
X109225815Y-49989857D01*
X109225770Y-49983853D01*
X109225920Y-49977702D01*
X109225921Y-49977684D01*
X109299926Y-49977684D01*
X109300114Y-49982589D01*
X109300504Y-49987468D01*
X109301090Y-49992316D01*
X109301884Y-49997134D01*
X109302876Y-50001925D01*
X109304059Y-50006673D01*
X109305439Y-50011383D01*
X109306013Y-50012898D01*
X109306871Y-50014635D01*
X109309595Y-50019000D01*
X109314010Y-50024863D01*
X109320476Y-50032600D01*
X109329386Y-50042605D01*
X109341099Y-50055268D01*
X109356002Y-50070975D01*
X109374471Y-50090118D01*
X109423599Y-50140244D01*
X109491496Y-50208741D01*
X109581178Y-50298735D01*
X109695653Y-50413294D01*
X109902361Y-50619668D01*
X110020914Y-50736625D01*
X110077712Y-50789803D01*
X110091225Y-50800479D01*
X110099202Y-50804831D01*
X110099205Y-50804831D01*
X110102153Y-50805830D01*
X110105097Y-50806731D01*
X110108047Y-50807518D01*
X110111029Y-50808202D01*
X110114051Y-50808774D01*
X110117122Y-50809221D01*
X110120276Y-50809549D01*
X110123513Y-50809762D01*
X110126848Y-50809838D01*
X110130300Y-50809792D01*
X110133896Y-50809607D01*
X110137630Y-50809289D01*
X110141527Y-50808832D01*
X110145608Y-50808228D01*
X110149888Y-50807482D01*
X110154365Y-50806584D01*
X110159075Y-50805530D01*
X110164022Y-50804330D01*
X110174699Y-50801437D01*
X110186531Y-50797884D01*
X110199624Y-50793643D01*
X110214106Y-50788687D01*
X110230106Y-50782990D01*
X110247739Y-50776526D01*
X110267132Y-50769272D01*
X110371378Y-50729956D01*
X110459914Y-50498522D01*
X110479124Y-50448493D01*
X111104039Y-50448493D01*
X111120058Y-50442066D01*
X111514650Y-50290357D01*
X111899924Y-50142346D01*
X111900308Y-50142043D01*
X111900464Y-50141544D01*
X111900368Y-50140830D01*
X111900014Y-50139891D01*
X111899390Y-50138714D01*
X111898480Y-50137292D01*
X111895781Y-50133645D01*
X111891810Y-50128853D01*
X111886479Y-50122822D01*
X111879701Y-50115450D01*
X111871372Y-50106644D01*
X111861398Y-50096304D01*
X111849693Y-50084338D01*
X111820712Y-50055110D01*
X111783685Y-50018187D01*
X111737856Y-49972798D01*
X111569084Y-49805971D01*
X111444800Y-49853814D01*
X111396104Y-49872799D01*
X111355378Y-49889132D01*
X111326892Y-49901068D01*
X111318572Y-49904850D01*
X111314905Y-49906873D01*
X111307702Y-49922928D01*
X111290964Y-49964092D01*
X111237940Y-50098508D01*
X111174000Y-50263660D01*
X111117263Y-50413073D01*
X111104039Y-50448493D01*
X110479124Y-50448493D01*
X110527037Y-50323708D01*
X110564074Y-50228416D01*
X110567100Y-50220652D01*
X110569708Y-50213418D01*
X110571860Y-50206872D01*
X110573514Y-50201170D01*
X110574131Y-50198682D01*
X110574619Y-50196471D01*
X110574952Y-50194544D01*
X110575141Y-50192931D01*
X110575171Y-50191645D01*
X110575034Y-50190711D01*
X110574904Y-50190380D01*
X110574738Y-50190143D01*
X110574524Y-50190003D01*
X110574263Y-50189967D01*
X110568272Y-50191902D01*
X110553202Y-50197368D01*
X110499858Y-50217370D01*
X110422306Y-50246915D01*
X110328594Y-50282956D01*
X110149049Y-50351520D01*
X110086743Y-50374748D01*
X110054726Y-50386091D01*
X110045754Y-50388653D01*
X110036648Y-50390838D01*
X110027444Y-50392659D01*
X110018147Y-50394113D01*
X110008767Y-50395214D01*
X109999332Y-50395957D01*
X109989843Y-50396351D01*
X109980321Y-50396402D01*
X109970781Y-50396106D01*
X109961232Y-50395477D01*
X109951699Y-50394513D01*
X109942178Y-50393220D01*
X109932697Y-50391602D01*
X109923273Y-50389664D01*
X109913900Y-50387410D01*
X109904619Y-50384842D01*
X109895431Y-50381969D01*
X109886346Y-50378787D01*
X109877386Y-50375303D01*
X109868557Y-50371531D01*
X109859887Y-50367461D01*
X109851378Y-50363107D01*
X109843051Y-50358470D01*
X109834918Y-50353553D01*
X109826990Y-50348371D01*
X109819287Y-50342906D01*
X109811818Y-50337183D01*
X109804599Y-50331190D01*
X109797646Y-50324944D01*
X109790970Y-50318444D01*
X109784590Y-50311695D01*
X109778520Y-50304700D01*
X109767837Y-50290976D01*
X109758061Y-50276624D01*
X109749216Y-50261716D01*
X109741310Y-50246333D01*
X109734358Y-50230544D01*
X109728367Y-50214409D01*
X109723374Y-50198008D01*
X109719373Y-50181408D01*
X109716384Y-50164680D01*
X109714425Y-50147889D01*
X109713503Y-50131114D01*
X109713554Y-50125304D01*
X109790333Y-50125304D01*
X109790424Y-50134119D01*
X109790782Y-50142942D01*
X109791398Y-50151663D01*
X109792257Y-50160193D01*
X109793378Y-50168432D01*
X109794744Y-50176280D01*
X109796354Y-50183648D01*
X109798216Y-50190437D01*
X109800311Y-50196543D01*
X109804049Y-50205562D01*
X109808169Y-50214306D01*
X109812680Y-50222784D01*
X109817564Y-50230987D01*
X109822822Y-50238898D01*
X109828448Y-50246520D01*
X109834438Y-50253853D01*
X109840780Y-50260878D01*
X109847475Y-50267598D01*
X109854518Y-50273996D01*
X109861898Y-50280084D01*
X109869612Y-50285843D01*
X109877653Y-50291274D01*
X109886024Y-50296370D01*
X109894701Y-50301114D01*
X109903700Y-50305511D01*
X109910447Y-50308329D01*
X109917803Y-50310838D01*
X109925681Y-50313044D01*
X109933995Y-50314941D01*
X109942675Y-50316527D01*
X109951639Y-50317792D01*
X109960803Y-50318731D01*
X109970082Y-50319353D01*
X109979405Y-50319644D01*
X109988686Y-50319598D01*
X109997850Y-50319219D01*
X110006806Y-50318495D01*
X110015480Y-50317430D01*
X110023797Y-50316015D01*
X110031670Y-50314242D01*
X110039017Y-50312115D01*
X110145705Y-50272329D01*
X110340889Y-50197504D01*
X110529150Y-50124444D01*
X110615066Y-50089962D01*
X110649475Y-50003978D01*
X110722481Y-49815475D01*
X110797253Y-49620120D01*
X110836959Y-49513598D01*
X110838613Y-49507884D01*
X110840061Y-49501544D01*
X110841305Y-49494692D01*
X110842336Y-49487390D01*
X110843168Y-49479744D01*
X110843777Y-49471835D01*
X110844181Y-49463761D01*
X110844381Y-49455608D01*
X110844361Y-49447475D01*
X110844124Y-49439434D01*
X110843916Y-49435885D01*
X110843673Y-49431593D01*
X110843008Y-49424032D01*
X110842126Y-49416850D01*
X110841028Y-49410126D01*
X110839708Y-49403957D01*
X110838170Y-49398439D01*
X110834994Y-49389476D01*
X110831190Y-49380536D01*
X110826800Y-49371654D01*
X110821859Y-49362879D01*
X110816408Y-49354245D01*
X110810487Y-49345798D01*
X110804124Y-49337582D01*
X110797363Y-49329641D01*
X110790239Y-49322006D01*
X110782793Y-49314743D01*
X110775057Y-49307865D01*
X110767083Y-49301429D01*
X110758890Y-49295478D01*
X110750520Y-49290046D01*
X110742018Y-49285187D01*
X110733423Y-49280932D01*
X110726254Y-49277957D01*
X110718555Y-49275294D01*
X110710404Y-49272951D01*
X110701866Y-49270923D01*
X110693021Y-49269224D01*
X110683943Y-49267861D01*
X110674691Y-49266823D01*
X110665359Y-49266134D01*
X110656001Y-49265775D01*
X110646694Y-49265770D01*
X110637523Y-49266114D01*
X110628559Y-49266820D01*
X110619854Y-49267871D01*
X110611511Y-49269293D01*
X110603578Y-49271081D01*
X110596151Y-49273243D01*
X110489814Y-49312913D01*
X110294445Y-49387769D01*
X110105841Y-49460883D01*
X110019804Y-49495338D01*
X109985499Y-49581146D01*
X109912270Y-49769707D01*
X109837134Y-49965173D01*
X109797111Y-50071712D01*
X109795330Y-50077824D01*
X109793816Y-50084602D01*
X109792588Y-50091966D01*
X109791622Y-50099814D01*
X109790929Y-50108055D01*
X109790498Y-50116577D01*
X109790333Y-50125304D01*
X109713554Y-50125304D01*
X109713649Y-50114421D01*
X109714864Y-50097882D01*
X109717167Y-50081566D01*
X109720569Y-50065546D01*
X109725094Y-50049888D01*
X109743640Y-50000275D01*
X109808424Y-49830831D01*
X109960134Y-49435671D01*
X110177118Y-48870497D01*
X110265158Y-48639751D01*
X110291969Y-48568290D01*
X110301852Y-48540532D01*
X110301008Y-48539119D01*
X110298486Y-48536069D01*
X110288799Y-48525425D01*
X110273460Y-48509293D01*
X110253147Y-48488379D01*
X110200340Y-48434973D01*
X110135845Y-48370785D01*
X109969692Y-48206582D01*
X109823090Y-48587567D01*
X109307133Y-49932891D01*
X109305541Y-49937897D01*
X109304142Y-49942904D01*
X109302944Y-49947897D01*
X109301947Y-49952894D01*
X109301145Y-49957880D01*
X109300542Y-49962860D01*
X109300142Y-49967821D01*
X109299933Y-49972760D01*
X109299926Y-49977684D01*
X109225921Y-49977684D01*
X109226777Y-49964943D01*
X109228403Y-49951524D01*
X109230786Y-49937426D01*
X109233948Y-49922608D01*
X109237890Y-49907027D01*
X109242626Y-49890647D01*
X109248155Y-49873428D01*
X109254483Y-49855343D01*
X109261634Y-49836343D01*
X109269596Y-49816400D01*
X109278387Y-49795466D01*
X109279111Y-49793700D01*
X109279757Y-49791994D01*
X109280334Y-49790352D01*
X109280824Y-49788775D01*
X109281236Y-49787279D01*
X109281566Y-49785874D01*
X109281818Y-49784565D01*
X109281976Y-49783361D01*
X109282062Y-49782271D01*
X109282059Y-49781305D01*
X109281969Y-49780469D01*
X109281789Y-49779770D01*
X109281671Y-49779484D01*
X109281530Y-49779228D01*
X109281366Y-49779013D01*
X109281171Y-49778840D01*
X109280965Y-49778706D01*
X109280734Y-49778618D01*
X109280472Y-49778568D01*
X109280198Y-49778572D01*
X109279030Y-49778840D01*
X109276727Y-49779556D01*
X109268969Y-49782222D01*
X109242541Y-49791863D01*
X109204865Y-49806030D01*
X109159891Y-49823246D01*
X109045210Y-49867514D01*
X108594511Y-49416967D01*
X108617320Y-49407969D01*
X109103426Y-49220947D01*
X109566728Y-49042927D01*
X109613038Y-48924113D01*
X109630592Y-48877994D01*
X109644129Y-48840260D01*
X109648983Y-48825752D01*
X109652331Y-48814798D01*
X109654012Y-48807887D01*
X109654172Y-48806094D01*
X109654070Y-48805645D01*
X109653845Y-48805500D01*
X109605878Y-48823225D01*
X109479334Y-48871335D01*
X109067489Y-49029335D01*
X108465529Y-49259916D01*
X108444426Y-49266881D01*
X107995461Y-48817914D01*
X108012711Y-48810842D01*
X108538228Y-48608581D01*
X109492548Y-48242055D01*
X109862898Y-48099783D01*
G37*
D10*
X112649000Y-65786000D02*
G75*
G03*
X112649000Y-65786000I-359210J0D01*
G01*
D12*
G36*
X94589806Y-63002480D02*
G01*
X94711107Y-62857914D01*
X94831242Y-62847404D01*
X94951364Y-62836892D01*
X95041538Y-62751871D01*
X95131705Y-62666849D01*
X95111820Y-62585400D01*
X95091935Y-62503954D01*
X95167947Y-62567734D01*
X95174099Y-62525515D01*
X95180240Y-62483291D01*
X95224530Y-62500792D01*
X95268823Y-62518293D01*
X95299585Y-62381300D01*
X95330352Y-62244297D01*
X95390977Y-62210682D01*
X95451604Y-62177068D01*
X95470482Y-62359932D01*
X95489362Y-62542798D01*
X95565239Y-62543206D01*
X95641121Y-62543620D01*
X95622041Y-62634573D01*
X95620310Y-62644016D01*
X95619024Y-62653527D01*
X95618181Y-62663055D01*
X95617779Y-62672532D01*
X95617793Y-62681883D01*
X95618225Y-62691062D01*
X95619050Y-62699998D01*
X95620265Y-62708628D01*
X95621868Y-62716887D01*
X95623838Y-62724713D01*
X95626159Y-62732029D01*
X95628834Y-62738793D01*
X95631843Y-62744931D01*
X95635180Y-62750378D01*
X95636964Y-62752820D01*
X95638834Y-62755068D01*
X95640774Y-62757115D01*
X95642788Y-62758941D01*
X95644839Y-62760798D01*
X95646867Y-62762906D01*
X95650870Y-62767841D01*
X95654781Y-62773684D01*
X95658569Y-62780356D01*
X95662213Y-62787798D01*
X95665701Y-62795928D01*
X95668998Y-62804671D01*
X95672089Y-62813966D01*
X95674949Y-62823733D01*
X95677560Y-62833907D01*
X95679893Y-62844401D01*
X95681920Y-62855168D01*
X95683635Y-62866110D01*
X95684996Y-62877167D01*
X95686000Y-62888268D01*
X95686618Y-62899335D01*
X95687164Y-62910353D01*
X95687985Y-62921297D01*
X95689040Y-62932095D01*
X95690338Y-62942693D01*
X95691845Y-62953010D01*
X95693547Y-62962987D01*
X95695445Y-62972549D01*
X95697501Y-62981650D01*
X95699709Y-62990202D01*
X95702051Y-62998142D01*
X95704513Y-63005420D01*
X95707079Y-63011944D01*
X95709725Y-63017669D01*
X95712452Y-63022516D01*
X95715228Y-63026420D01*
X95716622Y-63028004D01*
X95718040Y-63029314D01*
X95745456Y-63052319D01*
X95754825Y-62945041D01*
X95764195Y-62837759D01*
X95920064Y-62652002D01*
X96020507Y-62625102D01*
X96120952Y-62598205D01*
X96245835Y-62649846D01*
X96259138Y-62655638D01*
X96273204Y-62662302D01*
X96303167Y-62677925D01*
X96334738Y-62696107D01*
X96366947Y-62716206D01*
X96398822Y-62737601D01*
X96429401Y-62759661D01*
X96457704Y-62781744D01*
X96470705Y-62792604D01*
X96482765Y-62803236D01*
X96594812Y-62904991D01*
X96479206Y-62900091D01*
X96455418Y-62898658D01*
X96432136Y-62896452D01*
X96409951Y-62893590D01*
X96389445Y-62890163D01*
X96380007Y-62888283D01*
X96371208Y-62886305D01*
X96363126Y-62884238D01*
X96355825Y-62882106D01*
X96349393Y-62879926D01*
X96343896Y-62877700D01*
X96339396Y-62875444D01*
X96335985Y-62873174D01*
X96334454Y-62872071D01*
X96332726Y-62871036D01*
X96330807Y-62870060D01*
X96328700Y-62869143D01*
X96323951Y-62867515D01*
X96318550Y-62866151D01*
X96312547Y-62865034D01*
X96305993Y-62864193D01*
X96298961Y-62863612D01*
X96291501Y-62863295D01*
X96283668Y-62863245D01*
X96275519Y-62863460D01*
X96267125Y-62863948D01*
X96258531Y-62864706D01*
X96249792Y-62865733D01*
X96240977Y-62867037D01*
X96232139Y-62868610D01*
X96223331Y-62870466D01*
X96214513Y-62872611D01*
X96205639Y-62875037D01*
X96196760Y-62877728D01*
X96187941Y-62880642D01*
X96179239Y-62883766D01*
X96170714Y-62887061D01*
X96162424Y-62890510D01*
X96154425Y-62894080D01*
X96146790Y-62897738D01*
X96139563Y-62901464D01*
X96132806Y-62905238D01*
X96126580Y-62909017D01*
X96120948Y-62912788D01*
X96115963Y-62916506D01*
X96111690Y-62920166D01*
X96108170Y-62923719D01*
X96106679Y-62925540D01*
X96105283Y-62927487D01*
X96103987Y-62929566D01*
X96102804Y-62931769D01*
X96101726Y-62934083D01*
X96100747Y-62936503D01*
X96099885Y-62939027D01*
X96099116Y-62941653D01*
X96098452Y-62944362D01*
X96097892Y-62947158D01*
X96097083Y-62952983D01*
X96096691Y-62959069D01*
X96096704Y-62965376D01*
X96097126Y-62971850D01*
X96097964Y-62978442D01*
X96099206Y-62985116D01*
X96100847Y-62991813D01*
X96102893Y-62998477D01*
X96105339Y-63005077D01*
X96108185Y-63011552D01*
X96111427Y-63017865D01*
X96144807Y-63078067D01*
X96195894Y-62986576D01*
X96246973Y-62895091D01*
X96305014Y-62915082D01*
X96363037Y-62935065D01*
X96403505Y-63036010D01*
X96443971Y-63136953D01*
X96412325Y-63218676D01*
X96408910Y-63227147D01*
X96405221Y-63235691D01*
X96397168Y-63252749D01*
X96388428Y-63269375D01*
X96379296Y-63285121D01*
X96374663Y-63292514D01*
X96370034Y-63299525D01*
X96365451Y-63306080D01*
X96360941Y-63312133D01*
X96356538Y-63317619D01*
X96352275Y-63322482D01*
X96348194Y-63326674D01*
X96344334Y-63330128D01*
X96307988Y-63359868D01*
X96375153Y-63391679D01*
X96442322Y-63423495D01*
X96460663Y-63569092D01*
X96478990Y-63714693D01*
X96296165Y-63932576D01*
X96390494Y-64113437D01*
X96429000Y-64188730D01*
X96464127Y-64260030D01*
X96491973Y-64319282D01*
X96501965Y-64341892D01*
X96508690Y-64358468D01*
X96532556Y-64422639D01*
X96474593Y-64511254D01*
X96416630Y-64599869D01*
X96285373Y-64489786D01*
X96154116Y-64379711D01*
X95897686Y-64685878D01*
X95641264Y-64992045D01*
X95442019Y-65057173D01*
X95242778Y-65122300D01*
X95100310Y-65000762D01*
X95067367Y-64973315D01*
X95028270Y-64941837D01*
X94937435Y-64871240D01*
X94839434Y-64797827D01*
X94791386Y-64762843D01*
X94745898Y-64730483D01*
X94533951Y-64581748D01*
X94438714Y-64355660D01*
X94343470Y-64129584D01*
X94369755Y-63892599D01*
X94396049Y-63655612D01*
X94344221Y-63583445D01*
X94305289Y-63529228D01*
X94432757Y-63529228D01*
X94473246Y-63573590D01*
X94496621Y-63599690D01*
X94530322Y-63637967D01*
X94610692Y-63730457D01*
X94707650Y-63842966D01*
X94676474Y-63918629D01*
X94645302Y-63994293D01*
X94697675Y-64038228D01*
X94703745Y-64043738D01*
X94711087Y-64051119D01*
X94729204Y-64070985D01*
X94751213Y-64096850D01*
X94776331Y-64127707D01*
X94803746Y-64162557D01*
X94832676Y-64200406D01*
X94862329Y-64240257D01*
X94891891Y-64281119D01*
X95033740Y-64480062D01*
X95066045Y-64657660D01*
X95098351Y-64835259D01*
X95188411Y-64913155D01*
X95278474Y-64991058D01*
X95452467Y-64926806D01*
X95452466Y-64926806D01*
X95626453Y-64862554D01*
X95626854Y-64789247D01*
X95627252Y-64715937D01*
X95692623Y-64679475D01*
X95758000Y-64643000D01*
X95687822Y-64648879D01*
X95680389Y-64649245D01*
X95672622Y-64649137D01*
X95664573Y-64648570D01*
X95656306Y-64647583D01*
X95647890Y-64646170D01*
X95639386Y-64644381D01*
X95630857Y-64642211D01*
X95622367Y-64639695D01*
X95613986Y-64636847D01*
X95605771Y-64633687D01*
X95597779Y-64630244D01*
X95590089Y-64626518D01*
X95582748Y-64622551D01*
X95575843Y-64618360D01*
X95569415Y-64613950D01*
X95563541Y-64609356D01*
X95557607Y-64603948D01*
X95551015Y-64597143D01*
X95543833Y-64589054D01*
X95536122Y-64579772D01*
X95527968Y-64569411D01*
X95519428Y-64558056D01*
X95501480Y-64532801D01*
X95482827Y-64504801D01*
X95464035Y-64474877D01*
X95445659Y-64443843D01*
X95428239Y-64412489D01*
X95347053Y-64261028D01*
X95435649Y-64155441D01*
X95420665Y-64046823D01*
X95405680Y-63938200D01*
X95492592Y-63853055D01*
X95579503Y-63767905D01*
X95974587Y-64115154D01*
X96369673Y-64462398D01*
X96393080Y-64434499D01*
X96394158Y-64432844D01*
X96394953Y-64430744D01*
X96395494Y-64428236D01*
X96395767Y-64425316D01*
X96395788Y-64421998D01*
X96395561Y-64418303D01*
X96395091Y-64414244D01*
X96394377Y-64409824D01*
X96392236Y-64399974D01*
X96389204Y-64388863D01*
X96385299Y-64376589D01*
X96380574Y-64363262D01*
X96375053Y-64348984D01*
X96368789Y-64333857D01*
X96361806Y-64317990D01*
X96354161Y-64301485D01*
X96345877Y-64284444D01*
X96336995Y-64266974D01*
X96327569Y-64249184D01*
X96317609Y-64231168D01*
X96297053Y-64193350D01*
X96276529Y-64153099D01*
X96256594Y-64111639D01*
X96237779Y-64070216D01*
X96220634Y-64030065D01*
X96205710Y-63992417D01*
X96193555Y-63958517D01*
X96184699Y-63929596D01*
X96175807Y-63900029D01*
X96163528Y-63864278D01*
X96148421Y-63823710D01*
X96131041Y-63779683D01*
X96111934Y-63733577D01*
X96091666Y-63686743D01*
X96070780Y-63640559D01*
X96049827Y-63596392D01*
X96027570Y-63552423D01*
X96002942Y-63506832D01*
X95976758Y-63460939D01*
X95949834Y-63416063D01*
X95922983Y-63373542D01*
X95897025Y-63334688D01*
X95872768Y-63300836D01*
X95851036Y-63273293D01*
X95753094Y-63157271D01*
X95673392Y-63287211D01*
X95593682Y-63417155D01*
X95450190Y-63463732D01*
X95306690Y-63510305D01*
X95213289Y-63464933D01*
X95119893Y-63419561D01*
X95029831Y-63309819D01*
X94939767Y-63200071D01*
X94951411Y-63117344D01*
X94963060Y-63034614D01*
X94879721Y-62988074D01*
X94796369Y-62941535D01*
X94681012Y-63079013D01*
X94695576Y-63159092D01*
X94710147Y-63239166D01*
X94571452Y-63384202D01*
X94432757Y-63529228D01*
X94305289Y-63529228D01*
X94292398Y-63511276D01*
X94596342Y-63190600D01*
X94563640Y-63131621D01*
X94530939Y-63072640D01*
X94589806Y-63002480D01*
G37*
G36*
X113166097Y-47845615D02*
G01*
X113176966Y-47846011D01*
X113187978Y-47846623D01*
X113199152Y-47847466D01*
X113210517Y-47848559D01*
X113230594Y-47851060D01*
X113250460Y-47854381D01*
X113270123Y-47858497D01*
X113289544Y-47863398D01*
X113308720Y-47869089D01*
X113327642Y-47875570D01*
X113346311Y-47882819D01*
X113364692Y-47890839D01*
X113382781Y-47899622D01*
X113400577Y-47909166D01*
X113418061Y-47919476D01*
X113435206Y-47930533D01*
X113452032Y-47942322D01*
X113468512Y-47954855D01*
X113484622Y-47968136D01*
X113500363Y-47982128D01*
X113526701Y-48008181D01*
X113550884Y-48035666D01*
X113572865Y-48064511D01*
X113592659Y-48094628D01*
X113610231Y-48125959D01*
X113625547Y-48158383D01*
X113638593Y-48191844D01*
X113649343Y-48226249D01*
X113657777Y-48261528D01*
X113663866Y-48297575D01*
X113667608Y-48334328D01*
X113668951Y-48371696D01*
X113667891Y-48409603D01*
X113664406Y-48447951D01*
X113658465Y-48486680D01*
X113650033Y-48525691D01*
X113647152Y-48537005D01*
X113644008Y-48548637D01*
X113640993Y-48559231D01*
X113639661Y-48563710D01*
X113638490Y-48567404D01*
X113637481Y-48570596D01*
X113636593Y-48573596D01*
X113635847Y-48576340D01*
X113635252Y-48578789D01*
X113634817Y-48580826D01*
X113634673Y-48581690D01*
X113634563Y-48582422D01*
X113634515Y-48583031D01*
X113634524Y-48583491D01*
X113634575Y-48583806D01*
X113634625Y-48583896D01*
X113634681Y-48583972D01*
X113634791Y-48584003D01*
X113634983Y-48584031D01*
X113635563Y-48584052D01*
X113636441Y-48584051D01*
X113637568Y-48584007D01*
X113640557Y-48583830D01*
X113644412Y-48583553D01*
X113649009Y-48583151D01*
X113654196Y-48582660D01*
X113659882Y-48582090D01*
X113665908Y-48581448D01*
X113693616Y-48578966D01*
X113721137Y-48577643D01*
X113748451Y-48577472D01*
X113775516Y-48578445D01*
X113802280Y-48580539D01*
X113828694Y-48583755D01*
X113854737Y-48588089D01*
X113880361Y-48593525D01*
X113905507Y-48600040D01*
X113930137Y-48607638D01*
X113954233Y-48616296D01*
X113977736Y-48626032D01*
X114000591Y-48636808D01*
X114022782Y-48648632D01*
X114044254Y-48661477D01*
X114064961Y-48675347D01*
X114087740Y-48692427D01*
X114109488Y-48710635D01*
X114130152Y-48729918D01*
X114149717Y-48750234D01*
X114168141Y-48771491D01*
X114185387Y-48793653D01*
X114201407Y-48816632D01*
X114216170Y-48840378D01*
X114229633Y-48864824D01*
X114241780Y-48889917D01*
X114252558Y-48915569D01*
X114261921Y-48941743D01*
X114269861Y-48968359D01*
X114276316Y-48995379D01*
X114281266Y-49022703D01*
X114284655Y-49050292D01*
X114285312Y-49058340D01*
X114285797Y-49066774D01*
X114286135Y-49075533D01*
X114286313Y-49084577D01*
X114286210Y-49103232D01*
X114285535Y-49122305D01*
X114284277Y-49141327D01*
X114282484Y-49159863D01*
X114281391Y-49168801D01*
X114280169Y-49177435D01*
X114278829Y-49185736D01*
X114277358Y-49193618D01*
X114274630Y-49206310D01*
X114271473Y-49219083D01*
X114267907Y-49231922D01*
X114263929Y-49244797D01*
X114259574Y-49257671D01*
X114254847Y-49270505D01*
X114249756Y-49283289D01*
X114244321Y-49295975D01*
X114238553Y-49308535D01*
X114232474Y-49320958D01*
X114226091Y-49333179D01*
X114219407Y-49345196D01*
X114212448Y-49356959D01*
X114205224Y-49368456D01*
X114197757Y-49379639D01*
X114190043Y-49390483D01*
X114183278Y-49399514D01*
X114176252Y-49408441D01*
X114168973Y-49417310D01*
X114161407Y-49426103D01*
X114153573Y-49434852D01*
X114145436Y-49443547D01*
X114128256Y-49460837D01*
X114109814Y-49478061D01*
X114089986Y-49495272D01*
X114068752Y-49512560D01*
X114046000Y-49530000D01*
X114013487Y-49553500D01*
X113981555Y-49575070D01*
X113950048Y-49594771D01*
X113918814Y-49612648D01*
X113887707Y-49628739D01*
X113856571Y-49643095D01*
X113825258Y-49655785D01*
X113793628Y-49666830D01*
X113761527Y-49676293D01*
X113728802Y-49684229D01*
X113695307Y-49690658D01*
X113660893Y-49695645D01*
X113625411Y-49699260D01*
X113588722Y-49701503D01*
X113550656Y-49702455D01*
X113511082Y-49702161D01*
X113504079Y-49701918D01*
X113495029Y-49701479D01*
X113472252Y-49700078D01*
X113445820Y-49698159D01*
X113418737Y-49695944D01*
X113385317Y-49692870D01*
X113352647Y-49689467D01*
X113318844Y-49685496D01*
X113282066Y-49680679D01*
X113240448Y-49674793D01*
X113192142Y-49667561D01*
X113068015Y-49648070D01*
X112889240Y-49619913D01*
X112748240Y-49598737D01*
X112629953Y-49582364D01*
X112519353Y-49568591D01*
X112500330Y-49566247D01*
X112484600Y-49564137D01*
X112473782Y-49562497D01*
X112470735Y-49561927D01*
X112469881Y-49561708D01*
X112469518Y-49561551D01*
X112469478Y-49561432D01*
X112469431Y-49561171D01*
X112469362Y-49560301D01*
X112469330Y-49557184D01*
X112469405Y-49552440D01*
X112469588Y-49546250D01*
X112469871Y-49538838D01*
X112470241Y-49530406D01*
X112470708Y-49521141D01*
X112471240Y-49511276D01*
X112471243Y-49511280D01*
X112476707Y-49404100D01*
X112480973Y-49292268D01*
X112484384Y-49165204D01*
X112487283Y-49012326D01*
X112489760Y-48872112D01*
X112492055Y-48776465D01*
X112494768Y-48706697D01*
X112498454Y-48644104D01*
X112502747Y-48590435D01*
X112508330Y-48539675D01*
X112515280Y-48491654D01*
X112523696Y-48446083D01*
X112533692Y-48402810D01*
X112545339Y-48361586D01*
X112558758Y-48322200D01*
X112574021Y-48284427D01*
X112591252Y-48248059D01*
X112610502Y-48212873D01*
X112631896Y-48178655D01*
X112655535Y-48145195D01*
X112681504Y-48112259D01*
X112709889Y-48079640D01*
X112740789Y-48047125D01*
X112774317Y-48014472D01*
X112791259Y-47998887D01*
X112807917Y-47984218D01*
X112824377Y-47970429D01*
X112840655Y-47957499D01*
X112856824Y-47945402D01*
X112872920Y-47934118D01*
X112888969Y-47923615D01*
X112905051Y-47913859D01*
X112921190Y-47904830D01*
X112937440Y-47896492D01*
X112953852Y-47888839D01*
X112970465Y-47881810D01*
X112987325Y-47875417D01*
X113004482Y-47869597D01*
X113021993Y-47864342D01*
X113039895Y-47859630D01*
X113050530Y-47857125D01*
X113061088Y-47854856D01*
X113071574Y-47852849D01*
X113082022Y-47851070D01*
X113092426Y-47849540D01*
X113102836Y-47848267D01*
X113113242Y-47847229D01*
X113123681Y-47846431D01*
X113134157Y-47845874D01*
X113144708Y-47845548D01*
X113155350Y-47845470D01*
X113166097Y-47845615D01*
G37*
D10*
X106912210Y-59309000D02*
G75*
G03*
X106912210Y-59309000I-359210J0D01*
G01*
D13*
G36*
X103993000Y-80393527D02*
G01*
X104001165Y-80393913D01*
X104010327Y-80394498D01*
X104020226Y-80395285D01*
X104030599Y-80396239D01*
X104041193Y-80397360D01*
X104071566Y-80400511D01*
X104105627Y-80403554D01*
X104178523Y-80408920D01*
X104247431Y-80412664D01*
X104276497Y-80413678D01*
X104299898Y-80413989D01*
X104314749Y-80413987D01*
X104320948Y-80414064D01*
X104326464Y-80414228D01*
X104331386Y-80414489D01*
X104335807Y-80414864D01*
X104339829Y-80415384D01*
X104343540Y-80416071D01*
X104347043Y-80416925D01*
X104350427Y-80417992D01*
X104353789Y-80419284D01*
X104357226Y-80420814D01*
X104360832Y-80422602D01*
X104364698Y-80424684D01*
X104373607Y-80429769D01*
X104398816Y-80444982D01*
X104425564Y-80462155D01*
X104453666Y-80481132D01*
X104482942Y-80501765D01*
X104513189Y-80523903D01*
X104544233Y-80547386D01*
X104607960Y-80597812D01*
X104672613Y-80651812D01*
X104736721Y-80708196D01*
X104798771Y-80765726D01*
X104828561Y-80794545D01*
X104857281Y-80823197D01*
X104902881Y-80870735D01*
X104949044Y-80921290D01*
X104994687Y-80973531D01*
X105038703Y-81026111D01*
X105080000Y-81077696D01*
X105117484Y-81126951D01*
X105150061Y-81172535D01*
X105176623Y-81213108D01*
X105198869Y-81249182D01*
X105201185Y-81311942D01*
X105202403Y-81340535D01*
X105203961Y-81368812D01*
X105205864Y-81397069D01*
X105208159Y-81425622D01*
X105210859Y-81454769D01*
X105214010Y-81484815D01*
X105217615Y-81516066D01*
X105221714Y-81548832D01*
X105225101Y-81576045D01*
X105226318Y-81587151D01*
X105227181Y-81596712D01*
X105227664Y-81604830D01*
X105227739Y-81611597D01*
X105227380Y-81617106D01*
X105226566Y-81621451D01*
X105225970Y-81623222D01*
X105225257Y-81624733D01*
X105224417Y-81626003D01*
X105223440Y-81627044D01*
X105222328Y-81627864D01*
X105221079Y-81628478D01*
X105219690Y-81628891D01*
X105218154Y-81629123D01*
X105214647Y-81629086D01*
X105210510Y-81628459D01*
X105205732Y-81627334D01*
X105200281Y-81625811D01*
X105194971Y-81623995D01*
X105189026Y-81621488D01*
X105175213Y-81614348D01*
X105158804Y-81604370D01*
X105139747Y-81591505D01*
X105118026Y-81575733D01*
X105093586Y-81557009D01*
X105066385Y-81535307D01*
X105036399Y-81510599D01*
X105003577Y-81482851D01*
X104967879Y-81452030D01*
X104929280Y-81418093D01*
X104887729Y-81381017D01*
X104795618Y-81297322D01*
X104691242Y-81200664D01*
X104603448Y-81117897D01*
X104564527Y-81080371D01*
X104526555Y-81043050D01*
X104487749Y-81004182D01*
X104446334Y-80961996D01*
X104348559Y-80860612D01*
X104251675Y-80758848D01*
X104171393Y-80673150D01*
X104106447Y-80602049D01*
X104055582Y-80544063D01*
X104017528Y-80497716D01*
X103991040Y-80461524D01*
X103981734Y-80446777D01*
X103974851Y-80434014D01*
X103970217Y-80423052D01*
X103967694Y-80413707D01*
X103966744Y-80408080D01*
X103966415Y-80405767D01*
X103966204Y-80403754D01*
X103966128Y-80402004D01*
X103966135Y-80401233D01*
X103966184Y-80400517D01*
X103966271Y-80399858D01*
X103966399Y-80399253D01*
X103966564Y-80398696D01*
X103966773Y-80398186D01*
X103967028Y-80397722D01*
X103967325Y-80397291D01*
X103967673Y-80396907D01*
X103968071Y-80396551D01*
X103968514Y-80396221D01*
X103969016Y-80395930D01*
X103969565Y-80395656D01*
X103970168Y-80395398D01*
X103971547Y-80394951D01*
X103973162Y-80394545D01*
X103975028Y-80394159D01*
X103977153Y-80393773D01*
X103978705Y-80393573D01*
X103980735Y-80393447D01*
X103986108Y-80393368D01*
X103993000Y-80393527D01*
G37*
X103993000Y-80393527D02*
X104001165Y-80393913D01*
X104010327Y-80394498D01*
X104020226Y-80395285D01*
X104030599Y-80396239D01*
X104041193Y-80397360D01*
X104071566Y-80400511D01*
X104105627Y-80403554D01*
X104178523Y-80408920D01*
X104247431Y-80412664D01*
X104276497Y-80413678D01*
X104299898Y-80413989D01*
X104314749Y-80413987D01*
X104320948Y-80414064D01*
X104326464Y-80414228D01*
X104331386Y-80414489D01*
X104335807Y-80414864D01*
X104339829Y-80415384D01*
X104343540Y-80416071D01*
X104347043Y-80416925D01*
X104350427Y-80417992D01*
X104353789Y-80419284D01*
X104357226Y-80420814D01*
X104360832Y-80422602D01*
X104364698Y-80424684D01*
X104373607Y-80429769D01*
X104398816Y-80444982D01*
X104425564Y-80462155D01*
X104453666Y-80481132D01*
X104482942Y-80501765D01*
X104513189Y-80523903D01*
X104544233Y-80547386D01*
X104607960Y-80597812D01*
X104672613Y-80651812D01*
X104736721Y-80708196D01*
X104798771Y-80765726D01*
X104828561Y-80794545D01*
X104857281Y-80823197D01*
X104902881Y-80870735D01*
X104949044Y-80921290D01*
X104994687Y-80973531D01*
X105038703Y-81026111D01*
X105080000Y-81077696D01*
X105117484Y-81126951D01*
X105150061Y-81172535D01*
X105176623Y-81213108D01*
X105198869Y-81249182D01*
X105201185Y-81311942D01*
X105202403Y-81340535D01*
X105203961Y-81368812D01*
X105205864Y-81397069D01*
X105208159Y-81425622D01*
X105210859Y-81454769D01*
X105214010Y-81484815D01*
X105217615Y-81516066D01*
X105221714Y-81548832D01*
X105225101Y-81576045D01*
X105226318Y-81587151D01*
X105227181Y-81596712D01*
X105227664Y-81604830D01*
X105227739Y-81611597D01*
X105227380Y-81617106D01*
X105226566Y-81621451D01*
X105225970Y-81623222D01*
X105225257Y-81624733D01*
X105224417Y-81626003D01*
X105223440Y-81627044D01*
X105222328Y-81627864D01*
X105221079Y-81628478D01*
X105219690Y-81628891D01*
X105218154Y-81629123D01*
X105214647Y-81629086D01*
X105210510Y-81628459D01*
X105205732Y-81627334D01*
X105200281Y-81625811D01*
X105194971Y-81623995D01*
X105189026Y-81621488D01*
X105175213Y-81614348D01*
X105158804Y-81604370D01*
X105139747Y-81591505D01*
X105118026Y-81575733D01*
X105093586Y-81557009D01*
X105066385Y-81535307D01*
X105036399Y-81510599D01*
X105003577Y-81482851D01*
X104967879Y-81452030D01*
X104929280Y-81418093D01*
X104887729Y-81381017D01*
X104795618Y-81297322D01*
X104691242Y-81200664D01*
X104603448Y-81117897D01*
X104564527Y-81080371D01*
X104526555Y-81043050D01*
X104487749Y-81004182D01*
X104446334Y-80961996D01*
X104348559Y-80860612D01*
X104251675Y-80758848D01*
X104171393Y-80673150D01*
X104106447Y-80602049D01*
X104055582Y-80544063D01*
X104017528Y-80497716D01*
X103991040Y-80461524D01*
X103981734Y-80446777D01*
X103974851Y-80434014D01*
X103970217Y-80423052D01*
X103967694Y-80413707D01*
X103966744Y-80408080D01*
X103966415Y-80405767D01*
X103966204Y-80403754D01*
X103966128Y-80402004D01*
X103966135Y-80401233D01*
X103966184Y-80400517D01*
X103966271Y-80399858D01*
X103966399Y-80399253D01*
X103966564Y-80398696D01*
X103966773Y-80398186D01*
X103967028Y-80397722D01*
X103967325Y-80397291D01*
X103967673Y-80396907D01*
X103968071Y-80396551D01*
X103968514Y-80396221D01*
X103969016Y-80395930D01*
X103969565Y-80395656D01*
X103970168Y-80395398D01*
X103971547Y-80394951D01*
X103973162Y-80394545D01*
X103975028Y-80394159D01*
X103977153Y-80393773D01*
X103978705Y-80393573D01*
X103980735Y-80393447D01*
X103986108Y-80393368D01*
X103993000Y-80393527D01*
D10*
X101429420Y-75946000D02*
G75*
G03*
X101429420Y-75946000I-359210J0D01*
G01*
D13*
G36*
X105047208Y-79468447D02*
G01*
X105054159Y-79469311D01*
X105069693Y-79472478D01*
X105087268Y-79477505D01*
X105106790Y-79484337D01*
X105128143Y-79492922D01*
X105151205Y-79503208D01*
X105175873Y-79515130D01*
X105202025Y-79528630D01*
X105229553Y-79543659D01*
X105258347Y-79560153D01*
X105288288Y-79578067D01*
X105319263Y-79597328D01*
X105351162Y-79617890D01*
X105383865Y-79639688D01*
X105417271Y-79662686D01*
X105454306Y-79689084D01*
X105490393Y-79715866D01*
X105525563Y-79743063D01*
X105559870Y-79770721D01*
X105593343Y-79798871D01*
X105626029Y-79827558D01*
X105657961Y-79856825D01*
X105689185Y-79886704D01*
X105719745Y-79917228D01*
X105749671Y-79948450D01*
X105779004Y-79980406D01*
X105807798Y-80013136D01*
X105836075Y-80046672D01*
X105863887Y-80081048D01*
X105891267Y-80116326D01*
X105918256Y-80152523D01*
X105958520Y-80209065D01*
X105995406Y-80263813D01*
X106028477Y-80315985D01*
X106057301Y-80364803D01*
X106081425Y-80409502D01*
X106100427Y-80449298D01*
X106107867Y-80467114D01*
X106113850Y-80483411D01*
X106118336Y-80498096D01*
X106121264Y-80511072D01*
X106122673Y-80519779D01*
X106123626Y-80527689D01*
X106123908Y-80531377D01*
X106124039Y-80534895D01*
X106124027Y-80538274D01*
X106123851Y-80541516D01*
X106123498Y-80544626D01*
X106122972Y-80547631D01*
X106122251Y-80550537D01*
X106121330Y-80553358D01*
X106120208Y-80556110D01*
X106118860Y-80558795D01*
X106117289Y-80561436D01*
X106115475Y-80564038D01*
X106113419Y-80566622D01*
X106111109Y-80569196D01*
X106108522Y-80571768D01*
X106105676Y-80574365D01*
X106102534Y-80576982D01*
X106099104Y-80579638D01*
X106095362Y-80582364D01*
X106091316Y-80585141D01*
X106082238Y-80590956D01*
X106071800Y-80597191D01*
X106059919Y-80603943D01*
X106046523Y-80611316D01*
X106006398Y-80633753D01*
X105958956Y-80661270D01*
X105851121Y-80726059D01*
X105741074Y-80794601D01*
X105690866Y-80826833D01*
X105646880Y-80855864D01*
X105620192Y-80874147D01*
X105591530Y-80894403D01*
X105561603Y-80916099D01*
X105531129Y-80938706D01*
X105500800Y-80961701D01*
X105471338Y-80984539D01*
X105443450Y-81006696D01*
X105417827Y-81027637D01*
X105398304Y-81043684D01*
X105382077Y-81056646D01*
X105375727Y-81061569D01*
X105370835Y-81065212D01*
X105367617Y-81067425D01*
X105366701Y-81067938D01*
X105366285Y-81068037D01*
X105366015Y-81067741D01*
X105365528Y-81067090D01*
X105364009Y-81064826D01*
X105361794Y-81061396D01*
X105358981Y-81056933D01*
X105351943Y-81045572D01*
X105343634Y-81031892D01*
X105322091Y-80997961D01*
X105297128Y-80961853D01*
X105269011Y-80923857D01*
X105238006Y-80884257D01*
X105204382Y-80843349D01*
X105168409Y-80801404D01*
X105130361Y-80758730D01*
X105090498Y-80715602D01*
X105006420Y-80629100D01*
X104918326Y-80544225D01*
X104873447Y-80503107D01*
X104828374Y-80463247D01*
X104783361Y-80424929D01*
X104738704Y-80388447D01*
X104714763Y-80369891D01*
X104687113Y-80349368D01*
X104657428Y-80328046D01*
X104627385Y-80307059D01*
X104598654Y-80287574D01*
X104572918Y-80270744D01*
X104551850Y-80257718D01*
X104543591Y-80253000D01*
X104537126Y-80249660D01*
X104533199Y-80247764D01*
X104529521Y-80245916D01*
X104526174Y-80244157D01*
X104523244Y-80242539D01*
X104520801Y-80241103D01*
X104518938Y-80239898D01*
X104518246Y-80239395D01*
X104517721Y-80238964D01*
X104517388Y-80238622D01*
X104517249Y-80238359D01*
X104517288Y-80238175D01*
X104517435Y-80237831D01*
X104518031Y-80236693D01*
X104520412Y-80232724D01*
X104524231Y-80226718D01*
X104529302Y-80218932D01*
X104535472Y-80209622D01*
X104542557Y-80199049D01*
X104550389Y-80187475D01*
X104558801Y-80175147D01*
X104603930Y-80108067D01*
X104659185Y-80023994D01*
X104782979Y-79831709D01*
X104895977Y-79652018D01*
X104937740Y-79583697D01*
X104963964Y-79538675D01*
X104969307Y-79529030D01*
X104974245Y-79520336D01*
X104978840Y-79512536D01*
X104983141Y-79505587D01*
X104987197Y-79499424D01*
X104991051Y-79494000D01*
X104994766Y-79489262D01*
X104998378Y-79485161D01*
X105001942Y-79481632D01*
X105005513Y-79478642D01*
X105009129Y-79476117D01*
X105012847Y-79474028D01*
X105016717Y-79472298D01*
X105020786Y-79470888D01*
X105025108Y-79469742D01*
X105029727Y-79468807D01*
X105034973Y-79468193D01*
X105040802Y-79468073D01*
X105047208Y-79468447D01*
G37*
X105047208Y-79468447D02*
X105054159Y-79469311D01*
X105069693Y-79472478D01*
X105087268Y-79477505D01*
X105106790Y-79484337D01*
X105128143Y-79492922D01*
X105151205Y-79503208D01*
X105175873Y-79515130D01*
X105202025Y-79528630D01*
X105229553Y-79543659D01*
X105258347Y-79560153D01*
X105288288Y-79578067D01*
X105319263Y-79597328D01*
X105351162Y-79617890D01*
X105383865Y-79639688D01*
X105417271Y-79662686D01*
X105454306Y-79689084D01*
X105490393Y-79715866D01*
X105525563Y-79743063D01*
X105559870Y-79770721D01*
X105593343Y-79798871D01*
X105626029Y-79827558D01*
X105657961Y-79856825D01*
X105689185Y-79886704D01*
X105719745Y-79917228D01*
X105749671Y-79948450D01*
X105779004Y-79980406D01*
X105807798Y-80013136D01*
X105836075Y-80046672D01*
X105863887Y-80081048D01*
X105891267Y-80116326D01*
X105918256Y-80152523D01*
X105958520Y-80209065D01*
X105995406Y-80263813D01*
X106028477Y-80315985D01*
X106057301Y-80364803D01*
X106081425Y-80409502D01*
X106100427Y-80449298D01*
X106107867Y-80467114D01*
X106113850Y-80483411D01*
X106118336Y-80498096D01*
X106121264Y-80511072D01*
X106122673Y-80519779D01*
X106123626Y-80527689D01*
X106123908Y-80531377D01*
X106124039Y-80534895D01*
X106124027Y-80538274D01*
X106123851Y-80541516D01*
X106123498Y-80544626D01*
X106122972Y-80547631D01*
X106122251Y-80550537D01*
X106121330Y-80553358D01*
X106120208Y-80556110D01*
X106118860Y-80558795D01*
X106117289Y-80561436D01*
X106115475Y-80564038D01*
X106113419Y-80566622D01*
X106111109Y-80569196D01*
X106108522Y-80571768D01*
X106105676Y-80574365D01*
X106102534Y-80576982D01*
X106099104Y-80579638D01*
X106095362Y-80582364D01*
X106091316Y-80585141D01*
X106082238Y-80590956D01*
X106071800Y-80597191D01*
X106059919Y-80603943D01*
X106046523Y-80611316D01*
X106006398Y-80633753D01*
X105958956Y-80661270D01*
X105851121Y-80726059D01*
X105741074Y-80794601D01*
X105690866Y-80826833D01*
X105646880Y-80855864D01*
X105620192Y-80874147D01*
X105591530Y-80894403D01*
X105561603Y-80916099D01*
X105531129Y-80938706D01*
X105500800Y-80961701D01*
X105471338Y-80984539D01*
X105443450Y-81006696D01*
X105417827Y-81027637D01*
X105398304Y-81043684D01*
X105382077Y-81056646D01*
X105375727Y-81061569D01*
X105370835Y-81065212D01*
X105367617Y-81067425D01*
X105366701Y-81067938D01*
X105366285Y-81068037D01*
X105366015Y-81067741D01*
X105365528Y-81067090D01*
X105364009Y-81064826D01*
X105361794Y-81061396D01*
X105358981Y-81056933D01*
X105351943Y-81045572D01*
X105343634Y-81031892D01*
X105322091Y-80997961D01*
X105297128Y-80961853D01*
X105269011Y-80923857D01*
X105238006Y-80884257D01*
X105204382Y-80843349D01*
X105168409Y-80801404D01*
X105130361Y-80758730D01*
X105090498Y-80715602D01*
X105006420Y-80629100D01*
X104918326Y-80544225D01*
X104873447Y-80503107D01*
X104828374Y-80463247D01*
X104783361Y-80424929D01*
X104738704Y-80388447D01*
X104714763Y-80369891D01*
X104687113Y-80349368D01*
X104657428Y-80328046D01*
X104627385Y-80307059D01*
X104598654Y-80287574D01*
X104572918Y-80270744D01*
X104551850Y-80257718D01*
X104543591Y-80253000D01*
X104537126Y-80249660D01*
X104533199Y-80247764D01*
X104529521Y-80245916D01*
X104526174Y-80244157D01*
X104523244Y-80242539D01*
X104520801Y-80241103D01*
X104518938Y-80239898D01*
X104518246Y-80239395D01*
X104517721Y-80238964D01*
X104517388Y-80238622D01*
X104517249Y-80238359D01*
X104517288Y-80238175D01*
X104517435Y-80237831D01*
X104518031Y-80236693D01*
X104520412Y-80232724D01*
X104524231Y-80226718D01*
X104529302Y-80218932D01*
X104535472Y-80209622D01*
X104542557Y-80199049D01*
X104550389Y-80187475D01*
X104558801Y-80175147D01*
X104603930Y-80108067D01*
X104659185Y-80023994D01*
X104782979Y-79831709D01*
X104895977Y-79652018D01*
X104937740Y-79583697D01*
X104963964Y-79538675D01*
X104969307Y-79529030D01*
X104974245Y-79520336D01*
X104978840Y-79512536D01*
X104983141Y-79505587D01*
X104987197Y-79499424D01*
X104991051Y-79494000D01*
X104994766Y-79489262D01*
X104998378Y-79485161D01*
X105001942Y-79481632D01*
X105005513Y-79478642D01*
X105009129Y-79476117D01*
X105012847Y-79474028D01*
X105016717Y-79472298D01*
X105020786Y-79470888D01*
X105025108Y-79469742D01*
X105029727Y-79468807D01*
X105034973Y-79468193D01*
X105040802Y-79468073D01*
X105047208Y-79468447D01*
D10*
G36*
X101186140Y-88245724D02*
G01*
X101998721Y-87942280D01*
X101556594Y-88384407D01*
X101549102Y-88391796D01*
X101541865Y-88398725D01*
X101531492Y-88408252D01*
X101521695Y-88416742D01*
X101512475Y-88424193D01*
X101503832Y-88430605D01*
X101493206Y-88437541D01*
X101483604Y-88442630D01*
X101473045Y-88446396D01*
X101467478Y-88447271D01*
X101455434Y-88447069D01*
X101445787Y-88445450D01*
X101436129Y-88442536D01*
X101426460Y-88438326D01*
X101416780Y-88432821D01*
X101407090Y-88426021D01*
X101397389Y-88417925D01*
X101390106Y-88411003D01*
X101366790Y-88387688D01*
X101347447Y-88407031D01*
X101576628Y-88636212D01*
X101595971Y-88616869D01*
X101572656Y-88593553D01*
X101565256Y-88585708D01*
X101558731Y-88577844D01*
X101551391Y-88567330D01*
X101545606Y-88556784D01*
X101541374Y-88546206D01*
X101538697Y-88535596D01*
X101537575Y-88524953D01*
X101538007Y-88514277D01*
X101538805Y-88508927D01*
X101542410Y-88498045D01*
X101548150Y-88487390D01*
X101554534Y-88477828D01*
X101562509Y-88467343D01*
X101569535Y-88458873D01*
X101577458Y-88449884D01*
X101586275Y-88440377D01*
X101595988Y-88430350D01*
X101599425Y-88426892D01*
X102031880Y-87994437D01*
X102039978Y-87986512D01*
X102047821Y-87979189D01*
X102055408Y-87972467D01*
X102065128Y-87964438D01*
X102074395Y-87957479D01*
X102083208Y-87951588D01*
X102093588Y-87945727D01*
X102103258Y-87941536D01*
X102105108Y-87940898D01*
X102114581Y-87938426D01*
X102124715Y-87937507D01*
X102135511Y-87938143D01*
X102145290Y-87939924D01*
X102153811Y-87942280D01*
X102164616Y-87946629D01*
X102174298Y-87951951D01*
X102182487Y-87957320D01*
X102191069Y-87963676D01*
X102200046Y-87971020D01*
X102209417Y-87979352D01*
X102216703Y-87986249D01*
X102221684Y-87991156D01*
X102239818Y-87973021D01*
X102053296Y-87786499D01*
X101295463Y-88066628D01*
X101579218Y-87312422D01*
X101392696Y-87125900D01*
X101373353Y-87145243D01*
X101396323Y-87168213D01*
X101403784Y-87176120D01*
X101410365Y-87184039D01*
X101417770Y-87194618D01*
X101423609Y-87205217D01*
X101427884Y-87215839D01*
X101430593Y-87226482D01*
X101431737Y-87237146D01*
X101431316Y-87247833D01*
X101430519Y-87253184D01*
X101426926Y-87264054D01*
X101421215Y-87274680D01*
X101414867Y-87284208D01*
X101406937Y-87294647D01*
X101399952Y-87303075D01*
X101392077Y-87312016D01*
X101383313Y-87321470D01*
X101373660Y-87331437D01*
X101370244Y-87334874D01*
X100938480Y-87766638D01*
X100931006Y-87774006D01*
X100923784Y-87780913D01*
X100913421Y-87790408D01*
X100903622Y-87798865D01*
X100894388Y-87806284D01*
X100885718Y-87812664D01*
X100875038Y-87819556D01*
X100865361Y-87824602D01*
X100854676Y-87828315D01*
X100849018Y-87829158D01*
X100837024Y-87828905D01*
X100825005Y-87826638D01*
X100815371Y-87823373D01*
X100805721Y-87818817D01*
X100796055Y-87812972D01*
X100786373Y-87805838D01*
X100776674Y-87797413D01*
X100771819Y-87792717D01*
X100748849Y-87769747D01*
X100729506Y-87789090D01*
X101009289Y-88068873D01*
X101028632Y-88049530D01*
X101005317Y-88026215D01*
X100997859Y-88018310D01*
X100991288Y-88010400D01*
X100983904Y-87999843D01*
X100978097Y-87989276D01*
X100973866Y-87978698D01*
X100971211Y-87968109D01*
X100970131Y-87957509D01*
X100970628Y-87946898D01*
X100971467Y-87941589D01*
X100975065Y-87930713D01*
X100980791Y-87920072D01*
X100987157Y-87910527D01*
X100995110Y-87900065D01*
X101002115Y-87891616D01*
X101010014Y-87882651D01*
X101018804Y-87873171D01*
X101028488Y-87863173D01*
X101031914Y-87859726D01*
X101474041Y-87417600D01*
X101170079Y-88229662D01*
X101186140Y-88245724D01*
G37*
G36*
X101039513Y-86750610D02*
G01*
X100729851Y-87523814D01*
X100724860Y-87536278D01*
X100720204Y-87548324D01*
X100715885Y-87559954D01*
X100711901Y-87571167D01*
X100708253Y-87581964D01*
X100704941Y-87592343D01*
X100701966Y-87602305D01*
X100699326Y-87611850D01*
X100695996Y-87625387D01*
X100693422Y-87637985D01*
X100691604Y-87649645D01*
X100690542Y-87660367D01*
X100690302Y-87673204D01*
X100690663Y-87677890D01*
X100693160Y-87688564D01*
X100697050Y-87698786D01*
X100701346Y-87707831D01*
X100706695Y-87717648D01*
X100713096Y-87728237D01*
X100718587Y-87736686D01*
X100724670Y-87745568D01*
X100705327Y-87764911D01*
X100497908Y-87557491D01*
X100517251Y-87538148D01*
X100526580Y-87546108D01*
X100535464Y-87553342D01*
X100543901Y-87559850D01*
X100554456Y-87567399D01*
X100564218Y-87573658D01*
X100573187Y-87578628D01*
X100583282Y-87583025D01*
X100593759Y-87585642D01*
X100595346Y-87585819D01*
X100605870Y-87586074D01*
X100616643Y-87584261D01*
X100626077Y-87580202D01*
X100634172Y-87573898D01*
X100638873Y-87568679D01*
X100644856Y-87560592D01*
X100650956Y-87550768D01*
X100655921Y-87541658D01*
X100660962Y-87531436D01*
X100666079Y-87520102D01*
X100669965Y-87510872D01*
X100673895Y-87501017D01*
X100731233Y-87354217D01*
X100476319Y-87099303D01*
X100343336Y-87152496D01*
X100335432Y-87155716D01*
X100324214Y-87160474D01*
X100313760Y-87165147D01*
X100304072Y-87169735D01*
X100295148Y-87174238D01*
X100284441Y-87180110D01*
X100275093Y-87185831D01*
X100265321Y-87192770D01*
X100257674Y-87199472D01*
X100256710Y-87200463D01*
X100250295Y-87209037D01*
X100246191Y-87218754D01*
X100244396Y-87229616D01*
X100244721Y-87240058D01*
X100244938Y-87241618D01*
X100247658Y-87251656D01*
X100251780Y-87260912D01*
X100257589Y-87270978D01*
X100263450Y-87279613D01*
X100270391Y-87288767D01*
X100278411Y-87298438D01*
X100285134Y-87306032D01*
X100265791Y-87325375D01*
X100005869Y-87065453D01*
X100025212Y-87046110D01*
X100030543Y-87050701D01*
X100038534Y-87057077D01*
X100046520Y-87062840D01*
X100057157Y-87069571D01*
X100067784Y-87075210D01*
X100078400Y-87079760D01*
X100089005Y-87083220D01*
X100099600Y-87085589D01*
X100110183Y-87086868D01*
X100112878Y-87087011D01*
X100124658Y-87086778D01*
X100134545Y-87085756D01*
X100145334Y-87084009D01*
X100157025Y-87081536D01*
X100169617Y-87078338D01*
X100174731Y-87076851D01*
X100525713Y-87076851D01*
X100752131Y-87303268D01*
X100906357Y-86919689D01*
X100525713Y-87076851D01*
X100174731Y-87076851D01*
X100183111Y-87074414D01*
X100192608Y-87071395D01*
X100202505Y-87068054D01*
X100212803Y-87064390D01*
X100223502Y-87060404D01*
X100234602Y-87056095D01*
X100246103Y-87051463D01*
X101022588Y-86733685D01*
X101039513Y-86750610D01*
G37*
G36*
X100151683Y-85990821D02*
G01*
X100165695Y-85992270D01*
X100179548Y-85994447D01*
X100193244Y-85997354D01*
X100206782Y-86000989D01*
X100220162Y-86005352D01*
X100233384Y-86010444D01*
X100246448Y-86016265D01*
X100255180Y-86020563D01*
X100264061Y-86025297D01*
X100273093Y-86030467D01*
X100282274Y-86036072D01*
X100291605Y-86042114D01*
X100301085Y-86048591D01*
X100310715Y-86055504D01*
X100320496Y-86062852D01*
X100330426Y-86070637D01*
X100340505Y-86078857D01*
X100350735Y-86087514D01*
X100361114Y-86096606D01*
X100371643Y-86106133D01*
X100382322Y-86116097D01*
X100393150Y-86126496D01*
X100404128Y-86137332D01*
X100645398Y-86378602D01*
X100626055Y-86397945D01*
X100601358Y-86373248D01*
X100591946Y-86364505D01*
X100582447Y-86357014D01*
X100572862Y-86350775D01*
X100563190Y-86345788D01*
X100553433Y-86342053D01*
X100543588Y-86339570D01*
X100533658Y-86338340D01*
X100523641Y-86338361D01*
X100516028Y-86339821D01*
X100505017Y-86344295D01*
X100495013Y-86349993D01*
X100486811Y-86355502D01*
X100478012Y-86362071D01*
X100468614Y-86369700D01*
X100458619Y-86378388D01*
X100448025Y-86388136D01*
X100440631Y-86395223D01*
X100432970Y-86402781D01*
X100006387Y-86829364D01*
X100002897Y-86832873D01*
X99993027Y-86843026D01*
X99984058Y-86852618D01*
X99975991Y-86861648D01*
X99968826Y-86870117D01*
X99960675Y-86880534D01*
X99954127Y-86889954D01*
X99948197Y-86900324D01*
X99944386Y-86910708D01*
X99943420Y-86916351D01*
X99942686Y-86927555D01*
X99943549Y-86938651D01*
X99946010Y-86949640D01*
X99950069Y-86960520D01*
X99955725Y-86971293D01*
X99962978Y-86981957D01*
X99969467Y-86989885D01*
X99976854Y-86997752D01*
X100001551Y-87022449D01*
X99982208Y-87041792D01*
X99700007Y-86759591D01*
X99719350Y-86740248D01*
X99744738Y-86765635D01*
X99754107Y-86774330D01*
X99763563Y-86781762D01*
X99773105Y-86787931D01*
X99782733Y-86792837D01*
X99792448Y-86796480D01*
X99802249Y-86798860D01*
X99812136Y-86799977D01*
X99822110Y-86799831D01*
X99823946Y-86799674D01*
X99834116Y-86797099D01*
X99843442Y-86792889D01*
X99853826Y-86786769D01*
X99862308Y-86780925D01*
X99871385Y-86774006D01*
X99881057Y-86766013D01*
X99891324Y-86756945D01*
X99898500Y-86750302D01*
X99905940Y-86743182D01*
X99913644Y-86735585D01*
X100106902Y-86542327D01*
X100097430Y-86536120D01*
X100088185Y-86529935D01*
X100079166Y-86523772D01*
X100070374Y-86517630D01*
X100061809Y-86511510D01*
X100053471Y-86505411D01*
X100045359Y-86499334D01*
X100037474Y-86493278D01*
X100033596Y-86490236D01*
X100024153Y-86482649D01*
X100015074Y-86475088D01*
X100006356Y-86467551D01*
X99998002Y-86460040D01*
X99990010Y-86452554D01*
X99982381Y-86445093D01*
X99970617Y-86432935D01*
X99959592Y-86420723D01*
X99949304Y-86408459D01*
X99939755Y-86396142D01*
X99930944Y-86383773D01*
X99922870Y-86371351D01*
X99915535Y-86358876D01*
X99908938Y-86346349D01*
X99903079Y-86333769D01*
X99900052Y-86326303D01*
X99998519Y-86326303D01*
X99999150Y-86339969D01*
X100000709Y-86353192D01*
X100003198Y-86365972D01*
X100006615Y-86378309D01*
X100010961Y-86390202D01*
X100016237Y-86401653D01*
X100022441Y-86412660D01*
X100029574Y-86423223D01*
X100037636Y-86433344D01*
X100046627Y-86443021D01*
X100052230Y-86448453D01*
X100059502Y-86455098D01*
X100067568Y-86462073D01*
X100075113Y-86468314D01*
X100083241Y-86474799D01*
X100091887Y-86481462D01*
X100101116Y-86488367D01*
X100109252Y-86494307D01*
X100117793Y-86500416D01*
X100126739Y-86506693D01*
X100136089Y-86513140D01*
X100410173Y-86239055D01*
X100408321Y-86236077D01*
X100402822Y-86227414D01*
X100397408Y-86219158D01*
X100390322Y-86208782D01*
X100383387Y-86199129D01*
X100376603Y-86190200D01*
X100369970Y-86181993D01*
X100363488Y-86174510D01*
X100355598Y-86166174D01*
X100347872Y-86158770D01*
X100339980Y-86151842D01*
X100331920Y-86145392D01*
X100323693Y-86139418D01*
X100315300Y-86133920D01*
X100306739Y-86128900D01*
X100298012Y-86124355D01*
X100289117Y-86120288D01*
X100276998Y-86115606D01*
X100264582Y-86111771D01*
X100258284Y-86110153D01*
X100245596Y-86107697D01*
X100232783Y-86106283D01*
X100219847Y-86105911D01*
X100210063Y-86106315D01*
X100200209Y-86107305D01*
X100190285Y-86108881D01*
X100180292Y-86111043D01*
X100170228Y-86113791D01*
X100160095Y-86117125D01*
X100153362Y-86119592D01*
X100143431Y-86123640D01*
X100133704Y-86128103D01*
X100124180Y-86132982D01*
X100114859Y-86138277D01*
X100105742Y-86143988D01*
X100096828Y-86150115D01*
X100088118Y-86156657D01*
X100079611Y-86163616D01*
X100071307Y-86170991D01*
X100063207Y-86178781D01*
X100059380Y-86182681D01*
X100052075Y-86190560D01*
X100045237Y-86198548D01*
X100038865Y-86206643D01*
X100032961Y-86214847D01*
X100027524Y-86223158D01*
X100020243Y-86235828D01*
X100014012Y-86248740D01*
X100008832Y-86261896D01*
X100004702Y-86275294D01*
X100001623Y-86288935D01*
X99999594Y-86302819D01*
X99998615Y-86316946D01*
X99998519Y-86326303D01*
X99900052Y-86326303D01*
X99897957Y-86321137D01*
X99893574Y-86308451D01*
X99889929Y-86295714D01*
X99887022Y-86282923D01*
X99884853Y-86270080D01*
X99883423Y-86257185D01*
X99882730Y-86244237D01*
X99882753Y-86231331D01*
X99883426Y-86218606D01*
X99884750Y-86206062D01*
X99886723Y-86193699D01*
X99889348Y-86181516D01*
X99892622Y-86169514D01*
X99896547Y-86157693D01*
X99901123Y-86146053D01*
X99906349Y-86134594D01*
X99912225Y-86123316D01*
X99918751Y-86112218D01*
X99925928Y-86101301D01*
X99933755Y-86090565D01*
X99942232Y-86080010D01*
X99951360Y-86069635D01*
X99961138Y-86059441D01*
X99964870Y-86055778D01*
X99972445Y-86048751D01*
X99980168Y-86042124D01*
X99988039Y-86035895D01*
X99996059Y-86030067D01*
X100008368Y-86022072D01*
X100021010Y-86014976D01*
X100033986Y-86008779D01*
X100047296Y-86003481D01*
X100060940Y-85999081D01*
X100074918Y-85995579D01*
X100089230Y-85992977D01*
X100098957Y-85991741D01*
X100108702Y-85990845D01*
X100123187Y-85990108D01*
X100137514Y-85990100D01*
X100151683Y-85990821D01*
G37*
G36*
X99600183Y-85946837D02*
G01*
X99294148Y-85640803D01*
X99482570Y-85452381D01*
X99491780Y-85443283D01*
X99500498Y-85434902D01*
X99508724Y-85427238D01*
X99516459Y-85420290D01*
X99526006Y-85412140D01*
X99534679Y-85405264D01*
X99544291Y-85398461D01*
X99554022Y-85392923D01*
X99555452Y-85392279D01*
X99565560Y-85389305D01*
X99575531Y-85388520D01*
X99586430Y-85389484D01*
X99596729Y-85391761D01*
X99606652Y-85395017D01*
X99616128Y-85398956D01*
X99625157Y-85403578D01*
X99633739Y-85408883D01*
X99641874Y-85414871D01*
X99649563Y-85421543D01*
X99652513Y-85424402D01*
X99675828Y-85447718D01*
X99695171Y-85428375D01*
X99413315Y-85146519D01*
X99393972Y-85165862D01*
X99417288Y-85189177D01*
X99424241Y-85196678D01*
X99430527Y-85204609D01*
X99436148Y-85212970D01*
X99441102Y-85221762D01*
X99445390Y-85230983D01*
X99449012Y-85240635D01*
X99450274Y-85244616D01*
X99452815Y-85254733D01*
X99453637Y-85264686D01*
X99452740Y-85274473D01*
X99450123Y-85284095D01*
X99447857Y-85289519D01*
X99442681Y-85298451D01*
X99436300Y-85307368D01*
X99429841Y-85315468D01*
X99422179Y-85324426D01*
X99415642Y-85331707D01*
X99408429Y-85339471D01*
X99400538Y-85347718D01*
X99391970Y-85356448D01*
X99388964Y-85359465D01*
X98962726Y-85785703D01*
X98953547Y-85794769D01*
X98944857Y-85803122D01*
X98936656Y-85810762D01*
X98928943Y-85817688D01*
X98919420Y-85825814D01*
X98910766Y-85832671D01*
X98901170Y-85839458D01*
X98891447Y-85844988D01*
X98890017Y-85845632D01*
X98879880Y-85848716D01*
X98869998Y-85849623D01*
X98859296Y-85848802D01*
X98849258Y-85846668D01*
X98839136Y-85843312D01*
X98829495Y-85839291D01*
X98820334Y-85834603D01*
X98811654Y-85829249D01*
X98803455Y-85823229D01*
X98795736Y-85816542D01*
X98792784Y-85813681D01*
X98769468Y-85790366D01*
X98750125Y-85809709D01*
X99031981Y-86091565D01*
X99051324Y-86072222D01*
X99028009Y-86048906D01*
X99020835Y-86041311D01*
X99014469Y-86033679D01*
X99007237Y-86023446D01*
X99001440Y-86013148D01*
X98997080Y-86002786D01*
X98994154Y-85992359D01*
X98992665Y-85981867D01*
X98992611Y-85971310D01*
X98993122Y-85966008D01*
X98996397Y-85954516D01*
X99000779Y-85945600D01*
X99006921Y-85935680D01*
X99012682Y-85927582D01*
X99019433Y-85918918D01*
X99027173Y-85909690D01*
X99035903Y-85899898D01*
X99045623Y-85889540D01*
X99052653Y-85882322D01*
X99056333Y-85878619D01*
X99258226Y-85676725D01*
X99564260Y-85982760D01*
X99362367Y-86184653D01*
X99353157Y-86193751D01*
X99344440Y-86202132D01*
X99336213Y-86209796D01*
X99328479Y-86216744D01*
X99318932Y-86224894D01*
X99310259Y-86231769D01*
X99300647Y-86238573D01*
X99290916Y-86244110D01*
X99289485Y-86244755D01*
X99279294Y-86247812D01*
X99269272Y-86248648D01*
X99258343Y-86247715D01*
X99248036Y-86245446D01*
X99238063Y-86242239D01*
X99228546Y-86238342D01*
X99219484Y-86233753D01*
X99210877Y-86228472D01*
X99202726Y-86222500D01*
X99195030Y-86215836D01*
X99192079Y-86212977D01*
X99168246Y-86189143D01*
X99148903Y-86208487D01*
X99431277Y-86490860D01*
X99450620Y-86471517D01*
X99427305Y-86448202D01*
X99420037Y-86440515D01*
X99413583Y-86432804D01*
X99406243Y-86422485D01*
X99400349Y-86412123D01*
X99395902Y-86401717D01*
X99392901Y-86391269D01*
X99391347Y-86380777D01*
X99391239Y-86370242D01*
X99391727Y-86364958D01*
X99395172Y-86353648D01*
X99399641Y-86344840D01*
X99405847Y-86335018D01*
X99411643Y-86326985D01*
X99418416Y-86318381D01*
X99426166Y-86309207D01*
X99434894Y-86299462D01*
X99444600Y-86289146D01*
X99451613Y-86281952D01*
X99455283Y-86278260D01*
X99881521Y-85852022D01*
X99890760Y-85842892D01*
X99899501Y-85834479D01*
X99907744Y-85826782D01*
X99915490Y-85819801D01*
X99925043Y-85811609D01*
X99933710Y-85804690D01*
X99943300Y-85797832D01*
X99952982Y-85792230D01*
X99954403Y-85791575D01*
X99964623Y-85788574D01*
X99974556Y-85787718D01*
X99985288Y-85788568D01*
X99995334Y-85790711D01*
X100005456Y-85794067D01*
X100015097Y-85798088D01*
X100024258Y-85802776D01*
X100032938Y-85808130D01*
X100041137Y-85814151D01*
X100048856Y-85820837D01*
X100051809Y-85823698D01*
X100075124Y-85847013D01*
X100094467Y-85827670D01*
X99812093Y-85545296D01*
X99792750Y-85564639D01*
X99816583Y-85588473D01*
X99823536Y-85595974D01*
X99829823Y-85603905D01*
X99835444Y-85612266D01*
X99840398Y-85621058D01*
X99844686Y-85630279D01*
X99848308Y-85639930D01*
X99849570Y-85643911D01*
X99851925Y-85653827D01*
X99852644Y-85663627D01*
X99851463Y-85674686D01*
X99848675Y-85684238D01*
X99846980Y-85688297D01*
X99841928Y-85697340D01*
X99835640Y-85706322D01*
X99829250Y-85714456D01*
X99821651Y-85723431D01*
X99812843Y-85733248D01*
X99805444Y-85741164D01*
X99797364Y-85749553D01*
X99788605Y-85758415D01*
X99600183Y-85946837D01*
G37*
D11*
X108872614Y-80265075D02*
X109084746Y-80477207D01*
X108714357Y-80847597D02*
X109421463Y-80140490D01*
X109421463Y-80140490D02*
X109118418Y-79837444D01*
X108077960Y-80211200D02*
X108172241Y-80238138D01*
X108172241Y-80238138D02*
X108236217Y-80234771D01*
X108236217Y-80234771D02*
X108333865Y-80197732D01*
X108333865Y-80197732D02*
X108535896Y-79995701D01*
X108535896Y-79995701D02*
X108572935Y-79898053D01*
X108572935Y-79898053D02*
X108576302Y-79834077D01*
X108576302Y-79834077D02*
X108549365Y-79739796D01*
X108549365Y-79739796D02*
X108458451Y-79648882D01*
X108458451Y-79648882D02*
X108364170Y-79621945D01*
X108364170Y-79621945D02*
X108300194Y-79625312D01*
X108300194Y-79625312D02*
X108202546Y-79662351D01*
X108202546Y-79662351D02*
X108000515Y-79864381D01*
X108000515Y-79864381D02*
X107963476Y-79962029D01*
X107963476Y-79962029D02*
X107960109Y-80026006D01*
X107960109Y-80026006D02*
X107987046Y-80120287D01*
X107987046Y-80120287D02*
X108077960Y-80211200D01*
X108064491Y-79254922D02*
X107593087Y-79726327D01*
X107997148Y-79322266D02*
X108000515Y-79258290D01*
X108000515Y-79258290D02*
X107973577Y-79164009D01*
X107973577Y-79164009D02*
X107882664Y-79073095D01*
X107882664Y-79073095D02*
X107788383Y-79046158D01*
X107788383Y-79046158D02*
X107690735Y-79083196D01*
X107690735Y-79083196D02*
X107320346Y-79453586D01*
X106926386Y-79059626D02*
X107020667Y-79086563D01*
X107020667Y-79086563D02*
X107084643Y-79083196D01*
X107084643Y-79083196D02*
X107182291Y-79046157D01*
X107182291Y-79046157D02*
X107384322Y-78844127D01*
X107384322Y-78844127D02*
X107421361Y-78746479D01*
X107421361Y-78746479D02*
X107424728Y-78682502D01*
X107424728Y-78682502D02*
X107397790Y-78588221D01*
X107397790Y-78588221D02*
X107306877Y-78497308D01*
X107306877Y-78497308D02*
X107212596Y-78470370D01*
X107212596Y-78470370D02*
X107148619Y-78473738D01*
X107148619Y-78473738D02*
X107050971Y-78510776D01*
X107050971Y-78510776D02*
X106848941Y-78712807D01*
X106848941Y-78712807D02*
X106811902Y-78810455D01*
X106811902Y-78810455D02*
X106808535Y-78874431D01*
X106808535Y-78874431D02*
X106835472Y-78968712D01*
X106835472Y-78968712D02*
X106926386Y-79059626D01*
X106525692Y-78793619D02*
X106040819Y-78308746D01*
X106754660Y-77473687D02*
X105835421Y-77968661D01*
X105835421Y-77968661D02*
X106330396Y-77049422D01*
X106178873Y-76897899D02*
X105784913Y-76503940D01*
X105784913Y-76503940D02*
X105727671Y-76985446D01*
X105727671Y-76985446D02*
X105636757Y-76894532D01*
X105636757Y-76894532D02*
X105542477Y-76867595D01*
X105542477Y-76867595D02*
X105478500Y-76870962D01*
X105478500Y-76870962D02*
X105380852Y-76908001D01*
X105380852Y-76908001D02*
X105212493Y-77076360D01*
X105212493Y-77076360D02*
X105175454Y-77174008D01*
X105175454Y-77174008D02*
X105172087Y-77237984D01*
X105172087Y-77237984D02*
X105199025Y-77332265D01*
X105199025Y-77332265D02*
X105380852Y-77514092D01*
X105380852Y-77514092D02*
X105475133Y-77541030D01*
X105475133Y-77541030D02*
X105539109Y-77537663D01*
X104508754Y-76507307D02*
X104505386Y-76571283D01*
X104505386Y-76571283D02*
X104562628Y-76695869D01*
X104562628Y-76695869D02*
X104623238Y-76756478D01*
X104623238Y-76756478D02*
X104747823Y-76813720D01*
X104747823Y-76813720D02*
X104875776Y-76806985D01*
X104875776Y-76806985D02*
X104973424Y-76769946D01*
X104973424Y-76769946D02*
X105138415Y-76665564D01*
X105138415Y-76665564D02*
X105239431Y-76564549D01*
X105239431Y-76564549D02*
X105343813Y-76399557D01*
X105343813Y-76399557D02*
X105380852Y-76301909D01*
X105380852Y-76301909D02*
X105387586Y-76173956D01*
X105387586Y-76173956D02*
X105330344Y-76049371D01*
X105330344Y-76049371D02*
X105269735Y-75988762D01*
X105269735Y-75988762D02*
X105145150Y-75931520D01*
X105145150Y-75931520D02*
X105081173Y-75934887D01*
D10*
X83911418Y-49813922D02*
X84483838Y-50386342D01*
X84483838Y-50386342D02*
X84517510Y-50487357D01*
X84517510Y-50487357D02*
X84517510Y-50554701D01*
X84517510Y-50554701D02*
X84483838Y-50655716D01*
X84483838Y-50655716D02*
X84349151Y-50790403D01*
X84349151Y-50790403D02*
X84248136Y-50824075D01*
X84248136Y-50824075D02*
X84180792Y-50824075D01*
X84180792Y-50824075D02*
X84079777Y-50790403D01*
X84079777Y-50790403D02*
X83507357Y-50217983D01*
X83507357Y-51632197D02*
X83911418Y-51228136D01*
X83709388Y-51430166D02*
X83002281Y-50723060D01*
X83002281Y-50723060D02*
X83170640Y-50756731D01*
X83170640Y-50756731D02*
X83305327Y-50756731D01*
X83305327Y-50756731D02*
X83406342Y-50723060D01*
X121364346Y-65972208D02*
X121263330Y-65399789D01*
X121768407Y-65568147D02*
X121061300Y-64861041D01*
X121061300Y-64861041D02*
X120791926Y-65130415D01*
X120791926Y-65130415D02*
X120758254Y-65231430D01*
X120758254Y-65231430D02*
X120758254Y-65298773D01*
X120758254Y-65298773D02*
X120791926Y-65399789D01*
X120791926Y-65399789D02*
X120892941Y-65500804D01*
X120892941Y-65500804D02*
X120993956Y-65534476D01*
X120993956Y-65534476D02*
X121061300Y-65534476D01*
X121061300Y-65534476D02*
X121162315Y-65500804D01*
X121162315Y-65500804D02*
X121431689Y-65231430D01*
X120690911Y-66645643D02*
X121094972Y-66241582D01*
X120892941Y-66443613D02*
X120185834Y-65736506D01*
X120185834Y-65736506D02*
X120354193Y-65770178D01*
X120354193Y-65770178D02*
X120488880Y-65770178D01*
X120488880Y-65770178D02*
X120589895Y-65736506D01*
X119344041Y-66578300D02*
X119680758Y-66241582D01*
X119680758Y-66241582D02*
X120051147Y-66544628D01*
X120051147Y-66544628D02*
X119983804Y-66544628D01*
X119983804Y-66544628D02*
X119882789Y-66578300D01*
X119882789Y-66578300D02*
X119714430Y-66746659D01*
X119714430Y-66746659D02*
X119680758Y-66847674D01*
X119680758Y-66847674D02*
X119680758Y-66915017D01*
X119680758Y-66915017D02*
X119714430Y-67016033D01*
X119714430Y-67016033D02*
X119882789Y-67184391D01*
X119882789Y-67184391D02*
X119983804Y-67218063D01*
X119983804Y-67218063D02*
X120051147Y-67218063D01*
X120051147Y-67218063D02*
X120152163Y-67184391D01*
X120152163Y-67184391D02*
X120320521Y-67016033D01*
X120320521Y-67016033D02*
X120354193Y-66915017D01*
X120354193Y-66915017D02*
X120354193Y-66847674D01*
X110079077Y-62575418D02*
X109506657Y-63147838D01*
X109506657Y-63147838D02*
X109405642Y-63181510D01*
X109405642Y-63181510D02*
X109338298Y-63181510D01*
X109338298Y-63181510D02*
X109237283Y-63147838D01*
X109237283Y-63147838D02*
X109102596Y-63013151D01*
X109102596Y-63013151D02*
X109068924Y-62912136D01*
X109068924Y-62912136D02*
X109068924Y-62844792D01*
X109068924Y-62844792D02*
X109102596Y-62743777D01*
X109102596Y-62743777D02*
X109675016Y-62171357D01*
X109001581Y-61497922D02*
X109338298Y-61834640D01*
X109338298Y-61834640D02*
X109035252Y-62205029D01*
X109035252Y-62205029D02*
X109035252Y-62137686D01*
X109035252Y-62137686D02*
X109001581Y-62036670D01*
X109001581Y-62036670D02*
X108833222Y-61868312D01*
X108833222Y-61868312D02*
X108732207Y-61834640D01*
X108732207Y-61834640D02*
X108664863Y-61834640D01*
X108664863Y-61834640D02*
X108563848Y-61868312D01*
X108563848Y-61868312D02*
X108395489Y-62036670D01*
X108395489Y-62036670D02*
X108361817Y-62137686D01*
X108361817Y-62137686D02*
X108361817Y-62205029D01*
X108361817Y-62205029D02*
X108395489Y-62306044D01*
X108395489Y-62306044D02*
X108563848Y-62474403D01*
X108563848Y-62474403D02*
X108664863Y-62508075D01*
X108664863Y-62508075D02*
X108732207Y-62508075D01*
X112970791Y-76406346D02*
X113543210Y-76305330D01*
X113374852Y-76810407D02*
X114081958Y-76103300D01*
X114081958Y-76103300D02*
X113812584Y-75833926D01*
X113812584Y-75833926D02*
X113711569Y-75800254D01*
X113711569Y-75800254D02*
X113644226Y-75800254D01*
X113644226Y-75800254D02*
X113543210Y-75833926D01*
X113543210Y-75833926D02*
X113442195Y-75934941D01*
X113442195Y-75934941D02*
X113408523Y-76035956D01*
X113408523Y-76035956D02*
X113408523Y-76103300D01*
X113408523Y-76103300D02*
X113442195Y-76204315D01*
X113442195Y-76204315D02*
X113711569Y-76473689D01*
X112297356Y-75732911D02*
X112701417Y-76136972D01*
X112499386Y-75934941D02*
X113206493Y-75227834D01*
X113206493Y-75227834D02*
X113172821Y-75396193D01*
X113172821Y-75396193D02*
X113172821Y-75530880D01*
X113172821Y-75530880D02*
X113206493Y-75631895D01*
X111623921Y-75059476D02*
X112027982Y-75463537D01*
X111825951Y-75261506D02*
X112533058Y-74554399D01*
X112533058Y-74554399D02*
X112499386Y-74722758D01*
X112499386Y-74722758D02*
X112499386Y-74857445D01*
X112499386Y-74857445D02*
X112533058Y-74958460D01*
X106561134Y-57035002D02*
X106561134Y-57102346D01*
X106561134Y-57102346D02*
X106628478Y-57237033D01*
X106628478Y-57237033D02*
X106695821Y-57304376D01*
X106695821Y-57304376D02*
X106830508Y-57371720D01*
X106830508Y-57371720D02*
X106965195Y-57371720D01*
X106965195Y-57371720D02*
X107066210Y-57338048D01*
X107066210Y-57338048D02*
X107234569Y-57237033D01*
X107234569Y-57237033D02*
X107335584Y-57136017D01*
X107335584Y-57136017D02*
X107436600Y-56967659D01*
X107436600Y-56967659D02*
X107470271Y-56866643D01*
X107470271Y-56866643D02*
X107470271Y-56731956D01*
X107470271Y-56731956D02*
X107402928Y-56597269D01*
X107402928Y-56597269D02*
X107335584Y-56529926D01*
X107335584Y-56529926D02*
X107200897Y-56462582D01*
X107200897Y-56462582D02*
X107133554Y-56462582D01*
X105820356Y-56428911D02*
X106224417Y-56832972D01*
X106022386Y-56630941D02*
X106729493Y-55923834D01*
X106729493Y-55923834D02*
X106695821Y-56092193D01*
X106695821Y-56092193D02*
X106695821Y-56226880D01*
X106695821Y-56226880D02*
X106729493Y-56327895D01*
X105887699Y-55082041D02*
X106224417Y-55418758D01*
X106224417Y-55418758D02*
X105921371Y-55789147D01*
X105921371Y-55789147D02*
X105921371Y-55721804D01*
X105921371Y-55721804D02*
X105887699Y-55620789D01*
X105887699Y-55620789D02*
X105719340Y-55452430D01*
X105719340Y-55452430D02*
X105618325Y-55418758D01*
X105618325Y-55418758D02*
X105550982Y-55418758D01*
X105550982Y-55418758D02*
X105449966Y-55452430D01*
X105449966Y-55452430D02*
X105281608Y-55620789D01*
X105281608Y-55620789D02*
X105247936Y-55721804D01*
X105247936Y-55721804D02*
X105247936Y-55789147D01*
X105247936Y-55789147D02*
X105281608Y-55890163D01*
X105281608Y-55890163D02*
X105449966Y-56058521D01*
X105449966Y-56058521D02*
X105550982Y-56092193D01*
X105550982Y-56092193D02*
X105618325Y-56092193D01*
X84507416Y-73081284D02*
X84507416Y-73148628D01*
X84507416Y-73148628D02*
X84574760Y-73283315D01*
X84574760Y-73283315D02*
X84642103Y-73350658D01*
X84642103Y-73350658D02*
X84776790Y-73418002D01*
X84776790Y-73418002D02*
X84911477Y-73418002D01*
X84911477Y-73418002D02*
X85012493Y-73384330D01*
X85012493Y-73384330D02*
X85180851Y-73283315D01*
X85180851Y-73283315D02*
X85281867Y-73182300D01*
X85281867Y-73182300D02*
X85382882Y-73013941D01*
X85382882Y-73013941D02*
X85416554Y-72912926D01*
X85416554Y-72912926D02*
X85416554Y-72778239D01*
X85416554Y-72778239D02*
X85349210Y-72643552D01*
X85349210Y-72643552D02*
X85281867Y-72576208D01*
X85281867Y-72576208D02*
X85147180Y-72508865D01*
X85147180Y-72508865D02*
X85079836Y-72508865D01*
X84305386Y-72071132D02*
X83833981Y-72542536D01*
X84743118Y-71970117D02*
X84406401Y-72643552D01*
X84406401Y-72643552D02*
X83968668Y-72205819D01*
X98776077Y-72862418D02*
X98203657Y-73434838D01*
X98203657Y-73434838D02*
X98102642Y-73468510D01*
X98102642Y-73468510D02*
X98035298Y-73468510D01*
X98035298Y-73468510D02*
X97934283Y-73434838D01*
X97934283Y-73434838D02*
X97799596Y-73300151D01*
X97799596Y-73300151D02*
X97765924Y-73199136D01*
X97765924Y-73199136D02*
X97765924Y-73131792D01*
X97765924Y-73131792D02*
X97799596Y-73030777D01*
X97799596Y-73030777D02*
X98372016Y-72458357D01*
X98102642Y-72188983D02*
X97664909Y-71751251D01*
X97664909Y-71751251D02*
X97631237Y-72256327D01*
X97631237Y-72256327D02*
X97530222Y-72155312D01*
X97530222Y-72155312D02*
X97429207Y-72121640D01*
X97429207Y-72121640D02*
X97361863Y-72121640D01*
X97361863Y-72121640D02*
X97260848Y-72155312D01*
X97260848Y-72155312D02*
X97092489Y-72323670D01*
X97092489Y-72323670D02*
X97058817Y-72424686D01*
X97058817Y-72424686D02*
X97058817Y-72492029D01*
X97058817Y-72492029D02*
X97092489Y-72593044D01*
X97092489Y-72593044D02*
X97294520Y-72795075D01*
X97294520Y-72795075D02*
X97395535Y-72828747D01*
X97395535Y-72828747D02*
X97462878Y-72828747D01*
X104110077Y-56352418D02*
X103537657Y-56924838D01*
X103537657Y-56924838D02*
X103436642Y-56958510D01*
X103436642Y-56958510D02*
X103369298Y-56958510D01*
X103369298Y-56958510D02*
X103268283Y-56924838D01*
X103268283Y-56924838D02*
X103133596Y-56790151D01*
X103133596Y-56790151D02*
X103099924Y-56689136D01*
X103099924Y-56689136D02*
X103099924Y-56621792D01*
X103099924Y-56621792D02*
X103133596Y-56520777D01*
X103133596Y-56520777D02*
X103706016Y-55948357D01*
X103066252Y-55308594D02*
X103200939Y-55443281D01*
X103200939Y-55443281D02*
X103234611Y-55544296D01*
X103234611Y-55544296D02*
X103234611Y-55611640D01*
X103234611Y-55611640D02*
X103200939Y-55779999D01*
X103200939Y-55779999D02*
X103099924Y-55948357D01*
X103099924Y-55948357D02*
X102830550Y-56217731D01*
X102830550Y-56217731D02*
X102729535Y-56251403D01*
X102729535Y-56251403D02*
X102662191Y-56251403D01*
X102662191Y-56251403D02*
X102561176Y-56217731D01*
X102561176Y-56217731D02*
X102426489Y-56083044D01*
X102426489Y-56083044D02*
X102392817Y-55982029D01*
X102392817Y-55982029D02*
X102392817Y-55914686D01*
X102392817Y-55914686D02*
X102426489Y-55813670D01*
X102426489Y-55813670D02*
X102594848Y-55645312D01*
X102594848Y-55645312D02*
X102695863Y-55611640D01*
X102695863Y-55611640D02*
X102763207Y-55611640D01*
X102763207Y-55611640D02*
X102864222Y-55645312D01*
X102864222Y-55645312D02*
X102998909Y-55779999D01*
X102998909Y-55779999D02*
X103032581Y-55881014D01*
X103032581Y-55881014D02*
X103032581Y-55948357D01*
X103032581Y-55948357D02*
X102998909Y-56049373D01*
X86578418Y-66577922D02*
X87150838Y-67150342D01*
X87150838Y-67150342D02*
X87184510Y-67251357D01*
X87184510Y-67251357D02*
X87184510Y-67318701D01*
X87184510Y-67318701D02*
X87150838Y-67419716D01*
X87150838Y-67419716D02*
X87016151Y-67554403D01*
X87016151Y-67554403D02*
X86915136Y-67588075D01*
X86915136Y-67588075D02*
X86847792Y-67588075D01*
X86847792Y-67588075D02*
X86746777Y-67554403D01*
X86746777Y-67554403D02*
X86174357Y-66981983D01*
X85938655Y-67352373D02*
X85871312Y-67352373D01*
X85871312Y-67352373D02*
X85770296Y-67386044D01*
X85770296Y-67386044D02*
X85601938Y-67554403D01*
X85601938Y-67554403D02*
X85568266Y-67655418D01*
X85568266Y-67655418D02*
X85568266Y-67722762D01*
X85568266Y-67722762D02*
X85601938Y-67823777D01*
X85601938Y-67823777D02*
X85669281Y-67891121D01*
X85669281Y-67891121D02*
X85803968Y-67958464D01*
X85803968Y-67958464D02*
X86612090Y-67958464D01*
X86612090Y-67958464D02*
X86174357Y-68396197D01*
X79696791Y-57864346D02*
X80269210Y-57763330D01*
X80100852Y-58268407D02*
X80807958Y-57561300D01*
X80807958Y-57561300D02*
X80538584Y-57291926D01*
X80538584Y-57291926D02*
X80437569Y-57258254D01*
X80437569Y-57258254D02*
X80370226Y-57258254D01*
X80370226Y-57258254D02*
X80269210Y-57291926D01*
X80269210Y-57291926D02*
X80168195Y-57392941D01*
X80168195Y-57392941D02*
X80134523Y-57493956D01*
X80134523Y-57493956D02*
X80134523Y-57561300D01*
X80134523Y-57561300D02*
X80168195Y-57662315D01*
X80168195Y-57662315D02*
X80437569Y-57931689D01*
X79023356Y-57190911D02*
X79427417Y-57594972D01*
X79225386Y-57392941D02*
X79932493Y-56685834D01*
X79932493Y-56685834D02*
X79898821Y-56854193D01*
X79898821Y-56854193D02*
X79898821Y-56988880D01*
X79898821Y-56988880D02*
X79932493Y-57089895D01*
X79023356Y-56382789D02*
X79124371Y-56416460D01*
X79124371Y-56416460D02*
X79191714Y-56416460D01*
X79191714Y-56416460D02*
X79292730Y-56382789D01*
X79292730Y-56382789D02*
X79326401Y-56349117D01*
X79326401Y-56349117D02*
X79360073Y-56248102D01*
X79360073Y-56248102D02*
X79360073Y-56180758D01*
X79360073Y-56180758D02*
X79326401Y-56079743D01*
X79326401Y-56079743D02*
X79191714Y-55945056D01*
X79191714Y-55945056D02*
X79090699Y-55911384D01*
X79090699Y-55911384D02*
X79023356Y-55911384D01*
X79023356Y-55911384D02*
X78922340Y-55945056D01*
X78922340Y-55945056D02*
X78888669Y-55978728D01*
X78888669Y-55978728D02*
X78854997Y-56079743D01*
X78854997Y-56079743D02*
X78854997Y-56147086D01*
X78854997Y-56147086D02*
X78888669Y-56248102D01*
X78888669Y-56248102D02*
X79023356Y-56382789D01*
X79023356Y-56382789D02*
X79057027Y-56483804D01*
X79057027Y-56483804D02*
X79057027Y-56551147D01*
X79057027Y-56551147D02*
X79023356Y-56652163D01*
X79023356Y-56652163D02*
X78888669Y-56786850D01*
X78888669Y-56786850D02*
X78787653Y-56820521D01*
X78787653Y-56820521D02*
X78720310Y-56820521D01*
X78720310Y-56820521D02*
X78619295Y-56786850D01*
X78619295Y-56786850D02*
X78484608Y-56652163D01*
X78484608Y-56652163D02*
X78450936Y-56551147D01*
X78450936Y-56551147D02*
X78450936Y-56483804D01*
X78450936Y-56483804D02*
X78484608Y-56382789D01*
X78484608Y-56382789D02*
X78619295Y-56248102D01*
X78619295Y-56248102D02*
X78720310Y-56214430D01*
X78720310Y-56214430D02*
X78787653Y-56214430D01*
X78787653Y-56214430D02*
X78888669Y-56248102D01*
X94085394Y-64719147D02*
X94152738Y-64719147D01*
X94152738Y-64719147D02*
X94287425Y-64651803D01*
X94287425Y-64651803D02*
X94354768Y-64584460D01*
X94354768Y-64584460D02*
X94422112Y-64449773D01*
X94422112Y-64449773D02*
X94422112Y-64315086D01*
X94422112Y-64315086D02*
X94388440Y-64214070D01*
X94388440Y-64214070D02*
X94287425Y-64045712D01*
X94287425Y-64045712D02*
X94186410Y-63944696D01*
X94186410Y-63944696D02*
X94018051Y-63843681D01*
X94018051Y-63843681D02*
X93917036Y-63810009D01*
X93917036Y-63810009D02*
X93782349Y-63810009D01*
X93782349Y-63810009D02*
X93647662Y-63877353D01*
X93647662Y-63877353D02*
X93580318Y-63944696D01*
X93580318Y-63944696D02*
X93512975Y-64079383D01*
X93512975Y-64079383D02*
X93512975Y-64146727D01*
X92839540Y-64685475D02*
X92974227Y-64550788D01*
X92974227Y-64550788D02*
X93075242Y-64517116D01*
X93075242Y-64517116D02*
X93142585Y-64517116D01*
X93142585Y-64517116D02*
X93310944Y-64550788D01*
X93310944Y-64550788D02*
X93479303Y-64651803D01*
X93479303Y-64651803D02*
X93748677Y-64921177D01*
X93748677Y-64921177D02*
X93782349Y-65022193D01*
X93782349Y-65022193D02*
X93782349Y-65089536D01*
X93782349Y-65089536D02*
X93748677Y-65190551D01*
X93748677Y-65190551D02*
X93613990Y-65325238D01*
X93613990Y-65325238D02*
X93512975Y-65358910D01*
X93512975Y-65358910D02*
X93445631Y-65358910D01*
X93445631Y-65358910D02*
X93344616Y-65325238D01*
X93344616Y-65325238D02*
X93176257Y-65156880D01*
X93176257Y-65156880D02*
X93142585Y-65055864D01*
X93142585Y-65055864D02*
X93142585Y-64988521D01*
X93142585Y-64988521D02*
X93176257Y-64887506D01*
X93176257Y-64887506D02*
X93310944Y-64752819D01*
X93310944Y-64752819D02*
X93411959Y-64719147D01*
X93411959Y-64719147D02*
X93479303Y-64719147D01*
X93479303Y-64719147D02*
X93580318Y-64752819D01*
X95500628Y-51830926D02*
X95399613Y-51258506D01*
X95904689Y-51426865D02*
X95197582Y-50719758D01*
X95197582Y-50719758D02*
X94928208Y-50989132D01*
X94928208Y-50989132D02*
X94894536Y-51090148D01*
X94894536Y-51090148D02*
X94894536Y-51157491D01*
X94894536Y-51157491D02*
X94928208Y-51258506D01*
X94928208Y-51258506D02*
X95029223Y-51359522D01*
X95029223Y-51359522D02*
X95130239Y-51393193D01*
X95130239Y-51393193D02*
X95197582Y-51393193D01*
X95197582Y-51393193D02*
X95298597Y-51359522D01*
X95298597Y-51359522D02*
X95567971Y-51090148D01*
X94187430Y-51729911D02*
X94322117Y-51595224D01*
X94322117Y-51595224D02*
X94423132Y-51561552D01*
X94423132Y-51561552D02*
X94490475Y-51561552D01*
X94490475Y-51561552D02*
X94658834Y-51595224D01*
X94658834Y-51595224D02*
X94827193Y-51696239D01*
X94827193Y-51696239D02*
X95096567Y-51965613D01*
X95096567Y-51965613D02*
X95130239Y-52066629D01*
X95130239Y-52066629D02*
X95130239Y-52133972D01*
X95130239Y-52133972D02*
X95096567Y-52234987D01*
X95096567Y-52234987D02*
X94961880Y-52369674D01*
X94961880Y-52369674D02*
X94860865Y-52403346D01*
X94860865Y-52403346D02*
X94793521Y-52403346D01*
X94793521Y-52403346D02*
X94692506Y-52369674D01*
X94692506Y-52369674D02*
X94524147Y-52201316D01*
X94524147Y-52201316D02*
X94490475Y-52100300D01*
X94490475Y-52100300D02*
X94490475Y-52032957D01*
X94490475Y-52032957D02*
X94524147Y-51931942D01*
X94524147Y-51931942D02*
X94658834Y-51797255D01*
X94658834Y-51797255D02*
X94759849Y-51763583D01*
X94759849Y-51763583D02*
X94827193Y-51763583D01*
X94827193Y-51763583D02*
X94928208Y-51797255D01*
X93087628Y-69356926D02*
X92986613Y-68784506D01*
X93491689Y-68952865D02*
X92784582Y-68245758D01*
X92784582Y-68245758D02*
X92515208Y-68515132D01*
X92515208Y-68515132D02*
X92481536Y-68616148D01*
X92481536Y-68616148D02*
X92481536Y-68683491D01*
X92481536Y-68683491D02*
X92515208Y-68784506D01*
X92515208Y-68784506D02*
X92616223Y-68885522D01*
X92616223Y-68885522D02*
X92717239Y-68919193D01*
X92717239Y-68919193D02*
X92784582Y-68919193D01*
X92784582Y-68919193D02*
X92885597Y-68885522D01*
X92885597Y-68885522D02*
X93154971Y-68616148D01*
X92010132Y-69491613D02*
X92481536Y-69963018D01*
X91909117Y-69053881D02*
X92582552Y-69390598D01*
X92582552Y-69390598D02*
X92144819Y-69828331D01*
X82617791Y-60404346D02*
X83190210Y-60303330D01*
X83021852Y-60808407D02*
X83728958Y-60101300D01*
X83728958Y-60101300D02*
X83459584Y-59831926D01*
X83459584Y-59831926D02*
X83358569Y-59798254D01*
X83358569Y-59798254D02*
X83291226Y-59798254D01*
X83291226Y-59798254D02*
X83190210Y-59831926D01*
X83190210Y-59831926D02*
X83089195Y-59932941D01*
X83089195Y-59932941D02*
X83055523Y-60033956D01*
X83055523Y-60033956D02*
X83055523Y-60101300D01*
X83055523Y-60101300D02*
X83089195Y-60202315D01*
X83089195Y-60202315D02*
X83358569Y-60471689D01*
X81944356Y-59730911D02*
X82348417Y-60134972D01*
X82146386Y-59932941D02*
X82853493Y-59225834D01*
X82853493Y-59225834D02*
X82819821Y-59394193D01*
X82819821Y-59394193D02*
X82819821Y-59528880D01*
X82819821Y-59528880D02*
X82853493Y-59629895D01*
X81607638Y-59394193D02*
X81472951Y-59259506D01*
X81472951Y-59259506D02*
X81439279Y-59158491D01*
X81439279Y-59158491D02*
X81439279Y-59091147D01*
X81439279Y-59091147D02*
X81472951Y-58922789D01*
X81472951Y-58922789D02*
X81573966Y-58754430D01*
X81573966Y-58754430D02*
X81843340Y-58485056D01*
X81843340Y-58485056D02*
X81944356Y-58451384D01*
X81944356Y-58451384D02*
X82011699Y-58451384D01*
X82011699Y-58451384D02*
X82112714Y-58485056D01*
X82112714Y-58485056D02*
X82247401Y-58619743D01*
X82247401Y-58619743D02*
X82281073Y-58720758D01*
X82281073Y-58720758D02*
X82281073Y-58788102D01*
X82281073Y-58788102D02*
X82247401Y-58889117D01*
X82247401Y-58889117D02*
X82079043Y-59057476D01*
X82079043Y-59057476D02*
X81978027Y-59091147D01*
X81978027Y-59091147D02*
X81910684Y-59091147D01*
X81910684Y-59091147D02*
X81809669Y-59057476D01*
X81809669Y-59057476D02*
X81674982Y-58922789D01*
X81674982Y-58922789D02*
X81641310Y-58821773D01*
X81641310Y-58821773D02*
X81641310Y-58754430D01*
X81641310Y-58754430D02*
X81674982Y-58653415D01*
X95687284Y-72083583D02*
X95754628Y-72083583D01*
X95754628Y-72083583D02*
X95889315Y-72016239D01*
X95889315Y-72016239D02*
X95956658Y-71948896D01*
X95956658Y-71948896D02*
X96024002Y-71814209D01*
X96024002Y-71814209D02*
X96024002Y-71679522D01*
X96024002Y-71679522D02*
X95990330Y-71578506D01*
X95990330Y-71578506D02*
X95889315Y-71410148D01*
X95889315Y-71410148D02*
X95788300Y-71309132D01*
X95788300Y-71309132D02*
X95619941Y-71208117D01*
X95619941Y-71208117D02*
X95518926Y-71174445D01*
X95518926Y-71174445D02*
X95384239Y-71174445D01*
X95384239Y-71174445D02*
X95249552Y-71241789D01*
X95249552Y-71241789D02*
X95182208Y-71309132D01*
X95182208Y-71309132D02*
X95114865Y-71443819D01*
X95114865Y-71443819D02*
X95114865Y-71511163D01*
X94946506Y-72150926D02*
X94980178Y-72049911D01*
X94980178Y-72049911D02*
X94980178Y-71982568D01*
X94980178Y-71982568D02*
X94946506Y-71881552D01*
X94946506Y-71881552D02*
X94912834Y-71847881D01*
X94912834Y-71847881D02*
X94811819Y-71814209D01*
X94811819Y-71814209D02*
X94744475Y-71814209D01*
X94744475Y-71814209D02*
X94643460Y-71847881D01*
X94643460Y-71847881D02*
X94508773Y-71982568D01*
X94508773Y-71982568D02*
X94475101Y-72083583D01*
X94475101Y-72083583D02*
X94475101Y-72150926D01*
X94475101Y-72150926D02*
X94508773Y-72251942D01*
X94508773Y-72251942D02*
X94542445Y-72285613D01*
X94542445Y-72285613D02*
X94643460Y-72319285D01*
X94643460Y-72319285D02*
X94710804Y-72319285D01*
X94710804Y-72319285D02*
X94811819Y-72285613D01*
X94811819Y-72285613D02*
X94946506Y-72150926D01*
X94946506Y-72150926D02*
X95047521Y-72117255D01*
X95047521Y-72117255D02*
X95114865Y-72117255D01*
X95114865Y-72117255D02*
X95215880Y-72150926D01*
X95215880Y-72150926D02*
X95350567Y-72285613D01*
X95350567Y-72285613D02*
X95384239Y-72386629D01*
X95384239Y-72386629D02*
X95384239Y-72453972D01*
X95384239Y-72453972D02*
X95350567Y-72554987D01*
X95350567Y-72554987D02*
X95215880Y-72689674D01*
X95215880Y-72689674D02*
X95114865Y-72723346D01*
X95114865Y-72723346D02*
X95047521Y-72723346D01*
X95047521Y-72723346D02*
X94946506Y-72689674D01*
X94946506Y-72689674D02*
X94811819Y-72554987D01*
X94811819Y-72554987D02*
X94778147Y-72453972D01*
X94778147Y-72453972D02*
X94778147Y-72386629D01*
X94778147Y-72386629D02*
X94811819Y-72285613D01*
X112911134Y-63512002D02*
X112911134Y-63579346D01*
X112911134Y-63579346D02*
X112978478Y-63714033D01*
X112978478Y-63714033D02*
X113045821Y-63781376D01*
X113045821Y-63781376D02*
X113180508Y-63848720D01*
X113180508Y-63848720D02*
X113315195Y-63848720D01*
X113315195Y-63848720D02*
X113416210Y-63815048D01*
X113416210Y-63815048D02*
X113584569Y-63714033D01*
X113584569Y-63714033D02*
X113685584Y-63613017D01*
X113685584Y-63613017D02*
X113786600Y-63444659D01*
X113786600Y-63444659D02*
X113820271Y-63343643D01*
X113820271Y-63343643D02*
X113820271Y-63208956D01*
X113820271Y-63208956D02*
X113752928Y-63074269D01*
X113752928Y-63074269D02*
X113685584Y-63006926D01*
X113685584Y-63006926D02*
X113550897Y-62939582D01*
X113550897Y-62939582D02*
X113483554Y-62939582D01*
X112170356Y-62905911D02*
X112574417Y-63309972D01*
X112372386Y-63107941D02*
X113079493Y-62400834D01*
X113079493Y-62400834D02*
X113045821Y-62569193D01*
X113045821Y-62569193D02*
X113045821Y-62703880D01*
X113045821Y-62703880D02*
X113079493Y-62804895D01*
X112170356Y-62097789D02*
X112271371Y-62131460D01*
X112271371Y-62131460D02*
X112338714Y-62131460D01*
X112338714Y-62131460D02*
X112439730Y-62097789D01*
X112439730Y-62097789D02*
X112473401Y-62064117D01*
X112473401Y-62064117D02*
X112507073Y-61963102D01*
X112507073Y-61963102D02*
X112507073Y-61895758D01*
X112507073Y-61895758D02*
X112473401Y-61794743D01*
X112473401Y-61794743D02*
X112338714Y-61660056D01*
X112338714Y-61660056D02*
X112237699Y-61626384D01*
X112237699Y-61626384D02*
X112170356Y-61626384D01*
X112170356Y-61626384D02*
X112069340Y-61660056D01*
X112069340Y-61660056D02*
X112035669Y-61693728D01*
X112035669Y-61693728D02*
X112001997Y-61794743D01*
X112001997Y-61794743D02*
X112001997Y-61862086D01*
X112001997Y-61862086D02*
X112035669Y-61963102D01*
X112035669Y-61963102D02*
X112170356Y-62097789D01*
X112170356Y-62097789D02*
X112204027Y-62198804D01*
X112204027Y-62198804D02*
X112204027Y-62266147D01*
X112204027Y-62266147D02*
X112170356Y-62367163D01*
X112170356Y-62367163D02*
X112035669Y-62501850D01*
X112035669Y-62501850D02*
X111934653Y-62535521D01*
X111934653Y-62535521D02*
X111867310Y-62535521D01*
X111867310Y-62535521D02*
X111766295Y-62501850D01*
X111766295Y-62501850D02*
X111631608Y-62367163D01*
X111631608Y-62367163D02*
X111597936Y-62266147D01*
X111597936Y-62266147D02*
X111597936Y-62198804D01*
X111597936Y-62198804D02*
X111631608Y-62097789D01*
X111631608Y-62097789D02*
X111766295Y-61963102D01*
X111766295Y-61963102D02*
X111867310Y-61929430D01*
X111867310Y-61929430D02*
X111934653Y-61929430D01*
X111934653Y-61929430D02*
X112035669Y-61963102D01*
X114943134Y-74561002D02*
X114943134Y-74628346D01*
X114943134Y-74628346D02*
X115010478Y-74763033D01*
X115010478Y-74763033D02*
X115077821Y-74830376D01*
X115077821Y-74830376D02*
X115212508Y-74897720D01*
X115212508Y-74897720D02*
X115347195Y-74897720D01*
X115347195Y-74897720D02*
X115448210Y-74864048D01*
X115448210Y-74864048D02*
X115616569Y-74763033D01*
X115616569Y-74763033D02*
X115717584Y-74662017D01*
X115717584Y-74662017D02*
X115818600Y-74493659D01*
X115818600Y-74493659D02*
X115852271Y-74392643D01*
X115852271Y-74392643D02*
X115852271Y-74257956D01*
X115852271Y-74257956D02*
X115784928Y-74123269D01*
X115784928Y-74123269D02*
X115717584Y-74055926D01*
X115717584Y-74055926D02*
X115582897Y-73988582D01*
X115582897Y-73988582D02*
X115515554Y-73988582D01*
X114202356Y-73954911D02*
X114606417Y-74358972D01*
X114404386Y-74156941D02*
X115111493Y-73449834D01*
X115111493Y-73449834D02*
X115077821Y-73618193D01*
X115077821Y-73618193D02*
X115077821Y-73752880D01*
X115077821Y-73752880D02*
X115111493Y-73853895D01*
X113528921Y-73281476D02*
X113932982Y-73685537D01*
X113730951Y-73483506D02*
X114438058Y-72776399D01*
X114438058Y-72776399D02*
X114404386Y-72944758D01*
X114404386Y-72944758D02*
X114404386Y-73079445D01*
X114404386Y-73079445D02*
X114438058Y-73180460D01*
X91690628Y-73420926D02*
X91589613Y-72848506D01*
X92094689Y-73016865D02*
X91387582Y-72309758D01*
X91387582Y-72309758D02*
X91118208Y-72579132D01*
X91118208Y-72579132D02*
X91084536Y-72680148D01*
X91084536Y-72680148D02*
X91084536Y-72747491D01*
X91084536Y-72747491D02*
X91118208Y-72848506D01*
X91118208Y-72848506D02*
X91219223Y-72949522D01*
X91219223Y-72949522D02*
X91320239Y-72983193D01*
X91320239Y-72983193D02*
X91387582Y-72983193D01*
X91387582Y-72983193D02*
X91488597Y-72949522D01*
X91488597Y-72949522D02*
X91757971Y-72680148D01*
X90882506Y-73420926D02*
X90916178Y-73319911D01*
X90916178Y-73319911D02*
X90916178Y-73252568D01*
X90916178Y-73252568D02*
X90882506Y-73151552D01*
X90882506Y-73151552D02*
X90848834Y-73117881D01*
X90848834Y-73117881D02*
X90747819Y-73084209D01*
X90747819Y-73084209D02*
X90680475Y-73084209D01*
X90680475Y-73084209D02*
X90579460Y-73117881D01*
X90579460Y-73117881D02*
X90444773Y-73252568D01*
X90444773Y-73252568D02*
X90411101Y-73353583D01*
X90411101Y-73353583D02*
X90411101Y-73420926D01*
X90411101Y-73420926D02*
X90444773Y-73521942D01*
X90444773Y-73521942D02*
X90478445Y-73555613D01*
X90478445Y-73555613D02*
X90579460Y-73589285D01*
X90579460Y-73589285D02*
X90646804Y-73589285D01*
X90646804Y-73589285D02*
X90747819Y-73555613D01*
X90747819Y-73555613D02*
X90882506Y-73420926D01*
X90882506Y-73420926D02*
X90983521Y-73387255D01*
X90983521Y-73387255D02*
X91050865Y-73387255D01*
X91050865Y-73387255D02*
X91151880Y-73420926D01*
X91151880Y-73420926D02*
X91286567Y-73555613D01*
X91286567Y-73555613D02*
X91320239Y-73656629D01*
X91320239Y-73656629D02*
X91320239Y-73723972D01*
X91320239Y-73723972D02*
X91286567Y-73824987D01*
X91286567Y-73824987D02*
X91151880Y-73959674D01*
X91151880Y-73959674D02*
X91050865Y-73993346D01*
X91050865Y-73993346D02*
X90983521Y-73993346D01*
X90983521Y-73993346D02*
X90882506Y-73959674D01*
X90882506Y-73959674D02*
X90747819Y-73824987D01*
X90747819Y-73824987D02*
X90714147Y-73723972D01*
X90714147Y-73723972D02*
X90714147Y-73656629D01*
X90714147Y-73656629D02*
X90747819Y-73555613D01*
X97340804Y-66260119D02*
X97340804Y-66327463D01*
X97340804Y-66327463D02*
X97408148Y-66462150D01*
X97408148Y-66462150D02*
X97475491Y-66529493D01*
X97475491Y-66529493D02*
X97610178Y-66596837D01*
X97610178Y-66596837D02*
X97744865Y-66596837D01*
X97744865Y-66596837D02*
X97845880Y-66563165D01*
X97845880Y-66563165D02*
X98014239Y-66462150D01*
X98014239Y-66462150D02*
X98115254Y-66361134D01*
X98115254Y-66361134D02*
X98216270Y-66192776D01*
X98216270Y-66192776D02*
X98249941Y-66091760D01*
X98249941Y-66091760D02*
X98249941Y-65957073D01*
X98249941Y-65957073D02*
X98182598Y-65822386D01*
X98182598Y-65822386D02*
X98115254Y-65755043D01*
X98115254Y-65755043D02*
X97980567Y-65687699D01*
X97980567Y-65687699D02*
X97913224Y-65687699D01*
X96600026Y-65654028D02*
X97004087Y-66058089D01*
X96802056Y-65856058D02*
X97509163Y-65148951D01*
X97509163Y-65148951D02*
X97475491Y-65317310D01*
X97475491Y-65317310D02*
X97475491Y-65451997D01*
X97475491Y-65451997D02*
X97509163Y-65553012D01*
X97071430Y-64711219D02*
X96633697Y-64273486D01*
X96633697Y-64273486D02*
X96600026Y-64778562D01*
X96600026Y-64778562D02*
X96499010Y-64677547D01*
X96499010Y-64677547D02*
X96397995Y-64643875D01*
X96397995Y-64643875D02*
X96330652Y-64643875D01*
X96330652Y-64643875D02*
X96229636Y-64677547D01*
X96229636Y-64677547D02*
X96061278Y-64845906D01*
X96061278Y-64845906D02*
X96027606Y-64946921D01*
X96027606Y-64946921D02*
X96027606Y-65014264D01*
X96027606Y-65014264D02*
X96061278Y-65115280D01*
X96061278Y-65115280D02*
X96263308Y-65317310D01*
X96263308Y-65317310D02*
X96364323Y-65350982D01*
X96364323Y-65350982D02*
X96431667Y-65350982D01*
X97151628Y-67832926D02*
X97050613Y-67260506D01*
X97555689Y-67428865D02*
X96848582Y-66721758D01*
X96848582Y-66721758D02*
X96579208Y-66991132D01*
X96579208Y-66991132D02*
X96545536Y-67092148D01*
X96545536Y-67092148D02*
X96545536Y-67159491D01*
X96545536Y-67159491D02*
X96579208Y-67260506D01*
X96579208Y-67260506D02*
X96680223Y-67361522D01*
X96680223Y-67361522D02*
X96781239Y-67395193D01*
X96781239Y-67395193D02*
X96848582Y-67395193D01*
X96848582Y-67395193D02*
X96949597Y-67361522D01*
X96949597Y-67361522D02*
X97218971Y-67092148D01*
X96208819Y-67361522D02*
X95771086Y-67799255D01*
X95771086Y-67799255D02*
X96276162Y-67832926D01*
X96276162Y-67832926D02*
X96175147Y-67933942D01*
X96175147Y-67933942D02*
X96141475Y-68034957D01*
X96141475Y-68034957D02*
X96141475Y-68102300D01*
X96141475Y-68102300D02*
X96175147Y-68203316D01*
X96175147Y-68203316D02*
X96343506Y-68371674D01*
X96343506Y-68371674D02*
X96444521Y-68405346D01*
X96444521Y-68405346D02*
X96511865Y-68405346D01*
X96511865Y-68405346D02*
X96612880Y-68371674D01*
X96612880Y-68371674D02*
X96814910Y-68169644D01*
X96814910Y-68169644D02*
X96848582Y-68068629D01*
X96848582Y-68068629D02*
X96848582Y-68001285D01*
X94357628Y-70753926D02*
X94256613Y-70181506D01*
X94761689Y-70349865D02*
X94054582Y-69642758D01*
X94054582Y-69642758D02*
X93785208Y-69912132D01*
X93785208Y-69912132D02*
X93751536Y-70013148D01*
X93751536Y-70013148D02*
X93751536Y-70080491D01*
X93751536Y-70080491D02*
X93785208Y-70181506D01*
X93785208Y-70181506D02*
X93886223Y-70282522D01*
X93886223Y-70282522D02*
X93987239Y-70316193D01*
X93987239Y-70316193D02*
X94054582Y-70316193D01*
X94054582Y-70316193D02*
X94155597Y-70282522D01*
X94155597Y-70282522D02*
X94424971Y-70013148D01*
X93010758Y-70686583D02*
X93347475Y-70349865D01*
X93347475Y-70349865D02*
X93717865Y-70652911D01*
X93717865Y-70652911D02*
X93650521Y-70652911D01*
X93650521Y-70652911D02*
X93549506Y-70686583D01*
X93549506Y-70686583D02*
X93381147Y-70854942D01*
X93381147Y-70854942D02*
X93347475Y-70955957D01*
X93347475Y-70955957D02*
X93347475Y-71023300D01*
X93347475Y-71023300D02*
X93381147Y-71124316D01*
X93381147Y-71124316D02*
X93549506Y-71292674D01*
X93549506Y-71292674D02*
X93650521Y-71326346D01*
X93650521Y-71326346D02*
X93717865Y-71326346D01*
X93717865Y-71326346D02*
X93818880Y-71292674D01*
X93818880Y-71292674D02*
X93987239Y-71124316D01*
X93987239Y-71124316D02*
X94020910Y-71023300D01*
X94020910Y-71023300D02*
X94020910Y-70955957D01*
X111065791Y-78311346D02*
X111638210Y-78210330D01*
X111469852Y-78715407D02*
X112176958Y-78008300D01*
X112176958Y-78008300D02*
X111907584Y-77738926D01*
X111907584Y-77738926D02*
X111806569Y-77705254D01*
X111806569Y-77705254D02*
X111739226Y-77705254D01*
X111739226Y-77705254D02*
X111638210Y-77738926D01*
X111638210Y-77738926D02*
X111537195Y-77839941D01*
X111537195Y-77839941D02*
X111503523Y-77940956D01*
X111503523Y-77940956D02*
X111503523Y-78008300D01*
X111503523Y-78008300D02*
X111537195Y-78109315D01*
X111537195Y-78109315D02*
X111806569Y-78378689D01*
X110392356Y-77637911D02*
X110796417Y-78041972D01*
X110594386Y-77839941D02*
X111301493Y-77132834D01*
X111301493Y-77132834D02*
X111267821Y-77301193D01*
X111267821Y-77301193D02*
X111267821Y-77435880D01*
X111267821Y-77435880D02*
X111301493Y-77536895D01*
X110661730Y-76493071D02*
X110594386Y-76425728D01*
X110594386Y-76425728D02*
X110493371Y-76392056D01*
X110493371Y-76392056D02*
X110426027Y-76392056D01*
X110426027Y-76392056D02*
X110325012Y-76425728D01*
X110325012Y-76425728D02*
X110156653Y-76526743D01*
X110156653Y-76526743D02*
X109988295Y-76695102D01*
X109988295Y-76695102D02*
X109887279Y-76863460D01*
X109887279Y-76863460D02*
X109853608Y-76964476D01*
X109853608Y-76964476D02*
X109853608Y-77031819D01*
X109853608Y-77031819D02*
X109887279Y-77132834D01*
X109887279Y-77132834D02*
X109954623Y-77200178D01*
X109954623Y-77200178D02*
X110055638Y-77233850D01*
X110055638Y-77233850D02*
X110122982Y-77233850D01*
X110122982Y-77233850D02*
X110223997Y-77200178D01*
X110223997Y-77200178D02*
X110392356Y-77099163D01*
X110392356Y-77099163D02*
X110560714Y-76930804D01*
X110560714Y-76930804D02*
X110661730Y-76762445D01*
X110661730Y-76762445D02*
X110695401Y-76661430D01*
X110695401Y-76661430D02*
X110695401Y-76594086D01*
X110695401Y-76594086D02*
X110661730Y-76493071D01*
X91242284Y-47953583D02*
X91309628Y-47953583D01*
X91309628Y-47953583D02*
X91444315Y-47886239D01*
X91444315Y-47886239D02*
X91511658Y-47818896D01*
X91511658Y-47818896D02*
X91579002Y-47684209D01*
X91579002Y-47684209D02*
X91579002Y-47549522D01*
X91579002Y-47549522D02*
X91545330Y-47448506D01*
X91545330Y-47448506D02*
X91444315Y-47280148D01*
X91444315Y-47280148D02*
X91343300Y-47179132D01*
X91343300Y-47179132D02*
X91174941Y-47078117D01*
X91174941Y-47078117D02*
X91073926Y-47044445D01*
X91073926Y-47044445D02*
X90939239Y-47044445D01*
X90939239Y-47044445D02*
X90804552Y-47111789D01*
X90804552Y-47111789D02*
X90737208Y-47179132D01*
X90737208Y-47179132D02*
X90669865Y-47313819D01*
X90669865Y-47313819D02*
X90669865Y-47381163D01*
X90400491Y-47650537D02*
X90333147Y-47650537D01*
X90333147Y-47650537D02*
X90232132Y-47684209D01*
X90232132Y-47684209D02*
X90063773Y-47852568D01*
X90063773Y-47852568D02*
X90030101Y-47953583D01*
X90030101Y-47953583D02*
X90030101Y-48020926D01*
X90030101Y-48020926D02*
X90063773Y-48121942D01*
X90063773Y-48121942D02*
X90131117Y-48189285D01*
X90131117Y-48189285D02*
X90265804Y-48256629D01*
X90265804Y-48256629D02*
X91073926Y-48256629D01*
X91073926Y-48256629D02*
X90636193Y-48694361D01*
X116765416Y-72827284D02*
X116765416Y-72894628D01*
X116765416Y-72894628D02*
X116832760Y-73029315D01*
X116832760Y-73029315D02*
X116900103Y-73096658D01*
X116900103Y-73096658D02*
X117034790Y-73164002D01*
X117034790Y-73164002D02*
X117169477Y-73164002D01*
X117169477Y-73164002D02*
X117270493Y-73130330D01*
X117270493Y-73130330D02*
X117438851Y-73029315D01*
X117438851Y-73029315D02*
X117539867Y-72928300D01*
X117539867Y-72928300D02*
X117640882Y-72759941D01*
X117640882Y-72759941D02*
X117674554Y-72658926D01*
X117674554Y-72658926D02*
X117674554Y-72524239D01*
X117674554Y-72524239D02*
X117607210Y-72389552D01*
X117607210Y-72389552D02*
X117539867Y-72322208D01*
X117539867Y-72322208D02*
X117405180Y-72254865D01*
X117405180Y-72254865D02*
X117337836Y-72254865D01*
X116361355Y-72557910D02*
X116226668Y-72423223D01*
X116226668Y-72423223D02*
X116192996Y-72322208D01*
X116192996Y-72322208D02*
X116192996Y-72254865D01*
X116192996Y-72254865D02*
X116226668Y-72086506D01*
X116226668Y-72086506D02*
X116327683Y-71918147D01*
X116327683Y-71918147D02*
X116597057Y-71648773D01*
X116597057Y-71648773D02*
X116698073Y-71615101D01*
X116698073Y-71615101D02*
X116765416Y-71615101D01*
X116765416Y-71615101D02*
X116866431Y-71648773D01*
X116866431Y-71648773D02*
X117001118Y-71783460D01*
X117001118Y-71783460D02*
X117034790Y-71884475D01*
X117034790Y-71884475D02*
X117034790Y-71951819D01*
X117034790Y-71951819D02*
X117001118Y-72052834D01*
X117001118Y-72052834D02*
X116832760Y-72221193D01*
X116832760Y-72221193D02*
X116731744Y-72254865D01*
X116731744Y-72254865D02*
X116664401Y-72254865D01*
X116664401Y-72254865D02*
X116563386Y-72221193D01*
X116563386Y-72221193D02*
X116428699Y-72086506D01*
X116428699Y-72086506D02*
X116395027Y-71985491D01*
X116395027Y-71985491D02*
X116395027Y-71918147D01*
X116395027Y-71918147D02*
X116428699Y-71817132D01*
X118249002Y-62475865D02*
X118316346Y-62475865D01*
X118316346Y-62475865D02*
X118451033Y-62408521D01*
X118451033Y-62408521D02*
X118518376Y-62341178D01*
X118518376Y-62341178D02*
X118585720Y-62206491D01*
X118585720Y-62206491D02*
X118585720Y-62071804D01*
X118585720Y-62071804D02*
X118552048Y-61970789D01*
X118552048Y-61970789D02*
X118451033Y-61802430D01*
X118451033Y-61802430D02*
X118350017Y-61701415D01*
X118350017Y-61701415D02*
X118181659Y-61600399D01*
X118181659Y-61600399D02*
X118080643Y-61566728D01*
X118080643Y-61566728D02*
X117945956Y-61566728D01*
X117945956Y-61566728D02*
X117811269Y-61634071D01*
X117811269Y-61634071D02*
X117743926Y-61701415D01*
X117743926Y-61701415D02*
X117676582Y-61836102D01*
X117676582Y-61836102D02*
X117676582Y-61903445D01*
X117642911Y-63216643D02*
X118046972Y-62812582D01*
X117844941Y-63014613D02*
X117137834Y-62307506D01*
X117137834Y-62307506D02*
X117306193Y-62341178D01*
X117306193Y-62341178D02*
X117440880Y-62341178D01*
X117440880Y-62341178D02*
X117541895Y-62307506D01*
X116565415Y-63351330D02*
X117036819Y-63822735D01*
X116464399Y-62913598D02*
X117137834Y-63250315D01*
X117137834Y-63250315D02*
X116700102Y-63688048D01*
X92131284Y-48715583D02*
X92198628Y-48715583D01*
X92198628Y-48715583D02*
X92333315Y-48648239D01*
X92333315Y-48648239D02*
X92400658Y-48580896D01*
X92400658Y-48580896D02*
X92468002Y-48446209D01*
X92468002Y-48446209D02*
X92468002Y-48311522D01*
X92468002Y-48311522D02*
X92434330Y-48210506D01*
X92434330Y-48210506D02*
X92333315Y-48042148D01*
X92333315Y-48042148D02*
X92232300Y-47941132D01*
X92232300Y-47941132D02*
X92063941Y-47840117D01*
X92063941Y-47840117D02*
X91962926Y-47806445D01*
X91962926Y-47806445D02*
X91828239Y-47806445D01*
X91828239Y-47806445D02*
X91693552Y-47873789D01*
X91693552Y-47873789D02*
X91626208Y-47941132D01*
X91626208Y-47941132D02*
X91558865Y-48075819D01*
X91558865Y-48075819D02*
X91558865Y-48143163D01*
X91255819Y-48311522D02*
X90818086Y-48749255D01*
X90818086Y-48749255D02*
X91323162Y-48782926D01*
X91323162Y-48782926D02*
X91222147Y-48883942D01*
X91222147Y-48883942D02*
X91188475Y-48984957D01*
X91188475Y-48984957D02*
X91188475Y-49052300D01*
X91188475Y-49052300D02*
X91222147Y-49153316D01*
X91222147Y-49153316D02*
X91390506Y-49321674D01*
X91390506Y-49321674D02*
X91491521Y-49355346D01*
X91491521Y-49355346D02*
X91558865Y-49355346D01*
X91558865Y-49355346D02*
X91659880Y-49321674D01*
X91659880Y-49321674D02*
X91861910Y-49119644D01*
X91861910Y-49119644D02*
X91895582Y-49018629D01*
X91895582Y-49018629D02*
X91895582Y-48951285D01*
X92639284Y-63320583D02*
X92706628Y-63320583D01*
X92706628Y-63320583D02*
X92841315Y-63253239D01*
X92841315Y-63253239D02*
X92908658Y-63185896D01*
X92908658Y-63185896D02*
X92976002Y-63051209D01*
X92976002Y-63051209D02*
X92976002Y-62916522D01*
X92976002Y-62916522D02*
X92942330Y-62815506D01*
X92942330Y-62815506D02*
X92841315Y-62647148D01*
X92841315Y-62647148D02*
X92740300Y-62546132D01*
X92740300Y-62546132D02*
X92571941Y-62445117D01*
X92571941Y-62445117D02*
X92470926Y-62411445D01*
X92470926Y-62411445D02*
X92336239Y-62411445D01*
X92336239Y-62411445D02*
X92201552Y-62478789D01*
X92201552Y-62478789D02*
X92134208Y-62546132D01*
X92134208Y-62546132D02*
X92066865Y-62680819D01*
X92066865Y-62680819D02*
X92066865Y-62748163D01*
X91359758Y-63320583D02*
X91696475Y-62983865D01*
X91696475Y-62983865D02*
X92066865Y-63286911D01*
X92066865Y-63286911D02*
X91999521Y-63286911D01*
X91999521Y-63286911D02*
X91898506Y-63320583D01*
X91898506Y-63320583D02*
X91730147Y-63488942D01*
X91730147Y-63488942D02*
X91696475Y-63589957D01*
X91696475Y-63589957D02*
X91696475Y-63657300D01*
X91696475Y-63657300D02*
X91730147Y-63758316D01*
X91730147Y-63758316D02*
X91898506Y-63926674D01*
X91898506Y-63926674D02*
X91999521Y-63960346D01*
X91999521Y-63960346D02*
X92066865Y-63960346D01*
X92066865Y-63960346D02*
X92167880Y-63926674D01*
X92167880Y-63926674D02*
X92336239Y-63758316D01*
X92336239Y-63758316D02*
X92369910Y-63657300D01*
X92369910Y-63657300D02*
X92369910Y-63589957D01*
X101354134Y-73799002D02*
X101354134Y-73866346D01*
X101354134Y-73866346D02*
X101421478Y-74001033D01*
X101421478Y-74001033D02*
X101488821Y-74068376D01*
X101488821Y-74068376D02*
X101623508Y-74135720D01*
X101623508Y-74135720D02*
X101758195Y-74135720D01*
X101758195Y-74135720D02*
X101859210Y-74102048D01*
X101859210Y-74102048D02*
X102027569Y-74001033D01*
X102027569Y-74001033D02*
X102128584Y-73900017D01*
X102128584Y-73900017D02*
X102229600Y-73731659D01*
X102229600Y-73731659D02*
X102263271Y-73630643D01*
X102263271Y-73630643D02*
X102263271Y-73495956D01*
X102263271Y-73495956D02*
X102195928Y-73361269D01*
X102195928Y-73361269D02*
X102128584Y-73293926D01*
X102128584Y-73293926D02*
X101993897Y-73226582D01*
X101993897Y-73226582D02*
X101926554Y-73226582D01*
X100613356Y-73192911D02*
X101017417Y-73596972D01*
X100815386Y-73394941D02*
X101522493Y-72687834D01*
X101522493Y-72687834D02*
X101488821Y-72856193D01*
X101488821Y-72856193D02*
X101488821Y-72990880D01*
X101488821Y-72990880D02*
X101522493Y-73091895D01*
X101084760Y-72250102D02*
X100613356Y-71778697D01*
X100613356Y-71778697D02*
X100209295Y-72788850D01*
X92341002Y-76953865D02*
X92408346Y-76953865D01*
X92408346Y-76953865D02*
X92543033Y-76886521D01*
X92543033Y-76886521D02*
X92610376Y-76819178D01*
X92610376Y-76819178D02*
X92677720Y-76684491D01*
X92677720Y-76684491D02*
X92677720Y-76549804D01*
X92677720Y-76549804D02*
X92644048Y-76448789D01*
X92644048Y-76448789D02*
X92543033Y-76280430D01*
X92543033Y-76280430D02*
X92442017Y-76179415D01*
X92442017Y-76179415D02*
X92273659Y-76078399D01*
X92273659Y-76078399D02*
X92172643Y-76044728D01*
X92172643Y-76044728D02*
X92037956Y-76044728D01*
X92037956Y-76044728D02*
X91903269Y-76112071D01*
X91903269Y-76112071D02*
X91835926Y-76179415D01*
X91835926Y-76179415D02*
X91768582Y-76314102D01*
X91768582Y-76314102D02*
X91768582Y-76381445D01*
X91734911Y-77694643D02*
X92138972Y-77290582D01*
X91936941Y-77492613D02*
X91229834Y-76785506D01*
X91229834Y-76785506D02*
X91398193Y-76819178D01*
X91398193Y-76819178D02*
X91532880Y-76819178D01*
X91532880Y-76819178D02*
X91633895Y-76785506D01*
X90590071Y-77425269D02*
X90522728Y-77492613D01*
X90522728Y-77492613D02*
X90489056Y-77593628D01*
X90489056Y-77593628D02*
X90489056Y-77660972D01*
X90489056Y-77660972D02*
X90522728Y-77761987D01*
X90522728Y-77761987D02*
X90623743Y-77930346D01*
X90623743Y-77930346D02*
X90792102Y-78098704D01*
X90792102Y-78098704D02*
X90960460Y-78199720D01*
X90960460Y-78199720D02*
X91061476Y-78233391D01*
X91061476Y-78233391D02*
X91128819Y-78233391D01*
X91128819Y-78233391D02*
X91229834Y-78199720D01*
X91229834Y-78199720D02*
X91297178Y-78132376D01*
X91297178Y-78132376D02*
X91330850Y-78031361D01*
X91330850Y-78031361D02*
X91330850Y-77964017D01*
X91330850Y-77964017D02*
X91297178Y-77863002D01*
X91297178Y-77863002D02*
X91196163Y-77694643D01*
X91196163Y-77694643D02*
X91027804Y-77526285D01*
X91027804Y-77526285D02*
X90859445Y-77425269D01*
X90859445Y-77425269D02*
X90758430Y-77391598D01*
X90758430Y-77391598D02*
X90691086Y-77391598D01*
X90691086Y-77391598D02*
X90590071Y-77425269D01*
X98608284Y-69289583D02*
X98675628Y-69289583D01*
X98675628Y-69289583D02*
X98810315Y-69222239D01*
X98810315Y-69222239D02*
X98877658Y-69154896D01*
X98877658Y-69154896D02*
X98945002Y-69020209D01*
X98945002Y-69020209D02*
X98945002Y-68885522D01*
X98945002Y-68885522D02*
X98911330Y-68784506D01*
X98911330Y-68784506D02*
X98810315Y-68616148D01*
X98810315Y-68616148D02*
X98709300Y-68515132D01*
X98709300Y-68515132D02*
X98540941Y-68414117D01*
X98540941Y-68414117D02*
X98439926Y-68380445D01*
X98439926Y-68380445D02*
X98305239Y-68380445D01*
X98305239Y-68380445D02*
X98170552Y-68447789D01*
X98170552Y-68447789D02*
X98103208Y-68515132D01*
X98103208Y-68515132D02*
X98035865Y-68649819D01*
X98035865Y-68649819D02*
X98035865Y-68717163D01*
X97732819Y-68885522D02*
X97261414Y-69356926D01*
X97261414Y-69356926D02*
X98271567Y-69760987D01*
X90293628Y-72023926D02*
X90192613Y-71451506D01*
X90697689Y-71619865D02*
X89990582Y-70912758D01*
X89990582Y-70912758D02*
X89721208Y-71182132D01*
X89721208Y-71182132D02*
X89687536Y-71283148D01*
X89687536Y-71283148D02*
X89687536Y-71350491D01*
X89687536Y-71350491D02*
X89721208Y-71451506D01*
X89721208Y-71451506D02*
X89822223Y-71552522D01*
X89822223Y-71552522D02*
X89923239Y-71586193D01*
X89923239Y-71586193D02*
X89990582Y-71586193D01*
X89990582Y-71586193D02*
X90091597Y-71552522D01*
X90091597Y-71552522D02*
X90360971Y-71283148D01*
X89350819Y-71552522D02*
X88879414Y-72023926D01*
X88879414Y-72023926D02*
X89889567Y-72427987D01*
X98619791Y-65103346D02*
X99192210Y-65002330D01*
X99023852Y-65507407D02*
X99730958Y-64800300D01*
X99730958Y-64800300D02*
X99461584Y-64530926D01*
X99461584Y-64530926D02*
X99360569Y-64497254D01*
X99360569Y-64497254D02*
X99293226Y-64497254D01*
X99293226Y-64497254D02*
X99192210Y-64530926D01*
X99192210Y-64530926D02*
X99091195Y-64631941D01*
X99091195Y-64631941D02*
X99057523Y-64732956D01*
X99057523Y-64732956D02*
X99057523Y-64800300D01*
X99057523Y-64800300D02*
X99091195Y-64901315D01*
X99091195Y-64901315D02*
X99360569Y-65170689D01*
X97946356Y-64429911D02*
X98350417Y-64833972D01*
X98148386Y-64631941D02*
X98855493Y-63924834D01*
X98855493Y-63924834D02*
X98821821Y-64093193D01*
X98821821Y-64093193D02*
X98821821Y-64227880D01*
X98821821Y-64227880D02*
X98855493Y-64328895D01*
X98417760Y-63487102D02*
X97980027Y-63049369D01*
X97980027Y-63049369D02*
X97946356Y-63554445D01*
X97946356Y-63554445D02*
X97845340Y-63453430D01*
X97845340Y-63453430D02*
X97744325Y-63419758D01*
X97744325Y-63419758D02*
X97676982Y-63419758D01*
X97676982Y-63419758D02*
X97575966Y-63453430D01*
X97575966Y-63453430D02*
X97407608Y-63621789D01*
X97407608Y-63621789D02*
X97373936Y-63722804D01*
X97373936Y-63722804D02*
X97373936Y-63790147D01*
X97373936Y-63790147D02*
X97407608Y-63891163D01*
X97407608Y-63891163D02*
X97609638Y-64093193D01*
X97609638Y-64093193D02*
X97710653Y-64126865D01*
X97710653Y-64126865D02*
X97777997Y-64126865D01*
X95881628Y-66435926D02*
X95780613Y-65863506D01*
X96285689Y-66031865D02*
X95578582Y-65324758D01*
X95578582Y-65324758D02*
X95309208Y-65594132D01*
X95309208Y-65594132D02*
X95275536Y-65695148D01*
X95275536Y-65695148D02*
X95275536Y-65762491D01*
X95275536Y-65762491D02*
X95309208Y-65863506D01*
X95309208Y-65863506D02*
X95410223Y-65964522D01*
X95410223Y-65964522D02*
X95511239Y-65998193D01*
X95511239Y-65998193D02*
X95578582Y-65998193D01*
X95578582Y-65998193D02*
X95679597Y-65964522D01*
X95679597Y-65964522D02*
X95948971Y-65695148D01*
X94972491Y-66065537D02*
X94905147Y-66065537D01*
X94905147Y-66065537D02*
X94804132Y-66099209D01*
X94804132Y-66099209D02*
X94635773Y-66267568D01*
X94635773Y-66267568D02*
X94602101Y-66368583D01*
X94602101Y-66368583D02*
X94602101Y-66435926D01*
X94602101Y-66435926D02*
X94635773Y-66536942D01*
X94635773Y-66536942D02*
X94703117Y-66604285D01*
X94703117Y-66604285D02*
X94837804Y-66671629D01*
X94837804Y-66671629D02*
X95645926Y-66671629D01*
X95645926Y-66671629D02*
X95208193Y-67109361D01*
X100084134Y-63512002D02*
X100084134Y-63579346D01*
X100084134Y-63579346D02*
X100151478Y-63714033D01*
X100151478Y-63714033D02*
X100218821Y-63781376D01*
X100218821Y-63781376D02*
X100353508Y-63848720D01*
X100353508Y-63848720D02*
X100488195Y-63848720D01*
X100488195Y-63848720D02*
X100589210Y-63815048D01*
X100589210Y-63815048D02*
X100757569Y-63714033D01*
X100757569Y-63714033D02*
X100858584Y-63613017D01*
X100858584Y-63613017D02*
X100959600Y-63444659D01*
X100959600Y-63444659D02*
X100993271Y-63343643D01*
X100993271Y-63343643D02*
X100993271Y-63208956D01*
X100993271Y-63208956D02*
X100925928Y-63074269D01*
X100925928Y-63074269D02*
X100858584Y-63006926D01*
X100858584Y-63006926D02*
X100723897Y-62939582D01*
X100723897Y-62939582D02*
X100656554Y-62939582D01*
X99343356Y-62905911D02*
X99747417Y-63309972D01*
X99545386Y-63107941D02*
X100252493Y-62400834D01*
X100252493Y-62400834D02*
X100218821Y-62569193D01*
X100218821Y-62569193D02*
X100218821Y-62703880D01*
X100218821Y-62703880D02*
X100252493Y-62804895D01*
X99713745Y-61996773D02*
X99713745Y-61929430D01*
X99713745Y-61929430D02*
X99680073Y-61828415D01*
X99680073Y-61828415D02*
X99511714Y-61660056D01*
X99511714Y-61660056D02*
X99410699Y-61626384D01*
X99410699Y-61626384D02*
X99343356Y-61626384D01*
X99343356Y-61626384D02*
X99242340Y-61660056D01*
X99242340Y-61660056D02*
X99174997Y-61727399D01*
X99174997Y-61727399D02*
X99107653Y-61862086D01*
X99107653Y-61862086D02*
X99107653Y-62670208D01*
X99107653Y-62670208D02*
X98669921Y-62232476D01*
X84050072Y-70390134D02*
X83949056Y-69817715D01*
X84454133Y-69986073D02*
X83747026Y-69278967D01*
X83747026Y-69278967D02*
X83477652Y-69548341D01*
X83477652Y-69548341D02*
X83443980Y-69649356D01*
X83443980Y-69649356D02*
X83443980Y-69716699D01*
X83443980Y-69716699D02*
X83477652Y-69817715D01*
X83477652Y-69817715D02*
X83578667Y-69918730D01*
X83578667Y-69918730D02*
X83679682Y-69952402D01*
X83679682Y-69952402D02*
X83747026Y-69952402D01*
X83747026Y-69952402D02*
X83848041Y-69918730D01*
X83848041Y-69918730D02*
X84117415Y-69649356D01*
X83376637Y-71063569D02*
X83780698Y-70659508D01*
X83578667Y-70861539D02*
X82871560Y-70154432D01*
X82871560Y-70154432D02*
X83039919Y-70188104D01*
X83039919Y-70188104D02*
X83174606Y-70188104D01*
X83174606Y-70188104D02*
X83275621Y-70154432D01*
X82433828Y-70592165D02*
X81962423Y-71063569D01*
X81962423Y-71063569D02*
X82972576Y-71467630D01*
X105533628Y-73928926D02*
X105432613Y-73356506D01*
X105937689Y-73524865D02*
X105230582Y-72817758D01*
X105230582Y-72817758D02*
X104961208Y-73087132D01*
X104961208Y-73087132D02*
X104927536Y-73188148D01*
X104927536Y-73188148D02*
X104927536Y-73255491D01*
X104927536Y-73255491D02*
X104961208Y-73356506D01*
X104961208Y-73356506D02*
X105062223Y-73457522D01*
X105062223Y-73457522D02*
X105163239Y-73491193D01*
X105163239Y-73491193D02*
X105230582Y-73491193D01*
X105230582Y-73491193D02*
X105331597Y-73457522D01*
X105331597Y-73457522D02*
X105600971Y-73188148D01*
X105196910Y-74265644D02*
X105062223Y-74400331D01*
X105062223Y-74400331D02*
X104961208Y-74434003D01*
X104961208Y-74434003D02*
X104893865Y-74434003D01*
X104893865Y-74434003D02*
X104725506Y-74400331D01*
X104725506Y-74400331D02*
X104557147Y-74299316D01*
X104557147Y-74299316D02*
X104287773Y-74029942D01*
X104287773Y-74029942D02*
X104254101Y-73928926D01*
X104254101Y-73928926D02*
X104254101Y-73861583D01*
X104254101Y-73861583D02*
X104287773Y-73760568D01*
X104287773Y-73760568D02*
X104422460Y-73625881D01*
X104422460Y-73625881D02*
X104523475Y-73592209D01*
X104523475Y-73592209D02*
X104590819Y-73592209D01*
X104590819Y-73592209D02*
X104691834Y-73625881D01*
X104691834Y-73625881D02*
X104860193Y-73794239D01*
X104860193Y-73794239D02*
X104893865Y-73895255D01*
X104893865Y-73895255D02*
X104893865Y-73962598D01*
X104893865Y-73962598D02*
X104860193Y-74063613D01*
X104860193Y-74063613D02*
X104725506Y-74198300D01*
X104725506Y-74198300D02*
X104624491Y-74231972D01*
X104624491Y-74231972D02*
X104557147Y-74231972D01*
X104557147Y-74231972D02*
X104456132Y-74198300D01*
X93976628Y-50560926D02*
X93875613Y-49988506D01*
X94380689Y-50156865D02*
X93673582Y-49449758D01*
X93673582Y-49449758D02*
X93404208Y-49719132D01*
X93404208Y-49719132D02*
X93370536Y-49820148D01*
X93370536Y-49820148D02*
X93370536Y-49887491D01*
X93370536Y-49887491D02*
X93404208Y-49988506D01*
X93404208Y-49988506D02*
X93505223Y-50089522D01*
X93505223Y-50089522D02*
X93606239Y-50123193D01*
X93606239Y-50123193D02*
X93673582Y-50123193D01*
X93673582Y-50123193D02*
X93774597Y-50089522D01*
X93774597Y-50089522D02*
X94043971Y-49820148D01*
X93303193Y-51234361D02*
X93707254Y-50830300D01*
X93505223Y-51032331D02*
X92798117Y-50325224D01*
X92798117Y-50325224D02*
X92966475Y-50358896D01*
X92966475Y-50358896D02*
X93101162Y-50358896D01*
X93101162Y-50358896D02*
X93202178Y-50325224D01*
X79823791Y-68532346D02*
X80396210Y-68431330D01*
X80227852Y-68936407D02*
X80934958Y-68229300D01*
X80934958Y-68229300D02*
X80665584Y-67959926D01*
X80665584Y-67959926D02*
X80564569Y-67926254D01*
X80564569Y-67926254D02*
X80497226Y-67926254D01*
X80497226Y-67926254D02*
X80396210Y-67959926D01*
X80396210Y-67959926D02*
X80295195Y-68060941D01*
X80295195Y-68060941D02*
X80261523Y-68161956D01*
X80261523Y-68161956D02*
X80261523Y-68229300D01*
X80261523Y-68229300D02*
X80295195Y-68330315D01*
X80295195Y-68330315D02*
X80564569Y-68599689D01*
X79150356Y-67858911D02*
X79554417Y-68262972D01*
X79352386Y-68060941D02*
X80059493Y-67353834D01*
X80059493Y-67353834D02*
X80025821Y-67522193D01*
X80025821Y-67522193D02*
X80025821Y-67656880D01*
X80025821Y-67656880D02*
X80059493Y-67757895D01*
X79251371Y-66545712D02*
X79386058Y-66680399D01*
X79386058Y-66680399D02*
X79419730Y-66781415D01*
X79419730Y-66781415D02*
X79419730Y-66848758D01*
X79419730Y-66848758D02*
X79386058Y-67017117D01*
X79386058Y-67017117D02*
X79285043Y-67185476D01*
X79285043Y-67185476D02*
X79015669Y-67454850D01*
X79015669Y-67454850D02*
X78914653Y-67488521D01*
X78914653Y-67488521D02*
X78847310Y-67488521D01*
X78847310Y-67488521D02*
X78746295Y-67454850D01*
X78746295Y-67454850D02*
X78611608Y-67320163D01*
X78611608Y-67320163D02*
X78577936Y-67219147D01*
X78577936Y-67219147D02*
X78577936Y-67151804D01*
X78577936Y-67151804D02*
X78611608Y-67050789D01*
X78611608Y-67050789D02*
X78779966Y-66882430D01*
X78779966Y-66882430D02*
X78880982Y-66848758D01*
X78880982Y-66848758D02*
X78948325Y-66848758D01*
X78948325Y-66848758D02*
X79049340Y-66882430D01*
X79049340Y-66882430D02*
X79184027Y-67017117D01*
X79184027Y-67017117D02*
X79217699Y-67118132D01*
X79217699Y-67118132D02*
X79217699Y-67185476D01*
X79217699Y-67185476D02*
X79184027Y-67286491D01*
X119459346Y-63940208D02*
X119358330Y-63367789D01*
X119863407Y-63536147D02*
X119156300Y-62829041D01*
X119156300Y-62829041D02*
X118886926Y-63098415D01*
X118886926Y-63098415D02*
X118853254Y-63199430D01*
X118853254Y-63199430D02*
X118853254Y-63266773D01*
X118853254Y-63266773D02*
X118886926Y-63367789D01*
X118886926Y-63367789D02*
X118987941Y-63468804D01*
X118987941Y-63468804D02*
X119088956Y-63502476D01*
X119088956Y-63502476D02*
X119156300Y-63502476D01*
X119156300Y-63502476D02*
X119257315Y-63468804D01*
X119257315Y-63468804D02*
X119526689Y-63199430D01*
X118785911Y-64613643D02*
X119189972Y-64209582D01*
X118987941Y-64411613D02*
X118280834Y-63704506D01*
X118280834Y-63704506D02*
X118449193Y-63738178D01*
X118449193Y-63738178D02*
X118583880Y-63738178D01*
X118583880Y-63738178D02*
X118684895Y-63704506D01*
X117708415Y-64748330D02*
X118179819Y-65219735D01*
X117607399Y-64310598D02*
X118280834Y-64647315D01*
X118280834Y-64647315D02*
X117843102Y-65085048D01*
X101159791Y-72088346D02*
X101732210Y-71987330D01*
X101563852Y-72492407D02*
X102270958Y-71785300D01*
X102270958Y-71785300D02*
X102001584Y-71515926D01*
X102001584Y-71515926D02*
X101900569Y-71482254D01*
X101900569Y-71482254D02*
X101833226Y-71482254D01*
X101833226Y-71482254D02*
X101732210Y-71515926D01*
X101732210Y-71515926D02*
X101631195Y-71616941D01*
X101631195Y-71616941D02*
X101597523Y-71717956D01*
X101597523Y-71717956D02*
X101597523Y-71785300D01*
X101597523Y-71785300D02*
X101631195Y-71886315D01*
X101631195Y-71886315D02*
X101900569Y-72155689D01*
X100486356Y-71414911D02*
X100890417Y-71818972D01*
X100688386Y-71616941D02*
X101395493Y-70909834D01*
X101395493Y-70909834D02*
X101361821Y-71078193D01*
X101361821Y-71078193D02*
X101361821Y-71212880D01*
X101361821Y-71212880D02*
X101395493Y-71313895D01*
X100856745Y-70505773D02*
X100856745Y-70438430D01*
X100856745Y-70438430D02*
X100823073Y-70337415D01*
X100823073Y-70337415D02*
X100654714Y-70169056D01*
X100654714Y-70169056D02*
X100553699Y-70135384D01*
X100553699Y-70135384D02*
X100486356Y-70135384D01*
X100486356Y-70135384D02*
X100385340Y-70169056D01*
X100385340Y-70169056D02*
X100317997Y-70236399D01*
X100317997Y-70236399D02*
X100250653Y-70371086D01*
X100250653Y-70371086D02*
X100250653Y-71179208D01*
X100250653Y-71179208D02*
X99812921Y-70741476D01*
X86495134Y-59836689D02*
X87202241Y-59129582D01*
X87202241Y-59129582D02*
X87033882Y-58961223D01*
X87033882Y-58961223D02*
X86899195Y-58893880D01*
X86899195Y-58893880D02*
X86764508Y-58893880D01*
X86764508Y-58893880D02*
X86663493Y-58927552D01*
X86663493Y-58927552D02*
X86495134Y-59028567D01*
X86495134Y-59028567D02*
X86394118Y-59129582D01*
X86394118Y-59129582D02*
X86293103Y-59297941D01*
X86293103Y-59297941D02*
X86259431Y-59398956D01*
X86259431Y-59398956D02*
X86259431Y-59533643D01*
X86259431Y-59533643D02*
X86326775Y-59668330D01*
X86326775Y-59668330D02*
X86495134Y-59836689D01*
X85417638Y-58759193D02*
X85821699Y-59163254D01*
X85619668Y-58961223D02*
X86326775Y-58254117D01*
X86326775Y-58254117D02*
X86293103Y-58422475D01*
X86293103Y-58422475D02*
X86293103Y-58557162D01*
X86293103Y-58557162D02*
X86326775Y-58658178D01*
X80062416Y-52507284D02*
X80062416Y-52574628D01*
X80062416Y-52574628D02*
X80129760Y-52709315D01*
X80129760Y-52709315D02*
X80197103Y-52776658D01*
X80197103Y-52776658D02*
X80331790Y-52844002D01*
X80331790Y-52844002D02*
X80466477Y-52844002D01*
X80466477Y-52844002D02*
X80567493Y-52810330D01*
X80567493Y-52810330D02*
X80735851Y-52709315D01*
X80735851Y-52709315D02*
X80836867Y-52608300D01*
X80836867Y-52608300D02*
X80937882Y-52439941D01*
X80937882Y-52439941D02*
X80971554Y-52338926D01*
X80971554Y-52338926D02*
X80971554Y-52204239D01*
X80971554Y-52204239D02*
X80904210Y-52069552D01*
X80904210Y-52069552D02*
X80836867Y-52002208D01*
X80836867Y-52002208D02*
X80702180Y-51934865D01*
X80702180Y-51934865D02*
X80634836Y-51934865D01*
X79321638Y-51901193D02*
X79725699Y-52305254D01*
X79523668Y-52103223D02*
X80230775Y-51396117D01*
X80230775Y-51396117D02*
X80197103Y-51564475D01*
X80197103Y-51564475D02*
X80197103Y-51699162D01*
X80197103Y-51699162D02*
X80230775Y-51800178D01*
D14*
X83696162Y-51821954D02*
X84968954Y-50549162D01*
X87245838Y-52826046D02*
X85513426Y-54558457D01*
X118790282Y-68431165D02*
X118469165Y-68752282D01*
X117750835Y-67391718D02*
X117429718Y-67712835D01*
X104460892Y-70981930D02*
X105839751Y-72360788D01*
X104460892Y-70981930D02*
X103082034Y-69603071D01*
X110732930Y-64709892D02*
X113172448Y-67149411D01*
X110732930Y-64709892D02*
X109354071Y-63331034D01*
X110511835Y-73959282D02*
X110190718Y-73638165D01*
X111551282Y-72919835D02*
X111230165Y-72598718D01*
X105075010Y-57956057D02*
X104705543Y-57586590D01*
X106114457Y-56916610D02*
X105744990Y-56547143D01*
X85932990Y-71050543D02*
X86302457Y-71420010D01*
X84893543Y-72089990D02*
X85263010Y-72459457D01*
X93231581Y-81266419D02*
X94610440Y-82645277D01*
X93231581Y-81266419D02*
X91852723Y-79887560D01*
X99503619Y-74994381D02*
X101943137Y-77433900D01*
X99503619Y-74994381D02*
X98124760Y-73615523D01*
X102379678Y-63561410D02*
X102563525Y-63377562D01*
X106049562Y-59891525D02*
X107216288Y-61058252D01*
X106233410Y-59707678D02*
X106049562Y-59891525D01*
X100435134Y-61616866D02*
X102379678Y-63561410D01*
X100435134Y-61616866D02*
X98490590Y-59672322D01*
X104288866Y-57763134D02*
X106233410Y-59707678D01*
X104288866Y-57763134D02*
X102344322Y-55818590D01*
X98490590Y-59672322D02*
X98674438Y-59488475D01*
X102344322Y-55818590D02*
X102160475Y-56002438D01*
X86240255Y-68480261D02*
X87513047Y-67207469D01*
X89789931Y-69484353D02*
X88057519Y-71216764D01*
X80285835Y-56814282D02*
X79964718Y-56493165D01*
X81325282Y-55774835D02*
X81004165Y-55453718D01*
X91121102Y-66320377D02*
X91490569Y-65950910D01*
X92160549Y-67359824D02*
X92530016Y-66990357D01*
X92410718Y-53234835D02*
X92731835Y-52913718D01*
X93450165Y-54274282D02*
X93771282Y-53953165D01*
X90078011Y-70426542D02*
X90399128Y-70105425D01*
X91117458Y-71465989D02*
X91438575Y-71144872D01*
X83079835Y-59481282D02*
X82758718Y-59160165D01*
X84119282Y-58441835D02*
X83798165Y-58120718D01*
X94304573Y-73917674D02*
X93935106Y-74287141D01*
X93265126Y-72878227D02*
X92895659Y-73247694D01*
X111425010Y-64458457D02*
X111055543Y-64088990D01*
X112464457Y-63419010D02*
X112094990Y-63049543D01*
X111933010Y-72586457D02*
X111563543Y-72216990D01*
X112972457Y-71547010D02*
X112602990Y-71177543D01*
X90143175Y-75234272D02*
X89822058Y-75555389D01*
X89103728Y-74194825D02*
X88782611Y-74515942D01*
X99648990Y-67113543D02*
X100018457Y-67483010D01*
X98609543Y-68152990D02*
X98979010Y-68522457D01*
X95578775Y-69798672D02*
X95257658Y-70119789D01*
X94539328Y-68759225D02*
X94218211Y-69080342D01*
X92835575Y-72541872D02*
X92514458Y-72862989D01*
X91796128Y-71502425D02*
X91475011Y-71823542D01*
X109114835Y-75356282D02*
X108793718Y-75035165D01*
X110154282Y-74316835D02*
X109833165Y-73995718D01*
X88345990Y-49472457D02*
X88715457Y-49102990D01*
X87306543Y-48433010D02*
X87676010Y-48063543D01*
X113329544Y-71188991D02*
X112960077Y-70819524D01*
X114368991Y-70149544D02*
X113999524Y-69780077D01*
X115766457Y-65358990D02*
X115396990Y-65728457D01*
X114727010Y-64319543D02*
X114357543Y-64689010D01*
X88830543Y-49830010D02*
X89200010Y-49460543D01*
X89869990Y-50869457D02*
X90239457Y-50499990D01*
X89695259Y-64865694D02*
X90064726Y-64496227D01*
X90734706Y-65905141D02*
X91104173Y-65535674D01*
X99995010Y-74745457D02*
X99625543Y-74375990D01*
X101034457Y-73706010D02*
X100664990Y-73336543D01*
X91567327Y-76654920D02*
X91197860Y-77024387D01*
X90527880Y-75615473D02*
X90158413Y-75984940D01*
X97042564Y-71154283D02*
X96673097Y-71523750D01*
X96003117Y-70114836D02*
X95633650Y-70484303D01*
X87364304Y-73089449D02*
X87685421Y-72768332D01*
X88403751Y-74128896D02*
X88724868Y-73807779D01*
X100030718Y-66780165D02*
X100351835Y-67101282D01*
X101070165Y-65740718D02*
X101391282Y-66061835D01*
X92842518Y-67662035D02*
X93163635Y-67340918D01*
X93881965Y-68701482D02*
X94203082Y-68380365D01*
X102442990Y-64319543D02*
X102812457Y-64689010D01*
X101403543Y-65358990D02*
X101773010Y-65728457D01*
X81488718Y-69059035D02*
X81809835Y-68737918D01*
X82528165Y-70098482D02*
X82849282Y-69777365D01*
X103356165Y-76245282D02*
X103677282Y-75924165D01*
X102316718Y-75205835D02*
X102637835Y-74884718D01*
X90962918Y-51761635D02*
X91284035Y-51440518D01*
X92002365Y-52801082D02*
X92323482Y-52479965D01*
X80260435Y-67431482D02*
X79939318Y-67110365D01*
X81299882Y-66392035D02*
X80978765Y-66070918D01*
X115905718Y-66188835D02*
X116226835Y-65867718D01*
X116945165Y-67228282D02*
X117266282Y-66907165D01*
X101621835Y-71165282D02*
X101300718Y-70844165D01*
X102661282Y-70125835D02*
X102340165Y-69804718D01*
X84041156Y-54873675D02*
X86346324Y-57178843D01*
X82839075Y-56075756D02*
X84041156Y-54873675D01*
X82839075Y-56075756D02*
X85144243Y-58380924D01*
X82797257Y-53741610D02*
X82427790Y-53372143D01*
X81757810Y-54781057D02*
X81388343Y-54411590D01*
M02*
