G04 #@! TF.GenerationSoftware,KiCad,Pcbnew,(7.0.0)*
G04 #@! TF.CreationDate,2023-04-27T15:14:50-06:00*
G04 #@! TF.ProjectId,Fonocardiograma_V3C,466f6e6f-6361-4726-9469-6f6772616d61,rev?*
G04 #@! TF.SameCoordinates,Original*
G04 #@! TF.FileFunction,Profile,NP*
%FSLAX46Y46*%
G04 Gerber Fmt 4.6, Leading zero omitted, Abs format (unit mm)*
G04 Created by KiCad (PCBNEW (7.0.0)) date 2023-04-27 15:14:50*
%MOMM*%
%LPD*%
G01*
G04 APERTURE LIST*
G04 #@! TA.AperFunction,Profile*
%ADD10C,0.166000*%
G04 #@! TD*
G04 #@! TA.AperFunction,Profile*
%ADD11C,0.120000*%
G04 #@! TD*
G04 APERTURE END LIST*
D10*
X87687719Y-46960331D02*
X85739525Y-47360979D01*
X77316403Y-62949833D02*
X77682040Y-64954389D01*
X89445912Y-46857917D02*
X87687719Y-46960331D01*
X123080455Y-67497092D02*
X124012620Y-64368842D01*
X123214606Y-53531559D02*
X121846545Y-51351602D01*
X91169628Y-46999006D02*
X89445912Y-46857917D01*
X117847691Y-74816734D02*
X119381965Y-73219667D01*
X100785887Y-53755002D02*
X100540812Y-53430536D01*
X80780792Y-50218902D02*
X79406109Y-51777957D01*
X77698164Y-55130722D02*
X77279396Y-56822607D01*
X77279396Y-56822607D02*
X77089000Y-58674000D01*
X94454056Y-47984413D02*
X92843974Y-47376778D01*
X111755584Y-46871616D02*
X109079234Y-47273490D01*
X98749776Y-51118282D02*
X97421851Y-49861985D01*
X90989466Y-81375769D02*
X99888663Y-89343985D01*
X116992113Y-47760389D02*
X114430025Y-47040164D01*
X77089000Y-58674000D02*
X77112956Y-60766438D01*
X124454030Y-60766424D02*
X124451509Y-58194757D01*
X119381965Y-73219667D02*
X121567061Y-70373318D01*
X102850829Y-51088610D02*
X101219906Y-53143846D01*
X119331400Y-49013545D02*
X116992113Y-47760389D01*
X95984980Y-48815088D02*
X94454056Y-47984413D01*
X121846545Y-51351602D02*
X120664820Y-50105010D01*
X78980564Y-68589931D02*
X79953790Y-70302393D01*
X92843974Y-47376778D02*
X91169628Y-46999006D01*
X99888663Y-89343985D02*
X100783920Y-90148921D01*
X101219906Y-53143846D02*
X100785887Y-53755002D01*
X83927240Y-48043158D02*
X82268463Y-48998567D01*
X78230037Y-66820842D02*
X78980564Y-68589931D01*
X111575606Y-80509232D02*
X115465794Y-77087151D01*
X84411355Y-75507394D02*
X90989466Y-81375769D01*
X81169884Y-71998966D02*
X82649016Y-73720388D01*
X115465794Y-77087151D02*
X117847691Y-74816734D01*
X97421851Y-49861985D02*
X95984980Y-48815088D01*
X106833382Y-48113924D02*
X104739617Y-49398800D01*
X124451509Y-58194757D02*
X124112228Y-55980145D01*
X77682040Y-64954389D02*
X78230037Y-66820842D01*
X99953859Y-52577156D02*
X98749776Y-51118282D01*
X120664820Y-50105010D02*
X119331400Y-49013545D01*
X82268463Y-48998567D02*
X80780792Y-50218902D01*
X114430025Y-47040164D02*
X111755584Y-46871616D01*
X77112956Y-60766438D02*
X77316403Y-62949833D01*
X79406109Y-51777957D02*
X78359324Y-53516802D01*
X101679220Y-89343770D02*
X111575606Y-80509232D01*
X78359324Y-53516802D02*
X77698164Y-55130722D01*
X100783920Y-90148921D02*
X100783963Y-90148920D01*
X85739525Y-47360979D02*
X83927240Y-48043158D01*
X124112228Y-55980145D02*
X123214606Y-53531559D01*
X100783963Y-90148920D02*
X101679220Y-89343770D01*
X82649016Y-73720388D02*
X84411355Y-75507394D01*
X109079234Y-47273490D02*
X106833382Y-48113924D01*
X124012620Y-64368842D02*
X124454030Y-60766424D01*
X79953790Y-70302393D02*
X81169884Y-71998966D01*
X104739617Y-49398800D02*
X102850829Y-51088610D01*
X100540812Y-53430536D02*
X99953859Y-52577156D01*
X121567061Y-70373318D02*
X123080455Y-67497092D01*
D11*
X98130252Y-61245457D02*
G75*
G03*
X98130252Y-61245457I-1524000J0D01*
G01*
X105314457Y-54061252D02*
G75*
G03*
X105314457Y-54061252I-1524000J0D01*
G01*
M02*
