G04 #@! TF.GenerationSoftware,KiCad,Pcbnew,(7.0.0)*
G04 #@! TF.CreationDate,2023-04-23T00:27:49-06:00*
G04 #@! TF.ProjectId,Fonocardiograma_V3A,466f6e6f-6361-4726-9469-6f6772616d61,rev?*
G04 #@! TF.SameCoordinates,Original*
G04 #@! TF.FileFunction,Legend,Top*
G04 #@! TF.FilePolarity,Positive*
%FSLAX46Y46*%
G04 Gerber Fmt 4.6, Leading zero omitted, Abs format (unit mm)*
G04 Created by KiCad (PCBNEW (7.0.0)) date 2023-04-23 00:27:49*
%MOMM*%
%LPD*%
G01*
G04 APERTURE LIST*
%ADD10C,0.150000*%
%ADD11C,0.125000*%
%ADD12C,0.120000*%
%ADD13C,0.203200*%
G04 APERTURE END LIST*
D10*
X99822000Y-58420000D02*
X99314000Y-58928000D01*
X101853999Y-55117998D02*
X102362001Y-54610002D01*
X103588420Y-74168000D02*
G75*
G03*
X103588420Y-74168000I-359210J0D01*
G01*
X93218000Y-57150000D02*
X92710000Y-57658000D01*
X94949774Y-55461801D02*
X95668199Y-54743383D01*
X95711774Y-73241801D02*
X96430199Y-72523383D01*
X95297762Y-55473026D02*
X95668197Y-55102592D01*
X96012000Y-62230000D02*
X96520000Y-61722000D01*
X96012000Y-61722000D02*
X96520000Y-62230000D01*
X96340393Y-73331603D02*
X96520000Y-73152000D01*
X99314000Y-58420000D02*
X99822000Y-58928000D01*
X101854002Y-54609999D02*
X102361998Y-55118001D01*
X95578393Y-55551603D02*
X95758000Y-55372000D01*
X121799383Y-66966196D02*
X122517803Y-66247777D01*
X96059762Y-73253026D02*
X96430197Y-72882592D01*
X91440000Y-79502000D02*
X91948000Y-80010000D01*
X92710000Y-57150000D02*
X93218000Y-57658000D01*
X112924791Y-56536796D02*
X113643210Y-57255210D01*
X108309210Y-73914000D02*
G75*
G03*
X108309210Y-73914000I-359210J0D01*
G01*
X112913558Y-56884777D02*
X113283998Y-57255207D01*
X122147367Y-66977424D02*
X122517804Y-66606987D01*
X112834986Y-57165410D02*
X113014592Y-57345017D01*
X122428000Y-67056000D02*
X122607605Y-66876395D01*
X91948000Y-79502000D02*
X91440000Y-80010000D01*
X100121282Y-61659533D02*
X100444531Y-61336284D01*
X100707171Y-61922172D02*
X100282907Y-61497908D01*
X100579218Y-61201597D02*
X101380606Y-61248737D01*
X100956342Y-60824473D02*
X101003482Y-61625861D01*
X105960359Y-56668985D02*
X105536094Y-56244720D01*
X105536094Y-56244720D02*
X106027702Y-56359204D01*
X106027702Y-56359204D02*
X105913218Y-55867597D01*
X105913218Y-55867597D02*
X106337482Y-56291861D01*
X106606856Y-56022487D02*
X106182592Y-55598223D01*
D11*
X107437218Y-55151719D02*
X107538233Y-55091110D01*
X107538233Y-55091110D02*
X107672920Y-54956423D01*
X107672920Y-54956423D02*
X107706592Y-54882345D01*
X107706592Y-54882345D02*
X107713326Y-54835204D01*
X107713326Y-54835204D02*
X107699858Y-54767861D01*
X107699858Y-54767861D02*
X107659452Y-54727455D01*
X107659452Y-54727455D02*
X107592108Y-54713986D01*
X107592108Y-54713986D02*
X107544968Y-54720720D01*
X107544968Y-54720720D02*
X107470890Y-54754392D01*
X107470890Y-54754392D02*
X107342937Y-54841939D01*
X107342937Y-54841939D02*
X107268859Y-54875611D01*
X107268859Y-54875611D02*
X107221719Y-54882345D01*
X107221719Y-54882345D02*
X107154375Y-54868876D01*
X107154375Y-54868876D02*
X107113969Y-54828470D01*
X107113969Y-54828470D02*
X107100501Y-54761127D01*
X107100501Y-54761127D02*
X107107235Y-54713986D01*
X107107235Y-54713986D02*
X107140907Y-54639908D01*
X107140907Y-54639908D02*
X107275594Y-54505221D01*
X107275594Y-54505221D02*
X107376609Y-54444612D01*
X108305949Y-54242581D02*
X108299215Y-54289722D01*
X108299215Y-54289722D02*
X108238606Y-54390737D01*
X108238606Y-54390737D02*
X108184731Y-54444612D01*
X108184731Y-54444612D02*
X108083716Y-54505221D01*
X108083716Y-54505221D02*
X107989435Y-54518690D01*
X107989435Y-54518690D02*
X107922092Y-54505221D01*
X107922092Y-54505221D02*
X107814342Y-54451346D01*
X107814342Y-54451346D02*
X107753733Y-54390737D01*
X107753733Y-54390737D02*
X107699858Y-54282988D01*
X107699858Y-54282988D02*
X107686389Y-54215644D01*
X107686389Y-54215644D02*
X107699858Y-54121363D01*
X107699858Y-54121363D02*
X107760467Y-54020348D01*
X107760467Y-54020348D02*
X107814342Y-53966473D01*
X107814342Y-53966473D02*
X107915357Y-53905864D01*
X107915357Y-53905864D02*
X107962498Y-53899130D01*
X108588792Y-54040551D02*
X108164528Y-53616287D01*
X108912041Y-53717302D02*
X108427168Y-53717302D01*
X108487777Y-53293038D02*
X108406965Y-53858723D01*
D10*
X92436664Y-80675833D02*
X92490538Y-80783583D01*
X92490538Y-80783583D02*
X92490538Y-80837457D01*
X92490538Y-80837457D02*
X92463601Y-80918270D01*
X92463601Y-80918270D02*
X92382789Y-80999082D01*
X92382789Y-80999082D02*
X92301977Y-81026019D01*
X92301977Y-81026019D02*
X92248102Y-81026019D01*
X92248102Y-81026019D02*
X92167290Y-80999082D01*
X92167290Y-80999082D02*
X91951790Y-80783583D01*
X91951790Y-80783583D02*
X92517476Y-80217897D01*
X92517476Y-80217897D02*
X92706038Y-80406459D01*
X92706038Y-80406459D02*
X92732975Y-80487271D01*
X92732975Y-80487271D02*
X92732975Y-80541146D01*
X92732975Y-80541146D02*
X92706038Y-80621958D01*
X92706038Y-80621958D02*
X92652163Y-80675833D01*
X92652163Y-80675833D02*
X92571351Y-80702770D01*
X92571351Y-80702770D02*
X92517476Y-80702770D01*
X92517476Y-80702770D02*
X92436664Y-80675833D01*
X92436664Y-80675833D02*
X92248102Y-80487271D01*
X92813787Y-80891332D02*
X93029286Y-81106831D01*
X93083161Y-80783583D02*
X92598288Y-81268456D01*
X92598288Y-81268456D02*
X92571351Y-81349268D01*
X92571351Y-81349268D02*
X92598288Y-81430080D01*
X92598288Y-81430080D02*
X92652163Y-81483955D01*
X93056224Y-81457018D02*
X93487222Y-81888016D01*
X94214532Y-81914953D02*
X94322282Y-82022703D01*
X94322282Y-82022703D02*
X94349219Y-82103515D01*
X94349219Y-82103515D02*
X94349219Y-82211265D01*
X94349219Y-82211265D02*
X94268407Y-82345952D01*
X94268407Y-82345952D02*
X94079845Y-82534514D01*
X94079845Y-82534514D02*
X93945158Y-82615326D01*
X93945158Y-82615326D02*
X93837408Y-82615326D01*
X93837408Y-82615326D02*
X93756596Y-82588388D01*
X93756596Y-82588388D02*
X93648847Y-82480639D01*
X93648847Y-82480639D02*
X93621909Y-82399827D01*
X93621909Y-82399827D02*
X93621909Y-82292077D01*
X93621909Y-82292077D02*
X93702721Y-82157390D01*
X93702721Y-82157390D02*
X93891283Y-81968828D01*
X93891283Y-81968828D02*
X94025970Y-81888016D01*
X94025970Y-81888016D02*
X94133720Y-81888016D01*
X94133720Y-81888016D02*
X94214532Y-81914953D01*
X94133720Y-82965512D02*
X94699405Y-82399826D01*
X94699405Y-82399826D02*
X94456969Y-83288761D01*
X94456969Y-83288761D02*
X95022654Y-82723075D01*
X104182359Y-58446985D02*
X103758094Y-58022720D01*
X103758094Y-58022720D02*
X104249702Y-58137204D01*
X104249702Y-58137204D02*
X104135218Y-57645597D01*
X104135218Y-57645597D02*
X104559482Y-58069861D01*
X104512342Y-57268473D02*
X104620092Y-57160723D01*
X104620092Y-57160723D02*
X104694169Y-57127052D01*
X104694169Y-57127052D02*
X104788450Y-57113583D01*
X104788450Y-57113583D02*
X104896200Y-57167458D01*
X104896200Y-57167458D02*
X105037621Y-57308879D01*
X105037621Y-57308879D02*
X105091496Y-57416629D01*
X105091496Y-57416629D02*
X105078027Y-57510910D01*
X105078027Y-57510910D02*
X105044356Y-57584988D01*
X105044356Y-57584988D02*
X104936606Y-57692737D01*
X104936606Y-57692737D02*
X104862528Y-57726409D01*
X104862528Y-57726409D02*
X104768247Y-57739878D01*
X104768247Y-57739878D02*
X104660498Y-57686003D01*
X104660498Y-57686003D02*
X104519076Y-57544581D01*
X104519076Y-57544581D02*
X104465201Y-57436832D01*
X104465201Y-57436832D02*
X104478670Y-57342551D01*
X104478670Y-57342551D02*
X104512342Y-57268473D01*
X102561186Y-53945642D02*
X103075416Y-54558478D01*
X103122371Y-54021780D02*
X103200528Y-54055658D01*
X103200528Y-54055658D02*
X103283381Y-54035866D01*
X102830545Y-54266651D02*
X102908702Y-54300529D01*
X102908702Y-54300529D02*
X102991554Y-54280738D01*
X102991554Y-54280738D02*
X103108285Y-54182789D01*
X103108285Y-54182789D02*
X103142163Y-54104632D01*
X103142163Y-54104632D02*
X103122371Y-54021780D01*
X103122371Y-54021780D02*
X102853013Y-53700771D01*
X103784181Y-53565915D02*
X103750303Y-53644072D01*
X103750303Y-53644072D02*
X103633572Y-53742021D01*
X103633572Y-53742021D02*
X103550720Y-53761812D01*
X103550720Y-53761812D02*
X103497050Y-53757117D01*
X103497050Y-53757117D02*
X103418893Y-53723239D01*
X103418893Y-53723239D02*
X103271970Y-53548143D01*
X103271970Y-53548143D02*
X103252179Y-53465290D01*
X103252179Y-53465290D02*
X103256874Y-53411620D01*
X103256874Y-53411620D02*
X103290752Y-53333464D01*
X103290752Y-53333464D02*
X103407483Y-53235515D01*
X103407483Y-53235515D02*
X103490335Y-53215723D01*
X103875415Y-53141252D02*
X104342337Y-52749458D01*
X104432561Y-52027264D02*
X104549292Y-51929315D01*
X104549292Y-51929315D02*
X104632144Y-51909523D01*
X104632144Y-51909523D02*
X104739484Y-51918914D01*
X104739484Y-51918914D02*
X104866615Y-52011158D01*
X104866615Y-52011158D02*
X105038025Y-52215436D01*
X105038025Y-52215436D02*
X105106791Y-52356654D01*
X105106791Y-52356654D02*
X105097400Y-52463994D01*
X105097400Y-52463994D02*
X105063522Y-52542151D01*
X105063522Y-52542151D02*
X104946791Y-52640099D01*
X104946791Y-52640099D02*
X104863939Y-52659891D01*
X104863939Y-52659891D02*
X104756599Y-52650500D01*
X104756599Y-52650500D02*
X104629468Y-52558256D01*
X104629468Y-52558256D02*
X104458058Y-52353978D01*
X104458058Y-52353978D02*
X104389292Y-52212760D01*
X104389292Y-52212760D02*
X104398683Y-52105421D01*
X104398683Y-52105421D02*
X104432561Y-52027264D01*
X105472079Y-52199331D02*
X104957848Y-51586495D01*
X104957848Y-51586495D02*
X105822270Y-51905485D01*
X105822270Y-51905485D02*
X105308040Y-51292649D01*
X98663607Y-63965736D02*
X98273015Y-63952267D01*
X98340359Y-64288985D02*
X97916094Y-63864720D01*
X97916094Y-63864720D02*
X98131594Y-63649221D01*
X98131594Y-63649221D02*
X98205672Y-63615550D01*
X98205672Y-63615550D02*
X98252812Y-63608815D01*
X98252812Y-63608815D02*
X98320156Y-63622284D01*
X98320156Y-63622284D02*
X98380765Y-63682893D01*
X98380765Y-63682893D02*
X98394233Y-63750237D01*
X98394233Y-63750237D02*
X98387499Y-63797377D01*
X98387499Y-63797377D02*
X98353827Y-63871455D01*
X98353827Y-63871455D02*
X98138328Y-64086954D01*
X98427905Y-63352910D02*
X99229293Y-63400050D01*
X98805029Y-62975786D02*
X98852169Y-63777174D01*
X102473607Y-60155736D02*
X102083015Y-60142267D01*
X102150359Y-60478985D02*
X101726094Y-60054720D01*
X101726094Y-60054720D02*
X101941594Y-59839221D01*
X101941594Y-59839221D02*
X102015672Y-59805550D01*
X102015672Y-59805550D02*
X102062812Y-59798815D01*
X102062812Y-59798815D02*
X102130156Y-59812284D01*
X102130156Y-59812284D02*
X102190765Y-59872893D01*
X102190765Y-59872893D02*
X102204233Y-59940237D01*
X102204233Y-59940237D02*
X102197499Y-59987377D01*
X102197499Y-59987377D02*
X102163827Y-60061455D01*
X102163827Y-60061455D02*
X101948328Y-60276954D01*
X102668904Y-59920033D02*
X102769919Y-59859424D01*
X102769919Y-59859424D02*
X102904606Y-59724737D01*
X102904606Y-59724737D02*
X102938278Y-59650659D01*
X102938278Y-59650659D02*
X102945012Y-59603519D01*
X102945012Y-59603519D02*
X102931543Y-59536176D01*
X102931543Y-59536176D02*
X102891137Y-59495769D01*
X102891137Y-59495769D02*
X102823794Y-59482301D01*
X102823794Y-59482301D02*
X102776653Y-59489035D01*
X102776653Y-59489035D02*
X102702575Y-59522707D01*
X102702575Y-59522707D02*
X102574623Y-59610253D01*
X102574623Y-59610253D02*
X102500545Y-59643925D01*
X102500545Y-59643925D02*
X102453404Y-59650659D01*
X102453404Y-59650659D02*
X102386061Y-59637191D01*
X102386061Y-59637191D02*
X102345655Y-59596785D01*
X102345655Y-59596785D02*
X102332186Y-59529441D01*
X102332186Y-59529441D02*
X102338920Y-59482301D01*
X102338920Y-59482301D02*
X102372592Y-59408223D01*
X102372592Y-59408223D02*
X102507279Y-59273536D01*
X102507279Y-59273536D02*
X102608294Y-59212927D01*
X102749716Y-59031099D02*
X103072965Y-58707850D01*
X103335604Y-59293739D02*
X102911340Y-58869475D01*
X104451820Y-73992861D02*
X103879400Y-74565281D01*
X103879400Y-74565281D02*
X103845728Y-74666296D01*
X103845728Y-74666296D02*
X103845728Y-74733640D01*
X103845728Y-74733640D02*
X103879400Y-74834655D01*
X103879400Y-74834655D02*
X104014087Y-74969342D01*
X104014087Y-74969342D02*
X104115102Y-75003014D01*
X104115102Y-75003014D02*
X104182446Y-75003014D01*
X104182446Y-75003014D02*
X104283461Y-74969342D01*
X104283461Y-74969342D02*
X104855881Y-74396922D01*
X105125255Y-74666296D02*
X105562987Y-75104029D01*
X105562987Y-75104029D02*
X105057911Y-75137701D01*
X105057911Y-75137701D02*
X105158926Y-75238716D01*
X105158926Y-75238716D02*
X105192598Y-75339731D01*
X105192598Y-75339731D02*
X105192598Y-75407075D01*
X105192598Y-75407075D02*
X105158926Y-75508090D01*
X105158926Y-75508090D02*
X104990568Y-75676449D01*
X104990568Y-75676449D02*
X104889552Y-75710121D01*
X104889552Y-75710121D02*
X104822209Y-75710121D01*
X104822209Y-75710121D02*
X104721194Y-75676449D01*
X104721194Y-75676449D02*
X104519163Y-75474418D01*
X104519163Y-75474418D02*
X104485491Y-75373403D01*
X104485491Y-75373403D02*
X104485491Y-75306060D01*
X95969626Y-77802968D02*
X95464550Y-78308044D01*
X95464550Y-78308044D02*
X95329863Y-78375388D01*
X95329863Y-78375388D02*
X95195176Y-78375388D01*
X95195176Y-78375388D02*
X95060489Y-78308044D01*
X95060489Y-78308044D02*
X94993146Y-78240701D01*
X96609390Y-78442731D02*
X96474703Y-78308044D01*
X96474703Y-78308044D02*
X96373688Y-78274373D01*
X96373688Y-78274373D02*
X96306344Y-78274373D01*
X96306344Y-78274373D02*
X96137985Y-78308044D01*
X96137985Y-78308044D02*
X95969627Y-78409060D01*
X95969627Y-78409060D02*
X95700253Y-78678434D01*
X95700253Y-78678434D02*
X95666581Y-78779449D01*
X95666581Y-78779449D02*
X95666581Y-78846792D01*
X95666581Y-78846792D02*
X95700253Y-78947808D01*
X95700253Y-78947808D02*
X95834940Y-79082495D01*
X95834940Y-79082495D02*
X95935955Y-79116166D01*
X95935955Y-79116166D02*
X96003298Y-79116166D01*
X96003298Y-79116166D02*
X96104314Y-79082495D01*
X96104314Y-79082495D02*
X96272672Y-78914136D01*
X96272672Y-78914136D02*
X96306344Y-78813121D01*
X96306344Y-78813121D02*
X96306344Y-78745777D01*
X96306344Y-78745777D02*
X96272672Y-78644762D01*
X96272672Y-78644762D02*
X96137985Y-78510075D01*
X96137985Y-78510075D02*
X96036970Y-78476403D01*
X96036970Y-78476403D02*
X95969627Y-78476403D01*
X95969627Y-78476403D02*
X95868611Y-78510075D01*
X96350249Y-84931804D02*
X97057356Y-84224697D01*
X97057356Y-84224697D02*
X96787982Y-84965476D01*
X96787982Y-84965476D02*
X97528760Y-84696102D01*
X97528760Y-84696102D02*
X96821653Y-85403208D01*
X97158371Y-85739926D02*
X97865478Y-85032819D01*
X97562432Y-86143987D02*
X97663447Y-85436880D01*
X98269539Y-85436880D02*
X97461417Y-85436880D01*
X98235867Y-86817422D02*
X97831806Y-86413361D01*
X98033836Y-86615391D02*
X98740943Y-85908285D01*
X98740943Y-85908285D02*
X98572584Y-85941956D01*
X98572584Y-85941956D02*
X98437897Y-85941956D01*
X98437897Y-85941956D02*
X98336882Y-85908285D01*
X101968997Y-69841865D02*
X101901653Y-69841865D01*
X101901653Y-69841865D02*
X101766966Y-69774521D01*
X101766966Y-69774521D02*
X101699623Y-69707178D01*
X101699623Y-69707178D02*
X101632279Y-69572491D01*
X101632279Y-69572491D02*
X101632279Y-69437804D01*
X101632279Y-69437804D02*
X101665951Y-69336789D01*
X101665951Y-69336789D02*
X101766966Y-69168430D01*
X101766966Y-69168430D02*
X101867982Y-69067415D01*
X101867982Y-69067415D02*
X102036340Y-68966399D01*
X102036340Y-68966399D02*
X102137356Y-68932728D01*
X102137356Y-68932728D02*
X102272043Y-68932728D01*
X102272043Y-68932728D02*
X102406730Y-69000071D01*
X102406730Y-69000071D02*
X102474073Y-69067415D01*
X102474073Y-69067415D02*
X102541417Y-69202102D01*
X102541417Y-69202102D02*
X102541417Y-69269445D01*
X102575088Y-70582643D02*
X102171027Y-70178582D01*
X102373058Y-70380613D02*
X103080165Y-69673506D01*
X103080165Y-69673506D02*
X102911806Y-69707178D01*
X102911806Y-69707178D02*
X102777119Y-69707178D01*
X102777119Y-69707178D02*
X102676104Y-69673506D01*
X103921958Y-70515300D02*
X103585241Y-70178582D01*
X103585241Y-70178582D02*
X103214852Y-70481628D01*
X103214852Y-70481628D02*
X103282195Y-70481628D01*
X103282195Y-70481628D02*
X103383210Y-70515300D01*
X103383210Y-70515300D02*
X103551569Y-70683659D01*
X103551569Y-70683659D02*
X103585241Y-70784674D01*
X103585241Y-70784674D02*
X103585241Y-70852017D01*
X103585241Y-70852017D02*
X103551569Y-70953033D01*
X103551569Y-70953033D02*
X103383210Y-71121391D01*
X103383210Y-71121391D02*
X103282195Y-71155063D01*
X103282195Y-71155063D02*
X103214852Y-71155063D01*
X103214852Y-71155063D02*
X103113836Y-71121391D01*
X103113836Y-71121391D02*
X102945478Y-70953033D01*
X102945478Y-70953033D02*
X102911806Y-70852017D01*
X102911806Y-70852017D02*
X102911806Y-70784674D01*
X106588581Y-73435922D02*
X106016161Y-74008342D01*
X106016161Y-74008342D02*
X105982489Y-74109357D01*
X105982489Y-74109357D02*
X105982489Y-74176701D01*
X105982489Y-74176701D02*
X106016161Y-74277716D01*
X106016161Y-74277716D02*
X106150848Y-74412403D01*
X106150848Y-74412403D02*
X106251863Y-74446075D01*
X106251863Y-74446075D02*
X106319207Y-74446075D01*
X106319207Y-74446075D02*
X106420222Y-74412403D01*
X106420222Y-74412403D02*
X106992642Y-73839983D01*
X107666077Y-74513418D02*
X107329359Y-74176701D01*
X107329359Y-74176701D02*
X106958970Y-74479747D01*
X106958970Y-74479747D02*
X107026313Y-74479747D01*
X107026313Y-74479747D02*
X107127329Y-74513418D01*
X107127329Y-74513418D02*
X107295687Y-74681777D01*
X107295687Y-74681777D02*
X107329359Y-74782792D01*
X107329359Y-74782792D02*
X107329359Y-74850136D01*
X107329359Y-74850136D02*
X107295687Y-74951151D01*
X107295687Y-74951151D02*
X107127329Y-75119510D01*
X107127329Y-75119510D02*
X107026313Y-75153182D01*
X107026313Y-75153182D02*
X106958970Y-75153182D01*
X106958970Y-75153182D02*
X106857955Y-75119510D01*
X106857955Y-75119510D02*
X106689596Y-74951151D01*
X106689596Y-74951151D02*
X106655924Y-74850136D01*
X106655924Y-74850136D02*
X106655924Y-74782792D01*
X85506581Y-60735922D02*
X84934161Y-61308342D01*
X84934161Y-61308342D02*
X84900489Y-61409357D01*
X84900489Y-61409357D02*
X84900489Y-61476701D01*
X84900489Y-61476701D02*
X84934161Y-61577716D01*
X84934161Y-61577716D02*
X85068848Y-61712403D01*
X85068848Y-61712403D02*
X85169863Y-61746075D01*
X85169863Y-61746075D02*
X85237207Y-61746075D01*
X85237207Y-61746075D02*
X85338222Y-61712403D01*
X85338222Y-61712403D02*
X85910642Y-61139983D01*
X86550405Y-61779747D02*
X86415718Y-61645060D01*
X86415718Y-61645060D02*
X86314703Y-61611388D01*
X86314703Y-61611388D02*
X86247359Y-61611388D01*
X86247359Y-61611388D02*
X86079000Y-61645060D01*
X86079000Y-61645060D02*
X85910642Y-61746075D01*
X85910642Y-61746075D02*
X85641268Y-62015449D01*
X85641268Y-62015449D02*
X85607596Y-62116464D01*
X85607596Y-62116464D02*
X85607596Y-62183808D01*
X85607596Y-62183808D02*
X85641268Y-62284823D01*
X85641268Y-62284823D02*
X85775955Y-62419510D01*
X85775955Y-62419510D02*
X85876970Y-62453182D01*
X85876970Y-62453182D02*
X85944313Y-62453182D01*
X85944313Y-62453182D02*
X86045329Y-62419510D01*
X86045329Y-62419510D02*
X86213687Y-62251151D01*
X86213687Y-62251151D02*
X86247359Y-62150136D01*
X86247359Y-62150136D02*
X86247359Y-62082792D01*
X86247359Y-62082792D02*
X86213687Y-61981777D01*
X86213687Y-61981777D02*
X86079000Y-61847090D01*
X86079000Y-61847090D02*
X85977985Y-61813418D01*
X85977985Y-61813418D02*
X85910642Y-61813418D01*
X85910642Y-61813418D02*
X85809626Y-61847090D01*
X96099669Y-70135643D02*
X96571074Y-69192834D01*
X96571074Y-69192834D02*
X95628265Y-69664238D01*
X95628265Y-68384712D02*
X95695608Y-68384712D01*
X95695608Y-68384712D02*
X95830295Y-68452055D01*
X95830295Y-68452055D02*
X95897639Y-68519399D01*
X95897639Y-68519399D02*
X95964982Y-68654086D01*
X95964982Y-68654086D02*
X95964982Y-68788773D01*
X95964982Y-68788773D02*
X95931310Y-68889788D01*
X95931310Y-68889788D02*
X95830295Y-69058147D01*
X95830295Y-69058147D02*
X95729280Y-69159162D01*
X95729280Y-69159162D02*
X95560921Y-69260177D01*
X95560921Y-69260177D02*
X95459906Y-69293849D01*
X95459906Y-69293849D02*
X95325219Y-69293849D01*
X95325219Y-69293849D02*
X95190532Y-69226505D01*
X95190532Y-69226505D02*
X95123188Y-69159162D01*
X95123188Y-69159162D02*
X95055845Y-69024475D01*
X95055845Y-69024475D02*
X95055845Y-68957131D01*
X94921158Y-67677605D02*
X94988501Y-67677605D01*
X94988501Y-67677605D02*
X95123188Y-67744948D01*
X95123188Y-67744948D02*
X95190532Y-67812292D01*
X95190532Y-67812292D02*
X95257875Y-67946979D01*
X95257875Y-67946979D02*
X95257875Y-68081666D01*
X95257875Y-68081666D02*
X95224204Y-68182681D01*
X95224204Y-68182681D02*
X95123188Y-68351040D01*
X95123188Y-68351040D02*
X95022173Y-68452055D01*
X95022173Y-68452055D02*
X94853814Y-68553070D01*
X94853814Y-68553070D02*
X94752799Y-68586742D01*
X94752799Y-68586742D02*
X94618112Y-68586742D01*
X94618112Y-68586742D02*
X94483425Y-68519399D01*
X94483425Y-68519399D02*
X94416082Y-68452055D01*
X94416082Y-68452055D02*
X94348738Y-68317368D01*
X94348738Y-68317368D02*
X94348738Y-68250024D01*
X92543669Y-73437643D02*
X92139608Y-73033582D01*
X93048746Y-72528505D02*
X92341639Y-73235612D01*
X91971249Y-72865223D02*
X92206952Y-71686711D01*
X91499845Y-72393818D02*
X92678356Y-72158116D01*
X91937578Y-71417337D02*
X91230471Y-72124444D01*
X91230471Y-72124444D02*
X91062112Y-71956085D01*
X91062112Y-71956085D02*
X90994769Y-71821398D01*
X90994769Y-71821398D02*
X90994769Y-71686711D01*
X90994769Y-71686711D02*
X91028440Y-71585696D01*
X91028440Y-71585696D02*
X91129456Y-71417337D01*
X91129456Y-71417337D02*
X91230471Y-71316322D01*
X91230471Y-71316322D02*
X91398830Y-71215307D01*
X91398830Y-71215307D02*
X91499845Y-71181635D01*
X91499845Y-71181635D02*
X91634532Y-71181635D01*
X91634532Y-71181635D02*
X91769219Y-71248979D01*
X91769219Y-71248979D02*
X91937578Y-71417337D01*
X90967700Y-74003460D02*
X90866685Y-74575879D01*
X91371761Y-74407521D02*
X90664654Y-75114627D01*
X90664654Y-75114627D02*
X90395280Y-74845253D01*
X90395280Y-74845253D02*
X90361608Y-74744238D01*
X90361608Y-74744238D02*
X90361608Y-74676895D01*
X90361608Y-74676895D02*
X90395280Y-74575879D01*
X90395280Y-74575879D02*
X90496295Y-74474864D01*
X90496295Y-74474864D02*
X90597311Y-74441192D01*
X90597311Y-74441192D02*
X90664654Y-74441192D01*
X90664654Y-74441192D02*
X90765669Y-74474864D01*
X90765669Y-74474864D02*
X91035043Y-74744238D01*
X90024891Y-74474864D02*
X90260593Y-73296353D01*
X89553486Y-74003460D02*
X90731998Y-73767757D01*
X89991219Y-73026979D02*
X89284112Y-73734086D01*
X89284112Y-73734086D02*
X89115753Y-73565727D01*
X89115753Y-73565727D02*
X89048410Y-73431040D01*
X89048410Y-73431040D02*
X89048410Y-73296353D01*
X89048410Y-73296353D02*
X89082082Y-73195338D01*
X89082082Y-73195338D02*
X89183097Y-73026979D01*
X89183097Y-73026979D02*
X89284112Y-72925964D01*
X89284112Y-72925964D02*
X89452471Y-72824948D01*
X89452471Y-72824948D02*
X89553486Y-72791277D01*
X89553486Y-72791277D02*
X89688173Y-72791277D01*
X89688173Y-72791277D02*
X89822860Y-72858620D01*
X89822860Y-72858620D02*
X89991219Y-73026979D01*
X93883937Y-71154566D02*
X93917608Y-71255582D01*
X93917608Y-71255582D02*
X94018624Y-71356597D01*
X94018624Y-71356597D02*
X94153311Y-71423940D01*
X94153311Y-71423940D02*
X94287998Y-71423940D01*
X94287998Y-71423940D02*
X94389013Y-71390269D01*
X94389013Y-71390269D02*
X94557372Y-71289253D01*
X94557372Y-71289253D02*
X94658387Y-71188238D01*
X94658387Y-71188238D02*
X94759402Y-71019879D01*
X94759402Y-71019879D02*
X94793074Y-70918864D01*
X94793074Y-70918864D02*
X94793074Y-70784177D01*
X94793074Y-70784177D02*
X94725730Y-70649490D01*
X94725730Y-70649490D02*
X94658387Y-70582147D01*
X94658387Y-70582147D02*
X94523700Y-70514803D01*
X94523700Y-70514803D02*
X94456356Y-70514803D01*
X94456356Y-70514803D02*
X94220654Y-70750505D01*
X94220654Y-70750505D02*
X94355341Y-70885192D01*
X94220654Y-70144414D02*
X93513547Y-70851521D01*
X93513547Y-70851521D02*
X93816593Y-69740353D01*
X93816593Y-69740353D02*
X93109486Y-70447460D01*
X93479876Y-69403635D02*
X92772769Y-70110742D01*
X92772769Y-70110742D02*
X92604410Y-69942383D01*
X92604410Y-69942383D02*
X92537067Y-69807696D01*
X92537067Y-69807696D02*
X92537067Y-69673009D01*
X92537067Y-69673009D02*
X92570738Y-69571994D01*
X92570738Y-69571994D02*
X92671754Y-69403635D01*
X92671754Y-69403635D02*
X92772769Y-69302620D01*
X92772769Y-69302620D02*
X92941128Y-69201605D01*
X92941128Y-69201605D02*
X93042143Y-69167933D01*
X93042143Y-69167933D02*
X93176830Y-69167933D01*
X93176830Y-69167933D02*
X93311517Y-69235277D01*
X93311517Y-69235277D02*
X93479876Y-69403635D01*
X98113372Y-67665910D02*
X97877669Y-67430208D01*
X98147043Y-66958803D02*
X98483761Y-67295521D01*
X98483761Y-67295521D02*
X97776654Y-68002627D01*
X97776654Y-68002627D02*
X97439937Y-67665910D01*
X97843997Y-66655757D02*
X97136891Y-67362864D01*
X97136891Y-67362864D02*
X97439936Y-66251696D01*
X97439936Y-66251696D02*
X96732830Y-66958803D01*
X89593761Y-76252864D02*
X89526417Y-76118177D01*
X89526417Y-76118177D02*
X89358059Y-75949818D01*
X89358059Y-75949818D02*
X89257043Y-75916147D01*
X89257043Y-75916147D02*
X89189700Y-75916147D01*
X89189700Y-75916147D02*
X89088685Y-75949818D01*
X89088685Y-75949818D02*
X89021341Y-76017162D01*
X89021341Y-76017162D02*
X88987669Y-76118177D01*
X88987669Y-76118177D02*
X88987669Y-76185521D01*
X88987669Y-76185521D02*
X89021341Y-76286536D01*
X89021341Y-76286536D02*
X89122356Y-76454895D01*
X89122356Y-76454895D02*
X89156028Y-76555910D01*
X89156028Y-76555910D02*
X89156028Y-76623253D01*
X89156028Y-76623253D02*
X89122356Y-76724269D01*
X89122356Y-76724269D02*
X89055013Y-76791612D01*
X89055013Y-76791612D02*
X88953998Y-76825284D01*
X88953998Y-76825284D02*
X88886654Y-76825284D01*
X88886654Y-76825284D02*
X88785639Y-76791612D01*
X88785639Y-76791612D02*
X88617280Y-76623253D01*
X88617280Y-76623253D02*
X88549937Y-76488566D01*
X88549937Y-76084505D02*
X88280562Y-75815131D01*
X88213219Y-76219192D02*
X88819311Y-75613101D01*
X88819311Y-75613101D02*
X88852982Y-75512086D01*
X88852982Y-75512086D02*
X88819311Y-75411070D01*
X88819311Y-75411070D02*
X88751967Y-75343727D01*
X88213219Y-74804978D02*
X87842829Y-75175368D01*
X87842829Y-75175368D02*
X87809158Y-75276383D01*
X87809158Y-75276383D02*
X87842829Y-75377398D01*
X87842829Y-75377398D02*
X87977516Y-75512085D01*
X87977516Y-75512085D02*
X88078532Y-75545757D01*
X88179547Y-74838650D02*
X88280562Y-74872322D01*
X88280562Y-74872322D02*
X88448921Y-75040681D01*
X88448921Y-75040681D02*
X88482593Y-75141696D01*
X88482593Y-75141696D02*
X88448921Y-75242711D01*
X88448921Y-75242711D02*
X88381577Y-75310055D01*
X88381577Y-75310055D02*
X88280562Y-75343727D01*
X88280562Y-75343727D02*
X88179547Y-75310055D01*
X88179547Y-75310055D02*
X88011188Y-75141696D01*
X88011188Y-75141696D02*
X87910173Y-75108024D01*
X87506112Y-75040681D02*
X87236738Y-74771307D01*
X87169394Y-75175368D02*
X87775486Y-74569276D01*
X87775486Y-74569276D02*
X87809158Y-74468261D01*
X87809158Y-74468261D02*
X87775486Y-74367246D01*
X87775486Y-74367246D02*
X87708142Y-74299902D01*
X87169394Y-73828497D02*
X87270409Y-73862169D01*
X87270409Y-73862169D02*
X87405096Y-73996856D01*
X87405096Y-73996856D02*
X87438768Y-74097871D01*
X87438768Y-74097871D02*
X87405096Y-74198887D01*
X87405096Y-74198887D02*
X87135722Y-74468261D01*
X87135722Y-74468261D02*
X87034707Y-74501932D01*
X87034707Y-74501932D02*
X86933692Y-74468261D01*
X86933692Y-74468261D02*
X86799005Y-74333574D01*
X86799005Y-74333574D02*
X86765333Y-74232558D01*
X86765333Y-74232558D02*
X86799005Y-74131543D01*
X86799005Y-74131543D02*
X86866348Y-74064200D01*
X86866348Y-74064200D02*
X87270409Y-74333574D01*
X106821926Y-80641628D02*
X106249506Y-80540613D01*
X106417865Y-81045689D02*
X105710758Y-80338582D01*
X105710758Y-80338582D02*
X105980132Y-80069208D01*
X105980132Y-80069208D02*
X106081148Y-80035536D01*
X106081148Y-80035536D02*
X106148491Y-80035536D01*
X106148491Y-80035536D02*
X106249506Y-80069208D01*
X106249506Y-80069208D02*
X106350522Y-80170223D01*
X106350522Y-80170223D02*
X106384193Y-80271239D01*
X106384193Y-80271239D02*
X106384193Y-80338582D01*
X106384193Y-80338582D02*
X106350522Y-80439597D01*
X106350522Y-80439597D02*
X106081148Y-80708971D01*
X106350522Y-79698819D02*
X106821926Y-79227414D01*
X106821926Y-79227414D02*
X107225987Y-80237567D01*
X106250969Y-51604373D02*
X106756045Y-52109449D01*
X106756045Y-52109449D02*
X106823389Y-52244136D01*
X106823389Y-52244136D02*
X106823389Y-52378823D01*
X106823389Y-52378823D02*
X106756045Y-52513510D01*
X106756045Y-52513510D02*
X106688702Y-52580853D01*
X106621358Y-51368670D02*
X106621358Y-51301327D01*
X106621358Y-51301327D02*
X106655030Y-51200311D01*
X106655030Y-51200311D02*
X106823389Y-51031953D01*
X106823389Y-51031953D02*
X106924404Y-50998281D01*
X106924404Y-50998281D02*
X106991748Y-50998281D01*
X106991748Y-50998281D02*
X107092763Y-51031953D01*
X107092763Y-51031953D02*
X107160106Y-51099296D01*
X107160106Y-51099296D02*
X107227450Y-51233983D01*
X107227450Y-51233983D02*
X107227450Y-52042105D01*
X107227450Y-52042105D02*
X107665183Y-51604372D01*
X118950968Y-66844372D02*
X119456044Y-67349448D01*
X119456044Y-67349448D02*
X119523388Y-67484135D01*
X119523388Y-67484135D02*
X119523388Y-67618822D01*
X119523388Y-67618822D02*
X119456044Y-67753509D01*
X119456044Y-67753509D02*
X119388701Y-67820852D01*
X119624403Y-66170936D02*
X119287686Y-66507654D01*
X119287686Y-66507654D02*
X119590731Y-66878043D01*
X119590731Y-66878043D02*
X119590731Y-66810700D01*
X119590731Y-66810700D02*
X119624403Y-66709684D01*
X119624403Y-66709684D02*
X119792762Y-66541326D01*
X119792762Y-66541326D02*
X119893777Y-66507654D01*
X119893777Y-66507654D02*
X119961121Y-66507654D01*
X119961121Y-66507654D02*
X120062136Y-66541326D01*
X120062136Y-66541326D02*
X120230495Y-66709684D01*
X120230495Y-66709684D02*
X120264166Y-66810700D01*
X120264166Y-66810700D02*
X120264166Y-66878043D01*
X120264166Y-66878043D02*
X120230495Y-66979058D01*
X120230495Y-66979058D02*
X120062136Y-67147417D01*
X120062136Y-67147417D02*
X119961121Y-67181089D01*
X119961121Y-67181089D02*
X119893777Y-67181089D01*
X121504880Y-63926674D02*
X120932460Y-63825659D01*
X121100819Y-64330735D02*
X120393712Y-63623628D01*
X120393712Y-63623628D02*
X120663086Y-63354254D01*
X120663086Y-63354254D02*
X120764102Y-63320582D01*
X120764102Y-63320582D02*
X120831445Y-63320582D01*
X120831445Y-63320582D02*
X120932460Y-63354254D01*
X120932460Y-63354254D02*
X121033476Y-63455270D01*
X121033476Y-63455270D02*
X121067147Y-63556285D01*
X121067147Y-63556285D02*
X121067147Y-63623628D01*
X121067147Y-63623628D02*
X121033476Y-63724644D01*
X121033476Y-63724644D02*
X120764102Y-63994018D01*
X120999804Y-63017537D02*
X121942613Y-63488941D01*
X121942613Y-63488941D02*
X121471208Y-62546132D01*
X122784407Y-62647147D02*
X122380346Y-63051208D01*
X122582376Y-62849178D02*
X121875269Y-62142071D01*
X121875269Y-62142071D02*
X121908941Y-62310430D01*
X121908941Y-62310430D02*
X121908941Y-62445117D01*
X121908941Y-62445117D02*
X121875269Y-62546132D01*
X108278583Y-81844284D02*
X108278583Y-81911628D01*
X108278583Y-81911628D02*
X108211239Y-82046315D01*
X108211239Y-82046315D02*
X108143896Y-82113658D01*
X108143896Y-82113658D02*
X108009209Y-82181002D01*
X108009209Y-82181002D02*
X107874522Y-82181002D01*
X107874522Y-82181002D02*
X107773506Y-82147330D01*
X107773506Y-82147330D02*
X107605148Y-82046315D01*
X107605148Y-82046315D02*
X107504132Y-81945300D01*
X107504132Y-81945300D02*
X107403117Y-81776941D01*
X107403117Y-81776941D02*
X107369445Y-81675926D01*
X107369445Y-81675926D02*
X107369445Y-81541239D01*
X107369445Y-81541239D02*
X107436789Y-81406552D01*
X107436789Y-81406552D02*
X107504132Y-81339208D01*
X107504132Y-81339208D02*
X107638819Y-81271865D01*
X107638819Y-81271865D02*
X107706163Y-81271865D01*
X108244911Y-80598430D02*
X108110224Y-80733117D01*
X108110224Y-80733117D02*
X108076552Y-80834132D01*
X108076552Y-80834132D02*
X108076552Y-80901475D01*
X108076552Y-80901475D02*
X108110224Y-81069834D01*
X108110224Y-81069834D02*
X108211239Y-81238193D01*
X108211239Y-81238193D02*
X108480613Y-81507567D01*
X108480613Y-81507567D02*
X108581629Y-81541239D01*
X108581629Y-81541239D02*
X108648972Y-81541239D01*
X108648972Y-81541239D02*
X108749987Y-81507567D01*
X108749987Y-81507567D02*
X108884674Y-81372880D01*
X108884674Y-81372880D02*
X108918346Y-81271865D01*
X108918346Y-81271865D02*
X108918346Y-81204521D01*
X108918346Y-81204521D02*
X108884674Y-81103506D01*
X108884674Y-81103506D02*
X108716316Y-80935147D01*
X108716316Y-80935147D02*
X108615300Y-80901475D01*
X108615300Y-80901475D02*
X108547957Y-80901475D01*
X108547957Y-80901475D02*
X108446942Y-80935147D01*
X108446942Y-80935147D02*
X108312255Y-81069834D01*
X108312255Y-81069834D02*
X108278583Y-81170849D01*
X108278583Y-81170849D02*
X108278583Y-81238193D01*
X108278583Y-81238193D02*
X108312255Y-81339208D01*
X100321865Y-58439689D02*
X99614758Y-57732582D01*
X99614758Y-57732582D02*
X99783117Y-57564223D01*
X99783117Y-57564223D02*
X99917804Y-57496880D01*
X99917804Y-57496880D02*
X100052491Y-57496880D01*
X100052491Y-57496880D02*
X100153506Y-57530552D01*
X100153506Y-57530552D02*
X100321865Y-57631567D01*
X100321865Y-57631567D02*
X100422881Y-57732582D01*
X100422881Y-57732582D02*
X100523896Y-57900941D01*
X100523896Y-57900941D02*
X100557568Y-58001956D01*
X100557568Y-58001956D02*
X100557568Y-58136643D01*
X100557568Y-58136643D02*
X100490224Y-58271330D01*
X100490224Y-58271330D02*
X100321865Y-58439689D01*
X100355537Y-57126491D02*
X100355537Y-57059147D01*
X100355537Y-57059147D02*
X100389209Y-56958132D01*
X100389209Y-56958132D02*
X100557568Y-56789773D01*
X100557568Y-56789773D02*
X100658583Y-56756101D01*
X100658583Y-56756101D02*
X100725926Y-56756101D01*
X100725926Y-56756101D02*
X100826942Y-56789773D01*
X100826942Y-56789773D02*
X100894285Y-56857117D01*
X100894285Y-56857117D02*
X100961629Y-56991804D01*
X100961629Y-56991804D02*
X100961629Y-57799926D01*
X100961629Y-57799926D02*
X101399361Y-57362193D01*
X120861626Y-53672968D02*
X120356550Y-54178044D01*
X120356550Y-54178044D02*
X120221863Y-54245388D01*
X120221863Y-54245388D02*
X120087176Y-54245388D01*
X120087176Y-54245388D02*
X119952489Y-54178044D01*
X119952489Y-54178044D02*
X119885146Y-54110701D01*
X121131001Y-53942342D02*
X121602405Y-54413747D01*
X121602405Y-54413747D02*
X120592253Y-54817808D01*
X97019865Y-61741689D02*
X96312758Y-61034582D01*
X96312758Y-61034582D02*
X96481117Y-60866223D01*
X96481117Y-60866223D02*
X96615804Y-60798880D01*
X96615804Y-60798880D02*
X96750491Y-60798880D01*
X96750491Y-60798880D02*
X96851506Y-60832552D01*
X96851506Y-60832552D02*
X97019865Y-60933567D01*
X97019865Y-60933567D02*
X97120881Y-61034582D01*
X97120881Y-61034582D02*
X97221896Y-61202941D01*
X97221896Y-61202941D02*
X97255568Y-61303956D01*
X97255568Y-61303956D02*
X97255568Y-61438643D01*
X97255568Y-61438643D02*
X97188224Y-61573330D01*
X97188224Y-61573330D02*
X97019865Y-61741689D01*
X98097361Y-60664193D02*
X97693300Y-61068254D01*
X97895331Y-60866223D02*
X97188224Y-60159117D01*
X97188224Y-60159117D02*
X97221896Y-60327475D01*
X97221896Y-60327475D02*
X97221896Y-60462162D01*
X97221896Y-60462162D02*
X97188224Y-60563178D01*
X97327297Y-54762915D02*
X97461984Y-54695571D01*
X97461984Y-54695571D02*
X97630342Y-54527213D01*
X97630342Y-54527213D02*
X97664014Y-54426197D01*
X97664014Y-54426197D02*
X97664014Y-54358854D01*
X97664014Y-54358854D02*
X97630342Y-54257839D01*
X97630342Y-54257839D02*
X97562999Y-54190495D01*
X97562999Y-54190495D02*
X97461984Y-54156823D01*
X97461984Y-54156823D02*
X97394640Y-54156823D01*
X97394640Y-54156823D02*
X97293625Y-54190495D01*
X97293625Y-54190495D02*
X97125266Y-54291510D01*
X97125266Y-54291510D02*
X97024251Y-54325182D01*
X97024251Y-54325182D02*
X96956907Y-54325182D01*
X96956907Y-54325182D02*
X96855892Y-54291510D01*
X96855892Y-54291510D02*
X96788549Y-54224167D01*
X96788549Y-54224167D02*
X96754877Y-54123152D01*
X96754877Y-54123152D02*
X96754877Y-54055808D01*
X96754877Y-54055808D02*
X96788549Y-53954793D01*
X96788549Y-53954793D02*
X96956907Y-53786434D01*
X96956907Y-53786434D02*
X97091594Y-53719091D01*
X97293625Y-53449717D02*
X98169090Y-53988465D01*
X98169090Y-53988465D02*
X97798701Y-53348701D01*
X97798701Y-53348701D02*
X98438464Y-53719091D01*
X98438464Y-53719091D02*
X97899716Y-52843625D01*
X99246586Y-52910969D02*
X98842525Y-53315030D01*
X99044556Y-53112999D02*
X98337449Y-52405892D01*
X98337449Y-52405892D02*
X98371121Y-52574251D01*
X98371121Y-52574251D02*
X98371121Y-52708938D01*
X98371121Y-52708938D02*
X98337449Y-52809953D01*
X107399626Y-63324968D02*
X106894550Y-63830044D01*
X106894550Y-63830044D02*
X106759863Y-63897388D01*
X106759863Y-63897388D02*
X106625176Y-63897388D01*
X106625176Y-63897388D02*
X106490489Y-63830044D01*
X106490489Y-63830044D02*
X106423146Y-63762701D01*
X107803688Y-64200434D02*
X107332283Y-64671838D01*
X107904703Y-63762701D02*
X107231268Y-64099418D01*
X107231268Y-64099418D02*
X107669001Y-64537151D01*
X115124180Y-67980441D02*
X114551760Y-67879426D01*
X114720119Y-68384502D02*
X114013012Y-67677395D01*
X114013012Y-67677395D02*
X114282386Y-67408021D01*
X114282386Y-67408021D02*
X114383402Y-67374349D01*
X114383402Y-67374349D02*
X114450745Y-67374349D01*
X114450745Y-67374349D02*
X114551760Y-67408021D01*
X114551760Y-67408021D02*
X114652776Y-67509037D01*
X114652776Y-67509037D02*
X114686447Y-67610052D01*
X114686447Y-67610052D02*
X114686447Y-67677395D01*
X114686447Y-67677395D02*
X114652776Y-67778411D01*
X114652776Y-67778411D02*
X114383402Y-68047785D01*
X114619104Y-67071304D02*
X115561913Y-67542708D01*
X115561913Y-67542708D02*
X115090508Y-66599899D01*
X115359882Y-66465212D02*
X115359882Y-66397869D01*
X115359882Y-66397869D02*
X115393554Y-66296853D01*
X115393554Y-66296853D02*
X115561913Y-66128495D01*
X115561913Y-66128495D02*
X115662928Y-66094823D01*
X115662928Y-66094823D02*
X115730272Y-66094823D01*
X115730272Y-66094823D02*
X115831287Y-66128495D01*
X115831287Y-66128495D02*
X115898630Y-66195838D01*
X115898630Y-66195838D02*
X115965974Y-66330525D01*
X115965974Y-66330525D02*
X115965974Y-67138647D01*
X115965974Y-67138647D02*
X116403707Y-66700914D01*
X112733626Y-58244968D02*
X112228550Y-58750044D01*
X112228550Y-58750044D02*
X112093863Y-58817388D01*
X112093863Y-58817388D02*
X111959176Y-58817388D01*
X111959176Y-58817388D02*
X111824489Y-58750044D01*
X111824489Y-58750044D02*
X111757146Y-58682701D01*
X113003001Y-58514342D02*
X113440733Y-58952075D01*
X113440733Y-58952075D02*
X112935657Y-58985747D01*
X112935657Y-58985747D02*
X113036672Y-59086762D01*
X113036672Y-59086762D02*
X113070344Y-59187777D01*
X113070344Y-59187777D02*
X113070344Y-59255121D01*
X113070344Y-59255121D02*
X113036672Y-59356136D01*
X113036672Y-59356136D02*
X112868314Y-59524495D01*
X112868314Y-59524495D02*
X112767298Y-59558166D01*
X112767298Y-59558166D02*
X112699955Y-59558166D01*
X112699955Y-59558166D02*
X112598940Y-59524495D01*
X112598940Y-59524495D02*
X112396909Y-59322464D01*
X112396909Y-59322464D02*
X112363237Y-59221449D01*
X112363237Y-59221449D02*
X112363237Y-59154105D01*
X85422968Y-51350373D02*
X85928044Y-51855449D01*
X85928044Y-51855449D02*
X85995388Y-51990136D01*
X85995388Y-51990136D02*
X85995388Y-52124823D01*
X85995388Y-52124823D02*
X85928044Y-52259510D01*
X85928044Y-52259510D02*
X85860701Y-52326853D01*
X86837182Y-51350372D02*
X86433121Y-51754433D01*
X86635151Y-51552403D02*
X85928044Y-50845296D01*
X85928044Y-50845296D02*
X85961716Y-51013655D01*
X85961716Y-51013655D02*
X85961716Y-51148342D01*
X85961716Y-51148342D02*
X85928044Y-51249357D01*
D12*
X103949269Y-75572909D02*
X101509751Y-73133390D01*
X103949269Y-75572909D02*
X105328128Y-76951767D01*
X100328883Y-79193295D02*
X98950024Y-77814437D01*
X100328883Y-79193295D02*
X101707741Y-80572154D01*
X95389562Y-82792466D02*
X94449110Y-81852014D01*
X96330014Y-81852014D02*
X95389562Y-82792466D01*
X97228040Y-80953988D02*
X97270466Y-80911562D01*
X97228040Y-80953988D02*
X95389562Y-79115511D01*
X97270466Y-80911562D02*
X93593511Y-77234607D01*
X93551084Y-80953988D02*
X91712607Y-79115511D01*
X95389562Y-79115511D02*
X93551084Y-80953988D01*
X91712607Y-79115511D02*
X93593511Y-77234607D01*
X98158439Y-81545535D02*
X99098891Y-82485987D01*
X97217987Y-82485987D02*
X98158439Y-81545535D01*
X96319961Y-83384013D02*
X96277535Y-83426439D01*
X96319961Y-83384013D02*
X98158439Y-85222490D01*
X96277535Y-83426439D02*
X99954490Y-87103394D01*
X99996917Y-83384013D02*
X101835394Y-85222490D01*
X98158439Y-85222490D02*
X99996917Y-83384013D01*
X101835394Y-85222490D02*
X99954490Y-87103394D01*
X104821010Y-72840457D02*
X104451543Y-72470990D01*
X105860457Y-71801010D02*
X105490990Y-71431543D01*
D10*
X108454464Y-73742623D02*
X108599421Y-73597666D01*
X108454464Y-73742623D02*
X104565377Y-69853536D01*
X108599421Y-73597666D02*
X109836858Y-74835103D01*
X112350623Y-69846464D02*
X112138491Y-70058597D01*
X112350623Y-69846464D02*
X108461536Y-65957377D01*
X104565377Y-69853536D02*
X104777509Y-69641403D01*
X108461536Y-65957377D02*
X108249403Y-66169509D01*
D13*
X90313502Y-79840969D02*
X101449020Y-68705451D01*
X101449020Y-68705451D02*
X74867462Y-42123893D01*
X63731944Y-53259411D02*
X90313502Y-79840969D01*
X74867462Y-42123893D02*
X63731944Y-53259411D01*
X83919560Y-72010186D02*
X65348390Y-53439016D01*
X65348390Y-53439016D02*
X75047067Y-43740339D01*
X75047067Y-43740339D02*
X93618237Y-62311509D01*
X93618237Y-62311509D02*
X83919560Y-72010186D01*
D12*
X105074282Y-82401165D02*
X104753165Y-82722282D01*
X104034835Y-81361718D02*
X103713718Y-81682835D01*
X107816955Y-53829949D02*
X106876503Y-54770401D01*
X106876503Y-52889497D02*
X107816955Y-53829949D01*
X105978477Y-51991471D02*
X105936051Y-51949045D01*
X105978477Y-51991471D02*
X104140000Y-53829949D01*
X105936051Y-51949045D02*
X102259096Y-55626000D01*
X105978477Y-55668427D02*
X104140000Y-57506904D01*
X104140000Y-53829949D02*
X105978477Y-55668427D01*
X104140000Y-57506904D02*
X102259096Y-55626000D01*
X119023096Y-65278000D02*
X119963548Y-64337548D01*
X119963548Y-66218452D02*
X119023096Y-65278000D01*
X120861574Y-67116478D02*
X120904000Y-67158904D01*
X120861574Y-67116478D02*
X122742478Y-65235574D01*
X120904000Y-67158904D02*
X122784904Y-65278000D01*
X122742478Y-65235574D02*
X122784904Y-65278000D01*
X123398043Y-60296996D02*
X123221266Y-60120219D01*
X119360463Y-56259416D02*
X121863621Y-58762574D01*
X123468753Y-60509128D02*
X123327332Y-60367706D01*
X123468753Y-60509128D02*
X122464662Y-61513219D01*
X123327332Y-60367706D02*
X123398043Y-60296996D01*
X122323240Y-61371798D02*
X122464662Y-61513219D01*
X122323240Y-61371798D02*
X119791798Y-63903240D01*
X116454254Y-57313005D02*
X117507843Y-56259416D01*
X119933219Y-64044662D02*
X118929128Y-65048753D01*
X119791798Y-63903240D02*
X119933219Y-64044662D01*
X114679416Y-59087843D02*
X115733005Y-58034254D01*
X118929128Y-65048753D02*
X118787706Y-64907332D01*
X118787706Y-64907332D02*
X118716996Y-64978043D01*
X118716996Y-64978043D02*
X118229092Y-64490139D01*
X117493701Y-63754748D02*
X114679416Y-60940463D01*
X119360463Y-56259416D02*
G75*
G03*
X117507843Y-56259416I-926310J-926310D01*
G01*
X114679416Y-59087843D02*
G75*
G03*
X114679416Y-60940463I926310J-926310D01*
G01*
X105213543Y-82977010D02*
X105583010Y-82607543D01*
X106252990Y-84016457D02*
X106622457Y-83646990D01*
X103631257Y-58000388D02*
X102273612Y-56642743D01*
X102273612Y-56642743D02*
X100251287Y-58665068D01*
X101608932Y-60022713D02*
X103631257Y-58000388D01*
X115309487Y-47379648D02*
X120768352Y-52838512D01*
X114446817Y-48242318D02*
X115309487Y-49104989D01*
X109355648Y-53333487D02*
X115309487Y-47379648D01*
X115309487Y-49104989D02*
X111773954Y-52640523D01*
X112481060Y-51933416D02*
X116214584Y-55666940D01*
X111773954Y-52640523D02*
X110911283Y-51777852D01*
X111773954Y-52640523D02*
X110218319Y-54196157D01*
X110218319Y-54196157D02*
X109355648Y-53333487D01*
X115655970Y-50271715D02*
X115938813Y-50441420D01*
X113237665Y-52690020D02*
X115655970Y-50271715D01*
X110642583Y-55313386D02*
X111066847Y-55737650D01*
X115938813Y-50441420D02*
X116108518Y-50724263D01*
X113463939Y-52916294D02*
X113237665Y-52690020D01*
X111278979Y-55101254D02*
X110642583Y-55313386D01*
X111066847Y-55737650D02*
X111278979Y-55101254D01*
X116108518Y-50724263D02*
X113690213Y-53142568D01*
X113690213Y-53142568D02*
X113463939Y-52916294D01*
X113584147Y-54450716D02*
X113697284Y-54563853D01*
X117423737Y-52039482D02*
X117706579Y-52209187D01*
X115005432Y-54457787D02*
X117423737Y-52039482D01*
X117706579Y-52209187D02*
X117876285Y-52492030D01*
X115231706Y-54684061D02*
X115005432Y-54457787D01*
X117876285Y-52492030D02*
X115457980Y-54910335D01*
X115457980Y-54910335D02*
X115231706Y-54684061D01*
X119043011Y-52838512D02*
X115507477Y-56374046D01*
X115507477Y-56374046D02*
X116370148Y-57236717D01*
X113951842Y-57929681D02*
X115507477Y-56374046D01*
X120768352Y-52838512D02*
X114814513Y-58792352D01*
X119905682Y-53701183D02*
X119043011Y-52838512D01*
X114814513Y-58792352D02*
X113951842Y-57929681D01*
X100329257Y-61302388D02*
X98971612Y-59944743D01*
X98971612Y-59944743D02*
X96949287Y-61967068D01*
X98306932Y-63324713D02*
X100329257Y-61302388D01*
X98689701Y-53309293D02*
X101376707Y-55996299D01*
X98689701Y-53309293D02*
X92679293Y-59319701D01*
X95366299Y-62006707D02*
X101376707Y-55996299D01*
X95366299Y-62006707D02*
X92679293Y-59319701D01*
X103581200Y-59129896D02*
X104521652Y-60070348D01*
X102640748Y-60070348D02*
X103581200Y-59129896D01*
X101742722Y-60968374D02*
X98108194Y-64602902D01*
X101742722Y-60968374D02*
X103581200Y-62806851D01*
X98108194Y-64602902D02*
X101785149Y-68279858D01*
X105419678Y-60968374D02*
X107258155Y-62806851D01*
X103581200Y-62806851D02*
X105419678Y-60968374D01*
X107258155Y-62806851D02*
X101785149Y-68279858D01*
X116967657Y-64280610D02*
X116790880Y-64103833D01*
X112930077Y-60243030D02*
X115433235Y-62746188D01*
X117038367Y-64492742D02*
X116896946Y-64351320D01*
X117038367Y-64492742D02*
X116034276Y-65496833D01*
X116896946Y-64351320D02*
X116967657Y-64280610D01*
X115892854Y-65355412D02*
X116034276Y-65496833D01*
X115892854Y-65355412D02*
X113361412Y-67886854D01*
X110023868Y-61296619D02*
X111077457Y-60243030D01*
X113502833Y-68028276D02*
X112498742Y-69032367D01*
X113361412Y-67886854D02*
X113502833Y-68028276D01*
X108249030Y-63071457D02*
X109302619Y-62017868D01*
X112498742Y-69032367D02*
X112357320Y-68890946D01*
X112357320Y-68890946D02*
X112286610Y-68961657D01*
X112286610Y-68961657D02*
X111798706Y-68473753D01*
X111063315Y-67738362D02*
X108249030Y-64924077D01*
X112930077Y-60243030D02*
G75*
G03*
X111077457Y-60243030I-926310J-926310D01*
G01*
X108249030Y-63071457D02*
G75*
G03*
X108249030Y-64924077I926310J-926310D01*
G01*
X108984051Y-53727045D02*
X109924503Y-54667497D01*
X108043599Y-54667497D02*
X108984051Y-53727045D01*
X107145573Y-55565523D02*
X103511045Y-59200051D01*
X107145573Y-55565523D02*
X108984051Y-57404000D01*
X103511045Y-59200051D02*
X107188000Y-62877007D01*
X110822529Y-55565523D02*
X112661006Y-57404000D01*
X108984051Y-57404000D02*
X110822529Y-55565523D01*
X112661006Y-57404000D02*
X107188000Y-62877007D01*
X85987648Y-52838513D02*
X91446512Y-47379648D01*
X86850318Y-53701183D02*
X87712989Y-52838513D01*
X91941487Y-58792352D02*
X85987648Y-52838513D01*
X87712989Y-52838513D02*
X91248523Y-56374046D01*
X90541416Y-55666940D02*
X94274940Y-51933416D01*
X91248523Y-56374046D02*
X90385852Y-57236717D01*
X91248523Y-56374046D02*
X92804157Y-57929681D01*
X92804157Y-57929681D02*
X91941487Y-58792352D01*
X88879715Y-52492030D02*
X89049420Y-52209187D01*
X91298020Y-54910335D02*
X88879715Y-52492030D01*
X93921386Y-57505417D02*
X94345650Y-57081153D01*
X89049420Y-52209187D02*
X89332263Y-52039482D01*
X91524294Y-54684061D02*
X91298020Y-54910335D01*
X93709254Y-56869021D02*
X93921386Y-57505417D01*
X94345650Y-57081153D02*
X93709254Y-56869021D01*
X89332263Y-52039482D02*
X91750568Y-54457787D01*
X91750568Y-54457787D02*
X91524294Y-54684061D01*
X93058716Y-54563853D02*
X93171853Y-54450716D01*
X90647482Y-50724263D02*
X90817187Y-50441421D01*
X93065787Y-53142568D02*
X90647482Y-50724263D01*
X90817187Y-50441421D02*
X91100030Y-50271715D01*
X93292061Y-52916294D02*
X93065787Y-53142568D01*
X91100030Y-50271715D02*
X93518335Y-52690020D01*
X93518335Y-52690020D02*
X93292061Y-52916294D01*
X91446512Y-49104989D02*
X94982046Y-52640523D01*
X94982046Y-52640523D02*
X95844717Y-51777852D01*
X96537681Y-54196158D02*
X94982046Y-52640523D01*
X91446512Y-47379648D02*
X97400352Y-53333487D01*
X92309183Y-48242318D02*
X91446512Y-49104989D01*
X97400352Y-53333487D02*
X96537681Y-54196158D01*
M02*
