M48
INCH,TZ
T1C0.0118
T2C0.0300
T3C0.0315
T4C0.0394
%
G90
G05
T1
X31300Y-24100
X31400Y-22500
X31500Y-25800
X31900Y-21300
X32100Y-27500
X32500Y-23600
X32500Y-24600
X32500Y-25400
X33000Y-20300
X33100Y-28900
X33300Y-20800
X33800Y-28200
X34200Y-21500
X34300Y-25400
X34400Y-30200
X34600Y-19500
X34600Y-29000
X34700Y-26800
X35000Y-26400
X35100Y-24600
X35400Y-31100
X35600Y-26200
X35700Y-26600
X35900Y-19400
X36400Y-25800
X36500Y-25300
X36500Y-32100
X36900Y-27600
X37200Y-27900
X37300Y-24200
X37600Y-29500
X37600Y-30500
X37700Y-19900
X37700Y-20500
X37800Y-33300
X38300Y-25300
X38400Y-29900
X38400Y-30800
X38600Y-23600
X38600Y-26000
X38700Y-20600
X38800Y-26300
X38800Y-30700
X39000Y-34300
X39100Y-24700
X39300Y-31400
X39500Y-31100
X39600Y-26700
X39900Y-35100
X40100Y-23800
X40300Y-23400
X40400Y-30500
X40970Y-34166
X41000Y-33400
X41100Y-29600
X41100Y-30000
X41500Y-25700
X42079Y-33176
X42100Y-31300
X42200Y-19900
X42200Y-25300
X42500Y-28300
X42600Y-24600
X42600Y-28000
X42900Y-25500
X43033Y-32325
X43399Y-23801
X43400Y-25200
X43900Y-19500
X44194Y-31293
X44650Y-27650
X44700Y-24400
X44700Y-26000
X45463Y-30161
X45600Y-27900
X45700Y-19600
X46657Y-28978
X46900Y-20400
X47700Y-27400
X47800Y-21500
X48300Y-22700
X48300Y-25900
X48500Y-24300
T2
X35486Y-30514
X36193Y-29807
X36900Y-29100
X37607Y-28393
X38314Y-27686
X39021Y-26979
T3
X37493Y-23407
X38200Y-22700
X38907Y-21993
T4
X36476Y-21972
X36848Y-31148
X37172Y-21276
X37555Y-31855
X38645Y-32845
X39352Y-33552
X39366Y-25434
X40073Y-24727
X40073Y-26141
X40780Y-24020
X40780Y-25434
X41000Y-21900
X41487Y-24727
X41493Y-23307
X41707Y-21193
X42200Y-22600
X42200Y-24014
X42907Y-21893
X42907Y-23307
X43400Y-24500
X43614Y-22600
X44096Y-26588
X44228Y-21276
X44924Y-21972
X45488Y-25196
X45932Y-22932
X46628Y-25020
X47600Y-25700
X48020Y-23628
T0
M30
