G04 #@! TF.GenerationSoftware,KiCad,Pcbnew,(7.0.0)*
G04 #@! TF.CreationDate,2023-04-23T00:27:49-06:00*
G04 #@! TF.ProjectId,Fonocardiograma_V3A,466f6e6f-6361-4726-9469-6f6772616d61,rev?*
G04 #@! TF.SameCoordinates,Original*
G04 #@! TF.FileFunction,Copper,L1,Top*
G04 #@! TF.FilePolarity,Positive*
%FSLAX46Y46*%
G04 Gerber Fmt 4.6, Leading zero omitted, Abs format (unit mm)*
G04 Created by KiCad (PCBNEW (7.0.0)) date 2023-04-23 00:27:49*
%MOMM*%
%LPD*%
G01*
G04 APERTURE LIST*
G04 Aperture macros list*
%AMRoundRect*
0 Rectangle with rounded corners*
0 $1 Rounding radius*
0 $2 $3 $4 $5 $6 $7 $8 $9 X,Y pos of 4 corners*
0 Add a 4 corners polygon primitive as box body*
4,1,4,$2,$3,$4,$5,$6,$7,$8,$9,$2,$3,0*
0 Add four circle primitives for the rounded corners*
1,1,$1+$1,$2,$3*
1,1,$1+$1,$4,$5*
1,1,$1+$1,$6,$7*
1,1,$1+$1,$8,$9*
0 Add four rect primitives between the rounded corners*
20,1,$1+$1,$2,$3,$4,$5,0*
20,1,$1+$1,$4,$5,$6,$7,0*
20,1,$1+$1,$6,$7,$8,$9,0*
20,1,$1+$1,$8,$9,$2,$3,0*%
%AMHorizOval*
0 Thick line with rounded ends*
0 $1 width*
0 $2 $3 position (X,Y) of the first rounded end (center of the circle)*
0 $4 $5 position (X,Y) of the second rounded end (center of the circle)*
0 Add line between two ends*
20,1,$1,$2,$3,$4,$5,0*
0 Add two circle primitives to create the rounded ends*
1,1,$1,$2,$3*
1,1,$1,$4,$5*%
%AMRotRect*
0 Rectangle, with rotation*
0 The origin of the aperture is its center*
0 $1 length*
0 $2 width*
0 $3 Rotation angle, in degrees counterclockwise*
0 Add horizontal line*
21,1,$1,$2,0,0,$3*%
G04 Aperture macros list end*
G04 #@! TA.AperFunction,SMDPad,CuDef*
%ADD10RoundRect,0.150000X-0.689429X0.477297X0.477297X-0.689429X0.689429X-0.477297X-0.477297X0.689429X0*%
G04 #@! TD*
G04 #@! TA.AperFunction,ComponentPad*
%ADD11RotRect,1.700000X1.700000X135.000000*%
G04 #@! TD*
G04 #@! TA.AperFunction,ComponentPad*
%ADD12HorizOval,1.700000X0.000000X0.000000X0.000000X0.000000X0*%
G04 #@! TD*
G04 #@! TA.AperFunction,ComponentPad*
%ADD13RotRect,1.700000X1.700000X315.000000*%
G04 #@! TD*
G04 #@! TA.AperFunction,ComponentPad*
%ADD14HorizOval,1.700000X0.000000X0.000000X0.000000X0.000000X0*%
G04 #@! TD*
G04 #@! TA.AperFunction,SMDPad,CuDef*
%ADD15RoundRect,0.250000X0.574524X0.097227X0.097227X0.574524X-0.574524X-0.097227X-0.097227X-0.574524X0*%
G04 #@! TD*
G04 #@! TA.AperFunction,SMDPad,CuDef*
%ADD16RotRect,1.700000X0.650000X135.000000*%
G04 #@! TD*
G04 #@! TA.AperFunction,ComponentPad*
%ADD17C,1.524000*%
G04 #@! TD*
G04 #@! TA.AperFunction,SMDPad,CuDef*
%ADD18RoundRect,0.250000X-0.070711X0.565685X-0.565685X0.070711X0.070711X-0.565685X0.565685X-0.070711X0*%
G04 #@! TD*
G04 #@! TA.AperFunction,ComponentPad*
%ADD19RotRect,1.700000X1.700000X225.000000*%
G04 #@! TD*
G04 #@! TA.AperFunction,ComponentPad*
%ADD20HorizOval,1.700000X0.000000X0.000000X0.000000X0.000000X0*%
G04 #@! TD*
G04 #@! TA.AperFunction,ComponentPad*
%ADD21RotRect,1.700000X1.700000X45.000000*%
G04 #@! TD*
G04 #@! TA.AperFunction,ComponentPad*
%ADD22RotRect,1.560000X1.560000X225.000000*%
G04 #@! TD*
G04 #@! TA.AperFunction,ComponentPad*
%ADD23C,1.560000*%
G04 #@! TD*
G04 #@! TA.AperFunction,SMDPad,CuDef*
%ADD24RoundRect,0.250000X0.097227X-0.574524X0.574524X-0.097227X-0.097227X0.574524X-0.574524X0.097227X0*%
G04 #@! TD*
G04 #@! TA.AperFunction,SMDPad,CuDef*
%ADD25RoundRect,0.250000X-0.088388X0.548008X-0.548008X0.088388X0.088388X-0.548008X0.548008X-0.088388X0*%
G04 #@! TD*
G04 #@! TA.AperFunction,ComponentPad*
%ADD26RoundRect,0.250000X-0.954594X-0.106066X-0.106066X-0.954594X0.954594X0.106066X0.106066X0.954594X0*%
G04 #@! TD*
G04 #@! TA.AperFunction,ComponentPad*
%ADD27HorizOval,1.700000X-0.106066X-0.106066X0.106066X0.106066X0*%
G04 #@! TD*
G04 #@! TA.AperFunction,ComponentPad*
%ADD28RotRect,1.500000X2.500000X225.000000*%
G04 #@! TD*
G04 #@! TA.AperFunction,ComponentPad*
%ADD29HorizOval,1.500000X-0.353553X0.353553X0.353553X-0.353553X0*%
G04 #@! TD*
G04 #@! TA.AperFunction,ComponentPad*
%ADD30RoundRect,0.250000X0.106066X-0.954594X0.954594X-0.106066X-0.106066X0.954594X-0.954594X0.106066X0*%
G04 #@! TD*
G04 #@! TA.AperFunction,ComponentPad*
%ADD31HorizOval,1.700000X-0.106066X0.106066X0.106066X-0.106066X0*%
G04 #@! TD*
G04 #@! TA.AperFunction,ViaPad*
%ADD32C,0.600000*%
G04 #@! TD*
G04 #@! TA.AperFunction,Conductor*
%ADD33C,0.400000*%
G04 #@! TD*
G04 #@! TA.AperFunction,Conductor*
%ADD34C,0.200000*%
G04 #@! TD*
G04 APERTURE END LIST*
D10*
X101736025Y-74285974D03*
X100838000Y-75184000D03*
X99939974Y-76082026D03*
X99041948Y-76980051D03*
X102542127Y-80480230D03*
X103440152Y-79582204D03*
X104338178Y-78684178D03*
X105236204Y-77786153D03*
D11*
X95389561Y-80911561D03*
D12*
X93593510Y-79115510D03*
D13*
X98158438Y-83426438D03*
D14*
X99954489Y-85222489D03*
D15*
X105889623Y-72869623D03*
X104422377Y-71402377D03*
D16*
X109691900Y-73777977D03*
X110589926Y-72879952D03*
X111487952Y-71981926D03*
X112385977Y-71083900D03*
X107224098Y-65922021D03*
X106326072Y-66820046D03*
X105428046Y-67718072D03*
X104530021Y-68616098D03*
D17*
X90133897Y-77506102D03*
X91929948Y-75710051D03*
X93726000Y-73914000D03*
X95522051Y-72117949D03*
X97318102Y-70321897D03*
X99114153Y-68525846D03*
D18*
X105101107Y-81334893D03*
X103686893Y-82749107D03*
D19*
X105936050Y-53829948D03*
D20*
X104139999Y-55625999D03*
D21*
X120903999Y-65277999D03*
D22*
X121969686Y-60014152D03*
D23*
X116666386Y-58246386D03*
X118434153Y-63549687D03*
D24*
X105184377Y-84045623D03*
X106651623Y-82578377D03*
D25*
X102362000Y-57912000D03*
X100912432Y-59361568D03*
D26*
X112339639Y-54040594D03*
D27*
X114107405Y-55808360D03*
D25*
X99060000Y-61214000D03*
X97610432Y-62663568D03*
D28*
X98824050Y-55861948D03*
D29*
X97027999Y-57657999D03*
X95231948Y-59454050D03*
D13*
X103581199Y-61010799D03*
D14*
X105377250Y-62806850D03*
X101785148Y-62806850D03*
X103581199Y-64602901D03*
X99989097Y-64602901D03*
X101785148Y-66398953D03*
D22*
X115539300Y-63997766D03*
D23*
X110236000Y-62230000D03*
X112003767Y-67533301D03*
D13*
X108984050Y-55607948D03*
D14*
X110780101Y-57403999D03*
X107187999Y-57403999D03*
X108984050Y-59200050D03*
X105391948Y-59200050D03*
X107187999Y-60996102D03*
D30*
X92648594Y-55808361D03*
D31*
X94416360Y-54040593D03*
D32*
X86868000Y-54610000D03*
X95758000Y-52070000D03*
X116078000Y-49784000D03*
X98552000Y-77978000D03*
X107950000Y-71882000D03*
X84074000Y-73406000D03*
X104394000Y-76200000D03*
X122682000Y-57658000D03*
X101346000Y-89154000D03*
X92710000Y-81534000D03*
X95758000Y-50546000D03*
X115476052Y-76609439D03*
X113538000Y-66040000D03*
X109303146Y-82104610D03*
X79756000Y-57150000D03*
X121158000Y-69596000D03*
X89916000Y-78994000D03*
X104063378Y-86782169D03*
X105410000Y-65278000D03*
X83820000Y-51562000D03*
X112252687Y-79484592D03*
X98298000Y-52324000D03*
X123190000Y-61722000D03*
X119126000Y-51816000D03*
X87884000Y-49530000D03*
X111506000Y-49530000D03*
X113538000Y-61976000D03*
X106934000Y-79502000D03*
X99060000Y-87122000D03*
X81026000Y-54102000D03*
X121412000Y-54610000D03*
X91186000Y-49276000D03*
X87376000Y-76708000D03*
X92710000Y-64262000D03*
X122682000Y-65786000D03*
X96012000Y-84582000D03*
X81534000Y-69850000D03*
X106880125Y-84267650D03*
X80010000Y-65532000D03*
X110236000Y-64008000D03*
X79502000Y-61214000D03*
X118507880Y-73603254D03*
X107188000Y-50546000D03*
X85852000Y-71628000D03*
X100330000Y-78994000D03*
X82550000Y-64516000D03*
X104394000Y-75184000D03*
X84582000Y-52832000D03*
X89154000Y-62484000D03*
X87884000Y-73660000D03*
X82550000Y-62484000D03*
X82550000Y-59944000D03*
X87122000Y-64516000D03*
X99822000Y-79756000D03*
X104140000Y-84836000D03*
X99314000Y-62738000D03*
X102362000Y-59436000D03*
X108204000Y-62484000D03*
X108204000Y-71120000D03*
X102616000Y-77470000D03*
X107188000Y-64262000D03*
X98044000Y-59944000D03*
X92456000Y-65532000D03*
X90678000Y-67564000D03*
X101854000Y-60452000D03*
X93726000Y-70104000D03*
X98044000Y-66040000D03*
X94488000Y-70866000D03*
X98552000Y-66802000D03*
X94742000Y-61468000D03*
X88900000Y-67056000D03*
X97536000Y-78232000D03*
X100584000Y-67818000D03*
X97536000Y-75946000D03*
X97282000Y-64262000D03*
X90424000Y-66548000D03*
X88138000Y-68072000D03*
X113411000Y-70231000D03*
X115824000Y-70866000D03*
X110234051Y-60453949D03*
X108966000Y-64770000D03*
X95504000Y-77470000D03*
X95504000Y-74930000D03*
D33*
X86868000Y-54610000D02*
X88900000Y-54610000D01*
X92710000Y-52832000D02*
X93726000Y-51816000D01*
X95504000Y-51816000D02*
X95758000Y-52070000D01*
X90678000Y-52832000D02*
X92710000Y-52832000D01*
X93726000Y-51816000D02*
X95504000Y-51816000D01*
X88900000Y-54610000D02*
X90678000Y-52832000D01*
X106708377Y-72869623D02*
X107950000Y-71882000D01*
X105889623Y-72869623D02*
X106708377Y-72869623D01*
X104338178Y-78684178D02*
X103505000Y-77851000D01*
X84582000Y-53594000D02*
X84582000Y-57150000D01*
X94479045Y-57412955D02*
X88400955Y-57412955D01*
X82550000Y-64516000D02*
X82550000Y-68326000D01*
X104394000Y-75184000D02*
X103505000Y-76073000D01*
X92662888Y-78184888D02*
X92456000Y-78184888D01*
X104140000Y-75438000D02*
X104394000Y-75184000D01*
X104140000Y-55626000D02*
X103290000Y-56476000D01*
X82042000Y-58928000D02*
X81534000Y-59436000D01*
X100330000Y-78994000D02*
X100330000Y-78486000D01*
X82550000Y-62484000D02*
X85598000Y-65532000D01*
X81534000Y-59436000D02*
X81534000Y-60198000D01*
X88400955Y-57412955D02*
X84582000Y-53594000D01*
X100330000Y-78486000D02*
X103378000Y-75438000D01*
X103505000Y-77851000D02*
X103505000Y-76073000D01*
X87931112Y-73660000D02*
X92456000Y-78184888D01*
X87122000Y-65532000D02*
X89154000Y-63500000D01*
X82550000Y-62484000D02*
X82550000Y-64516000D01*
X93593511Y-79115511D02*
X92662888Y-78184888D01*
X98636185Y-54047735D02*
X97844265Y-54047735D01*
X84582000Y-57150000D02*
X82804000Y-58928000D01*
X82550000Y-61214000D02*
X82550000Y-62484000D01*
X89154000Y-63500000D02*
X89154000Y-62484000D01*
X84582000Y-52832000D02*
X84582000Y-53594000D01*
X87884000Y-73660000D02*
X87931112Y-73660000D01*
X101064450Y-56476000D02*
X98636185Y-54047735D01*
X82550000Y-68326000D02*
X85852000Y-71628000D01*
X97844265Y-54047735D02*
X94488000Y-57404000D01*
X94488000Y-57404000D02*
X94479045Y-57412955D01*
X85598000Y-65532000D02*
X87122000Y-65532000D01*
X103290000Y-56476000D02*
X101064450Y-56476000D01*
X81534000Y-60198000D02*
X82550000Y-61214000D01*
X103378000Y-75438000D02*
X104140000Y-75438000D01*
X82804000Y-58928000D02*
X82042000Y-58928000D01*
D34*
X82550000Y-59944000D02*
X87122000Y-64516000D01*
D33*
X104394000Y-84836000D02*
X104140000Y-84836000D01*
X105184377Y-84045623D02*
X104394000Y-84836000D01*
X100838000Y-75184000D02*
X101600000Y-75946000D01*
X101600000Y-75946000D02*
X101600000Y-76366544D01*
X105184377Y-84045623D02*
X104983409Y-84045623D01*
X99568000Y-79502000D02*
X99822000Y-79756000D01*
X99568000Y-78398544D02*
X99568000Y-79502000D01*
X101600000Y-76366544D02*
X99568000Y-78398544D01*
X104983409Y-84045623D02*
X103686893Y-82749107D01*
X97684864Y-62738000D02*
X97610432Y-62663568D01*
X99314000Y-62738000D02*
X97684864Y-62738000D01*
X100912432Y-59361568D02*
X102287568Y-59361568D01*
X102287568Y-59361568D02*
X102362000Y-59436000D01*
D34*
X108366000Y-66406467D02*
X108366000Y-62646000D01*
X106821570Y-67950897D02*
X108366000Y-66406467D01*
X105428047Y-67718073D02*
X105660871Y-67950897D01*
X108366000Y-62646000D02*
X108204000Y-62484000D01*
X105660871Y-67950897D02*
X106821570Y-67950897D01*
X115539301Y-63997767D02*
X112003767Y-63997767D01*
D33*
X112003767Y-64358761D02*
X108204000Y-68158528D01*
D34*
X112003767Y-63997767D02*
X110236000Y-62230000D01*
X110780102Y-57404000D02*
X111630102Y-58254000D01*
D33*
X112003767Y-63997767D02*
X112003767Y-64358761D01*
X108204000Y-68158528D02*
X108204000Y-71120000D01*
D34*
X111630102Y-60835898D02*
X110236000Y-62230000D01*
X111630102Y-58254000D02*
X111630102Y-60835898D01*
X106093249Y-63717200D02*
X108338000Y-61472449D01*
X106093249Y-66587223D02*
X106093249Y-63717200D01*
X108338000Y-61472449D02*
X108338000Y-60180346D01*
X106326073Y-66820047D02*
X106093249Y-66587223D01*
X107188000Y-59030346D02*
X107188000Y-57404000D01*
X108338000Y-60180346D02*
X107188000Y-59030346D01*
D33*
X106344591Y-82578377D02*
X105101107Y-81334893D01*
D34*
X102616000Y-78758052D02*
X102616000Y-77470000D01*
D33*
X106651623Y-82578377D02*
X106344591Y-82578377D01*
X104956893Y-81098945D02*
X103440152Y-79582204D01*
X104956893Y-81479107D02*
X104956893Y-81098945D01*
D34*
X103440152Y-79582204D02*
X102616000Y-78758052D01*
X107224099Y-65922022D02*
X107224099Y-64298099D01*
X103305282Y-59508718D02*
X102362000Y-60452000D01*
X106643897Y-60452000D02*
X104648746Y-60452000D01*
X102362000Y-60452000D02*
X101854000Y-60452000D01*
X98044000Y-59944000D02*
X90678000Y-67310000D01*
X107188000Y-60996103D02*
X106643897Y-60452000D01*
X90678000Y-67310000D02*
X90678000Y-67564000D01*
X104648746Y-60452000D02*
X103705464Y-59508718D01*
X103705464Y-59508718D02*
X103305282Y-59508718D01*
X103297853Y-67390147D02*
X104800027Y-65887973D01*
X109691901Y-73777978D02*
X109462091Y-74007788D01*
X103297853Y-71727422D02*
X103297853Y-67390147D01*
X103581200Y-62637146D02*
X103581200Y-61010800D01*
X104800027Y-63855973D02*
X103581200Y-62637146D01*
X105578219Y-74007788D02*
X103297853Y-71727422D01*
X104800027Y-65887973D02*
X104800027Y-63855973D01*
X109462091Y-74007788D02*
X105578219Y-74007788D01*
X110187397Y-74908828D02*
X105913573Y-74908828D01*
X110822751Y-73112777D02*
X110822751Y-74273474D01*
X105913573Y-74908828D02*
X102870000Y-71865255D01*
X103003976Y-67118338D02*
X103003976Y-65652024D01*
X103003976Y-65652024D02*
X101785149Y-64433197D01*
X102870000Y-71865255D02*
X102870000Y-67252314D01*
X110589927Y-72879953D02*
X110822751Y-73112777D01*
X102870000Y-67252314D02*
X103003976Y-67118338D01*
X101785149Y-64433197D02*
X101785149Y-62806851D01*
X110822751Y-74273474D02*
X110187397Y-74908828D01*
X98044000Y-66040000D02*
X97790000Y-66040000D01*
X97790000Y-66040000D02*
X93726000Y-70104000D01*
X102085849Y-68326000D02*
X99989098Y-66229249D01*
X99989098Y-66229249D02*
X99989098Y-64602902D01*
X111720777Y-73941133D02*
X110353082Y-75308828D01*
X110353082Y-75308828D02*
X105534828Y-75308828D01*
X102362000Y-68326000D02*
X102085849Y-68326000D01*
X111720777Y-73941133D02*
X111720777Y-72214751D01*
X111720777Y-72214751D02*
X111487953Y-71981927D01*
X105534828Y-75308828D02*
X102362000Y-72136000D01*
X102362000Y-72136000D02*
X102362000Y-68326000D01*
X94488000Y-70866000D02*
X98552000Y-66802000D01*
X94488000Y-61468000D02*
X94742000Y-61468000D01*
X88900000Y-67056000D02*
X94488000Y-61468000D01*
D33*
X98298000Y-75184000D02*
X99041948Y-75184000D01*
X97536000Y-79248000D02*
X97536000Y-78232000D01*
X99041948Y-75184000D02*
X99939974Y-76082026D01*
X98768230Y-80480230D02*
X97536000Y-79248000D01*
X98298000Y-74440052D02*
X99041948Y-75184000D01*
X100584000Y-67818000D02*
X100584000Y-70866000D01*
X97536000Y-75946000D02*
X98298000Y-75184000D01*
X98298000Y-73152000D02*
X98298000Y-74440052D01*
X100584000Y-67590050D02*
X97282000Y-64288050D01*
X97282000Y-64288050D02*
X97282000Y-64262000D01*
X102542127Y-80480230D02*
X98768230Y-80480230D01*
X100584000Y-70866000D02*
X98298000Y-73152000D01*
X100584000Y-67818000D02*
X100584000Y-67590050D01*
D34*
X88900000Y-68072000D02*
X88138000Y-68072000D01*
X90424000Y-66548000D02*
X88900000Y-68072000D01*
X116942388Y-64413612D02*
X116942388Y-63397612D01*
X121969687Y-60014153D02*
X120650000Y-60014153D01*
X115424000Y-68218000D02*
X115424000Y-65932000D01*
X116942388Y-63397612D02*
X120325847Y-60014153D01*
X120325847Y-60014153D02*
X120650000Y-60014153D01*
X120650000Y-60014153D02*
X118434153Y-60014153D01*
X115424000Y-65932000D02*
X116942388Y-64413612D01*
X118434153Y-60014153D02*
X116666386Y-58246386D01*
X113411000Y-70231000D02*
X115424000Y-68218000D01*
X115824000Y-66159840D02*
X118434153Y-63549687D01*
X115824000Y-70866000D02*
X115824000Y-66159840D01*
D33*
X104862846Y-68948923D02*
X106565077Y-68948923D01*
X108966000Y-66548000D02*
X108966000Y-64770000D01*
X105936051Y-54384284D02*
X105936051Y-53829949D01*
X110234051Y-58682284D02*
X105936051Y-54384284D01*
X110234051Y-60453949D02*
X110234051Y-58682284D01*
X104530022Y-68616099D02*
X104862846Y-68948923D01*
X106565077Y-68948923D02*
X108966000Y-66548000D01*
X104422377Y-68723744D02*
X104530022Y-68616099D01*
X104422377Y-71402377D02*
X104422377Y-68723744D01*
X95389562Y-74536438D02*
X95631000Y-74295000D01*
X97318102Y-72607898D02*
X97318102Y-70321897D01*
X95504000Y-74930000D02*
X95389562Y-74815562D01*
X95631000Y-74295000D02*
X97318102Y-72607898D01*
X95389562Y-80911562D02*
X95389562Y-77584438D01*
X95389562Y-77584438D02*
X95504000Y-77470000D01*
X95389562Y-74815562D02*
X95389562Y-74536438D01*
G04 #@! TA.AperFunction,Conductor*
G36*
X105742616Y-63846179D02*
G01*
X105779509Y-63890024D01*
X105792749Y-63945776D01*
X105792749Y-65816378D01*
X105783310Y-65863831D01*
X105756430Y-65904059D01*
X105343791Y-66316697D01*
X105343786Y-66316702D01*
X105339484Y-66321005D01*
X105336101Y-66326066D01*
X105336100Y-66326069D01*
X105313140Y-66360430D01*
X105313138Y-66360432D01*
X105306356Y-66370584D01*
X105303973Y-66382559D01*
X105303973Y-66382562D01*
X105300792Y-66398556D01*
X105290795Y-66448816D01*
X105293178Y-66460796D01*
X105297522Y-66482638D01*
X105306356Y-66527047D01*
X105313139Y-66537199D01*
X105317331Y-66547319D01*
X105326387Y-66604500D01*
X105308496Y-66659559D01*
X105267559Y-66700496D01*
X105212500Y-66718387D01*
X105155319Y-66709331D01*
X105145199Y-66705139D01*
X105135047Y-66698356D01*
X105123069Y-66695973D01*
X105123068Y-66695973D01*
X105068796Y-66685178D01*
X105056816Y-66682795D01*
X105044836Y-66685178D01*
X104990562Y-66695973D01*
X104990559Y-66695973D01*
X104978584Y-66698356D01*
X104968432Y-66705138D01*
X104968430Y-66705140D01*
X104934069Y-66728100D01*
X104929005Y-66731484D01*
X104924702Y-66735786D01*
X104924697Y-66735791D01*
X104445765Y-67214723D01*
X104445760Y-67214728D01*
X104441458Y-67219031D01*
X104438075Y-67224092D01*
X104438074Y-67224095D01*
X104415114Y-67258456D01*
X104415112Y-67258458D01*
X104408330Y-67268610D01*
X104405947Y-67280585D01*
X104405947Y-67280588D01*
X104396667Y-67327241D01*
X104392769Y-67346842D01*
X104395152Y-67358822D01*
X104405946Y-67413092D01*
X104405947Y-67413095D01*
X104408330Y-67425073D01*
X104415114Y-67435227D01*
X104419305Y-67445343D01*
X104428361Y-67502523D01*
X104410471Y-67557583D01*
X104369534Y-67598520D01*
X104314475Y-67616412D01*
X104257294Y-67607357D01*
X104247175Y-67603166D01*
X104237022Y-67596382D01*
X104158791Y-67580821D01*
X104146811Y-67583204D01*
X104092537Y-67593999D01*
X104092534Y-67593999D01*
X104080559Y-67596382D01*
X104070407Y-67603164D01*
X104070405Y-67603166D01*
X104050582Y-67616412D01*
X104030980Y-67629510D01*
X104026677Y-67633812D01*
X104026672Y-67633817D01*
X103810034Y-67850456D01*
X103760671Y-67880706D01*
X103702955Y-67885248D01*
X103649468Y-67863093D01*
X103611868Y-67819070D01*
X103598353Y-67762775D01*
X103598353Y-67565980D01*
X103607792Y-67518527D01*
X103634672Y-67478299D01*
X103967607Y-67145364D01*
X104975850Y-66137119D01*
X104978549Y-66134771D01*
X104984255Y-66131931D01*
X105015514Y-66097640D01*
X105019429Y-66093540D01*
X105032201Y-66080770D01*
X105035449Y-66076027D01*
X105035992Y-66075374D01*
X105039760Y-66071045D01*
X105052199Y-66057400D01*
X105059943Y-66048906D01*
X105064095Y-66038185D01*
X105068110Y-66031702D01*
X105070108Y-66027913D01*
X105073189Y-66020934D01*
X105079684Y-66011454D01*
X105085799Y-65985454D01*
X105090881Y-65969044D01*
X105093817Y-65961465D01*
X105100527Y-65944146D01*
X105100527Y-65932653D01*
X105101922Y-65925191D01*
X105102423Y-65920877D01*
X105102774Y-65913281D01*
X105105406Y-65902092D01*
X105101716Y-65875640D01*
X105100527Y-65858508D01*
X105100527Y-63971992D01*
X105119226Y-63906512D01*
X105169683Y-63860780D01*
X105236681Y-63848589D01*
X105371190Y-63861837D01*
X105377251Y-63862434D01*
X105583185Y-63842151D01*
X105602562Y-63836273D01*
X105632755Y-63827115D01*
X105689949Y-63823602D01*
X105742616Y-63846179D01*
G37*
G04 #@! TD.AperFunction*
G04 #@! TA.AperFunction,Conductor*
G36*
X111279469Y-58402678D02*
G01*
X111316362Y-58446524D01*
X111329602Y-58502276D01*
X111329602Y-60660065D01*
X111320163Y-60707518D01*
X111293283Y-60747746D01*
X110747702Y-61293325D01*
X110707473Y-61320205D01*
X110660020Y-61329644D01*
X110614660Y-61320620D01*
X110613037Y-61319753D01*
X110607213Y-61317986D01*
X110607210Y-61317985D01*
X110434042Y-61265455D01*
X110434037Y-61265454D01*
X110428212Y-61263687D01*
X110422153Y-61263090D01*
X110422147Y-61263089D01*
X110242062Y-61245353D01*
X110236000Y-61244756D01*
X110229938Y-61245353D01*
X110049852Y-61263089D01*
X110049844Y-61263090D01*
X110043788Y-61263687D01*
X110037964Y-61265453D01*
X110037957Y-61265455D01*
X109864794Y-61317984D01*
X109864792Y-61317984D01*
X109858963Y-61319753D01*
X109853596Y-61322621D01*
X109853588Y-61322625D01*
X109693998Y-61407929D01*
X109693993Y-61407932D01*
X109688628Y-61410800D01*
X109683924Y-61414659D01*
X109683920Y-61414663D01*
X109544033Y-61529464D01*
X109544027Y-61529469D01*
X109539327Y-61533327D01*
X109535469Y-61538027D01*
X109535464Y-61538033D01*
X109420663Y-61677920D01*
X109420659Y-61677924D01*
X109416800Y-61682628D01*
X109413932Y-61687993D01*
X109413929Y-61687998D01*
X109328625Y-61847588D01*
X109328621Y-61847596D01*
X109325753Y-61852963D01*
X109323987Y-61858786D01*
X109323984Y-61858794D01*
X109271455Y-62031957D01*
X109271453Y-62031964D01*
X109269687Y-62037788D01*
X109269090Y-62043844D01*
X109269089Y-62043852D01*
X109251701Y-62220401D01*
X109250756Y-62230000D01*
X109251353Y-62236062D01*
X109269089Y-62416147D01*
X109269090Y-62416153D01*
X109269687Y-62422212D01*
X109271454Y-62428037D01*
X109271455Y-62428042D01*
X109302504Y-62530396D01*
X109325753Y-62607037D01*
X109328623Y-62612406D01*
X109328625Y-62612411D01*
X109397734Y-62741703D01*
X109416800Y-62777372D01*
X109539327Y-62926673D01*
X109688628Y-63049200D01*
X109858963Y-63140247D01*
X110043788Y-63196313D01*
X110236000Y-63215244D01*
X110428212Y-63196313D01*
X110613037Y-63140247D01*
X110614659Y-63139379D01*
X110660017Y-63130355D01*
X110707472Y-63139793D01*
X110747703Y-63166674D01*
X111566948Y-63985919D01*
X111593828Y-64026147D01*
X111603267Y-64073600D01*
X111603267Y-64141506D01*
X111593828Y-64188959D01*
X111566948Y-64229187D01*
X109578181Y-66217954D01*
X109528818Y-66248204D01*
X109471102Y-66252746D01*
X109417615Y-66230591D01*
X109380015Y-66186568D01*
X109366500Y-66130273D01*
X109366500Y-65116158D01*
X109386074Y-65049492D01*
X109391377Y-65043373D01*
X109451165Y-64912457D01*
X109471647Y-64770000D01*
X109451165Y-64627543D01*
X109391377Y-64496627D01*
X109342424Y-64440132D01*
X109302934Y-64394557D01*
X109302932Y-64394555D01*
X109297128Y-64387857D01*
X109176053Y-64310047D01*
X109104853Y-64289141D01*
X109046473Y-64271999D01*
X109046470Y-64271998D01*
X109037961Y-64269500D01*
X108894039Y-64269500D01*
X108885530Y-64271998D01*
X108885526Y-64271999D01*
X108825434Y-64289644D01*
X108768483Y-64292697D01*
X108716189Y-64269934D01*
X108679616Y-64226171D01*
X108666500Y-64170667D01*
X108666500Y-62703059D01*
X108677707Y-62651545D01*
X108681116Y-62644081D01*
X108689165Y-62626457D01*
X108709647Y-62484000D01*
X108689165Y-62341543D01*
X108629377Y-62210627D01*
X108566309Y-62137842D01*
X108540934Y-62108557D01*
X108540932Y-62108555D01*
X108535128Y-62101857D01*
X108420114Y-62027942D01*
X108381659Y-61988794D01*
X108363865Y-61936882D01*
X108370217Y-61882375D01*
X108399469Y-61835949D01*
X108513830Y-61721588D01*
X108516520Y-61719248D01*
X108522228Y-61716407D01*
X108553487Y-61682116D01*
X108557402Y-61678016D01*
X108570174Y-61665246D01*
X108573422Y-61660503D01*
X108573965Y-61659850D01*
X108577733Y-61655521D01*
X108590174Y-61641874D01*
X108590173Y-61641874D01*
X108597916Y-61633382D01*
X108602067Y-61622663D01*
X108606070Y-61616200D01*
X108608077Y-61612393D01*
X108611158Y-61605414D01*
X108617656Y-61595930D01*
X108623772Y-61569921D01*
X108628843Y-61553546D01*
X108638500Y-61528622D01*
X108638500Y-61517126D01*
X108639896Y-61509659D01*
X108640396Y-61505354D01*
X108640747Y-61497756D01*
X108643379Y-61486568D01*
X108639689Y-61460116D01*
X108638500Y-61442984D01*
X108638500Y-60358065D01*
X108650406Y-60305047D01*
X108683837Y-60262210D01*
X108732375Y-60237780D01*
X108777987Y-60236662D01*
X108778117Y-60235351D01*
X108984051Y-60255634D01*
X109189985Y-60235351D01*
X109388005Y-60175283D01*
X109570501Y-60077736D01*
X109612697Y-60043106D01*
X109672834Y-60016353D01*
X109738196Y-60024147D01*
X109790359Y-60064296D01*
X109814625Y-60125485D01*
X109804154Y-60190472D01*
X109755760Y-60296440D01*
X109748886Y-60311492D01*
X109747624Y-60320265D01*
X109747623Y-60320271D01*
X109737600Y-60389987D01*
X109728404Y-60453949D01*
X109729666Y-60462726D01*
X109747623Y-60587626D01*
X109747624Y-60587630D01*
X109748886Y-60596406D01*
X109752570Y-60604474D01*
X109752571Y-60604475D01*
X109799629Y-60707518D01*
X109808674Y-60727322D01*
X109814481Y-60734024D01*
X109814482Y-60734025D01*
X109897116Y-60829391D01*
X109897118Y-60829393D01*
X109902923Y-60836092D01*
X110023998Y-60913902D01*
X110162090Y-60954449D01*
X110297141Y-60954449D01*
X110306012Y-60954449D01*
X110444104Y-60913902D01*
X110565179Y-60836092D01*
X110659428Y-60727322D01*
X110719216Y-60596406D01*
X110739698Y-60453949D01*
X110719216Y-60311492D01*
X110669632Y-60202919D01*
X110663111Y-60188640D01*
X110663110Y-60188638D01*
X110659428Y-60180576D01*
X110654125Y-60174456D01*
X110634551Y-60107791D01*
X110634551Y-58628611D01*
X110634551Y-58618851D01*
X110631534Y-58609567D01*
X110630158Y-58600877D01*
X110634148Y-58544900D01*
X110662406Y-58496415D01*
X110709144Y-58465353D01*
X110764785Y-58458074D01*
X110780102Y-58459583D01*
X110986036Y-58439300D01*
X111169607Y-58383614D01*
X111226802Y-58380102D01*
X111279469Y-58402678D01*
G37*
G04 #@! TD.AperFunction*
G04 #@! TA.AperFunction,Conductor*
G36*
X90564558Y-48778524D02*
G01*
X91736483Y-48874449D01*
X92182410Y-48910949D01*
X92199585Y-48913577D01*
X93771014Y-49268128D01*
X93787506Y-49273074D01*
X95298900Y-49843464D01*
X95314250Y-49850485D01*
X95531678Y-49968461D01*
X96751882Y-50630541D01*
X96765763Y-50639310D01*
X97016360Y-50821894D01*
X98115757Y-51622910D01*
X98127955Y-51633053D01*
X99376350Y-52814108D01*
X99386766Y-52825254D01*
X100520706Y-54199142D01*
X100527239Y-54207803D01*
X101080926Y-55012818D01*
X101079786Y-55013601D01*
X101079825Y-55013656D01*
X101080929Y-55012829D01*
X101080980Y-55012897D01*
X101081032Y-55012972D01*
X101079898Y-55013757D01*
X101079937Y-55013811D01*
X101081041Y-55012978D01*
X101313469Y-55320698D01*
X101313572Y-55320861D01*
X101313696Y-55320889D01*
X101313810Y-55320957D01*
X101313893Y-55320935D01*
X101313976Y-55320954D01*
X101314084Y-55320885D01*
X101314211Y-55320852D01*
X101314310Y-55320683D01*
X101724143Y-54743585D01*
X101728065Y-54738364D01*
X103266640Y-52799498D01*
X103281081Y-52784178D01*
X105056687Y-51195627D01*
X105074496Y-51182364D01*
X107041031Y-49975565D01*
X107062417Y-49965122D01*
X109169538Y-49176604D01*
X109194579Y-49170115D01*
X111707563Y-48792772D01*
X111733760Y-48791644D01*
X114244563Y-48949878D01*
X114270312Y-48954258D01*
X116675117Y-49630269D01*
X116700113Y-49640337D01*
X117187151Y-49901244D01*
X118896657Y-50817028D01*
X118916646Y-50830378D01*
X120166170Y-51853170D01*
X120177605Y-51863803D01*
X121222144Y-52965677D01*
X121284756Y-53031726D01*
X121299795Y-53051121D01*
X121353995Y-53137486D01*
X122584117Y-55097645D01*
X122595510Y-55120878D01*
X123438284Y-57419843D01*
X123444430Y-57443745D01*
X123762986Y-59523073D01*
X123764416Y-59541729D01*
X123766790Y-61964338D01*
X123765869Y-61979541D01*
X123349319Y-65379071D01*
X123345076Y-65399401D01*
X122467214Y-68345418D01*
X122458114Y-68367747D01*
X121033006Y-71076182D01*
X121021629Y-71093950D01*
X118959354Y-73780313D01*
X118950416Y-73790711D01*
X117501551Y-75298872D01*
X117497686Y-75302722D01*
X115241831Y-77452998D01*
X115238176Y-77456346D01*
X111549646Y-80701034D01*
X111549617Y-80701059D01*
X111549581Y-80701092D01*
X111549580Y-80701093D01*
X111549536Y-80701131D01*
X111549434Y-80701222D01*
X111549432Y-80701224D01*
X111549308Y-80701334D01*
X111549246Y-80701389D01*
X102161109Y-89082212D01*
X102160610Y-89081653D01*
X102160605Y-89081655D01*
X102161107Y-89082213D01*
X101394944Y-89771260D01*
X101342006Y-89799383D01*
X101282062Y-89799387D01*
X101229120Y-89771271D01*
X100462971Y-89082417D01*
X100463450Y-89081883D01*
X100463447Y-89081882D01*
X100462970Y-89082416D01*
X94428553Y-83679284D01*
X96525282Y-83679284D01*
X96527325Y-83690606D01*
X96528182Y-83692482D01*
X96536271Y-83705577D01*
X96566906Y-83743593D01*
X96571331Y-83748519D01*
X97836358Y-85013546D01*
X97841284Y-85017971D01*
X97879300Y-85048606D01*
X97892395Y-85056695D01*
X97894271Y-85057552D01*
X97905593Y-85059595D01*
X97908439Y-85048449D01*
X98408439Y-85048449D01*
X98411284Y-85059595D01*
X98422606Y-85057552D01*
X98424482Y-85056695D01*
X98437577Y-85048606D01*
X98475593Y-85017971D01*
X98480519Y-85013546D01*
X98761468Y-84732597D01*
X98817840Y-84700296D01*
X98882807Y-84700933D01*
X98938534Y-84734335D01*
X98969723Y-84791330D01*
X98967810Y-84856272D01*
X98920959Y-85010722D01*
X98920957Y-85010728D01*
X98919190Y-85016556D01*
X98918593Y-85022612D01*
X98918592Y-85022620D01*
X98905343Y-85157147D01*
X98898907Y-85222490D01*
X98899504Y-85228551D01*
X98918592Y-85422359D01*
X98918593Y-85422365D01*
X98919190Y-85428424D01*
X98979258Y-85626444D01*
X99076805Y-85808940D01*
X99208080Y-85968900D01*
X99368040Y-86100175D01*
X99550536Y-86197722D01*
X99748556Y-86257790D01*
X99954490Y-86278073D01*
X100160424Y-86257790D01*
X100358444Y-86197722D01*
X100540940Y-86100175D01*
X100700900Y-85968900D01*
X100832175Y-85808940D01*
X100929722Y-85626444D01*
X100989790Y-85428424D01*
X101010073Y-85222490D01*
X100989790Y-85016556D01*
X100929722Y-84818536D01*
X100832175Y-84636040D01*
X100700900Y-84476080D01*
X100540940Y-84344805D01*
X100430008Y-84285510D01*
X100363818Y-84250130D01*
X100363813Y-84250128D01*
X100358444Y-84247258D01*
X100263486Y-84218453D01*
X100166254Y-84188958D01*
X100166249Y-84188957D01*
X100160424Y-84187190D01*
X100154365Y-84186593D01*
X100154359Y-84186592D01*
X99960551Y-84167504D01*
X99954490Y-84166907D01*
X99948429Y-84167504D01*
X99754620Y-84186592D01*
X99754612Y-84186593D01*
X99748556Y-84187190D01*
X99742728Y-84188957D01*
X99742722Y-84188959D01*
X99588272Y-84235810D01*
X99523330Y-84237723D01*
X99466335Y-84206534D01*
X99432933Y-84150807D01*
X99432296Y-84085840D01*
X99464597Y-84029468D01*
X99745546Y-83748519D01*
X99749971Y-83743593D01*
X99780606Y-83705577D01*
X99788695Y-83692482D01*
X99789552Y-83690606D01*
X99791595Y-83679284D01*
X99780449Y-83676439D01*
X98424765Y-83676439D01*
X98411889Y-83679889D01*
X98408439Y-83692765D01*
X98408439Y-85048449D01*
X97908439Y-85048449D01*
X97908439Y-83692765D01*
X97904988Y-83679889D01*
X97892113Y-83676439D01*
X96536429Y-83676439D01*
X96525282Y-83679284D01*
X94428553Y-83679284D01*
X93863779Y-83173593D01*
X96525282Y-83173593D01*
X96536429Y-83176439D01*
X97892113Y-83176439D01*
X97904988Y-83172988D01*
X97908439Y-83160113D01*
X98408439Y-83160113D01*
X98411889Y-83172988D01*
X98424765Y-83176439D01*
X99780449Y-83176439D01*
X99791595Y-83173593D01*
X99789552Y-83162271D01*
X99788695Y-83160395D01*
X99780606Y-83147300D01*
X99749971Y-83109284D01*
X99745546Y-83104358D01*
X99319584Y-82678396D01*
X102665619Y-82678396D01*
X102685860Y-82812684D01*
X102689889Y-82821051D01*
X102689891Y-82821056D01*
X102693720Y-82829006D01*
X102744783Y-82935039D01*
X102749594Y-82940846D01*
X102749595Y-82940847D01*
X102762440Y-82956351D01*
X102762445Y-82956357D01*
X102764284Y-82958576D01*
X103477424Y-83671716D01*
X103479643Y-83673555D01*
X103479648Y-83673559D01*
X103491871Y-83683686D01*
X103500961Y-83691217D01*
X103547587Y-83713671D01*
X103597502Y-83737709D01*
X103623316Y-83750140D01*
X103757604Y-83770381D01*
X103891891Y-83750140D01*
X103967621Y-83713670D01*
X104016783Y-83701477D01*
X104066723Y-83709961D01*
X104109102Y-83737709D01*
X104131681Y-83760288D01*
X104161787Y-83809210D01*
X104166615Y-83866450D01*
X104163637Y-83886208D01*
X104154264Y-83948396D01*
X104174505Y-84082683D01*
X104178534Y-84091051D01*
X104178537Y-84091058D01*
X104210630Y-84157699D01*
X104222715Y-84218453D01*
X104203904Y-84277472D01*
X104158891Y-84320028D01*
X104098910Y-84335500D01*
X104068039Y-84335500D01*
X104059530Y-84337998D01*
X104059526Y-84337999D01*
X103938461Y-84373547D01*
X103929947Y-84376047D01*
X103922484Y-84380842D01*
X103922484Y-84380843D01*
X103816329Y-84449064D01*
X103816325Y-84449066D01*
X103808872Y-84453857D01*
X103803070Y-84460551D01*
X103803065Y-84460557D01*
X103720431Y-84555923D01*
X103720428Y-84555927D01*
X103714623Y-84562627D01*
X103710941Y-84570689D01*
X103710938Y-84570694D01*
X103658520Y-84685473D01*
X103654835Y-84693543D01*
X103653573Y-84702316D01*
X103653572Y-84702322D01*
X103637637Y-84813161D01*
X103634353Y-84836000D01*
X103635615Y-84844777D01*
X103653572Y-84969677D01*
X103653573Y-84969681D01*
X103654835Y-84978457D01*
X103658519Y-84986525D01*
X103658520Y-84986526D01*
X103698628Y-85074351D01*
X103714623Y-85109373D01*
X103720430Y-85116075D01*
X103720431Y-85116076D01*
X103803065Y-85211442D01*
X103803067Y-85211444D01*
X103808872Y-85218143D01*
X103929947Y-85295953D01*
X104068039Y-85336500D01*
X104203090Y-85336500D01*
X104211961Y-85336500D01*
X104350053Y-85295953D01*
X104418980Y-85251655D01*
X104457573Y-85236947D01*
X104457429Y-85236502D01*
X104466355Y-85233601D01*
X104466355Y-85233600D01*
X104478495Y-85229656D01*
X104497423Y-85225111D01*
X104519304Y-85221646D01*
X104539045Y-85211586D01*
X104557014Y-85204143D01*
X104578090Y-85197296D01*
X104596016Y-85184271D01*
X104612602Y-85174107D01*
X104632342Y-85164050D01*
X104654905Y-85141486D01*
X104654909Y-85141484D01*
X104822692Y-84973700D01*
X104878279Y-84941607D01*
X104942467Y-84941607D01*
X104997138Y-84973172D01*
X104997232Y-84973070D01*
X104997701Y-84973497D01*
X104998053Y-84973700D01*
X105001424Y-84977071D01*
X105024962Y-84996572D01*
X105031764Y-84999847D01*
X105031763Y-84999847D01*
X105133011Y-85048606D01*
X105147317Y-85055495D01*
X105281604Y-85075736D01*
X105415892Y-85055495D01*
X105538246Y-84996572D01*
X105561784Y-84977071D01*
X106115825Y-84423030D01*
X106135326Y-84399492D01*
X106194249Y-84277138D01*
X106214490Y-84142850D01*
X106194249Y-84008563D01*
X106135326Y-83886208D01*
X106115825Y-83862670D01*
X105367330Y-83114175D01*
X105365100Y-83112327D01*
X105365094Y-83112322D01*
X105349606Y-83099491D01*
X105343792Y-83094674D01*
X105336992Y-83091399D01*
X105336990Y-83091398D01*
X105229809Y-83039782D01*
X105229804Y-83039780D01*
X105221437Y-83035751D01*
X105087150Y-83015510D01*
X105077961Y-83016895D01*
X104962050Y-83034366D01*
X104962049Y-83034366D01*
X104952862Y-83035751D01*
X104944490Y-83039782D01*
X104944492Y-83039782D01*
X104865305Y-83077916D01*
X104799926Y-83089653D01*
X104737870Y-83065965D01*
X104696943Y-83013647D01*
X104688889Y-82947713D01*
X104690800Y-82935039D01*
X104708167Y-82819818D01*
X104687926Y-82685530D01*
X104629003Y-82563175D01*
X104618506Y-82550505D01*
X104611345Y-82541862D01*
X104611341Y-82541857D01*
X104609502Y-82539638D01*
X103896362Y-81826498D01*
X103894143Y-81824659D01*
X103894137Y-81824654D01*
X103878633Y-81811809D01*
X103878632Y-81811808D01*
X103872825Y-81806997D01*
X103866028Y-81803724D01*
X103866027Y-81803723D01*
X103758842Y-81752105D01*
X103758837Y-81752103D01*
X103750470Y-81748074D01*
X103616182Y-81727833D01*
X103606993Y-81729218D01*
X103491083Y-81746689D01*
X103491082Y-81746689D01*
X103481895Y-81748074D01*
X103473529Y-81752102D01*
X103473522Y-81752105D01*
X103366337Y-81803723D01*
X103366332Y-81803725D01*
X103359540Y-81806997D01*
X103353735Y-81811805D01*
X103353731Y-81811809D01*
X103338227Y-81824654D01*
X103338210Y-81824669D01*
X103336003Y-81826498D01*
X103333965Y-81828535D01*
X103333954Y-81828546D01*
X102766332Y-82396168D01*
X102766321Y-82396179D01*
X102764284Y-82398217D01*
X102762455Y-82400424D01*
X102762440Y-82400441D01*
X102749595Y-82415945D01*
X102749591Y-82415949D01*
X102744783Y-82421754D01*
X102741511Y-82428546D01*
X102741509Y-82428551D01*
X102689891Y-82535736D01*
X102689888Y-82535743D01*
X102685860Y-82544109D01*
X102665619Y-82678396D01*
X99319584Y-82678396D01*
X98480519Y-81839331D01*
X98475593Y-81834906D01*
X98437577Y-81804271D01*
X98424482Y-81796182D01*
X98422606Y-81795325D01*
X98411284Y-81793282D01*
X98408439Y-81804429D01*
X98408439Y-83160113D01*
X97908439Y-83160113D01*
X97908439Y-81804429D01*
X97905593Y-81793282D01*
X97894271Y-81795325D01*
X97892395Y-81796182D01*
X97879300Y-81804271D01*
X97841284Y-81834906D01*
X97836358Y-81839331D01*
X96571331Y-83104358D01*
X96566906Y-83109284D01*
X96536271Y-83147300D01*
X96528182Y-83160395D01*
X96527325Y-83162271D01*
X96525282Y-83173593D01*
X93863779Y-83173593D01*
X92020510Y-81523156D01*
X92022874Y-81520515D01*
X92022869Y-81520508D01*
X92020508Y-81523155D01*
X91334947Y-80911562D01*
X93983053Y-80911562D01*
X93998614Y-80989793D01*
X94031742Y-81039373D01*
X95261751Y-82269382D01*
X95311331Y-82302510D01*
X95389562Y-82318071D01*
X95467793Y-82302510D01*
X95517373Y-82269382D01*
X96747382Y-81039373D01*
X96780510Y-80989793D01*
X96796071Y-80911562D01*
X96780510Y-80833331D01*
X96747382Y-80783751D01*
X95826380Y-79862749D01*
X95799501Y-79822522D01*
X95790062Y-79775069D01*
X95790062Y-77946152D01*
X95801267Y-77894643D01*
X95831181Y-77854679D01*
X95835128Y-77852143D01*
X95929377Y-77743373D01*
X95989165Y-77612457D01*
X96009647Y-77470000D01*
X95989165Y-77327543D01*
X95945660Y-77232281D01*
X98165963Y-77232281D01*
X98170955Y-77240428D01*
X98781570Y-77851043D01*
X98789717Y-77856035D01*
X98791948Y-77846745D01*
X98791948Y-77246377D01*
X98788497Y-77233501D01*
X98775622Y-77230051D01*
X98175254Y-77230051D01*
X98165963Y-77232281D01*
X95945660Y-77232281D01*
X95929377Y-77196627D01*
X95897852Y-77160245D01*
X95840934Y-77094557D01*
X95840932Y-77094555D01*
X95835128Y-77087857D01*
X95714053Y-77010047D01*
X95658863Y-76993841D01*
X95584473Y-76971999D01*
X95584470Y-76971998D01*
X95575961Y-76969500D01*
X95432039Y-76969500D01*
X95423530Y-76971998D01*
X95423526Y-76971999D01*
X95302461Y-77007547D01*
X95293947Y-77010047D01*
X95286484Y-77014842D01*
X95286484Y-77014843D01*
X95180329Y-77083064D01*
X95180325Y-77083066D01*
X95172872Y-77087857D01*
X95167070Y-77094551D01*
X95167065Y-77094557D01*
X95084431Y-77189923D01*
X95084428Y-77189927D01*
X95078623Y-77196627D01*
X95074941Y-77204689D01*
X95074938Y-77204694D01*
X95022520Y-77319473D01*
X95018835Y-77327543D01*
X95017573Y-77336316D01*
X95017572Y-77336322D01*
X95002797Y-77439093D01*
X94998353Y-77470000D01*
X94998869Y-77473592D01*
X94993547Y-77507199D01*
X94992078Y-77511719D01*
X94992077Y-77511724D01*
X94989062Y-77521005D01*
X94989062Y-77530765D01*
X94989062Y-79775069D01*
X94979623Y-79822522D01*
X94952743Y-79862750D01*
X94036054Y-80779438D01*
X94036049Y-80779443D01*
X94031742Y-80783751D01*
X94028358Y-80788814D01*
X94028355Y-80788819D01*
X94005399Y-80823176D01*
X93998614Y-80833331D01*
X93983053Y-80911562D01*
X91334947Y-80911562D01*
X85783054Y-75958682D01*
X85777313Y-75953221D01*
X85536858Y-75709401D01*
X84111210Y-74263799D01*
X84105451Y-74257544D01*
X84075595Y-74222797D01*
X83592012Y-73660000D01*
X87378353Y-73660000D01*
X87379615Y-73668777D01*
X87397572Y-73793677D01*
X87397573Y-73793681D01*
X87398835Y-73802457D01*
X87402519Y-73810525D01*
X87402520Y-73810526D01*
X87452543Y-73920061D01*
X87458623Y-73933373D01*
X87464430Y-73940075D01*
X87464431Y-73940076D01*
X87547065Y-74035442D01*
X87547067Y-74035444D01*
X87552872Y-74042143D01*
X87673947Y-74119953D01*
X87812039Y-74160500D01*
X87820911Y-74160500D01*
X87829687Y-74161762D01*
X87829423Y-74163596D01*
X87861310Y-74169939D01*
X87901538Y-74196819D01*
X90048436Y-76343717D01*
X90081742Y-76404229D01*
X90077507Y-76473172D01*
X90037044Y-76529152D01*
X89972910Y-76554801D01*
X89951278Y-76556931D01*
X89951270Y-76556932D01*
X89945214Y-76557529D01*
X89939390Y-76559295D01*
X89939383Y-76559297D01*
X89769608Y-76610797D01*
X89769601Y-76610799D01*
X89763782Y-76612565D01*
X89758416Y-76615432D01*
X89758409Y-76615436D01*
X89601949Y-76699065D01*
X89601938Y-76699072D01*
X89596573Y-76701940D01*
X89591861Y-76705806D01*
X89591861Y-76705807D01*
X89454720Y-76818356D01*
X89454715Y-76818360D01*
X89450014Y-76822219D01*
X89446155Y-76826920D01*
X89446151Y-76826925D01*
X89333602Y-76964066D01*
X89329735Y-76968778D01*
X89326867Y-76974143D01*
X89326860Y-76974154D01*
X89243231Y-77130614D01*
X89243227Y-77130621D01*
X89240360Y-77135987D01*
X89238594Y-77141806D01*
X89238592Y-77141813D01*
X89187092Y-77311588D01*
X89187090Y-77311595D01*
X89185324Y-77317419D01*
X89184727Y-77323475D01*
X89184726Y-77323483D01*
X89171160Y-77461223D01*
X89166740Y-77506102D01*
X89167337Y-77512163D01*
X89184726Y-77688720D01*
X89184727Y-77688726D01*
X89185324Y-77694785D01*
X89187091Y-77700610D01*
X89187092Y-77700615D01*
X89238592Y-77870390D01*
X89240360Y-77876217D01*
X89243229Y-77881585D01*
X89243231Y-77881589D01*
X89326860Y-78038049D01*
X89326864Y-78038055D01*
X89329735Y-78043426D01*
X89450014Y-78189985D01*
X89596573Y-78310264D01*
X89601945Y-78313135D01*
X89601949Y-78313138D01*
X89731766Y-78382526D01*
X89763782Y-78399639D01*
X89945214Y-78454675D01*
X90133897Y-78473259D01*
X90322580Y-78454675D01*
X90504012Y-78399639D01*
X90671221Y-78310264D01*
X90817780Y-78189985D01*
X90938059Y-78043426D01*
X91027434Y-77876217D01*
X91082470Y-77694785D01*
X91085197Y-77667090D01*
X91110843Y-77602956D01*
X91166824Y-77562492D01*
X91235768Y-77558256D01*
X91296281Y-77591562D01*
X92195091Y-78490372D01*
X92195094Y-78490374D01*
X92217658Y-78512938D01*
X92237396Y-78522995D01*
X92253984Y-78533161D01*
X92264010Y-78540445D01*
X92264012Y-78540446D01*
X92271910Y-78546184D01*
X92292981Y-78553030D01*
X92310954Y-78560474D01*
X92330696Y-78570534D01*
X92352581Y-78574000D01*
X92371489Y-78578539D01*
X92392567Y-78585388D01*
X92424481Y-78585388D01*
X92445633Y-78585388D01*
X92493086Y-78594827D01*
X92533314Y-78621707D01*
X92566861Y-78655254D01*
X92599464Y-78712805D01*
X92597841Y-78778929D01*
X92559980Y-78903742D01*
X92559978Y-78903751D01*
X92558211Y-78909577D01*
X92557614Y-78915633D01*
X92557613Y-78915641D01*
X92549896Y-78994000D01*
X92537928Y-79115511D01*
X92538525Y-79121572D01*
X92557613Y-79315380D01*
X92557614Y-79315386D01*
X92558211Y-79321445D01*
X92559978Y-79327270D01*
X92559979Y-79327275D01*
X92576642Y-79382206D01*
X92618279Y-79519465D01*
X92621149Y-79524834D01*
X92621151Y-79524839D01*
X92686796Y-79647651D01*
X92715826Y-79701961D01*
X92719689Y-79706668D01*
X92825154Y-79835179D01*
X92847101Y-79861921D01*
X93007061Y-79993196D01*
X93189557Y-80090743D01*
X93387577Y-80150811D01*
X93593511Y-80171094D01*
X93799445Y-80150811D01*
X93997465Y-80090743D01*
X94179961Y-79993196D01*
X94339921Y-79861921D01*
X94471196Y-79701961D01*
X94568743Y-79519465D01*
X94628811Y-79321445D01*
X94649094Y-79115511D01*
X94628811Y-78909577D01*
X94568743Y-78711557D01*
X94471196Y-78529061D01*
X94339921Y-78369101D01*
X94310396Y-78344871D01*
X94212517Y-78264544D01*
X94179961Y-78237826D01*
X94174590Y-78234955D01*
X94002839Y-78143151D01*
X94002834Y-78143149D01*
X93997465Y-78140279D01*
X93903941Y-78111909D01*
X93805275Y-78081979D01*
X93805270Y-78081978D01*
X93799445Y-78080211D01*
X93793386Y-78079614D01*
X93793380Y-78079613D01*
X93599572Y-78060525D01*
X93593511Y-78059928D01*
X93587450Y-78060525D01*
X93393641Y-78079613D01*
X93393633Y-78079614D01*
X93387577Y-78080211D01*
X93381751Y-78081978D01*
X93381742Y-78081980D01*
X93256929Y-78119841D01*
X93190805Y-78121464D01*
X93133254Y-78088861D01*
X92923804Y-77879411D01*
X92923803Y-77879410D01*
X92923797Y-77879404D01*
X92923793Y-77879401D01*
X92901230Y-77856838D01*
X92892537Y-77852408D01*
X92892535Y-77852407D01*
X92881486Y-77846777D01*
X92864903Y-77836614D01*
X92854875Y-77829328D01*
X92854868Y-77829324D01*
X92846978Y-77823592D01*
X92825907Y-77816745D01*
X92807932Y-77809300D01*
X92796887Y-77803672D01*
X92796884Y-77803671D01*
X92788192Y-77799242D01*
X92778555Y-77797715D01*
X92778554Y-77797715D01*
X92766306Y-77795775D01*
X92747394Y-77791234D01*
X92735605Y-77787404D01*
X92735602Y-77787403D01*
X92726321Y-77784388D01*
X92716561Y-77784388D01*
X92673255Y-77784388D01*
X92625802Y-77774949D01*
X92585574Y-77748069D01*
X91714400Y-76876895D01*
X91683420Y-76825209D01*
X91680464Y-76765023D01*
X91706228Y-76710549D01*
X91754628Y-76674653D01*
X91814234Y-76665811D01*
X91929948Y-76677208D01*
X92118631Y-76658624D01*
X92300063Y-76603588D01*
X92467272Y-76514213D01*
X92613831Y-76393934D01*
X92734110Y-76247375D01*
X92823485Y-76080166D01*
X92878521Y-75898734D01*
X92897105Y-75710051D01*
X92878521Y-75521368D01*
X92823485Y-75339936D01*
X92802999Y-75301610D01*
X92736984Y-75178103D01*
X92736981Y-75178099D01*
X92734110Y-75172727D01*
X92613831Y-75026168D01*
X92467272Y-74905889D01*
X92461901Y-74903018D01*
X92461895Y-74903014D01*
X92305435Y-74819385D01*
X92305431Y-74819383D01*
X92300063Y-74816514D01*
X92294239Y-74814747D01*
X92294236Y-74814746D01*
X92124461Y-74763246D01*
X92124456Y-74763245D01*
X92118631Y-74761478D01*
X92112572Y-74760881D01*
X92112566Y-74760880D01*
X91936009Y-74743491D01*
X91929948Y-74742894D01*
X91923887Y-74743491D01*
X91747329Y-74760880D01*
X91747321Y-74760881D01*
X91741265Y-74761478D01*
X91735441Y-74763244D01*
X91735434Y-74763246D01*
X91565659Y-74814746D01*
X91565652Y-74814748D01*
X91559833Y-74816514D01*
X91554467Y-74819381D01*
X91554460Y-74819385D01*
X91398000Y-74903014D01*
X91397989Y-74903021D01*
X91392624Y-74905889D01*
X91387912Y-74909755D01*
X91387912Y-74909756D01*
X91250771Y-75022305D01*
X91250766Y-75022309D01*
X91246065Y-75026168D01*
X91242206Y-75030869D01*
X91242202Y-75030874D01*
X91129653Y-75168015D01*
X91125786Y-75172727D01*
X91122918Y-75178092D01*
X91122911Y-75178103D01*
X91039282Y-75334563D01*
X91039278Y-75334570D01*
X91036411Y-75339936D01*
X91034645Y-75345755D01*
X91034643Y-75345762D01*
X90983143Y-75515537D01*
X90983141Y-75515544D01*
X90981375Y-75521368D01*
X90980778Y-75527424D01*
X90980777Y-75527432D01*
X90969301Y-75643953D01*
X90962791Y-75710051D01*
X90963388Y-75716112D01*
X90963388Y-75716114D01*
X90974187Y-75825764D01*
X90965345Y-75885370D01*
X90929448Y-75933771D01*
X90874975Y-75959534D01*
X90814789Y-75956578D01*
X90763103Y-75925598D01*
X88751505Y-73914000D01*
X92758843Y-73914000D01*
X92759440Y-73920061D01*
X92776829Y-74096618D01*
X92776830Y-74096624D01*
X92777427Y-74102683D01*
X92779194Y-74108508D01*
X92779195Y-74108513D01*
X92829859Y-74275532D01*
X92832463Y-74284115D01*
X92835332Y-74289483D01*
X92835334Y-74289487D01*
X92918963Y-74445947D01*
X92918967Y-74445953D01*
X92921838Y-74451324D01*
X93042117Y-74597883D01*
X93188676Y-74718162D01*
X93194048Y-74721033D01*
X93194052Y-74721036D01*
X93318479Y-74787543D01*
X93355885Y-74807537D01*
X93537317Y-74862573D01*
X93726000Y-74881157D01*
X93747951Y-74878995D01*
X94989062Y-74878995D01*
X94992077Y-74888275D01*
X94992078Y-74888280D01*
X94993546Y-74892798D01*
X94998869Y-74926407D01*
X94998353Y-74930000D01*
X94999615Y-74938777D01*
X95017572Y-75063677D01*
X95017573Y-75063681D01*
X95018835Y-75072457D01*
X95022519Y-75080525D01*
X95022520Y-75080526D01*
X95069775Y-75184000D01*
X95078623Y-75203373D01*
X95084430Y-75210075D01*
X95084431Y-75210076D01*
X95167065Y-75305442D01*
X95167067Y-75305444D01*
X95172872Y-75312143D01*
X95293947Y-75389953D01*
X95432039Y-75430500D01*
X95567090Y-75430500D01*
X95575961Y-75430500D01*
X95714053Y-75389953D01*
X95835128Y-75312143D01*
X95929377Y-75203373D01*
X95989165Y-75072457D01*
X96009647Y-74930000D01*
X95989165Y-74787543D01*
X95935791Y-74670672D01*
X95924622Y-74622118D01*
X95933469Y-74573080D01*
X95960904Y-74531487D01*
X97623586Y-72868807D01*
X97623588Y-72868803D01*
X97646152Y-72846240D01*
X97656207Y-72826504D01*
X97666371Y-72809916D01*
X97679399Y-72791987D01*
X97686244Y-72770917D01*
X97693692Y-72752936D01*
X97703748Y-72733202D01*
X97707214Y-72711313D01*
X97711754Y-72692405D01*
X97718602Y-72671331D01*
X97718602Y-72544465D01*
X97718602Y-71273515D01*
X97736244Y-71209766D01*
X97784148Y-71164157D01*
X97855426Y-71126059D01*
X98001985Y-71005780D01*
X98122264Y-70859221D01*
X98211639Y-70692012D01*
X98266675Y-70510580D01*
X98285259Y-70321897D01*
X98266675Y-70133214D01*
X98211639Y-69951782D01*
X98197401Y-69925144D01*
X98125138Y-69789949D01*
X98125135Y-69789945D01*
X98122264Y-69784573D01*
X98001985Y-69638014D01*
X97855426Y-69517735D01*
X97850055Y-69514864D01*
X97850049Y-69514860D01*
X97693589Y-69431231D01*
X97693585Y-69431229D01*
X97688217Y-69428360D01*
X97682393Y-69426593D01*
X97682390Y-69426592D01*
X97512615Y-69375092D01*
X97512610Y-69375091D01*
X97506785Y-69373324D01*
X97500726Y-69372727D01*
X97500720Y-69372726D01*
X97324163Y-69355337D01*
X97318102Y-69354740D01*
X97312041Y-69355337D01*
X97135483Y-69372726D01*
X97135475Y-69372727D01*
X97129419Y-69373324D01*
X97123595Y-69375090D01*
X97123588Y-69375092D01*
X96953813Y-69426592D01*
X96953806Y-69426594D01*
X96947987Y-69428360D01*
X96942621Y-69431227D01*
X96942614Y-69431231D01*
X96786154Y-69514860D01*
X96786143Y-69514867D01*
X96780778Y-69517735D01*
X96776066Y-69521601D01*
X96776066Y-69521602D01*
X96638925Y-69634151D01*
X96638920Y-69634155D01*
X96634219Y-69638014D01*
X96630360Y-69642715D01*
X96630356Y-69642720D01*
X96517807Y-69779861D01*
X96513940Y-69784573D01*
X96511072Y-69789938D01*
X96511065Y-69789949D01*
X96427436Y-69946409D01*
X96427432Y-69946416D01*
X96424565Y-69951782D01*
X96422799Y-69957601D01*
X96422797Y-69957608D01*
X96371297Y-70127383D01*
X96371295Y-70127390D01*
X96369529Y-70133214D01*
X96368932Y-70139270D01*
X96368931Y-70139278D01*
X96356498Y-70265520D01*
X96350945Y-70321897D01*
X96351542Y-70327958D01*
X96368931Y-70504515D01*
X96368932Y-70504521D01*
X96369529Y-70510580D01*
X96371296Y-70516405D01*
X96371297Y-70516410D01*
X96422797Y-70686185D01*
X96424565Y-70692012D01*
X96427434Y-70697380D01*
X96427436Y-70697384D01*
X96511065Y-70853844D01*
X96511069Y-70853850D01*
X96513940Y-70859221D01*
X96634219Y-71005780D01*
X96780778Y-71126059D01*
X96852055Y-71164157D01*
X96899960Y-71209766D01*
X96917602Y-71273515D01*
X96917602Y-71565244D01*
X96899891Y-71629109D01*
X96851816Y-71674730D01*
X96787112Y-71689074D01*
X96724262Y-71668045D01*
X96681220Y-71617649D01*
X96621439Y-71489449D01*
X96616041Y-71480099D01*
X96495597Y-71308087D01*
X96488662Y-71299822D01*
X96340179Y-71151339D01*
X96331913Y-71144402D01*
X96159899Y-71023957D01*
X96150547Y-71018558D01*
X95960239Y-70929816D01*
X95950098Y-70926125D01*
X95785831Y-70882110D01*
X95774602Y-70881742D01*
X95772051Y-70892685D01*
X95772051Y-73343213D01*
X95775034Y-73356009D01*
X95777508Y-73359024D01*
X95816218Y-73389488D01*
X95840461Y-73443579D01*
X95836826Y-73502742D01*
X95806145Y-73553459D01*
X95370091Y-73989515D01*
X95370088Y-73989518D01*
X95084078Y-74275529D01*
X95084075Y-74275532D01*
X95068413Y-74291193D01*
X95068408Y-74291199D01*
X95061512Y-74298096D01*
X95057082Y-74306787D01*
X95057077Y-74306796D01*
X95051452Y-74317836D01*
X95041293Y-74334414D01*
X95034004Y-74344447D01*
X95033999Y-74344456D01*
X95028266Y-74352348D01*
X95025252Y-74361622D01*
X95025247Y-74361633D01*
X95021416Y-74373425D01*
X95013974Y-74391392D01*
X95008345Y-74402438D01*
X95008341Y-74402447D01*
X95003916Y-74411134D01*
X95002389Y-74420768D01*
X95002390Y-74420768D01*
X95000449Y-74433020D01*
X94995909Y-74451930D01*
X94992077Y-74463723D01*
X94992076Y-74463726D01*
X94989062Y-74473005D01*
X94989062Y-74504919D01*
X94989062Y-74752129D01*
X94989062Y-74878995D01*
X93747951Y-74878995D01*
X93914683Y-74862573D01*
X94096115Y-74807537D01*
X94263324Y-74718162D01*
X94409883Y-74597883D01*
X94530162Y-74451324D01*
X94619537Y-74284115D01*
X94674573Y-74102683D01*
X94693157Y-73914000D01*
X94674573Y-73725317D01*
X94619537Y-73543885D01*
X94581647Y-73472997D01*
X94533036Y-73382052D01*
X94533033Y-73382048D01*
X94530162Y-73376676D01*
X94409883Y-73230117D01*
X94263324Y-73109838D01*
X94257953Y-73106967D01*
X94257947Y-73106963D01*
X94101487Y-73023334D01*
X94101483Y-73023332D01*
X94096115Y-73020463D01*
X94090291Y-73018696D01*
X94090288Y-73018695D01*
X93920513Y-72967195D01*
X93920508Y-72967194D01*
X93914683Y-72965427D01*
X93908624Y-72964830D01*
X93908618Y-72964829D01*
X93732061Y-72947440D01*
X93726000Y-72946843D01*
X93719939Y-72947440D01*
X93543381Y-72964829D01*
X93543373Y-72964830D01*
X93537317Y-72965427D01*
X93531493Y-72967193D01*
X93531486Y-72967195D01*
X93361711Y-73018695D01*
X93361704Y-73018697D01*
X93355885Y-73020463D01*
X93350519Y-73023330D01*
X93350512Y-73023334D01*
X93194052Y-73106963D01*
X93194041Y-73106970D01*
X93188676Y-73109838D01*
X93183964Y-73113704D01*
X93183964Y-73113705D01*
X93046823Y-73226254D01*
X93046818Y-73226258D01*
X93042117Y-73230117D01*
X93038258Y-73234818D01*
X93038254Y-73234823D01*
X92940623Y-73353787D01*
X92921838Y-73376676D01*
X92918970Y-73382041D01*
X92918963Y-73382052D01*
X92835334Y-73538512D01*
X92835330Y-73538519D01*
X92832463Y-73543885D01*
X92830697Y-73549704D01*
X92830695Y-73549711D01*
X92779195Y-73719486D01*
X92779193Y-73719493D01*
X92777427Y-73725317D01*
X92776830Y-73731373D01*
X92776829Y-73731381D01*
X92763456Y-73867165D01*
X92758843Y-73914000D01*
X88751505Y-73914000D01*
X88395550Y-73558045D01*
X88371018Y-73516696D01*
X88369165Y-73517543D01*
X88309377Y-73386627D01*
X88259023Y-73328515D01*
X88220934Y-73284557D01*
X88220932Y-73284555D01*
X88215128Y-73277857D01*
X88094053Y-73200047D01*
X88030148Y-73181283D01*
X87964473Y-73161999D01*
X87964470Y-73161998D01*
X87955961Y-73159500D01*
X87812039Y-73159500D01*
X87803530Y-73161998D01*
X87803526Y-73161999D01*
X87682461Y-73197547D01*
X87673947Y-73200047D01*
X87666484Y-73204842D01*
X87666484Y-73204843D01*
X87560329Y-73273064D01*
X87560325Y-73273066D01*
X87552872Y-73277857D01*
X87547070Y-73284551D01*
X87547065Y-73284557D01*
X87464431Y-73379923D01*
X87464428Y-73379927D01*
X87458623Y-73386627D01*
X87454941Y-73394689D01*
X87454938Y-73394694D01*
X87405594Y-73502742D01*
X87398835Y-73517543D01*
X87397573Y-73526316D01*
X87397572Y-73526322D01*
X87386593Y-73602686D01*
X87378353Y-73660000D01*
X83592012Y-73660000D01*
X82708580Y-72631857D01*
X82701863Y-72623306D01*
X82520653Y-72370500D01*
X94285844Y-72370500D01*
X94286212Y-72381729D01*
X94330227Y-72545996D01*
X94333918Y-72556137D01*
X94422660Y-72746445D01*
X94428059Y-72755797D01*
X94548504Y-72927811D01*
X94555441Y-72936077D01*
X94703922Y-73084558D01*
X94712188Y-73091495D01*
X94884202Y-73211940D01*
X94893554Y-73217339D01*
X95083862Y-73306081D01*
X95094003Y-73309772D01*
X95258270Y-73353787D01*
X95269499Y-73354155D01*
X95272051Y-73343213D01*
X95272051Y-72384275D01*
X95268600Y-72371399D01*
X95255725Y-72367949D01*
X94296787Y-72367949D01*
X94285844Y-72370500D01*
X82520653Y-72370500D01*
X81555178Y-71023567D01*
X81548158Y-71012598D01*
X81544283Y-71005780D01*
X80994334Y-70038102D01*
X80631679Y-69399983D01*
X80625333Y-69387143D01*
X79918954Y-67722118D01*
X79914128Y-67708622D01*
X79822805Y-67397581D01*
X79398129Y-65951153D01*
X79395122Y-65938479D01*
X79394031Y-65932500D01*
X79050403Y-64048609D01*
X79048926Y-64037867D01*
X79046917Y-64016309D01*
X78856897Y-61977004D01*
X78856371Y-61966924D01*
X78836845Y-60261433D01*
X81133500Y-60261433D01*
X81136515Y-60270714D01*
X81136516Y-60270717D01*
X81140346Y-60282506D01*
X81144887Y-60301418D01*
X81145204Y-60303422D01*
X81148354Y-60323304D01*
X81152783Y-60331996D01*
X81152784Y-60331999D01*
X81158412Y-60343044D01*
X81165857Y-60361019D01*
X81172704Y-60382090D01*
X81178436Y-60389980D01*
X81178440Y-60389987D01*
X81185726Y-60400015D01*
X81195889Y-60416598D01*
X81205950Y-60436342D01*
X81212850Y-60443241D01*
X81212850Y-60443242D01*
X81228513Y-60458905D01*
X81228516Y-60458909D01*
X82113181Y-61343574D01*
X82140061Y-61383802D01*
X82149500Y-61431255D01*
X82149500Y-62137842D01*
X82129925Y-62204507D01*
X82124623Y-62210627D01*
X82120943Y-62218684D01*
X82120939Y-62218691D01*
X82068520Y-62333473D01*
X82068519Y-62333475D01*
X82064835Y-62341543D01*
X82063573Y-62350316D01*
X82063572Y-62350322D01*
X82052538Y-62427071D01*
X82044353Y-62484000D01*
X82045615Y-62492777D01*
X82063572Y-62617677D01*
X82063573Y-62617681D01*
X82064835Y-62626457D01*
X82068519Y-62634525D01*
X82068520Y-62634526D01*
X82120939Y-62749308D01*
X82120941Y-62749312D01*
X82124623Y-62757373D01*
X82129925Y-62763492D01*
X82149500Y-62830158D01*
X82149500Y-64169842D01*
X82129925Y-64236507D01*
X82124623Y-64242627D01*
X82120943Y-64250684D01*
X82120939Y-64250691D01*
X82068726Y-64365023D01*
X82064835Y-64373543D01*
X82063573Y-64382316D01*
X82063572Y-64382322D01*
X82048614Y-64486361D01*
X82044353Y-64516000D01*
X82045615Y-64524777D01*
X82063572Y-64649677D01*
X82063573Y-64649681D01*
X82064835Y-64658457D01*
X82068519Y-64666525D01*
X82068520Y-64666526D01*
X82120939Y-64781308D01*
X82120941Y-64781312D01*
X82124623Y-64789373D01*
X82129925Y-64795492D01*
X82149500Y-64862158D01*
X82149500Y-68262567D01*
X82149500Y-68389433D01*
X82152515Y-68398714D01*
X82152516Y-68398717D01*
X82156346Y-68410506D01*
X82160887Y-68429418D01*
X82164354Y-68451304D01*
X82168783Y-68459996D01*
X82168784Y-68459999D01*
X82174412Y-68471044D01*
X82181857Y-68489019D01*
X82188704Y-68510090D01*
X82194436Y-68517980D01*
X82194440Y-68517987D01*
X82201726Y-68528015D01*
X82211889Y-68544598D01*
X82216741Y-68554121D01*
X82221950Y-68564342D01*
X82244513Y-68586905D01*
X82244516Y-68586909D01*
X83796885Y-70139278D01*
X85327369Y-71669761D01*
X85350572Y-71701937D01*
X85362426Y-71739793D01*
X85365572Y-71761678D01*
X85365573Y-71761683D01*
X85366835Y-71770457D01*
X85370519Y-71778525D01*
X85370520Y-71778526D01*
X85411358Y-71867949D01*
X85426623Y-71901373D01*
X85432430Y-71908075D01*
X85432431Y-71908076D01*
X85515065Y-72003442D01*
X85515067Y-72003444D01*
X85520872Y-72010143D01*
X85641947Y-72087953D01*
X85780039Y-72128500D01*
X85915090Y-72128500D01*
X85923961Y-72128500D01*
X86062053Y-72087953D01*
X86183128Y-72010143D01*
X86277377Y-71901373D01*
X86337165Y-71770457D01*
X86357647Y-71628000D01*
X86337165Y-71485543D01*
X86277377Y-71354627D01*
X86259418Y-71333901D01*
X86188934Y-71252557D01*
X86188932Y-71252555D01*
X86183128Y-71245857D01*
X86062053Y-71168047D01*
X86053542Y-71165548D01*
X86053540Y-71165547D01*
X85945735Y-71133893D01*
X85892989Y-71102597D01*
X84894392Y-70104000D01*
X93220353Y-70104000D01*
X93221615Y-70112777D01*
X93239572Y-70237677D01*
X93239573Y-70237681D01*
X93240835Y-70246457D01*
X93244519Y-70254525D01*
X93244520Y-70254526D01*
X93296341Y-70367998D01*
X93300623Y-70377373D01*
X93306430Y-70384075D01*
X93306431Y-70384076D01*
X93389065Y-70479442D01*
X93389067Y-70479444D01*
X93394872Y-70486143D01*
X93515947Y-70563953D01*
X93654039Y-70604500D01*
X93789090Y-70604500D01*
X93797961Y-70604500D01*
X93844606Y-70590803D01*
X93905895Y-70588615D01*
X93960740Y-70616068D01*
X93995720Y-70666447D01*
X94002276Y-70727427D01*
X93983615Y-70857221D01*
X93982353Y-70866000D01*
X93983615Y-70874777D01*
X94001572Y-70999677D01*
X94001573Y-70999681D01*
X94002835Y-71008457D01*
X94006519Y-71016525D01*
X94006520Y-71016526D01*
X94057854Y-71128932D01*
X94062623Y-71139373D01*
X94068430Y-71146075D01*
X94068431Y-71146076D01*
X94151065Y-71241442D01*
X94151067Y-71241444D01*
X94156872Y-71248143D01*
X94277947Y-71325953D01*
X94333884Y-71342377D01*
X94380332Y-71367799D01*
X94411942Y-71410287D01*
X94422943Y-71462089D01*
X94411327Y-71513756D01*
X94333920Y-71679756D01*
X94330226Y-71689903D01*
X94286212Y-71854168D01*
X94285844Y-71865397D01*
X94296787Y-71867949D01*
X95255725Y-71867949D01*
X95268600Y-71864498D01*
X95272051Y-71851623D01*
X95272051Y-70892685D01*
X95269499Y-70881742D01*
X95258268Y-70882110D01*
X95211577Y-70894621D01*
X95147390Y-70894621D01*
X95091803Y-70862527D01*
X95059710Y-70806939D01*
X95059710Y-70742752D01*
X95091802Y-70687167D01*
X98440150Y-67338819D01*
X98480379Y-67311939D01*
X98527832Y-67302500D01*
X98615090Y-67302500D01*
X98623961Y-67302500D01*
X98762053Y-67261953D01*
X98883128Y-67184143D01*
X98977377Y-67075373D01*
X99037165Y-66944457D01*
X99044002Y-66896898D01*
X99071591Y-66835029D01*
X99127580Y-66796891D01*
X99195256Y-66793868D01*
X99254421Y-66826864D01*
X100055480Y-67627922D01*
X100085453Y-67676443D01*
X100090537Y-67733248D01*
X100079615Y-67809220D01*
X100078353Y-67818000D01*
X100079615Y-67826777D01*
X100079615Y-67835647D01*
X100077187Y-67835647D01*
X100071422Y-67884725D01*
X100033574Y-67935947D01*
X99975293Y-67961626D01*
X99911952Y-67954988D01*
X99860261Y-67917784D01*
X99833130Y-67884725D01*
X99798036Y-67841963D01*
X99651477Y-67721684D01*
X99646106Y-67718813D01*
X99646100Y-67718809D01*
X99489640Y-67635180D01*
X99489636Y-67635178D01*
X99484268Y-67632309D01*
X99478444Y-67630542D01*
X99478441Y-67630541D01*
X99308666Y-67579041D01*
X99308661Y-67579040D01*
X99302836Y-67577273D01*
X99296777Y-67576676D01*
X99296771Y-67576675D01*
X99120214Y-67559286D01*
X99114153Y-67558689D01*
X99108092Y-67559286D01*
X98931534Y-67576675D01*
X98931526Y-67576676D01*
X98925470Y-67577273D01*
X98919646Y-67579039D01*
X98919639Y-67579041D01*
X98749864Y-67630541D01*
X98749857Y-67630543D01*
X98744038Y-67632309D01*
X98738672Y-67635176D01*
X98738665Y-67635180D01*
X98582205Y-67718809D01*
X98582194Y-67718816D01*
X98576829Y-67721684D01*
X98572117Y-67725550D01*
X98572117Y-67725551D01*
X98434976Y-67838100D01*
X98434971Y-67838104D01*
X98430270Y-67841963D01*
X98426411Y-67846664D01*
X98426407Y-67846669D01*
X98332064Y-67961626D01*
X98309991Y-67988522D01*
X98307123Y-67993887D01*
X98307116Y-67993898D01*
X98223487Y-68150358D01*
X98223483Y-68150365D01*
X98220616Y-68155731D01*
X98218850Y-68161550D01*
X98218848Y-68161557D01*
X98167348Y-68331332D01*
X98167346Y-68331339D01*
X98165580Y-68337163D01*
X98164983Y-68343219D01*
X98164982Y-68343227D01*
X98151912Y-68475937D01*
X98146996Y-68525846D01*
X98147844Y-68534452D01*
X98164982Y-68708464D01*
X98164983Y-68708470D01*
X98165580Y-68714529D01*
X98167347Y-68720354D01*
X98167348Y-68720359D01*
X98218848Y-68890134D01*
X98220616Y-68895961D01*
X98223485Y-68901329D01*
X98223487Y-68901333D01*
X98307116Y-69057793D01*
X98307120Y-69057799D01*
X98309991Y-69063170D01*
X98430270Y-69209729D01*
X98576829Y-69330008D01*
X98582201Y-69332879D01*
X98582205Y-69332882D01*
X98697066Y-69394276D01*
X98744038Y-69419383D01*
X98925470Y-69474419D01*
X99114153Y-69493003D01*
X99302836Y-69474419D01*
X99484268Y-69419383D01*
X99651477Y-69330008D01*
X99798036Y-69209729D01*
X99918315Y-69063170D01*
X99950141Y-69003626D01*
X99994710Y-68956352D01*
X100057065Y-68938103D01*
X100120089Y-68953890D01*
X100166479Y-68999378D01*
X100183500Y-69062079D01*
X100183500Y-70648746D01*
X100174061Y-70696199D01*
X100147181Y-70736427D01*
X97992516Y-72891091D01*
X97992513Y-72891094D01*
X97976851Y-72906755D01*
X97976846Y-72906761D01*
X97969950Y-72913658D01*
X97965520Y-72922349D01*
X97965515Y-72922358D01*
X97959890Y-72933398D01*
X97949731Y-72949976D01*
X97942442Y-72960009D01*
X97942437Y-72960018D01*
X97936704Y-72967910D01*
X97933690Y-72977184D01*
X97933685Y-72977195D01*
X97929854Y-72988987D01*
X97922412Y-73006954D01*
X97916783Y-73018000D01*
X97916779Y-73018009D01*
X97912354Y-73026696D01*
X97910827Y-73036330D01*
X97910828Y-73036330D01*
X97908887Y-73048582D01*
X97904347Y-73067492D01*
X97900515Y-73079285D01*
X97900514Y-73079288D01*
X97897500Y-73088567D01*
X97897500Y-73120481D01*
X97897500Y-74376619D01*
X97897500Y-74503485D01*
X97900515Y-74512766D01*
X97900516Y-74512769D01*
X97904346Y-74524558D01*
X97908887Y-74543470D01*
X97912354Y-74565356D01*
X97916783Y-74574048D01*
X97916784Y-74574051D01*
X97922412Y-74585096D01*
X97929857Y-74603071D01*
X97936704Y-74624142D01*
X97942436Y-74632032D01*
X97942440Y-74632039D01*
X97949726Y-74642067D01*
X97959889Y-74658650D01*
X97969950Y-74678394D01*
X97976849Y-74685293D01*
X97976850Y-74685294D01*
X97992513Y-74700957D01*
X97992516Y-74700961D01*
X98015900Y-74724345D01*
X98047994Y-74779932D01*
X98047994Y-74844120D01*
X98015900Y-74899707D01*
X97495008Y-75420598D01*
X97442262Y-75451894D01*
X97334459Y-75483547D01*
X97334454Y-75483548D01*
X97325947Y-75486047D01*
X97318484Y-75490842D01*
X97318484Y-75490843D01*
X97212329Y-75559064D01*
X97212325Y-75559066D01*
X97204872Y-75563857D01*
X97199070Y-75570551D01*
X97199065Y-75570557D01*
X97116431Y-75665923D01*
X97116428Y-75665927D01*
X97110623Y-75672627D01*
X97106941Y-75680689D01*
X97106938Y-75680694D01*
X97054520Y-75795473D01*
X97050835Y-75803543D01*
X97049573Y-75812316D01*
X97049572Y-75812322D01*
X97034885Y-75914481D01*
X97030353Y-75946000D01*
X97031615Y-75954777D01*
X97049572Y-76079677D01*
X97049573Y-76079681D01*
X97050835Y-76088457D01*
X97054519Y-76096525D01*
X97054520Y-76096526D01*
X97103297Y-76203333D01*
X97110623Y-76219373D01*
X97116430Y-76226075D01*
X97116431Y-76226076D01*
X97199065Y-76321442D01*
X97199067Y-76321444D01*
X97204872Y-76328143D01*
X97325947Y-76405953D01*
X97464039Y-76446500D01*
X97472910Y-76446500D01*
X97578519Y-76446500D01*
X97640519Y-76463113D01*
X97685906Y-76508500D01*
X97702519Y-76570500D01*
X97702519Y-76577067D01*
X97704459Y-76592424D01*
X97736391Y-76716792D01*
X97741818Y-76727443D01*
X97753486Y-76730051D01*
X99167948Y-76730051D01*
X99229948Y-76746664D01*
X99275335Y-76792051D01*
X99291948Y-76854051D01*
X99291948Y-78056841D01*
X99282510Y-78104292D01*
X99255632Y-78144519D01*
X99246852Y-78153299D01*
X99246850Y-78153301D01*
X99239950Y-78160202D01*
X99235520Y-78168893D01*
X99235515Y-78168902D01*
X99229890Y-78179942D01*
X99219731Y-78196520D01*
X99212442Y-78206553D01*
X99212437Y-78206562D01*
X99206704Y-78214454D01*
X99203690Y-78223728D01*
X99203685Y-78223739D01*
X99199854Y-78235531D01*
X99192412Y-78253498D01*
X99186783Y-78264544D01*
X99186779Y-78264553D01*
X99182354Y-78273240D01*
X99180827Y-78282874D01*
X99180828Y-78282874D01*
X99178887Y-78295126D01*
X99174347Y-78314036D01*
X99170515Y-78325829D01*
X99170514Y-78325832D01*
X99167500Y-78335111D01*
X99167500Y-78367025D01*
X99167500Y-79438567D01*
X99167500Y-79565433D01*
X99170515Y-79574714D01*
X99170516Y-79574717D01*
X99174346Y-79586506D01*
X99178887Y-79605418D01*
X99182354Y-79627304D01*
X99186783Y-79635996D01*
X99186784Y-79635999D01*
X99192412Y-79647044D01*
X99199857Y-79665019D01*
X99206704Y-79686090D01*
X99212436Y-79693980D01*
X99212440Y-79693987D01*
X99219726Y-79704015D01*
X99229889Y-79720598D01*
X99239950Y-79740342D01*
X99246850Y-79747242D01*
X99262513Y-79762905D01*
X99262516Y-79762909D01*
X99297369Y-79797762D01*
X99320571Y-79829937D01*
X99332426Y-79867794D01*
X99335572Y-79889678D01*
X99335573Y-79889682D01*
X99336835Y-79898457D01*
X99340519Y-79906524D01*
X99343018Y-79915033D01*
X99341497Y-79915479D01*
X99350356Y-79964576D01*
X99330988Y-80022769D01*
X99286099Y-80064562D01*
X99226672Y-80079730D01*
X98985484Y-80079730D01*
X98938031Y-80070291D01*
X98897803Y-80043411D01*
X97972819Y-79118426D01*
X97945939Y-79078198D01*
X97936500Y-79030745D01*
X97936500Y-78578158D01*
X97956074Y-78511492D01*
X97961377Y-78505373D01*
X98021165Y-78374457D01*
X98041647Y-78232000D01*
X98021165Y-78089543D01*
X97961377Y-77958627D01*
X97894624Y-77881589D01*
X97872934Y-77856557D01*
X97872932Y-77856555D01*
X97867128Y-77849857D01*
X97746053Y-77772047D01*
X97671226Y-77750076D01*
X97616473Y-77733999D01*
X97616470Y-77733998D01*
X97607961Y-77731500D01*
X97464039Y-77731500D01*
X97455530Y-77733998D01*
X97455526Y-77733999D01*
X97334461Y-77769547D01*
X97325947Y-77772047D01*
X97318484Y-77776842D01*
X97318484Y-77776843D01*
X97212329Y-77845064D01*
X97212325Y-77845066D01*
X97204872Y-77849857D01*
X97199070Y-77856551D01*
X97199065Y-77856557D01*
X97116431Y-77951923D01*
X97116428Y-77951927D01*
X97110623Y-77958627D01*
X97106941Y-77966689D01*
X97106938Y-77966694D01*
X97054520Y-78081473D01*
X97050835Y-78089543D01*
X97049573Y-78098316D01*
X97049572Y-78098322D01*
X97035638Y-78195242D01*
X97030353Y-78232000D01*
X97031615Y-78240777D01*
X97049572Y-78365677D01*
X97049573Y-78365681D01*
X97050835Y-78374457D01*
X97054519Y-78382525D01*
X97054520Y-78382526D01*
X97106939Y-78497308D01*
X97106941Y-78497312D01*
X97110623Y-78505373D01*
X97115925Y-78511492D01*
X97135500Y-78578158D01*
X97135500Y-79184567D01*
X97135500Y-79311433D01*
X97138515Y-79320714D01*
X97138516Y-79320717D01*
X97142346Y-79332506D01*
X97146887Y-79351418D01*
X97150354Y-79373304D01*
X97154783Y-79381996D01*
X97154784Y-79381999D01*
X97160412Y-79393044D01*
X97167857Y-79411019D01*
X97174704Y-79432090D01*
X97180436Y-79439980D01*
X97180440Y-79439987D01*
X97187726Y-79450015D01*
X97197889Y-79466598D01*
X97202250Y-79475157D01*
X97207950Y-79486342D01*
X97230513Y-79508905D01*
X97230516Y-79508909D01*
X98440180Y-80718572D01*
X98529888Y-80808280D01*
X98549627Y-80818337D01*
X98566220Y-80828505D01*
X98584140Y-80841526D01*
X98605213Y-80848372D01*
X98623176Y-80855813D01*
X98642926Y-80865876D01*
X98664809Y-80869341D01*
X98683725Y-80873882D01*
X98704797Y-80880729D01*
X98736699Y-80880729D01*
X98736707Y-80880729D01*
X98736711Y-80880730D01*
X102183452Y-80880730D01*
X102230905Y-80890169D01*
X102271133Y-80917049D01*
X102795102Y-81441018D01*
X102850298Y-81482176D01*
X102960936Y-81520159D01*
X103067635Y-81520159D01*
X103077912Y-81520159D01*
X103188550Y-81482176D01*
X103243747Y-81441018D01*
X103502915Y-81181850D01*
X103544073Y-81126653D01*
X103582056Y-81016015D01*
X103582056Y-80899039D01*
X103544073Y-80788401D01*
X103502915Y-80733205D01*
X102289152Y-79519442D01*
X102281362Y-79513633D01*
X102241677Y-79484041D01*
X102241675Y-79484040D01*
X102233956Y-79478284D01*
X102199917Y-79466598D01*
X102133037Y-79443637D01*
X102133033Y-79443636D01*
X102123318Y-79440301D01*
X102006342Y-79440301D01*
X101996627Y-79443636D01*
X101996622Y-79443637D01*
X101904808Y-79475158D01*
X101904805Y-79475159D01*
X101895704Y-79478284D01*
X101887990Y-79484035D01*
X101887986Y-79484038D01*
X101844098Y-79516763D01*
X101844086Y-79516772D01*
X101840507Y-79519442D01*
X101837344Y-79522604D01*
X101837337Y-79522611D01*
X101584508Y-79775440D01*
X101584501Y-79775447D01*
X101581339Y-79778610D01*
X101578669Y-79782189D01*
X101578660Y-79782201D01*
X101545935Y-79826089D01*
X101545932Y-79826093D01*
X101540181Y-79833807D01*
X101537056Y-79842908D01*
X101537055Y-79842911D01*
X101505534Y-79934725D01*
X101505533Y-79934730D01*
X101502198Y-79944445D01*
X101502198Y-79954722D01*
X101502198Y-79955730D01*
X101501751Y-79957394D01*
X101500507Y-79964855D01*
X101499785Y-79964734D01*
X101485585Y-80017730D01*
X101440198Y-80063117D01*
X101378198Y-80079730D01*
X100417328Y-80079730D01*
X100357901Y-80064562D01*
X100313012Y-80022769D01*
X100293644Y-79964576D01*
X100302502Y-79915479D01*
X100300982Y-79915033D01*
X100303479Y-79906526D01*
X100307165Y-79898457D01*
X100327647Y-79756000D01*
X100309783Y-79631751D01*
X100317406Y-79568011D01*
X100355882Y-79516624D01*
X100402587Y-79496633D01*
X100401961Y-79494500D01*
X100540053Y-79453953D01*
X100661128Y-79376143D01*
X100755377Y-79267373D01*
X100815165Y-79136457D01*
X100835647Y-78994000D01*
X100815165Y-78851543D01*
X100761794Y-78734678D01*
X100750623Y-78686117D01*
X100759470Y-78637080D01*
X100786905Y-78595487D01*
X101910305Y-77472086D01*
X101969467Y-77439093D01*
X102037143Y-77442114D01*
X102093131Y-77480252D01*
X102120722Y-77542121D01*
X102129572Y-77603678D01*
X102129573Y-77603683D01*
X102130835Y-77612457D01*
X102134519Y-77620525D01*
X102134520Y-77620526D01*
X102185200Y-77731500D01*
X102190623Y-77743373D01*
X102196430Y-77750075D01*
X102196431Y-77750076D01*
X102284872Y-77852143D01*
X102283029Y-77853739D01*
X102304274Y-77882083D01*
X102315500Y-77933640D01*
X102315500Y-78706196D01*
X102315251Y-78709776D01*
X102313227Y-78715817D01*
X102313757Y-78727291D01*
X102313757Y-78727295D01*
X102315368Y-78762132D01*
X102315500Y-78767858D01*
X102315500Y-78785896D01*
X102316552Y-78791523D01*
X102316635Y-78792420D01*
X102317031Y-78798124D01*
X102317884Y-78816568D01*
X102318415Y-78828044D01*
X102323054Y-78838551D01*
X102324792Y-78845940D01*
X102326082Y-78850104D01*
X102328827Y-78857189D01*
X102330939Y-78868485D01*
X102345001Y-78891198D01*
X102353003Y-78906379D01*
X102359152Y-78920306D01*
X102359153Y-78920308D01*
X102363794Y-78930817D01*
X102371917Y-78938940D01*
X102378412Y-78948421D01*
X102376799Y-78949525D01*
X102398288Y-78984754D01*
X102402315Y-79040323D01*
X102400223Y-79046419D01*
X102400223Y-79163395D01*
X102403558Y-79173110D01*
X102403559Y-79173114D01*
X102416115Y-79209686D01*
X102438206Y-79274033D01*
X102479364Y-79329229D01*
X103693127Y-80542992D01*
X103748323Y-80584150D01*
X103858961Y-80622133D01*
X103869238Y-80622133D01*
X103879371Y-80623824D01*
X103879096Y-80625468D01*
X103909779Y-80631572D01*
X103950007Y-80658452D01*
X104143810Y-80852255D01*
X104173297Y-80899343D01*
X104179261Y-80954581D01*
X104161239Y-81004833D01*
X104158997Y-81007540D01*
X104155730Y-81014323D01*
X104155726Y-81014330D01*
X104104105Y-81121522D01*
X104104102Y-81121529D01*
X104100074Y-81129895D01*
X104079833Y-81264182D01*
X104100074Y-81398470D01*
X104104103Y-81406837D01*
X104104105Y-81406842D01*
X104141890Y-81485302D01*
X104158997Y-81520825D01*
X104163808Y-81526632D01*
X104163809Y-81526633D01*
X104176654Y-81542137D01*
X104176659Y-81542143D01*
X104178498Y-81544362D01*
X104891638Y-82257502D01*
X104915175Y-82277003D01*
X104961801Y-82299457D01*
X105011716Y-82323495D01*
X105037530Y-82335926D01*
X105171818Y-82356167D01*
X105306105Y-82335926D01*
X105381835Y-82299456D01*
X105430997Y-82287263D01*
X105480937Y-82295747D01*
X105523316Y-82323495D01*
X105586576Y-82386755D01*
X105613456Y-82426983D01*
X105622682Y-82473368D01*
X105621510Y-82481150D01*
X105641751Y-82615437D01*
X105645780Y-82623804D01*
X105645782Y-82623809D01*
X105697398Y-82730990D01*
X105700674Y-82737792D01*
X105720175Y-82761330D01*
X106468670Y-83509825D01*
X106492208Y-83529326D01*
X106614563Y-83588249D01*
X106748850Y-83608490D01*
X106883138Y-83588249D01*
X107005492Y-83529326D01*
X107029030Y-83509825D01*
X107583071Y-82955784D01*
X107602572Y-82932246D01*
X107661495Y-82809892D01*
X107681736Y-82675604D01*
X107661495Y-82541317D01*
X107602572Y-82418962D01*
X107583071Y-82395424D01*
X106834576Y-81646929D01*
X106832346Y-81645081D01*
X106832340Y-81645076D01*
X106816852Y-81632245D01*
X106811038Y-81627428D01*
X106804238Y-81624153D01*
X106804236Y-81624152D01*
X106697055Y-81572536D01*
X106697050Y-81572534D01*
X106688683Y-81568505D01*
X106554396Y-81548264D01*
X106545207Y-81549649D01*
X106429296Y-81567120D01*
X106429295Y-81567120D01*
X106420108Y-81568505D01*
X106411742Y-81572533D01*
X106411735Y-81572536D01*
X106304550Y-81624154D01*
X106304542Y-81624158D01*
X106297754Y-81627428D01*
X106294861Y-81629824D01*
X106243699Y-81647994D01*
X106187769Y-81641425D01*
X106140512Y-81610798D01*
X106111674Y-81562427D01*
X106107204Y-81506293D01*
X106122381Y-81405604D01*
X106102140Y-81271316D01*
X106043217Y-81148961D01*
X106031128Y-81134370D01*
X106025559Y-81127648D01*
X106025555Y-81127643D01*
X106023716Y-81125424D01*
X105310576Y-80412284D01*
X105308357Y-80410445D01*
X105308351Y-80410440D01*
X105292847Y-80397595D01*
X105292846Y-80397594D01*
X105287039Y-80392783D01*
X105280242Y-80389510D01*
X105280241Y-80389509D01*
X105173056Y-80337891D01*
X105173051Y-80337889D01*
X105164684Y-80333860D01*
X105030396Y-80313619D01*
X105021207Y-80315004D01*
X104905294Y-80332475D01*
X104905290Y-80332476D01*
X104896109Y-80333860D01*
X104887740Y-80337890D01*
X104887734Y-80337892D01*
X104882289Y-80340514D01*
X104833126Y-80352704D01*
X104783190Y-80344218D01*
X104740813Y-80316472D01*
X104516400Y-80092059D01*
X104489520Y-80051831D01*
X104483416Y-80021148D01*
X104481772Y-80021423D01*
X104480081Y-80011290D01*
X104480081Y-80001013D01*
X104442098Y-79890375D01*
X104400940Y-79835179D01*
X103187177Y-78621416D01*
X103131981Y-78580258D01*
X103090744Y-78566101D01*
X103031062Y-78545611D01*
X103031058Y-78545610D01*
X103021343Y-78542275D01*
X103016525Y-78542275D01*
X102967063Y-78521387D01*
X102929861Y-78477462D01*
X102916500Y-78421472D01*
X102916500Y-78102312D01*
X102933768Y-78039191D01*
X102980762Y-77993650D01*
X103044394Y-77978373D01*
X103106942Y-77997615D01*
X103142102Y-78036255D01*
X103143705Y-78035092D01*
X103156726Y-78053015D01*
X103166889Y-78069598D01*
X103171992Y-78079613D01*
X103176950Y-78089342D01*
X103183850Y-78096242D01*
X103199513Y-78111905D01*
X103199516Y-78111909D01*
X103261930Y-78174323D01*
X103288810Y-78214551D01*
X103294913Y-78245233D01*
X103296558Y-78244959D01*
X103298249Y-78255094D01*
X103298249Y-78265369D01*
X103301584Y-78275084D01*
X103301585Y-78275088D01*
X103319005Y-78325829D01*
X103336232Y-78376007D01*
X103341988Y-78383726D01*
X103341989Y-78383728D01*
X103355171Y-78401406D01*
X103377390Y-78431203D01*
X104591153Y-79644966D01*
X104646349Y-79686124D01*
X104756987Y-79724107D01*
X104863686Y-79724107D01*
X104873963Y-79724107D01*
X104984601Y-79686124D01*
X105039798Y-79644966D01*
X105298966Y-79385798D01*
X105340124Y-79330601D01*
X105378107Y-79219963D01*
X105378107Y-79102987D01*
X105340124Y-78992349D01*
X105298966Y-78937153D01*
X104085203Y-77723390D01*
X104038708Y-77688720D01*
X104037728Y-77687989D01*
X104037726Y-77687988D01*
X104030007Y-77682232D01*
X103989235Y-77668234D01*
X103945517Y-77642183D01*
X103915944Y-77600764D01*
X103905500Y-77550954D01*
X103905500Y-77367344D01*
X104196275Y-77367344D01*
X104199610Y-77377059D01*
X104199611Y-77377063D01*
X104220907Y-77439093D01*
X104234258Y-77477982D01*
X104240014Y-77485701D01*
X104240015Y-77485703D01*
X104259746Y-77512163D01*
X104275416Y-77533178D01*
X105489179Y-78746941D01*
X105492780Y-78749626D01*
X105533733Y-78780164D01*
X105544375Y-78788099D01*
X105655013Y-78826082D01*
X105761712Y-78826082D01*
X105771989Y-78826082D01*
X105882627Y-78788099D01*
X105937824Y-78746941D01*
X106196992Y-78487773D01*
X106238150Y-78432576D01*
X106276133Y-78321938D01*
X106276133Y-78204962D01*
X106238150Y-78094324D01*
X106227951Y-78080647D01*
X106199677Y-78042729D01*
X106196992Y-78039128D01*
X104983229Y-76825365D01*
X104976080Y-76820034D01*
X104935754Y-76789964D01*
X104935752Y-76789963D01*
X104928033Y-76784207D01*
X104896490Y-76773378D01*
X104827114Y-76749560D01*
X104827110Y-76749559D01*
X104817395Y-76746224D01*
X104700419Y-76746224D01*
X104690704Y-76749559D01*
X104690699Y-76749560D01*
X104598885Y-76781081D01*
X104598882Y-76781082D01*
X104589781Y-76784207D01*
X104582067Y-76789958D01*
X104582063Y-76789961D01*
X104538175Y-76822686D01*
X104538163Y-76822695D01*
X104534584Y-76825365D01*
X104531421Y-76828527D01*
X104531414Y-76828534D01*
X104278585Y-77081363D01*
X104278578Y-77081370D01*
X104275416Y-77084533D01*
X104272746Y-77088112D01*
X104272737Y-77088124D01*
X104240012Y-77132012D01*
X104240009Y-77132016D01*
X104234258Y-77139730D01*
X104231133Y-77148831D01*
X104231132Y-77148834D01*
X104199611Y-77240648D01*
X104199610Y-77240653D01*
X104196275Y-77250368D01*
X104196275Y-77367344D01*
X103905500Y-77367344D01*
X103905500Y-76290255D01*
X103914939Y-76242802D01*
X103941819Y-76202574D01*
X104188348Y-75956045D01*
X104434993Y-75709399D01*
X104487735Y-75678106D01*
X104604053Y-75643953D01*
X104725128Y-75566143D01*
X104819377Y-75457373D01*
X104879165Y-75326457D01*
X104879979Y-75326829D01*
X104908503Y-75279713D01*
X104963940Y-75248795D01*
X105027413Y-75249360D01*
X105082290Y-75281261D01*
X105285669Y-75484640D01*
X105288030Y-75487353D01*
X105290870Y-75493056D01*
X105299358Y-75500794D01*
X105299359Y-75500795D01*
X105325145Y-75524302D01*
X105329286Y-75528257D01*
X105342031Y-75541002D01*
X105346758Y-75544240D01*
X105347449Y-75544814D01*
X105351756Y-75548561D01*
X105373895Y-75568744D01*
X105384610Y-75572895D01*
X105391074Y-75576897D01*
X105394902Y-75578915D01*
X105401867Y-75581990D01*
X105411347Y-75588484D01*
X105422534Y-75591115D01*
X105437334Y-75594596D01*
X105453740Y-75599676D01*
X105467936Y-75605176D01*
X105467939Y-75605176D01*
X105478655Y-75609328D01*
X105490148Y-75609328D01*
X105497622Y-75610725D01*
X105501922Y-75611224D01*
X105509520Y-75611575D01*
X105520709Y-75614207D01*
X105547160Y-75610517D01*
X105564293Y-75609328D01*
X110301226Y-75609328D01*
X110304806Y-75609576D01*
X110310847Y-75611601D01*
X110357161Y-75609460D01*
X110362888Y-75609328D01*
X110375193Y-75609328D01*
X110380926Y-75609328D01*
X110386560Y-75608273D01*
X110387433Y-75608193D01*
X110393154Y-75607795D01*
X110423074Y-75606413D01*
X110433588Y-75601769D01*
X110440990Y-75600029D01*
X110445120Y-75598750D01*
X110452217Y-75596000D01*
X110463515Y-75593889D01*
X110486226Y-75579826D01*
X110501401Y-75571827D01*
X110525847Y-75561034D01*
X110533974Y-75552905D01*
X110540257Y-75548602D01*
X110543637Y-75545924D01*
X110549258Y-75540798D01*
X110559034Y-75534747D01*
X110575135Y-75513423D01*
X110586396Y-75500483D01*
X111896600Y-74190279D01*
X111899299Y-74187931D01*
X111905005Y-74185091D01*
X111936264Y-74150800D01*
X111940179Y-74146700D01*
X111952951Y-74133930D01*
X111956199Y-74129187D01*
X111956742Y-74128534D01*
X111960510Y-74124205D01*
X111964386Y-74119953D01*
X111980693Y-74102066D01*
X111984845Y-74091345D01*
X111988860Y-74084862D01*
X111990858Y-74081073D01*
X111993939Y-74074094D01*
X112000434Y-74064614D01*
X112006549Y-74038614D01*
X112011631Y-74022204D01*
X112021277Y-73997306D01*
X112021277Y-73985813D01*
X112022672Y-73978351D01*
X112023173Y-73974037D01*
X112023524Y-73966441D01*
X112026156Y-73955252D01*
X112022466Y-73928800D01*
X112021277Y-73911668D01*
X112021277Y-72985596D01*
X112030716Y-72938143D01*
X112057596Y-72897915D01*
X112263112Y-72692399D01*
X112474542Y-72480969D01*
X112493225Y-72453007D01*
X112530541Y-72416788D01*
X112579431Y-72399055D01*
X112614570Y-72401681D01*
X112614894Y-72399432D01*
X112748431Y-72418631D01*
X112765987Y-72418631D01*
X112890745Y-72400694D01*
X112907591Y-72395747D01*
X113023252Y-72342926D01*
X113036347Y-72334837D01*
X113074363Y-72304202D01*
X113079289Y-72299777D01*
X113601854Y-71777212D01*
X113606279Y-71772286D01*
X113636914Y-71734270D01*
X113645003Y-71721175D01*
X113697824Y-71605514D01*
X113702771Y-71588668D01*
X113720708Y-71463910D01*
X113720708Y-71446354D01*
X113706649Y-71348574D01*
X113701965Y-71336873D01*
X113689714Y-71333901D01*
X112259978Y-71333901D01*
X112197978Y-71317288D01*
X112152591Y-71271901D01*
X112135978Y-71209901D01*
X112135978Y-69780165D01*
X112133005Y-69767913D01*
X112121304Y-69763229D01*
X112023525Y-69749171D01*
X112005969Y-69749171D01*
X111881210Y-69767107D01*
X111864364Y-69772054D01*
X111748703Y-69824875D01*
X111735608Y-69832964D01*
X111697592Y-69863599D01*
X111692666Y-69868024D01*
X111170101Y-70390589D01*
X111165676Y-70395515D01*
X111135041Y-70433531D01*
X111126952Y-70446626D01*
X111074131Y-70562287D01*
X111069184Y-70579133D01*
X111051248Y-70703892D01*
X111051248Y-70721448D01*
X111070447Y-70854985D01*
X111068208Y-70855306D01*
X111070812Y-70890527D01*
X111053070Y-70939369D01*
X111016873Y-70976653D01*
X110993976Y-70991953D01*
X110993971Y-70991956D01*
X110988911Y-70995338D01*
X110984608Y-70999640D01*
X110984603Y-70999645D01*
X110505671Y-71478577D01*
X110505666Y-71478582D01*
X110501364Y-71482885D01*
X110497981Y-71487946D01*
X110497980Y-71487949D01*
X110475020Y-71522310D01*
X110475018Y-71522312D01*
X110468236Y-71532464D01*
X110465853Y-71544439D01*
X110465853Y-71544442D01*
X110457057Y-71588668D01*
X110452675Y-71610696D01*
X110455058Y-71622676D01*
X110464423Y-71669761D01*
X110468236Y-71688927D01*
X110475019Y-71699079D01*
X110479211Y-71709199D01*
X110488267Y-71766380D01*
X110470376Y-71821439D01*
X110429439Y-71862376D01*
X110374380Y-71880267D01*
X110317199Y-71871211D01*
X110307079Y-71867019D01*
X110296927Y-71860236D01*
X110284949Y-71857853D01*
X110284948Y-71857853D01*
X110230676Y-71847058D01*
X110218696Y-71844675D01*
X110206716Y-71847058D01*
X110152442Y-71857853D01*
X110152439Y-71857853D01*
X110140464Y-71860236D01*
X110130312Y-71867018D01*
X110130310Y-71867020D01*
X110095949Y-71889980D01*
X110090885Y-71893364D01*
X110086582Y-71897666D01*
X110086577Y-71897671D01*
X109607645Y-72376603D01*
X109607640Y-72376608D01*
X109603338Y-72380911D01*
X109599955Y-72385972D01*
X109599954Y-72385975D01*
X109576994Y-72420336D01*
X109576992Y-72420338D01*
X109570210Y-72430490D01*
X109554649Y-72508722D01*
X109570210Y-72586953D01*
X109576994Y-72597106D01*
X109581185Y-72607225D01*
X109590240Y-72664406D01*
X109572348Y-72719465D01*
X109531411Y-72760402D01*
X109476351Y-72778292D01*
X109419171Y-72769236D01*
X109409055Y-72765045D01*
X109398901Y-72758261D01*
X109386923Y-72755878D01*
X109386920Y-72755877D01*
X109332650Y-72745083D01*
X109320670Y-72742700D01*
X109308690Y-72745083D01*
X109254416Y-72755878D01*
X109254413Y-72755878D01*
X109242438Y-72758261D01*
X109232286Y-72765043D01*
X109232284Y-72765045D01*
X109197923Y-72788005D01*
X109192859Y-72791389D01*
X109188556Y-72795691D01*
X109188551Y-72795696D01*
X108709619Y-73274628D01*
X108709614Y-73274633D01*
X108705312Y-73278936D01*
X108701929Y-73283997D01*
X108701928Y-73284000D01*
X108678968Y-73318361D01*
X108678966Y-73318363D01*
X108672184Y-73328515D01*
X108669801Y-73340490D01*
X108669801Y-73340493D01*
X108661535Y-73382052D01*
X108656623Y-73406747D01*
X108672184Y-73484978D01*
X108678968Y-73495131D01*
X108678969Y-73495133D01*
X108691841Y-73514397D01*
X108712590Y-73577203D01*
X108698097Y-73641741D01*
X108652488Y-73689646D01*
X108588739Y-73707288D01*
X106889276Y-73707288D01*
X106832981Y-73693773D01*
X106788958Y-73656173D01*
X106766803Y-73602686D01*
X106771345Y-73544970D01*
X106801595Y-73495607D01*
X107027579Y-73269621D01*
X107031810Y-73264937D01*
X107090752Y-73192582D01*
X107098067Y-73181283D01*
X107121913Y-73133800D01*
X107124327Y-73122525D01*
X107113169Y-73119623D01*
X105763623Y-73119623D01*
X105701623Y-73103010D01*
X105656236Y-73057623D01*
X105639623Y-72995623D01*
X105639623Y-72603297D01*
X106139623Y-72603297D01*
X106143073Y-72616172D01*
X106155949Y-72619623D01*
X107184681Y-72619623D01*
X107195560Y-72617127D01*
X107195479Y-72605965D01*
X107175380Y-72521161D01*
X107170472Y-72507678D01*
X107098069Y-72363511D01*
X107090751Y-72352206D01*
X107031820Y-72279864D01*
X107027575Y-72275163D01*
X106484076Y-71731666D01*
X106479392Y-71727435D01*
X106407039Y-71668494D01*
X106395732Y-71661175D01*
X106251567Y-71588773D01*
X106238084Y-71583865D01*
X106153280Y-71563766D01*
X106142118Y-71563685D01*
X106139623Y-71574565D01*
X106139623Y-72603297D01*
X105639623Y-72603297D01*
X105639623Y-71646077D01*
X105636720Y-71634918D01*
X105625445Y-71637332D01*
X105571913Y-71664217D01*
X105570923Y-71662246D01*
X105521280Y-71678408D01*
X105458994Y-71665522D01*
X105411291Y-71623450D01*
X105390722Y-71563262D01*
X105402699Y-71500796D01*
X105432249Y-71439437D01*
X105452490Y-71305150D01*
X105432249Y-71170862D01*
X105419506Y-71144402D01*
X105395210Y-71093950D01*
X105373326Y-71048508D01*
X105353825Y-71024970D01*
X104859195Y-70530340D01*
X104832316Y-70490113D01*
X104822877Y-70442660D01*
X104822877Y-69768731D01*
X104835665Y-69713887D01*
X104871391Y-69670355D01*
X104922686Y-69647114D01*
X104938104Y-69644047D01*
X104979485Y-69635816D01*
X105029064Y-69602688D01*
X105246009Y-69385742D01*
X105286238Y-69358862D01*
X105333691Y-69349423D01*
X106618754Y-69349423D01*
X106628510Y-69349423D01*
X106649572Y-69342579D01*
X106668500Y-69338034D01*
X106690381Y-69334569D01*
X106710122Y-69324509D01*
X106728091Y-69317066D01*
X106749167Y-69310219D01*
X106767093Y-69297194D01*
X106783679Y-69287030D01*
X106803419Y-69276973D01*
X106825982Y-69254409D01*
X106825986Y-69254407D01*
X107591819Y-68488574D01*
X107641182Y-68458324D01*
X107698898Y-68453782D01*
X107752385Y-68475937D01*
X107789985Y-68519960D01*
X107803500Y-68576255D01*
X107803500Y-70773842D01*
X107783925Y-70840507D01*
X107778623Y-70846627D01*
X107774943Y-70854684D01*
X107774939Y-70854691D01*
X107725837Y-70962210D01*
X107718835Y-70977543D01*
X107717573Y-70986316D01*
X107717572Y-70986322D01*
X107702098Y-71093950D01*
X107698353Y-71120000D01*
X107701138Y-71139373D01*
X107717572Y-71253677D01*
X107717573Y-71253681D01*
X107718835Y-71262457D01*
X107722519Y-71270525D01*
X107722520Y-71270526D01*
X107766943Y-71367799D01*
X107778623Y-71393373D01*
X107784430Y-71400075D01*
X107784431Y-71400076D01*
X107867065Y-71495442D01*
X107867067Y-71495444D01*
X107872872Y-71502143D01*
X107993947Y-71579953D01*
X108132039Y-71620500D01*
X108267090Y-71620500D01*
X108275961Y-71620500D01*
X108414053Y-71579953D01*
X108535128Y-71502143D01*
X108629377Y-71393373D01*
X108689165Y-71262457D01*
X108709647Y-71120000D01*
X108689165Y-70977543D01*
X108639564Y-70868933D01*
X108633060Y-70854691D01*
X108633059Y-70854689D01*
X108629377Y-70846627D01*
X108624074Y-70840507D01*
X108604500Y-70773842D01*
X108604500Y-68375783D01*
X108613939Y-68328330D01*
X108640819Y-68288102D01*
X109395620Y-67533301D01*
X111018523Y-67533301D01*
X111019120Y-67539363D01*
X111036856Y-67719448D01*
X111036857Y-67719454D01*
X111037454Y-67725513D01*
X111039221Y-67731338D01*
X111039222Y-67731343D01*
X111065834Y-67819070D01*
X111093520Y-67910338D01*
X111096390Y-67915707D01*
X111096392Y-67915712D01*
X111174586Y-68062000D01*
X111184567Y-68080673D01*
X111307094Y-68229974D01*
X111456395Y-68352501D01*
X111626730Y-68443548D01*
X111811555Y-68499614D01*
X112003767Y-68518545D01*
X112195979Y-68499614D01*
X112380804Y-68443548D01*
X112551139Y-68352501D01*
X112700440Y-68229974D01*
X112822967Y-68080673D01*
X112914014Y-67910338D01*
X112970080Y-67725513D01*
X112989011Y-67533301D01*
X112970080Y-67341089D01*
X112914014Y-67156264D01*
X112822967Y-66985929D01*
X112700440Y-66836628D01*
X112688542Y-66826864D01*
X112568197Y-66728100D01*
X112551139Y-66714101D01*
X112542215Y-66709331D01*
X112386178Y-66625926D01*
X112386173Y-66625924D01*
X112380804Y-66623054D01*
X112291774Y-66596047D01*
X112201809Y-66568756D01*
X112201804Y-66568755D01*
X112195979Y-66566988D01*
X112189920Y-66566391D01*
X112189914Y-66566390D01*
X112009829Y-66548654D01*
X112003767Y-66548057D01*
X111997705Y-66548654D01*
X111817619Y-66566390D01*
X111817611Y-66566391D01*
X111811555Y-66566988D01*
X111805731Y-66568754D01*
X111805724Y-66568756D01*
X111632561Y-66621285D01*
X111632559Y-66621285D01*
X111626730Y-66623054D01*
X111621363Y-66625922D01*
X111621355Y-66625926D01*
X111461765Y-66711230D01*
X111461760Y-66711233D01*
X111456395Y-66714101D01*
X111451691Y-66717960D01*
X111451687Y-66717964D01*
X111311800Y-66832765D01*
X111311794Y-66832770D01*
X111307094Y-66836628D01*
X111303236Y-66841328D01*
X111303231Y-66841334D01*
X111188430Y-66981221D01*
X111188426Y-66981225D01*
X111184567Y-66985929D01*
X111181699Y-66991294D01*
X111181696Y-66991299D01*
X111096392Y-67150889D01*
X111096388Y-67150897D01*
X111093520Y-67156264D01*
X111091751Y-67162093D01*
X111091751Y-67162095D01*
X111039222Y-67335258D01*
X111039220Y-67335265D01*
X111037454Y-67341089D01*
X111036857Y-67347145D01*
X111036856Y-67347153D01*
X111019120Y-67527239D01*
X111018523Y-67533301D01*
X109395620Y-67533301D01*
X110468125Y-66460796D01*
X112309251Y-64619670D01*
X112309253Y-64619666D01*
X112331817Y-64597103D01*
X112341874Y-64577363D01*
X112352038Y-64560777D01*
X112365063Y-64542851D01*
X112371910Y-64521775D01*
X112379353Y-64503806D01*
X112389413Y-64484065D01*
X112392878Y-64462184D01*
X112397423Y-64443257D01*
X112401250Y-64431479D01*
X112401249Y-64431479D01*
X112404267Y-64422194D01*
X112404267Y-64412430D01*
X112405781Y-64402871D01*
X112427936Y-64349383D01*
X112471960Y-64311782D01*
X112528255Y-64298267D01*
X114401803Y-64298267D01*
X114449256Y-64307706D01*
X114489484Y-64334586D01*
X115411490Y-65256592D01*
X115416557Y-65259978D01*
X115416560Y-65259980D01*
X115443484Y-65277970D01*
X115480951Y-65317323D01*
X115497996Y-65368918D01*
X115491344Y-65422846D01*
X115462274Y-65468753D01*
X115248187Y-65682840D01*
X115245471Y-65685203D01*
X115239772Y-65688042D01*
X115232039Y-65696523D01*
X115232034Y-65696528D01*
X115208521Y-65722320D01*
X115204575Y-65726452D01*
X115195877Y-65735151D01*
X115195873Y-65735155D01*
X115191826Y-65739203D01*
X115188592Y-65743921D01*
X115188006Y-65744628D01*
X115184259Y-65748934D01*
X115174543Y-65759593D01*
X115164084Y-65771067D01*
X115159935Y-65781773D01*
X115155956Y-65788201D01*
X115153895Y-65792112D01*
X115150834Y-65799043D01*
X115144344Y-65808519D01*
X115141714Y-65819696D01*
X115141711Y-65819705D01*
X115138228Y-65834516D01*
X115133150Y-65850915D01*
X115127651Y-65865109D01*
X115127650Y-65865114D01*
X115123500Y-65875827D01*
X115123500Y-65887317D01*
X115122103Y-65894791D01*
X115121603Y-65899094D01*
X115121251Y-65906697D01*
X115118621Y-65917881D01*
X115120208Y-65929258D01*
X115120208Y-65929262D01*
X115122311Y-65944333D01*
X115123500Y-65961465D01*
X115123500Y-68042167D01*
X115114061Y-68089620D01*
X115087181Y-68129848D01*
X113522847Y-69694181D01*
X113482619Y-69721061D01*
X113435166Y-69730500D01*
X113339039Y-69730500D01*
X113330530Y-69732998D01*
X113330526Y-69732999D01*
X113209461Y-69768547D01*
X113200947Y-69771047D01*
X113193484Y-69775842D01*
X113193484Y-69775843D01*
X113087329Y-69844064D01*
X113087325Y-69844066D01*
X113079872Y-69848857D01*
X113074070Y-69855551D01*
X113074065Y-69855557D01*
X112991431Y-69950923D01*
X112991428Y-69950927D01*
X112985623Y-69957627D01*
X112981941Y-69965689D01*
X112981938Y-69965694D01*
X112929520Y-70080473D01*
X112925835Y-70088543D01*
X112924573Y-70097314D01*
X112924572Y-70097321D01*
X112914768Y-70165513D01*
X112887177Y-70227383D01*
X112831189Y-70265520D01*
X112763513Y-70268541D01*
X112704349Y-70235546D01*
X112646355Y-70177552D01*
X112638208Y-70172560D01*
X112635978Y-70181851D01*
X112635978Y-70817575D01*
X112639428Y-70830450D01*
X112652304Y-70833901D01*
X113288028Y-70833901D01*
X113300206Y-70830977D01*
X113309704Y-70808048D01*
X113336583Y-70767819D01*
X113376812Y-70740939D01*
X113424265Y-70731500D01*
X113474090Y-70731500D01*
X113482961Y-70731500D01*
X113621053Y-70690953D01*
X113742128Y-70613143D01*
X113836377Y-70504373D01*
X113896165Y-70373457D01*
X113916647Y-70231000D01*
X113915340Y-70221912D01*
X113915385Y-70221413D01*
X113915385Y-70213352D01*
X113916106Y-70213352D01*
X113920419Y-70165102D01*
X113950393Y-70116576D01*
X115311818Y-68755152D01*
X115361182Y-68724902D01*
X115418898Y-68720360D01*
X115472385Y-68742515D01*
X115509985Y-68786538D01*
X115523500Y-68842833D01*
X115523500Y-70402360D01*
X115512274Y-70453917D01*
X115491029Y-70482260D01*
X115492872Y-70483857D01*
X115404431Y-70585923D01*
X115404428Y-70585927D01*
X115398623Y-70592627D01*
X115394941Y-70600689D01*
X115394938Y-70600694D01*
X115347809Y-70703892D01*
X115338835Y-70723543D01*
X115337573Y-70732316D01*
X115337572Y-70732322D01*
X115326685Y-70808048D01*
X115318353Y-70866000D01*
X115319615Y-70874777D01*
X115337572Y-70999677D01*
X115337573Y-70999681D01*
X115338835Y-71008457D01*
X115342519Y-71016525D01*
X115342520Y-71016526D01*
X115393854Y-71128932D01*
X115398623Y-71139373D01*
X115404430Y-71146075D01*
X115404431Y-71146076D01*
X115487065Y-71241442D01*
X115487067Y-71241444D01*
X115492872Y-71248143D01*
X115613947Y-71325953D01*
X115752039Y-71366500D01*
X115887090Y-71366500D01*
X115895961Y-71366500D01*
X116034053Y-71325953D01*
X116155128Y-71248143D01*
X116249377Y-71139373D01*
X116309165Y-71008457D01*
X116329647Y-70866000D01*
X116309165Y-70723543D01*
X116249377Y-70592627D01*
X116155128Y-70483857D01*
X116156970Y-70482260D01*
X116135726Y-70453917D01*
X116124500Y-70402360D01*
X116124500Y-66335673D01*
X116133939Y-66288220D01*
X116160819Y-66247992D01*
X116601015Y-65807796D01*
X116877966Y-65530845D01*
X119270843Y-65530845D01*
X119272886Y-65542167D01*
X119273743Y-65544043D01*
X119281832Y-65557138D01*
X119312467Y-65595154D01*
X119316892Y-65600080D01*
X120581919Y-66865107D01*
X120586845Y-66869532D01*
X120624861Y-66900167D01*
X120637956Y-66908256D01*
X120639832Y-66909113D01*
X120651154Y-66911156D01*
X120654000Y-66900010D01*
X121154000Y-66900010D01*
X121156845Y-66911156D01*
X121168167Y-66909113D01*
X121170043Y-66908256D01*
X121183138Y-66900167D01*
X121221154Y-66869532D01*
X121226080Y-66865107D01*
X122491107Y-65600080D01*
X122495532Y-65595154D01*
X122526167Y-65557138D01*
X122534256Y-65544043D01*
X122535113Y-65542167D01*
X122537156Y-65530845D01*
X122526010Y-65528000D01*
X121170326Y-65528000D01*
X121157450Y-65531450D01*
X121154000Y-65544326D01*
X121154000Y-66900010D01*
X120654000Y-66900010D01*
X120654000Y-65544326D01*
X120650549Y-65531450D01*
X120637674Y-65528000D01*
X119281990Y-65528000D01*
X119270843Y-65530845D01*
X116877966Y-65530845D01*
X117383656Y-65025154D01*
X119270843Y-65025154D01*
X119281990Y-65028000D01*
X120637674Y-65028000D01*
X120650549Y-65024549D01*
X120654000Y-65011674D01*
X121154000Y-65011674D01*
X121157450Y-65024549D01*
X121170326Y-65028000D01*
X122526010Y-65028000D01*
X122537156Y-65025154D01*
X122535113Y-65013832D01*
X122534256Y-65011956D01*
X122526167Y-64998861D01*
X122495532Y-64960845D01*
X122491107Y-64955919D01*
X121226080Y-63690892D01*
X121221154Y-63686467D01*
X121183138Y-63655832D01*
X121170043Y-63647743D01*
X121168167Y-63646886D01*
X121156845Y-63644843D01*
X121154000Y-63655990D01*
X121154000Y-65011674D01*
X120654000Y-65011674D01*
X120654000Y-63655990D01*
X120651154Y-63644843D01*
X120639832Y-63646886D01*
X120637956Y-63647743D01*
X120624861Y-63655832D01*
X120586845Y-63686467D01*
X120581919Y-63690892D01*
X119316892Y-64955919D01*
X119312467Y-64960845D01*
X119281832Y-64998861D01*
X119273743Y-65011956D01*
X119272886Y-65013832D01*
X119270843Y-65025154D01*
X117383656Y-65025154D01*
X117922451Y-64486358D01*
X117962676Y-64459481D01*
X118010129Y-64450042D01*
X118055490Y-64459065D01*
X118057116Y-64459934D01*
X118241941Y-64516000D01*
X118434153Y-64534931D01*
X118626365Y-64516000D01*
X118811190Y-64459934D01*
X118981525Y-64368887D01*
X119130826Y-64246360D01*
X119253353Y-64097059D01*
X119344400Y-63926724D01*
X119400466Y-63741899D01*
X119419397Y-63549687D01*
X119400466Y-63357475D01*
X119344400Y-63172650D01*
X119253353Y-63002315D01*
X119130826Y-62853014D01*
X118981525Y-62730487D01*
X118949713Y-62713483D01*
X118816564Y-62642312D01*
X118816559Y-62642310D01*
X118811190Y-62639440D01*
X118768391Y-62626457D01*
X118632195Y-62585142D01*
X118632190Y-62585141D01*
X118626365Y-62583374D01*
X118620304Y-62582777D01*
X118620299Y-62582776D01*
X118482387Y-62569193D01*
X118418252Y-62543545D01*
X118377789Y-62487564D01*
X118373554Y-62418621D01*
X118406858Y-62358111D01*
X120413999Y-60350972D01*
X120454228Y-60324092D01*
X120501681Y-60314653D01*
X120593827Y-60314653D01*
X120677844Y-60314653D01*
X120832189Y-60314653D01*
X120879642Y-60324092D01*
X120919870Y-60350972D01*
X121841876Y-61272978D01*
X121891456Y-61306106D01*
X121969687Y-61321667D01*
X122047918Y-61306106D01*
X122097498Y-61272978D01*
X123228512Y-60141964D01*
X123261640Y-60092384D01*
X123277201Y-60014153D01*
X123261640Y-59935922D01*
X123228512Y-59886342D01*
X122097498Y-58755328D01*
X122047918Y-58722200D01*
X121969687Y-58706639D01*
X121891456Y-58722200D01*
X121881302Y-58728984D01*
X121881301Y-58728985D01*
X121846944Y-58751941D01*
X121846939Y-58751944D01*
X121841876Y-58755328D01*
X121837568Y-58759635D01*
X121837563Y-58759640D01*
X120919870Y-59677334D01*
X120879642Y-59704214D01*
X120832189Y-59713653D01*
X120706173Y-59713653D01*
X120377711Y-59713653D01*
X120374125Y-59713404D01*
X120368083Y-59711379D01*
X120356608Y-59711909D01*
X120356605Y-59711909D01*
X120321756Y-59713521D01*
X120316029Y-59713653D01*
X118609986Y-59713653D01*
X118562533Y-59704214D01*
X118522305Y-59677334D01*
X117603060Y-58758089D01*
X117576179Y-58717858D01*
X117566741Y-58670403D01*
X117575765Y-58625045D01*
X117576633Y-58623423D01*
X117632699Y-58438598D01*
X117651630Y-58246386D01*
X117632699Y-58054174D01*
X117576633Y-57869349D01*
X117485586Y-57699014D01*
X117363059Y-57549713D01*
X117213758Y-57427186D01*
X117206600Y-57423360D01*
X117048797Y-57339011D01*
X117048792Y-57339009D01*
X117043423Y-57336139D01*
X116967243Y-57313030D01*
X116864428Y-57281841D01*
X116864423Y-57281840D01*
X116858598Y-57280073D01*
X116852539Y-57279476D01*
X116852533Y-57279475D01*
X116672448Y-57261739D01*
X116666386Y-57261142D01*
X116660324Y-57261739D01*
X116480238Y-57279475D01*
X116480230Y-57279476D01*
X116474174Y-57280073D01*
X116468350Y-57281839D01*
X116468343Y-57281841D01*
X116295180Y-57334370D01*
X116295178Y-57334370D01*
X116289349Y-57336139D01*
X116283982Y-57339007D01*
X116283974Y-57339011D01*
X116124384Y-57424315D01*
X116124379Y-57424318D01*
X116119014Y-57427186D01*
X116114310Y-57431045D01*
X116114306Y-57431049D01*
X115974419Y-57545850D01*
X115974413Y-57545855D01*
X115969713Y-57549713D01*
X115965855Y-57554413D01*
X115965850Y-57554419D01*
X115851049Y-57694306D01*
X115851045Y-57694310D01*
X115847186Y-57699014D01*
X115844318Y-57704379D01*
X115844315Y-57704384D01*
X115759011Y-57863974D01*
X115759007Y-57863982D01*
X115756139Y-57869349D01*
X115754370Y-57875178D01*
X115754370Y-57875180D01*
X115701841Y-58048343D01*
X115701839Y-58048350D01*
X115700073Y-58054174D01*
X115699476Y-58060230D01*
X115699475Y-58060238D01*
X115683810Y-58219293D01*
X115681142Y-58246386D01*
X115681739Y-58252448D01*
X115699475Y-58432533D01*
X115699476Y-58432539D01*
X115700073Y-58438598D01*
X115701840Y-58444423D01*
X115701841Y-58444428D01*
X115717975Y-58497614D01*
X115756139Y-58623423D01*
X115759009Y-58628792D01*
X115759011Y-58628797D01*
X115842917Y-58785771D01*
X115847186Y-58793758D01*
X115851049Y-58798465D01*
X115963509Y-58935500D01*
X115969713Y-58943059D01*
X116119014Y-59065586D01*
X116289349Y-59156633D01*
X116474174Y-59212699D01*
X116610137Y-59226090D01*
X116646830Y-59229704D01*
X116666386Y-59231630D01*
X116858598Y-59212699D01*
X117043423Y-59156633D01*
X117045045Y-59155765D01*
X117090403Y-59146741D01*
X117137858Y-59156179D01*
X117178089Y-59183060D01*
X118184994Y-60189965D01*
X118187355Y-60192678D01*
X118190195Y-60198381D01*
X118198683Y-60206119D01*
X118198684Y-60206120D01*
X118224470Y-60229627D01*
X118228611Y-60233582D01*
X118241356Y-60246327D01*
X118246083Y-60249565D01*
X118246774Y-60250139D01*
X118251081Y-60253886D01*
X118273220Y-60274069D01*
X118283935Y-60278220D01*
X118290399Y-60282222D01*
X118294227Y-60284240D01*
X118301192Y-60287315D01*
X118310672Y-60293809D01*
X118321859Y-60296440D01*
X118336659Y-60299921D01*
X118353065Y-60305001D01*
X118367261Y-60310501D01*
X118367264Y-60310501D01*
X118377980Y-60314653D01*
X118389473Y-60314653D01*
X118396947Y-60316050D01*
X118401247Y-60316549D01*
X118408845Y-60316900D01*
X118420034Y-60319532D01*
X118446485Y-60315842D01*
X118463618Y-60314653D01*
X119301014Y-60314653D01*
X119357309Y-60328168D01*
X119401332Y-60365768D01*
X119423487Y-60419255D01*
X119418945Y-60476971D01*
X119388695Y-60526334D01*
X116766575Y-63148452D01*
X116763859Y-63150815D01*
X116758160Y-63153654D01*
X116750427Y-63162135D01*
X116750422Y-63162140D01*
X116726909Y-63187932D01*
X116722963Y-63192064D01*
X116714265Y-63200763D01*
X116714261Y-63200767D01*
X116710214Y-63204815D01*
X116706980Y-63209533D01*
X116706394Y-63210240D01*
X116702647Y-63214546D01*
X116690210Y-63228190D01*
X116682472Y-63236679D01*
X116678323Y-63247385D01*
X116674344Y-63253813D01*
X116672283Y-63257724D01*
X116669222Y-63264655D01*
X116662732Y-63274131D01*
X116660102Y-63285308D01*
X116660099Y-63285317D01*
X116656616Y-63300128D01*
X116651538Y-63316527D01*
X116646039Y-63330721D01*
X116646038Y-63330726D01*
X116641888Y-63341439D01*
X116641888Y-63352929D01*
X116640491Y-63360403D01*
X116639991Y-63364706D01*
X116639639Y-63372309D01*
X116637009Y-63383493D01*
X116638596Y-63394871D01*
X116638596Y-63394878D01*
X116638637Y-63395168D01*
X116638545Y-63395993D01*
X116638066Y-63406353D01*
X116637394Y-63406321D01*
X116631859Y-63456021D01*
X116596788Y-63506213D01*
X116541977Y-63533504D01*
X116480789Y-63531240D01*
X116428144Y-63499974D01*
X115671424Y-62743254D01*
X115671424Y-62743253D01*
X115667112Y-62738942D01*
X115617532Y-62705814D01*
X115539301Y-62690253D01*
X115512108Y-62695662D01*
X115488902Y-62700278D01*
X115461070Y-62705814D01*
X115450916Y-62712598D01*
X115450915Y-62712599D01*
X115416558Y-62735555D01*
X115416553Y-62735558D01*
X115411490Y-62738942D01*
X115407182Y-62743249D01*
X115407177Y-62743254D01*
X114489484Y-63660948D01*
X114449256Y-63687828D01*
X114401803Y-63697267D01*
X112317721Y-63697267D01*
X112279402Y-63691198D01*
X112247162Y-63674770D01*
X112242109Y-63669717D01*
X112216950Y-63656898D01*
X112159587Y-63627670D01*
X112129071Y-63612121D01*
X112116496Y-63610129D01*
X112066702Y-63602242D01*
X112029806Y-63590253D01*
X111998421Y-63567450D01*
X111172674Y-62741703D01*
X111145793Y-62701472D01*
X111136355Y-62654017D01*
X111145379Y-62608659D01*
X111146247Y-62607037D01*
X111202313Y-62422212D01*
X111221244Y-62230000D01*
X111220130Y-62218694D01*
X111208151Y-62097064D01*
X111202313Y-62037788D01*
X111146247Y-61852963D01*
X111145378Y-61851337D01*
X111136355Y-61805976D01*
X111145794Y-61758523D01*
X111172671Y-61718298D01*
X111805925Y-61085044D01*
X111808624Y-61082696D01*
X111814330Y-61079856D01*
X111845589Y-61045565D01*
X111849504Y-61041465D01*
X111862276Y-61028695D01*
X111865524Y-61023952D01*
X111866067Y-61023299D01*
X111869835Y-61018970D01*
X111871363Y-61017294D01*
X111890018Y-60996831D01*
X111894170Y-60986110D01*
X111898185Y-60979627D01*
X111900183Y-60975838D01*
X111903264Y-60968859D01*
X111909759Y-60959379D01*
X111915874Y-60933379D01*
X111920956Y-60916969D01*
X111922899Y-60911953D01*
X111930602Y-60892071D01*
X111930602Y-60880578D01*
X111931997Y-60873116D01*
X111932498Y-60868802D01*
X111932849Y-60861206D01*
X111935481Y-60850017D01*
X111931791Y-60823565D01*
X111930602Y-60806433D01*
X111930602Y-58305864D01*
X111930850Y-58302278D01*
X111932876Y-58296236D01*
X111930734Y-58249900D01*
X111930602Y-58244174D01*
X111930602Y-58231894D01*
X111930602Y-58226156D01*
X111929547Y-58220512D01*
X111929469Y-58219671D01*
X111929072Y-58213951D01*
X111928218Y-58195485D01*
X111927688Y-58184009D01*
X111923045Y-58173496D01*
X111921306Y-58166100D01*
X111920028Y-58161974D01*
X111917274Y-58154866D01*
X111915163Y-58143567D01*
X111901104Y-58120861D01*
X111893096Y-58105668D01*
X111886950Y-58091748D01*
X111886949Y-58091747D01*
X111882308Y-58081235D01*
X111874180Y-58073107D01*
X111869885Y-58066837D01*
X111867185Y-58063429D01*
X111862070Y-58057818D01*
X111856021Y-58048048D01*
X111834704Y-58031950D01*
X111821750Y-58020677D01*
X111769400Y-57968327D01*
X111741028Y-57924324D01*
X111733347Y-57872533D01*
X111747725Y-57822189D01*
X111755334Y-57807954D01*
X111815402Y-57609934D01*
X111835685Y-57404000D01*
X111815402Y-57198066D01*
X111755334Y-57000046D01*
X111657787Y-56817550D01*
X111526512Y-56657590D01*
X111459993Y-56603000D01*
X111371259Y-56530178D01*
X111366552Y-56526315D01*
X111361181Y-56523444D01*
X111189430Y-56431640D01*
X111189425Y-56431638D01*
X111184056Y-56428768D01*
X111132784Y-56413215D01*
X110991866Y-56370468D01*
X110991861Y-56370467D01*
X110986036Y-56368700D01*
X110979977Y-56368103D01*
X110979971Y-56368102D01*
X110786163Y-56349014D01*
X110780102Y-56348417D01*
X110774041Y-56349014D01*
X110580232Y-56368102D01*
X110580224Y-56368103D01*
X110574168Y-56368700D01*
X110568344Y-56370466D01*
X110568337Y-56370468D01*
X110381979Y-56426999D01*
X110381977Y-56426999D01*
X110376148Y-56428768D01*
X110370781Y-56431636D01*
X110370773Y-56431640D01*
X110199022Y-56523444D01*
X110199017Y-56523447D01*
X110193652Y-56526315D01*
X110188948Y-56530174D01*
X110188944Y-56530178D01*
X110038398Y-56653727D01*
X110038392Y-56653732D01*
X110033692Y-56657590D01*
X110029834Y-56662290D01*
X110029829Y-56662296D01*
X109906280Y-56812842D01*
X109906276Y-56812846D01*
X109902417Y-56817550D01*
X109899549Y-56822915D01*
X109899546Y-56822920D01*
X109807742Y-56994671D01*
X109807738Y-56994679D01*
X109804870Y-57000046D01*
X109803101Y-57005875D01*
X109803101Y-57005877D01*
X109746570Y-57192235D01*
X109746568Y-57192242D01*
X109744802Y-57198066D01*
X109744205Y-57204124D01*
X109744204Y-57204131D01*
X109732073Y-57327302D01*
X109706425Y-57391437D01*
X109650444Y-57431900D01*
X109581501Y-57436135D01*
X109520989Y-57402829D01*
X109185576Y-57067416D01*
X109153482Y-57011829D01*
X109153482Y-56947641D01*
X109185574Y-56892056D01*
X110005896Y-56071735D01*
X112658252Y-56071735D01*
X112691417Y-56259828D01*
X112694212Y-56270258D01*
X112771300Y-56482056D01*
X112775857Y-56491829D01*
X112888554Y-56687027D01*
X112894735Y-56695854D01*
X113039625Y-56868528D01*
X113047238Y-56876141D01*
X113219912Y-57021031D01*
X113228739Y-57027212D01*
X113423937Y-57139909D01*
X113433710Y-57144466D01*
X113645507Y-57221554D01*
X113655937Y-57224349D01*
X113844031Y-57257514D01*
X113855024Y-57257034D01*
X113857406Y-57246291D01*
X113857406Y-57206520D01*
X114357406Y-57206520D01*
X114360116Y-57217598D01*
X114371454Y-57216356D01*
X114568969Y-57144466D01*
X114578742Y-57139909D01*
X114773938Y-57027213D01*
X114782772Y-57021027D01*
X114912188Y-56912435D01*
X114916163Y-56908792D01*
X115207837Y-56617118D01*
X115211480Y-56613143D01*
X115320072Y-56483727D01*
X115326258Y-56474893D01*
X115438953Y-56279698D01*
X115443513Y-56269920D01*
X115515400Y-56072410D01*
X115516642Y-56061071D01*
X115505564Y-56058361D01*
X114373732Y-56058361D01*
X114360856Y-56061811D01*
X114357406Y-56074687D01*
X114357406Y-57206520D01*
X113857406Y-57206520D01*
X113857406Y-56074687D01*
X113853955Y-56061811D01*
X113841080Y-56058361D01*
X112669476Y-56058361D01*
X112658732Y-56060742D01*
X112658252Y-56071735D01*
X110005896Y-56071735D01*
X110341871Y-55735760D01*
X110374999Y-55686180D01*
X110390560Y-55607949D01*
X110374999Y-55529718D01*
X110341871Y-55480138D01*
X109111862Y-54250129D01*
X109062282Y-54217001D01*
X108984051Y-54201440D01*
X108905820Y-54217001D01*
X108895666Y-54223785D01*
X108895665Y-54223786D01*
X108861308Y-54246742D01*
X108861303Y-54246745D01*
X108856240Y-54250129D01*
X108851932Y-54254436D01*
X108851927Y-54254441D01*
X107699945Y-55406423D01*
X107644358Y-55438517D01*
X107580170Y-55438517D01*
X107524583Y-55406423D01*
X106772576Y-54654416D01*
X106740482Y-54598829D01*
X106740482Y-54534641D01*
X106772576Y-54479054D01*
X106979872Y-54271758D01*
X107104970Y-54146660D01*
X110929456Y-54146660D01*
X110949697Y-54280947D01*
X110953726Y-54289314D01*
X110953728Y-54289319D01*
X110987385Y-54359207D01*
X111008620Y-54403302D01*
X111028121Y-54426840D01*
X111953393Y-55352112D01*
X111976931Y-55371613D01*
X111995562Y-55380585D01*
X112090136Y-55426130D01*
X112099286Y-55430536D01*
X112233573Y-55450777D01*
X112367860Y-55430536D01*
X112490215Y-55371613D01*
X112513753Y-55352112D01*
X112520131Y-55345733D01*
X112577811Y-55313094D01*
X112644065Y-55314825D01*
X112699964Y-55350434D01*
X112729538Y-55409746D01*
X112724339Y-55475819D01*
X112699410Y-55544310D01*
X112698168Y-55555650D01*
X112709247Y-55558361D01*
X113841080Y-55558361D01*
X113853955Y-55554910D01*
X113857406Y-55542035D01*
X114357406Y-55542035D01*
X114360856Y-55554910D01*
X114373732Y-55558361D01*
X115545336Y-55558361D01*
X115556079Y-55555979D01*
X115556559Y-55544986D01*
X115523394Y-55356893D01*
X115520599Y-55346463D01*
X115443511Y-55134665D01*
X115438954Y-55124892D01*
X115326257Y-54929694D01*
X115320076Y-54920867D01*
X115175186Y-54748193D01*
X115167573Y-54740580D01*
X114994899Y-54595690D01*
X114986072Y-54589509D01*
X114790874Y-54476812D01*
X114781101Y-54472255D01*
X114569304Y-54395167D01*
X114558874Y-54392372D01*
X114370780Y-54359207D01*
X114359787Y-54359687D01*
X114357406Y-54370431D01*
X114357406Y-55542035D01*
X113857406Y-55542035D01*
X113857406Y-54410203D01*
X113854695Y-54399124D01*
X113843356Y-54400366D01*
X113774862Y-54425296D01*
X113708789Y-54430495D01*
X113649477Y-54400921D01*
X113613868Y-54345022D01*
X113612137Y-54278768D01*
X113644776Y-54221088D01*
X113651157Y-54214708D01*
X113670658Y-54191170D01*
X113729581Y-54068815D01*
X113749822Y-53934528D01*
X113729581Y-53800241D01*
X113723273Y-53787143D01*
X113673933Y-53684687D01*
X113670658Y-53677886D01*
X113651157Y-53654348D01*
X112725885Y-52729076D01*
X112723655Y-52727228D01*
X112723649Y-52727223D01*
X112708161Y-52714392D01*
X112702347Y-52709575D01*
X112695547Y-52706300D01*
X112695545Y-52706299D01*
X112588364Y-52654683D01*
X112588359Y-52654681D01*
X112579992Y-52650652D01*
X112512848Y-52640531D01*
X112454894Y-52631796D01*
X112445705Y-52630411D01*
X112436516Y-52631796D01*
X112320606Y-52649267D01*
X112320605Y-52649267D01*
X112311418Y-52650652D01*
X112303052Y-52654680D01*
X112303045Y-52654683D01*
X112195864Y-52706299D01*
X112195858Y-52706302D01*
X112189063Y-52709575D01*
X112183251Y-52714389D01*
X112183248Y-52714392D01*
X112167760Y-52727223D01*
X112167743Y-52727237D01*
X112165525Y-52729076D01*
X112163481Y-52731119D01*
X112163470Y-52731130D01*
X111030175Y-53864425D01*
X111030164Y-53864436D01*
X111028121Y-53866480D01*
X111026282Y-53868698D01*
X111026268Y-53868715D01*
X111013437Y-53884203D01*
X111013434Y-53884206D01*
X111008620Y-53890018D01*
X111005347Y-53896813D01*
X111005344Y-53896819D01*
X110953728Y-54004000D01*
X110953725Y-54004007D01*
X110949697Y-54012373D01*
X110948312Y-54021560D01*
X110948312Y-54021561D01*
X110939928Y-54077187D01*
X110929456Y-54146660D01*
X107104970Y-54146660D01*
X107293871Y-53957760D01*
X107326999Y-53908180D01*
X107342560Y-53829949D01*
X107326999Y-53751718D01*
X107293871Y-53702138D01*
X106063862Y-52472129D01*
X106014282Y-52439001D01*
X105936051Y-52423440D01*
X105857820Y-52439001D01*
X105847666Y-52445785D01*
X105847665Y-52445786D01*
X105813308Y-52468742D01*
X105813303Y-52468745D01*
X105808240Y-52472129D01*
X105803932Y-52476436D01*
X105803927Y-52476441D01*
X104582543Y-53697825D01*
X104582538Y-53697830D01*
X104578231Y-53702138D01*
X104574847Y-53707201D01*
X104574844Y-53707206D01*
X104551888Y-53741563D01*
X104545103Y-53751718D01*
X104529542Y-53829949D01*
X104545103Y-53908180D01*
X104578231Y-53957760D01*
X105808240Y-55187769D01*
X105857820Y-55220897D01*
X105936051Y-55236458D01*
X106014282Y-55220897D01*
X106044756Y-55200534D01*
X106097462Y-55180697D01*
X106153506Y-55186216D01*
X106201329Y-55215955D01*
X107135333Y-56149959D01*
X107168639Y-56210471D01*
X107164404Y-56279414D01*
X107123941Y-56335395D01*
X107059807Y-56361043D01*
X106988130Y-56368102D01*
X106988122Y-56368103D01*
X106982066Y-56368700D01*
X106976242Y-56370466D01*
X106976235Y-56370468D01*
X106789877Y-56426999D01*
X106789875Y-56426999D01*
X106784046Y-56428768D01*
X106778679Y-56431636D01*
X106778671Y-56431640D01*
X106606920Y-56523444D01*
X106606915Y-56523447D01*
X106601550Y-56526315D01*
X106596846Y-56530174D01*
X106596842Y-56530178D01*
X106446296Y-56653727D01*
X106446290Y-56653732D01*
X106441590Y-56657590D01*
X106437732Y-56662290D01*
X106437727Y-56662296D01*
X106314178Y-56812842D01*
X106314174Y-56812846D01*
X106310315Y-56817550D01*
X106307447Y-56822915D01*
X106307444Y-56822920D01*
X106215640Y-56994671D01*
X106215636Y-56994679D01*
X106212768Y-57000046D01*
X106210999Y-57005875D01*
X106210999Y-57005877D01*
X106154468Y-57192235D01*
X106154466Y-57192242D01*
X106152700Y-57198066D01*
X106152103Y-57204122D01*
X106152102Y-57204130D01*
X106139971Y-57327302D01*
X106132417Y-57404000D01*
X106133098Y-57410911D01*
X106152102Y-57603869D01*
X106152103Y-57603875D01*
X106152700Y-57609934D01*
X106154467Y-57615759D01*
X106154468Y-57615764D01*
X106190366Y-57734103D01*
X106212768Y-57807954D01*
X106215638Y-57813323D01*
X106215640Y-57813328D01*
X106282818Y-57939007D01*
X106310315Y-57990450D01*
X106314178Y-57995157D01*
X106436713Y-58144468D01*
X106441590Y-58150410D01*
X106601550Y-58281685D01*
X106784046Y-58379232D01*
X106789883Y-58381002D01*
X106789884Y-58381003D01*
X106799492Y-58383918D01*
X106845257Y-58409350D01*
X106876447Y-58451402D01*
X106887500Y-58502579D01*
X106887500Y-58978490D01*
X106887251Y-58982070D01*
X106885227Y-58988111D01*
X106885757Y-58999585D01*
X106885757Y-58999589D01*
X106887368Y-59034426D01*
X106887500Y-59040152D01*
X106887500Y-59058190D01*
X106888552Y-59063817D01*
X106888635Y-59064714D01*
X106889031Y-59070418D01*
X106889884Y-59088862D01*
X106890415Y-59100338D01*
X106895054Y-59110846D01*
X106896791Y-59118228D01*
X106898082Y-59122398D01*
X106900827Y-59129483D01*
X106902939Y-59140779D01*
X106917001Y-59163492D01*
X106925003Y-59178673D01*
X106931152Y-59192600D01*
X106931153Y-59192602D01*
X106935794Y-59203111D01*
X106943917Y-59211234D01*
X106948209Y-59217499D01*
X106950915Y-59220915D01*
X106956031Y-59226527D01*
X106962081Y-59236298D01*
X106978639Y-59248802D01*
X106983396Y-59252394D01*
X106996351Y-59263668D01*
X107481159Y-59748477D01*
X107512139Y-59800163D01*
X107515095Y-59860349D01*
X107489331Y-59914823D01*
X107440931Y-59950719D01*
X107381324Y-59959561D01*
X107188000Y-59940520D01*
X107181939Y-59941117D01*
X106988130Y-59960205D01*
X106988122Y-59960206D01*
X106982066Y-59960803D01*
X106976242Y-59962569D01*
X106976235Y-59962571D01*
X106789877Y-60019102D01*
X106789875Y-60019102D01*
X106784046Y-60020871D01*
X106778679Y-60023739D01*
X106778671Y-60023743D01*
X106606920Y-60115547D01*
X106606915Y-60115550D01*
X106601550Y-60118418D01*
X106596848Y-60122276D01*
X106596837Y-60122284D01*
X106595532Y-60123356D01*
X106593575Y-60124464D01*
X106591777Y-60125666D01*
X106591688Y-60125533D01*
X106558643Y-60144252D01*
X106516871Y-60151500D01*
X106231838Y-60151500D01*
X106175543Y-60137985D01*
X106131520Y-60100385D01*
X106109365Y-60046898D01*
X106113907Y-59989182D01*
X106139508Y-59947404D01*
X106138359Y-59946461D01*
X106148230Y-59934433D01*
X106269634Y-59786501D01*
X106367181Y-59604005D01*
X106427249Y-59405985D01*
X106447532Y-59200051D01*
X106427249Y-58994117D01*
X106367181Y-58796097D01*
X106269634Y-58613601D01*
X106138359Y-58453641D01*
X106112018Y-58432024D01*
X105983106Y-58326229D01*
X105978399Y-58322366D01*
X105963569Y-58314439D01*
X105801277Y-58227691D01*
X105801272Y-58227689D01*
X105795903Y-58224819D01*
X105699201Y-58195485D01*
X105603713Y-58166519D01*
X105603708Y-58166518D01*
X105597883Y-58164751D01*
X105591824Y-58164154D01*
X105591818Y-58164153D01*
X105398010Y-58145065D01*
X105391949Y-58144468D01*
X105385888Y-58145065D01*
X105192079Y-58164153D01*
X105192071Y-58164154D01*
X105186015Y-58164751D01*
X105180191Y-58166517D01*
X105180184Y-58166519D01*
X104993826Y-58223050D01*
X104993824Y-58223050D01*
X104987995Y-58224819D01*
X104982628Y-58227687D01*
X104982620Y-58227691D01*
X104810869Y-58319495D01*
X104810864Y-58319498D01*
X104805499Y-58322366D01*
X104800795Y-58326225D01*
X104800791Y-58326229D01*
X104650245Y-58449778D01*
X104650239Y-58449783D01*
X104645539Y-58453641D01*
X104641681Y-58458341D01*
X104641676Y-58458347D01*
X104518127Y-58608893D01*
X104518123Y-58608897D01*
X104514264Y-58613601D01*
X104511396Y-58618966D01*
X104511393Y-58618971D01*
X104419589Y-58790722D01*
X104419585Y-58790730D01*
X104416717Y-58796097D01*
X104414948Y-58801926D01*
X104414948Y-58801928D01*
X104358417Y-58988286D01*
X104358415Y-58988293D01*
X104356649Y-58994117D01*
X104356052Y-59000173D01*
X104356051Y-59000181D01*
X104341553Y-59147385D01*
X104336366Y-59200051D01*
X104337579Y-59212369D01*
X104356051Y-59399920D01*
X104356052Y-59399926D01*
X104356649Y-59405985D01*
X104358417Y-59411813D01*
X104359340Y-59416453D01*
X104355653Y-59478962D01*
X104321893Y-59531700D01*
X104266669Y-59561217D01*
X104204063Y-59559987D01*
X104150041Y-59528324D01*
X103954619Y-59332902D01*
X103952261Y-59330192D01*
X103949422Y-59324490D01*
X103940930Y-59316748D01*
X103940929Y-59316747D01*
X103915145Y-59293242D01*
X103911003Y-59289286D01*
X103902316Y-59280599D01*
X103898261Y-59276544D01*
X103893530Y-59273302D01*
X103892850Y-59272738D01*
X103888531Y-59268980D01*
X103888468Y-59268923D01*
X103879992Y-59261195D01*
X103874887Y-59256541D01*
X103874885Y-59256539D01*
X103866397Y-59248802D01*
X103855684Y-59244651D01*
X103849244Y-59240664D01*
X103845366Y-59238620D01*
X103838422Y-59235553D01*
X103828945Y-59229062D01*
X103817766Y-59226432D01*
X103817758Y-59226429D01*
X103802948Y-59222946D01*
X103786550Y-59217868D01*
X103772355Y-59212369D01*
X103772349Y-59212367D01*
X103761637Y-59208218D01*
X103750146Y-59208218D01*
X103742672Y-59206821D01*
X103738369Y-59206321D01*
X103730766Y-59205969D01*
X103719583Y-59203339D01*
X103708205Y-59204926D01*
X103708201Y-59204926D01*
X103693131Y-59207029D01*
X103675999Y-59208218D01*
X103357138Y-59208218D01*
X103353557Y-59207969D01*
X103347517Y-59205945D01*
X103336041Y-59206475D01*
X103336038Y-59206475D01*
X103301202Y-59208086D01*
X103295476Y-59208218D01*
X103277438Y-59208218D01*
X103271812Y-59209269D01*
X103270921Y-59209352D01*
X103265214Y-59209749D01*
X103246763Y-59210602D01*
X103246759Y-59210602D01*
X103235290Y-59211133D01*
X103224784Y-59215771D01*
X103217421Y-59217503D01*
X103213199Y-59218810D01*
X103206134Y-59221546D01*
X103194849Y-59223657D01*
X103185085Y-59229701D01*
X103185080Y-59229704D01*
X103172140Y-59237716D01*
X103156959Y-59245718D01*
X103143028Y-59251869D01*
X103143021Y-59251873D01*
X103132517Y-59256512D01*
X103124395Y-59264632D01*
X103118133Y-59268923D01*
X103114704Y-59271639D01*
X103109095Y-59276751D01*
X103099330Y-59282799D01*
X103092406Y-59291966D01*
X103092404Y-59291969D01*
X103083231Y-59304116D01*
X103071961Y-59317066D01*
X103050290Y-59338737D01*
X102995415Y-59370638D01*
X102931943Y-59371204D01*
X102876507Y-59340288D01*
X102847979Y-59293171D01*
X102847165Y-59293543D01*
X102843974Y-59286555D01*
X102843972Y-59286552D01*
X102824053Y-59242937D01*
X102812982Y-59185663D01*
X102829324Y-59129663D01*
X102865679Y-59091323D01*
X102865326Y-59090890D01*
X102868688Y-59088150D01*
X102869465Y-59087332D01*
X102870578Y-59086611D01*
X102942928Y-59027673D01*
X102947611Y-59023444D01*
X103473440Y-58497614D01*
X103477671Y-58492930D01*
X103536614Y-58420574D01*
X103543928Y-58409274D01*
X103616333Y-58265104D01*
X103621240Y-58251621D01*
X103639244Y-58175657D01*
X103639325Y-58164495D01*
X103628446Y-58162000D01*
X101160531Y-58162000D01*
X101149372Y-58164902D01*
X101151786Y-58176177D01*
X101183110Y-58238549D01*
X101181132Y-58239542D01*
X101197298Y-58289143D01*
X101184426Y-58351440D01*
X101142358Y-58399158D01*
X101082164Y-58419736D01*
X101019688Y-58407760D01*
X100966703Y-58382243D01*
X100966698Y-58382241D01*
X100958331Y-58378212D01*
X100824044Y-58357971D01*
X100814855Y-58359356D01*
X100698944Y-58376827D01*
X100698943Y-58376827D01*
X100689756Y-58378212D01*
X100681390Y-58382240D01*
X100681383Y-58382243D01*
X100574201Y-58433860D01*
X100574199Y-58433861D01*
X100567401Y-58437135D01*
X100561595Y-58441944D01*
X100561588Y-58441950D01*
X100546092Y-58454790D01*
X100546080Y-58454800D01*
X100543864Y-58456637D01*
X100541824Y-58458676D01*
X100541813Y-58458687D01*
X100009551Y-58990949D01*
X100009540Y-58990960D01*
X100007501Y-58993000D01*
X100005664Y-58995216D01*
X100005654Y-58995228D01*
X99992814Y-59010724D01*
X99992808Y-59010731D01*
X99987999Y-59016537D01*
X99984725Y-59023335D01*
X99984724Y-59023337D01*
X99933107Y-59130519D01*
X99933104Y-59130526D01*
X99929076Y-59138892D01*
X99927691Y-59148079D01*
X99927691Y-59148080D01*
X99910749Y-59260481D01*
X99908835Y-59273180D01*
X99929076Y-59407467D01*
X99933105Y-59415834D01*
X99933107Y-59415839D01*
X99970424Y-59493327D01*
X99987999Y-59529822D01*
X99992811Y-59535630D01*
X99992814Y-59535634D01*
X99998790Y-59542846D01*
X100007501Y-59553359D01*
X100720641Y-60266499D01*
X100722869Y-60268345D01*
X100738365Y-60281185D01*
X100738367Y-60281186D01*
X100744178Y-60286001D01*
X100866533Y-60344924D01*
X101000820Y-60365165D01*
X101135108Y-60344924D01*
X101143483Y-60340891D01*
X101171814Y-60327248D01*
X101232568Y-60315163D01*
X101291587Y-60333974D01*
X101334143Y-60378987D01*
X101349615Y-60438968D01*
X101349615Y-60443223D01*
X101348353Y-60452000D01*
X101349615Y-60460777D01*
X101367572Y-60585677D01*
X101367573Y-60585681D01*
X101368835Y-60594457D01*
X101372519Y-60602525D01*
X101372520Y-60602526D01*
X101420468Y-60707518D01*
X101428623Y-60725373D01*
X101434430Y-60732075D01*
X101434431Y-60732076D01*
X101517065Y-60827442D01*
X101517067Y-60827444D01*
X101522872Y-60834143D01*
X101643947Y-60911953D01*
X101782039Y-60952500D01*
X101917090Y-60952500D01*
X101925961Y-60952500D01*
X102019911Y-60924913D01*
X102087649Y-60924309D01*
X102145599Y-60959395D01*
X102176461Y-61019699D01*
X102184529Y-61060261D01*
X102190252Y-61089031D01*
X102223380Y-61138611D01*
X102227692Y-61142922D01*
X102227692Y-61142923D01*
X103244381Y-62159612D01*
X103271261Y-62199840D01*
X103280700Y-62247293D01*
X103280700Y-62585290D01*
X103280451Y-62588870D01*
X103278427Y-62594911D01*
X103278957Y-62606385D01*
X103278957Y-62606389D01*
X103280568Y-62641226D01*
X103280700Y-62646952D01*
X103280700Y-62664990D01*
X103281752Y-62670617D01*
X103281835Y-62671514D01*
X103282231Y-62677218D01*
X103283084Y-62695662D01*
X103283615Y-62707138D01*
X103288254Y-62717645D01*
X103289992Y-62725034D01*
X103291282Y-62729198D01*
X103294027Y-62736283D01*
X103296139Y-62747579D01*
X103310201Y-62770292D01*
X103318203Y-62785473D01*
X103324352Y-62799400D01*
X103324353Y-62799402D01*
X103328994Y-62809911D01*
X103337117Y-62818034D01*
X103341409Y-62824299D01*
X103344115Y-62827715D01*
X103349231Y-62833327D01*
X103355281Y-62843098D01*
X103374232Y-62857409D01*
X103376596Y-62859194D01*
X103389551Y-62870468D01*
X103874359Y-63355276D01*
X103905339Y-63406962D01*
X103908295Y-63467148D01*
X103882531Y-63521622D01*
X103834131Y-63557518D01*
X103774524Y-63566360D01*
X103581200Y-63547319D01*
X103575139Y-63547916D01*
X103381330Y-63567004D01*
X103381322Y-63567005D01*
X103375266Y-63567602D01*
X103369442Y-63569368D01*
X103369435Y-63569370D01*
X103183077Y-63625901D01*
X103183075Y-63625901D01*
X103177246Y-63627670D01*
X103171879Y-63630538D01*
X103171871Y-63630542D01*
X103000120Y-63722346D01*
X103000115Y-63722349D01*
X102994750Y-63725217D01*
X102990046Y-63729076D01*
X102990042Y-63729080D01*
X102839496Y-63852629D01*
X102839490Y-63852634D01*
X102834790Y-63856492D01*
X102830932Y-63861192D01*
X102830927Y-63861198D01*
X102707378Y-64011744D01*
X102707374Y-64011748D01*
X102703515Y-64016452D01*
X102700647Y-64021817D01*
X102700644Y-64021822D01*
X102608840Y-64193573D01*
X102608836Y-64193581D01*
X102605968Y-64198948D01*
X102604199Y-64204777D01*
X102604199Y-64204779D01*
X102547668Y-64391137D01*
X102547666Y-64391144D01*
X102545900Y-64396968D01*
X102545303Y-64403026D01*
X102545302Y-64403033D01*
X102538243Y-64474709D01*
X102512595Y-64538844D01*
X102456614Y-64579307D01*
X102387671Y-64583542D01*
X102327159Y-64550236D01*
X102121968Y-64345045D01*
X102095088Y-64304817D01*
X102085649Y-64257364D01*
X102085649Y-63905430D01*
X102096702Y-63854253D01*
X102127892Y-63812201D01*
X102173657Y-63786769D01*
X102180617Y-63784657D01*
X102189103Y-63782083D01*
X102371599Y-63684536D01*
X102531559Y-63553261D01*
X102662834Y-63393301D01*
X102760381Y-63210805D01*
X102820449Y-63012785D01*
X102840732Y-62806851D01*
X102820449Y-62600917D01*
X102760381Y-62402897D01*
X102662834Y-62220401D01*
X102531559Y-62060441D01*
X102493056Y-62028843D01*
X102419482Y-61968462D01*
X102371599Y-61929166D01*
X102311558Y-61897073D01*
X102194477Y-61834491D01*
X102194472Y-61834489D01*
X102189103Y-61831619D01*
X102152505Y-61820517D01*
X101996913Y-61773319D01*
X101996908Y-61773318D01*
X101991083Y-61771551D01*
X101985024Y-61770954D01*
X101985018Y-61770953D01*
X101791210Y-61751865D01*
X101785149Y-61751268D01*
X101779088Y-61751865D01*
X101585279Y-61770953D01*
X101585271Y-61770954D01*
X101579215Y-61771551D01*
X101573391Y-61773317D01*
X101573384Y-61773319D01*
X101387026Y-61829850D01*
X101387024Y-61829850D01*
X101381195Y-61831619D01*
X101375828Y-61834487D01*
X101375820Y-61834491D01*
X101204069Y-61926295D01*
X101204064Y-61926298D01*
X101198699Y-61929166D01*
X101193995Y-61933025D01*
X101193991Y-61933029D01*
X101043445Y-62056578D01*
X101043439Y-62056583D01*
X101038739Y-62060441D01*
X101034881Y-62065141D01*
X101034876Y-62065147D01*
X100911327Y-62215693D01*
X100911323Y-62215697D01*
X100907464Y-62220401D01*
X100904596Y-62225766D01*
X100904593Y-62225771D01*
X100812789Y-62397522D01*
X100812785Y-62397530D01*
X100809917Y-62402897D01*
X100808148Y-62408726D01*
X100808148Y-62408728D01*
X100751617Y-62595086D01*
X100751615Y-62595093D01*
X100749849Y-62600917D01*
X100749252Y-62606973D01*
X100749251Y-62606981D01*
X100734753Y-62754185D01*
X100729566Y-62806851D01*
X100730163Y-62812912D01*
X100749251Y-63006720D01*
X100749252Y-63006726D01*
X100749849Y-63012785D01*
X100751616Y-63018610D01*
X100751617Y-63018615D01*
X100782415Y-63120143D01*
X100809917Y-63210805D01*
X100812787Y-63216174D01*
X100812789Y-63216179D01*
X100895237Y-63370426D01*
X100907464Y-63393301D01*
X100918675Y-63406962D01*
X101033862Y-63547319D01*
X101038739Y-63553261D01*
X101198699Y-63684536D01*
X101381195Y-63782083D01*
X101387032Y-63783853D01*
X101387033Y-63783854D01*
X101396641Y-63786769D01*
X101442406Y-63812201D01*
X101473596Y-63854253D01*
X101484649Y-63905430D01*
X101484649Y-64381341D01*
X101484400Y-64384921D01*
X101482376Y-64390962D01*
X101482906Y-64402436D01*
X101482906Y-64402440D01*
X101484517Y-64437277D01*
X101484649Y-64443003D01*
X101484649Y-64461041D01*
X101485701Y-64466668D01*
X101485784Y-64467565D01*
X101486180Y-64473269D01*
X101487033Y-64491713D01*
X101487564Y-64503189D01*
X101492203Y-64513696D01*
X101493941Y-64521085D01*
X101495231Y-64525249D01*
X101497976Y-64532334D01*
X101500088Y-64543630D01*
X101514150Y-64566343D01*
X101522152Y-64581524D01*
X101528301Y-64595451D01*
X101528302Y-64595453D01*
X101532943Y-64605962D01*
X101541066Y-64614085D01*
X101545358Y-64620350D01*
X101548064Y-64623766D01*
X101553180Y-64629378D01*
X101559230Y-64639149D01*
X101577690Y-64653089D01*
X101580545Y-64655245D01*
X101593500Y-64666519D01*
X102078309Y-65151328D01*
X102109289Y-65203014D01*
X102112245Y-65263200D01*
X102086481Y-65317674D01*
X102038081Y-65353570D01*
X101978474Y-65362412D01*
X101791210Y-65343968D01*
X101785149Y-65343371D01*
X101779088Y-65343968D01*
X101585279Y-65363056D01*
X101585271Y-65363057D01*
X101579215Y-65363654D01*
X101573391Y-65365420D01*
X101573384Y-65365422D01*
X101387026Y-65421953D01*
X101387024Y-65421953D01*
X101381195Y-65423722D01*
X101375828Y-65426590D01*
X101375820Y-65426594D01*
X101204069Y-65518398D01*
X101204064Y-65518401D01*
X101198699Y-65521269D01*
X101193995Y-65525128D01*
X101193991Y-65525132D01*
X101043445Y-65648681D01*
X101043439Y-65648686D01*
X101038739Y-65652544D01*
X101034881Y-65657244D01*
X101034876Y-65657250D01*
X100911327Y-65807796D01*
X100911323Y-65807800D01*
X100907464Y-65812504D01*
X100904596Y-65817869D01*
X100904593Y-65817874D01*
X100812789Y-65989625D01*
X100812785Y-65989633D01*
X100809917Y-65995000D01*
X100808148Y-66000829D01*
X100808148Y-66000831D01*
X100751617Y-66187189D01*
X100751615Y-66187196D01*
X100749849Y-66193020D01*
X100749252Y-66199078D01*
X100749251Y-66199085D01*
X100742192Y-66270761D01*
X100716544Y-66334896D01*
X100660563Y-66375359D01*
X100591620Y-66379594D01*
X100531108Y-66346288D01*
X100325917Y-66141097D01*
X100299037Y-66100869D01*
X100289598Y-66053416D01*
X100289598Y-65701481D01*
X100300651Y-65650304D01*
X100331841Y-65608252D01*
X100377606Y-65582820D01*
X100384566Y-65580708D01*
X100393052Y-65578134D01*
X100575548Y-65480587D01*
X100735508Y-65349312D01*
X100866783Y-65189352D01*
X100964330Y-65006856D01*
X101024398Y-64808836D01*
X101044681Y-64602902D01*
X101024398Y-64396968D01*
X100964330Y-64198948D01*
X100866783Y-64016452D01*
X100735508Y-63856492D01*
X100726426Y-63849039D01*
X100619759Y-63761500D01*
X100575548Y-63725217D01*
X100546909Y-63709909D01*
X100398426Y-63630542D01*
X100398421Y-63630540D01*
X100393052Y-63627670D01*
X100341793Y-63612121D01*
X100200862Y-63569370D01*
X100200857Y-63569369D01*
X100195032Y-63567602D01*
X100188973Y-63567005D01*
X100188967Y-63567004D01*
X99995159Y-63547916D01*
X99989098Y-63547319D01*
X99983037Y-63547916D01*
X99789228Y-63567004D01*
X99789220Y-63567005D01*
X99783164Y-63567602D01*
X99777340Y-63569368D01*
X99777333Y-63569370D01*
X99590975Y-63625901D01*
X99590973Y-63625901D01*
X99585144Y-63627670D01*
X99579777Y-63630538D01*
X99579769Y-63630542D01*
X99408018Y-63722346D01*
X99408013Y-63722349D01*
X99402648Y-63725217D01*
X99397944Y-63729076D01*
X99397940Y-63729080D01*
X99247394Y-63852629D01*
X99247388Y-63852634D01*
X99242688Y-63856492D01*
X99238830Y-63861192D01*
X99238825Y-63861198D01*
X99115276Y-64011744D01*
X99115272Y-64011748D01*
X99111413Y-64016452D01*
X99108545Y-64021817D01*
X99108542Y-64021822D01*
X99016738Y-64193573D01*
X99016734Y-64193581D01*
X99013866Y-64198948D01*
X99012097Y-64204777D01*
X99012097Y-64204779D01*
X98955566Y-64391137D01*
X98955564Y-64391144D01*
X98953798Y-64396968D01*
X98953201Y-64403024D01*
X98953200Y-64403032D01*
X98939353Y-64543630D01*
X98933515Y-64602902D01*
X98934112Y-64608963D01*
X98953200Y-64802771D01*
X98953201Y-64802777D01*
X98953798Y-64808836D01*
X98955565Y-64814661D01*
X98955566Y-64814666D01*
X98984209Y-64909089D01*
X99013866Y-65006856D01*
X99016736Y-65012225D01*
X99016738Y-65012230D01*
X99108542Y-65183981D01*
X99111413Y-65189352D01*
X99115276Y-65194059D01*
X99165591Y-65255369D01*
X99191734Y-65311836D01*
X99187156Y-65373892D01*
X99153010Y-65425911D01*
X99097894Y-65454794D01*
X99035688Y-65453267D01*
X98982056Y-65421714D01*
X98716899Y-65156557D01*
X97811003Y-64250660D01*
X97787799Y-64218482D01*
X97775947Y-64180627D01*
X97767165Y-64119543D01*
X97707377Y-63988627D01*
X97613128Y-63879857D01*
X97612587Y-63879509D01*
X97581047Y-63834767D01*
X97573407Y-63775644D01*
X97594241Y-63719788D01*
X97638733Y-63680110D01*
X97693962Y-63666432D01*
X97698820Y-63667165D01*
X97833108Y-63646924D01*
X97955463Y-63588001D01*
X97979000Y-63568499D01*
X98372680Y-63174818D01*
X98412908Y-63147939D01*
X98460361Y-63138500D01*
X98975026Y-63138500D01*
X99042065Y-63158184D01*
X99103947Y-63197953D01*
X99242039Y-63238500D01*
X99377090Y-63238500D01*
X99385961Y-63238500D01*
X99524053Y-63197953D01*
X99645128Y-63120143D01*
X99739377Y-63011373D01*
X99799165Y-62880457D01*
X99819647Y-62738000D01*
X99799165Y-62595543D01*
X99739377Y-62464627D01*
X99706832Y-62427068D01*
X99679382Y-62372227D01*
X99681571Y-62310934D01*
X99712867Y-62258188D01*
X100171440Y-61799614D01*
X100175671Y-61794930D01*
X100234614Y-61722574D01*
X100241928Y-61711274D01*
X100314333Y-61567104D01*
X100319240Y-61553621D01*
X100337244Y-61477657D01*
X100337325Y-61466495D01*
X100326446Y-61464000D01*
X97858531Y-61464000D01*
X97847372Y-61466902D01*
X97849786Y-61478177D01*
X97881110Y-61540549D01*
X97879132Y-61541542D01*
X97895298Y-61591143D01*
X97882426Y-61653440D01*
X97840358Y-61701158D01*
X97780164Y-61721736D01*
X97717688Y-61709760D01*
X97664703Y-61684243D01*
X97664698Y-61684241D01*
X97656331Y-61680212D01*
X97583970Y-61669305D01*
X97531233Y-61661356D01*
X97522044Y-61659971D01*
X97512855Y-61661356D01*
X97396944Y-61678827D01*
X97396943Y-61678827D01*
X97387756Y-61680212D01*
X97379390Y-61684240D01*
X97379383Y-61684243D01*
X97272201Y-61735860D01*
X97272199Y-61735861D01*
X97265401Y-61739135D01*
X97259595Y-61743944D01*
X97259588Y-61743950D01*
X97244092Y-61756790D01*
X97244080Y-61756800D01*
X97241864Y-61758637D01*
X97239824Y-61760676D01*
X97239813Y-61760687D01*
X96707551Y-62292949D01*
X96707540Y-62292960D01*
X96705501Y-62295000D01*
X96703664Y-62297216D01*
X96703654Y-62297228D01*
X96690814Y-62312724D01*
X96690808Y-62312731D01*
X96685999Y-62318537D01*
X96682725Y-62325335D01*
X96682724Y-62325337D01*
X96631107Y-62432519D01*
X96631104Y-62432526D01*
X96627076Y-62440892D01*
X96625691Y-62450079D01*
X96625691Y-62450080D01*
X96621901Y-62475223D01*
X96606835Y-62575180D01*
X96627076Y-62709467D01*
X96631105Y-62717834D01*
X96631107Y-62717839D01*
X96663972Y-62786083D01*
X96685999Y-62831822D01*
X96690811Y-62837630D01*
X96690814Y-62837634D01*
X96700357Y-62849151D01*
X96705501Y-62855359D01*
X96707551Y-62857409D01*
X97399961Y-63549819D01*
X97430211Y-63599182D01*
X97434753Y-63656898D01*
X97412598Y-63710385D01*
X97368575Y-63747985D01*
X97312280Y-63761500D01*
X97210039Y-63761500D01*
X97201530Y-63763998D01*
X97201526Y-63763999D01*
X97080461Y-63799547D01*
X97071947Y-63802047D01*
X97064484Y-63806842D01*
X97064484Y-63806843D01*
X96958329Y-63875064D01*
X96958325Y-63875066D01*
X96950872Y-63879857D01*
X96945070Y-63886551D01*
X96945065Y-63886557D01*
X96862431Y-63981923D01*
X96862428Y-63981927D01*
X96856623Y-63988627D01*
X96852941Y-63996689D01*
X96852938Y-63996694D01*
X96800520Y-64111473D01*
X96800519Y-64111475D01*
X96796835Y-64119543D01*
X96795573Y-64128316D01*
X96795572Y-64128322D01*
X96786191Y-64193573D01*
X96776353Y-64262000D01*
X96777615Y-64270777D01*
X96795572Y-64395677D01*
X96795573Y-64395681D01*
X96796835Y-64404457D01*
X96800519Y-64412525D01*
X96800520Y-64412526D01*
X96851783Y-64524777D01*
X96856623Y-64535373D01*
X96862430Y-64542075D01*
X96862431Y-64542076D01*
X96945065Y-64637442D01*
X96945067Y-64637444D01*
X96950872Y-64644143D01*
X97071947Y-64721953D01*
X97151383Y-64745277D01*
X97204130Y-64776573D01*
X97572621Y-65145064D01*
X97830858Y-65403300D01*
X97860114Y-65449728D01*
X97866467Y-65504236D01*
X97848673Y-65556147D01*
X97810217Y-65595296D01*
X97720331Y-65653062D01*
X97720324Y-65653067D01*
X97712872Y-65657857D01*
X97707070Y-65664551D01*
X97707065Y-65664557D01*
X97624432Y-65759922D01*
X97624429Y-65759925D01*
X97618623Y-65766627D01*
X97614941Y-65774688D01*
X97614932Y-65774703D01*
X97614441Y-65775780D01*
X97612752Y-65778095D01*
X97610143Y-65782156D01*
X97609904Y-65782002D01*
X97588544Y-65811296D01*
X97584048Y-65814081D01*
X97577127Y-65823244D01*
X97577123Y-65823249D01*
X97567949Y-65835398D01*
X97556679Y-65848348D01*
X93837847Y-69567181D01*
X93797619Y-69594061D01*
X93750166Y-69603500D01*
X93654039Y-69603500D01*
X93645530Y-69605998D01*
X93645526Y-69605999D01*
X93535867Y-69638198D01*
X93515947Y-69644047D01*
X93508484Y-69648842D01*
X93508484Y-69648843D01*
X93402329Y-69717064D01*
X93402325Y-69717066D01*
X93394872Y-69721857D01*
X93389070Y-69728551D01*
X93389065Y-69728557D01*
X93306431Y-69823923D01*
X93306428Y-69823927D01*
X93300623Y-69830627D01*
X93296941Y-69838689D01*
X93296938Y-69838694D01*
X93244520Y-69953473D01*
X93240835Y-69961543D01*
X93239573Y-69970316D01*
X93239572Y-69970322D01*
X93223736Y-70080473D01*
X93220353Y-70104000D01*
X84894392Y-70104000D01*
X82986819Y-68196426D01*
X82959939Y-68156198D01*
X82950500Y-68108745D01*
X82950500Y-68072000D01*
X87632353Y-68072000D01*
X87633615Y-68080777D01*
X87651572Y-68205677D01*
X87651573Y-68205681D01*
X87652835Y-68214457D01*
X87656519Y-68222525D01*
X87656520Y-68222526D01*
X87708873Y-68337163D01*
X87712623Y-68345373D01*
X87718430Y-68352075D01*
X87718431Y-68352076D01*
X87801065Y-68447442D01*
X87801067Y-68447444D01*
X87806872Y-68454143D01*
X87927947Y-68531953D01*
X88066039Y-68572500D01*
X88201090Y-68572500D01*
X88209961Y-68572500D01*
X88348053Y-68531953D01*
X88469128Y-68454143D01*
X88474933Y-68447443D01*
X88474936Y-68447441D01*
X88502788Y-68415298D01*
X88544989Y-68383706D01*
X88596501Y-68372500D01*
X88848144Y-68372500D01*
X88851724Y-68372748D01*
X88857765Y-68374773D01*
X88904079Y-68372632D01*
X88909806Y-68372500D01*
X88922111Y-68372500D01*
X88927844Y-68372500D01*
X88933478Y-68371445D01*
X88934351Y-68371365D01*
X88940072Y-68370967D01*
X88969992Y-68369585D01*
X88980506Y-68364941D01*
X88987908Y-68363201D01*
X88992038Y-68361922D01*
X88999135Y-68359172D01*
X89010433Y-68357061D01*
X89033144Y-68342998D01*
X89048319Y-68334999D01*
X89072765Y-68324206D01*
X89080892Y-68316077D01*
X89087175Y-68311774D01*
X89090555Y-68309096D01*
X89096176Y-68303970D01*
X89105952Y-68297919D01*
X89122053Y-68276595D01*
X89133314Y-68263655D01*
X89965904Y-67431065D01*
X90018647Y-67399771D01*
X90079939Y-67397581D01*
X90134784Y-67425033D01*
X90169764Y-67475411D01*
X90176321Y-67536391D01*
X90173615Y-67555216D01*
X90173615Y-67555223D01*
X90172353Y-67564000D01*
X90173615Y-67572777D01*
X90191572Y-67697677D01*
X90191573Y-67697681D01*
X90192835Y-67706457D01*
X90196519Y-67714525D01*
X90196520Y-67714526D01*
X90243775Y-67818000D01*
X90252623Y-67837373D01*
X90258430Y-67844075D01*
X90258431Y-67844076D01*
X90341065Y-67939442D01*
X90341067Y-67939444D01*
X90346872Y-67946143D01*
X90467947Y-68023953D01*
X90606039Y-68064500D01*
X90741090Y-68064500D01*
X90749961Y-68064500D01*
X90888053Y-68023953D01*
X91009128Y-67946143D01*
X91103377Y-67837373D01*
X91163165Y-67706457D01*
X91183647Y-67564000D01*
X91163165Y-67421543D01*
X91145087Y-67381958D01*
X91133917Y-67333401D01*
X91142764Y-67284363D01*
X91170199Y-67242770D01*
X92344150Y-66068819D01*
X92384379Y-66041939D01*
X92431832Y-66032500D01*
X92519090Y-66032500D01*
X92527961Y-66032500D01*
X92666053Y-65991953D01*
X92787128Y-65914143D01*
X92881377Y-65805373D01*
X92941165Y-65674457D01*
X92961647Y-65532000D01*
X92960340Y-65522912D01*
X92960385Y-65522413D01*
X92960385Y-65514352D01*
X92961106Y-65514352D01*
X92965419Y-65466102D01*
X92995393Y-65417576D01*
X97573024Y-60839945D01*
X97627910Y-60808043D01*
X97691395Y-60807486D01*
X97746834Y-60838424D01*
X97779695Y-60892745D01*
X97780840Y-60936290D01*
X97782858Y-60936305D01*
X97782674Y-60961504D01*
X97793554Y-60964000D01*
X98793674Y-60964000D01*
X98806549Y-60960549D01*
X98810000Y-60947674D01*
X99310000Y-60947674D01*
X99313450Y-60960549D01*
X99326326Y-60964000D01*
X100261469Y-60964000D01*
X100272627Y-60961097D01*
X100270213Y-60949822D01*
X100241926Y-60893497D01*
X100234614Y-60882202D01*
X100175673Y-60809848D01*
X100171444Y-60805165D01*
X99468837Y-60102559D01*
X99464153Y-60098328D01*
X99391798Y-60039386D01*
X99380499Y-60032071D01*
X99324177Y-60003786D01*
X99312902Y-60001372D01*
X99310000Y-60012531D01*
X99310000Y-60947674D01*
X98810000Y-60947674D01*
X98810000Y-59947554D01*
X98807504Y-59936674D01*
X98796342Y-59936755D01*
X98720371Y-59954761D01*
X98703032Y-59961072D01*
X98648835Y-59967988D01*
X98596926Y-59950939D01*
X98557384Y-59913235D01*
X98537885Y-59862196D01*
X98537619Y-59860349D01*
X98529165Y-59801543D01*
X98469377Y-59670627D01*
X98375128Y-59561857D01*
X98254053Y-59484047D01*
X98198863Y-59467841D01*
X98124473Y-59445999D01*
X98124470Y-59445998D01*
X98115961Y-59443500D01*
X97972039Y-59443500D01*
X97963530Y-59445998D01*
X97963526Y-59445999D01*
X97851265Y-59478962D01*
X97833947Y-59484047D01*
X97826484Y-59488842D01*
X97826484Y-59488843D01*
X97720329Y-59557064D01*
X97720325Y-59557066D01*
X97712872Y-59561857D01*
X97707070Y-59568551D01*
X97707065Y-59568557D01*
X97624431Y-59663923D01*
X97624428Y-59663927D01*
X97618623Y-59670627D01*
X97614941Y-59678689D01*
X97614938Y-59678694D01*
X97562520Y-59793473D01*
X97558835Y-59801543D01*
X97557573Y-59810316D01*
X97557572Y-59810322D01*
X97547263Y-59882029D01*
X97538353Y-59944000D01*
X97539615Y-59952778D01*
X97539615Y-59952787D01*
X97539661Y-59953107D01*
X97539615Y-59953621D01*
X97539615Y-59961647D01*
X97538896Y-59961647D01*
X97534575Y-60009907D01*
X97504603Y-60058424D01*
X92567847Y-64995181D01*
X92527619Y-65022061D01*
X92480166Y-65031500D01*
X92384039Y-65031500D01*
X92375530Y-65033998D01*
X92375526Y-65033999D01*
X92260762Y-65067697D01*
X92245947Y-65072047D01*
X92238484Y-65076842D01*
X92238484Y-65076843D01*
X92132329Y-65145064D01*
X92132325Y-65145066D01*
X92124872Y-65149857D01*
X92119070Y-65156551D01*
X92119065Y-65156557D01*
X92036431Y-65251923D01*
X92036428Y-65251927D01*
X92030623Y-65258627D01*
X92026941Y-65266689D01*
X92026938Y-65266694D01*
X91975617Y-65379071D01*
X91970835Y-65389543D01*
X91969573Y-65398316D01*
X91969572Y-65398322D01*
X91957922Y-65479353D01*
X91950353Y-65532000D01*
X91951615Y-65540777D01*
X91951615Y-65540787D01*
X91951661Y-65541107D01*
X91951615Y-65541621D01*
X91951615Y-65549647D01*
X91950896Y-65549647D01*
X91946575Y-65597907D01*
X91916603Y-65646424D01*
X91112290Y-66450737D01*
X91057415Y-66482638D01*
X90993943Y-66483204D01*
X90938507Y-66452288D01*
X90909979Y-66405171D01*
X90909165Y-66405543D01*
X90849377Y-66274627D01*
X90778665Y-66193020D01*
X90760934Y-66172557D01*
X90760932Y-66172555D01*
X90755128Y-66165857D01*
X90634053Y-66088047D01*
X90625542Y-66085548D01*
X90625540Y-66085547D01*
X90589639Y-66075006D01*
X90570875Y-66069496D01*
X90516579Y-66036622D01*
X90485663Y-65981186D01*
X90486229Y-65917714D01*
X90518128Y-65862841D01*
X94418910Y-61962059D01*
X94475923Y-61929594D01*
X94541523Y-61930765D01*
X94590355Y-61945103D01*
X94670039Y-61968500D01*
X94805090Y-61968500D01*
X94813961Y-61968500D01*
X94952053Y-61927953D01*
X95073128Y-61850143D01*
X95167377Y-61741373D01*
X95227165Y-61610457D01*
X95247647Y-61468000D01*
X95227165Y-61325543D01*
X95167377Y-61194627D01*
X95073128Y-61085857D01*
X94952053Y-61008047D01*
X94890733Y-60990042D01*
X94822473Y-60969999D01*
X94822470Y-60969998D01*
X94813961Y-60967500D01*
X94670039Y-60967500D01*
X94661530Y-60969998D01*
X94661526Y-60969999D01*
X94545423Y-61004090D01*
X94531947Y-61008047D01*
X94524484Y-61012842D01*
X94524484Y-61012843D01*
X94418329Y-61081064D01*
X94418325Y-61081066D01*
X94410872Y-61085857D01*
X94405070Y-61092551D01*
X94405065Y-61092557D01*
X94322432Y-61187922D01*
X94322429Y-61187925D01*
X94316623Y-61194627D01*
X94312941Y-61202688D01*
X94312932Y-61202703D01*
X94312441Y-61203780D01*
X94310752Y-61206095D01*
X94308143Y-61210156D01*
X94307904Y-61210002D01*
X94286544Y-61239296D01*
X94282048Y-61242081D01*
X94275127Y-61251244D01*
X94275123Y-61251249D01*
X94265952Y-61263394D01*
X94254682Y-61276344D01*
X89011847Y-66519181D01*
X88971619Y-66546061D01*
X88924166Y-66555500D01*
X88828039Y-66555500D01*
X88819530Y-66557998D01*
X88819526Y-66557999D01*
X88698461Y-66593547D01*
X88689947Y-66596047D01*
X88682484Y-66600842D01*
X88682484Y-66600843D01*
X88576329Y-66669064D01*
X88576325Y-66669066D01*
X88568872Y-66673857D01*
X88563070Y-66680551D01*
X88563065Y-66680557D01*
X88480431Y-66775923D01*
X88480428Y-66775927D01*
X88474623Y-66782627D01*
X88470941Y-66790689D01*
X88470938Y-66790694D01*
X88418520Y-66905473D01*
X88414835Y-66913543D01*
X88413573Y-66922316D01*
X88413572Y-66922322D01*
X88401203Y-67008356D01*
X88394353Y-67056000D01*
X88395615Y-67064777D01*
X88413572Y-67189677D01*
X88413573Y-67189681D01*
X88414835Y-67198457D01*
X88418519Y-67206525D01*
X88418520Y-67206526D01*
X88461208Y-67300000D01*
X88474623Y-67329373D01*
X88480430Y-67336075D01*
X88480431Y-67336076D01*
X88563065Y-67431442D01*
X88563067Y-67431444D01*
X88568872Y-67438143D01*
X88689947Y-67515953D01*
X88728384Y-67527239D01*
X88732757Y-67528523D01*
X88783393Y-67557757D01*
X88815003Y-67606943D01*
X88820561Y-67665147D01*
X88798830Y-67719427D01*
X88754643Y-67757716D01*
X88697823Y-67771500D01*
X88596501Y-67771500D01*
X88544989Y-67760294D01*
X88502788Y-67728702D01*
X88474936Y-67696558D01*
X88474929Y-67696552D01*
X88469128Y-67689857D01*
X88348053Y-67612047D01*
X88292863Y-67595841D01*
X88218473Y-67573999D01*
X88218470Y-67573998D01*
X88209961Y-67571500D01*
X88066039Y-67571500D01*
X88057530Y-67573998D01*
X88057526Y-67573999D01*
X87936461Y-67609547D01*
X87927947Y-67612047D01*
X87920484Y-67616842D01*
X87920484Y-67616843D01*
X87814329Y-67685064D01*
X87814325Y-67685066D01*
X87806872Y-67689857D01*
X87801070Y-67696551D01*
X87801065Y-67696557D01*
X87718431Y-67791923D01*
X87718428Y-67791927D01*
X87712623Y-67798627D01*
X87708941Y-67806689D01*
X87708938Y-67806694D01*
X87656520Y-67921473D01*
X87652835Y-67929543D01*
X87651573Y-67938316D01*
X87651572Y-67938322D01*
X87636642Y-68042167D01*
X87632353Y-68072000D01*
X82950500Y-68072000D01*
X82950500Y-64862158D01*
X82970074Y-64795492D01*
X82975377Y-64789373D01*
X83035165Y-64658457D01*
X83055647Y-64516000D01*
X83035165Y-64373543D01*
X82987650Y-64269500D01*
X82979060Y-64250691D01*
X82979059Y-64250689D01*
X82975377Y-64242627D01*
X82970074Y-64236507D01*
X82950500Y-64169842D01*
X82950500Y-63750255D01*
X82964015Y-63693960D01*
X83001615Y-63649937D01*
X83055102Y-63627782D01*
X83112818Y-63632324D01*
X83162181Y-63662574D01*
X85337091Y-65837484D01*
X85337094Y-65837486D01*
X85359658Y-65860050D01*
X85379394Y-65870106D01*
X85395984Y-65880273D01*
X85406010Y-65887557D01*
X85406012Y-65887558D01*
X85413910Y-65893296D01*
X85434981Y-65900142D01*
X85452954Y-65907586D01*
X85472696Y-65917646D01*
X85494581Y-65921112D01*
X85513489Y-65925651D01*
X85534567Y-65932500D01*
X85566481Y-65932500D01*
X85661433Y-65932500D01*
X87058567Y-65932500D01*
X87153519Y-65932500D01*
X87175677Y-65932500D01*
X87185433Y-65932500D01*
X87206495Y-65925656D01*
X87225423Y-65921111D01*
X87247304Y-65917646D01*
X87267045Y-65907586D01*
X87285014Y-65900143D01*
X87306090Y-65893296D01*
X87324016Y-65880271D01*
X87340602Y-65870107D01*
X87360342Y-65860050D01*
X87382905Y-65837486D01*
X87382909Y-65837484D01*
X89459484Y-63760909D01*
X89459486Y-63760905D01*
X89482050Y-63738342D01*
X89492107Y-63718602D01*
X89502271Y-63702016D01*
X89515296Y-63684090D01*
X89522143Y-63663014D01*
X89529586Y-63645045D01*
X89539646Y-63625304D01*
X89543111Y-63603423D01*
X89547656Y-63584496D01*
X89551485Y-63572712D01*
X89551485Y-63572711D01*
X89554500Y-63563433D01*
X89554500Y-63436567D01*
X89554500Y-62830158D01*
X89574074Y-62763492D01*
X89579377Y-62757373D01*
X89639165Y-62626457D01*
X89659647Y-62484000D01*
X89639165Y-62341543D01*
X89579377Y-62210627D01*
X89516309Y-62137842D01*
X89490934Y-62108557D01*
X89490932Y-62108555D01*
X89485128Y-62101857D01*
X89364053Y-62024047D01*
X89308863Y-62007841D01*
X89234473Y-61985999D01*
X89234470Y-61985998D01*
X89225961Y-61983500D01*
X89082039Y-61983500D01*
X89073530Y-61985998D01*
X89073526Y-61985999D01*
X88952461Y-62021547D01*
X88943947Y-62024047D01*
X88936484Y-62028842D01*
X88936484Y-62028843D01*
X88830329Y-62097064D01*
X88830325Y-62097066D01*
X88822872Y-62101857D01*
X88817070Y-62108551D01*
X88817065Y-62108557D01*
X88734431Y-62203923D01*
X88734428Y-62203927D01*
X88728623Y-62210627D01*
X88724941Y-62218689D01*
X88724938Y-62218694D01*
X88672520Y-62333473D01*
X88672519Y-62333475D01*
X88668835Y-62341543D01*
X88667573Y-62350316D01*
X88667572Y-62350322D01*
X88656538Y-62427071D01*
X88648353Y-62484000D01*
X88649615Y-62492777D01*
X88667572Y-62617677D01*
X88667573Y-62617681D01*
X88668835Y-62626457D01*
X88672519Y-62634525D01*
X88672520Y-62634526D01*
X88724939Y-62749308D01*
X88724941Y-62749312D01*
X88728623Y-62757373D01*
X88733925Y-62763492D01*
X88753500Y-62830158D01*
X88753500Y-63282745D01*
X88744061Y-63330198D01*
X88717181Y-63370426D01*
X87766963Y-64320643D01*
X87716335Y-64351297D01*
X87657266Y-64354992D01*
X87603212Y-64330887D01*
X87566488Y-64284474D01*
X87551061Y-64250694D01*
X87547377Y-64242627D01*
X87453128Y-64133857D01*
X87332053Y-64056047D01*
X87230222Y-64026147D01*
X87202473Y-64017999D01*
X87202470Y-64017998D01*
X87193961Y-64015500D01*
X87097834Y-64015500D01*
X87050381Y-64006061D01*
X87010153Y-63979181D01*
X83089396Y-60058425D01*
X83059422Y-60009902D01*
X83055105Y-59961648D01*
X83054385Y-59961648D01*
X83054385Y-59953597D01*
X83054340Y-59953094D01*
X83054385Y-59952781D01*
X83054385Y-59952777D01*
X83055647Y-59944000D01*
X83035165Y-59801543D01*
X82975377Y-59670627D01*
X82881128Y-59561857D01*
X82855401Y-59545323D01*
X82810019Y-59493327D01*
X82799463Y-59425122D01*
X82827004Y-59361839D01*
X82884111Y-59323081D01*
X82886155Y-59322416D01*
X82888491Y-59321657D01*
X82907423Y-59317111D01*
X82929304Y-59313646D01*
X82949045Y-59303586D01*
X82967014Y-59296143D01*
X82988090Y-59289296D01*
X83006016Y-59276271D01*
X83022602Y-59266107D01*
X83042342Y-59256050D01*
X83064905Y-59233486D01*
X83064909Y-59233484D01*
X83125349Y-59173044D01*
X93925752Y-59173044D01*
X93926860Y-59179229D01*
X93926861Y-59179234D01*
X93954404Y-59332902D01*
X93959857Y-59363326D01*
X93962188Y-59369161D01*
X93962189Y-59369165D01*
X94027372Y-59532348D01*
X94031566Y-59542846D01*
X94035027Y-59548098D01*
X94035029Y-59548101D01*
X94134479Y-59698999D01*
X94134482Y-59699003D01*
X94137945Y-59704257D01*
X94947484Y-60513796D01*
X95059751Y-60605338D01*
X95231096Y-60694841D01*
X95416950Y-60748021D01*
X95609705Y-60762699D01*
X95801469Y-60738276D01*
X95984391Y-60675752D01*
X96150983Y-60577685D01*
X96294423Y-60448091D01*
X96408841Y-60292276D01*
X96489550Y-60116618D01*
X96533249Y-59928309D01*
X96538146Y-59735058D01*
X96504042Y-59544776D01*
X96432332Y-59365256D01*
X96415877Y-59340288D01*
X96329418Y-59209102D01*
X96329416Y-59209099D01*
X96325953Y-59203845D01*
X95516414Y-58394306D01*
X95494404Y-58376359D01*
X95409021Y-58306738D01*
X95409019Y-58306736D01*
X95404147Y-58302764D01*
X95398573Y-58299852D01*
X95398571Y-58299851D01*
X95307822Y-58252448D01*
X95232802Y-58213261D01*
X95226754Y-58211530D01*
X95226753Y-58211530D01*
X95052987Y-58161809D01*
X95046948Y-58160081D01*
X95040688Y-58159604D01*
X95040681Y-58159603D01*
X94860462Y-58145880D01*
X94860458Y-58145880D01*
X94854193Y-58145403D01*
X94847960Y-58146196D01*
X94847953Y-58146197D01*
X94668671Y-58169030D01*
X94668661Y-58169032D01*
X94662429Y-58169826D01*
X94656483Y-58171858D01*
X94656476Y-58171860D01*
X94485453Y-58230317D01*
X94485447Y-58230319D01*
X94479507Y-58232350D01*
X94474101Y-58235532D01*
X94474093Y-58235536D01*
X94318331Y-58327228D01*
X94318325Y-58327231D01*
X94312915Y-58330417D01*
X94308250Y-58334630D01*
X94308248Y-58334633D01*
X94174146Y-58455790D01*
X94174141Y-58455794D01*
X94169475Y-58460011D01*
X94165753Y-58465079D01*
X94165749Y-58465084D01*
X94058780Y-58610755D01*
X94058774Y-58610764D01*
X94055057Y-58615827D01*
X94052435Y-58621531D01*
X94052431Y-58621540D01*
X93978874Y-58781634D01*
X93974348Y-58791485D01*
X93972928Y-58797601D01*
X93972925Y-58797612D01*
X93934994Y-58961068D01*
X93930649Y-58979793D01*
X93930489Y-58986069D01*
X93930489Y-58986077D01*
X93926123Y-59158401D01*
X93925752Y-59173044D01*
X83125349Y-59173044D01*
X84887484Y-57410909D01*
X84887486Y-57410905D01*
X84910050Y-57388342D01*
X84920109Y-57368598D01*
X84930274Y-57352012D01*
X84943296Y-57334089D01*
X84950142Y-57313015D01*
X84957583Y-57295052D01*
X84967646Y-57275304D01*
X84971111Y-57253422D01*
X84975653Y-57234501D01*
X84982500Y-57213433D01*
X84982500Y-57086567D01*
X84982500Y-54860255D01*
X84996015Y-54803960D01*
X85033615Y-54759937D01*
X85087102Y-54737782D01*
X85144818Y-54742324D01*
X85194181Y-54772573D01*
X88140046Y-57718439D01*
X88140049Y-57718441D01*
X88162613Y-57741005D01*
X88182349Y-57751061D01*
X88198939Y-57761228D01*
X88208965Y-57768512D01*
X88208967Y-57768513D01*
X88216865Y-57774251D01*
X88237936Y-57781097D01*
X88255909Y-57788541D01*
X88275651Y-57798601D01*
X88297536Y-57802067D01*
X88316444Y-57806606D01*
X88337522Y-57813455D01*
X88369436Y-57813455D01*
X88464388Y-57813455D01*
X94415612Y-57813455D01*
X94510564Y-57813455D01*
X94532722Y-57813455D01*
X94542478Y-57813455D01*
X94563540Y-57806611D01*
X94582468Y-57802066D01*
X94604349Y-57798601D01*
X94624090Y-57788541D01*
X94642059Y-57781098D01*
X94663135Y-57774251D01*
X94681061Y-57761226D01*
X94697647Y-57751062D01*
X94717387Y-57741005D01*
X94739950Y-57718441D01*
X94739954Y-57718439D01*
X94759379Y-57699014D01*
X95556869Y-56901522D01*
X95611647Y-56869650D01*
X95675021Y-56869008D01*
X95730435Y-56899765D01*
X95763413Y-56953887D01*
X95765339Y-57017235D01*
X95728121Y-57177615D01*
X95728119Y-57177623D01*
X95726700Y-57183742D01*
X95726540Y-57190018D01*
X95726540Y-57190026D01*
X95721962Y-57370705D01*
X95721803Y-57376993D01*
X95722911Y-57383178D01*
X95722912Y-57383183D01*
X95749620Y-57532194D01*
X95755908Y-57567275D01*
X95758239Y-57573110D01*
X95758240Y-57573114D01*
X95822546Y-57734102D01*
X95827617Y-57746795D01*
X95831078Y-57752047D01*
X95831080Y-57752050D01*
X95930530Y-57902948D01*
X95930533Y-57902952D01*
X95933996Y-57908206D01*
X96743535Y-58717745D01*
X96855802Y-58809287D01*
X97027147Y-58898790D01*
X97213001Y-58951970D01*
X97405756Y-58966648D01*
X97597520Y-58942225D01*
X97780442Y-58879701D01*
X97947034Y-58781634D01*
X98090474Y-58652040D01*
X98204892Y-58496225D01*
X98285601Y-58320567D01*
X98329300Y-58132258D01*
X98334197Y-57939007D01*
X98300093Y-57748725D01*
X98228383Y-57569205D01*
X98159725Y-57465029D01*
X98125469Y-57413051D01*
X98125467Y-57413048D01*
X98122004Y-57407794D01*
X97312465Y-56598255D01*
X97234112Y-56534366D01*
X97205072Y-56510687D01*
X97205070Y-56510685D01*
X97200198Y-56506713D01*
X97194624Y-56503801D01*
X97194622Y-56503800D01*
X97065397Y-56436299D01*
X97028853Y-56417210D01*
X97022805Y-56415479D01*
X97022804Y-56415479D01*
X96849038Y-56365758D01*
X96842999Y-56364030D01*
X96836739Y-56363553D01*
X96836732Y-56363552D01*
X96656513Y-56349829D01*
X96656509Y-56349829D01*
X96650244Y-56349352D01*
X96644011Y-56350145D01*
X96644004Y-56350146D01*
X96464722Y-56372979D01*
X96464712Y-56372981D01*
X96458480Y-56373775D01*
X96452529Y-56375808D01*
X96452529Y-56375809D01*
X96396095Y-56395098D01*
X96330413Y-56399095D01*
X96271934Y-56368924D01*
X96237127Y-56313080D01*
X96235794Y-56247289D01*
X96268307Y-56190084D01*
X96998997Y-55459395D01*
X97056545Y-55426794D01*
X97122670Y-55428417D01*
X97178553Y-55463804D01*
X97208292Y-55522886D01*
X97215602Y-55559635D01*
X97220971Y-55586627D01*
X97254099Y-55636207D01*
X99049793Y-57431901D01*
X99099373Y-57465029D01*
X99177604Y-57480590D01*
X99255836Y-57465029D01*
X99305415Y-57431901D01*
X100292007Y-56445307D01*
X100347592Y-56413215D01*
X100411780Y-56413215D01*
X100467365Y-56445307D01*
X100736400Y-56714342D01*
X100826108Y-56804050D01*
X100845847Y-56814107D01*
X100862439Y-56824275D01*
X100862440Y-56824276D01*
X100880360Y-56837296D01*
X100901433Y-56844142D01*
X100919396Y-56851583D01*
X100939146Y-56861646D01*
X100961029Y-56865111D01*
X100979945Y-56869652D01*
X101001017Y-56876499D01*
X101032919Y-56876499D01*
X101032927Y-56876499D01*
X101032931Y-56876500D01*
X101032943Y-56876500D01*
X101401082Y-56876500D01*
X101457377Y-56890015D01*
X101501400Y-56927615D01*
X101523555Y-56981102D01*
X101519013Y-57038818D01*
X101488763Y-57088181D01*
X101250559Y-57326385D01*
X101246328Y-57331069D01*
X101187385Y-57403425D01*
X101180071Y-57414725D01*
X101107666Y-57558895D01*
X101102759Y-57572378D01*
X101084755Y-57648342D01*
X101084674Y-57659504D01*
X101095554Y-57662000D01*
X103563469Y-57662000D01*
X103574627Y-57659097D01*
X103572213Y-57647822D01*
X103543926Y-57591497D01*
X103536614Y-57580202D01*
X103477673Y-57507848D01*
X103473444Y-57503165D01*
X103058459Y-57088181D01*
X103028209Y-57038818D01*
X103023667Y-56981102D01*
X103045822Y-56927615D01*
X103089845Y-56890015D01*
X103146140Y-56876500D01*
X103343677Y-56876500D01*
X103353433Y-56876500D01*
X103374495Y-56869656D01*
X103393423Y-56865111D01*
X103415304Y-56861646D01*
X103435045Y-56851586D01*
X103453014Y-56844143D01*
X103474090Y-56837296D01*
X103492016Y-56824271D01*
X103508602Y-56814107D01*
X103528342Y-56804050D01*
X103550902Y-56781488D01*
X103550906Y-56781485D01*
X103550909Y-56781484D01*
X103679744Y-56652647D01*
X103737294Y-56620046D01*
X103803418Y-56621668D01*
X103934066Y-56661300D01*
X104140000Y-56681583D01*
X104345934Y-56661300D01*
X104543954Y-56601232D01*
X104726450Y-56503685D01*
X104886410Y-56372410D01*
X105017685Y-56212450D01*
X105115232Y-56029954D01*
X105175300Y-55831934D01*
X105195583Y-55626000D01*
X105175300Y-55420066D01*
X105115232Y-55222046D01*
X105017685Y-55039550D01*
X104886410Y-54879590D01*
X104726450Y-54748315D01*
X104711663Y-54740411D01*
X104549328Y-54653640D01*
X104549323Y-54653638D01*
X104543954Y-54650768D01*
X104501481Y-54637884D01*
X104351764Y-54592468D01*
X104351759Y-54592467D01*
X104345934Y-54590700D01*
X104339875Y-54590103D01*
X104339869Y-54590102D01*
X104146061Y-54571014D01*
X104140000Y-54570417D01*
X104133939Y-54571014D01*
X103940130Y-54590102D01*
X103940122Y-54590103D01*
X103934066Y-54590700D01*
X103928242Y-54592466D01*
X103928235Y-54592468D01*
X103741877Y-54648999D01*
X103741875Y-54648999D01*
X103736046Y-54650768D01*
X103730679Y-54653636D01*
X103730671Y-54653640D01*
X103558920Y-54745444D01*
X103558915Y-54745447D01*
X103553550Y-54748315D01*
X103548846Y-54752174D01*
X103548842Y-54752178D01*
X103398296Y-54875727D01*
X103398290Y-54875732D01*
X103393590Y-54879590D01*
X103389732Y-54884290D01*
X103389727Y-54884296D01*
X103266178Y-55034842D01*
X103266174Y-55034846D01*
X103262315Y-55039550D01*
X103259447Y-55044915D01*
X103259444Y-55044920D01*
X103167640Y-55216671D01*
X103167636Y-55216679D01*
X103164768Y-55222046D01*
X103162999Y-55227875D01*
X103162999Y-55227877D01*
X103106468Y-55414235D01*
X103106466Y-55414242D01*
X103104700Y-55420066D01*
X103104103Y-55426122D01*
X103104102Y-55426130D01*
X103091079Y-55558361D01*
X103084417Y-55626000D01*
X103085014Y-55632061D01*
X103104102Y-55825869D01*
X103104103Y-55825875D01*
X103104700Y-55831934D01*
X103106467Y-55837759D01*
X103106468Y-55837764D01*
X103130051Y-55915505D01*
X103133564Y-55972699D01*
X103110988Y-56025367D01*
X103067142Y-56062260D01*
X103011390Y-56075500D01*
X101281704Y-56075500D01*
X101234251Y-56066061D01*
X101194023Y-56039181D01*
X98897095Y-53742252D01*
X98897086Y-53742244D01*
X98881427Y-53726585D01*
X98874527Y-53719685D01*
X98865834Y-53715255D01*
X98865832Y-53715254D01*
X98854783Y-53709624D01*
X98838200Y-53699461D01*
X98828172Y-53692175D01*
X98828165Y-53692171D01*
X98820275Y-53686439D01*
X98799204Y-53679592D01*
X98781229Y-53672147D01*
X98770184Y-53666519D01*
X98770181Y-53666518D01*
X98761489Y-53662089D01*
X98751852Y-53660562D01*
X98751851Y-53660562D01*
X98739603Y-53658622D01*
X98720691Y-53654081D01*
X98708902Y-53650251D01*
X98708899Y-53650250D01*
X98699618Y-53647235D01*
X98667704Y-53647235D01*
X97812746Y-53647235D01*
X97812742Y-53647235D01*
X97812734Y-53647236D01*
X97780832Y-53647236D01*
X97765268Y-53652293D01*
X97759761Y-53654082D01*
X97740850Y-53658622D01*
X97728600Y-53660562D01*
X97728598Y-53660562D01*
X97718961Y-53662089D01*
X97710266Y-53666519D01*
X97710260Y-53666521D01*
X97699214Y-53672149D01*
X97681251Y-53679590D01*
X97669451Y-53683424D01*
X97669446Y-53683426D01*
X97660175Y-53686439D01*
X97652289Y-53692168D01*
X97652278Y-53692174D01*
X97642248Y-53699462D01*
X97625665Y-53709625D01*
X97614620Y-53715252D01*
X97614612Y-53715257D01*
X97605923Y-53719685D01*
X97599022Y-53726585D01*
X97599020Y-53726587D01*
X97584044Y-53741563D01*
X97583356Y-53742251D01*
X97583356Y-53742252D01*
X94349471Y-56976136D01*
X94309243Y-57003016D01*
X94261790Y-57012455D01*
X93441626Y-57012455D01*
X93385331Y-56998940D01*
X93341308Y-56961340D01*
X93319153Y-56907853D01*
X93323695Y-56850137D01*
X93353945Y-56800774D01*
X93654898Y-56499821D01*
X93960112Y-56194607D01*
X93979613Y-56171069D01*
X94038536Y-56048714D01*
X94058777Y-55914427D01*
X94038536Y-55780140D01*
X93979613Y-55657785D01*
X93960112Y-55634247D01*
X93953726Y-55627861D01*
X93921090Y-55570178D01*
X93922825Y-55503926D01*
X93939008Y-55478524D01*
X94666361Y-55478524D01*
X94668742Y-55489267D01*
X94679735Y-55489747D01*
X94867828Y-55456582D01*
X94878258Y-55453787D01*
X95090056Y-55376699D01*
X95099829Y-55372142D01*
X95295027Y-55259445D01*
X95303854Y-55253264D01*
X95476528Y-55108374D01*
X95484141Y-55100761D01*
X95629031Y-54928087D01*
X95635212Y-54919260D01*
X95747909Y-54724062D01*
X95752466Y-54714289D01*
X95829554Y-54502492D01*
X95832349Y-54492062D01*
X95865514Y-54303968D01*
X95865034Y-54292975D01*
X95854291Y-54290594D01*
X94682687Y-54290594D01*
X94669811Y-54294044D01*
X94666361Y-54306920D01*
X94666361Y-55478524D01*
X93939008Y-55478524D01*
X93958435Y-55448030D01*
X94017747Y-55418458D01*
X94083818Y-55423658D01*
X94152313Y-55448588D01*
X94163650Y-55449830D01*
X94166361Y-55438752D01*
X94166361Y-54306920D01*
X94162910Y-54294044D01*
X94150035Y-54290594D01*
X93018202Y-54290594D01*
X93007123Y-54293304D01*
X93008365Y-54304644D01*
X93033294Y-54373135D01*
X93038494Y-54439205D01*
X93008922Y-54498517D01*
X92953026Y-54534127D01*
X92886774Y-54535862D01*
X92829091Y-54503226D01*
X92824762Y-54498897D01*
X92822708Y-54496843D01*
X92820478Y-54494995D01*
X92820472Y-54494990D01*
X92804984Y-54482159D01*
X92799170Y-54477342D01*
X92792370Y-54474067D01*
X92792368Y-54474066D01*
X92685187Y-54422450D01*
X92685182Y-54422448D01*
X92676815Y-54418419D01*
X92542528Y-54398178D01*
X92533339Y-54399563D01*
X92417429Y-54417034D01*
X92417428Y-54417034D01*
X92408241Y-54418419D01*
X92399875Y-54422447D01*
X92399868Y-54422450D01*
X92292687Y-54474066D01*
X92292681Y-54474069D01*
X92285886Y-54477342D01*
X92280074Y-54482156D01*
X92280071Y-54482159D01*
X92264583Y-54494990D01*
X92264566Y-54495004D01*
X92262348Y-54496843D01*
X92260304Y-54498886D01*
X92260293Y-54498897D01*
X91339130Y-55420060D01*
X91339125Y-55420066D01*
X91337076Y-55422115D01*
X91335237Y-55424333D01*
X91335223Y-55424350D01*
X91322392Y-55439838D01*
X91322389Y-55439841D01*
X91317575Y-55445653D01*
X91314302Y-55452448D01*
X91314299Y-55452454D01*
X91262683Y-55559635D01*
X91262680Y-55559642D01*
X91258652Y-55568008D01*
X91257267Y-55577195D01*
X91257267Y-55577196D01*
X91254437Y-55595969D01*
X91238411Y-55702295D01*
X91258652Y-55836582D01*
X91262681Y-55844949D01*
X91262683Y-55844954D01*
X91296140Y-55914427D01*
X91317575Y-55958937D01*
X91337076Y-55982475D01*
X91339130Y-55984528D01*
X91339130Y-55984529D01*
X92155375Y-56800774D01*
X92185625Y-56850137D01*
X92190167Y-56907853D01*
X92168012Y-56961340D01*
X92123989Y-56998940D01*
X92067694Y-57012455D01*
X88618210Y-57012455D01*
X88570757Y-57003016D01*
X88530529Y-56976136D01*
X86873519Y-55319126D01*
X86840523Y-55259959D01*
X86843547Y-55192281D01*
X86881688Y-55136293D01*
X86939538Y-55110500D01*
X86939961Y-55110500D01*
X87078053Y-55069953D01*
X87139934Y-55030184D01*
X87206974Y-55010500D01*
X88953677Y-55010500D01*
X88963433Y-55010500D01*
X88984495Y-55003656D01*
X89003423Y-54999111D01*
X89025304Y-54995646D01*
X89045045Y-54985586D01*
X89063014Y-54978143D01*
X89084090Y-54971296D01*
X89102016Y-54958271D01*
X89118602Y-54948107D01*
X89138342Y-54938050D01*
X89160905Y-54915486D01*
X89160909Y-54915484D01*
X90807573Y-53268819D01*
X90847802Y-53241939D01*
X90895255Y-53232500D01*
X92763677Y-53232500D01*
X92773433Y-53232500D01*
X92794495Y-53225656D01*
X92813423Y-53221111D01*
X92835304Y-53217646D01*
X92855045Y-53207586D01*
X92873014Y-53200143D01*
X92894090Y-53193296D01*
X92912016Y-53180271D01*
X92928562Y-53170128D01*
X92929866Y-53169463D01*
X92991354Y-53156035D01*
X93051517Y-53174526D01*
X93094851Y-53220172D01*
X93110192Y-53281213D01*
X93093589Y-53341923D01*
X93084813Y-53357124D01*
X93080255Y-53366898D01*
X93003167Y-53578695D01*
X93000372Y-53589125D01*
X92967207Y-53777219D01*
X92967687Y-53788212D01*
X92978431Y-53790594D01*
X94150035Y-53790594D01*
X94162910Y-53787143D01*
X94166361Y-53774268D01*
X94666361Y-53774268D01*
X94669811Y-53787143D01*
X94682687Y-53790594D01*
X95814519Y-53790594D01*
X95825597Y-53787883D01*
X95824355Y-53776544D01*
X95752468Y-53579034D01*
X95747908Y-53569256D01*
X95635213Y-53374061D01*
X95629027Y-53365227D01*
X95520435Y-53235811D01*
X95516792Y-53231836D01*
X95225118Y-52940162D01*
X95221143Y-52936519D01*
X95091727Y-52827927D01*
X95082893Y-52821741D01*
X94887697Y-52709045D01*
X94877924Y-52704488D01*
X94680409Y-52632598D01*
X94669071Y-52631356D01*
X94666361Y-52642435D01*
X94666361Y-53774268D01*
X94166361Y-53774268D01*
X94166361Y-52602664D01*
X94163979Y-52591920D01*
X94152986Y-52591440D01*
X93964893Y-52624605D01*
X93954463Y-52627400D01*
X93737581Y-52706339D01*
X93736947Y-52704599D01*
X93677724Y-52713966D01*
X93614811Y-52687247D01*
X93575613Y-52631252D01*
X93572041Y-52562993D01*
X93605178Y-52503214D01*
X93855574Y-52252818D01*
X93895802Y-52225939D01*
X93943255Y-52216500D01*
X95194992Y-52216500D01*
X95262031Y-52236184D01*
X95307786Y-52288988D01*
X95327200Y-52331500D01*
X95332623Y-52343373D01*
X95338430Y-52350075D01*
X95338431Y-52350076D01*
X95421065Y-52445442D01*
X95421067Y-52445444D01*
X95426872Y-52452143D01*
X95547947Y-52529953D01*
X95686039Y-52570500D01*
X95821090Y-52570500D01*
X95829961Y-52570500D01*
X95968053Y-52529953D01*
X96089128Y-52452143D01*
X96183377Y-52343373D01*
X96243165Y-52212457D01*
X96263647Y-52070000D01*
X96243165Y-51927543D01*
X96183377Y-51796627D01*
X96089128Y-51687857D01*
X95968053Y-51610047D01*
X95959542Y-51607548D01*
X95959540Y-51607547D01*
X95851737Y-51575894D01*
X95798991Y-51544598D01*
X95764916Y-51510523D01*
X95764915Y-51510522D01*
X95764909Y-51510516D01*
X95764905Y-51510513D01*
X95742342Y-51487950D01*
X95733649Y-51483520D01*
X95733647Y-51483519D01*
X95722598Y-51477889D01*
X95706015Y-51467726D01*
X95695987Y-51460440D01*
X95695980Y-51460436D01*
X95688090Y-51454704D01*
X95667019Y-51447857D01*
X95649044Y-51440412D01*
X95637999Y-51434784D01*
X95637996Y-51434783D01*
X95629304Y-51430354D01*
X95619667Y-51428827D01*
X95619666Y-51428827D01*
X95607418Y-51426887D01*
X95588506Y-51422346D01*
X95576717Y-51418516D01*
X95576714Y-51418515D01*
X95567433Y-51415500D01*
X95535519Y-51415500D01*
X93789433Y-51415500D01*
X93662567Y-51415500D01*
X93653288Y-51418514D01*
X93653285Y-51418515D01*
X93641492Y-51422347D01*
X93622582Y-51426886D01*
X93600696Y-51430354D01*
X93592009Y-51434779D01*
X93592000Y-51434783D01*
X93580954Y-51440412D01*
X93562987Y-51447854D01*
X93551195Y-51451685D01*
X93551184Y-51451690D01*
X93541910Y-51454704D01*
X93534018Y-51460437D01*
X93534009Y-51460442D01*
X93523976Y-51467731D01*
X93507398Y-51477890D01*
X93496358Y-51483515D01*
X93496349Y-51483520D01*
X93487658Y-51487950D01*
X93480761Y-51494846D01*
X93480755Y-51494851D01*
X93465094Y-51510513D01*
X92580426Y-52395181D01*
X92540198Y-52422061D01*
X92492745Y-52431500D01*
X90741433Y-52431500D01*
X90614567Y-52431500D01*
X90605291Y-52434513D01*
X90605283Y-52434515D01*
X90593491Y-52438347D01*
X90574582Y-52442886D01*
X90562339Y-52444825D01*
X90562330Y-52444827D01*
X90552696Y-52446354D01*
X90544002Y-52450783D01*
X90543997Y-52450785D01*
X90532951Y-52456413D01*
X90514989Y-52463853D01*
X90503194Y-52467686D01*
X90503186Y-52467690D01*
X90493911Y-52470704D01*
X90486023Y-52476434D01*
X90486016Y-52476438D01*
X90475978Y-52483731D01*
X90459405Y-52493886D01*
X90448359Y-52499515D01*
X90448353Y-52499519D01*
X90439658Y-52503950D01*
X90432761Y-52510846D01*
X90432755Y-52510851D01*
X90417094Y-52526513D01*
X88770426Y-54173181D01*
X88730198Y-54200061D01*
X88682745Y-54209500D01*
X87206974Y-54209500D01*
X87139935Y-54189816D01*
X87114050Y-54173181D01*
X87078053Y-54150047D01*
X87022863Y-54133841D01*
X86948473Y-54111999D01*
X86948470Y-54111998D01*
X86939961Y-54109500D01*
X86796039Y-54109500D01*
X86787530Y-54111998D01*
X86787526Y-54111999D01*
X86700777Y-54137471D01*
X86657947Y-54150047D01*
X86650484Y-54154842D01*
X86650484Y-54154843D01*
X86544329Y-54223064D01*
X86544325Y-54223066D01*
X86536872Y-54227857D01*
X86531070Y-54234551D01*
X86531065Y-54234557D01*
X86448431Y-54329923D01*
X86448428Y-54329927D01*
X86442623Y-54336627D01*
X86438941Y-54344689D01*
X86438938Y-54344694D01*
X86386520Y-54459473D01*
X86382835Y-54467543D01*
X86381573Y-54476316D01*
X86381572Y-54476322D01*
X86372722Y-54537877D01*
X86345131Y-54599747D01*
X86289143Y-54637884D01*
X86221467Y-54640905D01*
X86162303Y-54607910D01*
X85018819Y-53464426D01*
X84991939Y-53424198D01*
X84982500Y-53376745D01*
X84982500Y-53178158D01*
X85002074Y-53111492D01*
X85007377Y-53105373D01*
X85067165Y-52974457D01*
X85087647Y-52832000D01*
X85067165Y-52689543D01*
X85007377Y-52558627D01*
X85001568Y-52551923D01*
X84918934Y-52456557D01*
X84918932Y-52456555D01*
X84913128Y-52449857D01*
X84792053Y-52372047D01*
X84717226Y-52350076D01*
X84662473Y-52333999D01*
X84662470Y-52333998D01*
X84653961Y-52331500D01*
X84510039Y-52331500D01*
X84501530Y-52333998D01*
X84501526Y-52333999D01*
X84380461Y-52369547D01*
X84371947Y-52372047D01*
X84364484Y-52376842D01*
X84364484Y-52376843D01*
X84258329Y-52445064D01*
X84258325Y-52445066D01*
X84250872Y-52449857D01*
X84245070Y-52456551D01*
X84245065Y-52456557D01*
X84162431Y-52551923D01*
X84162428Y-52551927D01*
X84156623Y-52558627D01*
X84152941Y-52566689D01*
X84152938Y-52566694D01*
X84114596Y-52650652D01*
X84096835Y-52689543D01*
X84095573Y-52698316D01*
X84095572Y-52698322D01*
X84082315Y-52790532D01*
X84076353Y-52832000D01*
X84077615Y-52840777D01*
X84095572Y-52965677D01*
X84095573Y-52965681D01*
X84096835Y-52974457D01*
X84100519Y-52982525D01*
X84100520Y-52982526D01*
X84152939Y-53097308D01*
X84152941Y-53097312D01*
X84156623Y-53105373D01*
X84161925Y-53111492D01*
X84181500Y-53178158D01*
X84181500Y-56932745D01*
X84172061Y-56980198D01*
X84145181Y-57020426D01*
X82674426Y-58491181D01*
X82634198Y-58518061D01*
X82586745Y-58527500D01*
X82010481Y-58527500D01*
X82010477Y-58527500D01*
X82010469Y-58527501D01*
X81978567Y-58527501D01*
X81962928Y-58532581D01*
X81957496Y-58534347D01*
X81938585Y-58538887D01*
X81926335Y-58540827D01*
X81926333Y-58540827D01*
X81916696Y-58542354D01*
X81908001Y-58546784D01*
X81907995Y-58546786D01*
X81896949Y-58552414D01*
X81878986Y-58559855D01*
X81867186Y-58563689D01*
X81867181Y-58563691D01*
X81857910Y-58566704D01*
X81850024Y-58572433D01*
X81850013Y-58572439D01*
X81839983Y-58579727D01*
X81823400Y-58589890D01*
X81812355Y-58595517D01*
X81812347Y-58595522D01*
X81803658Y-58599950D01*
X81796757Y-58606850D01*
X81796755Y-58606852D01*
X81781093Y-58622513D01*
X81781091Y-58622515D01*
X81781090Y-58622517D01*
X81781091Y-58622517D01*
X81228516Y-59175091D01*
X81228513Y-59175094D01*
X81212851Y-59190755D01*
X81212846Y-59190761D01*
X81205950Y-59197658D01*
X81201520Y-59206349D01*
X81201515Y-59206358D01*
X81195890Y-59217398D01*
X81185731Y-59233976D01*
X81178442Y-59244009D01*
X81178437Y-59244018D01*
X81172704Y-59251910D01*
X81169690Y-59261184D01*
X81169685Y-59261195D01*
X81165854Y-59272987D01*
X81158412Y-59290954D01*
X81152783Y-59302000D01*
X81152779Y-59302009D01*
X81148354Y-59310696D01*
X81146392Y-59323081D01*
X81144887Y-59332582D01*
X81140347Y-59351492D01*
X81136515Y-59363285D01*
X81136514Y-59363288D01*
X81133500Y-59372567D01*
X81133500Y-59404481D01*
X81133500Y-60134567D01*
X81133500Y-60261433D01*
X78836845Y-60261433D01*
X78833783Y-59994026D01*
X78834425Y-59979954D01*
X79013429Y-58239325D01*
X79016405Y-58222245D01*
X79409400Y-56634489D01*
X79415017Y-56617293D01*
X80035176Y-55103459D01*
X80043675Y-55086532D01*
X81025997Y-53454768D01*
X81039224Y-53436715D01*
X81094469Y-53374061D01*
X82329246Y-51973674D01*
X82343610Y-51959814D01*
X83739222Y-50814993D01*
X83755971Y-50803417D01*
X85311947Y-49907218D01*
X85330138Y-49898624D01*
X87030764Y-49258477D01*
X87049447Y-49253077D01*
X88879235Y-48876779D01*
X88896983Y-48874450D01*
X90547238Y-48778322D01*
X90564558Y-48778524D01*
G37*
G04 #@! TD.AperFunction*
M02*
