G04 #@! TF.GenerationSoftware,KiCad,Pcbnew,(7.0.0)*
G04 #@! TF.CreationDate,2023-04-23T00:27:49-06:00*
G04 #@! TF.ProjectId,Fonocardiograma_V3A,466f6e6f-6361-4726-9469-6f6772616d61,rev?*
G04 #@! TF.SameCoordinates,Original*
G04 #@! TF.FileFunction,Legend,Bot*
G04 #@! TF.FilePolarity,Positive*
%FSLAX46Y46*%
G04 Gerber Fmt 4.6, Leading zero omitted, Abs format (unit mm)*
G04 Created by KiCad (PCBNEW (7.0.0)) date 2023-04-23 00:27:49*
%MOMM*%
%LPD*%
G01*
G04 APERTURE LIST*
%ADD10C,0.000000*%
%ADD11C,0.150000*%
%ADD12C,0.004233*%
%ADD13C,0.300000*%
%ADD14C,0.120000*%
G04 APERTURE END LIST*
D10*
G36*
X109301647Y-49787666D02*
G01*
X109377338Y-49758590D01*
X109604401Y-49983724D01*
X109831466Y-50208858D01*
X109786709Y-50323186D01*
X109769313Y-50368010D01*
X109755033Y-50405542D01*
X109745344Y-50431850D01*
X109742683Y-50439566D01*
X109741722Y-50443002D01*
X109741808Y-50443247D01*
X109742092Y-50443411D01*
X109742567Y-50443502D01*
X109743228Y-50443515D01*
X109745089Y-50443324D01*
X109747637Y-50442852D01*
X109750833Y-50442107D01*
X109754639Y-50441107D01*
X109759013Y-50439862D01*
X109763919Y-50438380D01*
X109775167Y-50434762D01*
X109788071Y-50430356D01*
X109802322Y-50425256D01*
X109817607Y-50419553D01*
X109833147Y-50413761D01*
X109847683Y-50408599D01*
X109861303Y-50404052D01*
X109874086Y-50400110D01*
X109886119Y-50396761D01*
X109897481Y-50393996D01*
X109908255Y-50391803D01*
X109918529Y-50390170D01*
X109928378Y-50389086D01*
X109937893Y-50388541D01*
X109947152Y-50388521D01*
X109956238Y-50389020D01*
X109965233Y-50390021D01*
X109974226Y-50391516D01*
X109983292Y-50393494D01*
X109992520Y-50395943D01*
X110023617Y-50404869D01*
X110831843Y-51213094D01*
X110840635Y-51240252D01*
X110842142Y-51245241D01*
X110843470Y-51250342D01*
X110844617Y-51255556D01*
X110845580Y-51260890D01*
X110846363Y-51266349D01*
X110846961Y-51271936D01*
X110847374Y-51277660D01*
X110847602Y-51283518D01*
X110847642Y-51289521D01*
X110847496Y-51295672D01*
X110846638Y-51308437D01*
X110845020Y-51321852D01*
X110842632Y-51335950D01*
X110839469Y-51350771D01*
X110835526Y-51366352D01*
X110830793Y-51382732D01*
X110825263Y-51399948D01*
X110818931Y-51418036D01*
X110811786Y-51437033D01*
X110803822Y-51456980D01*
X110795035Y-51477913D01*
X110794305Y-51479674D01*
X110793655Y-51481381D01*
X110793085Y-51483027D01*
X110792590Y-51484597D01*
X110792176Y-51486091D01*
X110791844Y-51487498D01*
X110791593Y-51488805D01*
X110791427Y-51490005D01*
X110791343Y-51491094D01*
X110791345Y-51492057D01*
X110791431Y-51492889D01*
X110791605Y-51493582D01*
X110791724Y-51493874D01*
X110791866Y-51494125D01*
X110792031Y-51494338D01*
X110792217Y-51494512D01*
X110792425Y-51494640D01*
X110792656Y-51494730D01*
X110792909Y-51494776D01*
X110793186Y-51494774D01*
X110794350Y-51494499D01*
X110796650Y-51493781D01*
X110804408Y-51491107D01*
X110830839Y-51481455D01*
X110868528Y-51467286D01*
X110913524Y-51450061D01*
X111028281Y-51405795D01*
X111253330Y-51632714D01*
X111478381Y-51859631D01*
X111278862Y-52378535D01*
X110912172Y-53332686D01*
X110737954Y-53785218D01*
X110730914Y-53802501D01*
X110281375Y-53352962D01*
X110297114Y-53310702D01*
X110527941Y-52708986D01*
X110679919Y-52312381D01*
X110743281Y-52144466D01*
X110743139Y-52144266D01*
X110742692Y-52144187D01*
X110740910Y-52144381D01*
X110737997Y-52145029D01*
X110734013Y-52146106D01*
X110723075Y-52149476D01*
X110708582Y-52154321D01*
X110691026Y-52160474D01*
X110670885Y-52167773D01*
X110648651Y-52176043D01*
X110624805Y-52185126D01*
X110506072Y-52230847D01*
X110329948Y-52688839D01*
X110142926Y-53175224D01*
X110132034Y-53203623D01*
X109680801Y-52752386D01*
X109725539Y-52638098D01*
X109742925Y-52593287D01*
X109757191Y-52555760D01*
X109766868Y-52529450D01*
X109769523Y-52521730D01*
X109770475Y-52518289D01*
X109770388Y-52518042D01*
X109770102Y-52517875D01*
X109769625Y-52517784D01*
X109768961Y-52517770D01*
X109767099Y-52517957D01*
X109764548Y-52518427D01*
X109761345Y-52519167D01*
X109757541Y-52520166D01*
X109753163Y-52521409D01*
X109748256Y-52522888D01*
X109737003Y-52526501D01*
X109724097Y-52530904D01*
X109709843Y-52536004D01*
X109694558Y-52541706D01*
X109679018Y-52547497D01*
X109664480Y-52552661D01*
X109650860Y-52557207D01*
X109638076Y-52561149D01*
X109626046Y-52564498D01*
X109614683Y-52567262D01*
X109603906Y-52569453D01*
X109593636Y-52571088D01*
X109583781Y-52572170D01*
X109574270Y-52572718D01*
X109565011Y-52572736D01*
X109555925Y-52572239D01*
X109546927Y-52571237D01*
X109537937Y-52569742D01*
X109528869Y-52567764D01*
X109519642Y-52565316D01*
X109488544Y-52556388D01*
X108680322Y-51748165D01*
X108671530Y-51721004D01*
X108670021Y-51716016D01*
X108668693Y-51710917D01*
X108667548Y-51705702D01*
X108666581Y-51700369D01*
X108665800Y-51694909D01*
X108665203Y-51689321D01*
X108664791Y-51683598D01*
X108664562Y-51677740D01*
X108664521Y-51671737D01*
X108664667Y-51665584D01*
X108664668Y-51665566D01*
X108738673Y-51665566D01*
X108738864Y-51670470D01*
X108739254Y-51675346D01*
X108739843Y-51680196D01*
X108740633Y-51685016D01*
X108741621Y-51689803D01*
X108742805Y-51694554D01*
X108744190Y-51699262D01*
X108744762Y-51700777D01*
X108745616Y-51702518D01*
X108748345Y-51706883D01*
X108752758Y-51712740D01*
X108759227Y-51720478D01*
X108768132Y-51730486D01*
X108779849Y-51743148D01*
X108794752Y-51758856D01*
X108813218Y-51777995D01*
X108862348Y-51828122D01*
X108930248Y-51896625D01*
X109019928Y-51986610D01*
X109134404Y-52101174D01*
X109341110Y-52307547D01*
X109459657Y-52424504D01*
X109516460Y-52477680D01*
X109529969Y-52488360D01*
X109537950Y-52492709D01*
X109537951Y-52492711D01*
X109540899Y-52493712D01*
X109543843Y-52494611D01*
X109546796Y-52495401D01*
X109549777Y-52496083D01*
X109552796Y-52496651D01*
X109555873Y-52497102D01*
X109559022Y-52497432D01*
X109562258Y-52497641D01*
X109565597Y-52497720D01*
X109569050Y-52497672D01*
X109572641Y-52497488D01*
X109576376Y-52497169D01*
X109580276Y-52496711D01*
X109584354Y-52496109D01*
X109588631Y-52495363D01*
X109593113Y-52494464D01*
X109597823Y-52493413D01*
X109602771Y-52492210D01*
X109613451Y-52489318D01*
X109625278Y-52485766D01*
X109638369Y-52481522D01*
X109652855Y-52476568D01*
X109668851Y-52470871D01*
X109686485Y-52464408D01*
X109705878Y-52457153D01*
X109810129Y-52417838D01*
X109898664Y-52186400D01*
X109917872Y-52136371D01*
X110542785Y-52136371D01*
X110558806Y-52129944D01*
X110953399Y-51978234D01*
X111338668Y-51830222D01*
X111339056Y-51829924D01*
X111339209Y-51829423D01*
X111339114Y-51828709D01*
X111338761Y-51827772D01*
X111338138Y-51826596D01*
X111337232Y-51825170D01*
X111334530Y-51821524D01*
X111330561Y-51816734D01*
X111325230Y-51810702D01*
X111318448Y-51803332D01*
X111310118Y-51794526D01*
X111300147Y-51784187D01*
X111288442Y-51772215D01*
X111259462Y-51742990D01*
X111222432Y-51706069D01*
X111176604Y-51660675D01*
X111007834Y-51493854D01*
X110883549Y-51541692D01*
X110834849Y-51560678D01*
X110794126Y-51577011D01*
X110765639Y-51588949D01*
X110757319Y-51592727D01*
X110753654Y-51594754D01*
X110746450Y-51610807D01*
X110729711Y-51651968D01*
X110676693Y-51786391D01*
X110612747Y-51951541D01*
X110556011Y-52100955D01*
X110542785Y-52136371D01*
X109917872Y-52136371D01*
X109965781Y-52011589D01*
X110002821Y-51916296D01*
X110005848Y-51908533D01*
X110008458Y-51901301D01*
X110010607Y-51894752D01*
X110012258Y-51889051D01*
X110012882Y-51886567D01*
X110013366Y-51884352D01*
X110013702Y-51882426D01*
X110013887Y-51880812D01*
X110013918Y-51879528D01*
X110013784Y-51878591D01*
X110013655Y-51878260D01*
X110013487Y-51878024D01*
X110013271Y-51877884D01*
X110013013Y-51877845D01*
X110007019Y-51879782D01*
X109991947Y-51885249D01*
X109938608Y-51905250D01*
X109861051Y-51934797D01*
X109767342Y-51970838D01*
X109587795Y-52039403D01*
X109525490Y-52062629D01*
X109493476Y-52073970D01*
X109484497Y-52076530D01*
X109475397Y-52078717D01*
X109466191Y-52080539D01*
X109456893Y-52081994D01*
X109447517Y-52083094D01*
X109438080Y-52083839D01*
X109428593Y-52084234D01*
X109419070Y-52084281D01*
X109409529Y-52083989D01*
X109399981Y-52083357D01*
X109390443Y-52082395D01*
X109380925Y-52081100D01*
X109371444Y-52079483D01*
X109362016Y-52077544D01*
X109352651Y-52075289D01*
X109343366Y-52072721D01*
X109334175Y-52069844D01*
X109325093Y-52066666D01*
X109316132Y-52063184D01*
X109307308Y-52059409D01*
X109298635Y-52055343D01*
X109290127Y-52050991D01*
X109281799Y-52046352D01*
X109273664Y-52041437D01*
X109265737Y-52036248D01*
X109258032Y-52030786D01*
X109250564Y-52025060D01*
X109243345Y-52019071D01*
X109236394Y-52012826D01*
X109229718Y-52006325D01*
X109223338Y-51999576D01*
X109217267Y-51992583D01*
X109206583Y-51978855D01*
X109196811Y-51964504D01*
X109187964Y-51949602D01*
X109180057Y-51934218D01*
X109173104Y-51918425D01*
X109167119Y-51902291D01*
X109162119Y-51885887D01*
X109158119Y-51869288D01*
X109155130Y-51852556D01*
X109153171Y-51835767D01*
X109152254Y-51818991D01*
X109152304Y-51813182D01*
X109229080Y-51813182D01*
X109229174Y-51822001D01*
X109229531Y-51830819D01*
X109230144Y-51839542D01*
X109231008Y-51848072D01*
X109232126Y-51856309D01*
X109233493Y-51864162D01*
X109235104Y-51871528D01*
X109236962Y-51878316D01*
X109239060Y-51884424D01*
X109242794Y-51893441D01*
X109246918Y-51902189D01*
X109251425Y-51910666D01*
X109256310Y-51918865D01*
X109261570Y-51926779D01*
X109267194Y-51934402D01*
X109273184Y-51941731D01*
X109279528Y-51948757D01*
X109286223Y-51955476D01*
X109293266Y-51961880D01*
X109300644Y-51967966D01*
X109308360Y-51973726D01*
X109316402Y-51979154D01*
X109324770Y-51984246D01*
X109333452Y-51988994D01*
X109342447Y-51993392D01*
X109349196Y-51996207D01*
X109356551Y-51998721D01*
X109364426Y-52000925D01*
X109372743Y-52002824D01*
X109381422Y-52004407D01*
X109390385Y-52005671D01*
X109399547Y-52006615D01*
X109408830Y-52007234D01*
X109418152Y-52007523D01*
X109427435Y-52007481D01*
X109436596Y-52007100D01*
X109445554Y-52006375D01*
X109454230Y-52005308D01*
X109462544Y-52003892D01*
X109470417Y-52002122D01*
X109477764Y-51999995D01*
X109584449Y-51960208D01*
X109779633Y-51885384D01*
X109967895Y-51812327D01*
X110053813Y-51777842D01*
X110088220Y-51691858D01*
X110161226Y-51503354D01*
X110236000Y-51308000D01*
X110275703Y-51201474D01*
X110277360Y-51195762D01*
X110278810Y-51189430D01*
X110280053Y-51182569D01*
X110281088Y-51175270D01*
X110281913Y-51167623D01*
X110282527Y-51159716D01*
X110282932Y-51151643D01*
X110283125Y-51143492D01*
X110283106Y-51135354D01*
X110282871Y-51127317D01*
X110282665Y-51123766D01*
X110282421Y-51119474D01*
X110281757Y-51111915D01*
X110280873Y-51104730D01*
X110279774Y-51098009D01*
X110278457Y-51091839D01*
X110276917Y-51086318D01*
X110273741Y-51077355D01*
X110269937Y-51068416D01*
X110265547Y-51059535D01*
X110260608Y-51050758D01*
X110255156Y-51042125D01*
X110249232Y-51033681D01*
X110242869Y-51025464D01*
X110236111Y-51017522D01*
X110228986Y-51009892D01*
X110221541Y-51002618D01*
X110213807Y-50995743D01*
X110205827Y-50989309D01*
X110197635Y-50983355D01*
X110189268Y-50977928D01*
X110180765Y-50973067D01*
X110172165Y-50968813D01*
X110165000Y-50965837D01*
X110157303Y-50963174D01*
X110149151Y-50960827D01*
X110140616Y-50958805D01*
X110131770Y-50957105D01*
X110122688Y-50955740D01*
X110113440Y-50954705D01*
X110104104Y-50954012D01*
X110094747Y-50953658D01*
X110085445Y-50953652D01*
X110076274Y-50953995D01*
X110067304Y-50954696D01*
X110058606Y-50955751D01*
X110050258Y-50957171D01*
X110042329Y-50958962D01*
X110034896Y-50961118D01*
X109928564Y-51000795D01*
X109733192Y-51075650D01*
X109544588Y-51148763D01*
X109458550Y-51183218D01*
X109424248Y-51269031D01*
X109351016Y-51457587D01*
X109275876Y-51653054D01*
X109235859Y-51759595D01*
X109234075Y-51765700D01*
X109232565Y-51772482D01*
X109231330Y-51779846D01*
X109230367Y-51787696D01*
X109229673Y-51795934D01*
X109229243Y-51804460D01*
X109229080Y-51813182D01*
X109152304Y-51813182D01*
X109152397Y-51802299D01*
X109153612Y-51785760D01*
X109155914Y-51769446D01*
X109159319Y-51753424D01*
X109163840Y-51737769D01*
X109182387Y-51688153D01*
X109247173Y-51518710D01*
X109398882Y-51123553D01*
X109615861Y-50558376D01*
X109703904Y-50327632D01*
X109730717Y-50256169D01*
X109740602Y-50228414D01*
X109739755Y-50226997D01*
X109737238Y-50223946D01*
X109727547Y-50213302D01*
X109712205Y-50197175D01*
X109691893Y-50176259D01*
X109639093Y-50122856D01*
X109574595Y-50058662D01*
X109408444Y-49894462D01*
X109261840Y-50275451D01*
X108745883Y-51620776D01*
X108744290Y-51625780D01*
X108742890Y-51630783D01*
X108741692Y-51635781D01*
X108740694Y-51640775D01*
X108739892Y-51645761D01*
X108739290Y-51650738D01*
X108738885Y-51655698D01*
X108738679Y-51660642D01*
X108738673Y-51665566D01*
X108664668Y-51665566D01*
X108665525Y-51652820D01*
X108667148Y-51639406D01*
X108669532Y-51625308D01*
X108672695Y-51610488D01*
X108676638Y-51594905D01*
X108681372Y-51578526D01*
X108686901Y-51561310D01*
X108693234Y-51543222D01*
X108700379Y-51524223D01*
X108708342Y-51504277D01*
X108717131Y-51483344D01*
X108717858Y-51481581D01*
X108718507Y-51479876D01*
X108719079Y-51478232D01*
X108719570Y-51476655D01*
X108719982Y-51475162D01*
X108720312Y-51473755D01*
X108720564Y-51472445D01*
X108720726Y-51471241D01*
X108720809Y-51470152D01*
X108720804Y-51469186D01*
X108720716Y-51468350D01*
X108720537Y-51467654D01*
X108720417Y-51467363D01*
X108720273Y-51467109D01*
X108720109Y-51466894D01*
X108719920Y-51466719D01*
X108719710Y-51466587D01*
X108719478Y-51466497D01*
X108719222Y-51466450D01*
X108718944Y-51466448D01*
X108717778Y-51466722D01*
X108715476Y-51467435D01*
X108707715Y-51470102D01*
X108681288Y-51479743D01*
X108643614Y-51493908D01*
X108598642Y-51511126D01*
X108483955Y-51555390D01*
X108033260Y-51104847D01*
X108056068Y-51095848D01*
X108542177Y-50908829D01*
X109005479Y-50730807D01*
X109051787Y-50611992D01*
X109069337Y-50565874D01*
X109082878Y-50528139D01*
X109087729Y-50513628D01*
X109091077Y-50502676D01*
X109092755Y-50495766D01*
X109092916Y-50493977D01*
X109092815Y-50493527D01*
X109092593Y-50493381D01*
X109044625Y-50511108D01*
X108918083Y-50559218D01*
X108506236Y-50717213D01*
X107904276Y-50947798D01*
X107883173Y-50954757D01*
X107434211Y-50505795D01*
X107451457Y-50498722D01*
X107976975Y-50296462D01*
X108931292Y-49929935D01*
X109301647Y-49787666D01*
G37*
G36*
X95503329Y-67411162D02*
G01*
X95636774Y-67277719D01*
X95757360Y-67277720D01*
X95877942Y-67277719D01*
X95975181Y-67200879D01*
X96072418Y-67124038D01*
X96059707Y-67041167D01*
X96046995Y-66958297D01*
X96117160Y-67028460D01*
X96126966Y-66986935D01*
X96136767Y-66945406D01*
X96179364Y-66966703D01*
X96221963Y-66987999D01*
X96264549Y-66854206D01*
X96307135Y-66720406D01*
X96370459Y-66692205D01*
X96433787Y-66664002D01*
X96436656Y-66847816D01*
X96439526Y-67031631D01*
X96515081Y-67038652D01*
X96590636Y-67045677D01*
X96563702Y-67134622D01*
X96561152Y-67143875D01*
X96559045Y-67153239D01*
X96557377Y-67162656D01*
X96556148Y-67172061D01*
X96555347Y-67181383D01*
X96554976Y-67190564D01*
X96555020Y-67199537D01*
X96555480Y-67208238D01*
X96556355Y-67216604D01*
X96557633Y-67224570D01*
X96559309Y-67232065D01*
X96561386Y-67239035D01*
X96563848Y-67245413D01*
X96566696Y-67251129D01*
X96568264Y-67253718D01*
X96569927Y-67256120D01*
X96571684Y-67258327D01*
X96573531Y-67260324D01*
X96575408Y-67262352D01*
X96577247Y-67264628D01*
X96580807Y-67269893D01*
X96584191Y-67276056D01*
X96587385Y-67283036D01*
X96590367Y-67290764D01*
X96593133Y-67299166D01*
X96595656Y-67308166D01*
X96597927Y-67317694D01*
X96599923Y-67327673D01*
X96601634Y-67338034D01*
X96603041Y-67348694D01*
X96604126Y-67359591D01*
X96604879Y-67370643D01*
X96605276Y-67381779D01*
X96605308Y-67392925D01*
X96604957Y-67404004D01*
X96604543Y-67415026D01*
X96604403Y-67426000D01*
X96604517Y-67436849D01*
X96604884Y-67447519D01*
X96605486Y-67457929D01*
X96606316Y-67468018D01*
X96607368Y-67477710D01*
X96608624Y-67486952D01*
X96610077Y-67495664D01*
X96611719Y-67503780D01*
X96613539Y-67511242D01*
X96615526Y-67517967D01*
X96617664Y-67523901D01*
X96619955Y-67528966D01*
X96622380Y-67533097D01*
X96623637Y-67534795D01*
X96624930Y-67536229D01*
X96650235Y-67561534D01*
X96668918Y-67455479D01*
X96687606Y-67349421D01*
X96859069Y-67177957D01*
X96961475Y-67159915D01*
X97063882Y-67141874D01*
X97183790Y-67204203D01*
X97196537Y-67211129D01*
X97209971Y-67218994D01*
X97238455Y-67237172D01*
X97268319Y-67258035D01*
X97298657Y-67280865D01*
X97328551Y-67304957D01*
X97357091Y-67329596D01*
X97383359Y-67354066D01*
X97395362Y-67366017D01*
X97406449Y-67377659D01*
X97509202Y-67488792D01*
X97394464Y-67473836D01*
X97370891Y-67470334D01*
X97347889Y-67466110D01*
X97326040Y-67461320D01*
X97305910Y-67456125D01*
X97296672Y-67453427D01*
X97288079Y-67450688D01*
X97280206Y-67447926D01*
X97273120Y-67445169D01*
X97266901Y-67442433D01*
X97261617Y-67439733D01*
X97257333Y-67437097D01*
X97254132Y-67434538D01*
X97252704Y-67433306D01*
X97251075Y-67432122D01*
X97249249Y-67430981D01*
X97247228Y-67429887D01*
X97242640Y-67427853D01*
X97237377Y-67426021D01*
X97231493Y-67424389D01*
X97225039Y-67422978D01*
X97218083Y-67421787D01*
X97210678Y-67420820D01*
X97202881Y-67420087D01*
X97194745Y-67419592D01*
X97186338Y-67419346D01*
X97177711Y-67419351D01*
X97168919Y-67419614D01*
X97160022Y-67420144D01*
X97151079Y-67420943D01*
X97142146Y-67422023D01*
X97133175Y-67423389D01*
X97124119Y-67425035D01*
X97115041Y-67426939D01*
X97106001Y-67429075D01*
X97097061Y-67431428D01*
X97088279Y-67433967D01*
X97079723Y-67436682D01*
X97071445Y-67439540D01*
X97063517Y-67442520D01*
X97055990Y-67445604D01*
X97048933Y-67448772D01*
X97042404Y-67451995D01*
X97036462Y-67455259D01*
X97031173Y-67458530D01*
X97026591Y-67461801D01*
X97022782Y-67465035D01*
X97021132Y-67466719D01*
X97019576Y-67468540D01*
X97018107Y-67470497D01*
X97016733Y-67472586D01*
X97015458Y-67474798D01*
X97014273Y-67477122D01*
X97013188Y-67479562D01*
X97012194Y-67482111D01*
X97011298Y-67484753D01*
X97010497Y-67487489D01*
X97009184Y-67493221D01*
X97008263Y-67499250D01*
X97007727Y-67505534D01*
X97007585Y-67512022D01*
X97007842Y-67518663D01*
X97008496Y-67525417D01*
X97009551Y-67532229D01*
X97011006Y-67539050D01*
X97012869Y-67545836D01*
X97015140Y-67552536D01*
X97017822Y-67559104D01*
X97045826Y-67621988D01*
X97104691Y-67535301D01*
X97163553Y-67448613D01*
X97219622Y-67473585D01*
X97275690Y-67498554D01*
X97307203Y-67602640D01*
X97338719Y-67706725D01*
X97300067Y-67785378D01*
X97295929Y-67793522D01*
X97291509Y-67801713D01*
X97281998Y-67818000D01*
X97271847Y-67833802D01*
X97261374Y-67848691D01*
X97256115Y-67855656D01*
X97250897Y-67862234D01*
X97245756Y-67868365D01*
X97240735Y-67874001D01*
X97235871Y-67879082D01*
X97231201Y-67883557D01*
X97226773Y-67887376D01*
X97222622Y-67890482D01*
X97183826Y-67916938D01*
X97247965Y-67954483D01*
X97312103Y-67992032D01*
X97317680Y-68138677D01*
X97323251Y-68285318D01*
X97122133Y-68486438D01*
X97200339Y-68674832D01*
X97232139Y-68753192D01*
X97260913Y-68827282D01*
X97283492Y-68888743D01*
X97291476Y-68912132D01*
X97296728Y-68929234D01*
X97314910Y-68995240D01*
X97249446Y-69078464D01*
X97183982Y-69161691D01*
X97062817Y-69040591D01*
X96941651Y-68919490D01*
X96659515Y-69202144D01*
X96377386Y-69484797D01*
X96173224Y-69532311D01*
X95969063Y-69579826D01*
X95837731Y-69446335D01*
X95807305Y-69416119D01*
X95771099Y-69381354D01*
X95686762Y-69303106D01*
X95595531Y-69221436D01*
X95550713Y-69182396D01*
X95508223Y-69146196D01*
X95310044Y-68979552D01*
X95234873Y-68746026D01*
X95159697Y-68512506D01*
X95206538Y-68278714D01*
X95253382Y-68044923D01*
X95208045Y-67968512D01*
X95180579Y-67922219D01*
X95300971Y-67922219D01*
X95337439Y-67969938D01*
X95358449Y-67997978D01*
X95388686Y-68039047D01*
X95460688Y-68138190D01*
X95547470Y-68258720D01*
X95509821Y-68331378D01*
X95472174Y-68404038D01*
X95520515Y-68452372D01*
X95526084Y-68458391D01*
X95532755Y-68466381D01*
X95549066Y-68487754D01*
X95568742Y-68515438D01*
X95591073Y-68548364D01*
X95615349Y-68585472D01*
X95640871Y-68625697D01*
X95666936Y-68667982D01*
X95692823Y-68711263D01*
X95816793Y-68921814D01*
X95833497Y-69101552D01*
X95850202Y-69281290D01*
X95933130Y-69366742D01*
X96016060Y-69452193D01*
X96194991Y-69403352D01*
X96194991Y-69403353D01*
X96373919Y-69354511D01*
X96380704Y-69281516D01*
X96387489Y-69208521D01*
X96455791Y-69177890D01*
X96524093Y-69147256D01*
X96453674Y-69146997D01*
X96446240Y-69146712D01*
X96438510Y-69145926D01*
X96430540Y-69144662D01*
X96422392Y-69142953D01*
X96414130Y-69140819D01*
X96405813Y-69138292D01*
X96397507Y-69135388D01*
X96389270Y-69132141D01*
X96381165Y-69128570D01*
X96373256Y-69124709D01*
X96365598Y-69120579D01*
X96358261Y-69116202D01*
X96351298Y-69111611D01*
X96344781Y-69106829D01*
X96338763Y-69101879D01*
X96333311Y-69096789D01*
X96327872Y-69090884D01*
X96321897Y-69083533D01*
X96315445Y-69074847D01*
X96308576Y-69064932D01*
X96301353Y-69053896D01*
X96293837Y-69041841D01*
X96278156Y-69015116D01*
X96262017Y-68985601D01*
X96245904Y-68954154D01*
X96230301Y-68921633D01*
X96215683Y-68888879D01*
X96148004Y-68730917D01*
X96245467Y-68633457D01*
X96240004Y-68523943D01*
X96234545Y-68414428D01*
X96328545Y-68337183D01*
X96422546Y-68259934D01*
X96785864Y-68640296D01*
X97149181Y-69020654D01*
X97174934Y-68994898D01*
X97176148Y-68993341D01*
X97177128Y-68991324D01*
X97177882Y-68988867D01*
X97178410Y-68985985D01*
X97178722Y-68982682D01*
X97178815Y-68978981D01*
X97178698Y-68974894D01*
X97178372Y-68970430D01*
X97177103Y-68960431D01*
X97175047Y-68949095D01*
X97172231Y-68936530D01*
X97168682Y-68922841D01*
X97164427Y-68908137D01*
X97159503Y-68892522D01*
X97153935Y-68876108D01*
X97147753Y-68858997D01*
X97140987Y-68841300D01*
X97133664Y-68823124D01*
X97125818Y-68804575D01*
X97117470Y-68785762D01*
X97100289Y-68746297D01*
X97083351Y-68704409D01*
X97067101Y-68661371D01*
X97051970Y-68618465D01*
X97038394Y-68576972D01*
X97026808Y-68538167D01*
X97017649Y-68503337D01*
X97011349Y-68473756D01*
X97005068Y-68443526D01*
X96995952Y-68406840D01*
X96984439Y-68365109D01*
X96970963Y-68319735D01*
X96955947Y-68272138D01*
X96939837Y-68223718D01*
X96923054Y-68175888D01*
X96906031Y-68130062D01*
X96887689Y-68084325D01*
X96867130Y-68036760D01*
X96845044Y-67988758D01*
X96822135Y-67941708D01*
X96799092Y-67897006D01*
X96776617Y-67856037D01*
X96755406Y-67820197D01*
X96736156Y-67790871D01*
X96648699Y-67666752D01*
X96557974Y-67789251D01*
X96467245Y-67911752D01*
X96320235Y-67945646D01*
X96173224Y-67979536D01*
X96084136Y-67926196D01*
X95995049Y-67872857D01*
X95914893Y-67755682D01*
X95834736Y-67638502D01*
X95853550Y-67557103D01*
X95872365Y-67475705D01*
X95793395Y-67422077D01*
X95714419Y-67368453D01*
X95587517Y-67495353D01*
X95595048Y-67576396D01*
X95602584Y-67657437D01*
X95451775Y-67789828D01*
X95300971Y-67922219D01*
X95180579Y-67922219D01*
X95162709Y-67892100D01*
X95493442Y-67599136D01*
X95466004Y-67537530D01*
X95438569Y-67475925D01*
X95503329Y-67411162D01*
G37*
G36*
X112568206Y-49409051D02*
G01*
X112588429Y-49409802D01*
X112608516Y-49411373D01*
X112628456Y-49413758D01*
X112648228Y-49416948D01*
X112667833Y-49420945D01*
X112687244Y-49425747D01*
X112706471Y-49431346D01*
X112725480Y-49437734D01*
X112744268Y-49444909D01*
X112762827Y-49452870D01*
X112781138Y-49461612D01*
X112799191Y-49471129D01*
X112816975Y-49481413D01*
X112834483Y-49492465D01*
X112851691Y-49504281D01*
X112868598Y-49516855D01*
X112897102Y-49540507D01*
X112923581Y-49565785D01*
X112948003Y-49592604D01*
X112970345Y-49620887D01*
X112990575Y-49650556D01*
X113008658Y-49681528D01*
X113024570Y-49713726D01*
X113038282Y-49747063D01*
X113049759Y-49781464D01*
X113058976Y-49816848D01*
X113065894Y-49853137D01*
X113070494Y-49890245D01*
X113072744Y-49928096D01*
X113072609Y-49966608D01*
X113070065Y-50005706D01*
X113065077Y-50045302D01*
X113063184Y-50056822D01*
X113061069Y-50068687D01*
X113058987Y-50079499D01*
X113058045Y-50084077D01*
X113057207Y-50087864D01*
X113056479Y-50091127D01*
X113055858Y-50094196D01*
X113055350Y-50097005D01*
X113054967Y-50099482D01*
X113054717Y-50101559D01*
X113054645Y-50102426D01*
X113054606Y-50103168D01*
X113054611Y-50103772D01*
X113054655Y-50104234D01*
X113054735Y-50104546D01*
X113054792Y-50104638D01*
X113054860Y-50104694D01*
X113054970Y-50104723D01*
X113055155Y-50104730D01*
X113055744Y-50104705D01*
X113056610Y-50104622D01*
X113057732Y-50104481D01*
X113060695Y-50104050D01*
X113064510Y-50103426D01*
X113069058Y-50102632D01*
X113074186Y-50101693D01*
X113079797Y-50100629D01*
X113085746Y-50099461D01*
X113113125Y-50094575D01*
X113140436Y-50090860D01*
X113167633Y-50088310D01*
X113194672Y-50086918D01*
X113221516Y-50086678D01*
X113248114Y-50087581D01*
X113274432Y-50089624D01*
X113300422Y-50092800D01*
X113326045Y-50097097D01*
X113351251Y-50102521D01*
X113376005Y-50109054D01*
X113400264Y-50116700D01*
X113423979Y-50125443D01*
X113447114Y-50135283D01*
X113469621Y-50146215D01*
X113491464Y-50158228D01*
X113515640Y-50173247D01*
X113538890Y-50189495D01*
X113561163Y-50206913D01*
X113582423Y-50225438D01*
X113602630Y-50245018D01*
X113621735Y-50265583D01*
X113639694Y-50287079D01*
X113656475Y-50309449D01*
X113672023Y-50332629D01*
X113686311Y-50356561D01*
X113699281Y-50381186D01*
X113710895Y-50406442D01*
X113721124Y-50432269D01*
X113729908Y-50458617D01*
X113737213Y-50485409D01*
X113742994Y-50512599D01*
X113744348Y-50520560D01*
X113745573Y-50528919D01*
X113746668Y-50537618D01*
X113747634Y-50546602D01*
X113749162Y-50565197D01*
X113750144Y-50584255D01*
X113750554Y-50603320D01*
X113750384Y-50621938D01*
X113750073Y-50630933D01*
X113749614Y-50639650D01*
X113748999Y-50648031D01*
X113748224Y-50656015D01*
X113746609Y-50668890D01*
X113744580Y-50681896D01*
X113742143Y-50694996D01*
X113739305Y-50708163D01*
X113736089Y-50721369D01*
X113732498Y-50734574D01*
X113728537Y-50747746D01*
X113724230Y-50760862D01*
X113719580Y-50773881D01*
X113714602Y-50786777D01*
X113709306Y-50799514D01*
X113703697Y-50812064D01*
X113697792Y-50824392D01*
X113691597Y-50836472D01*
X113685128Y-50848264D01*
X113678396Y-50859744D01*
X113672440Y-50869320D01*
X113666224Y-50878833D01*
X113659739Y-50888299D01*
X113652975Y-50897722D01*
X113645927Y-50907119D01*
X113638583Y-50916490D01*
X113622979Y-50935215D01*
X113606098Y-50953977D01*
X113587860Y-50972852D01*
X113568204Y-50991929D01*
X113547059Y-51011284D01*
X113516722Y-51037521D01*
X113486793Y-51061794D01*
X113457122Y-51084165D01*
X113427560Y-51104695D01*
X113397970Y-51123438D01*
X113368207Y-51140459D01*
X113338120Y-51155825D01*
X113307575Y-51169589D01*
X113276418Y-51181813D01*
X113244507Y-51192561D01*
X113211704Y-51201889D01*
X113177857Y-51209861D01*
X113142823Y-51216543D01*
X113106464Y-51221982D01*
X113068631Y-51226252D01*
X113029177Y-51229406D01*
X113022182Y-51229773D01*
X113013126Y-51230121D01*
X112990326Y-51230712D01*
X112963821Y-51231109D01*
X112936643Y-51231263D01*
X112903088Y-51231109D01*
X112870241Y-51230571D01*
X112836221Y-51229556D01*
X112799165Y-51227971D01*
X112757195Y-51225729D01*
X112708442Y-51222736D01*
X112583085Y-51214140D01*
X112402537Y-51201675D01*
X112260229Y-51192866D01*
X112140964Y-51186853D01*
X112029581Y-51182775D01*
X112010431Y-51182104D01*
X111994578Y-51181379D01*
X111983660Y-51180686D01*
X111980570Y-51180376D01*
X111979704Y-51180236D01*
X111979330Y-51180110D01*
X111979268Y-51179988D01*
X111979202Y-51179738D01*
X111979061Y-51178871D01*
X111978756Y-51175783D01*
X111978418Y-51171044D01*
X111978058Y-51164865D01*
X111977693Y-51157456D01*
X111977334Y-51149015D01*
X111976984Y-51139746D01*
X111976660Y-51129873D01*
X111976661Y-51129873D01*
X111972764Y-51022630D01*
X111967272Y-50910858D01*
X111959595Y-50783982D01*
X111949159Y-50631429D01*
X111939400Y-50491530D01*
X111933362Y-50396046D01*
X111929979Y-50326302D01*
X111928191Y-50263631D01*
X111927789Y-50209789D01*
X111928925Y-50158744D01*
X111931664Y-50110286D01*
X111936081Y-50064166D01*
X111942266Y-50020183D01*
X111950281Y-49978099D01*
X111960214Y-49937691D01*
X111972126Y-49898736D01*
X111986112Y-49861005D01*
X112002229Y-49824279D01*
X112020563Y-49788325D01*
X112041190Y-49752930D01*
X112064185Y-49717859D01*
X112089622Y-49682887D01*
X112117580Y-49647799D01*
X112148128Y-49612357D01*
X112163642Y-49595350D01*
X112178970Y-49579279D01*
X112194161Y-49564110D01*
X112209255Y-49549815D01*
X112224305Y-49536356D01*
X112239352Y-49523715D01*
X112254431Y-49511848D01*
X112269594Y-49500730D01*
X112284885Y-49490327D01*
X112300349Y-49480609D01*
X112316027Y-49471548D01*
X112331967Y-49463106D01*
X112348208Y-49455261D01*
X112364795Y-49447968D01*
X112381778Y-49441213D01*
X112399195Y-49434951D01*
X112409580Y-49431522D01*
X112419900Y-49428349D01*
X112430174Y-49425431D01*
X112440423Y-49422756D01*
X112450657Y-49420330D01*
X112460907Y-49418148D01*
X112471187Y-49416205D01*
X112481513Y-49414500D01*
X112491910Y-49413031D01*
X112502390Y-49411791D01*
X112512982Y-49410780D01*
X112523699Y-49409995D01*
X112534559Y-49409432D01*
X112545587Y-49409090D01*
X112556793Y-49408961D01*
X112568206Y-49409051D01*
G37*
D11*
X87481210Y-67818000D02*
G75*
G03*
X87481210Y-67818000I-359210J0D01*
G01*
D12*
G36*
X103407596Y-67693716D02*
G01*
X103415760Y-67694100D01*
X103424921Y-67694686D01*
X103434823Y-67695473D01*
X103445195Y-67696429D01*
X103455789Y-67697551D01*
X103486163Y-67700701D01*
X103520220Y-67703741D01*
X103593116Y-67709108D01*
X103662027Y-67712853D01*
X103691093Y-67713867D01*
X103714495Y-67714177D01*
X103729343Y-67714177D01*
X103735543Y-67714255D01*
X103741060Y-67714415D01*
X103745983Y-67714677D01*
X103750403Y-67715053D01*
X103754425Y-67715574D01*
X103758137Y-67716258D01*
X103761639Y-67717117D01*
X103765023Y-67718182D01*
X103768387Y-67719472D01*
X103771821Y-67721003D01*
X103775426Y-67722790D01*
X103779293Y-67724871D01*
X103788202Y-67729957D01*
X103813411Y-67745170D01*
X103840160Y-67762343D01*
X103868262Y-67781320D01*
X103897536Y-67801951D01*
X103927785Y-67824091D01*
X103958828Y-67847575D01*
X104022554Y-67898001D01*
X104087208Y-67952002D01*
X104151315Y-68008385D01*
X104213367Y-68065914D01*
X104243156Y-68094733D01*
X104271878Y-68123385D01*
X104317477Y-68170924D01*
X104363641Y-68221481D01*
X104409282Y-68273720D01*
X104453295Y-68326301D01*
X104494596Y-68377885D01*
X104532078Y-68427140D01*
X104564656Y-68472723D01*
X104591218Y-68513295D01*
X104613462Y-68549369D01*
X104615778Y-68612129D01*
X104616999Y-68640724D01*
X104618554Y-68669002D01*
X104620462Y-68697258D01*
X104622755Y-68725810D01*
X104625457Y-68754957D01*
X104628604Y-68785004D01*
X104632211Y-68816255D01*
X104636308Y-68849020D01*
X104639696Y-68876232D01*
X104640914Y-68887340D01*
X104641776Y-68896899D01*
X104642257Y-68905019D01*
X104642334Y-68911785D01*
X104641973Y-68917295D01*
X104641160Y-68921641D01*
X104640564Y-68923410D01*
X104639851Y-68924921D01*
X104639010Y-68926192D01*
X104638034Y-68927232D01*
X104636922Y-68928052D01*
X104635674Y-68928665D01*
X104634286Y-68929081D01*
X104632751Y-68929314D01*
X104629242Y-68929275D01*
X104625103Y-68928648D01*
X104620327Y-68927524D01*
X104614876Y-68925997D01*
X104609566Y-68924184D01*
X104603621Y-68921676D01*
X104589809Y-68914537D01*
X104573397Y-68904557D01*
X104554343Y-68891694D01*
X104532620Y-68875921D01*
X104508183Y-68857196D01*
X104480981Y-68835497D01*
X104450994Y-68810790D01*
X104418174Y-68783040D01*
X104382475Y-68752219D01*
X104343874Y-68718282D01*
X104302323Y-68681206D01*
X104210214Y-68597508D01*
X104105835Y-68500853D01*
X104018044Y-68418087D01*
X103979123Y-68380558D01*
X103941151Y-68343239D01*
X103902345Y-68304370D01*
X103860931Y-68262184D01*
X103763152Y-68160800D01*
X103666271Y-68059037D01*
X103585989Y-67973340D01*
X103521043Y-67902237D01*
X103470178Y-67844250D01*
X103432125Y-67797904D01*
X103405634Y-67761712D01*
X103396330Y-67746966D01*
X103389444Y-67734204D01*
X103384813Y-67723241D01*
X103382289Y-67713896D01*
X103381338Y-67708268D01*
X103381010Y-67705954D01*
X103380801Y-67703941D01*
X103380724Y-67702195D01*
X103380731Y-67701423D01*
X103380781Y-67700707D01*
X103380867Y-67700048D01*
X103380993Y-67699443D01*
X103381160Y-67698885D01*
X103381369Y-67698373D01*
X103381622Y-67697910D01*
X103381921Y-67697482D01*
X103382269Y-67697094D01*
X103382666Y-67696739D01*
X103383109Y-67696411D01*
X103383611Y-67696119D01*
X103384161Y-67695845D01*
X103384763Y-67695589D01*
X103386142Y-67695141D01*
X103387758Y-67694734D01*
X103389623Y-67694348D01*
X103391747Y-67693961D01*
X103393299Y-67693764D01*
X103395331Y-67693635D01*
X103400702Y-67693557D01*
X103407596Y-67693716D01*
G37*
X103407596Y-67693716D02*
X103415760Y-67694100D01*
X103424921Y-67694686D01*
X103434823Y-67695473D01*
X103445195Y-67696429D01*
X103455789Y-67697551D01*
X103486163Y-67700701D01*
X103520220Y-67703741D01*
X103593116Y-67709108D01*
X103662027Y-67712853D01*
X103691093Y-67713867D01*
X103714495Y-67714177D01*
X103729343Y-67714177D01*
X103735543Y-67714255D01*
X103741060Y-67714415D01*
X103745983Y-67714677D01*
X103750403Y-67715053D01*
X103754425Y-67715574D01*
X103758137Y-67716258D01*
X103761639Y-67717117D01*
X103765023Y-67718182D01*
X103768387Y-67719472D01*
X103771821Y-67721003D01*
X103775426Y-67722790D01*
X103779293Y-67724871D01*
X103788202Y-67729957D01*
X103813411Y-67745170D01*
X103840160Y-67762343D01*
X103868262Y-67781320D01*
X103897536Y-67801951D01*
X103927785Y-67824091D01*
X103958828Y-67847575D01*
X104022554Y-67898001D01*
X104087208Y-67952002D01*
X104151315Y-68008385D01*
X104213367Y-68065914D01*
X104243156Y-68094733D01*
X104271878Y-68123385D01*
X104317477Y-68170924D01*
X104363641Y-68221481D01*
X104409282Y-68273720D01*
X104453295Y-68326301D01*
X104494596Y-68377885D01*
X104532078Y-68427140D01*
X104564656Y-68472723D01*
X104591218Y-68513295D01*
X104613462Y-68549369D01*
X104615778Y-68612129D01*
X104616999Y-68640724D01*
X104618554Y-68669002D01*
X104620462Y-68697258D01*
X104622755Y-68725810D01*
X104625457Y-68754957D01*
X104628604Y-68785004D01*
X104632211Y-68816255D01*
X104636308Y-68849020D01*
X104639696Y-68876232D01*
X104640914Y-68887340D01*
X104641776Y-68896899D01*
X104642257Y-68905019D01*
X104642334Y-68911785D01*
X104641973Y-68917295D01*
X104641160Y-68921641D01*
X104640564Y-68923410D01*
X104639851Y-68924921D01*
X104639010Y-68926192D01*
X104638034Y-68927232D01*
X104636922Y-68928052D01*
X104635674Y-68928665D01*
X104634286Y-68929081D01*
X104632751Y-68929314D01*
X104629242Y-68929275D01*
X104625103Y-68928648D01*
X104620327Y-68927524D01*
X104614876Y-68925997D01*
X104609566Y-68924184D01*
X104603621Y-68921676D01*
X104589809Y-68914537D01*
X104573397Y-68904557D01*
X104554343Y-68891694D01*
X104532620Y-68875921D01*
X104508183Y-68857196D01*
X104480981Y-68835497D01*
X104450994Y-68810790D01*
X104418174Y-68783040D01*
X104382475Y-68752219D01*
X104343874Y-68718282D01*
X104302323Y-68681206D01*
X104210214Y-68597508D01*
X104105835Y-68500853D01*
X104018044Y-68418087D01*
X103979123Y-68380558D01*
X103941151Y-68343239D01*
X103902345Y-68304370D01*
X103860931Y-68262184D01*
X103763152Y-68160800D01*
X103666271Y-68059037D01*
X103585989Y-67973340D01*
X103521043Y-67902237D01*
X103470178Y-67844250D01*
X103432125Y-67797904D01*
X103405634Y-67761712D01*
X103396330Y-67746966D01*
X103389444Y-67734204D01*
X103384813Y-67723241D01*
X103382289Y-67713896D01*
X103381338Y-67708268D01*
X103381010Y-67705954D01*
X103380801Y-67703941D01*
X103380724Y-67702195D01*
X103380731Y-67701423D01*
X103380781Y-67700707D01*
X103380867Y-67700048D01*
X103380993Y-67699443D01*
X103381160Y-67698885D01*
X103381369Y-67698373D01*
X103381622Y-67697910D01*
X103381921Y-67697482D01*
X103382269Y-67697094D01*
X103382666Y-67696739D01*
X103383109Y-67696411D01*
X103383611Y-67696119D01*
X103384161Y-67695845D01*
X103384763Y-67695589D01*
X103386142Y-67695141D01*
X103387758Y-67694734D01*
X103389623Y-67694348D01*
X103391747Y-67693961D01*
X103393299Y-67693764D01*
X103395331Y-67693635D01*
X103400702Y-67693557D01*
X103407596Y-67693716D01*
D11*
X101921432Y-76697470D02*
G75*
G03*
X101921432Y-76697470I-359210J0D01*
G01*
D12*
G36*
X104461801Y-66768637D02*
G01*
X104468755Y-66769500D01*
X104484287Y-66772666D01*
X104501863Y-66777694D01*
X104521387Y-66784528D01*
X104542738Y-66793113D01*
X104565801Y-66803396D01*
X104590468Y-66815317D01*
X104616622Y-66828819D01*
X104644149Y-66843848D01*
X104672942Y-66860342D01*
X104702882Y-66878254D01*
X104733858Y-66897517D01*
X104765755Y-66918077D01*
X104798461Y-66939880D01*
X104831867Y-66962873D01*
X104868901Y-66989271D01*
X104904985Y-67016055D01*
X104940157Y-67043252D01*
X104974464Y-67070910D01*
X105007937Y-67099059D01*
X105040623Y-67127747D01*
X105072556Y-67157014D01*
X105103783Y-67186890D01*
X105134340Y-67217420D01*
X105164265Y-67248640D01*
X105193602Y-67280596D01*
X105222393Y-67313325D01*
X105250671Y-67346859D01*
X105278481Y-67381237D01*
X105305862Y-67416515D01*
X105332853Y-67452710D01*
X105373115Y-67509254D01*
X105410000Y-67564000D01*
X105443075Y-67616172D01*
X105471897Y-67664992D01*
X105496022Y-67709690D01*
X105515021Y-67749484D01*
X105522460Y-67767302D01*
X105528445Y-67783602D01*
X105532932Y-67798287D01*
X105535859Y-67811262D01*
X105537270Y-67819970D01*
X105538220Y-67827879D01*
X105538500Y-67831565D01*
X105538635Y-67835086D01*
X105538623Y-67838463D01*
X105538445Y-67841703D01*
X105538095Y-67844814D01*
X105537568Y-67847821D01*
X105536847Y-67850727D01*
X105535927Y-67853547D01*
X105534802Y-67856297D01*
X105533455Y-67858983D01*
X105531884Y-67861625D01*
X105530070Y-67864226D01*
X105528014Y-67866811D01*
X105525702Y-67869387D01*
X105523117Y-67871958D01*
X105520269Y-67874552D01*
X105517127Y-67877171D01*
X105513697Y-67879831D01*
X105509959Y-67882552D01*
X105505910Y-67885332D01*
X105496834Y-67891145D01*
X105486395Y-67897379D01*
X105474514Y-67904130D01*
X105461117Y-67911504D01*
X105420993Y-67933941D01*
X105373550Y-67961460D01*
X105265717Y-68026245D01*
X105155671Y-68094791D01*
X105105462Y-68127022D01*
X105061477Y-68156053D01*
X105034786Y-68174336D01*
X105006125Y-68194592D01*
X104976200Y-68216289D01*
X104945724Y-68238895D01*
X104915397Y-68261891D01*
X104885934Y-68284728D01*
X104858044Y-68306886D01*
X104832423Y-68327827D01*
X104812900Y-68343875D01*
X104796671Y-68356837D01*
X104790321Y-68361757D01*
X104785430Y-68365401D01*
X104782212Y-68367613D01*
X104781296Y-68368128D01*
X104780880Y-68368227D01*
X104780610Y-68367928D01*
X104780128Y-68367279D01*
X104778604Y-68365013D01*
X104776388Y-68361584D01*
X104773576Y-68357124D01*
X104766537Y-68345760D01*
X104758229Y-68332082D01*
X104736686Y-68298150D01*
X104711724Y-68262041D01*
X104683606Y-68224045D01*
X104652601Y-68184446D01*
X104618978Y-68143539D01*
X104583005Y-68101596D01*
X104544955Y-68058919D01*
X104505094Y-68015789D01*
X104421015Y-67929290D01*
X104332920Y-67844414D01*
X104288043Y-67803295D01*
X104242969Y-67763435D01*
X104197960Y-67725118D01*
X104153299Y-67688636D01*
X104129360Y-67670080D01*
X104101710Y-67649558D01*
X104072023Y-67628232D01*
X104041980Y-67607247D01*
X104013250Y-67587764D01*
X103987515Y-67570934D01*
X103966444Y-67557908D01*
X103958188Y-67553189D01*
X103951721Y-67549848D01*
X103947795Y-67547953D01*
X103944116Y-67546107D01*
X103940770Y-67544347D01*
X103937838Y-67542728D01*
X103935396Y-67541292D01*
X103933533Y-67540087D01*
X103932842Y-67539584D01*
X103932317Y-67539153D01*
X103931985Y-67538809D01*
X103931846Y-67538548D01*
X103931883Y-67538363D01*
X103932030Y-67538020D01*
X103932629Y-67536881D01*
X103935009Y-67532912D01*
X103938825Y-67526908D01*
X103943898Y-67519120D01*
X103950068Y-67509811D01*
X103957150Y-67499237D01*
X103964987Y-67487662D01*
X103973397Y-67475336D01*
X104018524Y-67408258D01*
X104073781Y-67324184D01*
X104197575Y-67131895D01*
X104310571Y-66952208D01*
X104352335Y-66883887D01*
X104378561Y-66838864D01*
X104383901Y-66829222D01*
X104388840Y-66820526D01*
X104393436Y-66812728D01*
X104397736Y-66805774D01*
X104401792Y-66799612D01*
X104405648Y-66794189D01*
X104409360Y-66789451D01*
X104412971Y-66785347D01*
X104416536Y-66781821D01*
X104420106Y-66778830D01*
X104423724Y-66776307D01*
X104427442Y-66774215D01*
X104431312Y-66772485D01*
X104435381Y-66771076D01*
X104439703Y-66769931D01*
X104444322Y-66768997D01*
X104449568Y-66768381D01*
X104455400Y-66768263D01*
X104461801Y-66768637D01*
G37*
X104461801Y-66768637D02*
X104468755Y-66769500D01*
X104484287Y-66772666D01*
X104501863Y-66777694D01*
X104521387Y-66784528D01*
X104542738Y-66793113D01*
X104565801Y-66803396D01*
X104590468Y-66815317D01*
X104616622Y-66828819D01*
X104644149Y-66843848D01*
X104672942Y-66860342D01*
X104702882Y-66878254D01*
X104733858Y-66897517D01*
X104765755Y-66918077D01*
X104798461Y-66939880D01*
X104831867Y-66962873D01*
X104868901Y-66989271D01*
X104904985Y-67016055D01*
X104940157Y-67043252D01*
X104974464Y-67070910D01*
X105007937Y-67099059D01*
X105040623Y-67127747D01*
X105072556Y-67157014D01*
X105103783Y-67186890D01*
X105134340Y-67217420D01*
X105164265Y-67248640D01*
X105193602Y-67280596D01*
X105222393Y-67313325D01*
X105250671Y-67346859D01*
X105278481Y-67381237D01*
X105305862Y-67416515D01*
X105332853Y-67452710D01*
X105373115Y-67509254D01*
X105410000Y-67564000D01*
X105443075Y-67616172D01*
X105471897Y-67664992D01*
X105496022Y-67709690D01*
X105515021Y-67749484D01*
X105522460Y-67767302D01*
X105528445Y-67783602D01*
X105532932Y-67798287D01*
X105535859Y-67811262D01*
X105537270Y-67819970D01*
X105538220Y-67827879D01*
X105538500Y-67831565D01*
X105538635Y-67835086D01*
X105538623Y-67838463D01*
X105538445Y-67841703D01*
X105538095Y-67844814D01*
X105537568Y-67847821D01*
X105536847Y-67850727D01*
X105535927Y-67853547D01*
X105534802Y-67856297D01*
X105533455Y-67858983D01*
X105531884Y-67861625D01*
X105530070Y-67864226D01*
X105528014Y-67866811D01*
X105525702Y-67869387D01*
X105523117Y-67871958D01*
X105520269Y-67874552D01*
X105517127Y-67877171D01*
X105513697Y-67879831D01*
X105509959Y-67882552D01*
X105505910Y-67885332D01*
X105496834Y-67891145D01*
X105486395Y-67897379D01*
X105474514Y-67904130D01*
X105461117Y-67911504D01*
X105420993Y-67933941D01*
X105373550Y-67961460D01*
X105265717Y-68026245D01*
X105155671Y-68094791D01*
X105105462Y-68127022D01*
X105061477Y-68156053D01*
X105034786Y-68174336D01*
X105006125Y-68194592D01*
X104976200Y-68216289D01*
X104945724Y-68238895D01*
X104915397Y-68261891D01*
X104885934Y-68284728D01*
X104858044Y-68306886D01*
X104832423Y-68327827D01*
X104812900Y-68343875D01*
X104796671Y-68356837D01*
X104790321Y-68361757D01*
X104785430Y-68365401D01*
X104782212Y-68367613D01*
X104781296Y-68368128D01*
X104780880Y-68368227D01*
X104780610Y-68367928D01*
X104780128Y-68367279D01*
X104778604Y-68365013D01*
X104776388Y-68361584D01*
X104773576Y-68357124D01*
X104766537Y-68345760D01*
X104758229Y-68332082D01*
X104736686Y-68298150D01*
X104711724Y-68262041D01*
X104683606Y-68224045D01*
X104652601Y-68184446D01*
X104618978Y-68143539D01*
X104583005Y-68101596D01*
X104544955Y-68058919D01*
X104505094Y-68015789D01*
X104421015Y-67929290D01*
X104332920Y-67844414D01*
X104288043Y-67803295D01*
X104242969Y-67763435D01*
X104197960Y-67725118D01*
X104153299Y-67688636D01*
X104129360Y-67670080D01*
X104101710Y-67649558D01*
X104072023Y-67628232D01*
X104041980Y-67607247D01*
X104013250Y-67587764D01*
X103987515Y-67570934D01*
X103966444Y-67557908D01*
X103958188Y-67553189D01*
X103951721Y-67549848D01*
X103947795Y-67547953D01*
X103944116Y-67546107D01*
X103940770Y-67544347D01*
X103937838Y-67542728D01*
X103935396Y-67541292D01*
X103933533Y-67540087D01*
X103932842Y-67539584D01*
X103932317Y-67539153D01*
X103931985Y-67538809D01*
X103931846Y-67538548D01*
X103931883Y-67538363D01*
X103932030Y-67538020D01*
X103932629Y-67536881D01*
X103935009Y-67532912D01*
X103938825Y-67526908D01*
X103943898Y-67519120D01*
X103950068Y-67509811D01*
X103957150Y-67499237D01*
X103964987Y-67487662D01*
X103973397Y-67475336D01*
X104018524Y-67408258D01*
X104073781Y-67324184D01*
X104197575Y-67131895D01*
X104310571Y-66952208D01*
X104352335Y-66883887D01*
X104378561Y-66838864D01*
X104383901Y-66829222D01*
X104388840Y-66820526D01*
X104393436Y-66812728D01*
X104397736Y-66805774D01*
X104401792Y-66799612D01*
X104405648Y-66794189D01*
X104409360Y-66789451D01*
X104412971Y-66785347D01*
X104416536Y-66781821D01*
X104420106Y-66778830D01*
X104423724Y-66776307D01*
X104427442Y-66774215D01*
X104431312Y-66772485D01*
X104435381Y-66771076D01*
X104439703Y-66769931D01*
X104444322Y-66768997D01*
X104449568Y-66768381D01*
X104455400Y-66768263D01*
X104461801Y-66768637D01*
D11*
G36*
X119855140Y-62210724D02*
G01*
X120667721Y-61907280D01*
X120225594Y-62349407D01*
X120218102Y-62356796D01*
X120210865Y-62363725D01*
X120200492Y-62373252D01*
X120190695Y-62381742D01*
X120181475Y-62389193D01*
X120172832Y-62395605D01*
X120162206Y-62402541D01*
X120152604Y-62407630D01*
X120142045Y-62411396D01*
X120136478Y-62412271D01*
X120124434Y-62412069D01*
X120114787Y-62410450D01*
X120105129Y-62407536D01*
X120095460Y-62403326D01*
X120085780Y-62397821D01*
X120076090Y-62391021D01*
X120066389Y-62382925D01*
X120059106Y-62376003D01*
X120035790Y-62352688D01*
X120016447Y-62372031D01*
X120245628Y-62601212D01*
X120264971Y-62581869D01*
X120241656Y-62558553D01*
X120234256Y-62550708D01*
X120227731Y-62542844D01*
X120220391Y-62532330D01*
X120214606Y-62521784D01*
X120210374Y-62511206D01*
X120207697Y-62500596D01*
X120206575Y-62489953D01*
X120207007Y-62479277D01*
X120207805Y-62473927D01*
X120211410Y-62463045D01*
X120217150Y-62452390D01*
X120223534Y-62442828D01*
X120231509Y-62432343D01*
X120238535Y-62423873D01*
X120246458Y-62414884D01*
X120255275Y-62405377D01*
X120264988Y-62395350D01*
X120268425Y-62391892D01*
X120700880Y-61959437D01*
X120708978Y-61951512D01*
X120716821Y-61944189D01*
X120724408Y-61937467D01*
X120734128Y-61929438D01*
X120743395Y-61922479D01*
X120752208Y-61916588D01*
X120762588Y-61910727D01*
X120772258Y-61906536D01*
X120774108Y-61905898D01*
X120783581Y-61903426D01*
X120793715Y-61902507D01*
X120804511Y-61903143D01*
X120814290Y-61904924D01*
X120822811Y-61907280D01*
X120833616Y-61911629D01*
X120843298Y-61916951D01*
X120851487Y-61922320D01*
X120860069Y-61928676D01*
X120869046Y-61936020D01*
X120878417Y-61944352D01*
X120885703Y-61951249D01*
X120890684Y-61956156D01*
X120908818Y-61938021D01*
X120722296Y-61751499D01*
X119964463Y-62031628D01*
X120248218Y-61277422D01*
X120061696Y-61090900D01*
X120042353Y-61110243D01*
X120065323Y-61133213D01*
X120072784Y-61141120D01*
X120079365Y-61149039D01*
X120086770Y-61159618D01*
X120092609Y-61170217D01*
X120096884Y-61180839D01*
X120099593Y-61191482D01*
X120100737Y-61202146D01*
X120100316Y-61212833D01*
X120099519Y-61218184D01*
X120095926Y-61229054D01*
X120090215Y-61239680D01*
X120083867Y-61249208D01*
X120075937Y-61259647D01*
X120068952Y-61268075D01*
X120061077Y-61277016D01*
X120052313Y-61286470D01*
X120042660Y-61296437D01*
X120039244Y-61299874D01*
X119607480Y-61731638D01*
X119600006Y-61739006D01*
X119592784Y-61745913D01*
X119582421Y-61755408D01*
X119572622Y-61763865D01*
X119563388Y-61771284D01*
X119554718Y-61777664D01*
X119544038Y-61784556D01*
X119534361Y-61789602D01*
X119523676Y-61793315D01*
X119518018Y-61794158D01*
X119506024Y-61793905D01*
X119494005Y-61791638D01*
X119484371Y-61788373D01*
X119474721Y-61783817D01*
X119465055Y-61777972D01*
X119455373Y-61770838D01*
X119445674Y-61762413D01*
X119440819Y-61757717D01*
X119417849Y-61734747D01*
X119398506Y-61754090D01*
X119678289Y-62033873D01*
X119697632Y-62014530D01*
X119674317Y-61991215D01*
X119666859Y-61983310D01*
X119660288Y-61975400D01*
X119652904Y-61964843D01*
X119647097Y-61954276D01*
X119642866Y-61943698D01*
X119640211Y-61933109D01*
X119639131Y-61922509D01*
X119639628Y-61911898D01*
X119640467Y-61906589D01*
X119644065Y-61895713D01*
X119649791Y-61885072D01*
X119656157Y-61875527D01*
X119664110Y-61865065D01*
X119671115Y-61856616D01*
X119679014Y-61847651D01*
X119687804Y-61838171D01*
X119697488Y-61828173D01*
X119700914Y-61824726D01*
X120143041Y-61382600D01*
X119839079Y-62194662D01*
X119855140Y-62210724D01*
G37*
G36*
X119708513Y-60715610D02*
G01*
X119398851Y-61488814D01*
X119393860Y-61501278D01*
X119389204Y-61513324D01*
X119384885Y-61524954D01*
X119380901Y-61536167D01*
X119377253Y-61546964D01*
X119373941Y-61557343D01*
X119370966Y-61567305D01*
X119368326Y-61576850D01*
X119364996Y-61590387D01*
X119362422Y-61602985D01*
X119360604Y-61614645D01*
X119359542Y-61625367D01*
X119359302Y-61638204D01*
X119359663Y-61642890D01*
X119362160Y-61653564D01*
X119366050Y-61663786D01*
X119370346Y-61672831D01*
X119375695Y-61682648D01*
X119382096Y-61693237D01*
X119387587Y-61701686D01*
X119393670Y-61710568D01*
X119374327Y-61729911D01*
X119166908Y-61522491D01*
X119186251Y-61503148D01*
X119195580Y-61511108D01*
X119204464Y-61518342D01*
X119212901Y-61524850D01*
X119223456Y-61532399D01*
X119233218Y-61538658D01*
X119242187Y-61543628D01*
X119252282Y-61548025D01*
X119262759Y-61550642D01*
X119264346Y-61550819D01*
X119274870Y-61551074D01*
X119285643Y-61549261D01*
X119295077Y-61545202D01*
X119303172Y-61538898D01*
X119307873Y-61533679D01*
X119313856Y-61525592D01*
X119319956Y-61515768D01*
X119324921Y-61506658D01*
X119329962Y-61496436D01*
X119335079Y-61485102D01*
X119338965Y-61475872D01*
X119342895Y-61466017D01*
X119400233Y-61319217D01*
X119145319Y-61064303D01*
X119012336Y-61117496D01*
X119004432Y-61120716D01*
X118993214Y-61125474D01*
X118982760Y-61130147D01*
X118973072Y-61134735D01*
X118964148Y-61139238D01*
X118953441Y-61145110D01*
X118944093Y-61150831D01*
X118934321Y-61157770D01*
X118926674Y-61164472D01*
X118925710Y-61165463D01*
X118919295Y-61174037D01*
X118915191Y-61183754D01*
X118913396Y-61194616D01*
X118913721Y-61205058D01*
X118913938Y-61206618D01*
X118916658Y-61216656D01*
X118920780Y-61225912D01*
X118926589Y-61235978D01*
X118932450Y-61244613D01*
X118939391Y-61253767D01*
X118947411Y-61263438D01*
X118954134Y-61271032D01*
X118934791Y-61290375D01*
X118674869Y-61030453D01*
X118694212Y-61011110D01*
X118699543Y-61015701D01*
X118707534Y-61022077D01*
X118715520Y-61027840D01*
X118726157Y-61034571D01*
X118736784Y-61040210D01*
X118747400Y-61044760D01*
X118758005Y-61048220D01*
X118768600Y-61050589D01*
X118779183Y-61051868D01*
X118781878Y-61052011D01*
X118793658Y-61051778D01*
X118803545Y-61050756D01*
X118814334Y-61049009D01*
X118826025Y-61046536D01*
X118838617Y-61043338D01*
X118843731Y-61041851D01*
X119194713Y-61041851D01*
X119421131Y-61268268D01*
X119575357Y-60884689D01*
X119194713Y-61041851D01*
X118843731Y-61041851D01*
X118852111Y-61039414D01*
X118861608Y-61036395D01*
X118871505Y-61033054D01*
X118881803Y-61029390D01*
X118892502Y-61025404D01*
X118903602Y-61021095D01*
X118915103Y-61016463D01*
X119691588Y-60698685D01*
X119708513Y-60715610D01*
G37*
G36*
X118820683Y-59955821D02*
G01*
X118834695Y-59957270D01*
X118848548Y-59959447D01*
X118862244Y-59962354D01*
X118875782Y-59965989D01*
X118889162Y-59970352D01*
X118902384Y-59975444D01*
X118915448Y-59981265D01*
X118924180Y-59985563D01*
X118933061Y-59990297D01*
X118942093Y-59995467D01*
X118951274Y-60001072D01*
X118960605Y-60007114D01*
X118970085Y-60013591D01*
X118979715Y-60020504D01*
X118989496Y-60027852D01*
X118999426Y-60035637D01*
X119009505Y-60043857D01*
X119019735Y-60052514D01*
X119030114Y-60061606D01*
X119040643Y-60071133D01*
X119051322Y-60081097D01*
X119062150Y-60091496D01*
X119073128Y-60102332D01*
X119314398Y-60343602D01*
X119295055Y-60362945D01*
X119270358Y-60338248D01*
X119260946Y-60329505D01*
X119251447Y-60322014D01*
X119241862Y-60315775D01*
X119232190Y-60310788D01*
X119222433Y-60307053D01*
X119212588Y-60304570D01*
X119202658Y-60303340D01*
X119192641Y-60303361D01*
X119185028Y-60304821D01*
X119174017Y-60309295D01*
X119164013Y-60314993D01*
X119155811Y-60320502D01*
X119147012Y-60327071D01*
X119137614Y-60334700D01*
X119127619Y-60343388D01*
X119117025Y-60353136D01*
X119109631Y-60360223D01*
X119101970Y-60367781D01*
X118675387Y-60794364D01*
X118671897Y-60797873D01*
X118662027Y-60808026D01*
X118653058Y-60817618D01*
X118644991Y-60826648D01*
X118637826Y-60835117D01*
X118629675Y-60845534D01*
X118623127Y-60854954D01*
X118617197Y-60865324D01*
X118613386Y-60875708D01*
X118612420Y-60881351D01*
X118611686Y-60892555D01*
X118612549Y-60903651D01*
X118615010Y-60914640D01*
X118619069Y-60925520D01*
X118624725Y-60936293D01*
X118631978Y-60946957D01*
X118638467Y-60954885D01*
X118645854Y-60962752D01*
X118670551Y-60987449D01*
X118651208Y-61006792D01*
X118369007Y-60724591D01*
X118388350Y-60705248D01*
X118413738Y-60730635D01*
X118423107Y-60739330D01*
X118432563Y-60746762D01*
X118442105Y-60752931D01*
X118451733Y-60757837D01*
X118461448Y-60761480D01*
X118471249Y-60763860D01*
X118481136Y-60764977D01*
X118491110Y-60764831D01*
X118492946Y-60764674D01*
X118503116Y-60762099D01*
X118512442Y-60757889D01*
X118522826Y-60751769D01*
X118531308Y-60745925D01*
X118540385Y-60739006D01*
X118550057Y-60731013D01*
X118560324Y-60721945D01*
X118567500Y-60715302D01*
X118574940Y-60708182D01*
X118582644Y-60700585D01*
X118775902Y-60507327D01*
X118766430Y-60501120D01*
X118757185Y-60494935D01*
X118748166Y-60488772D01*
X118739374Y-60482630D01*
X118730809Y-60476510D01*
X118722471Y-60470411D01*
X118714359Y-60464334D01*
X118706474Y-60458278D01*
X118702596Y-60455236D01*
X118693153Y-60447649D01*
X118684074Y-60440088D01*
X118675356Y-60432551D01*
X118667002Y-60425040D01*
X118659010Y-60417554D01*
X118651381Y-60410093D01*
X118639617Y-60397935D01*
X118628592Y-60385723D01*
X118618304Y-60373459D01*
X118608755Y-60361142D01*
X118599944Y-60348773D01*
X118591870Y-60336351D01*
X118584535Y-60323876D01*
X118577938Y-60311349D01*
X118572079Y-60298769D01*
X118569052Y-60291303D01*
X118667519Y-60291303D01*
X118668150Y-60304969D01*
X118669709Y-60318192D01*
X118672198Y-60330972D01*
X118675615Y-60343309D01*
X118679961Y-60355202D01*
X118685237Y-60366653D01*
X118691441Y-60377660D01*
X118698574Y-60388223D01*
X118706636Y-60398344D01*
X118715627Y-60408021D01*
X118721230Y-60413453D01*
X118728502Y-60420098D01*
X118736568Y-60427073D01*
X118744113Y-60433314D01*
X118752241Y-60439799D01*
X118760887Y-60446462D01*
X118770116Y-60453367D01*
X118778252Y-60459307D01*
X118786793Y-60465416D01*
X118795739Y-60471693D01*
X118805089Y-60478140D01*
X119079173Y-60204055D01*
X119077321Y-60201077D01*
X119071822Y-60192414D01*
X119066408Y-60184158D01*
X119059322Y-60173782D01*
X119052387Y-60164129D01*
X119045603Y-60155200D01*
X119038970Y-60146993D01*
X119032488Y-60139510D01*
X119024598Y-60131174D01*
X119016872Y-60123770D01*
X119008980Y-60116842D01*
X119000920Y-60110392D01*
X118992693Y-60104418D01*
X118984300Y-60098920D01*
X118975739Y-60093900D01*
X118967012Y-60089355D01*
X118958117Y-60085288D01*
X118945998Y-60080606D01*
X118933582Y-60076771D01*
X118927284Y-60075153D01*
X118914596Y-60072697D01*
X118901783Y-60071283D01*
X118888847Y-60070911D01*
X118879063Y-60071315D01*
X118869209Y-60072305D01*
X118859285Y-60073881D01*
X118849292Y-60076043D01*
X118839228Y-60078791D01*
X118829095Y-60082125D01*
X118822362Y-60084592D01*
X118812431Y-60088640D01*
X118802704Y-60093103D01*
X118793180Y-60097982D01*
X118783859Y-60103277D01*
X118774742Y-60108988D01*
X118765828Y-60115115D01*
X118757118Y-60121657D01*
X118748611Y-60128616D01*
X118740307Y-60135991D01*
X118732207Y-60143781D01*
X118728380Y-60147681D01*
X118721075Y-60155560D01*
X118714237Y-60163548D01*
X118707865Y-60171643D01*
X118701961Y-60179847D01*
X118696524Y-60188158D01*
X118689243Y-60200828D01*
X118683012Y-60213740D01*
X118677832Y-60226896D01*
X118673702Y-60240294D01*
X118670623Y-60253935D01*
X118668594Y-60267819D01*
X118667615Y-60281946D01*
X118667519Y-60291303D01*
X118569052Y-60291303D01*
X118566957Y-60286137D01*
X118562574Y-60273451D01*
X118558929Y-60260714D01*
X118556022Y-60247923D01*
X118553853Y-60235080D01*
X118552423Y-60222185D01*
X118551730Y-60209237D01*
X118551753Y-60196331D01*
X118552426Y-60183606D01*
X118553750Y-60171062D01*
X118555723Y-60158699D01*
X118558348Y-60146516D01*
X118561622Y-60134514D01*
X118565547Y-60122693D01*
X118570123Y-60111053D01*
X118575349Y-60099594D01*
X118581225Y-60088316D01*
X118587751Y-60077218D01*
X118594928Y-60066301D01*
X118602755Y-60055565D01*
X118611232Y-60045010D01*
X118620360Y-60034635D01*
X118630138Y-60024441D01*
X118633870Y-60020778D01*
X118641445Y-60013751D01*
X118649168Y-60007124D01*
X118657039Y-60000895D01*
X118665059Y-59995067D01*
X118677368Y-59987072D01*
X118690010Y-59979976D01*
X118702986Y-59973779D01*
X118716296Y-59968481D01*
X118729940Y-59964081D01*
X118743918Y-59960579D01*
X118758230Y-59957977D01*
X118767957Y-59956741D01*
X118777702Y-59955845D01*
X118792187Y-59955108D01*
X118806514Y-59955100D01*
X118820683Y-59955821D01*
G37*
G36*
X118269183Y-59911837D02*
G01*
X117963148Y-59605803D01*
X118151570Y-59417381D01*
X118160780Y-59408283D01*
X118169498Y-59399902D01*
X118177724Y-59392238D01*
X118185459Y-59385290D01*
X118195006Y-59377140D01*
X118203679Y-59370264D01*
X118213291Y-59363461D01*
X118223022Y-59357923D01*
X118224452Y-59357279D01*
X118234560Y-59354305D01*
X118244531Y-59353520D01*
X118255430Y-59354484D01*
X118265729Y-59356761D01*
X118275652Y-59360017D01*
X118285128Y-59363956D01*
X118294157Y-59368578D01*
X118302739Y-59373883D01*
X118310874Y-59379871D01*
X118318563Y-59386543D01*
X118321513Y-59389402D01*
X118344828Y-59412718D01*
X118364171Y-59393375D01*
X118082315Y-59111519D01*
X118062972Y-59130862D01*
X118086288Y-59154177D01*
X118093241Y-59161678D01*
X118099527Y-59169609D01*
X118105148Y-59177970D01*
X118110102Y-59186762D01*
X118114390Y-59195983D01*
X118118012Y-59205635D01*
X118119274Y-59209616D01*
X118121815Y-59219733D01*
X118122637Y-59229686D01*
X118121740Y-59239473D01*
X118119123Y-59249095D01*
X118116857Y-59254519D01*
X118111681Y-59263451D01*
X118105300Y-59272368D01*
X118098841Y-59280468D01*
X118091179Y-59289426D01*
X118084642Y-59296707D01*
X118077429Y-59304471D01*
X118069538Y-59312718D01*
X118060970Y-59321448D01*
X118057964Y-59324465D01*
X117631726Y-59750703D01*
X117622547Y-59759769D01*
X117613857Y-59768122D01*
X117605656Y-59775762D01*
X117597943Y-59782688D01*
X117588420Y-59790814D01*
X117579766Y-59797671D01*
X117570170Y-59804458D01*
X117560447Y-59809988D01*
X117559017Y-59810632D01*
X117548880Y-59813716D01*
X117538998Y-59814623D01*
X117528296Y-59813802D01*
X117518258Y-59811668D01*
X117508136Y-59808312D01*
X117498495Y-59804291D01*
X117489334Y-59799603D01*
X117480654Y-59794249D01*
X117472455Y-59788229D01*
X117464736Y-59781542D01*
X117461784Y-59778681D01*
X117438468Y-59755366D01*
X117419125Y-59774709D01*
X117700981Y-60056565D01*
X117720324Y-60037222D01*
X117697009Y-60013906D01*
X117689835Y-60006311D01*
X117683469Y-59998679D01*
X117676237Y-59988446D01*
X117670440Y-59978148D01*
X117666080Y-59967786D01*
X117663154Y-59957359D01*
X117661665Y-59946867D01*
X117661611Y-59936310D01*
X117662122Y-59931008D01*
X117665397Y-59919516D01*
X117669779Y-59910600D01*
X117675921Y-59900680D01*
X117681682Y-59892582D01*
X117688433Y-59883918D01*
X117696173Y-59874690D01*
X117704903Y-59864898D01*
X117714623Y-59854540D01*
X117721653Y-59847322D01*
X117725333Y-59843619D01*
X117927226Y-59641725D01*
X118233260Y-59947760D01*
X118031367Y-60149653D01*
X118022157Y-60158751D01*
X118013440Y-60167132D01*
X118005213Y-60174796D01*
X117997479Y-60181744D01*
X117987932Y-60189894D01*
X117979259Y-60196769D01*
X117969647Y-60203573D01*
X117959916Y-60209110D01*
X117958485Y-60209755D01*
X117948294Y-60212812D01*
X117938272Y-60213648D01*
X117927343Y-60212715D01*
X117917036Y-60210446D01*
X117907063Y-60207239D01*
X117897546Y-60203342D01*
X117888484Y-60198753D01*
X117879877Y-60193472D01*
X117871726Y-60187500D01*
X117864030Y-60180836D01*
X117861079Y-60177977D01*
X117837246Y-60154143D01*
X117817903Y-60173487D01*
X118100277Y-60455860D01*
X118119620Y-60436517D01*
X118096305Y-60413202D01*
X118089037Y-60405515D01*
X118082583Y-60397804D01*
X118075243Y-60387485D01*
X118069349Y-60377123D01*
X118064902Y-60366717D01*
X118061901Y-60356269D01*
X118060347Y-60345777D01*
X118060239Y-60335242D01*
X118060727Y-60329958D01*
X118064172Y-60318648D01*
X118068641Y-60309840D01*
X118074847Y-60300018D01*
X118080643Y-60291985D01*
X118087416Y-60283381D01*
X118095166Y-60274207D01*
X118103894Y-60264462D01*
X118113600Y-60254146D01*
X118120613Y-60246952D01*
X118124283Y-60243260D01*
X118550521Y-59817022D01*
X118559760Y-59807892D01*
X118568501Y-59799479D01*
X118576744Y-59791782D01*
X118584490Y-59784801D01*
X118594043Y-59776609D01*
X118602710Y-59769690D01*
X118612300Y-59762832D01*
X118621982Y-59757230D01*
X118623403Y-59756575D01*
X118633623Y-59753574D01*
X118643556Y-59752718D01*
X118654288Y-59753568D01*
X118664334Y-59755711D01*
X118674456Y-59759067D01*
X118684097Y-59763088D01*
X118693258Y-59767776D01*
X118701938Y-59773130D01*
X118710137Y-59779151D01*
X118717856Y-59785837D01*
X118720809Y-59788698D01*
X118744124Y-59812013D01*
X118763467Y-59792670D01*
X118481093Y-59510296D01*
X118461750Y-59529639D01*
X118485583Y-59553473D01*
X118492536Y-59560974D01*
X118498823Y-59568905D01*
X118504444Y-59577266D01*
X118509398Y-59586058D01*
X118513686Y-59595279D01*
X118517308Y-59604930D01*
X118518570Y-59608911D01*
X118520925Y-59618827D01*
X118521644Y-59628627D01*
X118520463Y-59639686D01*
X118517675Y-59649238D01*
X118515980Y-59653297D01*
X118510928Y-59662340D01*
X118504640Y-59671322D01*
X118498250Y-59679456D01*
X118490651Y-59688431D01*
X118481843Y-59698248D01*
X118474444Y-59706164D01*
X118466364Y-59714553D01*
X118457605Y-59723415D01*
X118269183Y-59911837D01*
G37*
D13*
X120830312Y-58551504D02*
X121183865Y-58905058D01*
X120628281Y-59460642D02*
X121688941Y-58399981D01*
X121688941Y-58399981D02*
X121183865Y-57894905D01*
X119567621Y-58399982D02*
X119719144Y-58450489D01*
X119719144Y-58450489D02*
X119820159Y-58450489D01*
X119820159Y-58450489D02*
X119971682Y-58399982D01*
X119971682Y-58399982D02*
X120274728Y-58096936D01*
X120274728Y-58096936D02*
X120325236Y-57945413D01*
X120325236Y-57945413D02*
X120325236Y-57844398D01*
X120325236Y-57844398D02*
X120274728Y-57692875D01*
X120274728Y-57692875D02*
X120123205Y-57541352D01*
X120123205Y-57541352D02*
X119971682Y-57490844D01*
X119971682Y-57490844D02*
X119870667Y-57490844D01*
X119870667Y-57490844D02*
X119719144Y-57541352D01*
X119719144Y-57541352D02*
X119416098Y-57844398D01*
X119416098Y-57844398D02*
X119365591Y-57995921D01*
X119365591Y-57995921D02*
X119365591Y-58096936D01*
X119365591Y-58096936D02*
X119416098Y-58248459D01*
X119416098Y-58248459D02*
X119567621Y-58399982D01*
X119466606Y-56884753D02*
X118759499Y-57591859D01*
X119365591Y-56985768D02*
X119365591Y-56884753D01*
X119365591Y-56884753D02*
X119315083Y-56733230D01*
X119315083Y-56733230D02*
X119163560Y-56581707D01*
X119163560Y-56581707D02*
X119012037Y-56531199D01*
X119012037Y-56531199D02*
X118860514Y-56581707D01*
X118860514Y-56581707D02*
X118304930Y-57137291D01*
X117648331Y-56480692D02*
X117799854Y-56531199D01*
X117799854Y-56531199D02*
X117900869Y-56531199D01*
X117900869Y-56531199D02*
X118052392Y-56480692D01*
X118052392Y-56480692D02*
X118355438Y-56177646D01*
X118355438Y-56177646D02*
X118405946Y-56026123D01*
X118405946Y-56026123D02*
X118405946Y-55925108D01*
X118405946Y-55925108D02*
X118355438Y-55773585D01*
X118355438Y-55773585D02*
X118203915Y-55622062D01*
X118203915Y-55622062D02*
X118052392Y-55571554D01*
X118052392Y-55571554D02*
X117951377Y-55571554D01*
X117951377Y-55571554D02*
X117799854Y-55622062D01*
X117799854Y-55622062D02*
X117496808Y-55925108D01*
X117496808Y-55925108D02*
X117446301Y-56076630D01*
X117446301Y-56076630D02*
X117446301Y-56177646D01*
X117446301Y-56177646D02*
X117496808Y-56329169D01*
X117496808Y-56329169D02*
X117648331Y-56480692D01*
X116991732Y-56026123D02*
X116183610Y-55218001D01*
X117244270Y-53955310D02*
X115830057Y-54662417D01*
X115830057Y-54662417D02*
X116537163Y-53248203D01*
X116284625Y-52995665D02*
X115628026Y-52339066D01*
X115628026Y-52339066D02*
X115577519Y-53096681D01*
X115577519Y-53096681D02*
X115425996Y-52945158D01*
X115425996Y-52945158D02*
X115274473Y-52894650D01*
X115274473Y-52894650D02*
X115173458Y-52894650D01*
X115173458Y-52894650D02*
X115021935Y-52945158D01*
X115021935Y-52945158D02*
X114769397Y-53197696D01*
X114769397Y-53197696D02*
X114718889Y-53349219D01*
X114718889Y-53349219D02*
X114718889Y-53450234D01*
X114718889Y-53450234D02*
X114769397Y-53601757D01*
X114769397Y-53601757D02*
X115072442Y-53904803D01*
X115072442Y-53904803D02*
X115223965Y-53955310D01*
X115223965Y-53955310D02*
X115324981Y-53955310D01*
X114466351Y-52692620D02*
X113961275Y-52187544D01*
X114264321Y-53096681D02*
X114971427Y-51682467D01*
X114971427Y-51682467D02*
X113557214Y-52389574D01*
D11*
X82165628Y-62371926D02*
X82064613Y-61799506D01*
X82569689Y-61967865D02*
X81862582Y-61260758D01*
X81862582Y-61260758D02*
X81593208Y-61530132D01*
X81593208Y-61530132D02*
X81559536Y-61631148D01*
X81559536Y-61631148D02*
X81559536Y-61698491D01*
X81559536Y-61698491D02*
X81593208Y-61799506D01*
X81593208Y-61799506D02*
X81694223Y-61900522D01*
X81694223Y-61900522D02*
X81795239Y-61934193D01*
X81795239Y-61934193D02*
X81862582Y-61934193D01*
X81862582Y-61934193D02*
X81963597Y-61900522D01*
X81963597Y-61900522D02*
X82232971Y-61631148D01*
X81222819Y-61900522D02*
X80785086Y-62338255D01*
X80785086Y-62338255D02*
X81290162Y-62371926D01*
X81290162Y-62371926D02*
X81189147Y-62472942D01*
X81189147Y-62472942D02*
X81155475Y-62573957D01*
X81155475Y-62573957D02*
X81155475Y-62641300D01*
X81155475Y-62641300D02*
X81189147Y-62742316D01*
X81189147Y-62742316D02*
X81357506Y-62910674D01*
X81357506Y-62910674D02*
X81458521Y-62944346D01*
X81458521Y-62944346D02*
X81525865Y-62944346D01*
X81525865Y-62944346D02*
X81626880Y-62910674D01*
X81626880Y-62910674D02*
X81828910Y-62708644D01*
X81828910Y-62708644D02*
X81862582Y-62607629D01*
X81862582Y-62607629D02*
X81862582Y-62540285D01*
X96490077Y-62321418D02*
X95917657Y-62893838D01*
X95917657Y-62893838D02*
X95816642Y-62927510D01*
X95816642Y-62927510D02*
X95749298Y-62927510D01*
X95749298Y-62927510D02*
X95648283Y-62893838D01*
X95648283Y-62893838D02*
X95513596Y-62759151D01*
X95513596Y-62759151D02*
X95479924Y-62658136D01*
X95479924Y-62658136D02*
X95479924Y-62590792D01*
X95479924Y-62590792D02*
X95513596Y-62489777D01*
X95513596Y-62489777D02*
X96086016Y-61917357D01*
X95715626Y-61681655D02*
X95715626Y-61614312D01*
X95715626Y-61614312D02*
X95681955Y-61513296D01*
X95681955Y-61513296D02*
X95513596Y-61344938D01*
X95513596Y-61344938D02*
X95412581Y-61311266D01*
X95412581Y-61311266D02*
X95345237Y-61311266D01*
X95345237Y-61311266D02*
X95244222Y-61344938D01*
X95244222Y-61344938D02*
X95176878Y-61412281D01*
X95176878Y-61412281D02*
X95109535Y-61546968D01*
X95109535Y-61546968D02*
X95109535Y-62355090D01*
X95109535Y-62355090D02*
X94671802Y-61917357D01*
X112022134Y-72783002D02*
X112022134Y-72850346D01*
X112022134Y-72850346D02*
X112089478Y-72985033D01*
X112089478Y-72985033D02*
X112156821Y-73052376D01*
X112156821Y-73052376D02*
X112291508Y-73119720D01*
X112291508Y-73119720D02*
X112426195Y-73119720D01*
X112426195Y-73119720D02*
X112527210Y-73086048D01*
X112527210Y-73086048D02*
X112695569Y-72985033D01*
X112695569Y-72985033D02*
X112796584Y-72884017D01*
X112796584Y-72884017D02*
X112897600Y-72715659D01*
X112897600Y-72715659D02*
X112931271Y-72614643D01*
X112931271Y-72614643D02*
X112931271Y-72479956D01*
X112931271Y-72479956D02*
X112863928Y-72345269D01*
X112863928Y-72345269D02*
X112796584Y-72277926D01*
X112796584Y-72277926D02*
X112661897Y-72210582D01*
X112661897Y-72210582D02*
X112594554Y-72210582D01*
X111281356Y-72176911D02*
X111685417Y-72580972D01*
X111483386Y-72378941D02*
X112190493Y-71671834D01*
X112190493Y-71671834D02*
X112156821Y-71840193D01*
X112156821Y-71840193D02*
X112156821Y-71974880D01*
X112156821Y-71974880D02*
X112190493Y-72075895D01*
X111752760Y-71234102D02*
X111315027Y-70796369D01*
X111315027Y-70796369D02*
X111281356Y-71301445D01*
X111281356Y-71301445D02*
X111180340Y-71200430D01*
X111180340Y-71200430D02*
X111079325Y-71166758D01*
X111079325Y-71166758D02*
X111011982Y-71166758D01*
X111011982Y-71166758D02*
X110910966Y-71200430D01*
X110910966Y-71200430D02*
X110742608Y-71368789D01*
X110742608Y-71368789D02*
X110708936Y-71469804D01*
X110708936Y-71469804D02*
X110708936Y-71537147D01*
X110708936Y-71537147D02*
X110742608Y-71638163D01*
X110742608Y-71638163D02*
X110944638Y-71840193D01*
X110944638Y-71840193D02*
X111045653Y-71873865D01*
X111045653Y-71873865D02*
X111112997Y-71873865D01*
X80443416Y-58984284D02*
X80443416Y-59051628D01*
X80443416Y-59051628D02*
X80510760Y-59186315D01*
X80510760Y-59186315D02*
X80578103Y-59253658D01*
X80578103Y-59253658D02*
X80712790Y-59321002D01*
X80712790Y-59321002D02*
X80847477Y-59321002D01*
X80847477Y-59321002D02*
X80948493Y-59287330D01*
X80948493Y-59287330D02*
X81116851Y-59186315D01*
X81116851Y-59186315D02*
X81217867Y-59085300D01*
X81217867Y-59085300D02*
X81318882Y-58916941D01*
X81318882Y-58916941D02*
X81352554Y-58815926D01*
X81352554Y-58815926D02*
X81352554Y-58681239D01*
X81352554Y-58681239D02*
X81285210Y-58546552D01*
X81285210Y-58546552D02*
X81217867Y-58479208D01*
X81217867Y-58479208D02*
X81083180Y-58411865D01*
X81083180Y-58411865D02*
X81015836Y-58411865D01*
X80847477Y-58108819D02*
X80409744Y-57671086D01*
X80409744Y-57671086D02*
X80376073Y-58176162D01*
X80376073Y-58176162D02*
X80275057Y-58075147D01*
X80275057Y-58075147D02*
X80174042Y-58041475D01*
X80174042Y-58041475D02*
X80106699Y-58041475D01*
X80106699Y-58041475D02*
X80005683Y-58075147D01*
X80005683Y-58075147D02*
X79837325Y-58243506D01*
X79837325Y-58243506D02*
X79803653Y-58344521D01*
X79803653Y-58344521D02*
X79803653Y-58411865D01*
X79803653Y-58411865D02*
X79837325Y-58512880D01*
X79837325Y-58512880D02*
X80039355Y-58714910D01*
X80039355Y-58714910D02*
X80140370Y-58748582D01*
X80140370Y-58748582D02*
X80207714Y-58748582D01*
X101044346Y-57717208D02*
X100943330Y-57144789D01*
X101448407Y-57313147D02*
X100741300Y-56606041D01*
X100741300Y-56606041D02*
X100471926Y-56875415D01*
X100471926Y-56875415D02*
X100438254Y-56976430D01*
X100438254Y-56976430D02*
X100438254Y-57043773D01*
X100438254Y-57043773D02*
X100471926Y-57144789D01*
X100471926Y-57144789D02*
X100572941Y-57245804D01*
X100572941Y-57245804D02*
X100673956Y-57279476D01*
X100673956Y-57279476D02*
X100741300Y-57279476D01*
X100741300Y-57279476D02*
X100842315Y-57245804D01*
X100842315Y-57245804D02*
X101111689Y-56976430D01*
X100135208Y-57346819D02*
X100067865Y-57346819D01*
X100067865Y-57346819D02*
X99966850Y-57380491D01*
X99966850Y-57380491D02*
X99798491Y-57548850D01*
X99798491Y-57548850D02*
X99764819Y-57649865D01*
X99764819Y-57649865D02*
X99764819Y-57717208D01*
X99764819Y-57717208D02*
X99798491Y-57818224D01*
X99798491Y-57818224D02*
X99865834Y-57885567D01*
X99865834Y-57885567D02*
X100000521Y-57952911D01*
X100000521Y-57952911D02*
X100808643Y-57952911D01*
X100808643Y-57952911D02*
X100370911Y-58390643D01*
X99293415Y-58525330D02*
X99764819Y-58996735D01*
X99192399Y-58087598D02*
X99865834Y-58424315D01*
X99865834Y-58424315D02*
X99428102Y-58862048D01*
X93920791Y-58372346D02*
X94493210Y-58271330D01*
X94324852Y-58776407D02*
X95031958Y-58069300D01*
X95031958Y-58069300D02*
X94762584Y-57799926D01*
X94762584Y-57799926D02*
X94661569Y-57766254D01*
X94661569Y-57766254D02*
X94594226Y-57766254D01*
X94594226Y-57766254D02*
X94493210Y-57799926D01*
X94493210Y-57799926D02*
X94392195Y-57900941D01*
X94392195Y-57900941D02*
X94358523Y-58001956D01*
X94358523Y-58001956D02*
X94358523Y-58069300D01*
X94358523Y-58069300D02*
X94392195Y-58170315D01*
X94392195Y-58170315D02*
X94661569Y-58439689D01*
X93247356Y-57698911D02*
X93651417Y-58102972D01*
X93449386Y-57900941D02*
X94156493Y-57193834D01*
X94156493Y-57193834D02*
X94122821Y-57362193D01*
X94122821Y-57362193D02*
X94122821Y-57496880D01*
X94122821Y-57496880D02*
X94156493Y-57597895D01*
X93516730Y-56554071D02*
X93449386Y-56486728D01*
X93449386Y-56486728D02*
X93348371Y-56453056D01*
X93348371Y-56453056D02*
X93281027Y-56453056D01*
X93281027Y-56453056D02*
X93180012Y-56486728D01*
X93180012Y-56486728D02*
X93011653Y-56587743D01*
X93011653Y-56587743D02*
X92843295Y-56756102D01*
X92843295Y-56756102D02*
X92742279Y-56924460D01*
X92742279Y-56924460D02*
X92708608Y-57025476D01*
X92708608Y-57025476D02*
X92708608Y-57092819D01*
X92708608Y-57092819D02*
X92742279Y-57193834D01*
X92742279Y-57193834D02*
X92809623Y-57261178D01*
X92809623Y-57261178D02*
X92910638Y-57294850D01*
X92910638Y-57294850D02*
X92977982Y-57294850D01*
X92977982Y-57294850D02*
X93078997Y-57261178D01*
X93078997Y-57261178D02*
X93247356Y-57160163D01*
X93247356Y-57160163D02*
X93415714Y-56991804D01*
X93415714Y-56991804D02*
X93516730Y-56823445D01*
X93516730Y-56823445D02*
X93550401Y-56722430D01*
X93550401Y-56722430D02*
X93550401Y-56655086D01*
X93550401Y-56655086D02*
X93516730Y-56554071D01*
X85400284Y-64844583D02*
X85467628Y-64844583D01*
X85467628Y-64844583D02*
X85602315Y-64777239D01*
X85602315Y-64777239D02*
X85669658Y-64709896D01*
X85669658Y-64709896D02*
X85737002Y-64575209D01*
X85737002Y-64575209D02*
X85737002Y-64440522D01*
X85737002Y-64440522D02*
X85703330Y-64339506D01*
X85703330Y-64339506D02*
X85602315Y-64171148D01*
X85602315Y-64171148D02*
X85501300Y-64070132D01*
X85501300Y-64070132D02*
X85332941Y-63969117D01*
X85332941Y-63969117D02*
X85231926Y-63935445D01*
X85231926Y-63935445D02*
X85097239Y-63935445D01*
X85097239Y-63935445D02*
X84962552Y-64002789D01*
X84962552Y-64002789D02*
X84895208Y-64070132D01*
X84895208Y-64070132D02*
X84827865Y-64204819D01*
X84827865Y-64204819D02*
X84827865Y-64272163D01*
X84390132Y-65046613D02*
X84861536Y-65518018D01*
X84289117Y-64608881D02*
X84962552Y-64945598D01*
X84962552Y-64945598D02*
X84524819Y-65383331D01*
X112970791Y-71834346D02*
X113543210Y-71733330D01*
X113374852Y-72238407D02*
X114081958Y-71531300D01*
X114081958Y-71531300D02*
X113812584Y-71261926D01*
X113812584Y-71261926D02*
X113711569Y-71228254D01*
X113711569Y-71228254D02*
X113644226Y-71228254D01*
X113644226Y-71228254D02*
X113543210Y-71261926D01*
X113543210Y-71261926D02*
X113442195Y-71362941D01*
X113442195Y-71362941D02*
X113408523Y-71463956D01*
X113408523Y-71463956D02*
X113408523Y-71531300D01*
X113408523Y-71531300D02*
X113442195Y-71632315D01*
X113442195Y-71632315D02*
X113711569Y-71901689D01*
X112297356Y-71160911D02*
X112701417Y-71564972D01*
X112499386Y-71362941D02*
X113206493Y-70655834D01*
X113206493Y-70655834D02*
X113172821Y-70824193D01*
X113172821Y-70824193D02*
X113172821Y-70958880D01*
X113172821Y-70958880D02*
X113206493Y-71059895D01*
X112768760Y-70218102D02*
X112297356Y-69746697D01*
X112297356Y-69746697D02*
X111893295Y-70756850D01*
X118570346Y-71941208D02*
X118469330Y-71368789D01*
X118974407Y-71537147D02*
X118267300Y-70830041D01*
X118267300Y-70830041D02*
X117997926Y-71099415D01*
X117997926Y-71099415D02*
X117964254Y-71200430D01*
X117964254Y-71200430D02*
X117964254Y-71267773D01*
X117964254Y-71267773D02*
X117997926Y-71368789D01*
X117997926Y-71368789D02*
X118098941Y-71469804D01*
X118098941Y-71469804D02*
X118199956Y-71503476D01*
X118199956Y-71503476D02*
X118267300Y-71503476D01*
X118267300Y-71503476D02*
X118368315Y-71469804D01*
X118368315Y-71469804D02*
X118637689Y-71200430D01*
X117896911Y-72614643D02*
X118300972Y-72210582D01*
X118098941Y-72412613D02*
X117391834Y-71705506D01*
X117391834Y-71705506D02*
X117560193Y-71739178D01*
X117560193Y-71739178D02*
X117694880Y-71739178D01*
X117694880Y-71739178D02*
X117795895Y-71705506D01*
X116550041Y-72547300D02*
X116886758Y-72210582D01*
X116886758Y-72210582D02*
X117257147Y-72513628D01*
X117257147Y-72513628D02*
X117189804Y-72513628D01*
X117189804Y-72513628D02*
X117088789Y-72547300D01*
X117088789Y-72547300D02*
X116920430Y-72715659D01*
X116920430Y-72715659D02*
X116886758Y-72816674D01*
X116886758Y-72816674D02*
X116886758Y-72884017D01*
X116886758Y-72884017D02*
X116920430Y-72985033D01*
X116920430Y-72985033D02*
X117088789Y-73153391D01*
X117088789Y-73153391D02*
X117189804Y-73187063D01*
X117189804Y-73187063D02*
X117257147Y-73187063D01*
X117257147Y-73187063D02*
X117358163Y-73153391D01*
X117358163Y-73153391D02*
X117526521Y-72985033D01*
X117526521Y-72985033D02*
X117560193Y-72884017D01*
X117560193Y-72884017D02*
X117560193Y-72816674D01*
X94413416Y-50856284D02*
X94413416Y-50923628D01*
X94413416Y-50923628D02*
X94480760Y-51058315D01*
X94480760Y-51058315D02*
X94548103Y-51125658D01*
X94548103Y-51125658D02*
X94682790Y-51193002D01*
X94682790Y-51193002D02*
X94817477Y-51193002D01*
X94817477Y-51193002D02*
X94918493Y-51159330D01*
X94918493Y-51159330D02*
X95086851Y-51058315D01*
X95086851Y-51058315D02*
X95187867Y-50957300D01*
X95187867Y-50957300D02*
X95288882Y-50788941D01*
X95288882Y-50788941D02*
X95322554Y-50687926D01*
X95322554Y-50687926D02*
X95322554Y-50553239D01*
X95322554Y-50553239D02*
X95255210Y-50418552D01*
X95255210Y-50418552D02*
X95187867Y-50351208D01*
X95187867Y-50351208D02*
X95053180Y-50283865D01*
X95053180Y-50283865D02*
X94985836Y-50283865D01*
X93672638Y-50250193D02*
X94076699Y-50654254D01*
X93874668Y-50452223D02*
X94581775Y-49745117D01*
X94581775Y-49745117D02*
X94548103Y-49913475D01*
X94548103Y-49913475D02*
X94548103Y-50048162D01*
X94548103Y-50048162D02*
X94581775Y-50149178D01*
X117046346Y-70671208D02*
X116945330Y-70098789D01*
X117450407Y-70267147D02*
X116743300Y-69560041D01*
X116743300Y-69560041D02*
X116473926Y-69829415D01*
X116473926Y-69829415D02*
X116440254Y-69930430D01*
X116440254Y-69930430D02*
X116440254Y-69997773D01*
X116440254Y-69997773D02*
X116473926Y-70098789D01*
X116473926Y-70098789D02*
X116574941Y-70199804D01*
X116574941Y-70199804D02*
X116675956Y-70233476D01*
X116675956Y-70233476D02*
X116743300Y-70233476D01*
X116743300Y-70233476D02*
X116844315Y-70199804D01*
X116844315Y-70199804D02*
X117113689Y-69930430D01*
X116372911Y-71344643D02*
X116776972Y-70940582D01*
X116574941Y-71142613D02*
X115867834Y-70435506D01*
X115867834Y-70435506D02*
X116036193Y-70469178D01*
X116036193Y-70469178D02*
X116170880Y-70469178D01*
X116170880Y-70469178D02*
X116271895Y-70435506D01*
X115059712Y-71243628D02*
X115194399Y-71108941D01*
X115194399Y-71108941D02*
X115295415Y-71075269D01*
X115295415Y-71075269D02*
X115362758Y-71075269D01*
X115362758Y-71075269D02*
X115531117Y-71108941D01*
X115531117Y-71108941D02*
X115699476Y-71209956D01*
X115699476Y-71209956D02*
X115968850Y-71479330D01*
X115968850Y-71479330D02*
X116002521Y-71580346D01*
X116002521Y-71580346D02*
X116002521Y-71647689D01*
X116002521Y-71647689D02*
X115968850Y-71748704D01*
X115968850Y-71748704D02*
X115834163Y-71883391D01*
X115834163Y-71883391D02*
X115733147Y-71917063D01*
X115733147Y-71917063D02*
X115665804Y-71917063D01*
X115665804Y-71917063D02*
X115564789Y-71883391D01*
X115564789Y-71883391D02*
X115396430Y-71715033D01*
X115396430Y-71715033D02*
X115362758Y-71614017D01*
X115362758Y-71614017D02*
X115362758Y-71546674D01*
X115362758Y-71546674D02*
X115396430Y-71445659D01*
X115396430Y-71445659D02*
X115531117Y-71310972D01*
X115531117Y-71310972D02*
X115632132Y-71277300D01*
X115632132Y-71277300D02*
X115699476Y-71277300D01*
X115699476Y-71277300D02*
X115800491Y-71310972D01*
X96714791Y-72088346D02*
X97287210Y-71987330D01*
X97118852Y-72492407D02*
X97825958Y-71785300D01*
X97825958Y-71785300D02*
X97556584Y-71515926D01*
X97556584Y-71515926D02*
X97455569Y-71482254D01*
X97455569Y-71482254D02*
X97388226Y-71482254D01*
X97388226Y-71482254D02*
X97287210Y-71515926D01*
X97287210Y-71515926D02*
X97186195Y-71616941D01*
X97186195Y-71616941D02*
X97152523Y-71717956D01*
X97152523Y-71717956D02*
X97152523Y-71785300D01*
X97152523Y-71785300D02*
X97186195Y-71886315D01*
X97186195Y-71886315D02*
X97455569Y-72155689D01*
X96041356Y-71414911D02*
X96445417Y-71818972D01*
X96243386Y-71616941D02*
X96950493Y-70909834D01*
X96950493Y-70909834D02*
X96916821Y-71078193D01*
X96916821Y-71078193D02*
X96916821Y-71212880D01*
X96916821Y-71212880D02*
X96950493Y-71313895D01*
X96411745Y-70505773D02*
X96411745Y-70438430D01*
X96411745Y-70438430D02*
X96378073Y-70337415D01*
X96378073Y-70337415D02*
X96209714Y-70169056D01*
X96209714Y-70169056D02*
X96108699Y-70135384D01*
X96108699Y-70135384D02*
X96041356Y-70135384D01*
X96041356Y-70135384D02*
X95940340Y-70169056D01*
X95940340Y-70169056D02*
X95872997Y-70236399D01*
X95872997Y-70236399D02*
X95805653Y-70371086D01*
X95805653Y-70371086D02*
X95805653Y-71179208D01*
X95805653Y-71179208D02*
X95367921Y-70741476D01*
X96886073Y-82165628D02*
X97458493Y-82064613D01*
X97290134Y-82569689D02*
X97997241Y-81862582D01*
X97997241Y-81862582D02*
X97727867Y-81593208D01*
X97727867Y-81593208D02*
X97626851Y-81559536D01*
X97626851Y-81559536D02*
X97559508Y-81559536D01*
X97559508Y-81559536D02*
X97458493Y-81593208D01*
X97458493Y-81593208D02*
X97357477Y-81694223D01*
X97357477Y-81694223D02*
X97323806Y-81795239D01*
X97323806Y-81795239D02*
X97323806Y-81862582D01*
X97323806Y-81862582D02*
X97357477Y-81963597D01*
X97357477Y-81963597D02*
X97626851Y-82232971D01*
X96987088Y-80852430D02*
X97121775Y-80987117D01*
X97121775Y-80987117D02*
X97155447Y-81088132D01*
X97155447Y-81088132D02*
X97155447Y-81155475D01*
X97155447Y-81155475D02*
X97121775Y-81323834D01*
X97121775Y-81323834D02*
X97020760Y-81492193D01*
X97020760Y-81492193D02*
X96751386Y-81761567D01*
X96751386Y-81761567D02*
X96650370Y-81795239D01*
X96650370Y-81795239D02*
X96583027Y-81795239D01*
X96583027Y-81795239D02*
X96482012Y-81761567D01*
X96482012Y-81761567D02*
X96347325Y-81626880D01*
X96347325Y-81626880D02*
X96313653Y-81525865D01*
X96313653Y-81525865D02*
X96313653Y-81458521D01*
X96313653Y-81458521D02*
X96347325Y-81357506D01*
X96347325Y-81357506D02*
X96515683Y-81189147D01*
X96515683Y-81189147D02*
X96616699Y-81155475D01*
X96616699Y-81155475D02*
X96684042Y-81155475D01*
X96684042Y-81155475D02*
X96785057Y-81189147D01*
X96785057Y-81189147D02*
X96919744Y-81323834D01*
X96919744Y-81323834D02*
X96953416Y-81424849D01*
X96953416Y-81424849D02*
X96953416Y-81492193D01*
X96953416Y-81492193D02*
X96919744Y-81593208D01*
X95175416Y-73970284D02*
X95175416Y-74037628D01*
X95175416Y-74037628D02*
X95242760Y-74172315D01*
X95242760Y-74172315D02*
X95310103Y-74239658D01*
X95310103Y-74239658D02*
X95444790Y-74307002D01*
X95444790Y-74307002D02*
X95579477Y-74307002D01*
X95579477Y-74307002D02*
X95680493Y-74273330D01*
X95680493Y-74273330D02*
X95848851Y-74172315D01*
X95848851Y-74172315D02*
X95949867Y-74071300D01*
X95949867Y-74071300D02*
X96050882Y-73902941D01*
X96050882Y-73902941D02*
X96084554Y-73801926D01*
X96084554Y-73801926D02*
X96084554Y-73667239D01*
X96084554Y-73667239D02*
X96017210Y-73532552D01*
X96017210Y-73532552D02*
X95949867Y-73465208D01*
X95949867Y-73465208D02*
X95815180Y-73397865D01*
X95815180Y-73397865D02*
X95747836Y-73397865D01*
X95108073Y-73229506D02*
X95209088Y-73263178D01*
X95209088Y-73263178D02*
X95276431Y-73263178D01*
X95276431Y-73263178D02*
X95377447Y-73229506D01*
X95377447Y-73229506D02*
X95411118Y-73195834D01*
X95411118Y-73195834D02*
X95444790Y-73094819D01*
X95444790Y-73094819D02*
X95444790Y-73027475D01*
X95444790Y-73027475D02*
X95411118Y-72926460D01*
X95411118Y-72926460D02*
X95276431Y-72791773D01*
X95276431Y-72791773D02*
X95175416Y-72758101D01*
X95175416Y-72758101D02*
X95108073Y-72758101D01*
X95108073Y-72758101D02*
X95007057Y-72791773D01*
X95007057Y-72791773D02*
X94973386Y-72825445D01*
X94973386Y-72825445D02*
X94939714Y-72926460D01*
X94939714Y-72926460D02*
X94939714Y-72993804D01*
X94939714Y-72993804D02*
X94973386Y-73094819D01*
X94973386Y-73094819D02*
X95108073Y-73229506D01*
X95108073Y-73229506D02*
X95141744Y-73330521D01*
X95141744Y-73330521D02*
X95141744Y-73397865D01*
X95141744Y-73397865D02*
X95108073Y-73498880D01*
X95108073Y-73498880D02*
X94973386Y-73633567D01*
X94973386Y-73633567D02*
X94872370Y-73667239D01*
X94872370Y-73667239D02*
X94805027Y-73667239D01*
X94805027Y-73667239D02*
X94704012Y-73633567D01*
X94704012Y-73633567D02*
X94569325Y-73498880D01*
X94569325Y-73498880D02*
X94535653Y-73397865D01*
X94535653Y-73397865D02*
X94535653Y-73330521D01*
X94535653Y-73330521D02*
X94569325Y-73229506D01*
X94569325Y-73229506D02*
X94704012Y-73094819D01*
X94704012Y-73094819D02*
X94805027Y-73061147D01*
X94805027Y-73061147D02*
X94872370Y-73061147D01*
X94872370Y-73061147D02*
X94973386Y-73094819D01*
X85146284Y-58240583D02*
X85213628Y-58240583D01*
X85213628Y-58240583D02*
X85348315Y-58173239D01*
X85348315Y-58173239D02*
X85415658Y-58105896D01*
X85415658Y-58105896D02*
X85483002Y-57971209D01*
X85483002Y-57971209D02*
X85483002Y-57836522D01*
X85483002Y-57836522D02*
X85449330Y-57735506D01*
X85449330Y-57735506D02*
X85348315Y-57567148D01*
X85348315Y-57567148D02*
X85247300Y-57466132D01*
X85247300Y-57466132D02*
X85078941Y-57365117D01*
X85078941Y-57365117D02*
X84977926Y-57331445D01*
X84977926Y-57331445D02*
X84843239Y-57331445D01*
X84843239Y-57331445D02*
X84708552Y-57398789D01*
X84708552Y-57398789D02*
X84641208Y-57466132D01*
X84641208Y-57466132D02*
X84573865Y-57600819D01*
X84573865Y-57600819D02*
X84573865Y-57668163D01*
X84270819Y-57836522D02*
X83799414Y-58307926D01*
X83799414Y-58307926D02*
X84809567Y-58711987D01*
X85654284Y-51128583D02*
X85721628Y-51128583D01*
X85721628Y-51128583D02*
X85856315Y-51061239D01*
X85856315Y-51061239D02*
X85923658Y-50993896D01*
X85923658Y-50993896D02*
X85991002Y-50859209D01*
X85991002Y-50859209D02*
X85991002Y-50724522D01*
X85991002Y-50724522D02*
X85957330Y-50623506D01*
X85957330Y-50623506D02*
X85856315Y-50455148D01*
X85856315Y-50455148D02*
X85755300Y-50354132D01*
X85755300Y-50354132D02*
X85586941Y-50253117D01*
X85586941Y-50253117D02*
X85485926Y-50219445D01*
X85485926Y-50219445D02*
X85351239Y-50219445D01*
X85351239Y-50219445D02*
X85216552Y-50286789D01*
X85216552Y-50286789D02*
X85149208Y-50354132D01*
X85149208Y-50354132D02*
X85081865Y-50488819D01*
X85081865Y-50488819D02*
X85081865Y-50556163D01*
X84812491Y-50825537D02*
X84745147Y-50825537D01*
X84745147Y-50825537D02*
X84644132Y-50859209D01*
X84644132Y-50859209D02*
X84475773Y-51027568D01*
X84475773Y-51027568D02*
X84442101Y-51128583D01*
X84442101Y-51128583D02*
X84442101Y-51195926D01*
X84442101Y-51195926D02*
X84475773Y-51296942D01*
X84475773Y-51296942D02*
X84543117Y-51364285D01*
X84543117Y-51364285D02*
X84677804Y-51431629D01*
X84677804Y-51431629D02*
X85485926Y-51431629D01*
X85485926Y-51431629D02*
X85048193Y-51869361D01*
X87570791Y-72596346D02*
X88143210Y-72495330D01*
X87974852Y-73000407D02*
X88681958Y-72293300D01*
X88681958Y-72293300D02*
X88412584Y-72023926D01*
X88412584Y-72023926D02*
X88311569Y-71990254D01*
X88311569Y-71990254D02*
X88244226Y-71990254D01*
X88244226Y-71990254D02*
X88143210Y-72023926D01*
X88143210Y-72023926D02*
X88042195Y-72124941D01*
X88042195Y-72124941D02*
X88008523Y-72225956D01*
X88008523Y-72225956D02*
X88008523Y-72293300D01*
X88008523Y-72293300D02*
X88042195Y-72394315D01*
X88042195Y-72394315D02*
X88311569Y-72663689D01*
X87941180Y-71687208D02*
X87941180Y-71619865D01*
X87941180Y-71619865D02*
X87907508Y-71518850D01*
X87907508Y-71518850D02*
X87739149Y-71350491D01*
X87739149Y-71350491D02*
X87638134Y-71316819D01*
X87638134Y-71316819D02*
X87570791Y-71316819D01*
X87570791Y-71316819D02*
X87469775Y-71350491D01*
X87469775Y-71350491D02*
X87402432Y-71417834D01*
X87402432Y-71417834D02*
X87335088Y-71552521D01*
X87335088Y-71552521D02*
X87335088Y-72360643D01*
X87335088Y-72360643D02*
X86897356Y-71922911D01*
X86223921Y-71249476D02*
X86627982Y-71653537D01*
X86425951Y-71451506D02*
X87133058Y-70744399D01*
X87133058Y-70744399D02*
X87099386Y-70912758D01*
X87099386Y-70912758D02*
X87099386Y-71047445D01*
X87099386Y-71047445D02*
X87133058Y-71148460D01*
X112746077Y-73751418D02*
X112173657Y-74323838D01*
X112173657Y-74323838D02*
X112072642Y-74357510D01*
X112072642Y-74357510D02*
X112005298Y-74357510D01*
X112005298Y-74357510D02*
X111904283Y-74323838D01*
X111904283Y-74323838D02*
X111769596Y-74189151D01*
X111769596Y-74189151D02*
X111735924Y-74088136D01*
X111735924Y-74088136D02*
X111735924Y-74020792D01*
X111735924Y-74020792D02*
X111769596Y-73919777D01*
X111769596Y-73919777D02*
X112342016Y-73347357D01*
X111466550Y-72943296D02*
X110995146Y-73414701D01*
X111904283Y-72842281D02*
X111567565Y-73515716D01*
X111567565Y-73515716D02*
X111129833Y-73077983D01*
X97659628Y-61101926D02*
X97558613Y-60529506D01*
X98063689Y-60697865D02*
X97356582Y-59990758D01*
X97356582Y-59990758D02*
X97087208Y-60260132D01*
X97087208Y-60260132D02*
X97053536Y-60361148D01*
X97053536Y-60361148D02*
X97053536Y-60428491D01*
X97053536Y-60428491D02*
X97087208Y-60529506D01*
X97087208Y-60529506D02*
X97188223Y-60630522D01*
X97188223Y-60630522D02*
X97289239Y-60664193D01*
X97289239Y-60664193D02*
X97356582Y-60664193D01*
X97356582Y-60664193D02*
X97457597Y-60630522D01*
X97457597Y-60630522D02*
X97726971Y-60361148D01*
X96312758Y-61034583D02*
X96649475Y-60697865D01*
X96649475Y-60697865D02*
X97019865Y-61000911D01*
X97019865Y-61000911D02*
X96952521Y-61000911D01*
X96952521Y-61000911D02*
X96851506Y-61034583D01*
X96851506Y-61034583D02*
X96683147Y-61202942D01*
X96683147Y-61202942D02*
X96649475Y-61303957D01*
X96649475Y-61303957D02*
X96649475Y-61371300D01*
X96649475Y-61371300D02*
X96683147Y-61472316D01*
X96683147Y-61472316D02*
X96851506Y-61640674D01*
X96851506Y-61640674D02*
X96952521Y-61674346D01*
X96952521Y-61674346D02*
X97019865Y-61674346D01*
X97019865Y-61674346D02*
X97120880Y-61640674D01*
X97120880Y-61640674D02*
X97289239Y-61472316D01*
X97289239Y-61472316D02*
X97322910Y-61371300D01*
X97322910Y-61371300D02*
X97322910Y-61303957D01*
X84788346Y-71179208D02*
X84687330Y-70606789D01*
X85192407Y-70775147D02*
X84485300Y-70068041D01*
X84485300Y-70068041D02*
X84215926Y-70337415D01*
X84215926Y-70337415D02*
X84182254Y-70438430D01*
X84182254Y-70438430D02*
X84182254Y-70505773D01*
X84182254Y-70505773D02*
X84215926Y-70606789D01*
X84215926Y-70606789D02*
X84316941Y-70707804D01*
X84316941Y-70707804D02*
X84417956Y-70741476D01*
X84417956Y-70741476D02*
X84485300Y-70741476D01*
X84485300Y-70741476D02*
X84586315Y-70707804D01*
X84586315Y-70707804D02*
X84855689Y-70438430D01*
X83879208Y-70808819D02*
X83811865Y-70808819D01*
X83811865Y-70808819D02*
X83710850Y-70842491D01*
X83710850Y-70842491D02*
X83542491Y-71010850D01*
X83542491Y-71010850D02*
X83508819Y-71111865D01*
X83508819Y-71111865D02*
X83508819Y-71179208D01*
X83508819Y-71179208D02*
X83542491Y-71280224D01*
X83542491Y-71280224D02*
X83609834Y-71347567D01*
X83609834Y-71347567D02*
X83744521Y-71414911D01*
X83744521Y-71414911D02*
X84552643Y-71414911D01*
X84552643Y-71414911D02*
X84114911Y-71852643D01*
X82970071Y-71583269D02*
X82902728Y-71650613D01*
X82902728Y-71650613D02*
X82869056Y-71751628D01*
X82869056Y-71751628D02*
X82869056Y-71818972D01*
X82869056Y-71818972D02*
X82902728Y-71919987D01*
X82902728Y-71919987D02*
X83003743Y-72088346D01*
X83003743Y-72088346D02*
X83172102Y-72256704D01*
X83172102Y-72256704D02*
X83340460Y-72357720D01*
X83340460Y-72357720D02*
X83441476Y-72391391D01*
X83441476Y-72391391D02*
X83508819Y-72391391D01*
X83508819Y-72391391D02*
X83609834Y-72357720D01*
X83609834Y-72357720D02*
X83677178Y-72290376D01*
X83677178Y-72290376D02*
X83710850Y-72189361D01*
X83710850Y-72189361D02*
X83710850Y-72122017D01*
X83710850Y-72122017D02*
X83677178Y-72021002D01*
X83677178Y-72021002D02*
X83576163Y-71852643D01*
X83576163Y-71852643D02*
X83407804Y-71684285D01*
X83407804Y-71684285D02*
X83239445Y-71583269D01*
X83239445Y-71583269D02*
X83138430Y-71549598D01*
X83138430Y-71549598D02*
X83071086Y-71549598D01*
X83071086Y-71549598D02*
X82970071Y-71583269D01*
X90630346Y-75751208D02*
X90529330Y-75178789D01*
X91034407Y-75347147D02*
X90327300Y-74640041D01*
X90327300Y-74640041D02*
X90057926Y-74909415D01*
X90057926Y-74909415D02*
X90024254Y-75010430D01*
X90024254Y-75010430D02*
X90024254Y-75077773D01*
X90024254Y-75077773D02*
X90057926Y-75178789D01*
X90057926Y-75178789D02*
X90158941Y-75279804D01*
X90158941Y-75279804D02*
X90259956Y-75313476D01*
X90259956Y-75313476D02*
X90327300Y-75313476D01*
X90327300Y-75313476D02*
X90428315Y-75279804D01*
X90428315Y-75279804D02*
X90697689Y-75010430D01*
X89721208Y-75380819D02*
X89653865Y-75380819D01*
X89653865Y-75380819D02*
X89552850Y-75414491D01*
X89552850Y-75414491D02*
X89384491Y-75582850D01*
X89384491Y-75582850D02*
X89350819Y-75683865D01*
X89350819Y-75683865D02*
X89350819Y-75751208D01*
X89350819Y-75751208D02*
X89384491Y-75852224D01*
X89384491Y-75852224D02*
X89451834Y-75919567D01*
X89451834Y-75919567D02*
X89586521Y-75986911D01*
X89586521Y-75986911D02*
X90394643Y-75986911D01*
X90394643Y-75986911D02*
X89956911Y-76424643D01*
X89014102Y-75953239D02*
X88576369Y-76390972D01*
X88576369Y-76390972D02*
X89081445Y-76424643D01*
X89081445Y-76424643D02*
X88980430Y-76525659D01*
X88980430Y-76525659D02*
X88946758Y-76626674D01*
X88946758Y-76626674D02*
X88946758Y-76694017D01*
X88946758Y-76694017D02*
X88980430Y-76795033D01*
X88980430Y-76795033D02*
X89148789Y-76963391D01*
X89148789Y-76963391D02*
X89249804Y-76997063D01*
X89249804Y-76997063D02*
X89317147Y-76997063D01*
X89317147Y-76997063D02*
X89418163Y-76963391D01*
X89418163Y-76963391D02*
X89620193Y-76761361D01*
X89620193Y-76761361D02*
X89653865Y-76660346D01*
X89653865Y-76660346D02*
X89653865Y-76593002D01*
X83943628Y-63895926D02*
X83842613Y-63323506D01*
X84347689Y-63491865D02*
X83640582Y-62784758D01*
X83640582Y-62784758D02*
X83371208Y-63054132D01*
X83371208Y-63054132D02*
X83337536Y-63155148D01*
X83337536Y-63155148D02*
X83337536Y-63222491D01*
X83337536Y-63222491D02*
X83371208Y-63323506D01*
X83371208Y-63323506D02*
X83472223Y-63424522D01*
X83472223Y-63424522D02*
X83573239Y-63458193D01*
X83573239Y-63458193D02*
X83640582Y-63458193D01*
X83640582Y-63458193D02*
X83741597Y-63424522D01*
X83741597Y-63424522D02*
X84010971Y-63155148D01*
X82866132Y-64030613D02*
X83337536Y-64502018D01*
X82765117Y-63592881D02*
X83438552Y-63929598D01*
X83438552Y-63929598D02*
X83000819Y-64367331D01*
X100524791Y-68786346D02*
X101097210Y-68685330D01*
X100928852Y-69190407D02*
X101635958Y-68483300D01*
X101635958Y-68483300D02*
X101366584Y-68213926D01*
X101366584Y-68213926D02*
X101265569Y-68180254D01*
X101265569Y-68180254D02*
X101198226Y-68180254D01*
X101198226Y-68180254D02*
X101097210Y-68213926D01*
X101097210Y-68213926D02*
X100996195Y-68314941D01*
X100996195Y-68314941D02*
X100962523Y-68415956D01*
X100962523Y-68415956D02*
X100962523Y-68483300D01*
X100962523Y-68483300D02*
X100996195Y-68584315D01*
X100996195Y-68584315D02*
X101265569Y-68853689D01*
X99851356Y-68112911D02*
X100255417Y-68516972D01*
X100053386Y-68314941D02*
X100760493Y-67607834D01*
X100760493Y-67607834D02*
X100726821Y-67776193D01*
X100726821Y-67776193D02*
X100726821Y-67910880D01*
X100726821Y-67910880D02*
X100760493Y-68011895D01*
X99177921Y-67439476D02*
X99581982Y-67843537D01*
X99379951Y-67641506D02*
X100087058Y-66934399D01*
X100087058Y-66934399D02*
X100053386Y-67102758D01*
X100053386Y-67102758D02*
X100053386Y-67237445D01*
X100053386Y-67237445D02*
X100087058Y-67338460D01*
X111458346Y-65083208D02*
X111357330Y-64510789D01*
X111862407Y-64679147D02*
X111155300Y-63972041D01*
X111155300Y-63972041D02*
X110885926Y-64241415D01*
X110885926Y-64241415D02*
X110852254Y-64342430D01*
X110852254Y-64342430D02*
X110852254Y-64409773D01*
X110852254Y-64409773D02*
X110885926Y-64510789D01*
X110885926Y-64510789D02*
X110986941Y-64611804D01*
X110986941Y-64611804D02*
X111087956Y-64645476D01*
X111087956Y-64645476D02*
X111155300Y-64645476D01*
X111155300Y-64645476D02*
X111256315Y-64611804D01*
X111256315Y-64611804D02*
X111525689Y-64342430D01*
X110784911Y-65756643D02*
X111188972Y-65352582D01*
X110986941Y-65554613D02*
X110279834Y-64847506D01*
X110279834Y-64847506D02*
X110448193Y-64881178D01*
X110448193Y-64881178D02*
X110582880Y-64881178D01*
X110582880Y-64881178D02*
X110683895Y-64847506D01*
X109976789Y-65756643D02*
X110010460Y-65655628D01*
X110010460Y-65655628D02*
X110010460Y-65588285D01*
X110010460Y-65588285D02*
X109976789Y-65487269D01*
X109976789Y-65487269D02*
X109943117Y-65453598D01*
X109943117Y-65453598D02*
X109842102Y-65419926D01*
X109842102Y-65419926D02*
X109774758Y-65419926D01*
X109774758Y-65419926D02*
X109673743Y-65453598D01*
X109673743Y-65453598D02*
X109539056Y-65588285D01*
X109539056Y-65588285D02*
X109505384Y-65689300D01*
X109505384Y-65689300D02*
X109505384Y-65756643D01*
X109505384Y-65756643D02*
X109539056Y-65857659D01*
X109539056Y-65857659D02*
X109572728Y-65891330D01*
X109572728Y-65891330D02*
X109673743Y-65925002D01*
X109673743Y-65925002D02*
X109741086Y-65925002D01*
X109741086Y-65925002D02*
X109842102Y-65891330D01*
X109842102Y-65891330D02*
X109976789Y-65756643D01*
X109976789Y-65756643D02*
X110077804Y-65722972D01*
X110077804Y-65722972D02*
X110145147Y-65722972D01*
X110145147Y-65722972D02*
X110246163Y-65756643D01*
X110246163Y-65756643D02*
X110380850Y-65891330D01*
X110380850Y-65891330D02*
X110414521Y-65992346D01*
X110414521Y-65992346D02*
X110414521Y-66059689D01*
X110414521Y-66059689D02*
X110380850Y-66160704D01*
X110380850Y-66160704D02*
X110246163Y-66295391D01*
X110246163Y-66295391D02*
X110145147Y-66329063D01*
X110145147Y-66329063D02*
X110077804Y-66329063D01*
X110077804Y-66329063D02*
X109976789Y-66295391D01*
X109976789Y-66295391D02*
X109842102Y-66160704D01*
X109842102Y-66160704D02*
X109808430Y-66059689D01*
X109808430Y-66059689D02*
X109808430Y-65992346D01*
X109808430Y-65992346D02*
X109842102Y-65891330D01*
X86737628Y-59831925D02*
X86636613Y-59259505D01*
X87141689Y-59427864D02*
X86434582Y-58720757D01*
X86434582Y-58720757D02*
X86165208Y-58990131D01*
X86165208Y-58990131D02*
X86131536Y-59091147D01*
X86131536Y-59091147D02*
X86131536Y-59158490D01*
X86131536Y-59158490D02*
X86165208Y-59259505D01*
X86165208Y-59259505D02*
X86266223Y-59360521D01*
X86266223Y-59360521D02*
X86367239Y-59394192D01*
X86367239Y-59394192D02*
X86434582Y-59394192D01*
X86434582Y-59394192D02*
X86535597Y-59360521D01*
X86535597Y-59360521D02*
X86804971Y-59091147D01*
X86400910Y-60168643D02*
X86266223Y-60303330D01*
X86266223Y-60303330D02*
X86165208Y-60337002D01*
X86165208Y-60337002D02*
X86097865Y-60337002D01*
X86097865Y-60337002D02*
X85929506Y-60303330D01*
X85929506Y-60303330D02*
X85761147Y-60202315D01*
X85761147Y-60202315D02*
X85491773Y-59932941D01*
X85491773Y-59932941D02*
X85458101Y-59831925D01*
X85458101Y-59831925D02*
X85458101Y-59764582D01*
X85458101Y-59764582D02*
X85491773Y-59663567D01*
X85491773Y-59663567D02*
X85626460Y-59528880D01*
X85626460Y-59528880D02*
X85727475Y-59495208D01*
X85727475Y-59495208D02*
X85794819Y-59495208D01*
X85794819Y-59495208D02*
X85895834Y-59528880D01*
X85895834Y-59528880D02*
X86064193Y-59697238D01*
X86064193Y-59697238D02*
X86097865Y-59798254D01*
X86097865Y-59798254D02*
X86097865Y-59865597D01*
X86097865Y-59865597D02*
X86064193Y-59966612D01*
X86064193Y-59966612D02*
X85929506Y-60101299D01*
X85929506Y-60101299D02*
X85828491Y-60134971D01*
X85828491Y-60134971D02*
X85761147Y-60134971D01*
X85761147Y-60134971D02*
X85660132Y-60101299D01*
X99866065Y-79351072D02*
X100438484Y-79250056D01*
X100270126Y-79755133D02*
X100977232Y-79048026D01*
X100977232Y-79048026D02*
X100707858Y-78778652D01*
X100707858Y-78778652D02*
X100606843Y-78744980D01*
X100606843Y-78744980D02*
X100539500Y-78744980D01*
X100539500Y-78744980D02*
X100438484Y-78778652D01*
X100438484Y-78778652D02*
X100337469Y-78879667D01*
X100337469Y-78879667D02*
X100303797Y-78980682D01*
X100303797Y-78980682D02*
X100303797Y-79048026D01*
X100303797Y-79048026D02*
X100337469Y-79149041D01*
X100337469Y-79149041D02*
X100606843Y-79418415D01*
X99192630Y-78677637D02*
X99596691Y-79081698D01*
X99394660Y-78879667D02*
X100101767Y-78172560D01*
X100101767Y-78172560D02*
X100068095Y-78340919D01*
X100068095Y-78340919D02*
X100068095Y-78475606D01*
X100068095Y-78475606D02*
X100101767Y-78576621D01*
X99664034Y-77734828D02*
X99226301Y-77297095D01*
X99226301Y-77297095D02*
X99192630Y-77802171D01*
X99192630Y-77802171D02*
X99091614Y-77701156D01*
X99091614Y-77701156D02*
X98990599Y-77667484D01*
X98990599Y-77667484D02*
X98923256Y-77667484D01*
X98923256Y-77667484D02*
X98822240Y-77701156D01*
X98822240Y-77701156D02*
X98653882Y-77869515D01*
X98653882Y-77869515D02*
X98620210Y-77970530D01*
X98620210Y-77970530D02*
X98620210Y-78037873D01*
X98620210Y-78037873D02*
X98653882Y-78138889D01*
X98653882Y-78138889D02*
X98855912Y-78340919D01*
X98855912Y-78340919D02*
X98956927Y-78374591D01*
X98956927Y-78374591D02*
X99024271Y-78374591D01*
X88247822Y-61388299D02*
X88197081Y-60809253D01*
X88685562Y-61020991D02*
X88042774Y-60254947D01*
X88042774Y-60254947D02*
X87750948Y-60499818D01*
X87750948Y-60499818D02*
X87708600Y-60597515D01*
X87708600Y-60597515D02*
X87702731Y-60664602D01*
X87702731Y-60664602D02*
X87727470Y-60768167D01*
X87727470Y-60768167D02*
X87819297Y-60877602D01*
X87819297Y-60877602D02*
X87916993Y-60919950D01*
X87916993Y-60919950D02*
X87984080Y-60925819D01*
X87984080Y-60925819D02*
X88087646Y-60901080D01*
X88087646Y-60901080D02*
X88379472Y-60656208D01*
X87442775Y-61317866D02*
X87485123Y-61220170D01*
X87485123Y-61220170D02*
X87490992Y-61153083D01*
X87490992Y-61153083D02*
X87466253Y-61049517D01*
X87466253Y-61049517D02*
X87435644Y-61013039D01*
X87435644Y-61013039D02*
X87337948Y-60970691D01*
X87337948Y-60970691D02*
X87270860Y-60964822D01*
X87270860Y-60964822D02*
X87167295Y-60989561D01*
X87167295Y-60989561D02*
X87021382Y-61111997D01*
X87021382Y-61111997D02*
X86979034Y-61209693D01*
X86979034Y-61209693D02*
X86973165Y-61276781D01*
X86973165Y-61276781D02*
X86997904Y-61380346D01*
X86997904Y-61380346D02*
X87028513Y-61416824D01*
X87028513Y-61416824D02*
X87126209Y-61459172D01*
X87126209Y-61459172D02*
X87193296Y-61465041D01*
X87193296Y-61465041D02*
X87296862Y-61440302D01*
X87296862Y-61440302D02*
X87442775Y-61317866D01*
X87442775Y-61317866D02*
X87546341Y-61293127D01*
X87546341Y-61293127D02*
X87613428Y-61298996D01*
X87613428Y-61298996D02*
X87711124Y-61341344D01*
X87711124Y-61341344D02*
X87833560Y-61487257D01*
X87833560Y-61487257D02*
X87858300Y-61590822D01*
X87858300Y-61590822D02*
X87852430Y-61657910D01*
X87852430Y-61657910D02*
X87810082Y-61755606D01*
X87810082Y-61755606D02*
X87664169Y-61878042D01*
X87664169Y-61878042D02*
X87560604Y-61902781D01*
X87560604Y-61902781D02*
X87493516Y-61896912D01*
X87493516Y-61896912D02*
X87395820Y-61854564D01*
X87395820Y-61854564D02*
X87273385Y-61708651D01*
X87273385Y-61708651D02*
X87248645Y-61605085D01*
X87248645Y-61605085D02*
X87254514Y-61537998D01*
X87254514Y-61537998D02*
X87296862Y-61440302D01*
X93424346Y-72957208D02*
X93323330Y-72384789D01*
X93828407Y-72553147D02*
X93121300Y-71846041D01*
X93121300Y-71846041D02*
X92851926Y-72115415D01*
X92851926Y-72115415D02*
X92818254Y-72216430D01*
X92818254Y-72216430D02*
X92818254Y-72283773D01*
X92818254Y-72283773D02*
X92851926Y-72384789D01*
X92851926Y-72384789D02*
X92952941Y-72485804D01*
X92952941Y-72485804D02*
X93053956Y-72519476D01*
X93053956Y-72519476D02*
X93121300Y-72519476D01*
X93121300Y-72519476D02*
X93222315Y-72485804D01*
X93222315Y-72485804D02*
X93491689Y-72216430D01*
X92515208Y-72586819D02*
X92447865Y-72586819D01*
X92447865Y-72586819D02*
X92346850Y-72620491D01*
X92346850Y-72620491D02*
X92178491Y-72788850D01*
X92178491Y-72788850D02*
X92144819Y-72889865D01*
X92144819Y-72889865D02*
X92144819Y-72957208D01*
X92144819Y-72957208D02*
X92178491Y-73058224D01*
X92178491Y-73058224D02*
X92245834Y-73125567D01*
X92245834Y-73125567D02*
X92380521Y-73192911D01*
X92380521Y-73192911D02*
X93188643Y-73192911D01*
X93188643Y-73192911D02*
X92750911Y-73630643D01*
X91841773Y-73260254D02*
X91774430Y-73260254D01*
X91774430Y-73260254D02*
X91673415Y-73293926D01*
X91673415Y-73293926D02*
X91505056Y-73462285D01*
X91505056Y-73462285D02*
X91471384Y-73563300D01*
X91471384Y-73563300D02*
X91471384Y-73630643D01*
X91471384Y-73630643D02*
X91505056Y-73731659D01*
X91505056Y-73731659D02*
X91572399Y-73799002D01*
X91572399Y-73799002D02*
X91707086Y-73866346D01*
X91707086Y-73866346D02*
X92515208Y-73866346D01*
X92515208Y-73866346D02*
X92077476Y-74304078D01*
X98477416Y-70160284D02*
X98477416Y-70227628D01*
X98477416Y-70227628D02*
X98544760Y-70362315D01*
X98544760Y-70362315D02*
X98612103Y-70429658D01*
X98612103Y-70429658D02*
X98746790Y-70497002D01*
X98746790Y-70497002D02*
X98881477Y-70497002D01*
X98881477Y-70497002D02*
X98982493Y-70463330D01*
X98982493Y-70463330D02*
X99150851Y-70362315D01*
X99150851Y-70362315D02*
X99251867Y-70261300D01*
X99251867Y-70261300D02*
X99352882Y-70092941D01*
X99352882Y-70092941D02*
X99386554Y-69991926D01*
X99386554Y-69991926D02*
X99386554Y-69857239D01*
X99386554Y-69857239D02*
X99319210Y-69722552D01*
X99319210Y-69722552D02*
X99251867Y-69655208D01*
X99251867Y-69655208D02*
X99117180Y-69587865D01*
X99117180Y-69587865D02*
X99049836Y-69587865D01*
X98073355Y-69890910D02*
X97938668Y-69756223D01*
X97938668Y-69756223D02*
X97904996Y-69655208D01*
X97904996Y-69655208D02*
X97904996Y-69587865D01*
X97904996Y-69587865D02*
X97938668Y-69419506D01*
X97938668Y-69419506D02*
X98039683Y-69251147D01*
X98039683Y-69251147D02*
X98309057Y-68981773D01*
X98309057Y-68981773D02*
X98410073Y-68948101D01*
X98410073Y-68948101D02*
X98477416Y-68948101D01*
X98477416Y-68948101D02*
X98578431Y-68981773D01*
X98578431Y-68981773D02*
X98713118Y-69116460D01*
X98713118Y-69116460D02*
X98746790Y-69217475D01*
X98746790Y-69217475D02*
X98746790Y-69284819D01*
X98746790Y-69284819D02*
X98713118Y-69385834D01*
X98713118Y-69385834D02*
X98544760Y-69554193D01*
X98544760Y-69554193D02*
X98443744Y-69587865D01*
X98443744Y-69587865D02*
X98376401Y-69587865D01*
X98376401Y-69587865D02*
X98275386Y-69554193D01*
X98275386Y-69554193D02*
X98140699Y-69419506D01*
X98140699Y-69419506D02*
X98107027Y-69318491D01*
X98107027Y-69318491D02*
X98107027Y-69251147D01*
X98107027Y-69251147D02*
X98140699Y-69150132D01*
X90902077Y-50129418D02*
X90329657Y-50701838D01*
X90329657Y-50701838D02*
X90228642Y-50735510D01*
X90228642Y-50735510D02*
X90161298Y-50735510D01*
X90161298Y-50735510D02*
X90060283Y-50701838D01*
X90060283Y-50701838D02*
X89925596Y-50567151D01*
X89925596Y-50567151D02*
X89891924Y-50466136D01*
X89891924Y-50466136D02*
X89891924Y-50398792D01*
X89891924Y-50398792D02*
X89925596Y-50297777D01*
X89925596Y-50297777D02*
X90498016Y-49725357D01*
X89083802Y-49725357D02*
X89487863Y-50129418D01*
X89285833Y-49927388D02*
X89992939Y-49220281D01*
X89992939Y-49220281D02*
X89959268Y-49388640D01*
X89959268Y-49388640D02*
X89959268Y-49523327D01*
X89959268Y-49523327D02*
X89992939Y-49624342D01*
X83451002Y-69841865D02*
X83518346Y-69841865D01*
X83518346Y-69841865D02*
X83653033Y-69774521D01*
X83653033Y-69774521D02*
X83720376Y-69707178D01*
X83720376Y-69707178D02*
X83787720Y-69572491D01*
X83787720Y-69572491D02*
X83787720Y-69437804D01*
X83787720Y-69437804D02*
X83754048Y-69336789D01*
X83754048Y-69336789D02*
X83653033Y-69168430D01*
X83653033Y-69168430D02*
X83552017Y-69067415D01*
X83552017Y-69067415D02*
X83383659Y-68966399D01*
X83383659Y-68966399D02*
X83282643Y-68932728D01*
X83282643Y-68932728D02*
X83147956Y-68932728D01*
X83147956Y-68932728D02*
X83013269Y-69000071D01*
X83013269Y-69000071D02*
X82945926Y-69067415D01*
X82945926Y-69067415D02*
X82878582Y-69202102D01*
X82878582Y-69202102D02*
X82878582Y-69269445D01*
X82844911Y-70582643D02*
X83248972Y-70178582D01*
X83046941Y-70380613D02*
X82339834Y-69673506D01*
X82339834Y-69673506D02*
X82508193Y-69707178D01*
X82508193Y-69707178D02*
X82642880Y-69707178D01*
X82642880Y-69707178D02*
X82743895Y-69673506D01*
X81767415Y-70717330D02*
X82238819Y-71188735D01*
X81666399Y-70279598D02*
X82339834Y-70616315D01*
X82339834Y-70616315D02*
X81902102Y-71054048D01*
X87245628Y-54751926D02*
X87144613Y-54179506D01*
X87649689Y-54347865D02*
X86942582Y-53640758D01*
X86942582Y-53640758D02*
X86673208Y-53910132D01*
X86673208Y-53910132D02*
X86639536Y-54011148D01*
X86639536Y-54011148D02*
X86639536Y-54078491D01*
X86639536Y-54078491D02*
X86673208Y-54179506D01*
X86673208Y-54179506D02*
X86774223Y-54280522D01*
X86774223Y-54280522D02*
X86875239Y-54314193D01*
X86875239Y-54314193D02*
X86942582Y-54314193D01*
X86942582Y-54314193D02*
X87043597Y-54280522D01*
X87043597Y-54280522D02*
X87312971Y-54011148D01*
X86336491Y-54381537D02*
X86269147Y-54381537D01*
X86269147Y-54381537D02*
X86168132Y-54415209D01*
X86168132Y-54415209D02*
X85999773Y-54583568D01*
X85999773Y-54583568D02*
X85966101Y-54684583D01*
X85966101Y-54684583D02*
X85966101Y-54751926D01*
X85966101Y-54751926D02*
X85999773Y-54852942D01*
X85999773Y-54852942D02*
X86067117Y-54920285D01*
X86067117Y-54920285D02*
X86201804Y-54987629D01*
X86201804Y-54987629D02*
X87009926Y-54987629D01*
X87009926Y-54987629D02*
X86572193Y-55425361D01*
X102556791Y-81994346D02*
X103129210Y-81893330D01*
X102960852Y-82398407D02*
X103667958Y-81691300D01*
X103667958Y-81691300D02*
X103398584Y-81421926D01*
X103398584Y-81421926D02*
X103297569Y-81388254D01*
X103297569Y-81388254D02*
X103230226Y-81388254D01*
X103230226Y-81388254D02*
X103129210Y-81421926D01*
X103129210Y-81421926D02*
X103028195Y-81522941D01*
X103028195Y-81522941D02*
X102994523Y-81623956D01*
X102994523Y-81623956D02*
X102994523Y-81691300D01*
X102994523Y-81691300D02*
X103028195Y-81792315D01*
X103028195Y-81792315D02*
X103297569Y-82061689D01*
X101883356Y-81320911D02*
X102287417Y-81724972D01*
X102085386Y-81522941D02*
X102792493Y-80815834D01*
X102792493Y-80815834D02*
X102758821Y-80984193D01*
X102758821Y-80984193D02*
X102758821Y-81118880D01*
X102758821Y-81118880D02*
X102792493Y-81219895D01*
X101748669Y-80243415D02*
X101277264Y-80714819D01*
X102186401Y-80142399D02*
X101849684Y-80815834D01*
X101849684Y-80815834D02*
X101411951Y-80378102D01*
X108232564Y-82742181D02*
X108299908Y-82742181D01*
X108299908Y-82742181D02*
X108434595Y-82674837D01*
X108434595Y-82674837D02*
X108501938Y-82607494D01*
X108501938Y-82607494D02*
X108569282Y-82472807D01*
X108569282Y-82472807D02*
X108569282Y-82338120D01*
X108569282Y-82338120D02*
X108535610Y-82237105D01*
X108535610Y-82237105D02*
X108434595Y-82068746D01*
X108434595Y-82068746D02*
X108333579Y-81967731D01*
X108333579Y-81967731D02*
X108165221Y-81866715D01*
X108165221Y-81866715D02*
X108064205Y-81833044D01*
X108064205Y-81833044D02*
X107929518Y-81833044D01*
X107929518Y-81833044D02*
X107794831Y-81900387D01*
X107794831Y-81900387D02*
X107727488Y-81967731D01*
X107727488Y-81967731D02*
X107660144Y-82102418D01*
X107660144Y-82102418D02*
X107660144Y-82169761D01*
X107626473Y-83482959D02*
X108030534Y-83078898D01*
X107828503Y-83280929D02*
X107121396Y-82573822D01*
X107121396Y-82573822D02*
X107289755Y-82607494D01*
X107289755Y-82607494D02*
X107424442Y-82607494D01*
X107424442Y-82607494D02*
X107525457Y-82573822D01*
X106953038Y-84156394D02*
X107357099Y-83752333D01*
X107155068Y-83954364D02*
X106447961Y-83247257D01*
X106447961Y-83247257D02*
X106616320Y-83280929D01*
X106616320Y-83280929D02*
X106751007Y-83280929D01*
X106751007Y-83280929D02*
X106852022Y-83247257D01*
X102541416Y-86162284D02*
X102541416Y-86229628D01*
X102541416Y-86229628D02*
X102608760Y-86364315D01*
X102608760Y-86364315D02*
X102676103Y-86431658D01*
X102676103Y-86431658D02*
X102810790Y-86499002D01*
X102810790Y-86499002D02*
X102945477Y-86499002D01*
X102945477Y-86499002D02*
X103046493Y-86465330D01*
X103046493Y-86465330D02*
X103214851Y-86364315D01*
X103214851Y-86364315D02*
X103315867Y-86263300D01*
X103315867Y-86263300D02*
X103416882Y-86094941D01*
X103416882Y-86094941D02*
X103450554Y-85993926D01*
X103450554Y-85993926D02*
X103450554Y-85859239D01*
X103450554Y-85859239D02*
X103383210Y-85724552D01*
X103383210Y-85724552D02*
X103315867Y-85657208D01*
X103315867Y-85657208D02*
X103181180Y-85589865D01*
X103181180Y-85589865D02*
X103113836Y-85589865D01*
X102541416Y-84882758D02*
X102878134Y-85219475D01*
X102878134Y-85219475D02*
X102575088Y-85589865D01*
X102575088Y-85589865D02*
X102575088Y-85522521D01*
X102575088Y-85522521D02*
X102541416Y-85421506D01*
X102541416Y-85421506D02*
X102373057Y-85253147D01*
X102373057Y-85253147D02*
X102272042Y-85219475D01*
X102272042Y-85219475D02*
X102204699Y-85219475D01*
X102204699Y-85219475D02*
X102103683Y-85253147D01*
X102103683Y-85253147D02*
X101935325Y-85421506D01*
X101935325Y-85421506D02*
X101901653Y-85522521D01*
X101901653Y-85522521D02*
X101901653Y-85589865D01*
X101901653Y-85589865D02*
X101935325Y-85690880D01*
X101935325Y-85690880D02*
X102103683Y-85859239D01*
X102103683Y-85859239D02*
X102204699Y-85892910D01*
X102204699Y-85892910D02*
X102272042Y-85892910D01*
X81994346Y-65845208D02*
X81893330Y-65272789D01*
X82398407Y-65441147D02*
X81691300Y-64734041D01*
X81691300Y-64734041D02*
X81421926Y-65003415D01*
X81421926Y-65003415D02*
X81388254Y-65104430D01*
X81388254Y-65104430D02*
X81388254Y-65171773D01*
X81388254Y-65171773D02*
X81421926Y-65272789D01*
X81421926Y-65272789D02*
X81522941Y-65373804D01*
X81522941Y-65373804D02*
X81623956Y-65407476D01*
X81623956Y-65407476D02*
X81691300Y-65407476D01*
X81691300Y-65407476D02*
X81792315Y-65373804D01*
X81792315Y-65373804D02*
X82061689Y-65104430D01*
X81320911Y-66518643D02*
X81724972Y-66114582D01*
X81522941Y-66316613D02*
X80815834Y-65609506D01*
X80815834Y-65609506D02*
X80984193Y-65643178D01*
X80984193Y-65643178D02*
X81118880Y-65643178D01*
X81118880Y-65643178D02*
X81219895Y-65609506D01*
X80984193Y-66855361D02*
X80849506Y-66990048D01*
X80849506Y-66990048D02*
X80748491Y-67023720D01*
X80748491Y-67023720D02*
X80681147Y-67023720D01*
X80681147Y-67023720D02*
X80512789Y-66990048D01*
X80512789Y-66990048D02*
X80344430Y-66889033D01*
X80344430Y-66889033D02*
X80075056Y-66619659D01*
X80075056Y-66619659D02*
X80041384Y-66518643D01*
X80041384Y-66518643D02*
X80041384Y-66451300D01*
X80041384Y-66451300D02*
X80075056Y-66350285D01*
X80075056Y-66350285D02*
X80209743Y-66215598D01*
X80209743Y-66215598D02*
X80310758Y-66181926D01*
X80310758Y-66181926D02*
X80378102Y-66181926D01*
X80378102Y-66181926D02*
X80479117Y-66215598D01*
X80479117Y-66215598D02*
X80647476Y-66383956D01*
X80647476Y-66383956D02*
X80681147Y-66484972D01*
X80681147Y-66484972D02*
X80681147Y-66552315D01*
X80681147Y-66552315D02*
X80647476Y-66653330D01*
X80647476Y-66653330D02*
X80512789Y-66788017D01*
X80512789Y-66788017D02*
X80411773Y-66821689D01*
X80411773Y-66821689D02*
X80344430Y-66821689D01*
X80344430Y-66821689D02*
X80243415Y-66788017D01*
X82673628Y-53989927D02*
X82572613Y-53417507D01*
X83077689Y-53585866D02*
X82370582Y-52878759D01*
X82370582Y-52878759D02*
X82101208Y-53148133D01*
X82101208Y-53148133D02*
X82067536Y-53249149D01*
X82067536Y-53249149D02*
X82067536Y-53316492D01*
X82067536Y-53316492D02*
X82101208Y-53417507D01*
X82101208Y-53417507D02*
X82202223Y-53518523D01*
X82202223Y-53518523D02*
X82303239Y-53552194D01*
X82303239Y-53552194D02*
X82370582Y-53552194D01*
X82370582Y-53552194D02*
X82471597Y-53518523D01*
X82471597Y-53518523D02*
X82740971Y-53249149D01*
X82000193Y-54663362D02*
X82404254Y-54259301D01*
X82202223Y-54461332D02*
X81495117Y-53754225D01*
X81495117Y-53754225D02*
X81663475Y-53787897D01*
X81663475Y-53787897D02*
X81798162Y-53787897D01*
X81798162Y-53787897D02*
X81899178Y-53754225D01*
X113931002Y-77207865D02*
X113998346Y-77207865D01*
X113998346Y-77207865D02*
X114133033Y-77140521D01*
X114133033Y-77140521D02*
X114200376Y-77073178D01*
X114200376Y-77073178D02*
X114267720Y-76938491D01*
X114267720Y-76938491D02*
X114267720Y-76803804D01*
X114267720Y-76803804D02*
X114234048Y-76702789D01*
X114234048Y-76702789D02*
X114133033Y-76534430D01*
X114133033Y-76534430D02*
X114032017Y-76433415D01*
X114032017Y-76433415D02*
X113863659Y-76332399D01*
X113863659Y-76332399D02*
X113762643Y-76298728D01*
X113762643Y-76298728D02*
X113627956Y-76298728D01*
X113627956Y-76298728D02*
X113493269Y-76366071D01*
X113493269Y-76366071D02*
X113425926Y-76433415D01*
X113425926Y-76433415D02*
X113358582Y-76568102D01*
X113358582Y-76568102D02*
X113358582Y-76635445D01*
X113324911Y-77948643D02*
X113728972Y-77544582D01*
X113526941Y-77746613D02*
X112819834Y-77039506D01*
X112819834Y-77039506D02*
X112988193Y-77073178D01*
X112988193Y-77073178D02*
X113122880Y-77073178D01*
X113122880Y-77073178D02*
X113223895Y-77039506D01*
X112415773Y-77578254D02*
X112348430Y-77578254D01*
X112348430Y-77578254D02*
X112247415Y-77611926D01*
X112247415Y-77611926D02*
X112079056Y-77780285D01*
X112079056Y-77780285D02*
X112045384Y-77881300D01*
X112045384Y-77881300D02*
X112045384Y-77948643D01*
X112045384Y-77948643D02*
X112079056Y-78049659D01*
X112079056Y-78049659D02*
X112146399Y-78117002D01*
X112146399Y-78117002D02*
X112281086Y-78184346D01*
X112281086Y-78184346D02*
X113089208Y-78184346D01*
X113089208Y-78184346D02*
X112651476Y-78622078D01*
X111137002Y-79747865D02*
X111204346Y-79747865D01*
X111204346Y-79747865D02*
X111339033Y-79680521D01*
X111339033Y-79680521D02*
X111406376Y-79613178D01*
X111406376Y-79613178D02*
X111473720Y-79478491D01*
X111473720Y-79478491D02*
X111473720Y-79343804D01*
X111473720Y-79343804D02*
X111440048Y-79242789D01*
X111440048Y-79242789D02*
X111339033Y-79074430D01*
X111339033Y-79074430D02*
X111238017Y-78973415D01*
X111238017Y-78973415D02*
X111069659Y-78872399D01*
X111069659Y-78872399D02*
X110968643Y-78838728D01*
X110968643Y-78838728D02*
X110833956Y-78838728D01*
X110833956Y-78838728D02*
X110699269Y-78906071D01*
X110699269Y-78906071D02*
X110631926Y-78973415D01*
X110631926Y-78973415D02*
X110564582Y-79108102D01*
X110564582Y-79108102D02*
X110564582Y-79175445D01*
X110530911Y-80488643D02*
X110934972Y-80084582D01*
X110732941Y-80286613D02*
X110025834Y-79579506D01*
X110025834Y-79579506D02*
X110194193Y-79613178D01*
X110194193Y-79613178D02*
X110328880Y-79613178D01*
X110328880Y-79613178D02*
X110429895Y-79579506D01*
X109386071Y-80219269D02*
X109318728Y-80286613D01*
X109318728Y-80286613D02*
X109285056Y-80387628D01*
X109285056Y-80387628D02*
X109285056Y-80454972D01*
X109285056Y-80454972D02*
X109318728Y-80555987D01*
X109318728Y-80555987D02*
X109419743Y-80724346D01*
X109419743Y-80724346D02*
X109588102Y-80892704D01*
X109588102Y-80892704D02*
X109756460Y-80993720D01*
X109756460Y-80993720D02*
X109857476Y-81027391D01*
X109857476Y-81027391D02*
X109924819Y-81027391D01*
X109924819Y-81027391D02*
X110025834Y-80993720D01*
X110025834Y-80993720D02*
X110093178Y-80926376D01*
X110093178Y-80926376D02*
X110126850Y-80825361D01*
X110126850Y-80825361D02*
X110126850Y-80758017D01*
X110126850Y-80758017D02*
X110093178Y-80657002D01*
X110093178Y-80657002D02*
X109992163Y-80488643D01*
X109992163Y-80488643D02*
X109823804Y-80320285D01*
X109823804Y-80320285D02*
X109655445Y-80219269D01*
X109655445Y-80219269D02*
X109554430Y-80185598D01*
X109554430Y-80185598D02*
X109487086Y-80185598D01*
X109487086Y-80185598D02*
X109386071Y-80219269D01*
D14*
X84644496Y-60756272D02*
X84323379Y-61077389D01*
X83605049Y-59716825D02*
X83283932Y-60037942D01*
X94703853Y-62395981D02*
X93324994Y-61017123D01*
X94703853Y-62395981D02*
X96082711Y-63774840D01*
X88431815Y-68668019D02*
X85992297Y-66228500D01*
X88431815Y-68668019D02*
X89810674Y-70046877D01*
X109139010Y-71062457D02*
X108769543Y-70692990D01*
X110178457Y-70023010D02*
X109808990Y-69653543D01*
X81453010Y-58108457D02*
X81083543Y-57738990D01*
X82492457Y-57069010D02*
X82122990Y-56699543D01*
X100956934Y-58277619D02*
X101278051Y-57956502D01*
X101996381Y-59317066D02*
X102317498Y-58995949D01*
X92561165Y-57231718D02*
X92882282Y-57552835D01*
X91521718Y-58271165D02*
X91842835Y-58592282D01*
X86036543Y-62784010D02*
X86406010Y-62414543D01*
X87075990Y-63823457D02*
X87445457Y-63453990D01*
X111103165Y-68407718D02*
X111424282Y-68728835D01*
X110063718Y-69447165D02*
X110384835Y-69768282D01*
X116250282Y-74527165D02*
X115929165Y-74848282D01*
X115210835Y-73487718D02*
X114889718Y-73808835D01*
X92629010Y-52012457D02*
X92259543Y-51642990D01*
X93668457Y-50973010D02*
X93298990Y-50603543D01*
X114671389Y-73058058D02*
X114350272Y-73379175D01*
X113631942Y-72018611D02*
X113310825Y-72339728D01*
X99673165Y-72217718D02*
X99994282Y-72538835D01*
X98633718Y-73257165D02*
X98954835Y-73578282D01*
X97938835Y-81198282D02*
X97617718Y-80877165D01*
X98978282Y-80158835D02*
X98657165Y-79837718D01*
X98124990Y-73717543D02*
X98494457Y-74087010D01*
X97085543Y-74756990D02*
X97455010Y-75126457D01*
X87826457Y-57611990D02*
X87456990Y-57981457D01*
X86787010Y-56572543D02*
X86417543Y-56942010D01*
X85655543Y-51481010D02*
X86025010Y-51111543D01*
X86694990Y-52520457D02*
X87064457Y-52150990D01*
X88286835Y-71546282D02*
X87965718Y-71225165D01*
X89326282Y-70506835D02*
X89005165Y-70185718D01*
X109054019Y-71285981D02*
X107675160Y-69907123D01*
X109054019Y-71285981D02*
X110432877Y-72664840D01*
X102781981Y-77558019D02*
X100342463Y-75118500D01*
X102781981Y-77558019D02*
X104160840Y-78936877D01*
X98978282Y-62335165D02*
X98657165Y-62656282D01*
X97938835Y-61295718D02*
X97617718Y-61616835D01*
X85425718Y-68982835D02*
X85746835Y-68661718D01*
X86465165Y-70022282D02*
X86786282Y-69701165D01*
X89580282Y-75035165D02*
X89259165Y-75356282D01*
X88540835Y-73995718D02*
X88219718Y-74316835D01*
X84663718Y-61362835D02*
X84984835Y-61041718D01*
X85703165Y-62402282D02*
X86024282Y-62081165D01*
X102002835Y-70530282D02*
X101681718Y-70209165D01*
X103042282Y-69490835D02*
X102721165Y-69169718D01*
X108884282Y-67923165D02*
X108563165Y-68244282D01*
X107844835Y-66883718D02*
X107523718Y-67204835D01*
X89199282Y-59160165D02*
X88878165Y-59481282D01*
X88159835Y-58120718D02*
X87838718Y-58441835D01*
X101197165Y-76789718D02*
X101518282Y-77110835D01*
X100157718Y-77829165D02*
X100478835Y-78150282D01*
X89235718Y-59838835D02*
X89556835Y-59517718D01*
X90275165Y-60878282D02*
X90596282Y-60557165D01*
X92628282Y-72241165D02*
X92307165Y-72562282D01*
X91588835Y-71201718D02*
X91267718Y-71522835D01*
X101172990Y-70669543D02*
X101542457Y-71039010D01*
X100133543Y-71708990D02*
X100503010Y-72078457D01*
X86795614Y-53396568D02*
X87601715Y-54202670D01*
X90776625Y-51027761D02*
X90613990Y-51190395D01*
X87439081Y-54365305D02*
X87601715Y-54202670D01*
X87439081Y-54365305D02*
X89362411Y-56288635D01*
X92699955Y-52951091D02*
X90776625Y-51027761D01*
X91773645Y-53877401D02*
X92699955Y-52951091D01*
X89362411Y-56288635D02*
X90288721Y-55362325D01*
X83877543Y-67483010D02*
X84247010Y-67113543D01*
X84916990Y-68522457D02*
X85286457Y-68152990D01*
X85461389Y-56548058D02*
X85140272Y-56869175D01*
X84421942Y-55508611D02*
X84100825Y-55829728D01*
X103991165Y-79583718D02*
X104312282Y-79904835D01*
X102951718Y-80623165D02*
X103272835Y-80944282D01*
X105693166Y-81481387D02*
X106062633Y-81111920D01*
X106732613Y-82520834D02*
X107102080Y-82151367D01*
X102442990Y-82607543D02*
X102812457Y-82977010D01*
X101403543Y-83646990D02*
X101773010Y-84016457D01*
X83738282Y-66653165D02*
X83417165Y-66974282D01*
X82698835Y-65613718D02*
X82377718Y-65934835D01*
X82631718Y-54377835D02*
X82952835Y-54056718D01*
X83671165Y-55417282D02*
X83992282Y-55096165D01*
X112718457Y-76534990D02*
X112348990Y-76904457D01*
X111679010Y-75495543D02*
X111309543Y-75865010D01*
X109924457Y-79328990D02*
X109554990Y-79698457D01*
X108885010Y-78289543D02*
X108515543Y-78659010D01*
M02*
