G04 #@! TF.GenerationSoftware,KiCad,Pcbnew,(7.0.0)*
G04 #@! TF.CreationDate,2023-04-23T00:30:47-06:00*
G04 #@! TF.ProjectId,Fonocardiograma_V3B,466f6e6f-6361-4726-9469-6f6772616d61,rev?*
G04 #@! TF.SameCoordinates,Original*
G04 #@! TF.FileFunction,Copper,L1,Top*
G04 #@! TF.FilePolarity,Positive*
%FSLAX46Y46*%
G04 Gerber Fmt 4.6, Leading zero omitted, Abs format (unit mm)*
G04 Created by KiCad (PCBNEW (7.0.0)) date 2023-04-23 00:30:47*
%MOMM*%
%LPD*%
G01*
G04 APERTURE LIST*
G04 Aperture macros list*
%AMRoundRect*
0 Rectangle with rounded corners*
0 $1 Rounding radius*
0 $2 $3 $4 $5 $6 $7 $8 $9 X,Y pos of 4 corners*
0 Add a 4 corners polygon primitive as box body*
4,1,4,$2,$3,$4,$5,$6,$7,$8,$9,$2,$3,0*
0 Add four circle primitives for the rounded corners*
1,1,$1+$1,$2,$3*
1,1,$1+$1,$4,$5*
1,1,$1+$1,$6,$7*
1,1,$1+$1,$8,$9*
0 Add four rect primitives between the rounded corners*
20,1,$1+$1,$2,$3,$4,$5,0*
20,1,$1+$1,$4,$5,$6,$7,0*
20,1,$1+$1,$6,$7,$8,$9,0*
20,1,$1+$1,$8,$9,$2,$3,0*%
%AMHorizOval*
0 Thick line with rounded ends*
0 $1 width*
0 $2 $3 position (X,Y) of the first rounded end (center of the circle)*
0 $4 $5 position (X,Y) of the second rounded end (center of the circle)*
0 Add line between two ends*
20,1,$1,$2,$3,$4,$5,0*
0 Add two circle primitives to create the rounded ends*
1,1,$1,$2,$3*
1,1,$1,$4,$5*%
%AMRotRect*
0 Rectangle, with rotation*
0 The origin of the aperture is its center*
0 $1 length*
0 $2 width*
0 $3 Rotation angle, in degrees counterclockwise*
0 Add horizontal line*
21,1,$1,$2,0,0,$3*%
G04 Aperture macros list end*
G04 #@! TA.AperFunction,ComponentPad*
%ADD10C,1.524000*%
G04 #@! TD*
G04 #@! TA.AperFunction,ComponentPad*
%ADD11RotRect,1.700000X1.700000X45.000000*%
G04 #@! TD*
G04 #@! TA.AperFunction,ComponentPad*
%ADD12HorizOval,1.700000X0.000000X0.000000X0.000000X0.000000X0*%
G04 #@! TD*
G04 #@! TA.AperFunction,ComponentPad*
%ADD13RotRect,1.700000X1.700000X315.000000*%
G04 #@! TD*
G04 #@! TA.AperFunction,ComponentPad*
%ADD14HorizOval,1.700000X0.000000X0.000000X0.000000X0.000000X0*%
G04 #@! TD*
G04 #@! TA.AperFunction,ComponentPad*
%ADD15RotRect,1.560000X1.560000X225.000000*%
G04 #@! TD*
G04 #@! TA.AperFunction,ComponentPad*
%ADD16C,1.560000*%
G04 #@! TD*
G04 #@! TA.AperFunction,SMDPad,CuDef*
%ADD17RoundRect,0.250000X-0.088388X0.548008X-0.548008X0.088388X0.088388X-0.548008X0.548008X-0.088388X0*%
G04 #@! TD*
G04 #@! TA.AperFunction,ComponentPad*
%ADD18RotRect,1.700000X1.700000X135.000000*%
G04 #@! TD*
G04 #@! TA.AperFunction,ComponentPad*
%ADD19HorizOval,1.700000X0.000000X0.000000X0.000000X0.000000X0*%
G04 #@! TD*
G04 #@! TA.AperFunction,ComponentPad*
%ADD20RotRect,1.500000X2.500000X225.000000*%
G04 #@! TD*
G04 #@! TA.AperFunction,ComponentPad*
%ADD21HorizOval,1.500000X-0.353553X0.353553X0.353553X-0.353553X0*%
G04 #@! TD*
G04 #@! TA.AperFunction,ComponentPad*
%ADD22RoundRect,0.250000X-0.954594X-0.106066X-0.106066X-0.954594X0.954594X0.106066X0.106066X0.954594X0*%
G04 #@! TD*
G04 #@! TA.AperFunction,ComponentPad*
%ADD23HorizOval,1.700000X-0.106066X-0.106066X0.106066X0.106066X0*%
G04 #@! TD*
G04 #@! TA.AperFunction,ComponentPad*
%ADD24RotRect,1.700000X1.700000X225.000000*%
G04 #@! TD*
G04 #@! TA.AperFunction,ComponentPad*
%ADD25HorizOval,1.700000X0.000000X0.000000X0.000000X0.000000X0*%
G04 #@! TD*
G04 #@! TA.AperFunction,ComponentPad*
%ADD26RoundRect,0.250000X0.106066X-0.954594X0.954594X-0.106066X-0.106066X0.954594X-0.954594X0.106066X0*%
G04 #@! TD*
G04 #@! TA.AperFunction,ComponentPad*
%ADD27HorizOval,1.700000X-0.106066X0.106066X0.106066X-0.106066X0*%
G04 #@! TD*
G04 #@! TA.AperFunction,ViaPad*
%ADD28C,0.600000*%
G04 #@! TD*
G04 #@! TA.AperFunction,Conductor*
%ADD29C,0.400000*%
G04 #@! TD*
G04 #@! TA.AperFunction,Conductor*
%ADD30C,0.200000*%
G04 #@! TD*
G04 APERTURE END LIST*
D10*
X96501949Y-76943949D03*
X98298000Y-78740000D03*
X100094052Y-80536051D03*
X101890103Y-82332103D03*
X103686154Y-84128154D03*
D11*
X120903999Y-65277999D03*
D10*
X90133897Y-77506102D03*
X91929948Y-75710051D03*
X93726000Y-73914000D03*
X95522051Y-72117949D03*
X97318102Y-70321897D03*
X99114153Y-68525846D03*
D11*
X97753897Y-83275897D03*
D12*
X99549948Y-85071948D03*
X101345999Y-86867999D03*
D13*
X103555799Y-61010799D03*
D14*
X105351850Y-62806850D03*
X101759748Y-62806850D03*
X103555799Y-64602901D03*
X99963697Y-64602901D03*
X101759748Y-66398953D03*
D15*
X121969686Y-60014152D03*
D16*
X116666386Y-58246386D03*
X118434153Y-63549687D03*
D17*
X102362000Y-57912000D03*
X100912432Y-59361568D03*
D18*
X95249999Y-80771999D03*
D19*
X93453948Y-78975948D03*
D17*
X99060000Y-61214000D03*
X97610432Y-62663568D03*
D20*
X98824050Y-55861948D03*
D21*
X97027999Y-57657999D03*
X95231948Y-59454050D03*
D13*
X108965999Y-55625999D03*
D14*
X110762050Y-57422050D03*
X107169948Y-57422050D03*
X108965999Y-59218101D03*
X105373897Y-59218101D03*
X107169948Y-61014153D03*
D22*
X112278233Y-54112233D03*
D23*
X114045999Y-55879999D03*
D24*
X105917999Y-53847999D03*
D25*
X104121948Y-55644050D03*
D26*
X92648594Y-55808361D03*
D27*
X94416360Y-54040593D03*
D28*
X95758000Y-52070000D03*
X86614000Y-54610000D03*
X81026000Y-68580000D03*
X114808000Y-76962000D03*
X101346000Y-89154000D03*
X94996000Y-67818000D03*
X106426000Y-74676000D03*
X80010000Y-65278000D03*
X84836000Y-58166000D03*
X92456000Y-64262000D03*
X98552000Y-63754000D03*
X94996000Y-83566000D03*
X117602000Y-50800000D03*
X93472000Y-49784000D03*
X85852000Y-59182000D03*
X108458000Y-50292000D03*
X121666000Y-54864000D03*
X110490000Y-81026000D03*
X109728000Y-66548000D03*
X119888000Y-52578000D03*
X96774000Y-85090000D03*
X86106000Y-56642000D03*
X122174000Y-67310000D03*
X79756000Y-58928000D03*
X85344000Y-74422000D03*
X108458000Y-82804000D03*
X103886000Y-86868000D03*
X99060000Y-87122000D03*
X98806000Y-57912000D03*
X89662000Y-78740000D03*
X87630000Y-76708000D03*
X86868000Y-60198000D03*
X83058000Y-71628000D03*
X105156000Y-66294000D03*
X123190000Y-61468000D03*
X83058000Y-52324000D03*
X119126000Y-72390000D03*
X96266000Y-50800000D03*
X81026000Y-54864000D03*
X97282000Y-59436000D03*
X111506000Y-49530000D03*
X121158000Y-69850000D03*
X96520000Y-66294000D03*
X117094000Y-74930000D03*
X79756000Y-61976000D03*
X86106000Y-50038000D03*
X105918000Y-64262000D03*
X122936000Y-64516000D03*
X92456000Y-81026000D03*
X100076000Y-62992000D03*
X101346000Y-61214000D03*
X89662000Y-49530000D03*
X122936000Y-58166000D03*
X112522000Y-78994000D03*
X98552000Y-52578000D03*
X114808000Y-49784000D03*
X106172000Y-84836000D03*
X105156000Y-74168000D03*
X84582000Y-52832000D03*
X89154000Y-62484000D03*
X82550000Y-62484000D03*
X88138000Y-73660000D03*
X82550000Y-64770000D03*
X85852000Y-71374000D03*
X82550000Y-59944000D03*
X87009329Y-64657329D03*
X99060000Y-62738000D03*
X102362000Y-59436000D03*
X110744000Y-72390000D03*
X107950000Y-62252700D03*
X97790000Y-60198000D03*
X90678000Y-67564000D03*
X101854000Y-60452000D03*
X92456000Y-65786000D03*
X113538000Y-67310000D03*
X112522000Y-68326000D03*
X97790000Y-66040000D03*
X93726000Y-70104000D03*
X111760000Y-69342000D03*
X98552000Y-66802000D03*
X94234000Y-71120000D03*
X88900000Y-66802000D03*
X94742000Y-61214000D03*
X100838000Y-68072000D03*
X97409000Y-64389000D03*
X115824000Y-70612000D03*
X110744000Y-64008000D03*
X95250000Y-78232000D03*
X95250000Y-74930000D03*
X90424000Y-66548000D03*
X88138000Y-68072000D03*
D29*
X95504000Y-51816000D02*
X95758000Y-52070000D01*
X92710000Y-52832000D02*
X93726000Y-51816000D01*
X88900000Y-54610000D02*
X90678000Y-52832000D01*
X86614000Y-54610000D02*
X88900000Y-54610000D01*
X90678000Y-52832000D02*
X92710000Y-52832000D01*
X93726000Y-51816000D02*
X95504000Y-51816000D01*
X82550000Y-68072000D02*
X85852000Y-71374000D01*
X89154000Y-63577561D02*
X89154000Y-62484000D01*
X104743833Y-74168000D02*
X97753898Y-81157935D01*
X82550000Y-62484000D02*
X82501097Y-62435097D01*
X82804000Y-62484000D02*
X85730329Y-65410329D01*
X97753898Y-81157935D02*
X97753898Y-83275898D01*
X81797000Y-60255904D02*
X82271548Y-60730452D01*
X105156000Y-74168000D02*
X104743833Y-74168000D01*
X82501097Y-58928000D02*
X81797000Y-59632097D01*
X84582000Y-52832000D02*
X84582000Y-57150000D01*
X101890103Y-82332103D02*
X98697693Y-82332103D01*
X82501097Y-60960000D02*
X82271548Y-60730452D01*
X82550000Y-62484000D02*
X82804000Y-62484000D01*
X98658137Y-53994735D02*
X100353126Y-55689724D01*
X84582000Y-52832000D02*
X84582000Y-53642903D01*
X97897265Y-53994735D02*
X98658137Y-53994735D01*
X93453949Y-78975949D02*
X88138000Y-73660000D01*
X87321232Y-65410329D02*
X89154000Y-63577561D01*
X81797000Y-59632097D02*
X81797000Y-60255904D01*
X84582000Y-53642903D02*
X88466458Y-57527361D01*
X104076276Y-55689724D02*
X104121949Y-55644051D01*
X98697693Y-82332103D02*
X97753898Y-83275898D01*
X94364639Y-57527361D02*
X97897265Y-53994735D01*
X93453949Y-78975949D02*
X93453949Y-80818669D01*
X88466458Y-57527361D02*
X94364639Y-57527361D01*
X82804000Y-58928000D02*
X82501097Y-58928000D01*
X82550000Y-62484000D02*
X82550000Y-68072000D01*
X85730329Y-65410329D02*
X87321232Y-65410329D01*
X82501097Y-62435097D02*
X82501097Y-60960000D01*
X82271548Y-60730452D02*
X81797000Y-60255903D01*
X95911178Y-83275898D02*
X97753898Y-83275898D01*
X84582000Y-57150000D02*
X82804000Y-58928000D01*
X93453949Y-80818669D02*
X95911178Y-83275898D01*
X100353126Y-55689724D02*
X104076276Y-55689724D01*
D30*
X82550000Y-59944000D02*
X87009329Y-64403329D01*
X87009329Y-64403329D02*
X87009329Y-64657329D01*
X99060000Y-62738000D02*
X97684864Y-62738000D01*
D29*
X102362000Y-59436000D02*
X100986864Y-59436000D01*
X100986864Y-59436000D02*
X100912432Y-59361568D01*
D30*
X110762051Y-57422051D02*
X115842051Y-57422051D01*
X121969687Y-60014153D02*
X118434153Y-60014153D01*
X114554000Y-68580000D02*
X115062000Y-68072000D01*
X118434153Y-60014153D02*
X116666386Y-58246386D01*
X115062000Y-59850772D02*
X115062000Y-67818000D01*
X115842051Y-57422051D02*
X116666386Y-58246386D01*
X114554000Y-68580000D02*
X110744000Y-72390000D01*
X115062000Y-68072000D02*
X115062000Y-67818000D01*
X116666386Y-58246386D02*
X115062000Y-59850772D01*
X107169949Y-59387808D02*
X107169949Y-57422051D01*
X108319949Y-60537808D02*
X107169949Y-59387808D01*
X108319949Y-61882751D02*
X108319949Y-60537808D01*
X107950000Y-62252700D02*
X108319949Y-61882751D01*
X90678000Y-67564000D02*
X92456000Y-65786000D01*
X105060800Y-60610800D02*
X106766595Y-60610800D01*
X102354424Y-60459576D02*
X103378000Y-59436000D01*
X106766595Y-60610800D02*
X107169949Y-61014154D01*
X97790000Y-60452000D02*
X97790000Y-60198000D01*
X103378000Y-59436000D02*
X103886000Y-59436000D01*
X92456000Y-65786000D02*
X97790000Y-60452000D01*
X103886000Y-59436000D02*
X105060800Y-60610800D01*
X101861576Y-60459576D02*
X102354424Y-60459576D01*
X103555800Y-61010800D02*
X105460800Y-61010800D01*
X111506000Y-67056000D02*
X113284000Y-67056000D01*
X113284000Y-67056000D02*
X113538000Y-67310000D01*
X105460800Y-61010800D02*
X111506000Y-67056000D01*
X103386095Y-62806851D02*
X108143244Y-67564000D01*
X101759749Y-62806851D02*
X103386095Y-62806851D01*
X108143244Y-67564000D02*
X111760000Y-67564000D01*
X111760000Y-67564000D02*
X112522000Y-68326000D01*
X97790000Y-66040000D02*
X93726000Y-70104000D01*
X101929454Y-64602902D02*
X105652552Y-68326000D01*
X99963698Y-64602902D02*
X101929454Y-64602902D01*
X105652552Y-68326000D02*
X110744000Y-68326000D01*
X110744000Y-68326000D02*
X111760000Y-69342000D01*
X94234000Y-71120000D02*
X98552000Y-66802000D01*
X94488000Y-61214000D02*
X88900000Y-66802000D01*
X94742000Y-61214000D02*
X94488000Y-61214000D01*
X97409000Y-64389000D02*
X100838000Y-67818000D01*
X100838000Y-67818000D02*
X100838000Y-68072000D01*
X115824000Y-66159840D02*
X118434153Y-63549687D01*
X115824000Y-70612000D02*
X115824000Y-66159840D01*
X105918000Y-54543756D02*
X110236000Y-58861756D01*
X110236000Y-58861756D02*
X110236000Y-63500000D01*
X110236000Y-63500000D02*
X110744000Y-64008000D01*
X105918000Y-53848000D02*
X105918000Y-54543756D01*
D29*
X95250000Y-74930000D02*
X95250000Y-74676000D01*
X97318102Y-70321897D02*
X97318102Y-72607898D01*
X95250000Y-74676000D02*
X97318102Y-72607898D01*
X95250000Y-80772000D02*
X95250000Y-78232000D01*
D30*
X90424000Y-66548000D02*
X88900000Y-68072000D01*
X88900000Y-68072000D02*
X88138000Y-68072000D01*
G04 #@! TA.AperFunction,Conductor*
G36*
X90564558Y-48778524D02*
G01*
X91736483Y-48874449D01*
X92182410Y-48910949D01*
X92199585Y-48913577D01*
X93771014Y-49268128D01*
X93787506Y-49273074D01*
X95298900Y-49843464D01*
X95314250Y-49850485D01*
X95531678Y-49968461D01*
X96751882Y-50630541D01*
X96765763Y-50639310D01*
X97016360Y-50821894D01*
X98115757Y-51622910D01*
X98127955Y-51633053D01*
X99376350Y-52814108D01*
X99386766Y-52825254D01*
X100520706Y-54199142D01*
X100527239Y-54207803D01*
X101080926Y-55012818D01*
X101079786Y-55013601D01*
X101079825Y-55013656D01*
X101080929Y-55012829D01*
X101080980Y-55012897D01*
X101081032Y-55012972D01*
X101079898Y-55013757D01*
X101079937Y-55013812D01*
X101081041Y-55012979D01*
X101099553Y-55037488D01*
X101124076Y-55100774D01*
X101111609Y-55167490D01*
X101065886Y-55217649D01*
X101000606Y-55236224D01*
X100592334Y-55236224D01*
X100544881Y-55226785D01*
X100504653Y-55199905D01*
X99001741Y-53696993D01*
X98992474Y-53686624D01*
X98988660Y-53681841D01*
X98970079Y-53658541D01*
X98922525Y-53626119D01*
X98918746Y-53623438D01*
X98879912Y-53594777D01*
X98872437Y-53589260D01*
X98864271Y-53586402D01*
X98857126Y-53581531D01*
X98848253Y-53578794D01*
X98848251Y-53578793D01*
X98802121Y-53564564D01*
X98797719Y-53563115D01*
X98752164Y-53547175D01*
X98752160Y-53547174D01*
X98743400Y-53544109D01*
X98734760Y-53543785D01*
X98726491Y-53541235D01*
X98717201Y-53541235D01*
X98668908Y-53541235D01*
X98664271Y-53541148D01*
X98616075Y-53539344D01*
X98616071Y-53539344D01*
X98606788Y-53538997D01*
X98600054Y-53540801D01*
X98592336Y-53541235D01*
X97929696Y-53541235D01*
X97915812Y-53540455D01*
X97889347Y-53537473D01*
X97880117Y-53536433D01*
X97870995Y-53538158D01*
X97870988Y-53538159D01*
X97823546Y-53547135D01*
X97818980Y-53547911D01*
X97771267Y-53555103D01*
X97771262Y-53555104D01*
X97762084Y-53556488D01*
X97754291Y-53560240D01*
X97745792Y-53561849D01*
X97737589Y-53566184D01*
X97737584Y-53566186D01*
X97694904Y-53588742D01*
X97690771Y-53590828D01*
X97647285Y-53611771D01*
X97647276Y-53611776D01*
X97638914Y-53615804D01*
X97632575Y-53621685D01*
X97624926Y-53625728D01*
X97618362Y-53632291D01*
X97618359Y-53632294D01*
X97584206Y-53666446D01*
X97580871Y-53669659D01*
X97538700Y-53708789D01*
X97535215Y-53714823D01*
X97530058Y-53720594D01*
X94213112Y-57037542D01*
X94172884Y-57064422D01*
X94125431Y-57073861D01*
X93455173Y-57073861D01*
X93398878Y-57060346D01*
X93354855Y-57022746D01*
X93332700Y-56969259D01*
X93337242Y-56911543D01*
X93367492Y-56862180D01*
X93675977Y-56553695D01*
X93993272Y-56236400D01*
X94031115Y-56189439D01*
X94091261Y-56057738D01*
X94111867Y-55914427D01*
X94091261Y-55771116D01*
X94031115Y-55639415D01*
X94027839Y-55635349D01*
X94009645Y-55570673D01*
X94028798Y-55505077D01*
X94058566Y-55478524D01*
X94666361Y-55478524D01*
X94668742Y-55489267D01*
X94679735Y-55489747D01*
X94867828Y-55456582D01*
X94878258Y-55453787D01*
X95090056Y-55376699D01*
X95099829Y-55372142D01*
X95295027Y-55259445D01*
X95303854Y-55253264D01*
X95476528Y-55108374D01*
X95484141Y-55100761D01*
X95629031Y-54928087D01*
X95635212Y-54919260D01*
X95747909Y-54724062D01*
X95752466Y-54714289D01*
X95829554Y-54502492D01*
X95832349Y-54492062D01*
X95865514Y-54303968D01*
X95865034Y-54292975D01*
X95854291Y-54290594D01*
X94682687Y-54290594D01*
X94669811Y-54294044D01*
X94666361Y-54306920D01*
X94666361Y-55478524D01*
X94058566Y-55478524D01*
X94079794Y-55459588D01*
X94147143Y-55448022D01*
X94163650Y-55449829D01*
X94166361Y-55438752D01*
X94166361Y-54306920D01*
X94162910Y-54294044D01*
X94150035Y-54290594D01*
X93018202Y-54290594D01*
X93007123Y-54293305D01*
X93008931Y-54309812D01*
X92997365Y-54377160D01*
X92951877Y-54428154D01*
X92886283Y-54447308D01*
X92821606Y-54429116D01*
X92817540Y-54425840D01*
X92810481Y-54422616D01*
X92810479Y-54422615D01*
X92693909Y-54369379D01*
X92693906Y-54369378D01*
X92685839Y-54365694D01*
X92677060Y-54364431D01*
X92677058Y-54364431D01*
X92551305Y-54346350D01*
X92542528Y-54345088D01*
X92533751Y-54346350D01*
X92407997Y-54364431D01*
X92407993Y-54364432D01*
X92399217Y-54365694D01*
X92391151Y-54369377D01*
X92391146Y-54369379D01*
X92274574Y-54422616D01*
X92274569Y-54422618D01*
X92267516Y-54425840D01*
X92261476Y-54430706D01*
X92261473Y-54430709D01*
X92223145Y-54461595D01*
X92223135Y-54461603D01*
X92220555Y-54463683D01*
X92218211Y-54466026D01*
X92218202Y-54466035D01*
X91306268Y-55377969D01*
X91306259Y-55377978D01*
X91303916Y-55380322D01*
X91301836Y-55382902D01*
X91301828Y-55382912D01*
X91270942Y-55421240D01*
X91270939Y-55421243D01*
X91266073Y-55427283D01*
X91262851Y-55434336D01*
X91262849Y-55434341D01*
X91209612Y-55550913D01*
X91209610Y-55550918D01*
X91205927Y-55558984D01*
X91204665Y-55567760D01*
X91204664Y-55567764D01*
X91193348Y-55646470D01*
X91185321Y-55702295D01*
X91186583Y-55711072D01*
X91198205Y-55791906D01*
X91205927Y-55845606D01*
X91209611Y-55853673D01*
X91209612Y-55853676D01*
X91241365Y-55923204D01*
X91266073Y-55977307D01*
X91303916Y-56024268D01*
X91306268Y-56026620D01*
X92141828Y-56862180D01*
X92172078Y-56911543D01*
X92176620Y-56969259D01*
X92154465Y-57022746D01*
X92110442Y-57060346D01*
X92054147Y-57073861D01*
X88705665Y-57073861D01*
X88658212Y-57064422D01*
X88617984Y-57037542D01*
X86867653Y-55287211D01*
X86837915Y-55239389D01*
X86832395Y-55183345D01*
X86852232Y-55130639D01*
X86890928Y-55094396D01*
X86893138Y-55093481D01*
X86899585Y-55088533D01*
X86906624Y-55084470D01*
X86906835Y-55084837D01*
X86934443Y-55070081D01*
X86974302Y-55063500D01*
X88867578Y-55063500D01*
X88881460Y-55064279D01*
X88917149Y-55068301D01*
X88973696Y-55057601D01*
X88978253Y-55056827D01*
X89035181Y-55048247D01*
X89042973Y-55044494D01*
X89051473Y-55042886D01*
X89059690Y-55038543D01*
X89059693Y-55038542D01*
X89102376Y-55015983D01*
X89106508Y-55013896D01*
X89158351Y-54988931D01*
X89164689Y-54983049D01*
X89172339Y-54979007D01*
X89213079Y-54938265D01*
X89216336Y-54935127D01*
X89258565Y-54895946D01*
X89262052Y-54889904D01*
X89267195Y-54884149D01*
X90829526Y-53321819D01*
X90869755Y-53294939D01*
X90917208Y-53285500D01*
X92677578Y-53285500D01*
X92691460Y-53286279D01*
X92727149Y-53290301D01*
X92783696Y-53279601D01*
X92788253Y-53278827D01*
X92845181Y-53270247D01*
X92852973Y-53266494D01*
X92861473Y-53264886D01*
X92869690Y-53260543D01*
X92869693Y-53260542D01*
X92893800Y-53247801D01*
X92951123Y-53233432D01*
X93008587Y-53247227D01*
X93053140Y-53286053D01*
X93074662Y-53341091D01*
X93068265Y-53399841D01*
X93003167Y-53578695D01*
X93000372Y-53589125D01*
X92967207Y-53777219D01*
X92967687Y-53788212D01*
X92978431Y-53790594D01*
X94150035Y-53790594D01*
X94162910Y-53787143D01*
X94166361Y-53774268D01*
X94666361Y-53774268D01*
X94669811Y-53787143D01*
X94682687Y-53790594D01*
X95814519Y-53790594D01*
X95825597Y-53787883D01*
X95824355Y-53776544D01*
X95752468Y-53579034D01*
X95747908Y-53569255D01*
X95635213Y-53374061D01*
X95629027Y-53365227D01*
X95520435Y-53235811D01*
X95516792Y-53231836D01*
X95225118Y-52940162D01*
X95221143Y-52936519D01*
X95091727Y-52827927D01*
X95082893Y-52821741D01*
X94887697Y-52709045D01*
X94877924Y-52704488D01*
X94680409Y-52632598D01*
X94669071Y-52631356D01*
X94666361Y-52642435D01*
X94666361Y-53774268D01*
X94166361Y-53774268D01*
X94166361Y-52602664D01*
X94163979Y-52591920D01*
X94152986Y-52591440D01*
X93964893Y-52624605D01*
X93954455Y-52627402D01*
X93853486Y-52664151D01*
X93787416Y-52669351D01*
X93728104Y-52639778D01*
X93692495Y-52583882D01*
X93690761Y-52517630D01*
X93723392Y-52459953D01*
X93877529Y-52305816D01*
X93917756Y-52278939D01*
X93965208Y-52269500D01*
X95158678Y-52269500D01*
X95206134Y-52278940D01*
X95246365Y-52305824D01*
X95266073Y-52335325D01*
X95267345Y-52334591D01*
X95271409Y-52341630D01*
X95274519Y-52349138D01*
X95279466Y-52355585D01*
X95356707Y-52456249D01*
X95363239Y-52464761D01*
X95478862Y-52553481D01*
X95613508Y-52609253D01*
X95758000Y-52628276D01*
X95902492Y-52609253D01*
X96037138Y-52553481D01*
X96152761Y-52464761D01*
X96241481Y-52349138D01*
X96297253Y-52214492D01*
X96316276Y-52070000D01*
X96297253Y-51925508D01*
X96241481Y-51790862D01*
X96152761Y-51675239D01*
X96037138Y-51586519D01*
X96029630Y-51583409D01*
X95910004Y-51533858D01*
X95910000Y-51533856D01*
X95902492Y-51530747D01*
X95894432Y-51529685D01*
X95886584Y-51527583D01*
X95887026Y-51525933D01*
X95855929Y-51515528D01*
X95829175Y-51492717D01*
X95828549Y-51493393D01*
X95821735Y-51487071D01*
X95815942Y-51479806D01*
X95768388Y-51447384D01*
X95764609Y-51444703D01*
X95725775Y-51416042D01*
X95718300Y-51410525D01*
X95710134Y-51407667D01*
X95702989Y-51402796D01*
X95694116Y-51400059D01*
X95694114Y-51400058D01*
X95647984Y-51385829D01*
X95643582Y-51384380D01*
X95598027Y-51368440D01*
X95598023Y-51368439D01*
X95589263Y-51365374D01*
X95580623Y-51365050D01*
X95572354Y-51362500D01*
X95563064Y-51362500D01*
X95514771Y-51362500D01*
X95510134Y-51362413D01*
X95461938Y-51360609D01*
X95461934Y-51360609D01*
X95452651Y-51360262D01*
X95445917Y-51362066D01*
X95438199Y-51362500D01*
X93758422Y-51362500D01*
X93744539Y-51361720D01*
X93718081Y-51358739D01*
X93708851Y-51357699D01*
X93699728Y-51359424D01*
X93699724Y-51359425D01*
X93652303Y-51368397D01*
X93647737Y-51369173D01*
X93600002Y-51376368D01*
X93599997Y-51376369D01*
X93590819Y-51377753D01*
X93583026Y-51381505D01*
X93574527Y-51383114D01*
X93566324Y-51387449D01*
X93566319Y-51387451D01*
X93523639Y-51410007D01*
X93519506Y-51412093D01*
X93476020Y-51433036D01*
X93476011Y-51433041D01*
X93467649Y-51437069D01*
X93461310Y-51442950D01*
X93453661Y-51446993D01*
X93447097Y-51453556D01*
X93447094Y-51453559D01*
X93412941Y-51487711D01*
X93409606Y-51490924D01*
X93367435Y-51530054D01*
X93363950Y-51536088D01*
X93358793Y-51541859D01*
X92558473Y-52342181D01*
X92518245Y-52369061D01*
X92470792Y-52378500D01*
X90710430Y-52378500D01*
X90696546Y-52377720D01*
X90670084Y-52374738D01*
X90670081Y-52374738D01*
X90660851Y-52373698D01*
X90651724Y-52375424D01*
X90651719Y-52375425D01*
X90604297Y-52384398D01*
X90599727Y-52385175D01*
X90552004Y-52392368D01*
X90552000Y-52392369D01*
X90542819Y-52393753D01*
X90535026Y-52397505D01*
X90526527Y-52399114D01*
X90518324Y-52403449D01*
X90518319Y-52403451D01*
X90475639Y-52426007D01*
X90471506Y-52428093D01*
X90428020Y-52449036D01*
X90428011Y-52449041D01*
X90419649Y-52453069D01*
X90413310Y-52458950D01*
X90405661Y-52462993D01*
X90399097Y-52469556D01*
X90399094Y-52469559D01*
X90364941Y-52503711D01*
X90361606Y-52506924D01*
X90319435Y-52546054D01*
X90315950Y-52552088D01*
X90310793Y-52557859D01*
X88748473Y-54120181D01*
X88708245Y-54147061D01*
X88660792Y-54156500D01*
X86974302Y-54156500D01*
X86934443Y-54149919D01*
X86906835Y-54135162D01*
X86906624Y-54135530D01*
X86899585Y-54131466D01*
X86893138Y-54126519D01*
X86768731Y-54074988D01*
X86766001Y-54073857D01*
X86765998Y-54073856D01*
X86758492Y-54070747D01*
X86750438Y-54069686D01*
X86750432Y-54069685D01*
X86622059Y-54052785D01*
X86614000Y-54051724D01*
X86605941Y-54052785D01*
X86477567Y-54069685D01*
X86477559Y-54069686D01*
X86469508Y-54070747D01*
X86462003Y-54073855D01*
X86461998Y-54073857D01*
X86342369Y-54123409D01*
X86342365Y-54123410D01*
X86334862Y-54126519D01*
X86328417Y-54131463D01*
X86328414Y-54131466D01*
X86225685Y-54210292D01*
X86225681Y-54210295D01*
X86219239Y-54215239D01*
X86214295Y-54221681D01*
X86214292Y-54221685D01*
X86135466Y-54324414D01*
X86135463Y-54324417D01*
X86130519Y-54330862D01*
X86129603Y-54333073D01*
X86093358Y-54371769D01*
X86040653Y-54391604D01*
X85984611Y-54386084D01*
X85936789Y-54356346D01*
X85071819Y-53491376D01*
X85044939Y-53451148D01*
X85035500Y-53403695D01*
X85035500Y-53192302D01*
X85042081Y-53152443D01*
X85056837Y-53124835D01*
X85056470Y-53124624D01*
X85060532Y-53117586D01*
X85065481Y-53111138D01*
X85121253Y-52976492D01*
X85140276Y-52832000D01*
X85121253Y-52687508D01*
X85065481Y-52552862D01*
X84976761Y-52437239D01*
X84861138Y-52348519D01*
X84845837Y-52342181D01*
X84734001Y-52295857D01*
X84733998Y-52295856D01*
X84726492Y-52292747D01*
X84718438Y-52291686D01*
X84718432Y-52291685D01*
X84590059Y-52274785D01*
X84582000Y-52273724D01*
X84573941Y-52274785D01*
X84445567Y-52291685D01*
X84445559Y-52291686D01*
X84437508Y-52292747D01*
X84430003Y-52295855D01*
X84429998Y-52295857D01*
X84310369Y-52345409D01*
X84310365Y-52345410D01*
X84302862Y-52348519D01*
X84296417Y-52353463D01*
X84296414Y-52353466D01*
X84193685Y-52432292D01*
X84193681Y-52432295D01*
X84187239Y-52437239D01*
X84182295Y-52443681D01*
X84182292Y-52443685D01*
X84103466Y-52546414D01*
X84103463Y-52546417D01*
X84098519Y-52552862D01*
X84095410Y-52560365D01*
X84095409Y-52560369D01*
X84045857Y-52679998D01*
X84045855Y-52680003D01*
X84042747Y-52687508D01*
X84041686Y-52695559D01*
X84041685Y-52695567D01*
X84025486Y-52818614D01*
X84023724Y-52832000D01*
X84024785Y-52840059D01*
X84041685Y-52968432D01*
X84041686Y-52968438D01*
X84042747Y-52976492D01*
X84045856Y-52983998D01*
X84045857Y-52984001D01*
X84095409Y-53103630D01*
X84098519Y-53111138D01*
X84103466Y-53117585D01*
X84107530Y-53124624D01*
X84107162Y-53124835D01*
X84121919Y-53152443D01*
X84128500Y-53192302D01*
X84128500Y-53610481D01*
X84127720Y-53624364D01*
X84124739Y-53650817D01*
X84124739Y-53650820D01*
X84123699Y-53660052D01*
X84125425Y-53669178D01*
X84125426Y-53669183D01*
X84126338Y-53674001D01*
X84128500Y-53697053D01*
X84128500Y-56910792D01*
X84119061Y-56958245D01*
X84092181Y-56998473D01*
X82652473Y-58438181D01*
X82612245Y-58465061D01*
X82564792Y-58474500D01*
X82533528Y-58474500D01*
X82519644Y-58473720D01*
X82493179Y-58470738D01*
X82483949Y-58469698D01*
X82474827Y-58471423D01*
X82474820Y-58471424D01*
X82427378Y-58480400D01*
X82422812Y-58481176D01*
X82375099Y-58488368D01*
X82375094Y-58488369D01*
X82365916Y-58489753D01*
X82358123Y-58493505D01*
X82349624Y-58495114D01*
X82341421Y-58499449D01*
X82341416Y-58499451D01*
X82298736Y-58522007D01*
X82294603Y-58524093D01*
X82251117Y-58545036D01*
X82251108Y-58545041D01*
X82242746Y-58549069D01*
X82236407Y-58554950D01*
X82228758Y-58558993D01*
X82222194Y-58565556D01*
X82222191Y-58565559D01*
X82188038Y-58599711D01*
X82184703Y-58602924D01*
X82142532Y-58642054D01*
X82139047Y-58648088D01*
X82133890Y-58653859D01*
X81499256Y-59288493D01*
X81488891Y-59297756D01*
X81468073Y-59314358D01*
X81468067Y-59314364D01*
X81460806Y-59320155D01*
X81455575Y-59327826D01*
X81455566Y-59327837D01*
X81428379Y-59367713D01*
X81425698Y-59371492D01*
X81397042Y-59410319D01*
X81397036Y-59410328D01*
X81391525Y-59417797D01*
X81388667Y-59425962D01*
X81383796Y-59433108D01*
X81381059Y-59441978D01*
X81381059Y-59441980D01*
X81366827Y-59488119D01*
X81365378Y-59492521D01*
X81349440Y-59538068D01*
X81349438Y-59538075D01*
X81346374Y-59546834D01*
X81346050Y-59555473D01*
X81343500Y-59563743D01*
X81343500Y-59573029D01*
X81343500Y-59621326D01*
X81343413Y-59625963D01*
X81341609Y-59674158D01*
X81341609Y-59674161D01*
X81341262Y-59683446D01*
X81343066Y-59690179D01*
X81343500Y-59697898D01*
X81343500Y-60223483D01*
X81342720Y-60237366D01*
X81339740Y-60263810D01*
X81339740Y-60263814D01*
X81339207Y-60268547D01*
X81338699Y-60273053D01*
X81340426Y-60282185D01*
X81340427Y-60282190D01*
X81349397Y-60329605D01*
X81350173Y-60334169D01*
X81355543Y-60369788D01*
X81358753Y-60391085D01*
X81362505Y-60398877D01*
X81364114Y-60407377D01*
X81368452Y-60415586D01*
X81368455Y-60415593D01*
X81391017Y-60458282D01*
X81393103Y-60462413D01*
X81418069Y-60514255D01*
X81423950Y-60520593D01*
X81427993Y-60528243D01*
X81434564Y-60534814D01*
X81468694Y-60568944D01*
X81471911Y-60572283D01*
X81511054Y-60614469D01*
X81517090Y-60617954D01*
X81522859Y-60623109D01*
X81701448Y-60801698D01*
X81902541Y-61002791D01*
X81902542Y-61002792D01*
X81974097Y-61074347D01*
X82011278Y-61111527D01*
X82038158Y-61151756D01*
X82047597Y-61199209D01*
X82047597Y-62225879D01*
X82038158Y-62273332D01*
X82013857Y-62331998D01*
X82013855Y-62332003D01*
X82010747Y-62339508D01*
X82009686Y-62347559D01*
X82009685Y-62347567D01*
X81993550Y-62470133D01*
X81991724Y-62484000D01*
X81992785Y-62492059D01*
X82009685Y-62620432D01*
X82009686Y-62620438D01*
X82010747Y-62628492D01*
X82013856Y-62635998D01*
X82013857Y-62636001D01*
X82056641Y-62739290D01*
X82066519Y-62763138D01*
X82071466Y-62769585D01*
X82075530Y-62776624D01*
X82075162Y-62776835D01*
X82089919Y-62804443D01*
X82096500Y-62844302D01*
X82096500Y-64409698D01*
X82089919Y-64449557D01*
X82075162Y-64477164D01*
X82075530Y-64477376D01*
X82071465Y-64484415D01*
X82066519Y-64490862D01*
X82063410Y-64498365D01*
X82063409Y-64498369D01*
X82013857Y-64617998D01*
X82013855Y-64618003D01*
X82010747Y-64625508D01*
X82009686Y-64633559D01*
X82009685Y-64633567D01*
X81996149Y-64736388D01*
X81991724Y-64770000D01*
X81992785Y-64778059D01*
X82009685Y-64906432D01*
X82009686Y-64906438D01*
X82010747Y-64914492D01*
X82013856Y-64921998D01*
X82013857Y-64922001D01*
X82057763Y-65028000D01*
X82066519Y-65049138D01*
X82071466Y-65055585D01*
X82075530Y-65062624D01*
X82075162Y-65062835D01*
X82089919Y-65090443D01*
X82096500Y-65130302D01*
X82096500Y-68039578D01*
X82095720Y-68053460D01*
X82091699Y-68089149D01*
X82093424Y-68098270D01*
X82093425Y-68098278D01*
X82102397Y-68145701D01*
X82103173Y-68150265D01*
X82106751Y-68173998D01*
X82111753Y-68207181D01*
X82115505Y-68214973D01*
X82117114Y-68223473D01*
X82121452Y-68231682D01*
X82121455Y-68231689D01*
X82144017Y-68274378D01*
X82146103Y-68278509D01*
X82171069Y-68330351D01*
X82176950Y-68336689D01*
X82180993Y-68344339D01*
X82187563Y-68350909D01*
X82187564Y-68350910D01*
X82221708Y-68385054D01*
X82224925Y-68388394D01*
X82264054Y-68430565D01*
X82270092Y-68434051D01*
X82275857Y-68439203D01*
X83788652Y-69951998D01*
X85276554Y-71439899D01*
X85300084Y-71472733D01*
X85309173Y-71502693D01*
X85309583Y-71502584D01*
X85311685Y-71510432D01*
X85312747Y-71518492D01*
X85315856Y-71526000D01*
X85315858Y-71526004D01*
X85336325Y-71575415D01*
X85368519Y-71653138D01*
X85457239Y-71768761D01*
X85572862Y-71857481D01*
X85707508Y-71913253D01*
X85852000Y-71932276D01*
X85996492Y-71913253D01*
X86131138Y-71857481D01*
X86246761Y-71768761D01*
X86335481Y-71653138D01*
X86391253Y-71518492D01*
X86410276Y-71374000D01*
X86391253Y-71229508D01*
X86335481Y-71094862D01*
X86246761Y-70979239D01*
X86131138Y-70890519D01*
X86123630Y-70887409D01*
X86004004Y-70837858D01*
X86004000Y-70837856D01*
X85996492Y-70834747D01*
X85988432Y-70833685D01*
X85980584Y-70831583D01*
X85980693Y-70831173D01*
X85950733Y-70822084D01*
X85917899Y-70798554D01*
X83039819Y-67920473D01*
X83012939Y-67880245D01*
X83003500Y-67832792D01*
X83003500Y-65130302D01*
X83010081Y-65090443D01*
X83024837Y-65062835D01*
X83024470Y-65062624D01*
X83028532Y-65055586D01*
X83033481Y-65049138D01*
X83089253Y-64914492D01*
X83108276Y-64770000D01*
X83089253Y-64625508D01*
X83033481Y-64490862D01*
X83028533Y-64484414D01*
X83024470Y-64477376D01*
X83024837Y-64477164D01*
X83010081Y-64449557D01*
X83003500Y-64409698D01*
X83003500Y-63624208D01*
X83017015Y-63567913D01*
X83054615Y-63523890D01*
X83108102Y-63501735D01*
X83165818Y-63506277D01*
X83215181Y-63536527D01*
X85386720Y-65708065D01*
X85395986Y-65718433D01*
X85412592Y-65739257D01*
X85412594Y-65739259D01*
X85418387Y-65746523D01*
X85465966Y-65778962D01*
X85469709Y-65781617D01*
X85516029Y-65815804D01*
X85524194Y-65818661D01*
X85531340Y-65823533D01*
X85586419Y-65840522D01*
X85590672Y-65841921D01*
X85645066Y-65860955D01*
X85653705Y-65861278D01*
X85661975Y-65863829D01*
X85719558Y-65863829D01*
X85724194Y-65863915D01*
X85781678Y-65866067D01*
X85788411Y-65864262D01*
X85796130Y-65863829D01*
X87288810Y-65863829D01*
X87302692Y-65864608D01*
X87338381Y-65868630D01*
X87394928Y-65857930D01*
X87399485Y-65857156D01*
X87456413Y-65848576D01*
X87464205Y-65844823D01*
X87472705Y-65843215D01*
X87480922Y-65838872D01*
X87480925Y-65838871D01*
X87523608Y-65816312D01*
X87527740Y-65814225D01*
X87579583Y-65789260D01*
X87585921Y-65783378D01*
X87593571Y-65779336D01*
X87634311Y-65738594D01*
X87637568Y-65735456D01*
X87679797Y-65696275D01*
X87683284Y-65690233D01*
X87688427Y-65684478D01*
X89451747Y-63921158D01*
X89462110Y-63911898D01*
X89464050Y-63910351D01*
X89490194Y-63889503D01*
X89522619Y-63841941D01*
X89525269Y-63838205D01*
X89559475Y-63791861D01*
X89562332Y-63783695D01*
X89567204Y-63776550D01*
X89584177Y-63721521D01*
X89585615Y-63717150D01*
X89604626Y-63662824D01*
X89604949Y-63654184D01*
X89607500Y-63645915D01*
X89607500Y-63588332D01*
X89607587Y-63583695D01*
X89609738Y-63526212D01*
X89607933Y-63519478D01*
X89607500Y-63511760D01*
X89607500Y-62844302D01*
X89614081Y-62804443D01*
X89628837Y-62776835D01*
X89628470Y-62776624D01*
X89632532Y-62769586D01*
X89637481Y-62763138D01*
X89693253Y-62628492D01*
X89712276Y-62484000D01*
X89693253Y-62339508D01*
X89637481Y-62204862D01*
X89548761Y-62089239D01*
X89531073Y-62075667D01*
X89439585Y-62005466D01*
X89433138Y-62000519D01*
X89425630Y-61997409D01*
X89306001Y-61947857D01*
X89305998Y-61947856D01*
X89298492Y-61944747D01*
X89290438Y-61943686D01*
X89290432Y-61943685D01*
X89162059Y-61926785D01*
X89154000Y-61925724D01*
X89145941Y-61926785D01*
X89017567Y-61943685D01*
X89017559Y-61943686D01*
X89009508Y-61944747D01*
X89002003Y-61947855D01*
X89001998Y-61947857D01*
X88882369Y-61997409D01*
X88882365Y-61997410D01*
X88874862Y-62000519D01*
X88868417Y-62005463D01*
X88868414Y-62005466D01*
X88765685Y-62084292D01*
X88765681Y-62084295D01*
X88759239Y-62089239D01*
X88754295Y-62095681D01*
X88754292Y-62095685D01*
X88675466Y-62198414D01*
X88675463Y-62198417D01*
X88670519Y-62204862D01*
X88667410Y-62212365D01*
X88667409Y-62212369D01*
X88617857Y-62331998D01*
X88617855Y-62332003D01*
X88614747Y-62339508D01*
X88613686Y-62347559D01*
X88613685Y-62347567D01*
X88597550Y-62470133D01*
X88595724Y-62484000D01*
X88596785Y-62492059D01*
X88613685Y-62620432D01*
X88613686Y-62620438D01*
X88614747Y-62628492D01*
X88617856Y-62635998D01*
X88617857Y-62636001D01*
X88660641Y-62739290D01*
X88670519Y-62763138D01*
X88675466Y-62769585D01*
X88679530Y-62776624D01*
X88679162Y-62776835D01*
X88693919Y-62804443D01*
X88700500Y-62844302D01*
X88700500Y-63338353D01*
X88691061Y-63385806D01*
X88664181Y-63426034D01*
X87686539Y-64403674D01*
X87638717Y-64433412D01*
X87582673Y-64438932D01*
X87529968Y-64419096D01*
X87493725Y-64380400D01*
X87492810Y-64378191D01*
X87404090Y-64262568D01*
X87386793Y-64249296D01*
X87294914Y-64178795D01*
X87288467Y-64173848D01*
X87283699Y-64171872D01*
X87264550Y-64157798D01*
X87255996Y-64149923D01*
X87252301Y-64146377D01*
X83143534Y-60037609D01*
X83116654Y-59997381D01*
X83107383Y-59950776D01*
X83108276Y-59944000D01*
X83089253Y-59799508D01*
X83033481Y-59664862D01*
X82944761Y-59549239D01*
X82941773Y-59546946D01*
X82912955Y-59500117D01*
X82908127Y-59442877D01*
X82929612Y-59389603D01*
X82972801Y-59351728D01*
X83006378Y-59333982D01*
X83010508Y-59331896D01*
X83062351Y-59306931D01*
X83068689Y-59301049D01*
X83076339Y-59297007D01*
X83117079Y-59256265D01*
X83120336Y-59253127D01*
X83162565Y-59213946D01*
X83166052Y-59207904D01*
X83171195Y-59202149D01*
X84879747Y-57493597D01*
X84890110Y-57484337D01*
X84918194Y-57461942D01*
X84950633Y-57414359D01*
X84953259Y-57410658D01*
X84987475Y-57364300D01*
X84990332Y-57356134D01*
X84995204Y-57348989D01*
X85012168Y-57293995D01*
X85013618Y-57289590D01*
X85029556Y-57244041D01*
X85029556Y-57244037D01*
X85032627Y-57235263D01*
X85032950Y-57226619D01*
X85035500Y-57218354D01*
X85035500Y-57160781D01*
X85035587Y-57156145D01*
X85036302Y-57137028D01*
X85037738Y-57098650D01*
X85035933Y-57091916D01*
X85035500Y-57084197D01*
X85035500Y-55037111D01*
X85049015Y-54980816D01*
X85086615Y-54936793D01*
X85140102Y-54914638D01*
X85197818Y-54919180D01*
X85247181Y-54949430D01*
X88122849Y-57825097D01*
X88132115Y-57835465D01*
X88148721Y-57856289D01*
X88148723Y-57856291D01*
X88154516Y-57863555D01*
X88202095Y-57895994D01*
X88205838Y-57898649D01*
X88252158Y-57932836D01*
X88260323Y-57935693D01*
X88267469Y-57940565D01*
X88322548Y-57957554D01*
X88326801Y-57958953D01*
X88381195Y-57977987D01*
X88389834Y-57978310D01*
X88398104Y-57980861D01*
X88455687Y-57980861D01*
X88460323Y-57980947D01*
X88517807Y-57983099D01*
X88524540Y-57981294D01*
X88532259Y-57980861D01*
X94332217Y-57980861D01*
X94346083Y-57981639D01*
X94358653Y-57983055D01*
X94415972Y-58004756D01*
X94455898Y-58051262D01*
X94468671Y-58111209D01*
X94451171Y-58169951D01*
X94407674Y-58213135D01*
X94286804Y-58284287D01*
X94286801Y-58284289D01*
X94281384Y-58287478D01*
X94276724Y-58291688D01*
X94276716Y-58291694D01*
X94134605Y-58420087D01*
X94134600Y-58420091D01*
X94129945Y-58424298D01*
X94126231Y-58429354D01*
X94126227Y-58429360D01*
X94012868Y-58583734D01*
X94012862Y-58583744D01*
X94009148Y-58588802D01*
X94006524Y-58594512D01*
X94006521Y-58594518D01*
X93926566Y-58768533D01*
X93926564Y-58768538D01*
X93923938Y-58774254D01*
X93922517Y-58780376D01*
X93922514Y-58780386D01*
X93879224Y-58966936D01*
X93879223Y-58966943D01*
X93877803Y-58973063D01*
X93877643Y-58979342D01*
X93877643Y-58979349D01*
X93872792Y-59170802D01*
X93872633Y-59177090D01*
X93873741Y-59183275D01*
X93873742Y-59183280D01*
X93907140Y-59369619D01*
X93908639Y-59377981D01*
X93910970Y-59383816D01*
X93910971Y-59383820D01*
X93982014Y-59561672D01*
X93982016Y-59561676D01*
X93984347Y-59567511D01*
X93987804Y-59572757D01*
X93987806Y-59572760D01*
X94081233Y-59714519D01*
X94096657Y-59737922D01*
X94101104Y-59742369D01*
X94804961Y-60446227D01*
X94838041Y-60505750D01*
X94834699Y-60573766D01*
X94795945Y-60629761D01*
X94733466Y-60656847D01*
X94605566Y-60673686D01*
X94605565Y-60673686D01*
X94597508Y-60674747D01*
X94590003Y-60677855D01*
X94589998Y-60677857D01*
X94470369Y-60727409D01*
X94470365Y-60727410D01*
X94462862Y-60730519D01*
X94456417Y-60735463D01*
X94456414Y-60735466D01*
X94353685Y-60814292D01*
X94353681Y-60814295D01*
X94347239Y-60819239D01*
X94342295Y-60825681D01*
X94342292Y-60825685D01*
X94263463Y-60928417D01*
X94263458Y-60928424D01*
X94258519Y-60934862D01*
X94256544Y-60939628D01*
X94242474Y-60958770D01*
X94234599Y-60967325D01*
X94231048Y-60971026D01*
X88993608Y-66208466D01*
X88953380Y-66235346D01*
X88906776Y-66244616D01*
X88900000Y-66243724D01*
X88891941Y-66244785D01*
X88763567Y-66261685D01*
X88763559Y-66261686D01*
X88755508Y-66262747D01*
X88748003Y-66265855D01*
X88747998Y-66265857D01*
X88628369Y-66315409D01*
X88628365Y-66315410D01*
X88620862Y-66318519D01*
X88614417Y-66323463D01*
X88614414Y-66323466D01*
X88511685Y-66402292D01*
X88511681Y-66402295D01*
X88505239Y-66407239D01*
X88500295Y-66413681D01*
X88500292Y-66413685D01*
X88421466Y-66516414D01*
X88421463Y-66516417D01*
X88416519Y-66522862D01*
X88413410Y-66530365D01*
X88413409Y-66530369D01*
X88363857Y-66649998D01*
X88363855Y-66650003D01*
X88360747Y-66657508D01*
X88359686Y-66665559D01*
X88359685Y-66665567D01*
X88345429Y-66773857D01*
X88341724Y-66802000D01*
X88342785Y-66810059D01*
X88359685Y-66938432D01*
X88359686Y-66938438D01*
X88360747Y-66946492D01*
X88363856Y-66953998D01*
X88363857Y-66954001D01*
X88405101Y-67053573D01*
X88416519Y-67081138D01*
X88505239Y-67196761D01*
X88620862Y-67285481D01*
X88755508Y-67341253D01*
X88837864Y-67352095D01*
X88900342Y-67379180D01*
X88939097Y-67435175D01*
X88942439Y-67503191D01*
X88909360Y-67562714D01*
X88789891Y-67682183D01*
X88749666Y-67709061D01*
X88702213Y-67718500D01*
X88623884Y-67718500D01*
X88576431Y-67709061D01*
X88536921Y-67682661D01*
X88532761Y-67677239D01*
X88417138Y-67588519D01*
X88404070Y-67583106D01*
X88290001Y-67535857D01*
X88289998Y-67535856D01*
X88282492Y-67532747D01*
X88274438Y-67531686D01*
X88274432Y-67531685D01*
X88146059Y-67514785D01*
X88138000Y-67513724D01*
X88129941Y-67514785D01*
X88001567Y-67531685D01*
X88001559Y-67531686D01*
X87993508Y-67532747D01*
X87986003Y-67535855D01*
X87985998Y-67535857D01*
X87866369Y-67585409D01*
X87866365Y-67585410D01*
X87858862Y-67588519D01*
X87852417Y-67593463D01*
X87852414Y-67593466D01*
X87749685Y-67672292D01*
X87749681Y-67672295D01*
X87743239Y-67677239D01*
X87738295Y-67683681D01*
X87738292Y-67683685D01*
X87659466Y-67786414D01*
X87659463Y-67786417D01*
X87654519Y-67792862D01*
X87651410Y-67800365D01*
X87651409Y-67800369D01*
X87601857Y-67919998D01*
X87601855Y-67920003D01*
X87598747Y-67927508D01*
X87597686Y-67935559D01*
X87597685Y-67935567D01*
X87582952Y-68047481D01*
X87579724Y-68072000D01*
X87580785Y-68080059D01*
X87597685Y-68208432D01*
X87597686Y-68208438D01*
X87598747Y-68216492D01*
X87601856Y-68223998D01*
X87601857Y-68224001D01*
X87646950Y-68332864D01*
X87654519Y-68351138D01*
X87680691Y-68385246D01*
X87712241Y-68426364D01*
X87743239Y-68466761D01*
X87858862Y-68555481D01*
X87993508Y-68611253D01*
X88138000Y-68630276D01*
X88282492Y-68611253D01*
X88417138Y-68555481D01*
X88532761Y-68466761D01*
X88536921Y-68461338D01*
X88576431Y-68434939D01*
X88623884Y-68425500D01*
X88850477Y-68425500D01*
X88873797Y-68427918D01*
X88875133Y-68427973D01*
X88885190Y-68430082D01*
X88915025Y-68426363D01*
X88920119Y-68425834D01*
X88924148Y-68425500D01*
X88929293Y-68425500D01*
X88948488Y-68422296D01*
X88953490Y-68421567D01*
X89002261Y-68415489D01*
X89008984Y-68412202D01*
X89016368Y-68410970D01*
X89059590Y-68387578D01*
X89064073Y-68385270D01*
X89108251Y-68363674D01*
X89113546Y-68358378D01*
X89120126Y-68354818D01*
X89153426Y-68318643D01*
X89156904Y-68315019D01*
X89917286Y-67554636D01*
X89976807Y-67521558D01*
X90044823Y-67524900D01*
X90100818Y-67563654D01*
X90127904Y-67626133D01*
X90138747Y-67708492D01*
X90141856Y-67715998D01*
X90141857Y-67716001D01*
X90191014Y-67834676D01*
X90194519Y-67843138D01*
X90283239Y-67958761D01*
X90398862Y-68047481D01*
X90533508Y-68103253D01*
X90678000Y-68122276D01*
X90822492Y-68103253D01*
X90957138Y-68047481D01*
X91072761Y-67958761D01*
X91161481Y-67843138D01*
X91217253Y-67708492D01*
X91236276Y-67564000D01*
X91235383Y-67557222D01*
X91244654Y-67510618D01*
X91271534Y-67470390D01*
X92362390Y-66379534D01*
X92402618Y-66352654D01*
X92449222Y-66343383D01*
X92456000Y-66344276D01*
X92600492Y-66325253D01*
X92735138Y-66269481D01*
X92850761Y-66180761D01*
X92939481Y-66065138D01*
X92995253Y-65930492D01*
X93014276Y-65786000D01*
X93013383Y-65779222D01*
X93022654Y-65732618D01*
X93049534Y-65692390D01*
X93560745Y-65181179D01*
X96355297Y-62386625D01*
X96408038Y-62355333D01*
X96469331Y-62353144D01*
X96524175Y-62380597D01*
X96559155Y-62430976D01*
X96565711Y-62491956D01*
X96555336Y-62564121D01*
X96553746Y-62575180D01*
X96555008Y-62583957D01*
X96569732Y-62686364D01*
X96574352Y-62718491D01*
X96578032Y-62726550D01*
X96578034Y-62726555D01*
X96624851Y-62829071D01*
X96634497Y-62850192D01*
X96672340Y-62897152D01*
X97376848Y-63601660D01*
X97400230Y-63620502D01*
X97435339Y-63665809D01*
X97446321Y-63722068D01*
X97430827Y-63777254D01*
X97392170Y-63819576D01*
X97338608Y-63839991D01*
X97272946Y-63848636D01*
X97264508Y-63849747D01*
X97257003Y-63852855D01*
X97256998Y-63852857D01*
X97137369Y-63902409D01*
X97137365Y-63902410D01*
X97129862Y-63905519D01*
X97123417Y-63910463D01*
X97123414Y-63910466D01*
X97020685Y-63989292D01*
X97020681Y-63989295D01*
X97014239Y-63994239D01*
X97009295Y-64000681D01*
X97009292Y-64000685D01*
X96930466Y-64103414D01*
X96930463Y-64103417D01*
X96925519Y-64109862D01*
X96922410Y-64117365D01*
X96922409Y-64117369D01*
X96872857Y-64236998D01*
X96872855Y-64237003D01*
X96869747Y-64244508D01*
X96868686Y-64252559D01*
X96868685Y-64252567D01*
X96857515Y-64337419D01*
X96850724Y-64389000D01*
X96851785Y-64397059D01*
X96868685Y-64525432D01*
X96868686Y-64525438D01*
X96869747Y-64533492D01*
X96872856Y-64540998D01*
X96872857Y-64541001D01*
X96892155Y-64587591D01*
X96925519Y-64668138D01*
X97014239Y-64783761D01*
X97129862Y-64872481D01*
X97264508Y-64928253D01*
X97409000Y-64947276D01*
X97415776Y-64946383D01*
X97462381Y-64955654D01*
X97502609Y-64982534D01*
X97799359Y-65279284D01*
X97832439Y-65338807D01*
X97829098Y-65406823D01*
X97790343Y-65462818D01*
X97727864Y-65489904D01*
X97653938Y-65499637D01*
X97645508Y-65500747D01*
X97638003Y-65503855D01*
X97637998Y-65503857D01*
X97518369Y-65553409D01*
X97518365Y-65553410D01*
X97510862Y-65556519D01*
X97504417Y-65561463D01*
X97504414Y-65561466D01*
X97401685Y-65640292D01*
X97401681Y-65640295D01*
X97395239Y-65645239D01*
X97390295Y-65651681D01*
X97390292Y-65651685D01*
X97311466Y-65754414D01*
X97311463Y-65754417D01*
X97306519Y-65760862D01*
X97303410Y-65768365D01*
X97303409Y-65768369D01*
X97253857Y-65887998D01*
X97253855Y-65888003D01*
X97250747Y-65895508D01*
X97249686Y-65903559D01*
X97249685Y-65903567D01*
X97235429Y-66011857D01*
X97231724Y-66040000D01*
X97232616Y-66046776D01*
X97223346Y-66093380D01*
X97196466Y-66133608D01*
X93819608Y-69510466D01*
X93779380Y-69537346D01*
X93732776Y-69546616D01*
X93726000Y-69545724D01*
X93717941Y-69546785D01*
X93589567Y-69563685D01*
X93589559Y-69563686D01*
X93581508Y-69564747D01*
X93574003Y-69567855D01*
X93573998Y-69567857D01*
X93454369Y-69617409D01*
X93454365Y-69617410D01*
X93446862Y-69620519D01*
X93440417Y-69625463D01*
X93440414Y-69625466D01*
X93337685Y-69704292D01*
X93337681Y-69704295D01*
X93331239Y-69709239D01*
X93326295Y-69715681D01*
X93326292Y-69715685D01*
X93247466Y-69818414D01*
X93247463Y-69818417D01*
X93242519Y-69824862D01*
X93239410Y-69832365D01*
X93239409Y-69832369D01*
X93189857Y-69951998D01*
X93189855Y-69952003D01*
X93186747Y-69959508D01*
X93185686Y-69967559D01*
X93185685Y-69967567D01*
X93174752Y-70050618D01*
X93167724Y-70104000D01*
X93168785Y-70112059D01*
X93185685Y-70240432D01*
X93185686Y-70240438D01*
X93186747Y-70248492D01*
X93189856Y-70255998D01*
X93189857Y-70256001D01*
X93239409Y-70375630D01*
X93242519Y-70383138D01*
X93331239Y-70498761D01*
X93446862Y-70587481D01*
X93581508Y-70643253D01*
X93661757Y-70653818D01*
X93717799Y-70675964D01*
X93756784Y-70721913D01*
X93769506Y-70780814D01*
X93753447Y-70837044D01*
X93750519Y-70840862D01*
X93747410Y-70848365D01*
X93747409Y-70848369D01*
X93697857Y-70967998D01*
X93697855Y-70968003D01*
X93694747Y-70975508D01*
X93693686Y-70983559D01*
X93693685Y-70983567D01*
X93678952Y-71095481D01*
X93675724Y-71120000D01*
X93676785Y-71128059D01*
X93693685Y-71256432D01*
X93693686Y-71256438D01*
X93694747Y-71264492D01*
X93697856Y-71271998D01*
X93697857Y-71272001D01*
X93743445Y-71382059D01*
X93750519Y-71399138D01*
X93839239Y-71514761D01*
X93954862Y-71603481D01*
X94089508Y-71659253D01*
X94189772Y-71672453D01*
X94253292Y-71700402D01*
X94291848Y-71758104D01*
X94293362Y-71827485D01*
X94286212Y-71854168D01*
X94285844Y-71865397D01*
X94296787Y-71867949D01*
X95255725Y-71867949D01*
X95268600Y-71864498D01*
X95272051Y-71851623D01*
X95272051Y-70892685D01*
X95269258Y-70880708D01*
X95267105Y-70879733D01*
X95218294Y-70869523D01*
X95172811Y-70832442D01*
X95149472Y-70778601D01*
X95153502Y-70720058D01*
X95183998Y-70669925D01*
X96381503Y-69472419D01*
X96435132Y-69440869D01*
X96437027Y-69440822D01*
X96437074Y-69438927D01*
X96468624Y-69385298D01*
X98177555Y-67676367D01*
X98231185Y-67644816D01*
X98233076Y-67644769D01*
X98233123Y-67642878D01*
X98264674Y-67589248D01*
X98458389Y-67395533D01*
X98498617Y-67368654D01*
X98545222Y-67359383D01*
X98552000Y-67360276D01*
X98660719Y-67345962D01*
X98719310Y-67352378D01*
X98720352Y-67353074D01*
X98722963Y-67347186D01*
X98772636Y-67309713D01*
X98831138Y-67285481D01*
X98946761Y-67196761D01*
X99035481Y-67081138D01*
X99091253Y-66946492D01*
X99102095Y-66864132D01*
X99129180Y-66801656D01*
X99185175Y-66762901D01*
X99253191Y-66759559D01*
X99312715Y-66792639D01*
X100283753Y-67763677D01*
X100310633Y-67803904D01*
X100320072Y-67851355D01*
X100310635Y-67898807D01*
X100301857Y-67919998D01*
X100301855Y-67920002D01*
X100298747Y-67927508D01*
X100297686Y-67935565D01*
X100297685Y-67935570D01*
X100279724Y-68072000D01*
X100277389Y-68071692D01*
X100263764Y-68121887D01*
X100217374Y-68167375D01*
X100154351Y-68183162D01*
X100091996Y-68164914D01*
X100047427Y-68117640D01*
X99968706Y-67970365D01*
X99962596Y-67958934D01*
X99835695Y-67804304D01*
X99830900Y-67800369D01*
X99685771Y-67681265D01*
X99685770Y-67681264D01*
X99681065Y-67677403D01*
X99671503Y-67672292D01*
X99510023Y-67585978D01*
X99510018Y-67585976D01*
X99504649Y-67583106D01*
X99467437Y-67571818D01*
X99319056Y-67526807D01*
X99319051Y-67526806D01*
X99313226Y-67525039D01*
X99307167Y-67524442D01*
X99307161Y-67524441D01*
X99120214Y-67506029D01*
X99114153Y-67505432D01*
X99108092Y-67506029D01*
X98921144Y-67524441D01*
X98921136Y-67524442D01*
X98915080Y-67525039D01*
X98909254Y-67526806D01*
X98909245Y-67526808D01*
X98856084Y-67542934D01*
X98793910Y-67545478D01*
X98777507Y-67537221D01*
X98771897Y-67548600D01*
X98725681Y-67582491D01*
X98723657Y-67583106D01*
X98718301Y-67585968D01*
X98718291Y-67585973D01*
X98552609Y-67674533D01*
X98552603Y-67674536D01*
X98547241Y-67677403D01*
X98542535Y-67681264D01*
X98542535Y-67681265D01*
X98431021Y-67772781D01*
X98383219Y-67794912D01*
X98361088Y-67842714D01*
X98271143Y-67952314D01*
X98265710Y-67958934D01*
X98262843Y-67964296D01*
X98262840Y-67964302D01*
X98174285Y-68129975D01*
X98174281Y-68129983D01*
X98171413Y-68135350D01*
X98169644Y-68141179D01*
X98169644Y-68141181D01*
X98115114Y-68320942D01*
X98115112Y-68320949D01*
X98113346Y-68326773D01*
X98112749Y-68332829D01*
X98112748Y-68332837D01*
X98100193Y-68460314D01*
X98093739Y-68525846D01*
X98094336Y-68531907D01*
X98112748Y-68718854D01*
X98112749Y-68718860D01*
X98113346Y-68724919D01*
X98115113Y-68730744D01*
X98115114Y-68730749D01*
X98138927Y-68809249D01*
X98171413Y-68916342D01*
X98174283Y-68921711D01*
X98174285Y-68921716D01*
X98249730Y-69062862D01*
X98265710Y-69092758D01*
X98269571Y-69097463D01*
X98269572Y-69097464D01*
X98388748Y-69242681D01*
X98392611Y-69247388D01*
X98547241Y-69374289D01*
X98723657Y-69468586D01*
X98915080Y-69526653D01*
X99114153Y-69546260D01*
X99313226Y-69526653D01*
X99504649Y-69468586D01*
X99681065Y-69374289D01*
X99835695Y-69247388D01*
X99962596Y-69092758D01*
X100056893Y-68916342D01*
X100114960Y-68724919D01*
X100134567Y-68525846D01*
X100124603Y-68424683D01*
X100136085Y-68359149D01*
X100179790Y-68308981D01*
X100243136Y-68288627D01*
X100307884Y-68303946D01*
X100353497Y-68348671D01*
X100354519Y-68351138D01*
X100380691Y-68385246D01*
X100412241Y-68426364D01*
X100443239Y-68466761D01*
X100558862Y-68555481D01*
X100693508Y-68611253D01*
X100838000Y-68630276D01*
X100982492Y-68611253D01*
X101117138Y-68555481D01*
X101232761Y-68466761D01*
X101321481Y-68351138D01*
X101377253Y-68216492D01*
X101396276Y-68072000D01*
X101377253Y-67927508D01*
X101321481Y-67792862D01*
X101232761Y-67677239D01*
X101226314Y-67672292D01*
X101125920Y-67595257D01*
X101088426Y-67547984D01*
X101077682Y-67488611D01*
X101096232Y-67431196D01*
X101139684Y-67389334D01*
X101197750Y-67372935D01*
X101256681Y-67385883D01*
X101260896Y-67387982D01*
X101265769Y-67390999D01*
X101456468Y-67464876D01*
X101657495Y-67502454D01*
X101856274Y-67502454D01*
X101862003Y-67502454D01*
X102063030Y-67464876D01*
X102253729Y-67390999D01*
X102427606Y-67283339D01*
X102578739Y-67145562D01*
X102701983Y-66982361D01*
X102793141Y-66799292D01*
X102849107Y-66602590D01*
X102867977Y-66398954D01*
X102863143Y-66346789D01*
X102872273Y-66287368D01*
X102908282Y-66239224D01*
X102962704Y-66213676D01*
X103022746Y-66216730D01*
X103074295Y-66247668D01*
X105367570Y-68540943D01*
X105382350Y-68559143D01*
X105383257Y-68560129D01*
X105388877Y-68568730D01*
X105396983Y-68575039D01*
X105396985Y-68575041D01*
X105412599Y-68587194D01*
X105416584Y-68590430D01*
X105419676Y-68593049D01*
X105423303Y-68596676D01*
X105427474Y-68599654D01*
X105427475Y-68599655D01*
X105439128Y-68607976D01*
X105443231Y-68611036D01*
X105453780Y-68619246D01*
X105481978Y-68641193D01*
X105489056Y-68643623D01*
X105495149Y-68647973D01*
X105504997Y-68650904D01*
X105504998Y-68650905D01*
X105542219Y-68661985D01*
X105547096Y-68663547D01*
X105593563Y-68679500D01*
X105601050Y-68679500D01*
X105608222Y-68681635D01*
X105657292Y-68679605D01*
X105662415Y-68679500D01*
X110546213Y-68679500D01*
X110593666Y-68688939D01*
X110633894Y-68715819D01*
X111166466Y-69248391D01*
X111193346Y-69288619D01*
X111202616Y-69335223D01*
X111201724Y-69342000D01*
X111202785Y-69350059D01*
X111219685Y-69478432D01*
X111219686Y-69478438D01*
X111220747Y-69486492D01*
X111223856Y-69493998D01*
X111223857Y-69494001D01*
X111245721Y-69546785D01*
X111276519Y-69621138D01*
X111365239Y-69736761D01*
X111480862Y-69825481D01*
X111615508Y-69881253D01*
X111760000Y-69900276D01*
X111904492Y-69881253D01*
X112039138Y-69825481D01*
X112154761Y-69736761D01*
X112243481Y-69621138D01*
X112299253Y-69486492D01*
X112318276Y-69342000D01*
X112299253Y-69197508D01*
X112243481Y-69062862D01*
X112238533Y-69056413D01*
X112234470Y-69049376D01*
X112235548Y-69048753D01*
X112215133Y-69001232D01*
X112220720Y-68940443D01*
X112254636Y-68889686D01*
X112308662Y-68861263D01*
X112369702Y-68862063D01*
X112369998Y-68862142D01*
X112377508Y-68865253D01*
X112522000Y-68884276D01*
X112666492Y-68865253D01*
X112801138Y-68809481D01*
X112916761Y-68720761D01*
X113005481Y-68605138D01*
X113061253Y-68470492D01*
X113080276Y-68326000D01*
X113061253Y-68181508D01*
X113005481Y-68046862D01*
X112916761Y-67931239D01*
X112904286Y-67921667D01*
X112807585Y-67847466D01*
X112801138Y-67842519D01*
X112793630Y-67839409D01*
X112674001Y-67789857D01*
X112673998Y-67789856D01*
X112666492Y-67786747D01*
X112658438Y-67785686D01*
X112658432Y-67785685D01*
X112530059Y-67768785D01*
X112522000Y-67767724D01*
X112515223Y-67768616D01*
X112468619Y-67759346D01*
X112428391Y-67732466D01*
X112317106Y-67621181D01*
X112286856Y-67571818D01*
X112282314Y-67514102D01*
X112304469Y-67460615D01*
X112348492Y-67423015D01*
X112404787Y-67409500D01*
X112897256Y-67409500D01*
X112944709Y-67418939D01*
X112984937Y-67445819D01*
X113011817Y-67486047D01*
X113047345Y-67571818D01*
X113054519Y-67589138D01*
X113143239Y-67704761D01*
X113258862Y-67793481D01*
X113393508Y-67849253D01*
X113538000Y-67868276D01*
X113682492Y-67849253D01*
X113817138Y-67793481D01*
X113932761Y-67704761D01*
X114021481Y-67589138D01*
X114077253Y-67454492D01*
X114096276Y-67310000D01*
X114077253Y-67165508D01*
X114021481Y-67030862D01*
X113932761Y-66915239D01*
X113817138Y-66826519D01*
X113757944Y-66802000D01*
X113690001Y-66773857D01*
X113689998Y-66773856D01*
X113682492Y-66770747D01*
X113674438Y-66769686D01*
X113674432Y-66769685D01*
X113546059Y-66752785D01*
X113538000Y-66751724D01*
X113524440Y-66753508D01*
X113488273Y-66752947D01*
X113457638Y-66743191D01*
X113454574Y-66740807D01*
X113447495Y-66738376D01*
X113441403Y-66734027D01*
X113431561Y-66731097D01*
X113431559Y-66731096D01*
X113394335Y-66720015D01*
X113389454Y-66718451D01*
X113352707Y-66705835D01*
X113352700Y-66705833D01*
X113342989Y-66702500D01*
X113335502Y-66702500D01*
X113328330Y-66700365D01*
X113318067Y-66700789D01*
X113318064Y-66700789D01*
X113279269Y-66702394D01*
X113274145Y-66702500D01*
X111703787Y-66702500D01*
X111656334Y-66693061D01*
X111616106Y-66666181D01*
X107960699Y-63010774D01*
X107927619Y-62951250D01*
X107930961Y-62883234D01*
X107969716Y-62827239D01*
X108032194Y-62800154D01*
X108094492Y-62791953D01*
X108229138Y-62736181D01*
X108344761Y-62647461D01*
X108433481Y-62531838D01*
X108489253Y-62397192D01*
X108508276Y-62252700D01*
X108507614Y-62247672D01*
X108517660Y-62199764D01*
X108547234Y-62158344D01*
X108554073Y-62152047D01*
X108562679Y-62146426D01*
X108581151Y-62122691D01*
X108584369Y-62118729D01*
X108586990Y-62115634D01*
X108590625Y-62112000D01*
X108601927Y-62096169D01*
X108604965Y-62092096D01*
X108635142Y-62053325D01*
X108637572Y-62046246D01*
X108641922Y-62040154D01*
X108655931Y-61993089D01*
X108657496Y-61988207D01*
X108670112Y-61951460D01*
X108670112Y-61951459D01*
X108673449Y-61941740D01*
X108673449Y-61934253D01*
X108675584Y-61927081D01*
X108673555Y-61878020D01*
X108673449Y-61872896D01*
X108673449Y-60587338D01*
X108675868Y-60564004D01*
X108675922Y-60562677D01*
X108678032Y-60552619D01*
X108675917Y-60535654D01*
X108674312Y-60522775D01*
X108673783Y-60517674D01*
X108673449Y-60513645D01*
X108673449Y-60508515D01*
X108670249Y-60489347D01*
X108669514Y-60484297D01*
X108669453Y-60483804D01*
X108665109Y-60448955D01*
X108671501Y-60391579D01*
X108703181Y-60343314D01*
X108753282Y-60314625D01*
X108810940Y-60311731D01*
X108863746Y-60321602D01*
X109062525Y-60321602D01*
X109068254Y-60321602D01*
X109269281Y-60284024D01*
X109459980Y-60210147D01*
X109633857Y-60102487D01*
X109668663Y-60070757D01*
X109674961Y-60065016D01*
X109724565Y-60037386D01*
X109781284Y-60034763D01*
X109833226Y-60057698D01*
X109869500Y-60101380D01*
X109882500Y-60156652D01*
X109882500Y-63450477D01*
X109880081Y-63473797D01*
X109880025Y-63475139D01*
X109877918Y-63485190D01*
X109879188Y-63495379D01*
X109879188Y-63495384D01*
X109881636Y-63515018D01*
X109882164Y-63520115D01*
X109882500Y-63524172D01*
X109882500Y-63529293D01*
X109883342Y-63534340D01*
X109883343Y-63534351D01*
X109885694Y-63548442D01*
X109886431Y-63553502D01*
X109891238Y-63592063D01*
X109891240Y-63592072D01*
X109892511Y-63602261D01*
X109895797Y-63608984D01*
X109897030Y-63616368D01*
X109920418Y-63659587D01*
X109922750Y-63664117D01*
X109938319Y-63695965D01*
X109944326Y-63708251D01*
X109949621Y-63713546D01*
X109953182Y-63720126D01*
X109988119Y-63752288D01*
X109989304Y-63753379D01*
X109993002Y-63756927D01*
X110150466Y-63914391D01*
X110177346Y-63954619D01*
X110186616Y-64001223D01*
X110185724Y-64008000D01*
X110186785Y-64016059D01*
X110203685Y-64144432D01*
X110203686Y-64144438D01*
X110204747Y-64152492D01*
X110207856Y-64159998D01*
X110207857Y-64160001D01*
X110252143Y-64266917D01*
X110260519Y-64287138D01*
X110265466Y-64293585D01*
X110343228Y-64394928D01*
X110349239Y-64402761D01*
X110464862Y-64491481D01*
X110599508Y-64547253D01*
X110744000Y-64566276D01*
X110888492Y-64547253D01*
X111023138Y-64491481D01*
X111138761Y-64402761D01*
X111227481Y-64287138D01*
X111283253Y-64152492D01*
X111302276Y-64008000D01*
X111283253Y-63863508D01*
X111227481Y-63728862D01*
X111138761Y-63613239D01*
X111023138Y-63524519D01*
X111007062Y-63517860D01*
X110896001Y-63471857D01*
X110895998Y-63471856D01*
X110888492Y-63468747D01*
X110880438Y-63467686D01*
X110880432Y-63467685D01*
X110752059Y-63450785D01*
X110744000Y-63449724D01*
X110737223Y-63450616D01*
X110690619Y-63441346D01*
X110650391Y-63414466D01*
X110625819Y-63389894D01*
X110598939Y-63349666D01*
X110589500Y-63302213D01*
X110589500Y-62165742D01*
X110605790Y-62104305D01*
X110650379Y-62059010D01*
X110711552Y-62041757D01*
X110773237Y-62057080D01*
X110819227Y-62100952D01*
X110887887Y-62212995D01*
X110887890Y-62212999D01*
X110890435Y-62217152D01*
X110893597Y-62220854D01*
X110893599Y-62220857D01*
X111033468Y-62384623D01*
X111046277Y-62399621D01*
X111052225Y-62404701D01*
X111192293Y-62524330D01*
X111228746Y-62555463D01*
X111433346Y-62680843D01*
X111655042Y-62772672D01*
X111888373Y-62828690D01*
X112127595Y-62847517D01*
X112366817Y-62828690D01*
X112600148Y-62772672D01*
X112821844Y-62680843D01*
X113026444Y-62555463D01*
X113208913Y-62399621D01*
X113364755Y-62217152D01*
X113490135Y-62012552D01*
X113581964Y-61790856D01*
X113637982Y-61557525D01*
X113656809Y-61318303D01*
X113637982Y-61079081D01*
X113581964Y-60845750D01*
X113490135Y-60624054D01*
X113384699Y-60452000D01*
X113367302Y-60423610D01*
X113367300Y-60423608D01*
X113364755Y-60419454D01*
X113361457Y-60415593D01*
X113235869Y-60268547D01*
X113208913Y-60236985D01*
X113199673Y-60229093D01*
X113030149Y-60084307D01*
X113030146Y-60084305D01*
X113026444Y-60081143D01*
X113022291Y-60078598D01*
X113022287Y-60078595D01*
X112826002Y-59958311D01*
X112826001Y-59958310D01*
X112821844Y-59955763D01*
X112600148Y-59863934D01*
X112595419Y-59862798D01*
X112595411Y-59862796D01*
X112371550Y-59809052D01*
X112371546Y-59809051D01*
X112366817Y-59807916D01*
X112361966Y-59807534D01*
X112361965Y-59807534D01*
X112132449Y-59789471D01*
X112127595Y-59789089D01*
X112122741Y-59789471D01*
X111893224Y-59807534D01*
X111893221Y-59807534D01*
X111888373Y-59807916D01*
X111883645Y-59809050D01*
X111883639Y-59809052D01*
X111659778Y-59862796D01*
X111659766Y-59862799D01*
X111655042Y-59863934D01*
X111650545Y-59865796D01*
X111650541Y-59865798D01*
X111437850Y-59953897D01*
X111437845Y-59953899D01*
X111433346Y-59955763D01*
X111429193Y-59958307D01*
X111429187Y-59958311D01*
X111232902Y-60078595D01*
X111232891Y-60078602D01*
X111228746Y-60081143D01*
X111225049Y-60084300D01*
X111225040Y-60084307D01*
X111049977Y-60233824D01*
X111049970Y-60233830D01*
X111046277Y-60236985D01*
X111043122Y-60240678D01*
X111043116Y-60240685D01*
X110893599Y-60415748D01*
X110893592Y-60415757D01*
X110890435Y-60419454D01*
X110887894Y-60423599D01*
X110887887Y-60423610D01*
X110819227Y-60535654D01*
X110773237Y-60579526D01*
X110711552Y-60594849D01*
X110650379Y-60577596D01*
X110605790Y-60532301D01*
X110589500Y-60470864D01*
X110589500Y-58911279D01*
X110591918Y-58887958D01*
X110591973Y-58886622D01*
X110594082Y-58876566D01*
X110590363Y-58846730D01*
X110589834Y-58841632D01*
X110589500Y-58837601D01*
X110589500Y-58832463D01*
X110586302Y-58813298D01*
X110585563Y-58808225D01*
X110582093Y-58780386D01*
X110579489Y-58759495D01*
X110576202Y-58752771D01*
X110574970Y-58745388D01*
X110555043Y-58708567D01*
X110540124Y-58646989D01*
X110557575Y-58586078D01*
X110602839Y-58541739D01*
X110664098Y-58525551D01*
X110858576Y-58525551D01*
X110864305Y-58525551D01*
X111065332Y-58487973D01*
X111256031Y-58414096D01*
X111429908Y-58306436D01*
X111581041Y-58168659D01*
X111704285Y-58005458D01*
X111784543Y-57844278D01*
X111830266Y-57794124D01*
X111895543Y-57775551D01*
X115562013Y-57775551D01*
X115617765Y-57788791D01*
X115661611Y-57825684D01*
X115684187Y-57878352D01*
X115680674Y-57935543D01*
X115668847Y-57974532D01*
X115649608Y-58037954D01*
X115649606Y-58037961D01*
X115647840Y-58043785D01*
X115647243Y-58049843D01*
X115647242Y-58049850D01*
X115634851Y-58175657D01*
X115627885Y-58246386D01*
X115628482Y-58252447D01*
X115647242Y-58442921D01*
X115647243Y-58442926D01*
X115647840Y-58448987D01*
X115649608Y-58454816D01*
X115649609Y-58454820D01*
X115699816Y-58620335D01*
X115701439Y-58686459D01*
X115668836Y-58744010D01*
X114847054Y-59565791D01*
X114828852Y-59580573D01*
X114827865Y-59581480D01*
X114819270Y-59587097D01*
X114812962Y-59595200D01*
X114812962Y-59595201D01*
X114800822Y-59610798D01*
X114797597Y-59614769D01*
X114794938Y-59617907D01*
X114791324Y-59621523D01*
X114788354Y-59625682D01*
X114788344Y-59625694D01*
X114780032Y-59637334D01*
X114776980Y-59641426D01*
X114753112Y-59672093D01*
X114753105Y-59672105D01*
X114746807Y-59680198D01*
X114744376Y-59687276D01*
X114740027Y-59693369D01*
X114737099Y-59703203D01*
X114737098Y-59703206D01*
X114726017Y-59740428D01*
X114724454Y-59745307D01*
X114711836Y-59782063D01*
X114711835Y-59782067D01*
X114708500Y-59791783D01*
X114708500Y-59799270D01*
X114706365Y-59806442D01*
X114706789Y-59816703D01*
X114706789Y-59816707D01*
X114708394Y-59855503D01*
X114708500Y-59860627D01*
X114708500Y-67874214D01*
X114699061Y-67921667D01*
X114672181Y-67961894D01*
X114469161Y-68164914D01*
X114283324Y-68350751D01*
X114283321Y-68350754D01*
X110837608Y-71796466D01*
X110797380Y-71823346D01*
X110750776Y-71832616D01*
X110744000Y-71831724D01*
X110735941Y-71832785D01*
X110607567Y-71849685D01*
X110607559Y-71849686D01*
X110599508Y-71850747D01*
X110592003Y-71853855D01*
X110591998Y-71853857D01*
X110472369Y-71903409D01*
X110472365Y-71903410D01*
X110464862Y-71906519D01*
X110458417Y-71911463D01*
X110458414Y-71911466D01*
X110355685Y-71990292D01*
X110355681Y-71990295D01*
X110349239Y-71995239D01*
X110344295Y-72001681D01*
X110344292Y-72001685D01*
X110265466Y-72104414D01*
X110265463Y-72104417D01*
X110260519Y-72110862D01*
X110257410Y-72118365D01*
X110257409Y-72118369D01*
X110207857Y-72237998D01*
X110207855Y-72238003D01*
X110204747Y-72245508D01*
X110203686Y-72253559D01*
X110203685Y-72253567D01*
X110192752Y-72336618D01*
X110185724Y-72390000D01*
X110186785Y-72398059D01*
X110203685Y-72526432D01*
X110203686Y-72526438D01*
X110204747Y-72534492D01*
X110207856Y-72541998D01*
X110207857Y-72542001D01*
X110245081Y-72631867D01*
X110260519Y-72669138D01*
X110349239Y-72784761D01*
X110464862Y-72873481D01*
X110599508Y-72929253D01*
X110744000Y-72948276D01*
X110888492Y-72929253D01*
X111023138Y-72873481D01*
X111138761Y-72784761D01*
X111227481Y-72669138D01*
X111283253Y-72534492D01*
X111302276Y-72390000D01*
X111301383Y-72383222D01*
X111310654Y-72336618D01*
X111337534Y-72296390D01*
X113053177Y-70580747D01*
X114824676Y-68809249D01*
X114824676Y-68809248D01*
X115258819Y-68375103D01*
X115308182Y-68344854D01*
X115365898Y-68340312D01*
X115419385Y-68362467D01*
X115456985Y-68406490D01*
X115470500Y-68462785D01*
X115470500Y-70126116D01*
X115461061Y-70173569D01*
X115434661Y-70213078D01*
X115429239Y-70217239D01*
X115424295Y-70223681D01*
X115424292Y-70223685D01*
X115345466Y-70326414D01*
X115345463Y-70326417D01*
X115340519Y-70332862D01*
X115337410Y-70340365D01*
X115337409Y-70340369D01*
X115287857Y-70459998D01*
X115287855Y-70460003D01*
X115284747Y-70467508D01*
X115283686Y-70475559D01*
X115283685Y-70475567D01*
X115269603Y-70582533D01*
X115265724Y-70612000D01*
X115266785Y-70620059D01*
X115283685Y-70748432D01*
X115283686Y-70748438D01*
X115284747Y-70756492D01*
X115287856Y-70763998D01*
X115287857Y-70764001D01*
X115331566Y-70869523D01*
X115340519Y-70891138D01*
X115429239Y-71006761D01*
X115544862Y-71095481D01*
X115679508Y-71151253D01*
X115824000Y-71170276D01*
X115968492Y-71151253D01*
X116103138Y-71095481D01*
X116218761Y-71006761D01*
X116307481Y-70891138D01*
X116363253Y-70756492D01*
X116382276Y-70612000D01*
X116363253Y-70467508D01*
X116307481Y-70332862D01*
X116218761Y-70217239D01*
X116213338Y-70213078D01*
X116186939Y-70173569D01*
X116177500Y-70126116D01*
X116177500Y-68502508D01*
X117782586Y-68502508D01*
X117782968Y-68507362D01*
X117800297Y-68727557D01*
X117801413Y-68741730D01*
X117802548Y-68746459D01*
X117802549Y-68746463D01*
X117856293Y-68970324D01*
X117856295Y-68970332D01*
X117857431Y-68975061D01*
X117949260Y-69196757D01*
X117951807Y-69200914D01*
X117951808Y-69200915D01*
X118072092Y-69397200D01*
X118072095Y-69397204D01*
X118074640Y-69401357D01*
X118077802Y-69405059D01*
X118077804Y-69405062D01*
X118213280Y-69563685D01*
X118230482Y-69583826D01*
X118412951Y-69739668D01*
X118417105Y-69742213D01*
X118417107Y-69742215D01*
X118484897Y-69783757D01*
X118617551Y-69865048D01*
X118839247Y-69956877D01*
X119072578Y-70012895D01*
X119311800Y-70031722D01*
X119551022Y-70012895D01*
X119784353Y-69956877D01*
X120006049Y-69865048D01*
X120210649Y-69739668D01*
X120393118Y-69583826D01*
X120548960Y-69401357D01*
X120674340Y-69196757D01*
X120766169Y-68975061D01*
X120822187Y-68741730D01*
X120841014Y-68502508D01*
X120822187Y-68263286D01*
X120766169Y-68029955D01*
X120674340Y-67808259D01*
X120574181Y-67644816D01*
X120551507Y-67607815D01*
X120551505Y-67607813D01*
X120548960Y-67603659D01*
X120540254Y-67593466D01*
X120421560Y-67454492D01*
X120393118Y-67421190D01*
X120379431Y-67409500D01*
X120214354Y-67268512D01*
X120214351Y-67268510D01*
X120210649Y-67265348D01*
X120206496Y-67262803D01*
X120206492Y-67262800D01*
X120010207Y-67142516D01*
X120010206Y-67142515D01*
X120006049Y-67139968D01*
X119784353Y-67048139D01*
X119779624Y-67047003D01*
X119779616Y-67047001D01*
X119555755Y-66993257D01*
X119555751Y-66993256D01*
X119551022Y-66992121D01*
X119546171Y-66991739D01*
X119546170Y-66991739D01*
X119316654Y-66973676D01*
X119311800Y-66973294D01*
X119306946Y-66973676D01*
X119077429Y-66991739D01*
X119077426Y-66991739D01*
X119072578Y-66992121D01*
X119067850Y-66993255D01*
X119067844Y-66993257D01*
X118843983Y-67047001D01*
X118843971Y-67047004D01*
X118839247Y-67048139D01*
X118834750Y-67050001D01*
X118834746Y-67050003D01*
X118622055Y-67138102D01*
X118622050Y-67138104D01*
X118617551Y-67139968D01*
X118613398Y-67142512D01*
X118613392Y-67142516D01*
X118417107Y-67262800D01*
X118417096Y-67262807D01*
X118412951Y-67265348D01*
X118409254Y-67268505D01*
X118409245Y-67268512D01*
X118234182Y-67418029D01*
X118234175Y-67418035D01*
X118230482Y-67421190D01*
X118227327Y-67424883D01*
X118227321Y-67424890D01*
X118077804Y-67599953D01*
X118077797Y-67599962D01*
X118074640Y-67603659D01*
X118072099Y-67607804D01*
X118072092Y-67607815D01*
X117951808Y-67804100D01*
X117951804Y-67804106D01*
X117949260Y-67808259D01*
X117947396Y-67812758D01*
X117947394Y-67812763D01*
X117859295Y-68025454D01*
X117857431Y-68029955D01*
X117856296Y-68034679D01*
X117856293Y-68034691D01*
X117802549Y-68258552D01*
X117802547Y-68258558D01*
X117801413Y-68263286D01*
X117801031Y-68268134D01*
X117801031Y-68268137D01*
X117793192Y-68367747D01*
X117782586Y-68502508D01*
X116177500Y-68502508D01*
X116177500Y-66357627D01*
X116186939Y-66310174D01*
X116213819Y-66269946D01*
X116644385Y-65839380D01*
X116952920Y-65530845D01*
X119270843Y-65530845D01*
X119272886Y-65542167D01*
X119273743Y-65544043D01*
X119281832Y-65557138D01*
X119312467Y-65595154D01*
X119316892Y-65600080D01*
X120581919Y-66865107D01*
X120586845Y-66869532D01*
X120624861Y-66900167D01*
X120637956Y-66908256D01*
X120639832Y-66909113D01*
X120651154Y-66911156D01*
X120654000Y-66900010D01*
X121154000Y-66900010D01*
X121156845Y-66911156D01*
X121168167Y-66909113D01*
X121170043Y-66908256D01*
X121183138Y-66900167D01*
X121221154Y-66869532D01*
X121226080Y-66865107D01*
X122491107Y-65600080D01*
X122495532Y-65595154D01*
X122526167Y-65557138D01*
X122534256Y-65544043D01*
X122535113Y-65542167D01*
X122537156Y-65530845D01*
X122526010Y-65528000D01*
X121170326Y-65528000D01*
X121157450Y-65531450D01*
X121154000Y-65544326D01*
X121154000Y-66900010D01*
X120654000Y-66900010D01*
X120654000Y-65544326D01*
X120650549Y-65531450D01*
X120637674Y-65528000D01*
X119281990Y-65528000D01*
X119270843Y-65530845D01*
X116952920Y-65530845D01*
X117458610Y-65025154D01*
X119270843Y-65025154D01*
X119281990Y-65028000D01*
X120637674Y-65028000D01*
X120650549Y-65024549D01*
X120654000Y-65011674D01*
X121154000Y-65011674D01*
X121157450Y-65024549D01*
X121170326Y-65028000D01*
X122526010Y-65028000D01*
X122537156Y-65025154D01*
X122535113Y-65013832D01*
X122534256Y-65011956D01*
X122526167Y-64998861D01*
X122495532Y-64960845D01*
X122491107Y-64955919D01*
X121226080Y-63690892D01*
X121221154Y-63686467D01*
X121183138Y-63655832D01*
X121170043Y-63647743D01*
X121168167Y-63646886D01*
X121156845Y-63644843D01*
X121154000Y-63655990D01*
X121154000Y-65011674D01*
X120654000Y-65011674D01*
X120654000Y-63655990D01*
X120651154Y-63644843D01*
X120639832Y-63646886D01*
X120637956Y-63647743D01*
X120624861Y-63655832D01*
X120586845Y-63686467D01*
X120581919Y-63690892D01*
X119316892Y-64955919D01*
X119312467Y-64960845D01*
X119281832Y-64998861D01*
X119273743Y-65011956D01*
X119272886Y-65013832D01*
X119270843Y-65025154D01*
X117458610Y-65025154D01*
X117936530Y-64547233D01*
X117994079Y-64514632D01*
X118060200Y-64516254D01*
X118231552Y-64568233D01*
X118434153Y-64588188D01*
X118636754Y-64568233D01*
X118831570Y-64509137D01*
X119011113Y-64413169D01*
X119168484Y-64284018D01*
X119297635Y-64126647D01*
X119393603Y-63947104D01*
X119452699Y-63752288D01*
X119472654Y-63549687D01*
X119452699Y-63347086D01*
X119393603Y-63152270D01*
X119297635Y-62972727D01*
X119168484Y-62815356D01*
X119155186Y-62804443D01*
X119015825Y-62690072D01*
X119015824Y-62690071D01*
X119011113Y-62686205D01*
X119005737Y-62683331D01*
X119005735Y-62683330D01*
X118836942Y-62593108D01*
X118836938Y-62593106D01*
X118831570Y-62590237D01*
X118825746Y-62588470D01*
X118825743Y-62588469D01*
X118642584Y-62532909D01*
X118642579Y-62532908D01*
X118636754Y-62531141D01*
X118630693Y-62530544D01*
X118630688Y-62530543D01*
X118440214Y-62511783D01*
X118434153Y-62511186D01*
X118428092Y-62511783D01*
X118237617Y-62530543D01*
X118237610Y-62530544D01*
X118231552Y-62531141D01*
X118225728Y-62532907D01*
X118225721Y-62532909D01*
X118042562Y-62588469D01*
X118042555Y-62588471D01*
X118036736Y-62590237D01*
X118031370Y-62593104D01*
X118031363Y-62593108D01*
X117862570Y-62683330D01*
X117862563Y-62683334D01*
X117857193Y-62686205D01*
X117852485Y-62690068D01*
X117852480Y-62690072D01*
X117704528Y-62811493D01*
X117704523Y-62811497D01*
X117699822Y-62815356D01*
X117695963Y-62820057D01*
X117695959Y-62820062D01*
X117574538Y-62968014D01*
X117574534Y-62968019D01*
X117570671Y-62972727D01*
X117567800Y-62978097D01*
X117567796Y-62978104D01*
X117477574Y-63146897D01*
X117477570Y-63146904D01*
X117474703Y-63152270D01*
X117472937Y-63158089D01*
X117472935Y-63158096D01*
X117417375Y-63341255D01*
X117417373Y-63341262D01*
X117415607Y-63347086D01*
X117415010Y-63353144D01*
X117415009Y-63353151D01*
X117400605Y-63499402D01*
X117395652Y-63549687D01*
X117396249Y-63555748D01*
X117415009Y-63746222D01*
X117415010Y-63746227D01*
X117415607Y-63752288D01*
X117417374Y-63758113D01*
X117417375Y-63758118D01*
X117467583Y-63923634D01*
X117469206Y-63989759D01*
X117436603Y-64047310D01*
X115627181Y-65856733D01*
X115577818Y-65886983D01*
X115520102Y-65891525D01*
X115466615Y-65869370D01*
X115429015Y-65825347D01*
X115415500Y-65769052D01*
X115415500Y-60048559D01*
X115424939Y-60001106D01*
X115451819Y-59960878D01*
X115564456Y-59848241D01*
X116168762Y-59243932D01*
X116226311Y-59211331D01*
X116292434Y-59212953D01*
X116463785Y-59264932D01*
X116666386Y-59284887D01*
X116868987Y-59264932D01*
X117040338Y-59212953D01*
X117106458Y-59211331D01*
X117164010Y-59243934D01*
X118149169Y-60229093D01*
X118163954Y-60247300D01*
X118164860Y-60248284D01*
X118170478Y-60256883D01*
X118178581Y-60263189D01*
X118178585Y-60263194D01*
X118194213Y-60275357D01*
X118198197Y-60278592D01*
X118201274Y-60281198D01*
X118204904Y-60284828D01*
X118209077Y-60287807D01*
X118220706Y-60296110D01*
X118224820Y-60299178D01*
X118253629Y-60321602D01*
X118263579Y-60329346D01*
X118270657Y-60331776D01*
X118276750Y-60336126D01*
X118286598Y-60339057D01*
X118286599Y-60339058D01*
X118323820Y-60350138D01*
X118328697Y-60351700D01*
X118375164Y-60367653D01*
X118382651Y-60367653D01*
X118389823Y-60369788D01*
X118438883Y-60367759D01*
X118444008Y-60367653D01*
X120810235Y-60367653D01*
X120857688Y-60377092D01*
X120897916Y-60403972D01*
X121376147Y-60882202D01*
X121808088Y-61314143D01*
X121870777Y-61356031D01*
X121969687Y-61375705D01*
X122068597Y-61356031D01*
X122131286Y-61314144D01*
X123269677Y-60175752D01*
X123311565Y-60113063D01*
X123331239Y-60014153D01*
X123311565Y-59915243D01*
X123269678Y-59852554D01*
X122131286Y-58714163D01*
X122068597Y-58672275D01*
X122056619Y-58669892D01*
X122056618Y-58669892D01*
X121981667Y-58654984D01*
X121969687Y-58652601D01*
X121870777Y-58672275D01*
X121860623Y-58679059D01*
X121860622Y-58679060D01*
X121813156Y-58710775D01*
X121813151Y-58710778D01*
X121808088Y-58714162D01*
X121803780Y-58718469D01*
X121803775Y-58718474D01*
X120897917Y-59624334D01*
X120857689Y-59651214D01*
X120810236Y-59660653D01*
X118631940Y-59660653D01*
X118584487Y-59651214D01*
X118544259Y-59624334D01*
X117663935Y-58744010D01*
X117631332Y-58686459D01*
X117632955Y-58620334D01*
X117644057Y-58583734D01*
X117684932Y-58448987D01*
X117704887Y-58246386D01*
X117684932Y-58043785D01*
X117625836Y-57848969D01*
X117529868Y-57669426D01*
X117400717Y-57512055D01*
X117395979Y-57508167D01*
X117248058Y-57386771D01*
X117248057Y-57386770D01*
X117243346Y-57382904D01*
X117237970Y-57380030D01*
X117237968Y-57380029D01*
X117069175Y-57289807D01*
X117069171Y-57289805D01*
X117063803Y-57286936D01*
X117057979Y-57285169D01*
X117057976Y-57285168D01*
X116874817Y-57229608D01*
X116874812Y-57229607D01*
X116868987Y-57227840D01*
X116862926Y-57227243D01*
X116862921Y-57227242D01*
X116672447Y-57208482D01*
X116666386Y-57207885D01*
X116660325Y-57208482D01*
X116469850Y-57227242D01*
X116469843Y-57227243D01*
X116463785Y-57227840D01*
X116457959Y-57229607D01*
X116457950Y-57229609D01*
X116292436Y-57279816D01*
X116226312Y-57281439D01*
X116168761Y-57248836D01*
X116127033Y-57207108D01*
X116112255Y-57188911D01*
X116111346Y-57187924D01*
X116105726Y-57179321D01*
X116081995Y-57160850D01*
X116078031Y-57157631D01*
X116074925Y-57155000D01*
X116071300Y-57151375D01*
X116067130Y-57148397D01*
X116067126Y-57148394D01*
X116055492Y-57140087D01*
X116051390Y-57137028D01*
X116020735Y-57113169D01*
X116020730Y-57113166D01*
X116012625Y-57106858D01*
X116005546Y-57104427D01*
X115999454Y-57100078D01*
X115989612Y-57097148D01*
X115989610Y-57097147D01*
X115952386Y-57086066D01*
X115947505Y-57084502D01*
X115910758Y-57071886D01*
X115910751Y-57071884D01*
X115901040Y-57068551D01*
X115893553Y-57068551D01*
X115886381Y-57066416D01*
X115876118Y-57066840D01*
X115876115Y-57066840D01*
X115837320Y-57068445D01*
X115832196Y-57068551D01*
X115066000Y-57068551D01*
X115009705Y-57055036D01*
X114965682Y-57017436D01*
X114943527Y-56963949D01*
X114948069Y-56906233D01*
X114978319Y-56856870D01*
X115146431Y-56688757D01*
X115150074Y-56684782D01*
X115258666Y-56555366D01*
X115264852Y-56546532D01*
X115377547Y-56351337D01*
X115382107Y-56341559D01*
X115453994Y-56144049D01*
X115455236Y-56132710D01*
X115444158Y-56130000D01*
X112608070Y-56130000D01*
X112597326Y-56132381D01*
X112596846Y-56143374D01*
X112630011Y-56331467D01*
X112632806Y-56341897D01*
X112709894Y-56553695D01*
X112714451Y-56563468D01*
X112827148Y-56758666D01*
X112833334Y-56767500D01*
X112915016Y-56864845D01*
X112942966Y-56928366D01*
X112932409Y-56996956D01*
X112886652Y-57049132D01*
X112820027Y-57068551D01*
X111895543Y-57068551D01*
X111830266Y-57049978D01*
X111784543Y-56999823D01*
X111706839Y-56843773D01*
X111706838Y-56843772D01*
X111704285Y-56838644D01*
X111675524Y-56800559D01*
X111584493Y-56680014D01*
X111584492Y-56680013D01*
X111581041Y-56675443D01*
X111447491Y-56553695D01*
X111434137Y-56541521D01*
X111434135Y-56541519D01*
X111429908Y-56537666D01*
X111425044Y-56534654D01*
X111425041Y-56534652D01*
X111260902Y-56433022D01*
X111256031Y-56430006D01*
X111250693Y-56427938D01*
X111250689Y-56427936D01*
X111070679Y-56358200D01*
X111070674Y-56358198D01*
X111065332Y-56356129D01*
X111059697Y-56355075D01*
X111059695Y-56355075D01*
X110869935Y-56319603D01*
X110869930Y-56319602D01*
X110864305Y-56318551D01*
X110659797Y-56318551D01*
X110654172Y-56319602D01*
X110654166Y-56319603D01*
X110464406Y-56355075D01*
X110464401Y-56355076D01*
X110458770Y-56356129D01*
X110453429Y-56358197D01*
X110453422Y-56358200D01*
X110273412Y-56427936D01*
X110273403Y-56427940D01*
X110268071Y-56430006D01*
X110263204Y-56433019D01*
X110263199Y-56433022D01*
X110099060Y-56534652D01*
X110099051Y-56534658D01*
X110094194Y-56537666D01*
X110089971Y-56541515D01*
X110089964Y-56541521D01*
X109947293Y-56671584D01*
X109947287Y-56671589D01*
X109943061Y-56675443D01*
X109939614Y-56680006D01*
X109939608Y-56680014D01*
X109823269Y-56834071D01*
X109823262Y-56834081D01*
X109819817Y-56838644D01*
X109817267Y-56843764D01*
X109817262Y-56843773D01*
X109731213Y-57016582D01*
X109731209Y-57016590D01*
X109728659Y-57021713D01*
X109727090Y-57027225D01*
X109727090Y-57027227D01*
X109678498Y-57198012D01*
X109672693Y-57218415D01*
X109672164Y-57224120D01*
X109672164Y-57224122D01*
X109658676Y-57369681D01*
X109653823Y-57422051D01*
X109654352Y-57427760D01*
X109654352Y-57427761D01*
X109658656Y-57474214D01*
X109649525Y-57533636D01*
X109613517Y-57581780D01*
X109559095Y-57607327D01*
X109499052Y-57604273D01*
X109447504Y-57573335D01*
X109097496Y-57223327D01*
X109068425Y-57177418D01*
X109061775Y-57123486D01*
X109078823Y-57071890D01*
X109116292Y-57032540D01*
X109127599Y-57024986D01*
X110364985Y-55787599D01*
X110406873Y-55724910D01*
X110426547Y-55626000D01*
X110406873Y-55527090D01*
X110364986Y-55464401D01*
X109127599Y-54227015D01*
X109114555Y-54218299D01*
X110814960Y-54218299D01*
X110816222Y-54227076D01*
X110833884Y-54349917D01*
X110835566Y-54361610D01*
X110839250Y-54369677D01*
X110839251Y-54369680D01*
X110886240Y-54472571D01*
X110895712Y-54493311D01*
X110933555Y-54540272D01*
X111850194Y-55456911D01*
X111897155Y-55494754D01*
X112028856Y-55554900D01*
X112172167Y-55575506D01*
X112315478Y-55554900D01*
X112447179Y-55494754D01*
X112451243Y-55491478D01*
X112515918Y-55473285D01*
X112581514Y-55492437D01*
X112627003Y-55543432D01*
X112638570Y-55610781D01*
X112636762Y-55627288D01*
X112647841Y-55630000D01*
X113779674Y-55630000D01*
X113792549Y-55626549D01*
X113796000Y-55613674D01*
X114296000Y-55613674D01*
X114299450Y-55626549D01*
X114312326Y-55630000D01*
X115483930Y-55630000D01*
X115494673Y-55627618D01*
X115495153Y-55616625D01*
X115461988Y-55428532D01*
X115459193Y-55418102D01*
X115382105Y-55206304D01*
X115377548Y-55196531D01*
X115264851Y-55001333D01*
X115258670Y-54992506D01*
X115113780Y-54819832D01*
X115106167Y-54812219D01*
X114933493Y-54667329D01*
X114924666Y-54661148D01*
X114729468Y-54548451D01*
X114719695Y-54543894D01*
X114507898Y-54466806D01*
X114497468Y-54464011D01*
X114309374Y-54430846D01*
X114298381Y-54431326D01*
X114296000Y-54442070D01*
X114296000Y-55613674D01*
X113796000Y-55613674D01*
X113796000Y-54481842D01*
X113793288Y-54470763D01*
X113776780Y-54472571D01*
X113709430Y-54461004D01*
X113658436Y-54415514D01*
X113639283Y-54349917D01*
X113657477Y-54285244D01*
X113660754Y-54281179D01*
X113720900Y-54149478D01*
X113741506Y-54006167D01*
X113720900Y-53862856D01*
X113660754Y-53731155D01*
X113622911Y-53684194D01*
X112706272Y-52767555D01*
X112659311Y-52729712D01*
X112652253Y-52726488D01*
X112652252Y-52726488D01*
X112535680Y-52673251D01*
X112535677Y-52673250D01*
X112527610Y-52669566D01*
X112518831Y-52668303D01*
X112518829Y-52668303D01*
X112393076Y-52650222D01*
X112384299Y-52648960D01*
X112375522Y-52650222D01*
X112249768Y-52668303D01*
X112249764Y-52668304D01*
X112240988Y-52669566D01*
X112232922Y-52673249D01*
X112232917Y-52673251D01*
X112116345Y-52726488D01*
X112116340Y-52726490D01*
X112109287Y-52729712D01*
X112103247Y-52734578D01*
X112103244Y-52734581D01*
X112064916Y-52765467D01*
X112064906Y-52765475D01*
X112062326Y-52767555D01*
X112059982Y-52769898D01*
X112059973Y-52769907D01*
X110935907Y-53893973D01*
X110935898Y-53893982D01*
X110933555Y-53896326D01*
X110931475Y-53898906D01*
X110931467Y-53898916D01*
X110900581Y-53937244D01*
X110900578Y-53937247D01*
X110895712Y-53943287D01*
X110892490Y-53950340D01*
X110892488Y-53950345D01*
X110839251Y-54066917D01*
X110839249Y-54066922D01*
X110835566Y-54074988D01*
X110834304Y-54083764D01*
X110834303Y-54083768D01*
X110817209Y-54202660D01*
X110814960Y-54218299D01*
X109114555Y-54218299D01*
X109064910Y-54185127D01*
X109052932Y-54182744D01*
X109052931Y-54182744D01*
X108977980Y-54167836D01*
X108966000Y-54165453D01*
X108867090Y-54185127D01*
X108856936Y-54191911D01*
X108856935Y-54191912D01*
X108809469Y-54223627D01*
X108809464Y-54223630D01*
X108804401Y-54227014D01*
X108800093Y-54231321D01*
X108800088Y-54231326D01*
X107571322Y-55460093D01*
X107571317Y-55460098D01*
X107567015Y-55464401D01*
X107563632Y-55469463D01*
X107563631Y-55469465D01*
X107559449Y-55475723D01*
X107520094Y-55513185D01*
X107468501Y-55530225D01*
X107414576Y-55523572D01*
X107368672Y-55494503D01*
X106688057Y-54813888D01*
X106655963Y-54758301D01*
X106655963Y-54694113D01*
X106688057Y-54638526D01*
X106957204Y-54369379D01*
X107316985Y-54009599D01*
X107358873Y-53946910D01*
X107378547Y-53848000D01*
X107358873Y-53749090D01*
X107316986Y-53686401D01*
X106079599Y-52449015D01*
X106016910Y-52407127D01*
X106004932Y-52404744D01*
X106004931Y-52404744D01*
X105929980Y-52389836D01*
X105918000Y-52387453D01*
X105819090Y-52407127D01*
X105808936Y-52413911D01*
X105808935Y-52413912D01*
X105761469Y-52445627D01*
X105761464Y-52445630D01*
X105756401Y-52449014D01*
X105752093Y-52453321D01*
X105752088Y-52453326D01*
X104523322Y-53682093D01*
X104523317Y-53682098D01*
X104519015Y-53686401D01*
X104515632Y-53691463D01*
X104515631Y-53691465D01*
X104483911Y-53738936D01*
X104483909Y-53738939D01*
X104477127Y-53749090D01*
X104474744Y-53761065D01*
X104474744Y-53761068D01*
X104461992Y-53825176D01*
X104457453Y-53848000D01*
X104477127Y-53946910D01*
X104519014Y-54009599D01*
X105756401Y-55246985D01*
X105819090Y-55288873D01*
X105918000Y-55308547D01*
X106016910Y-55288873D01*
X106027066Y-55282086D01*
X106038349Y-55277414D01*
X106039242Y-55279571D01*
X106072673Y-55266982D01*
X106128727Y-55272497D01*
X106176557Y-55302237D01*
X107006813Y-56132493D01*
X107039501Y-56190391D01*
X107037582Y-56256852D01*
X107001606Y-56312768D01*
X106941917Y-56342061D01*
X106872314Y-56355072D01*
X106872297Y-56355076D01*
X106866668Y-56356129D01*
X106861327Y-56358197D01*
X106861320Y-56358200D01*
X106681310Y-56427936D01*
X106681301Y-56427940D01*
X106675969Y-56430006D01*
X106671102Y-56433019D01*
X106671097Y-56433022D01*
X106506958Y-56534652D01*
X106506949Y-56534658D01*
X106502092Y-56537666D01*
X106497869Y-56541515D01*
X106497862Y-56541521D01*
X106355191Y-56671584D01*
X106355185Y-56671589D01*
X106350959Y-56675443D01*
X106347512Y-56680006D01*
X106347506Y-56680014D01*
X106231167Y-56834071D01*
X106231160Y-56834081D01*
X106227715Y-56838644D01*
X106225165Y-56843764D01*
X106225160Y-56843773D01*
X106139111Y-57016582D01*
X106139107Y-57016590D01*
X106136557Y-57021713D01*
X106134988Y-57027225D01*
X106134988Y-57027227D01*
X106086396Y-57198012D01*
X106080591Y-57218415D01*
X106080062Y-57224120D01*
X106080062Y-57224122D01*
X106066574Y-57369681D01*
X106061721Y-57422051D01*
X106062250Y-57427760D01*
X106076959Y-57586498D01*
X106080591Y-57625687D01*
X106136557Y-57822389D01*
X106139109Y-57827514D01*
X106139111Y-57827519D01*
X106225160Y-58000328D01*
X106225162Y-58000332D01*
X106227715Y-58005458D01*
X106231164Y-58010025D01*
X106231167Y-58010030D01*
X106345930Y-58162000D01*
X106350959Y-58168659D01*
X106355191Y-58172517D01*
X106475030Y-58281766D01*
X106502092Y-58306436D01*
X106675969Y-58414096D01*
X106681310Y-58416165D01*
X106681316Y-58416168D01*
X106737244Y-58437835D01*
X106778770Y-58464440D01*
X106806641Y-58505128D01*
X106816449Y-58553461D01*
X106816449Y-59338285D01*
X106814030Y-59361605D01*
X106813974Y-59362947D01*
X106811867Y-59372998D01*
X106813137Y-59383187D01*
X106813137Y-59383192D01*
X106815585Y-59402826D01*
X106816113Y-59407923D01*
X106816449Y-59411980D01*
X106816449Y-59417101D01*
X106817291Y-59422148D01*
X106817292Y-59422159D01*
X106819643Y-59436250D01*
X106820380Y-59441310D01*
X106825187Y-59479871D01*
X106825189Y-59479880D01*
X106826460Y-59490069D01*
X106829746Y-59496792D01*
X106830979Y-59504176D01*
X106854367Y-59547395D01*
X106856696Y-59551919D01*
X106878275Y-59596059D01*
X106883570Y-59601354D01*
X106887131Y-59607934D01*
X106906716Y-59625963D01*
X106923252Y-59641186D01*
X106926950Y-59644734D01*
X107006811Y-59724595D01*
X107039500Y-59782494D01*
X107037581Y-59848955D01*
X107001605Y-59904871D01*
X106941916Y-59934164D01*
X106872314Y-59947175D01*
X106872297Y-59947179D01*
X106866668Y-59948232D01*
X106861327Y-59950300D01*
X106861320Y-59950303D01*
X106681310Y-60020039D01*
X106681301Y-60020043D01*
X106675969Y-60022109D01*
X106671102Y-60025122D01*
X106671097Y-60025125D01*
X106506958Y-60126755D01*
X106506949Y-60126761D01*
X106502092Y-60129769D01*
X106497866Y-60133621D01*
X106497856Y-60133629D01*
X106397697Y-60224937D01*
X106358953Y-60248927D01*
X106314159Y-60257300D01*
X106192014Y-60257300D01*
X106134701Y-60243260D01*
X106090366Y-60204319D01*
X106069050Y-60149296D01*
X106075579Y-60090651D01*
X106108476Y-60041663D01*
X106181323Y-59975253D01*
X106192888Y-59964710D01*
X106316132Y-59801509D01*
X106407290Y-59618440D01*
X106463256Y-59421738D01*
X106482126Y-59218102D01*
X106463256Y-59014466D01*
X106407290Y-58817764D01*
X106316132Y-58634695D01*
X106294944Y-58606638D01*
X106196340Y-58476065D01*
X106196339Y-58476064D01*
X106192888Y-58471494D01*
X106132199Y-58416168D01*
X106045984Y-58337572D01*
X106045982Y-58337570D01*
X106041755Y-58333717D01*
X106036891Y-58330705D01*
X106036888Y-58330703D01*
X105872749Y-58229073D01*
X105867878Y-58226057D01*
X105862540Y-58223989D01*
X105862536Y-58223987D01*
X105682526Y-58154251D01*
X105682521Y-58154249D01*
X105677179Y-58152180D01*
X105671544Y-58151126D01*
X105671542Y-58151126D01*
X105481782Y-58115654D01*
X105481777Y-58115653D01*
X105476152Y-58114602D01*
X105271644Y-58114602D01*
X105266019Y-58115653D01*
X105266013Y-58115654D01*
X105076253Y-58151126D01*
X105076248Y-58151127D01*
X105070617Y-58152180D01*
X105065276Y-58154248D01*
X105065269Y-58154251D01*
X104885259Y-58223987D01*
X104885250Y-58223991D01*
X104879918Y-58226057D01*
X104875051Y-58229070D01*
X104875046Y-58229073D01*
X104710907Y-58330703D01*
X104710898Y-58330709D01*
X104706041Y-58333717D01*
X104701818Y-58337566D01*
X104701811Y-58337572D01*
X104559140Y-58467635D01*
X104559134Y-58467640D01*
X104554908Y-58471494D01*
X104551461Y-58476057D01*
X104551455Y-58476065D01*
X104435116Y-58630122D01*
X104435109Y-58630132D01*
X104431664Y-58634695D01*
X104429114Y-58639815D01*
X104429109Y-58639824D01*
X104343060Y-58812633D01*
X104343056Y-58812641D01*
X104340506Y-58817764D01*
X104338937Y-58823276D01*
X104338937Y-58823278D01*
X104290897Y-58992122D01*
X104284540Y-59014466D01*
X104284011Y-59020167D01*
X104284011Y-59020171D01*
X104280911Y-59053624D01*
X104257828Y-59114969D01*
X104206697Y-59155977D01*
X104141804Y-59165190D01*
X104081279Y-59140035D01*
X104056574Y-59120807D01*
X104049495Y-59118376D01*
X104043403Y-59114027D01*
X104033561Y-59111097D01*
X104033559Y-59111096D01*
X103996335Y-59100015D01*
X103991454Y-59098451D01*
X103954707Y-59085835D01*
X103954700Y-59085833D01*
X103944989Y-59082500D01*
X103937502Y-59082500D01*
X103930330Y-59080365D01*
X103920067Y-59080789D01*
X103920064Y-59080789D01*
X103881269Y-59082394D01*
X103876145Y-59082500D01*
X103427523Y-59082500D01*
X103404202Y-59080081D01*
X103402861Y-59080025D01*
X103392810Y-59077918D01*
X103382619Y-59079188D01*
X103382614Y-59079188D01*
X103362980Y-59081636D01*
X103357885Y-59082164D01*
X103353830Y-59082500D01*
X103348707Y-59082500D01*
X103340921Y-59083799D01*
X103329561Y-59085694D01*
X103324504Y-59086430D01*
X103285934Y-59091239D01*
X103285927Y-59091240D01*
X103275739Y-59092511D01*
X103269015Y-59095797D01*
X103261632Y-59097030D01*
X103252603Y-59101915D01*
X103252600Y-59101917D01*
X103218454Y-59120396D01*
X103213902Y-59122739D01*
X103169750Y-59144325D01*
X103169099Y-59142994D01*
X103124336Y-59160454D01*
X103063927Y-59152918D01*
X103014384Y-59117540D01*
X102987650Y-59062846D01*
X102990168Y-59002021D01*
X103021331Y-58949724D01*
X103473440Y-58497614D01*
X103477671Y-58492930D01*
X103536614Y-58420574D01*
X103543928Y-58409274D01*
X103616333Y-58265104D01*
X103621240Y-58251621D01*
X103639244Y-58175657D01*
X103639325Y-58164495D01*
X103628446Y-58162000D01*
X101160531Y-58162000D01*
X101149372Y-58164902D01*
X101155108Y-58191695D01*
X101152101Y-58192338D01*
X101159037Y-58223522D01*
X101142663Y-58281766D01*
X101100678Y-58325329D01*
X101043079Y-58343841D01*
X100983575Y-58332895D01*
X100975419Y-58329170D01*
X100975414Y-58329168D01*
X100967355Y-58325488D01*
X100958579Y-58324226D01*
X100832821Y-58306144D01*
X100824044Y-58304882D01*
X100815267Y-58306144D01*
X100689507Y-58324226D01*
X100689505Y-58324226D01*
X100680732Y-58325488D01*
X100672673Y-58329167D01*
X100672667Y-58329170D01*
X100556089Y-58382409D01*
X100556084Y-58382411D01*
X100549031Y-58385633D01*
X100542988Y-58390502D01*
X100542986Y-58390504D01*
X100504664Y-58421386D01*
X100504659Y-58421390D01*
X100502071Y-58423476D01*
X100499726Y-58425820D01*
X100499717Y-58425829D01*
X99976693Y-58948853D01*
X99976684Y-58948862D01*
X99974340Y-58951207D01*
X99972254Y-58953795D01*
X99972250Y-58953800D01*
X99949122Y-58982500D01*
X99936497Y-58998167D01*
X99933275Y-59005220D01*
X99933273Y-59005225D01*
X99880034Y-59121803D01*
X99880031Y-59121809D01*
X99876352Y-59129868D01*
X99875090Y-59138641D01*
X99875090Y-59138643D01*
X99864263Y-59213946D01*
X99855746Y-59273180D01*
X99857008Y-59281957D01*
X99874181Y-59401396D01*
X99876352Y-59416491D01*
X99880032Y-59424550D01*
X99880034Y-59424555D01*
X99933273Y-59541133D01*
X99936497Y-59548192D01*
X99974340Y-59595152D01*
X100678848Y-60299660D01*
X100725808Y-60337503D01*
X100784517Y-60364314D01*
X100844219Y-60391579D01*
X100857509Y-60397648D01*
X101000820Y-60418254D01*
X101144132Y-60397648D01*
X101147489Y-60396114D01*
X101197004Y-60392647D01*
X101246651Y-60411417D01*
X101283901Y-60449226D01*
X101301930Y-60499145D01*
X101314747Y-60596492D01*
X101317856Y-60603998D01*
X101317857Y-60604001D01*
X101347161Y-60674747D01*
X101370519Y-60731138D01*
X101414256Y-60788137D01*
X101450036Y-60834768D01*
X101459239Y-60846761D01*
X101574862Y-60935481D01*
X101709508Y-60991253D01*
X101854000Y-61010276D01*
X101973850Y-60994497D01*
X102034977Y-61001867D01*
X102085025Y-61037731D01*
X102111651Y-61093241D01*
X102114927Y-61109710D01*
X102156814Y-61172399D01*
X102775271Y-61790856D01*
X103226086Y-62241670D01*
X103256336Y-62291033D01*
X103260878Y-62348749D01*
X103238723Y-62402236D01*
X103194700Y-62439836D01*
X103138405Y-62453351D01*
X102893241Y-62453351D01*
X102827964Y-62434778D01*
X102782241Y-62384623D01*
X102704537Y-62228573D01*
X102704536Y-62228572D01*
X102701983Y-62223444D01*
X102697231Y-62217152D01*
X102582191Y-62064814D01*
X102582190Y-62064813D01*
X102578739Y-62060243D01*
X102571150Y-62053325D01*
X102431835Y-61926321D01*
X102431833Y-61926319D01*
X102427606Y-61922466D01*
X102422742Y-61919454D01*
X102422739Y-61919452D01*
X102258600Y-61817822D01*
X102253729Y-61814806D01*
X102248391Y-61812738D01*
X102248387Y-61812736D01*
X102068377Y-61743000D01*
X102068372Y-61742998D01*
X102063030Y-61740929D01*
X102057395Y-61739875D01*
X102057393Y-61739875D01*
X101867633Y-61704403D01*
X101867628Y-61704402D01*
X101862003Y-61703351D01*
X101657495Y-61703351D01*
X101651870Y-61704402D01*
X101651864Y-61704403D01*
X101462104Y-61739875D01*
X101462099Y-61739876D01*
X101456468Y-61740929D01*
X101451127Y-61742997D01*
X101451120Y-61743000D01*
X101271110Y-61812736D01*
X101271101Y-61812740D01*
X101265769Y-61814806D01*
X101260902Y-61817819D01*
X101260897Y-61817822D01*
X101096758Y-61919452D01*
X101096749Y-61919458D01*
X101091892Y-61922466D01*
X101087669Y-61926315D01*
X101087662Y-61926321D01*
X100944991Y-62056384D01*
X100944985Y-62056389D01*
X100940759Y-62060243D01*
X100937312Y-62064806D01*
X100937306Y-62064814D01*
X100820967Y-62218871D01*
X100820960Y-62218881D01*
X100817515Y-62223444D01*
X100814965Y-62228564D01*
X100814960Y-62228573D01*
X100728911Y-62401382D01*
X100728907Y-62401390D01*
X100726357Y-62406513D01*
X100724788Y-62412025D01*
X100724788Y-62412027D01*
X100673267Y-62593108D01*
X100670391Y-62603215D01*
X100669862Y-62608920D01*
X100669862Y-62608922D01*
X100652803Y-62793014D01*
X100651521Y-62806851D01*
X100670391Y-63010487D01*
X100726357Y-63207189D01*
X100728909Y-63212314D01*
X100728911Y-63212319D01*
X100814960Y-63385128D01*
X100814962Y-63385132D01*
X100817515Y-63390258D01*
X100820964Y-63394825D01*
X100820967Y-63394830D01*
X100933333Y-63543626D01*
X100940759Y-63553459D01*
X100944991Y-63557317D01*
X101086660Y-63686467D01*
X101091892Y-63691236D01*
X101096757Y-63694248D01*
X101096758Y-63694249D01*
X101104460Y-63699018D01*
X101265769Y-63798896D01*
X101456468Y-63872773D01*
X101657495Y-63910351D01*
X101856274Y-63910351D01*
X101862003Y-63910351D01*
X102063030Y-63872773D01*
X102253729Y-63798896D01*
X102427606Y-63691236D01*
X102578739Y-63553459D01*
X102701983Y-63390258D01*
X102782241Y-63229078D01*
X102827964Y-63178924D01*
X102893241Y-63160351D01*
X103188308Y-63160351D01*
X103235761Y-63169790D01*
X103275989Y-63196670D01*
X103392662Y-63313343D01*
X103425351Y-63371242D01*
X103423432Y-63437703D01*
X103387456Y-63493619D01*
X103327767Y-63522912D01*
X103258165Y-63535923D01*
X103258148Y-63535927D01*
X103252519Y-63536980D01*
X103247178Y-63539048D01*
X103247171Y-63539051D01*
X103067161Y-63608787D01*
X103067152Y-63608791D01*
X103061820Y-63610857D01*
X103056953Y-63613870D01*
X103056948Y-63613873D01*
X102892809Y-63715503D01*
X102892800Y-63715509D01*
X102887943Y-63718517D01*
X102883720Y-63722366D01*
X102883713Y-63722372D01*
X102741042Y-63852435D01*
X102741036Y-63852440D01*
X102736810Y-63856294D01*
X102733363Y-63860857D01*
X102733357Y-63860865D01*
X102617018Y-64014922D01*
X102617011Y-64014932D01*
X102613566Y-64019495D01*
X102611016Y-64024615D01*
X102611011Y-64024624D01*
X102524962Y-64197433D01*
X102524958Y-64197441D01*
X102522408Y-64202564D01*
X102520842Y-64208065D01*
X102520839Y-64208075D01*
X102470870Y-64383700D01*
X102438266Y-64438453D01*
X102382774Y-64469783D01*
X102319049Y-64469415D01*
X102263923Y-64437446D01*
X102214436Y-64387959D01*
X102199658Y-64369762D01*
X102198749Y-64368775D01*
X102193129Y-64360172D01*
X102169398Y-64341701D01*
X102165434Y-64338482D01*
X102162328Y-64335851D01*
X102158703Y-64332226D01*
X102154533Y-64329248D01*
X102154529Y-64329245D01*
X102142895Y-64320938D01*
X102138793Y-64317879D01*
X102108138Y-64294020D01*
X102108133Y-64294017D01*
X102100028Y-64287709D01*
X102092949Y-64285278D01*
X102086857Y-64280929D01*
X102077015Y-64277999D01*
X102077013Y-64277998D01*
X102039789Y-64266917D01*
X102034908Y-64265353D01*
X101998161Y-64252737D01*
X101998154Y-64252735D01*
X101988443Y-64249402D01*
X101980956Y-64249402D01*
X101973784Y-64247267D01*
X101963521Y-64247691D01*
X101963518Y-64247691D01*
X101924723Y-64249296D01*
X101919599Y-64249402D01*
X101097190Y-64249402D01*
X101031913Y-64230829D01*
X100986190Y-64180674D01*
X100908486Y-64024624D01*
X100908485Y-64024623D01*
X100905932Y-64019495D01*
X100897251Y-64008000D01*
X100786140Y-63860865D01*
X100786139Y-63860864D01*
X100782688Y-63856294D01*
X100775506Y-63849747D01*
X100635784Y-63722372D01*
X100635782Y-63722370D01*
X100631555Y-63718517D01*
X100626691Y-63715505D01*
X100626688Y-63715503D01*
X100462549Y-63613873D01*
X100457678Y-63610857D01*
X100452340Y-63608789D01*
X100452336Y-63608787D01*
X100272326Y-63539051D01*
X100272321Y-63539049D01*
X100266979Y-63536980D01*
X100261344Y-63535926D01*
X100261342Y-63535926D01*
X100071582Y-63500454D01*
X100071577Y-63500453D01*
X100065952Y-63499402D01*
X99861444Y-63499402D01*
X99855819Y-63500453D01*
X99855813Y-63500454D01*
X99666053Y-63535926D01*
X99666048Y-63535927D01*
X99660417Y-63536980D01*
X99655076Y-63539048D01*
X99655069Y-63539051D01*
X99475059Y-63608787D01*
X99475050Y-63608791D01*
X99469718Y-63610857D01*
X99464851Y-63613870D01*
X99464846Y-63613873D01*
X99300707Y-63715503D01*
X99300698Y-63715509D01*
X99295841Y-63718517D01*
X99291618Y-63722366D01*
X99291611Y-63722372D01*
X99148940Y-63852435D01*
X99148934Y-63852440D01*
X99144708Y-63856294D01*
X99141261Y-63860857D01*
X99141255Y-63860865D01*
X99024916Y-64014922D01*
X99024909Y-64014932D01*
X99021464Y-64019495D01*
X99018914Y-64024615D01*
X99018909Y-64024624D01*
X98932860Y-64197433D01*
X98932856Y-64197441D01*
X98930306Y-64202564D01*
X98928738Y-64208075D01*
X98928737Y-64208078D01*
X98875909Y-64393751D01*
X98874340Y-64399266D01*
X98873811Y-64404971D01*
X98873811Y-64404973D01*
X98858683Y-64568233D01*
X98855470Y-64602902D01*
X98855999Y-64608611D01*
X98867839Y-64736388D01*
X98874340Y-64806538D01*
X98930306Y-65003240D01*
X98932858Y-65008365D01*
X98932860Y-65008370D01*
X98995276Y-65133717D01*
X99007636Y-65201571D01*
X98981832Y-65265531D01*
X98925848Y-65305813D01*
X98857003Y-65309952D01*
X98796595Y-65276670D01*
X98002534Y-64482609D01*
X97975654Y-64442381D01*
X97966383Y-64395776D01*
X97967276Y-64389000D01*
X97948253Y-64244508D01*
X97892481Y-64109862D01*
X97803761Y-63994239D01*
X97720041Y-63929998D01*
X97683735Y-63885274D01*
X97671556Y-63828969D01*
X97686135Y-63773236D01*
X97724324Y-63730106D01*
X97777879Y-63708886D01*
X97842132Y-63699648D01*
X97973833Y-63639503D01*
X98020793Y-63601660D01*
X98490536Y-63131916D01*
X98546121Y-63099824D01*
X98610309Y-63099824D01*
X98663555Y-63130566D01*
X98665239Y-63132761D01*
X98780862Y-63221481D01*
X98915508Y-63277253D01*
X99060000Y-63296276D01*
X99204492Y-63277253D01*
X99339138Y-63221481D01*
X99454761Y-63132761D01*
X99543481Y-63017138D01*
X99599253Y-62882492D01*
X99618276Y-62738000D01*
X99599253Y-62593508D01*
X99563381Y-62506906D01*
X99554014Y-62455247D01*
X99566865Y-62404341D01*
X99599629Y-62363315D01*
X99640933Y-62329668D01*
X99645611Y-62325444D01*
X100171440Y-61799614D01*
X100175671Y-61794930D01*
X100234614Y-61722574D01*
X100241928Y-61711274D01*
X100314333Y-61567104D01*
X100319240Y-61553621D01*
X100337244Y-61477657D01*
X100337325Y-61466495D01*
X100326446Y-61464000D01*
X97858531Y-61464000D01*
X97847372Y-61466902D01*
X97853108Y-61493695D01*
X97850101Y-61494338D01*
X97857037Y-61525522D01*
X97840663Y-61583766D01*
X97798678Y-61627329D01*
X97741079Y-61645841D01*
X97681575Y-61634895D01*
X97673419Y-61631170D01*
X97673414Y-61631168D01*
X97665355Y-61627488D01*
X97656579Y-61626226D01*
X97530821Y-61608144D01*
X97522044Y-61606882D01*
X97513267Y-61608144D01*
X97513264Y-61608144D01*
X97438820Y-61618847D01*
X97377840Y-61612291D01*
X97327461Y-61577311D01*
X97300008Y-61522467D01*
X97302197Y-61461174D01*
X97333489Y-61408433D01*
X97741606Y-61000316D01*
X97781831Y-60973439D01*
X97829284Y-60964000D01*
X98793674Y-60964000D01*
X98806549Y-60960549D01*
X98810000Y-60947674D01*
X99310000Y-60947674D01*
X99313450Y-60960549D01*
X99326326Y-60964000D01*
X100261469Y-60964000D01*
X100272627Y-60961097D01*
X100270213Y-60949822D01*
X100241926Y-60893497D01*
X100234614Y-60882202D01*
X100175673Y-60809848D01*
X100171444Y-60805165D01*
X99468837Y-60102559D01*
X99464153Y-60098328D01*
X99391798Y-60039386D01*
X99380499Y-60032071D01*
X99324177Y-60003786D01*
X99312902Y-60001372D01*
X99310000Y-60012531D01*
X99310000Y-60947674D01*
X98810000Y-60947674D01*
X98810000Y-59947554D01*
X98807504Y-59936674D01*
X98796342Y-59936755D01*
X98720378Y-59954759D01*
X98706895Y-59959666D01*
X98562728Y-60032069D01*
X98551426Y-60039386D01*
X98510069Y-60073076D01*
X98458592Y-60097998D01*
X98401405Y-60097166D01*
X98350674Y-60070757D01*
X98317192Y-60024390D01*
X98312280Y-60012531D01*
X98273481Y-59918862D01*
X98184761Y-59803239D01*
X98069138Y-59714519D01*
X98041826Y-59703206D01*
X97942001Y-59661857D01*
X97941998Y-59661856D01*
X97934492Y-59658747D01*
X97926438Y-59657686D01*
X97926432Y-59657685D01*
X97798059Y-59640785D01*
X97790000Y-59639724D01*
X97781941Y-59640785D01*
X97653567Y-59657685D01*
X97653559Y-59657686D01*
X97645508Y-59658747D01*
X97638003Y-59661855D01*
X97637998Y-59661857D01*
X97518369Y-59711409D01*
X97518365Y-59711410D01*
X97510862Y-59714519D01*
X97504417Y-59719463D01*
X97504414Y-59719466D01*
X97401685Y-59798292D01*
X97401681Y-59798295D01*
X97395239Y-59803239D01*
X97390295Y-59809681D01*
X97390292Y-59809685D01*
X97311466Y-59912414D01*
X97311463Y-59912417D01*
X97306519Y-59918862D01*
X97303410Y-59926365D01*
X97303409Y-59926369D01*
X97253857Y-60045998D01*
X97253855Y-60046003D01*
X97250747Y-60053508D01*
X97249686Y-60061559D01*
X97249685Y-60061567D01*
X97235320Y-60170687D01*
X97231724Y-60198000D01*
X97232785Y-60206059D01*
X97249448Y-60332631D01*
X97250747Y-60342492D01*
X97253857Y-60350000D01*
X97253858Y-60350004D01*
X97262634Y-60371192D01*
X97272071Y-60418643D01*
X97262631Y-60466094D01*
X97235752Y-60506321D01*
X92549608Y-65192466D01*
X92509380Y-65219346D01*
X92462776Y-65228616D01*
X92456000Y-65227724D01*
X92447941Y-65228785D01*
X92319567Y-65245685D01*
X92319559Y-65245686D01*
X92311508Y-65246747D01*
X92304003Y-65249855D01*
X92303998Y-65249857D01*
X92184369Y-65299409D01*
X92184365Y-65299410D01*
X92176862Y-65302519D01*
X92170417Y-65307463D01*
X92170414Y-65307466D01*
X92067685Y-65386292D01*
X92067681Y-65386295D01*
X92061239Y-65391239D01*
X92056295Y-65397681D01*
X92056292Y-65397685D01*
X91977466Y-65500414D01*
X91977463Y-65500417D01*
X91972519Y-65506862D01*
X91969410Y-65514365D01*
X91969409Y-65514369D01*
X91919857Y-65633998D01*
X91919855Y-65634003D01*
X91916747Y-65641508D01*
X91915686Y-65649559D01*
X91915685Y-65649567D01*
X91900081Y-65768099D01*
X91897724Y-65786000D01*
X91898616Y-65792776D01*
X91889346Y-65839380D01*
X91862466Y-65879608D01*
X91184715Y-66557358D01*
X91125191Y-66590438D01*
X91057175Y-66587096D01*
X91001181Y-66548342D01*
X90974095Y-66485862D01*
X90964314Y-66411567D01*
X90963253Y-66403508D01*
X90907481Y-66268862D01*
X90818761Y-66153239D01*
X90703138Y-66064519D01*
X90695630Y-66061409D01*
X90576001Y-66011857D01*
X90575998Y-66011856D01*
X90568492Y-66008747D01*
X90533423Y-66004130D01*
X90486134Y-65997904D01*
X90423655Y-65970818D01*
X90384901Y-65914823D01*
X90381559Y-65846807D01*
X90414637Y-65787286D01*
X94433679Y-61768243D01*
X94473904Y-61741366D01*
X94521357Y-61731927D01*
X94568809Y-61741366D01*
X94589995Y-61750141D01*
X94597508Y-61753253D01*
X94742000Y-61772276D01*
X94886492Y-61753253D01*
X95021138Y-61697481D01*
X95136761Y-61608761D01*
X95225481Y-61493138D01*
X95281253Y-61358492D01*
X95300276Y-61214000D01*
X95281253Y-61069508D01*
X95236150Y-60960621D01*
X95228455Y-60892454D01*
X95258179Y-60830626D01*
X95316225Y-60794062D01*
X95384825Y-60793955D01*
X95407552Y-60800458D01*
X95611054Y-60815955D01*
X95813511Y-60790171D01*
X96006633Y-60724159D01*
X96182514Y-60620624D01*
X96333953Y-60483804D01*
X96454750Y-60319300D01*
X96539960Y-60133848D01*
X96586095Y-59935039D01*
X96591265Y-59731012D01*
X96555259Y-59530121D01*
X96479551Y-59340591D01*
X96367241Y-59170180D01*
X95551994Y-58354932D01*
X95537994Y-58343517D01*
X95438338Y-58262259D01*
X95438339Y-58262259D01*
X95433462Y-58258283D01*
X95427890Y-58255372D01*
X95427885Y-58255369D01*
X95301454Y-58189327D01*
X95252564Y-58163789D01*
X95246519Y-58162059D01*
X95246516Y-58162058D01*
X95062387Y-58109372D01*
X95062381Y-58109371D01*
X95056346Y-58107644D01*
X95050086Y-58107167D01*
X95050079Y-58107166D01*
X94859113Y-58092624D01*
X94859109Y-58092624D01*
X94852844Y-58092147D01*
X94740984Y-58106392D01*
X94680492Y-58098999D01*
X94630827Y-58063678D01*
X94603987Y-58008963D01*
X94606457Y-57948069D01*
X94637637Y-57895708D01*
X94677719Y-57855625D01*
X94680975Y-57852488D01*
X94723204Y-57813307D01*
X94726691Y-57807265D01*
X94731834Y-57801510D01*
X95464413Y-57068932D01*
X95516772Y-57037751D01*
X95577665Y-57035281D01*
X95632381Y-57062119D01*
X95667703Y-57111783D01*
X95675047Y-57171866D01*
X95673854Y-57177012D01*
X95673694Y-57183289D01*
X95673694Y-57183297D01*
X95668859Y-57374129D01*
X95668684Y-57381039D01*
X95669792Y-57387224D01*
X95669793Y-57387229D01*
X95703580Y-57575739D01*
X95704690Y-57581930D01*
X95707021Y-57587765D01*
X95707022Y-57587769D01*
X95778065Y-57765621D01*
X95778067Y-57765625D01*
X95780398Y-57771460D01*
X95783855Y-57776706D01*
X95783857Y-57776709D01*
X95880936Y-57924009D01*
X95892708Y-57941871D01*
X96707955Y-58757119D01*
X96826487Y-58853768D01*
X96832060Y-58856679D01*
X96832063Y-58856681D01*
X96850610Y-58866369D01*
X97007385Y-58948262D01*
X97203603Y-59004407D01*
X97407105Y-59019904D01*
X97609562Y-58994120D01*
X97802684Y-58928108D01*
X97978565Y-58824573D01*
X98130004Y-58687753D01*
X98250801Y-58523249D01*
X98336011Y-58337797D01*
X98382146Y-58138988D01*
X98387316Y-57934961D01*
X98351310Y-57734070D01*
X98321525Y-57659504D01*
X101084674Y-57659504D01*
X101095554Y-57662000D01*
X102095674Y-57662000D01*
X102108549Y-57658549D01*
X102112000Y-57645674D01*
X102612000Y-57645674D01*
X102615450Y-57658549D01*
X102628326Y-57662000D01*
X103563469Y-57662000D01*
X103574627Y-57659097D01*
X103572213Y-57647822D01*
X103543926Y-57591497D01*
X103536614Y-57580202D01*
X103477673Y-57507848D01*
X103473444Y-57503165D01*
X102770837Y-56800559D01*
X102766153Y-56796328D01*
X102693798Y-56737386D01*
X102682499Y-56730071D01*
X102626177Y-56701786D01*
X102614902Y-56699372D01*
X102612000Y-56710531D01*
X102612000Y-57645674D01*
X102112000Y-57645674D01*
X102112000Y-56645554D01*
X102109504Y-56634674D01*
X102098342Y-56634755D01*
X102022378Y-56652759D01*
X102008895Y-56657666D01*
X101864728Y-56730069D01*
X101853420Y-56737389D01*
X101781071Y-56796326D01*
X101776388Y-56800555D01*
X101250559Y-57326385D01*
X101246328Y-57331069D01*
X101187385Y-57403425D01*
X101180071Y-57414725D01*
X101107669Y-57558891D01*
X101102759Y-57572378D01*
X101084755Y-57648342D01*
X101084674Y-57659504D01*
X98321525Y-57659504D01*
X98275602Y-57544540D01*
X98163292Y-57374129D01*
X97348045Y-56558881D01*
X97343734Y-56555366D01*
X97234389Y-56466208D01*
X97234390Y-56466208D01*
X97229513Y-56462232D01*
X97223941Y-56459321D01*
X97223936Y-56459318D01*
X97092495Y-56390659D01*
X97048615Y-56367738D01*
X97042570Y-56366008D01*
X97042567Y-56366007D01*
X96858438Y-56313321D01*
X96858432Y-56313320D01*
X96852397Y-56311593D01*
X96846137Y-56311116D01*
X96846130Y-56311115D01*
X96655164Y-56296573D01*
X96655160Y-56296573D01*
X96648895Y-56296096D01*
X96537035Y-56310341D01*
X96476542Y-56302948D01*
X96426876Y-56267627D01*
X96400037Y-56212911D01*
X96402507Y-56152016D01*
X96433687Y-56099657D01*
X96969888Y-55563457D01*
X97021569Y-55532481D01*
X97081755Y-55529523D01*
X97136229Y-55555287D01*
X97169666Y-55600371D01*
X97171046Y-55607306D01*
X97212933Y-55669994D01*
X99016006Y-57473066D01*
X99021073Y-57476451D01*
X99021077Y-57476455D01*
X99046745Y-57493606D01*
X99078694Y-57514954D01*
X99177604Y-57534628D01*
X99276514Y-57514954D01*
X99339203Y-57473067D01*
X100435168Y-56377101D01*
X100477056Y-56314412D01*
X100491253Y-56243033D01*
X100514495Y-56191738D01*
X100558027Y-56156012D01*
X100612871Y-56143224D01*
X103060994Y-56143224D01*
X103126272Y-56161797D01*
X103171994Y-56211953D01*
X103177158Y-56222324D01*
X103177160Y-56222328D01*
X103179715Y-56227458D01*
X103183164Y-56232025D01*
X103183167Y-56232030D01*
X103292720Y-56377101D01*
X103302959Y-56390659D01*
X103454092Y-56528436D01*
X103627969Y-56636096D01*
X103818668Y-56709973D01*
X104019695Y-56747551D01*
X104218474Y-56747551D01*
X104224203Y-56747551D01*
X104425230Y-56709973D01*
X104615929Y-56636096D01*
X104789806Y-56528436D01*
X104940939Y-56390659D01*
X105064183Y-56227458D01*
X105155341Y-56044389D01*
X105211307Y-55847687D01*
X105230177Y-55644051D01*
X105211307Y-55440415D01*
X105155341Y-55243713D01*
X105064183Y-55060644D01*
X105054821Y-55048247D01*
X104944391Y-54902014D01*
X104944390Y-54902013D01*
X104940939Y-54897443D01*
X104931082Y-54888457D01*
X104794035Y-54763521D01*
X104794033Y-54763519D01*
X104789806Y-54759666D01*
X104784942Y-54756654D01*
X104784939Y-54756652D01*
X104620800Y-54655022D01*
X104615929Y-54652006D01*
X104610591Y-54649938D01*
X104610587Y-54649936D01*
X104430577Y-54580200D01*
X104430572Y-54580198D01*
X104425230Y-54578129D01*
X104419595Y-54577075D01*
X104419593Y-54577075D01*
X104229833Y-54541603D01*
X104229828Y-54541602D01*
X104224203Y-54540551D01*
X104019695Y-54540551D01*
X104014070Y-54541602D01*
X104014064Y-54541603D01*
X103824304Y-54577075D01*
X103824299Y-54577076D01*
X103818668Y-54578129D01*
X103813327Y-54580197D01*
X103813320Y-54580200D01*
X103633310Y-54649936D01*
X103633301Y-54649940D01*
X103627969Y-54652006D01*
X103623102Y-54655019D01*
X103623097Y-54655022D01*
X103458958Y-54756652D01*
X103458949Y-54756658D01*
X103454092Y-54759666D01*
X103449869Y-54763515D01*
X103449862Y-54763521D01*
X103307191Y-54893584D01*
X103307185Y-54893589D01*
X103302959Y-54897443D01*
X103299512Y-54902006D01*
X103299506Y-54902014D01*
X103183167Y-55056071D01*
X103183160Y-55056081D01*
X103179715Y-55060644D01*
X103177165Y-55065764D01*
X103177160Y-55065773D01*
X103126509Y-55167496D01*
X103080787Y-55217651D01*
X103015509Y-55236224D01*
X101614438Y-55236224D01*
X101549934Y-55218126D01*
X101504259Y-55169115D01*
X101490745Y-55103497D01*
X101513338Y-55040427D01*
X101514677Y-55038542D01*
X101724143Y-54743585D01*
X101728065Y-54738364D01*
X103266640Y-52799498D01*
X103281081Y-52784178D01*
X105056687Y-51195627D01*
X105074496Y-51182364D01*
X107041031Y-49975565D01*
X107062417Y-49965122D01*
X109169538Y-49176604D01*
X109194579Y-49170115D01*
X111707563Y-48792772D01*
X111733760Y-48791644D01*
X114244563Y-48949878D01*
X114270312Y-48954258D01*
X116675117Y-49630269D01*
X116700113Y-49640337D01*
X117187151Y-49901244D01*
X118896657Y-50817028D01*
X118916646Y-50830378D01*
X120166170Y-51853170D01*
X120177605Y-51863803D01*
X121232396Y-52976492D01*
X121284756Y-53031726D01*
X121299795Y-53051121D01*
X121361980Y-53150210D01*
X122584117Y-55097645D01*
X122595510Y-55120878D01*
X123438284Y-57419843D01*
X123444430Y-57443745D01*
X123762986Y-59523073D01*
X123764416Y-59541729D01*
X123766790Y-61964338D01*
X123765869Y-61979541D01*
X123349319Y-65379071D01*
X123345076Y-65399401D01*
X122467214Y-68345418D01*
X122458114Y-68367747D01*
X121033006Y-71076182D01*
X121021629Y-71093950D01*
X118959354Y-73780313D01*
X118950416Y-73790711D01*
X117501551Y-75298872D01*
X117497686Y-75302722D01*
X115241831Y-77452998D01*
X115238176Y-77456346D01*
X111549646Y-80701034D01*
X111549617Y-80701059D01*
X111549581Y-80701092D01*
X111549580Y-80701093D01*
X111549536Y-80701131D01*
X111549434Y-80701222D01*
X111549432Y-80701224D01*
X111549308Y-80701334D01*
X111549246Y-80701389D01*
X102161109Y-89082212D01*
X102160610Y-89081653D01*
X102160605Y-89081655D01*
X102161107Y-89082213D01*
X101394944Y-89771260D01*
X101342006Y-89799383D01*
X101282062Y-89799387D01*
X101229120Y-89771271D01*
X100462971Y-89082417D01*
X100463450Y-89081883D01*
X100463447Y-89081882D01*
X100462970Y-89082416D01*
X98271887Y-87120551D01*
X100018688Y-87120551D01*
X100019056Y-87131780D01*
X100071168Y-87326263D01*
X100074856Y-87336397D01*
X100170113Y-87540676D01*
X100175501Y-87550008D01*
X100304784Y-87734643D01*
X100311721Y-87742909D01*
X100471090Y-87902278D01*
X100479356Y-87909215D01*
X100663991Y-88038498D01*
X100673323Y-88043886D01*
X100877602Y-88139143D01*
X100887736Y-88142831D01*
X101082219Y-88194943D01*
X101093448Y-88195311D01*
X101096000Y-88184369D01*
X101596000Y-88184369D01*
X101598551Y-88195311D01*
X101609780Y-88194943D01*
X101804263Y-88142831D01*
X101814397Y-88139143D01*
X102018676Y-88043886D01*
X102028008Y-88038498D01*
X102212643Y-87909215D01*
X102220909Y-87902278D01*
X102380278Y-87742909D01*
X102387215Y-87734643D01*
X102516498Y-87550008D01*
X102521886Y-87540676D01*
X102617143Y-87336397D01*
X102620831Y-87326263D01*
X102672943Y-87131780D01*
X102673311Y-87120551D01*
X102662369Y-87118000D01*
X101612326Y-87118000D01*
X101599450Y-87121450D01*
X101596000Y-87134326D01*
X101596000Y-88184369D01*
X101096000Y-88184369D01*
X101096000Y-87134326D01*
X101092549Y-87121450D01*
X101079674Y-87118000D01*
X100029631Y-87118000D01*
X100018688Y-87120551D01*
X98271887Y-87120551D01*
X95983933Y-85071949D01*
X98441721Y-85071949D01*
X98460591Y-85275585D01*
X98516557Y-85472287D01*
X98519109Y-85477412D01*
X98519111Y-85477417D01*
X98605160Y-85650226D01*
X98605162Y-85650230D01*
X98607715Y-85655356D01*
X98611164Y-85659923D01*
X98611167Y-85659928D01*
X98727506Y-85813985D01*
X98730959Y-85818557D01*
X98882092Y-85956334D01*
X99055969Y-86063994D01*
X99246668Y-86137871D01*
X99447695Y-86175449D01*
X99646474Y-86175449D01*
X99652203Y-86175449D01*
X99853230Y-86137871D01*
X99985217Y-86086738D01*
X100043098Y-86079058D01*
X100098079Y-86098718D01*
X100137966Y-86141359D01*
X100153917Y-86197528D01*
X100142393Y-86254769D01*
X100074858Y-86399597D01*
X100071168Y-86409736D01*
X100019056Y-86604219D01*
X100018688Y-86615448D01*
X100029631Y-86618000D01*
X101079674Y-86618000D01*
X101092549Y-86614549D01*
X101096000Y-86601674D01*
X101596000Y-86601674D01*
X101599450Y-86614549D01*
X101612326Y-86618000D01*
X102662369Y-86618000D01*
X102673311Y-86615448D01*
X102672943Y-86604219D01*
X102620831Y-86409736D01*
X102617143Y-86399602D01*
X102521889Y-86195332D01*
X102516491Y-86185982D01*
X102387215Y-86001357D01*
X102380280Y-85993092D01*
X102220909Y-85833721D01*
X102212643Y-85826784D01*
X102028008Y-85697501D01*
X102018676Y-85692113D01*
X101814397Y-85596856D01*
X101804263Y-85593168D01*
X101609780Y-85541056D01*
X101598551Y-85540688D01*
X101596000Y-85551631D01*
X101596000Y-86601674D01*
X101096000Y-86601674D01*
X101096000Y-85551631D01*
X101093448Y-85540688D01*
X101082219Y-85541056D01*
X100887736Y-85593168D01*
X100877597Y-85596858D01*
X100735113Y-85663300D01*
X100675583Y-85674713D01*
X100617755Y-85656545D01*
X100575449Y-85613137D01*
X100558772Y-85554862D01*
X100571709Y-85495645D01*
X100583341Y-85472287D01*
X100639307Y-85275585D01*
X100658177Y-85071949D01*
X100639307Y-84868313D01*
X100583341Y-84671611D01*
X100492183Y-84488542D01*
X100421150Y-84394480D01*
X100410748Y-84380705D01*
X102449947Y-84380705D01*
X102450315Y-84391934D01*
X102494330Y-84556201D01*
X102498021Y-84566342D01*
X102586763Y-84756650D01*
X102592162Y-84766002D01*
X102712607Y-84938016D01*
X102719544Y-84946282D01*
X102868025Y-85094763D01*
X102876291Y-85101700D01*
X103048305Y-85222145D01*
X103057657Y-85227544D01*
X103247965Y-85316286D01*
X103258106Y-85319977D01*
X103422373Y-85363992D01*
X103433602Y-85364360D01*
X103436154Y-85353418D01*
X103936154Y-85353418D01*
X103938705Y-85364360D01*
X103949934Y-85363992D01*
X104114201Y-85319977D01*
X104124342Y-85316286D01*
X104314650Y-85227544D01*
X104324002Y-85222145D01*
X104496016Y-85101700D01*
X104504282Y-85094763D01*
X104652763Y-84946282D01*
X104659700Y-84938016D01*
X104780145Y-84766002D01*
X104785544Y-84756650D01*
X104874286Y-84566342D01*
X104877977Y-84556201D01*
X104921992Y-84391934D01*
X104922360Y-84380705D01*
X104911418Y-84378154D01*
X103952480Y-84378154D01*
X103939604Y-84381604D01*
X103936154Y-84394480D01*
X103936154Y-85353418D01*
X103436154Y-85353418D01*
X103436154Y-84394480D01*
X103432703Y-84381604D01*
X103419828Y-84378154D01*
X102460890Y-84378154D01*
X102449947Y-84380705D01*
X100410748Y-84380705D01*
X100372391Y-84329912D01*
X100372390Y-84329911D01*
X100368939Y-84325341D01*
X100217806Y-84187564D01*
X100212942Y-84184552D01*
X100212939Y-84184550D01*
X100048800Y-84082920D01*
X100043929Y-84079904D01*
X100038591Y-84077836D01*
X100038587Y-84077834D01*
X99858577Y-84008098D01*
X99858572Y-84008096D01*
X99853230Y-84006027D01*
X99847595Y-84004973D01*
X99847593Y-84004973D01*
X99657833Y-83969501D01*
X99657828Y-83969500D01*
X99652203Y-83968449D01*
X99447695Y-83968449D01*
X99442070Y-83969500D01*
X99442064Y-83969501D01*
X99252304Y-84004973D01*
X99252299Y-84004974D01*
X99246668Y-84006027D01*
X99241327Y-84008095D01*
X99241320Y-84008098D01*
X99061310Y-84077834D01*
X99061301Y-84077838D01*
X99055969Y-84079904D01*
X99051102Y-84082917D01*
X99051097Y-84082920D01*
X98886958Y-84184550D01*
X98886949Y-84184556D01*
X98882092Y-84187564D01*
X98877869Y-84191413D01*
X98877862Y-84191419D01*
X98735191Y-84321482D01*
X98735185Y-84321487D01*
X98730959Y-84325341D01*
X98727512Y-84329904D01*
X98727506Y-84329912D01*
X98611167Y-84483969D01*
X98611160Y-84483979D01*
X98607715Y-84488542D01*
X98605165Y-84493662D01*
X98605160Y-84493671D01*
X98519111Y-84666480D01*
X98519107Y-84666488D01*
X98516557Y-84671611D01*
X98514988Y-84677123D01*
X98514988Y-84677125D01*
X98489701Y-84766002D01*
X98460591Y-84868313D01*
X98441721Y-85071949D01*
X95983933Y-85071949D01*
X92020510Y-81523156D01*
X92022874Y-81520515D01*
X92022869Y-81520508D01*
X92020508Y-81523155D01*
X85783054Y-75958682D01*
X85777313Y-75953221D01*
X85157528Y-75324761D01*
X84111210Y-74263799D01*
X84105451Y-74257544D01*
X83592012Y-73660000D01*
X87579724Y-73660000D01*
X87580785Y-73668059D01*
X87597685Y-73796432D01*
X87597686Y-73796438D01*
X87598747Y-73804492D01*
X87601856Y-73811998D01*
X87601857Y-73812001D01*
X87646617Y-73920061D01*
X87654519Y-73939138D01*
X87743239Y-74054761D01*
X87858862Y-74143481D01*
X87993508Y-74199253D01*
X88001568Y-74200314D01*
X88009416Y-74202417D01*
X88009306Y-74202827D01*
X88039261Y-74211913D01*
X88072099Y-74235445D01*
X89166361Y-75329707D01*
X90120060Y-76283405D01*
X90153366Y-76343917D01*
X90149131Y-76412860D01*
X90108668Y-76468841D01*
X90044534Y-76494489D01*
X89940888Y-76504697D01*
X89940880Y-76504698D01*
X89934824Y-76505295D01*
X89929000Y-76507061D01*
X89928993Y-76507063D01*
X89749232Y-76561593D01*
X89749230Y-76561593D01*
X89743401Y-76563362D01*
X89738034Y-76566230D01*
X89738026Y-76566234D01*
X89572353Y-76654789D01*
X89572347Y-76654792D01*
X89566985Y-76657659D01*
X89562284Y-76661516D01*
X89562278Y-76661521D01*
X89417061Y-76780697D01*
X89417055Y-76780702D01*
X89412355Y-76784560D01*
X89408497Y-76789260D01*
X89408492Y-76789266D01*
X89289316Y-76934483D01*
X89289311Y-76934489D01*
X89285454Y-76939190D01*
X89282587Y-76944552D01*
X89282584Y-76944558D01*
X89194029Y-77110231D01*
X89194025Y-77110239D01*
X89191157Y-77115606D01*
X89189388Y-77121435D01*
X89189388Y-77121437D01*
X89134858Y-77301198D01*
X89134856Y-77301205D01*
X89133090Y-77307029D01*
X89132493Y-77313085D01*
X89132492Y-77313093D01*
X89115401Y-77486632D01*
X89113483Y-77506102D01*
X89114080Y-77512163D01*
X89132492Y-77699110D01*
X89132493Y-77699116D01*
X89133090Y-77705175D01*
X89134857Y-77711000D01*
X89134858Y-77711005D01*
X89171650Y-77832292D01*
X89191157Y-77896598D01*
X89194027Y-77901967D01*
X89194029Y-77901972D01*
X89236717Y-77981834D01*
X89285454Y-78073014D01*
X89289315Y-78077719D01*
X89289316Y-78077720D01*
X89303841Y-78095419D01*
X89412355Y-78227644D01*
X89566985Y-78354545D01*
X89743401Y-78448842D01*
X89934824Y-78506909D01*
X90133897Y-78526516D01*
X90332970Y-78506909D01*
X90524393Y-78448842D01*
X90700809Y-78354545D01*
X90855439Y-78227644D01*
X90982340Y-78073014D01*
X91076637Y-77896598D01*
X91134704Y-77705175D01*
X91145509Y-77595463D01*
X91171157Y-77531331D01*
X91227137Y-77490868D01*
X91296080Y-77486632D01*
X91356593Y-77519938D01*
X92367192Y-78530537D01*
X92399529Y-78587047D01*
X92398778Y-78652151D01*
X92366158Y-78766803D01*
X92366156Y-78766810D01*
X92364591Y-78772313D01*
X92364063Y-78778010D01*
X92364062Y-78778016D01*
X92364062Y-78778020D01*
X92345721Y-78975949D01*
X92364591Y-79179585D01*
X92420557Y-79376287D01*
X92423109Y-79381412D01*
X92423111Y-79381417D01*
X92509160Y-79554226D01*
X92509162Y-79554230D01*
X92511715Y-79559356D01*
X92515164Y-79563923D01*
X92515167Y-79563928D01*
X92618857Y-79701235D01*
X92634959Y-79722557D01*
X92786092Y-79860334D01*
X92790957Y-79863346D01*
X92790958Y-79863347D01*
X92941727Y-79956699D01*
X92984778Y-80001787D01*
X93000449Y-80062126D01*
X93000449Y-80786247D01*
X92999669Y-80800129D01*
X92995648Y-80835818D01*
X92997373Y-80844939D01*
X92997374Y-80844947D01*
X93006346Y-80892370D01*
X93007122Y-80896934D01*
X93015702Y-80953850D01*
X93019454Y-80961642D01*
X93021063Y-80970142D01*
X93025401Y-80978351D01*
X93025404Y-80978358D01*
X93047966Y-81021047D01*
X93050052Y-81025178D01*
X93075018Y-81077020D01*
X93080899Y-81083358D01*
X93084942Y-81091008D01*
X93091513Y-81097579D01*
X93125657Y-81131723D01*
X93128874Y-81135063D01*
X93168003Y-81177234D01*
X93174041Y-81180720D01*
X93179806Y-81185872D01*
X95567573Y-83573639D01*
X95576839Y-83584007D01*
X95593441Y-83604826D01*
X95593443Y-83604828D01*
X95599236Y-83612092D01*
X95646789Y-83644512D01*
X95650569Y-83647195D01*
X95696878Y-83681373D01*
X95705043Y-83684230D01*
X95712189Y-83689102D01*
X95767237Y-83706081D01*
X95771538Y-83707497D01*
X95825915Y-83726525D01*
X95834558Y-83726848D01*
X95842824Y-83729398D01*
X95900397Y-83729398D01*
X95905033Y-83729485D01*
X95962528Y-83731636D01*
X95969261Y-83729831D01*
X95976981Y-83729398D01*
X96595451Y-83729398D01*
X96642904Y-83738837D01*
X96683132Y-83765717D01*
X97592299Y-84674883D01*
X97654988Y-84716771D01*
X97753898Y-84736445D01*
X97852808Y-84716771D01*
X97915497Y-84674884D01*
X98714778Y-83875602D01*
X102449947Y-83875602D01*
X102460890Y-83878154D01*
X103419828Y-83878154D01*
X103432703Y-83874703D01*
X103436154Y-83861828D01*
X103936154Y-83861828D01*
X103939604Y-83874703D01*
X103952480Y-83878154D01*
X104911418Y-83878154D01*
X104922360Y-83875602D01*
X104921992Y-83864373D01*
X104877978Y-83700108D01*
X104874286Y-83689966D01*
X104785542Y-83499654D01*
X104780144Y-83490304D01*
X104659700Y-83318292D01*
X104652765Y-83310027D01*
X104504282Y-83161544D01*
X104496016Y-83154607D01*
X104324002Y-83034162D01*
X104314650Y-83028763D01*
X104124342Y-82940021D01*
X104114201Y-82936330D01*
X103949934Y-82892315D01*
X103938705Y-82891947D01*
X103936154Y-82902890D01*
X103936154Y-83861828D01*
X103436154Y-83861828D01*
X103436154Y-82902890D01*
X103433602Y-82891947D01*
X103422373Y-82892315D01*
X103258108Y-82936329D01*
X103247966Y-82940021D01*
X103057654Y-83028765D01*
X103048304Y-83034163D01*
X102876292Y-83154607D01*
X102868027Y-83161542D01*
X102719542Y-83310027D01*
X102712607Y-83318292D01*
X102592163Y-83490304D01*
X102586765Y-83499654D01*
X102498021Y-83689966D01*
X102494329Y-83700108D01*
X102450315Y-83864373D01*
X102449947Y-83875602D01*
X98714778Y-83875602D01*
X99152883Y-83437497D01*
X99194771Y-83374808D01*
X99214445Y-83275898D01*
X99194771Y-83176988D01*
X99152884Y-83114299D01*
X99035869Y-82997284D01*
X99005619Y-82947921D01*
X99001077Y-82890205D01*
X99023232Y-82836718D01*
X99067255Y-82799118D01*
X99123550Y-82785603D01*
X100906718Y-82785603D01*
X100970467Y-82803245D01*
X101016073Y-82851146D01*
X101041660Y-82899015D01*
X101168561Y-83053645D01*
X101323191Y-83180546D01*
X101499607Y-83274843D01*
X101691030Y-83332910D01*
X101890103Y-83352517D01*
X102089176Y-83332910D01*
X102280599Y-83274843D01*
X102457015Y-83180546D01*
X102611645Y-83053645D01*
X102738546Y-82899015D01*
X102832843Y-82722599D01*
X102890910Y-82531176D01*
X102910517Y-82332103D01*
X102890910Y-82133030D01*
X102832843Y-81941607D01*
X102738546Y-81765191D01*
X102611645Y-81610561D01*
X102457015Y-81483660D01*
X102451646Y-81480790D01*
X102285973Y-81392235D01*
X102285968Y-81392233D01*
X102280599Y-81389363D01*
X102244140Y-81378303D01*
X102095006Y-81333064D01*
X102095001Y-81333063D01*
X102089176Y-81331296D01*
X102083117Y-81330699D01*
X102083111Y-81330698D01*
X101896164Y-81312286D01*
X101890103Y-81311689D01*
X101884042Y-81312286D01*
X101697094Y-81330698D01*
X101697086Y-81330699D01*
X101691030Y-81331296D01*
X101685206Y-81333062D01*
X101685199Y-81333064D01*
X101505438Y-81387594D01*
X101505436Y-81387594D01*
X101499607Y-81389363D01*
X101494240Y-81392231D01*
X101494232Y-81392235D01*
X101328559Y-81480790D01*
X101328553Y-81480793D01*
X101323191Y-81483660D01*
X101318490Y-81487517D01*
X101318484Y-81487522D01*
X101173267Y-81606698D01*
X101173261Y-81606703D01*
X101168561Y-81610561D01*
X101164703Y-81615261D01*
X101164698Y-81615267D01*
X101045527Y-81760478D01*
X101045523Y-81760483D01*
X101041660Y-81765191D01*
X101016073Y-81813059D01*
X100970467Y-81860961D01*
X100906718Y-81878603D01*
X98730123Y-81878603D01*
X98716239Y-81877823D01*
X98689777Y-81874841D01*
X98689774Y-81874841D01*
X98680544Y-81873801D01*
X98671417Y-81875527D01*
X98671412Y-81875528D01*
X98623990Y-81884501D01*
X98619420Y-81885278D01*
X98571697Y-81892471D01*
X98571693Y-81892472D01*
X98562512Y-81893856D01*
X98554719Y-81897608D01*
X98546220Y-81899217D01*
X98538017Y-81903552D01*
X98538012Y-81903554D01*
X98495332Y-81926110D01*
X98491199Y-81928196D01*
X98447713Y-81949139D01*
X98447704Y-81949144D01*
X98439342Y-81953172D01*
X98433003Y-81959053D01*
X98425354Y-81963096D01*
X98418788Y-81969661D01*
X98411315Y-81975178D01*
X98410781Y-81974455D01*
X98369716Y-81999621D01*
X98312000Y-82004163D01*
X98258513Y-81982008D01*
X98220913Y-81937985D01*
X98207398Y-81881690D01*
X98207398Y-81397143D01*
X98216837Y-81349690D01*
X98243717Y-81309462D01*
X98403703Y-81149476D01*
X98884057Y-80669120D01*
X98941606Y-80636519D01*
X99007730Y-80638142D01*
X99063612Y-80673528D01*
X99092910Y-80731730D01*
X99093245Y-80735124D01*
X99151312Y-80926547D01*
X99154182Y-80931916D01*
X99154184Y-80931921D01*
X99234113Y-81081456D01*
X99245609Y-81102963D01*
X99249470Y-81107668D01*
X99249471Y-81107669D01*
X99332864Y-81209284D01*
X99372510Y-81257593D01*
X99527140Y-81384494D01*
X99703556Y-81478791D01*
X99894979Y-81536858D01*
X100094052Y-81556465D01*
X100293125Y-81536858D01*
X100484548Y-81478791D01*
X100660964Y-81384494D01*
X100815594Y-81257593D01*
X100942495Y-81102963D01*
X101036792Y-80926547D01*
X101094859Y-80735124D01*
X101114466Y-80536051D01*
X101094859Y-80336978D01*
X101036792Y-80145555D01*
X100942495Y-79969139D01*
X100815594Y-79814509D01*
X100726515Y-79741404D01*
X100665670Y-79691470D01*
X100665669Y-79691469D01*
X100660964Y-79687608D01*
X100655595Y-79684738D01*
X100489922Y-79596183D01*
X100489917Y-79596181D01*
X100484548Y-79593311D01*
X100431036Y-79577078D01*
X100298951Y-79537011D01*
X100298948Y-79537010D01*
X100293125Y-79535244D01*
X100289731Y-79534909D01*
X100231529Y-79505611D01*
X100196143Y-79449729D01*
X100194520Y-79383605D01*
X100227121Y-79326056D01*
X104835839Y-74717338D01*
X104876065Y-74690461D01*
X104923518Y-74681022D01*
X104970970Y-74690461D01*
X105011508Y-74707253D01*
X105156000Y-74726276D01*
X105300492Y-74707253D01*
X105435138Y-74651481D01*
X105550761Y-74562761D01*
X105639481Y-74447138D01*
X105695253Y-74312492D01*
X105714276Y-74168000D01*
X105695253Y-74023508D01*
X105639481Y-73888862D01*
X105550761Y-73773239D01*
X105435138Y-73684519D01*
X105375944Y-73660000D01*
X105308001Y-73631857D01*
X105307998Y-73631856D01*
X105300492Y-73628747D01*
X105292438Y-73627686D01*
X105292432Y-73627685D01*
X105164059Y-73610785D01*
X105156000Y-73609724D01*
X105147941Y-73610785D01*
X105019567Y-73627685D01*
X105019559Y-73627686D01*
X105011508Y-73628747D01*
X105004003Y-73631855D01*
X105003998Y-73631857D01*
X104884369Y-73681409D01*
X104884365Y-73681410D01*
X104876862Y-73684519D01*
X104870415Y-73689465D01*
X104863376Y-73693530D01*
X104863164Y-73693162D01*
X104835557Y-73707919D01*
X104795698Y-73714500D01*
X104776255Y-73714500D01*
X104762372Y-73713720D01*
X104735914Y-73710739D01*
X104726684Y-73709699D01*
X104717561Y-73711424D01*
X104717557Y-73711425D01*
X104670136Y-73720397D01*
X104665570Y-73721173D01*
X104617835Y-73728368D01*
X104617830Y-73728369D01*
X104608652Y-73729753D01*
X104600859Y-73733505D01*
X104592360Y-73735114D01*
X104584157Y-73739449D01*
X104584152Y-73739451D01*
X104541472Y-73762007D01*
X104537339Y-73764093D01*
X104493853Y-73785036D01*
X104493844Y-73785041D01*
X104485482Y-73789069D01*
X104479143Y-73794950D01*
X104471494Y-73798993D01*
X104464930Y-73805556D01*
X104464927Y-73805559D01*
X104430774Y-73839711D01*
X104427439Y-73842924D01*
X104385268Y-73882054D01*
X104381783Y-73888088D01*
X104376626Y-73893859D01*
X99522814Y-78747671D01*
X99462301Y-78780977D01*
X99393358Y-78776741D01*
X99337378Y-78736278D01*
X99311730Y-78672145D01*
X99298807Y-78540927D01*
X99240740Y-78349504D01*
X99146443Y-78173088D01*
X99019542Y-78018458D01*
X98889946Y-77912102D01*
X98869618Y-77895419D01*
X98869617Y-77895418D01*
X98864912Y-77891557D01*
X98859543Y-77888687D01*
X98693870Y-77800132D01*
X98693865Y-77800130D01*
X98688496Y-77797260D01*
X98652037Y-77786200D01*
X98502903Y-77740961D01*
X98502898Y-77740960D01*
X98497073Y-77739193D01*
X98491014Y-77738596D01*
X98491008Y-77738595D01*
X98304061Y-77720183D01*
X98298000Y-77719586D01*
X98291939Y-77720183D01*
X98104991Y-77738595D01*
X98104983Y-77738596D01*
X98098927Y-77739193D01*
X98093103Y-77740959D01*
X98093096Y-77740961D01*
X97913335Y-77795491D01*
X97913333Y-77795491D01*
X97907504Y-77797260D01*
X97902137Y-77800128D01*
X97902129Y-77800132D01*
X97736456Y-77888687D01*
X97736450Y-77888690D01*
X97731088Y-77891557D01*
X97726387Y-77895414D01*
X97726381Y-77895419D01*
X97581164Y-78014595D01*
X97581158Y-78014600D01*
X97576458Y-78018458D01*
X97572600Y-78023158D01*
X97572595Y-78023164D01*
X97453419Y-78168381D01*
X97453414Y-78168387D01*
X97449557Y-78173088D01*
X97446690Y-78178450D01*
X97446687Y-78178456D01*
X97358132Y-78344129D01*
X97358128Y-78344137D01*
X97355260Y-78349504D01*
X97353491Y-78355333D01*
X97353491Y-78355335D01*
X97298961Y-78535096D01*
X97298959Y-78535103D01*
X97297193Y-78540927D01*
X97296596Y-78546983D01*
X97296595Y-78546991D01*
X97286238Y-78652151D01*
X97277586Y-78740000D01*
X97278183Y-78746061D01*
X97296595Y-78933008D01*
X97296596Y-78933014D01*
X97297193Y-78939073D01*
X97298960Y-78944898D01*
X97298961Y-78944903D01*
X97333633Y-79059200D01*
X97355260Y-79130496D01*
X97358130Y-79135865D01*
X97358132Y-79135870D01*
X97384446Y-79185099D01*
X97449557Y-79306912D01*
X97576458Y-79461542D01*
X97731088Y-79588443D01*
X97907504Y-79682740D01*
X98098927Y-79740807D01*
X98230145Y-79753730D01*
X98294278Y-79779378D01*
X98334741Y-79835358D01*
X98338977Y-79904301D01*
X98305671Y-79964814D01*
X97456154Y-80814331D01*
X97445789Y-80823594D01*
X97424971Y-80840196D01*
X97424965Y-80840202D01*
X97417704Y-80845993D01*
X97412473Y-80853664D01*
X97412464Y-80853675D01*
X97385277Y-80893551D01*
X97382596Y-80897330D01*
X97353940Y-80936157D01*
X97353934Y-80936166D01*
X97348423Y-80943635D01*
X97345565Y-80951800D01*
X97340694Y-80958946D01*
X97337957Y-80967816D01*
X97337957Y-80967818D01*
X97323725Y-81013957D01*
X97322276Y-81018359D01*
X97306338Y-81063906D01*
X97306336Y-81063913D01*
X97303272Y-81072672D01*
X97302948Y-81081311D01*
X97300398Y-81089581D01*
X97300398Y-81098867D01*
X97300398Y-81147164D01*
X97300311Y-81151801D01*
X97298507Y-81199996D01*
X97298507Y-81199999D01*
X97298160Y-81209284D01*
X97299964Y-81216017D01*
X97300398Y-81223736D01*
X97300398Y-82117451D01*
X97290959Y-82164904D01*
X97264079Y-82205132D01*
X96683133Y-82786079D01*
X96642905Y-82812959D01*
X96595452Y-82822398D01*
X96150386Y-82822398D01*
X96102933Y-82812959D01*
X96062705Y-82786079D01*
X95517286Y-82240660D01*
X95485192Y-82185073D01*
X95485192Y-82120885D01*
X95517286Y-82065298D01*
X96062076Y-81520508D01*
X96648985Y-80933599D01*
X96690873Y-80870910D01*
X96710547Y-80772000D01*
X96690873Y-80673090D01*
X96648986Y-80610401D01*
X95739818Y-79701234D01*
X95712939Y-79661007D01*
X95703500Y-79613554D01*
X95703500Y-78592302D01*
X95710081Y-78552443D01*
X95724837Y-78524835D01*
X95724470Y-78524624D01*
X95728532Y-78517586D01*
X95733481Y-78511138D01*
X95789253Y-78376492D01*
X95808276Y-78232000D01*
X95807053Y-78222712D01*
X95807215Y-78221533D01*
X95807215Y-78215815D01*
X95807999Y-78215815D01*
X95815952Y-78157827D01*
X95856666Y-78106525D01*
X95917835Y-78083119D01*
X95982395Y-78094140D01*
X96063760Y-78132081D01*
X96073901Y-78135772D01*
X96238168Y-78179787D01*
X96249397Y-78180155D01*
X96251949Y-78169213D01*
X96751949Y-78169213D01*
X96754500Y-78180155D01*
X96765729Y-78179787D01*
X96929996Y-78135772D01*
X96940137Y-78132081D01*
X97130445Y-78043339D01*
X97139797Y-78037940D01*
X97311811Y-77917495D01*
X97320077Y-77910558D01*
X97468558Y-77762077D01*
X97475495Y-77753811D01*
X97595940Y-77581797D01*
X97601339Y-77572445D01*
X97690081Y-77382137D01*
X97693772Y-77371996D01*
X97737787Y-77207729D01*
X97738155Y-77196500D01*
X97727213Y-77193949D01*
X96768275Y-77193949D01*
X96755399Y-77197399D01*
X96751949Y-77210275D01*
X96751949Y-78169213D01*
X96251949Y-78169213D01*
X96251949Y-77210275D01*
X96248498Y-77197399D01*
X96235623Y-77193949D01*
X95276685Y-77193949D01*
X95265742Y-77196500D01*
X95266110Y-77207729D01*
X95310125Y-77371996D01*
X95313814Y-77382132D01*
X95368022Y-77498380D01*
X95379375Y-77558895D01*
X95360221Y-77617410D01*
X95315283Y-77659499D01*
X95256460Y-77674574D01*
X95250000Y-77673724D01*
X95241941Y-77674785D01*
X95113567Y-77691685D01*
X95113559Y-77691686D01*
X95105508Y-77692747D01*
X95098003Y-77695855D01*
X95097998Y-77695857D01*
X94978369Y-77745409D01*
X94978365Y-77745410D01*
X94970862Y-77748519D01*
X94964417Y-77753463D01*
X94964414Y-77753466D01*
X94861685Y-77832292D01*
X94861681Y-77832295D01*
X94855239Y-77837239D01*
X94850295Y-77843681D01*
X94850292Y-77843685D01*
X94771466Y-77946414D01*
X94771463Y-77946417D01*
X94766519Y-77952862D01*
X94763410Y-77960365D01*
X94763409Y-77960369D01*
X94713857Y-78079998D01*
X94713855Y-78080003D01*
X94710747Y-78087508D01*
X94709686Y-78095559D01*
X94709685Y-78095567D01*
X94693855Y-78215815D01*
X94691724Y-78232000D01*
X94692785Y-78240059D01*
X94709685Y-78368432D01*
X94709686Y-78368438D01*
X94710747Y-78376492D01*
X94713856Y-78383998D01*
X94713857Y-78384001D01*
X94763409Y-78503630D01*
X94766519Y-78511138D01*
X94771466Y-78517585D01*
X94775530Y-78524624D01*
X94775162Y-78524835D01*
X94789919Y-78552443D01*
X94796500Y-78592302D01*
X94796500Y-78822621D01*
X94780829Y-78882960D01*
X94737778Y-78928048D01*
X94678227Y-78946489D01*
X94617229Y-78933621D01*
X94570200Y-78892698D01*
X94549029Y-78834062D01*
X94547969Y-78822621D01*
X94543307Y-78772313D01*
X94487341Y-78575611D01*
X94396183Y-78392542D01*
X94369655Y-78357414D01*
X94276391Y-78233912D01*
X94276390Y-78233911D01*
X94272939Y-78229341D01*
X94206070Y-78168381D01*
X94126035Y-78095419D01*
X94126033Y-78095417D01*
X94121806Y-78091564D01*
X94116942Y-78088552D01*
X94116939Y-78088550D01*
X93952800Y-77986920D01*
X93947929Y-77983904D01*
X93942591Y-77981836D01*
X93942587Y-77981834D01*
X93762577Y-77912098D01*
X93762572Y-77912096D01*
X93757230Y-77910027D01*
X93751595Y-77908973D01*
X93751593Y-77908973D01*
X93561833Y-77873501D01*
X93561828Y-77873500D01*
X93556203Y-77872449D01*
X93351695Y-77872449D01*
X93346070Y-77873500D01*
X93346064Y-77873501D01*
X93156304Y-77908973D01*
X93156299Y-77908974D01*
X93150668Y-77910027D01*
X93145324Y-77912096D01*
X93145307Y-77912102D01*
X93138572Y-77914711D01*
X93091872Y-77923066D01*
X93045451Y-77913272D01*
X93006107Y-77886762D01*
X92042382Y-76923036D01*
X92009076Y-76862522D01*
X92013312Y-76793578D01*
X92053777Y-76737598D01*
X92117914Y-76711952D01*
X92118307Y-76711913D01*
X92129021Y-76710858D01*
X92193176Y-76691397D01*
X95265742Y-76691397D01*
X95276685Y-76693949D01*
X96235623Y-76693949D01*
X96248498Y-76690498D01*
X96251949Y-76677623D01*
X96751949Y-76677623D01*
X96755399Y-76690498D01*
X96768275Y-76693949D01*
X97727213Y-76693949D01*
X97738155Y-76691397D01*
X97737787Y-76680168D01*
X97693773Y-76515903D01*
X97690081Y-76505761D01*
X97601337Y-76315449D01*
X97595939Y-76306099D01*
X97475495Y-76134087D01*
X97468560Y-76125822D01*
X97320077Y-75977339D01*
X97311811Y-75970402D01*
X97139797Y-75849957D01*
X97130445Y-75844558D01*
X96940137Y-75755816D01*
X96929996Y-75752125D01*
X96765729Y-75708110D01*
X96754500Y-75707742D01*
X96751949Y-75718685D01*
X96751949Y-76677623D01*
X96251949Y-76677623D01*
X96251949Y-75718685D01*
X96249397Y-75707742D01*
X96238168Y-75708110D01*
X96073903Y-75752124D01*
X96063761Y-75755816D01*
X95873449Y-75844560D01*
X95864099Y-75849958D01*
X95692087Y-75970402D01*
X95683822Y-75977337D01*
X95535337Y-76125822D01*
X95528402Y-76134087D01*
X95407958Y-76306099D01*
X95402560Y-76315449D01*
X95313816Y-76505761D01*
X95310124Y-76515903D01*
X95266110Y-76680168D01*
X95265742Y-76691397D01*
X92193176Y-76691397D01*
X92320444Y-76652791D01*
X92496860Y-76558494D01*
X92651490Y-76431593D01*
X92778391Y-76276963D01*
X92872688Y-76100547D01*
X92930755Y-75909124D01*
X92950362Y-75710051D01*
X92930755Y-75510978D01*
X92872688Y-75319555D01*
X92778391Y-75143139D01*
X92651490Y-74988509D01*
X92562411Y-74915404D01*
X92501566Y-74865470D01*
X92501565Y-74865469D01*
X92496860Y-74861608D01*
X92491491Y-74858738D01*
X92325818Y-74770183D01*
X92325813Y-74770181D01*
X92320444Y-74767311D01*
X92283985Y-74756251D01*
X92134851Y-74711012D01*
X92134846Y-74711011D01*
X92129021Y-74709244D01*
X92122962Y-74708647D01*
X92122956Y-74708646D01*
X91936009Y-74690234D01*
X91929948Y-74689637D01*
X91923887Y-74690234D01*
X91736939Y-74708646D01*
X91736931Y-74708647D01*
X91730875Y-74709244D01*
X91725051Y-74711010D01*
X91725044Y-74711012D01*
X91545283Y-74765542D01*
X91545281Y-74765542D01*
X91539452Y-74767311D01*
X91534085Y-74770179D01*
X91534077Y-74770183D01*
X91368404Y-74858738D01*
X91368398Y-74858741D01*
X91363036Y-74861608D01*
X91358335Y-74865465D01*
X91358329Y-74865470D01*
X91213112Y-74984646D01*
X91213106Y-74984651D01*
X91208406Y-74988509D01*
X91204548Y-74993209D01*
X91204543Y-74993215D01*
X91085367Y-75138432D01*
X91085362Y-75138438D01*
X91081505Y-75143139D01*
X91078638Y-75148501D01*
X91078635Y-75148507D01*
X90990080Y-75314180D01*
X90990076Y-75314188D01*
X90987208Y-75319555D01*
X90985439Y-75325384D01*
X90985439Y-75325386D01*
X90930909Y-75505147D01*
X90930907Y-75505154D01*
X90929141Y-75510978D01*
X90928544Y-75517038D01*
X90928542Y-75517049D01*
X90928045Y-75522096D01*
X90902395Y-75586228D01*
X90846414Y-75626688D01*
X90777473Y-75630922D01*
X90716962Y-75597616D01*
X89033346Y-73914000D01*
X92705586Y-73914000D01*
X92706183Y-73920061D01*
X92724595Y-74107008D01*
X92724596Y-74107014D01*
X92725193Y-74113073D01*
X92726960Y-74118898D01*
X92726961Y-74118903D01*
X92762314Y-74235445D01*
X92783260Y-74304496D01*
X92786130Y-74309865D01*
X92786132Y-74309870D01*
X92855491Y-74439630D01*
X92877557Y-74480912D01*
X92881418Y-74485617D01*
X92881419Y-74485618D01*
X92949462Y-74568529D01*
X93004458Y-74635542D01*
X93159088Y-74762443D01*
X93335504Y-74856740D01*
X93526927Y-74914807D01*
X93726000Y-74934414D01*
X93770816Y-74930000D01*
X94691724Y-74930000D01*
X94692785Y-74938059D01*
X94709685Y-75066432D01*
X94709686Y-75066438D01*
X94710747Y-75074492D01*
X94766519Y-75209138D01*
X94855239Y-75324761D01*
X94970862Y-75413481D01*
X95105508Y-75469253D01*
X95250000Y-75488276D01*
X95394492Y-75469253D01*
X95529138Y-75413481D01*
X95644761Y-75324761D01*
X95733481Y-75209138D01*
X95789253Y-75074492D01*
X95808276Y-74930000D01*
X95796371Y-74839577D01*
X95801890Y-74783538D01*
X95831627Y-74735717D01*
X97615849Y-72951495D01*
X97626212Y-72942235D01*
X97654296Y-72919840D01*
X97686735Y-72872257D01*
X97689361Y-72868556D01*
X97723577Y-72822198D01*
X97726434Y-72814032D01*
X97731306Y-72806887D01*
X97748279Y-72751858D01*
X97749717Y-72747487D01*
X97768728Y-72693161D01*
X97769051Y-72684521D01*
X97771602Y-72676252D01*
X97771602Y-72618669D01*
X97771689Y-72614032D01*
X97773492Y-72565836D01*
X97773840Y-72556549D01*
X97772035Y-72549815D01*
X97771602Y-72542097D01*
X97771602Y-71305282D01*
X97789244Y-71241533D01*
X97837145Y-71195926D01*
X97885014Y-71170340D01*
X98039644Y-71043439D01*
X98166545Y-70888809D01*
X98260842Y-70712393D01*
X98318909Y-70520970D01*
X98338516Y-70321897D01*
X98318909Y-70122824D01*
X98260842Y-69931401D01*
X98166545Y-69754985D01*
X98039644Y-69600355D01*
X97981347Y-69552512D01*
X97889720Y-69477316D01*
X97889719Y-69477315D01*
X97885014Y-69473454D01*
X97879645Y-69470584D01*
X97713972Y-69382029D01*
X97713967Y-69382027D01*
X97708598Y-69379157D01*
X97672139Y-69368097D01*
X97523005Y-69322858D01*
X97523000Y-69322857D01*
X97517175Y-69321090D01*
X97511116Y-69320493D01*
X97511110Y-69320492D01*
X97324163Y-69302080D01*
X97318102Y-69301483D01*
X97312041Y-69302080D01*
X97125093Y-69320492D01*
X97125085Y-69320493D01*
X97119029Y-69321090D01*
X97113205Y-69322856D01*
X97113198Y-69322858D01*
X96933437Y-69377388D01*
X96933435Y-69377388D01*
X96927606Y-69379157D01*
X96922239Y-69382025D01*
X96922231Y-69382029D01*
X96756558Y-69470584D01*
X96756552Y-69470587D01*
X96751190Y-69473454D01*
X96746489Y-69477311D01*
X96746483Y-69477316D01*
X96634972Y-69568830D01*
X96587167Y-69590962D01*
X96565035Y-69638767D01*
X96473521Y-69750278D01*
X96473516Y-69750284D01*
X96469659Y-69754985D01*
X96466792Y-69760347D01*
X96466789Y-69760353D01*
X96378234Y-69926026D01*
X96378230Y-69926034D01*
X96375362Y-69931401D01*
X96373593Y-69937230D01*
X96373593Y-69937232D01*
X96319063Y-70116993D01*
X96319061Y-70117000D01*
X96317295Y-70122824D01*
X96316698Y-70128880D01*
X96316697Y-70128888D01*
X96304918Y-70248492D01*
X96297688Y-70321897D01*
X96298285Y-70327958D01*
X96316697Y-70514905D01*
X96316698Y-70514911D01*
X96317295Y-70520970D01*
X96319062Y-70526795D01*
X96319063Y-70526800D01*
X96338414Y-70590590D01*
X96375362Y-70712393D01*
X96378232Y-70717762D01*
X96378234Y-70717767D01*
X96466078Y-70882110D01*
X96469659Y-70888809D01*
X96473520Y-70893514D01*
X96473521Y-70893515D01*
X96575906Y-71018272D01*
X96596560Y-71043439D01*
X96751190Y-71170340D01*
X96799058Y-71195926D01*
X96846960Y-71241533D01*
X96864602Y-71305282D01*
X96864602Y-71451585D01*
X96846891Y-71515450D01*
X96798816Y-71561071D01*
X96734112Y-71575415D01*
X96671262Y-71554385D01*
X96628220Y-71503989D01*
X96621442Y-71489453D01*
X96616041Y-71480099D01*
X96495597Y-71308087D01*
X96488662Y-71299822D01*
X96340179Y-71151339D01*
X96331913Y-71144402D01*
X96159899Y-71023957D01*
X96150547Y-71018558D01*
X95960239Y-70929816D01*
X95950098Y-70926125D01*
X95785831Y-70882110D01*
X95774602Y-70881742D01*
X95772051Y-70892685D01*
X95772051Y-73343213D01*
X95775882Y-73359645D01*
X95798741Y-73407978D01*
X95795783Y-73468163D01*
X95764804Y-73519848D01*
X94952256Y-74332396D01*
X94941891Y-74341659D01*
X94921073Y-74358261D01*
X94921067Y-74358267D01*
X94913806Y-74364058D01*
X94908574Y-74371731D01*
X94908571Y-74371735D01*
X94895950Y-74390247D01*
X94842338Y-74434370D01*
X94776302Y-74442405D01*
X94788122Y-74451629D01*
X94812492Y-74507661D01*
X94807144Y-74568529D01*
X94802442Y-74581964D01*
X94802440Y-74581974D01*
X94802164Y-74582761D01*
X94802159Y-74582774D01*
X94799374Y-74590736D01*
X94798702Y-74590500D01*
X94778925Y-74634694D01*
X94771465Y-74644415D01*
X94771462Y-74644420D01*
X94766519Y-74650862D01*
X94763410Y-74658365D01*
X94763409Y-74658369D01*
X94713857Y-74777998D01*
X94713855Y-74778003D01*
X94710747Y-74785508D01*
X94709686Y-74793559D01*
X94709685Y-74793567D01*
X94693957Y-74913038D01*
X94691724Y-74930000D01*
X93770816Y-74930000D01*
X93925073Y-74914807D01*
X94116496Y-74856740D01*
X94292912Y-74762443D01*
X94447542Y-74635542D01*
X94574443Y-74480912D01*
X94580743Y-74469123D01*
X94621934Y-74423996D01*
X94679677Y-74404016D01*
X94708291Y-74408773D01*
X94674090Y-74353829D01*
X94674836Y-74284399D01*
X94681778Y-74261515D01*
X94726807Y-74113073D01*
X94746414Y-73914000D01*
X94726807Y-73714927D01*
X94668740Y-73523504D01*
X94574443Y-73347088D01*
X94447542Y-73192458D01*
X94360162Y-73120747D01*
X94297618Y-73069419D01*
X94297617Y-73069418D01*
X94292912Y-73065557D01*
X94287543Y-73062687D01*
X94121870Y-72974132D01*
X94121865Y-72974130D01*
X94116496Y-72971260D01*
X94051369Y-72951504D01*
X93930903Y-72914961D01*
X93930898Y-72914960D01*
X93925073Y-72913193D01*
X93919014Y-72912596D01*
X93919008Y-72912595D01*
X93732061Y-72894183D01*
X93726000Y-72893586D01*
X93719939Y-72894183D01*
X93532991Y-72912595D01*
X93532983Y-72912596D01*
X93526927Y-72913193D01*
X93521103Y-72914959D01*
X93521096Y-72914961D01*
X93341335Y-72969491D01*
X93341333Y-72969491D01*
X93335504Y-72971260D01*
X93330137Y-72974128D01*
X93330129Y-72974132D01*
X93164456Y-73062687D01*
X93164450Y-73062690D01*
X93159088Y-73065557D01*
X93154387Y-73069414D01*
X93154381Y-73069419D01*
X93009164Y-73188595D01*
X93009158Y-73188600D01*
X93004458Y-73192458D01*
X93000600Y-73197158D01*
X93000595Y-73197164D01*
X92881419Y-73342381D01*
X92881414Y-73342387D01*
X92877557Y-73347088D01*
X92874690Y-73352450D01*
X92874687Y-73352456D01*
X92786132Y-73518129D01*
X92786128Y-73518137D01*
X92783260Y-73523504D01*
X92781491Y-73529333D01*
X92781491Y-73529335D01*
X92726961Y-73709096D01*
X92726959Y-73709103D01*
X92725193Y-73714927D01*
X92724596Y-73720983D01*
X92724595Y-73720991D01*
X92707183Y-73897776D01*
X92705586Y-73914000D01*
X89033346Y-73914000D01*
X88713445Y-73594099D01*
X88689913Y-73561261D01*
X88680827Y-73531306D01*
X88680417Y-73531416D01*
X88678314Y-73523567D01*
X88677253Y-73515508D01*
X88621481Y-73380862D01*
X88532761Y-73265239D01*
X88417138Y-73176519D01*
X88409630Y-73173409D01*
X88290001Y-73123857D01*
X88289998Y-73123856D01*
X88282492Y-73120747D01*
X88274438Y-73119686D01*
X88274432Y-73119685D01*
X88146059Y-73102785D01*
X88138000Y-73101724D01*
X88129941Y-73102785D01*
X88001567Y-73119685D01*
X88001559Y-73119686D01*
X87993508Y-73120747D01*
X87986003Y-73123855D01*
X87985998Y-73123857D01*
X87866369Y-73173409D01*
X87866365Y-73173410D01*
X87858862Y-73176519D01*
X87852417Y-73181463D01*
X87852414Y-73181466D01*
X87749685Y-73260292D01*
X87749681Y-73260295D01*
X87743239Y-73265239D01*
X87738295Y-73271681D01*
X87738292Y-73271685D01*
X87659466Y-73374414D01*
X87659463Y-73374417D01*
X87654519Y-73380862D01*
X87651410Y-73388365D01*
X87651409Y-73388369D01*
X87601857Y-73507998D01*
X87601855Y-73508003D01*
X87598747Y-73515508D01*
X87597686Y-73523559D01*
X87597685Y-73523567D01*
X87583429Y-73631857D01*
X87579724Y-73660000D01*
X83592012Y-73660000D01*
X82708580Y-72631857D01*
X82701863Y-72623306D01*
X82520653Y-72370500D01*
X94285844Y-72370500D01*
X94286212Y-72381729D01*
X94330227Y-72545996D01*
X94333918Y-72556137D01*
X94422660Y-72746445D01*
X94428059Y-72755797D01*
X94548504Y-72927811D01*
X94555441Y-72936077D01*
X94703922Y-73084558D01*
X94712188Y-73091495D01*
X94884202Y-73211940D01*
X94893554Y-73217339D01*
X95083862Y-73306081D01*
X95094003Y-73309772D01*
X95258270Y-73353787D01*
X95269499Y-73354155D01*
X95272051Y-73343213D01*
X95272051Y-72384275D01*
X95268600Y-72371399D01*
X95255725Y-72367949D01*
X94296787Y-72367949D01*
X94285844Y-72370500D01*
X82520653Y-72370500D01*
X81555178Y-71023567D01*
X81548158Y-71012598D01*
X81529199Y-70979239D01*
X80976801Y-70007251D01*
X80631679Y-69399983D01*
X80625333Y-69387143D01*
X79918954Y-67722118D01*
X79914128Y-67708622D01*
X79737166Y-67105898D01*
X79398129Y-65951153D01*
X79395122Y-65938479D01*
X79394428Y-65934675D01*
X79050403Y-64048609D01*
X79048926Y-64037867D01*
X79045461Y-64000685D01*
X78856897Y-61977004D01*
X78856371Y-61966924D01*
X78833783Y-59994026D01*
X78834425Y-59979954D01*
X79013429Y-58239325D01*
X79016405Y-58222245D01*
X79409400Y-56634489D01*
X79415017Y-56617293D01*
X80035176Y-55103459D01*
X80043675Y-55086532D01*
X81025997Y-53454768D01*
X81039224Y-53436715D01*
X81123540Y-53341091D01*
X82329246Y-51973674D01*
X82343610Y-51959814D01*
X82375607Y-51933567D01*
X83739222Y-50814993D01*
X83755971Y-50803417D01*
X85311947Y-49907218D01*
X85330138Y-49898624D01*
X87030764Y-49258477D01*
X87049447Y-49253077D01*
X88879235Y-48876779D01*
X88896983Y-48874450D01*
X90547238Y-48778322D01*
X90564558Y-48778524D01*
G37*
G04 #@! TD.AperFunction*
G04 #@! TA.AperFunction,Conductor*
G36*
X104792549Y-64736388D02*
G01*
X104847676Y-64768357D01*
X107840138Y-67760819D01*
X107870388Y-67810182D01*
X107874930Y-67867898D01*
X107852775Y-67921385D01*
X107808752Y-67958985D01*
X107752457Y-67972500D01*
X105850339Y-67972500D01*
X105802886Y-67963061D01*
X105762658Y-67936181D01*
X103718937Y-65892460D01*
X103686248Y-65834561D01*
X103688167Y-65768099D01*
X103724144Y-65712183D01*
X103783834Y-65682890D01*
X103812613Y-65677510D01*
X103859081Y-65668824D01*
X104049780Y-65594947D01*
X104223657Y-65487287D01*
X104374790Y-65349510D01*
X104498034Y-65186309D01*
X104589192Y-65003240D01*
X104640729Y-64822103D01*
X104673332Y-64767350D01*
X104728824Y-64736020D01*
X104792549Y-64736388D01*
G37*
G04 #@! TD.AperFunction*
G04 #@! TA.AperFunction,Conductor*
G36*
X106621868Y-62690906D02*
G01*
X106671231Y-62721156D01*
X110948894Y-66998819D01*
X110979144Y-67048182D01*
X110983686Y-67105898D01*
X110961531Y-67159385D01*
X110917508Y-67196985D01*
X110861213Y-67210500D01*
X108341030Y-67210500D01*
X108293577Y-67201061D01*
X108253349Y-67174181D01*
X105201201Y-64122032D01*
X105170951Y-64072669D01*
X105166409Y-64014953D01*
X105188564Y-63961466D01*
X105232587Y-63923866D01*
X105288882Y-63910351D01*
X105448376Y-63910351D01*
X105454105Y-63910351D01*
X105655132Y-63872773D01*
X105845831Y-63798896D01*
X106019708Y-63691236D01*
X106170841Y-63553459D01*
X106294085Y-63390258D01*
X106385243Y-63207189D01*
X106441209Y-63010487D01*
X106460079Y-62806851D01*
X106460064Y-62806694D01*
X106473065Y-62752542D01*
X106510665Y-62708519D01*
X106564152Y-62686364D01*
X106621868Y-62690906D01*
G37*
G04 #@! TD.AperFunction*
M02*
