M48
INCH,TZ
T1C0.0118
T2C0.0300
T3C0.0315
T4C0.0394
%
G90
G05
T1
X31400Y-23200
X31400Y-24400
X31500Y-25700
X31900Y-21600
X31900Y-27000
X32500Y-23600
X32500Y-24600
X32500Y-25500
X32700Y-20600
X32700Y-28200
X33300Y-20800
X33400Y-22900
X33600Y-29300
X33800Y-23300
X33800Y-28100
X33900Y-19700
X33900Y-22300
X34100Y-21500
X34200Y-23700
X34256Y-25456
X34500Y-30200
X34700Y-26800
X34700Y-29000
X35000Y-26300
X35100Y-24600
X35300Y-19500
X35300Y-31000
X35600Y-26200
X35700Y-26600
X36400Y-25300
X36400Y-25900
X36400Y-31900
X36800Y-19600
X36900Y-27600
X37100Y-28000
X37300Y-24100
X37400Y-26700
X37400Y-32900
X37500Y-29500
X37500Y-30800
X37700Y-20500
X37900Y-20000
X38000Y-26100
X38100Y-33500
X38300Y-23400
X38350Y-25350
X38500Y-23700
X38500Y-26000
X38800Y-20700
X38800Y-25100
X38800Y-26300
X38900Y-22800
X39000Y-24700
X39000Y-34300
X39400Y-24800
X39700Y-26800
X39900Y-24100
X39900Y-35100
X40100Y-23800
X40300Y-23400
X40900Y-34200
X41400Y-26100
X41400Y-29200
X41700Y-25300
X41800Y-33400
X41900Y-29400
X42500Y-24509
X42700Y-19800
X42700Y-32600
X43200Y-26200
X43500Y-31900
X43600Y-25200
X43600Y-28500
X43900Y-19500
X44000Y-27300
X44300Y-26900
X44300Y-31100
X44700Y-26500
X45200Y-19600
X45200Y-30300
X45600Y-27800
X46100Y-29500
X46300Y-20000
X46900Y-28500
X47200Y-20700
X47700Y-27500
X47900Y-21600
X48100Y-26500
X48400Y-22900
X48400Y-25400
X48500Y-24200
T2
X35486Y-30514
X36193Y-29807
X36900Y-29100
X37607Y-28393
X37993Y-30293
X38314Y-27686
X38700Y-31000
X39021Y-26979
X39407Y-31707
X40114Y-32414
X40821Y-33121
T3
X37493Y-23407
X38200Y-22700
X38907Y-21993
T4
X36476Y-21972
X36793Y-31093
X37172Y-21276
X37500Y-31800
X38486Y-32786
X39193Y-33493
X39356Y-25434
X39900Y-34200
X40063Y-24727
X40063Y-26141
X40770Y-24020
X40770Y-25434
X40993Y-21907
X41477Y-24727
X41486Y-23314
X41700Y-21200
X42193Y-22607
X42193Y-24021
X42900Y-21900
X42900Y-23314
X43607Y-22607
X44204Y-21304
X44900Y-22000
X45932Y-22932
X46628Y-25020
X47600Y-25700
X48020Y-23628
T0
M30
