G04 #@! TF.GenerationSoftware,KiCad,Pcbnew,(7.0.0)*
G04 #@! TF.CreationDate,2023-04-23T00:30:47-06:00*
G04 #@! TF.ProjectId,Fonocardiograma_V3B,466f6e6f-6361-4726-9469-6f6772616d61,rev?*
G04 #@! TF.SameCoordinates,Original*
G04 #@! TF.FileFunction,Profile,NP*
%FSLAX46Y46*%
G04 Gerber Fmt 4.6, Leading zero omitted, Abs format (unit mm)*
G04 Created by KiCad (PCBNEW (7.0.0)) date 2023-04-23 00:30:47*
%MOMM*%
%LPD*%
G01*
G04 APERTURE LIST*
G04 #@! TA.AperFunction,Profile*
%ADD10C,0.200000*%
G04 #@! TD*
G04 #@! TA.AperFunction,Profile*
%ADD11C,0.120000*%
G04 #@! TD*
G04 APERTURE END LIST*
D10*
X123348543Y-65389522D02*
X123767299Y-61971992D01*
X80038330Y-55094445D02*
X79411103Y-56625533D01*
X105064696Y-51187793D02*
X103272847Y-52790876D01*
X85779750Y-75956405D02*
X92020250Y-81523595D01*
X118955549Y-73786092D02*
X121028499Y-71085827D01*
X81031390Y-53444844D02*
X80038330Y-55094445D01*
X109181589Y-49171561D02*
X107051002Y-49968861D01*
X79411103Y-56625533D02*
X79013827Y-58230585D01*
X92020250Y-81523595D02*
X100462710Y-89082855D01*
X81550962Y-71018543D02*
X82704642Y-72628042D01*
X122464220Y-68357219D02*
X123348543Y-65389522D01*
X78855930Y-61972005D02*
X79048935Y-64043341D01*
X101312060Y-89846478D02*
X102161369Y-89082651D01*
X123443039Y-57431361D02*
X122591486Y-55108445D01*
X118907579Y-50822311D02*
X116688353Y-49633471D01*
X90555916Y-48777317D02*
X88887960Y-48874475D01*
X122591486Y-55108445D02*
X121293639Y-53040371D01*
X100462710Y-89082855D02*
X101312019Y-89846479D01*
X79048935Y-64043341D02*
X79395806Y-65945016D01*
X121293639Y-53040371D02*
X120172564Y-51857758D01*
X84107860Y-74261114D02*
X85779750Y-75956405D01*
X88887960Y-48874475D02*
X87039754Y-49254560D01*
X111720580Y-48790313D02*
X109181589Y-49171561D01*
X85320481Y-49901727D02*
X83746838Y-50808101D01*
X78833203Y-59986958D02*
X78855930Y-61972005D01*
X115240369Y-77455084D02*
X117500019Y-75301192D01*
X92191165Y-48911165D02*
X90555916Y-48777317D01*
X123767299Y-61971992D02*
X123764907Y-59532312D01*
X96759377Y-50634039D02*
X95307025Y-49845997D01*
X120172564Y-51857758D02*
X118907579Y-50822311D01*
X98122503Y-51627206D02*
X96759377Y-50634039D01*
X102161369Y-89082651D02*
X111549839Y-80701532D01*
X111549839Y-80701532D02*
X115240369Y-77455084D01*
X117500019Y-75301192D02*
X118955549Y-73786092D01*
X82704642Y-72628042D02*
X84107860Y-74261114D01*
X103272847Y-52790876D02*
X101725629Y-54740631D01*
X101725629Y-54740631D02*
X101313885Y-55320420D01*
X93779578Y-49269548D02*
X92191165Y-48911165D01*
X79013827Y-58230585D02*
X78833203Y-59986958D01*
X107051002Y-49968861D02*
X105064696Y-51187793D01*
X83746838Y-50808101D02*
X82335520Y-51965805D01*
X100524560Y-54203025D02*
X99382274Y-52819025D01*
X121028499Y-71085827D02*
X122464220Y-68357219D01*
X101081388Y-55012607D02*
X100524560Y-54203025D01*
X123764907Y-59532312D02*
X123443039Y-57431361D01*
X99382274Y-52819025D02*
X98122503Y-51627206D01*
X87039754Y-49254560D02*
X85320481Y-49901727D01*
X80627686Y-69393970D02*
X81550962Y-71018543D01*
X114257760Y-48950210D02*
X111720580Y-48790313D01*
X101312019Y-89846479D02*
X101312060Y-89846478D01*
X116688353Y-49633471D02*
X114257760Y-48950210D01*
X95307025Y-49845997D02*
X93779578Y-49269548D01*
X79915678Y-67715677D02*
X80627686Y-69393970D01*
X101313885Y-55320420D02*
X101081388Y-55012607D01*
X82335520Y-51965805D02*
X81031390Y-53444844D01*
X79395806Y-65945016D02*
X79915678Y-67715677D01*
D11*
X113651595Y-61318303D02*
G75*
G03*
X113651595Y-61318303I-1524000J0D01*
G01*
X120835800Y-68502508D02*
G75*
G03*
X120835800Y-68502508I-1524000J0D01*
G01*
M02*
