G04 #@! TF.GenerationSoftware,KiCad,Pcbnew,(7.0.0)*
G04 #@! TF.CreationDate,2023-04-23T00:30:47-06:00*
G04 #@! TF.ProjectId,Fonocardiograma_V3B,466f6e6f-6361-4726-9469-6f6772616d61,rev?*
G04 #@! TF.SameCoordinates,Original*
G04 #@! TF.FileFunction,Soldermask,Top*
G04 #@! TF.FilePolarity,Negative*
%FSLAX46Y46*%
G04 Gerber Fmt 4.6, Leading zero omitted, Abs format (unit mm)*
G04 Created by KiCad (PCBNEW (7.0.0)) date 2023-04-23 00:30:47*
%MOMM*%
%LPD*%
G01*
G04 APERTURE LIST*
G04 Aperture macros list*
%AMRoundRect*
0 Rectangle with rounded corners*
0 $1 Rounding radius*
0 $2 $3 $4 $5 $6 $7 $8 $9 X,Y pos of 4 corners*
0 Add a 4 corners polygon primitive as box body*
4,1,4,$2,$3,$4,$5,$6,$7,$8,$9,$2,$3,0*
0 Add four circle primitives for the rounded corners*
1,1,$1+$1,$2,$3*
1,1,$1+$1,$4,$5*
1,1,$1+$1,$6,$7*
1,1,$1+$1,$8,$9*
0 Add four rect primitives between the rounded corners*
20,1,$1+$1,$2,$3,$4,$5,0*
20,1,$1+$1,$4,$5,$6,$7,0*
20,1,$1+$1,$6,$7,$8,$9,0*
20,1,$1+$1,$8,$9,$2,$3,0*%
%AMHorizOval*
0 Thick line with rounded ends*
0 $1 width*
0 $2 $3 position (X,Y) of the first rounded end (center of the circle)*
0 $4 $5 position (X,Y) of the second rounded end (center of the circle)*
0 Add line between two ends*
20,1,$1,$2,$3,$4,$5,0*
0 Add two circle primitives to create the rounded ends*
1,1,$1,$2,$3*
1,1,$1,$4,$5*%
%AMRotRect*
0 Rectangle, with rotation*
0 The origin of the aperture is its center*
0 $1 length*
0 $2 width*
0 $3 Rotation angle, in degrees counterclockwise*
0 Add horizontal line*
21,1,$1,$2,0,0,$3*%
G04 Aperture macros list end*
%ADD10C,1.524000*%
%ADD11RotRect,1.700000X1.700000X45.000000*%
%ADD12HorizOval,1.700000X0.000000X0.000000X0.000000X0.000000X0*%
%ADD13RotRect,1.700000X1.700000X315.000000*%
%ADD14HorizOval,1.700000X0.000000X0.000000X0.000000X0.000000X0*%
%ADD15RotRect,1.560000X1.560000X225.000000*%
%ADD16C,1.560000*%
%ADD17RoundRect,0.250000X-0.088388X0.548008X-0.548008X0.088388X0.088388X-0.548008X0.548008X-0.088388X0*%
%ADD18RotRect,1.700000X1.700000X135.000000*%
%ADD19HorizOval,1.700000X0.000000X0.000000X0.000000X0.000000X0*%
%ADD20RotRect,1.500000X2.500000X225.000000*%
%ADD21HorizOval,1.500000X-0.353553X0.353553X0.353553X-0.353553X0*%
%ADD22RoundRect,0.250000X-0.954594X-0.106066X-0.106066X-0.954594X0.954594X0.106066X0.106066X0.954594X0*%
%ADD23HorizOval,1.700000X-0.106066X-0.106066X0.106066X0.106066X0*%
%ADD24RotRect,1.700000X1.700000X225.000000*%
%ADD25HorizOval,1.700000X0.000000X0.000000X0.000000X0.000000X0*%
%ADD26RoundRect,0.250000X0.106066X-0.954594X0.954594X-0.106066X-0.106066X0.954594X-0.954594X0.106066X0*%
%ADD27HorizOval,1.700000X-0.106066X0.106066X0.106066X-0.106066X0*%
G04 APERTURE END LIST*
D10*
X96501949Y-76943949D03*
X98298000Y-78740000D03*
X100094052Y-80536051D03*
X101890103Y-82332103D03*
X103686154Y-84128154D03*
D11*
X120903999Y-65277999D03*
D10*
X90133897Y-77506102D03*
X91929948Y-75710051D03*
X93726000Y-73914000D03*
X95522051Y-72117949D03*
X97318102Y-70321897D03*
X99114153Y-68525846D03*
D11*
X97753897Y-83275897D03*
D12*
X99549948Y-85071948D03*
X101345999Y-86867999D03*
D13*
X103555799Y-61010799D03*
D14*
X105351850Y-62806850D03*
X101759748Y-62806850D03*
X103555799Y-64602901D03*
X99963697Y-64602901D03*
X101759748Y-66398953D03*
D15*
X121969686Y-60014152D03*
D16*
X116666386Y-58246386D03*
X118434153Y-63549687D03*
D17*
X102362000Y-57912000D03*
X100912432Y-59361568D03*
D18*
X95249999Y-80771999D03*
D19*
X93453948Y-78975948D03*
D17*
X99060000Y-61214000D03*
X97610432Y-62663568D03*
D20*
X98824050Y-55861948D03*
D21*
X97027999Y-57657999D03*
X95231948Y-59454050D03*
D13*
X108965999Y-55625999D03*
D14*
X110762050Y-57422050D03*
X107169948Y-57422050D03*
X108965999Y-59218101D03*
X105373897Y-59218101D03*
X107169948Y-61014153D03*
D22*
X112278233Y-54112233D03*
D23*
X114045999Y-55879999D03*
D24*
X105917999Y-53847999D03*
D25*
X104121948Y-55644050D03*
D26*
X92648594Y-55808361D03*
D27*
X94416360Y-54040593D03*
M02*
